version 1
nodes
0 "Hands biped" -1
1 "Bip01 Pelvis" 0
2 "Bip01 Spine" 1
3 "Bip01 Spine1" 2
4 "Bip01 Spine2" 3
5 "Bip01 Spine3" 4
6 "Bip01 Neck" 5
7 "Bip01 L Arm" 6
8 "Bip01 L Arm1" 7
9 "Bip01 L Arm2" 8
10 "Bip01 L Hand" 9
11 "Bip01 L Finger0" 10
12 "Bip01 L Finger01" 11
13 "Bip01 L Finger02" 12
14 "Bip01 L Finger1" 10
15 "Bip01 L Finger11" 14
16 "Bip01 L Finger12" 15
17 "Bip01 L Finger2" 10
18 "Bip01 L Finger21" 17
19 "Bip01 L Finger22" 18
20 "Bip01 L Finger3" 10
21 "Bip01 L Finger31" 20
22 "Bip01 L Finger32" 21
23 "Bip01 L Finger4" 10
24 "Bip01 L Finger41" 23
25 "Bip01 L Finger42" 24
26 "Bip01 R Arm" 6
27 "Bip01 R Arm1" 26
28 "Bip01 R Arm2" 27
29 "Bip01 R Hand" 28
30 "Bip01 R Finger0" 29
31 "Bip01 R Finger01" 30
32 "Bip01 R Finger02" 31
33 "Bip01 R Finger1" 29
34 "Bip01 R Finger11" 33
35 "Bip01 R Finger12" 34
36 "Bip01 R Finger2" 29
37 "Bip01 R Finger21" 36
38 "Bip01 R Finger22" 37
39 "Bip01 R Finger3" 29
40 "Bip01 R Finger31" 39
41 "Bip01 R Finger32" 40
42 "Bip01 R Finger4" 29
43 "Bip01 R Finger41" 42
44 "Bip01 R Finger42" 43
45 "Bone01" 29
46 "Bone02" 45
47 "Box02" -1
end
skeleton
time 0
0  -1.881380 7.691641 -22.602280  0.000000 -0.000000 -1.553390
1  0.000000 0.000000 0.000004  -1.570795 -1.570796 0.000000
2  1.326316 -0.003921 0.000002  -0.000004 -0.000001 0.000796
3  4.926311 -0.003923 -0.000000  0.000000 -0.000000 0.000000
4  4.926313 -0.003923 -0.000000  0.000000 -0.000000 0.000000
5  4.926314 -0.003923 -0.000000  0.000000 -0.000000 0.000000
6  4.926318 -0.001509 0.000000  0.000000 -0.000000 -0.000000
7  -0.000001 0.001502 1.894737  0.625520 -0.725277 2.694015
8  4.926316 -0.000000 0.000002  -0.459049 0.719323 -0.519537
9  8.422669 -1.105155 0.236086  -0.373350 -1.015469 -0.540420
10  11.368419 -0.000001 -0.000000  -2.596354 -0.095015 0.238693
11  1.126230 0.104084 -1.358368  2.320139 0.490181 0.709870
12  2.373624 -0.000004 -0.000001  -0.000000 0.000000 0.392491
13  1.071903 0.000000 -0.000002  0.000000 0.000000 0.017444
14  3.789469 -0.000905 -1.136843  0.063527 0.143681 0.423171
15  1.136841 0.000001 -0.000000  0.000000 0.000000 0.505886
16  1.136841 -0.000002 -0.000001  -0.000000 0.000000 0.680333
17  3.789471 -0.000301 -0.378948  0.022870 0.075108 0.306101
18  1.326320 -0.000001 -0.000001  -0.000000 -0.000000 0.610548
19  1.326313 -0.000001 -0.000001  0.000000 -0.000000 1.003026
20  3.789474 0.000302 0.378948  -0.000686 0.000410 0.540762
21  1.136842 -0.000002 -0.000000  -0.000000 -0.000000 0.540774
22  1.136843 0.000000 0.000001  0.000000 -0.000000 0.846017
23  3.789472 0.000905 1.136843  -0.057806 -0.136621 0.396513
24  0.947370 -0.000000 0.000002  -0.000000 0.000000 0.976868
25  0.947372 0.000001 -0.000001  0.000000 0.000000 0.732629
26  -0.000001 0.001514 -1.894737  -0.000014 1.370797 3.140783
27  4.926315 0.000000 -0.000001  0.769482 -1.151680 -0.983817
28  10.897419 -0.169185 -0.020396  -0.004805 -0.539833 -0.886152
29  11.368420 -0.000003 -0.000001  1.361516 -0.102637 0.122330
30  1.126235 0.104085 1.358371  -2.504357 -0.141489 0.818503
31  2.373626 -0.000001 0.000002  0.000000 -0.000000 0.505860
32  1.071901 0.000002 0.000000  0.000000 0.000000 0.785000
33  3.789471 -0.000905 1.136841  -0.033446 -0.153436 0.220562
34  1.136843 0.000001 -0.000003  -0.000000 0.000000 0.322721
35  1.136845 -0.000001 -0.000001  -0.000000 -0.000000 0.627981
36  3.789475 -0.000300 0.378947  -0.029964 -0.072567 0.402275
37  1.326318 -0.000001 0.000000  -0.000000 -0.000000 0.584389
38  1.326318 0.000002 0.000002  0.000000 0.000000 1.343181
39  3.789471 0.000302 -0.378946  0.000746 -0.000290 0.383772
40  1.136843 0.000001 -0.000002  -0.000000 0.000000 0.680333
41  1.136840 -0.000001 0.000000  -0.000000 0.000000 1.151298
42  3.789469 0.000905 -1.136843  0.042729 0.028628 0.286075
43  0.947370 -0.000000 -0.000001  0.000000 0.000000 0.758811
44  0.947372 -0.000001 -0.000001  0.000000 0.000000 0.854752
45  0.628269 1.045216 0.151086  1.674814 -1.370795 -0.003936
46  2.840680 -1.567270 -0.000001  -0.000000 -0.000000 -0.000000
47  -8.670676 -11.433036 -23.298759  1.570796 -0.261711 1.588238
time 1
0  -1.881380 7.691641 -22.602280  0.000000 -0.000000 -1.553390
1  0.000000 0.000000 0.000004  -1.570795 -1.570796 0.000000
2  1.326316 -0.003921 0.000002  -0.000004 -0.000001 0.000796
3  4.926311 -0.003923 -0.000000  0.000000 -0.000000 0.000000
4  4.926313 -0.003923 -0.000000  0.000000 -0.000000 0.000000
5  4.926314 -0.003923 -0.000000  0.000000 -0.000000 0.000000
6  4.926318 -0.001509 0.000000  0.000000 -0.000000 -0.000000
7  -0.000001 0.001502 1.894737  0.625520 -0.725277 2.694015
8  4.926316 -0.000000 0.000002  -0.479286 0.711289 -0.548778
9  8.548741 -1.071255 0.229683  -0.356281 -0.971729 -0.550409
10  11.368418 -0.000003 0.000000  -2.596354 -0.095015 0.238693
11  1.126230 0.104083 -1.358368  2.320139 0.490181 0.709870
12  2.373624 -0.000005 0.000000  -0.000000 -0.000000 0.392491
13  1.071903 -0.000000 -0.000001  -0.000000 -0.000000 0.017444
14  3.789467 -0.000905 -1.136844  0.063527 0.143681 0.423171
15  1.136842 0.000001 -0.000000  0.000000 0.000000 0.505886
16  1.136841 -0.000001 -0.000001  0.000000 0.000000 0.680333
17  3.789468 -0.000299 -0.378949  0.022870 0.075108 0.306101
18  1.326318 -0.000001 -0.000000  -0.000000 0.000000 0.610548
19  1.326312 0.000002 -0.000001  0.000000 0.000000 1.003026
20  3.789472 0.000302 0.378944  -0.000686 0.000410 0.540762
21  1.136842 0.000000 -0.000002  0.000000 -0.000000 0.540774
22  1.136841 0.000000 -0.000000  -0.000000 -0.000000 0.846017
23  3.789470 0.000906 1.136838  -0.057806 -0.136621 0.396513
24  0.947369 0.000000 0.000003  -0.000000 -0.000000 0.976868
25  0.947372 0.000001 0.000000  0.000000 -0.000000 0.732629
26  -0.000001 0.001514 -1.894737  -0.000014 1.370797 3.140783
27  4.926315 0.000000 -0.000001  0.808955 -1.133113 -1.026125
28  10.910972 -0.157679 -0.018761  -0.005177 -0.516408 -0.885987
29  11.368421 -0.000002 -0.000001  1.371467 -0.088531 0.124440
30  1.126235 0.104084 1.358371  -2.504357 -0.141489 0.818503
31  2.373626 -0.000000 0.000001  -0.000000 0.000000 0.505860
32  1.071899 -0.000002 -0.000001  0.000000 0.000000 0.785000
33  3.789471 -0.000906 1.136840  -0.033446 -0.153436 0.220562
34  1.136843 0.000001 -0.000001  -0.000000 0.000000 0.322721
35  1.136845 0.000001 -0.000001  0.000000 0.000000 0.627981
36  3.789474 -0.000301 0.378950  -0.029964 -0.072567 0.402275
37  1.326317 -0.000000 -0.000004  0.000000 -0.000000 0.584389
38  1.326319 -0.000000 -0.000001  0.000000 -0.000000 1.343181
39  3.789471 0.000302 -0.378948  0.000746 -0.000290 0.383772
40  1.136843 0.000001 0.000000  -0.000000 0.000000 0.680333
41  1.136840 -0.000001 0.000000  0.000000 -0.000000 1.151298
42  3.789469 0.000904 -1.136842  0.042729 0.028628 0.286075
43  0.947368 -0.000000 0.000000  0.000000 -0.000000 0.758811
44  0.947373 0.000001 -0.000001  -0.000000 -0.000000 0.854752
45  0.628268 1.045216 0.151085  1.674813 -1.370795 -0.003936
46  2.840680 -1.567270 0.000000  -0.000000 0.000000 0.000000
47  -8.670676 -11.433036 -23.298759  1.570796 -0.261711 1.588238
time 2
0  -1.881380 7.691641 -22.602280  0.000000 -0.000000 -1.553390
1  0.000000 0.000000 0.000004  -1.570795 -1.570796 0.000000
2  1.326316 -0.003921 0.000002  -0.000004 -0.000001 0.000796
3  4.926311 -0.003923 -0.000000  0.000000 -0.000000 0.000000
4  4.926313 -0.003923 -0.000000  0.000000 -0.000000 0.000000
5  4.926314 -0.003923 -0.000000  0.000000 -0.000000 0.000000
6  4.926318 -0.001509 0.000000  0.000000 -0.000000 -0.000000
7  -0.000001 0.001502 1.894737  0.625520 -0.725277 2.694015
8  4.926316 -0.000000 0.000002  -0.529631 0.686886 -0.623512
9  8.881555 -0.979715 0.212263  -0.311281 -0.856417 -0.576743
10  11.368418 -0.000001 0.000000  -2.596354 -0.095015 0.238693
11  1.126231 0.104082 -1.358366  2.320139 0.490181 0.709870
12  2.373625 -0.000003 -0.000001  -0.000000 -0.000000 0.392491
13  1.071904 -0.000001 -0.000003  -0.000000 0.000000 0.017444
14  3.789471 -0.000907 -1.136841  0.063527 0.143681 0.423171
15  1.136839 0.000000 -0.000003  0.000000 -0.000000 0.505886
16  1.136841 -0.000001 -0.000001  0.000000 0.000000 0.680333
17  3.789470 -0.000301 -0.378947  0.022870 0.075108 0.306101
18  1.326317 -0.000002 0.000000  0.000000 -0.000000 0.610548
19  1.326312 0.000001 0.000001  -0.000000 0.000000 1.003026
20  3.789474 0.000302 0.378947  -0.000686 0.000410 0.540762
21  1.136842 -0.000003 0.000001  -0.000000 0.000000 0.540774
22  1.136841 0.000000 0.000004  -0.000000 0.000000 0.846017
23  3.789472 0.000906 1.136840  -0.057806 -0.136621 0.396513
24  0.947369 0.000003 0.000000  0.000000 0.000000 0.976868
25  0.947374 0.000002 0.000001  0.000000 0.000000 0.732629
26  -0.000001 0.001514 -1.894737  -0.000014 1.370797 3.140783
27  4.926315 0.000000 -0.000001  0.897869 -1.081455 -1.123016
28  10.947730 -0.127558 -0.014449  -0.006160 -0.454653 -0.884833
29  11.368419 -0.000002 -0.000001  1.397992 -0.051378 0.130099
30  1.126235 0.104084 1.358370  -2.504357 -0.141489 0.818503
31  2.373626 -0.000000 0.000001  0.000000 -0.000000 0.505860
32  1.071901 -0.000000 -0.000000  0.000000 -0.000000 0.785000
33  3.789472 -0.000906 1.136839  -0.033446 -0.153436 0.220562
34  1.136843 0.000001 -0.000002  -0.000000 0.000000 0.322721
35  1.136844 0.000001 -0.000001  -0.000000 0.000000 0.627981
36  3.789475 -0.000300 0.378946  -0.029964 -0.072567 0.402275
37  1.326317 -0.000002 -0.000003  -0.000000 -0.000000 0.584389
38  1.326319 0.000001 -0.000000  0.000000 0.000000 1.343181
39  3.789471 0.000302 -0.378947  0.000746 -0.000290 0.383772
40  1.136843 -0.000001 0.000000  0.000000 0.000000 0.680333
41  1.136840 -0.000002 0.000001  -0.000000 -0.000000 1.151298
42  3.789469 0.000904 -1.136842  0.042729 0.028628 0.286075
43  0.947369 -0.000000 0.000001  -0.000000 -0.000000 0.758811
44  0.947372 0.000001 -0.000001  0.000000 0.000000 0.854752
45  0.628268 1.045215 0.151086  1.674814 -1.370795 -0.003936
46  2.840679 -1.567273 -0.000000  0.000000 -0.000000 0.000000
47  -8.670676 -11.433036 -23.298759  1.570796 -0.261711 1.588238
time 3
0  -1.881380 7.691641 -22.602280  0.000000 -0.000000 -1.553390
1  0.000000 0.000000 0.000004  -1.570795 -1.570796 0.000000
2  1.326316 -0.003921 0.000002  -0.000004 -0.000001 0.000796
3  4.926311 -0.003923 -0.000000  0.000000 -0.000000 0.000000
4  4.926313 -0.003923 -0.000000  0.000000 -0.000000 0.000000
5  4.926314 -0.003923 -0.000000  0.000000 -0.000000 0.000000
6  4.926318 -0.001509 0.000000  0.000000 -0.000000 -0.000000
7  -0.000001 0.001502 1.894737  0.625520 -0.725277 2.694015
8  4.926316 -0.000000 0.000002  -0.592743 0.644992 -0.722721
9  9.352997 -0.845778 0.186506  -0.247660 -0.693388 -0.613974
10  11.368419 -0.000002 -0.000000  -2.596354 -0.095015 0.238693
11  1.126230 0.104081 -1.358368  2.320139 0.490181 0.709870
12  2.373624 -0.000006 0.000000  -0.000000 -0.000000 0.392491
13  1.071903 0.000001 -0.000002  -0.000000 -0.000000 0.017444
14  3.789468 -0.000906 -1.136844  0.063527 0.143681 0.423171
15  1.136842 -0.000001 0.000000  0.000000 -0.000000 0.505886
16  1.136841 -0.000003 0.000000  0.000000 -0.000000 0.680333
17  3.789469 -0.000302 -0.378949  0.022870 0.075108 0.306101
18  1.326319 -0.000000 0.000001  -0.000000 -0.000000 0.610548
19  1.326312 -0.000002 -0.000001  0.000000 -0.000000 1.003026
20  3.789473 0.000300 0.378946  -0.000686 0.000410 0.540762
21  1.136843 -0.000000 0.000002  -0.000000 0.000000 0.540774
22  1.136841 -0.000002 0.000000  -0.000000 0.000000 0.846017
23  3.789472 0.000903 1.136840  -0.057806 -0.136621 0.396513
24  0.947368 0.000001 -0.000000  -0.000000 -0.000000 0.976868
25  0.947371 -0.000002 -0.000000  -0.000000 0.000000 0.732629
26  -0.000001 0.001514 -1.894737  -0.000014 1.370797 3.140783
27  4.926315 0.000000 -0.000001  0.993995 -1.003524 -1.231734
28  11.001854 -0.085412 -0.008352  -0.007548 -0.367343 -0.881699
29  11.368421 -0.000001 -0.000001  1.436224 0.001054 0.138375
30  1.126234 0.104084 1.358372  -2.504357 -0.141489 0.818503
31  2.373625 0.000000 0.000001  0.000000 -0.000000 0.505860
32  1.071901 0.000001 -0.000001  0.000000 0.000000 0.785000
33  3.789470 -0.000906 1.136841  -0.033446 -0.153436 0.220562
34  1.136844 -0.000001 -0.000001  -0.000000 0.000000 0.322721
35  1.136844 -0.000001 -0.000003  -0.000000 0.000000 0.627981
36  3.789474 -0.000301 0.378948  -0.029964 -0.072567 0.402275
37  1.326317 0.000000 -0.000003  -0.000000 -0.000000 0.584389
38  1.326319 0.000001 -0.000001  0.000000 -0.000000 1.343181
39  3.789470 0.000302 -0.378945  0.000746 -0.000290 0.383772
40  1.136843 0.000002 -0.000002  0.000000 -0.000000 0.680333
41  1.136840 -0.000000 0.000002  -0.000000 0.000000 1.151298
42  3.789470 0.000903 -1.136842  0.042729 0.028628 0.286075
43  0.947368 -0.000000 0.000001  -0.000000 0.000000 0.758811
44  0.947372 0.000001 -0.000001  0.000000 -0.000000 0.854752
45  0.628268 1.045215 0.151088  1.674814 -1.370795 -0.003936
46  2.840682 -1.567270 -0.000000  -0.000000 0.000000 -0.000000
47  -8.670676 -11.433036 -23.298759  1.570796 -0.261711 1.588238
time 4
0  -1.881380 7.691641 -22.602280  0.000000 -0.000000 -1.553390
1  0.000000 0.000000 0.000004  -1.570795 -1.570796 0.000000
2  1.326316 -0.003921 0.000002  -0.000004 -0.000001 0.000796
3  4.926311 -0.003923 -0.000000  0.000000 -0.000000 0.000000
4  4.926313 -0.003923 -0.000000  0.000000 -0.000000 0.000000
5  4.926314 -0.003923 -0.000000  0.000000 -0.000000 0.000000
6  4.926318 -0.001509 0.000000  0.000000 -0.000000 -0.000000
7  -0.000001 0.001502 1.894737  0.625520 -0.725277 2.694015
8  4.926316 -0.000000 0.000002  -0.652842 0.587575 -0.826570
9  9.894960 -0.684694 0.155095  -0.174729 -0.506502 -0.656653
10  11.368420 -0.000000 -0.000000  -2.596354 -0.095015 0.238693
11  1.126229 0.104082 -1.358367  2.320139 0.490181 0.709870
12  2.373625 -0.000004 0.000001  -0.000000 -0.000000 0.392491
13  1.071903 -0.000000 -0.000001  -0.000000 0.000000 0.017444
14  3.789468 -0.000906 -1.136843  0.063527 0.143681 0.423171
15  1.136840 0.000002 -0.000000  0.000000 -0.000000 0.505886
16  1.136841 -0.000003 -0.000001  -0.000000 -0.000000 0.680333
17  3.789468 -0.000301 -0.378949  0.022870 0.075108 0.306101
18  1.326320 0.000000 0.000000  0.000000 -0.000000 0.610548
19  1.326315 -0.000000 -0.000000  -0.000000 0.000000 1.003026
20  3.789473 0.000300 0.378947  -0.000686 0.000410 0.540762
21  1.136841 -0.000001 0.000000  -0.000000 0.000000 0.540774
22  1.136843 0.000002 -0.000001  -0.000000 0.000000 0.846017
23  3.789471 0.000902 1.136841  -0.057806 -0.136621 0.396513
24  0.947369 0.000003 -0.000001  0.000000 0.000000 0.976868
25  0.947373 0.000000 0.000001  0.000000 0.000000 0.732629
26  -0.000001 0.001514 -1.894737  -0.000014 1.370797 3.140783
27  4.926315 0.000000 -0.000001  1.073959 -0.909669 -1.328180
28  11.067508 -0.037826 -0.001364  -0.009140 -0.267256 -0.875595
29  11.368422 -0.000001 -0.000001  1.481148 0.061006 0.148339
30  1.126234 0.104085 1.358371  -2.504357 -0.141489 0.818503
31  2.373626 -0.000002 0.000001  -0.000000 -0.000000 0.505860
32  1.071901 0.000000 0.000001  0.000000 -0.000000 0.785000
33  3.789472 -0.000906 1.136840  -0.033446 -0.153436 0.220562
34  1.136842 -0.000001 -0.000002  -0.000000 0.000000 0.322721
35  1.136846 -0.000000 -0.000002  -0.000000 0.000000 0.627981
36  3.789474 -0.000301 0.378946  -0.029964 -0.072567 0.402275
37  1.326317 0.000000 -0.000003  0.000000 -0.000000 0.584389
38  1.326319 -0.000001 -0.000000  0.000000 -0.000000 1.343181
39  3.789469 0.000302 -0.378947  0.000746 -0.000290 0.383772
40  1.136843 0.000000 0.000000  -0.000000 -0.000000 0.680333
41  1.136840 -0.000000 -0.000000  0.000000 0.000000 1.151298
42  3.789468 0.000905 -1.136843  0.042729 0.028628 0.286075
43  0.947370 0.000001 -0.000001  -0.000000 0.000000 0.758811
44  0.947372 0.000001 0.000000  0.000000 -0.000000 0.854752
45  0.628267 1.045215 0.151086  1.674814 -1.370795 -0.003936
46  2.840678 -1.567271 -0.000001  0.000000 -0.000000 -0.000000
47  -8.670676 -11.433036 -23.298759  1.570796 -0.261711 1.588238
time 5
0  -1.881380 7.691641 -22.602280  0.000000 -0.000000 -1.553390
1  0.000000 0.000000 0.000004  -1.570795 -1.570796 0.000000
2  1.326316 -0.003921 0.000002  -0.000004 -0.000001 0.000796
3  4.926311 -0.003923 -0.000000  0.000000 -0.000000 0.000000
4  4.926313 -0.003923 -0.000000  0.000000 -0.000000 0.000000
5  4.926314 -0.003923 -0.000000  0.000000 -0.000000 0.000000
6  4.926318 -0.001509 0.000000  0.000000 -0.000000 -0.000000
7  -0.000001 0.001502 1.894737  0.625520 -0.725277 2.694015
8  4.926316 -0.000000 0.000002  -0.699930 0.521664 -0.920019
9  10.439339 -0.511698 0.120712  -0.101798 -0.319616 -0.699333
10  11.368419 -0.000001 -0.000000  -2.596354 -0.095015 0.238693
11  1.126231 0.104083 -1.358367  2.320139 0.490181 0.709870
12  2.373625 -0.000004 0.000000  0.000000 -0.000000 0.392491
13  1.071900 0.000000 -0.000002  0.000000 0.000000 0.017444
14  3.789469 -0.000904 -1.136843  0.063527 0.143681 0.423171
15  1.136841 0.000003 -0.000002  0.000000 0.000000 0.505886
16  1.136841 0.000000 -0.000000  -0.000000 -0.000000 0.680333
17  3.789469 -0.000299 -0.378948  0.022870 0.075108 0.306101
18  1.326319 0.000000 0.000000  -0.000000 0.000000 0.610548
19  1.326314 -0.000001 -0.000000  -0.000000 0.000000 1.003026
20  3.789475 0.000302 0.378947  -0.000686 0.000410 0.540762
21  1.136841 -0.000002 0.000000  -0.000000 -0.000000 0.540774
22  1.136842 0.000002 0.000001  -0.000000 -0.000000 0.846017
23  3.789473 0.000906 1.136841  -0.057806 -0.136621 0.396513
24  0.947372 0.000001 0.000000  0.000000 -0.000000 0.976868
25  0.947373 -0.000000 -0.000001  -0.000000 -0.000000 0.732629
26  -0.000001 0.001514 -1.894737  -0.000014 1.370797 3.140783
27  4.926315 0.000000 -0.000001  1.131741 -0.812888 -1.404846
28  11.138845 0.008606 0.005623  -0.010732 -0.167168 -0.865533
29  11.368422 -0.000003 -0.000002  1.527306 0.120773 0.158914
30  1.126236 0.104084 1.358372  -2.504357 -0.141489 0.818503
31  2.373626 -0.000002 0.000000  0.000000 -0.000000 0.505860
32  1.071900 -0.000000 0.000001  0.000000 -0.000000 0.785000
33  3.789471 -0.000906 1.136838  -0.033446 -0.153436 0.220562
34  1.136843 0.000000 0.000000  -0.000000 0.000000 0.322721
35  1.136844 -0.000000 -0.000002  -0.000000 0.000000 0.627981
36  3.789474 -0.000301 0.378948  -0.029964 -0.072567 0.402275
37  1.326316 -0.000002 -0.000002  0.000000 -0.000000 0.584389
38  1.326319 0.000001 -0.000001  0.000000 -0.000000 1.343181
39  3.789470 0.000302 -0.378947  0.000746 -0.000290 0.383772
40  1.136844 0.000000 -0.000001  -0.000000 0.000000 0.680333
41  1.136841 -0.000001 0.000000  -0.000000 -0.000000 1.151298
42  3.789470 0.000904 -1.136843  0.042729 0.028628 0.286075
43  0.947368 -0.000001 0.000002  -0.000000 0.000000 0.758811
44  0.947371 -0.000000 -0.000000  0.000000 0.000000 0.854752
45  0.628269 1.045215 0.151086  1.674814 -1.370795 -0.003936
46  2.840680 -1.567270 0.000000  -0.000000 -0.000000 0.000000
47  -8.670676 -11.433036 -23.298759  1.570796 -0.261711 1.588238
time 6
0  -1.881380 7.691641 -22.602280  0.000000 -0.000000 -1.553390
1  0.000000 0.000000 0.000004  -1.570795 -1.570796 0.000000
2  1.326316 -0.003921 0.000002  -0.000004 -0.000001 0.000796
3  4.926311 -0.003923 -0.000000  0.000000 -0.000000 0.000000
4  4.926313 -0.003923 -0.000000  0.000000 -0.000000 0.000000
5  4.926314 -0.003923 -0.000000  0.000000 -0.000000 0.000000
6  4.926318 -0.001509 0.000000  0.000000 -0.000000 -0.000000
7  -0.000001 0.001502 1.894737  0.625520 -0.725277 2.694015
8  4.926316 -0.000000 0.000002  -0.730916 0.458383 -0.993675
9  10.918023 -0.342041 0.086037  -0.038177 -0.156588 -0.736563
10  11.368420 -0.000002 -0.000000  -2.596354 -0.095015 0.238693
11  1.126229 0.104084 -1.358368  2.320139 0.490181 0.709870
12  2.373625 -0.000004 -0.000000  -0.000000 -0.000000 0.392491
13  1.071903 -0.000001 -0.000001  -0.000000 0.000000 0.017444
14  3.789467 -0.000904 -1.136843  0.063527 0.143681 0.423171
15  1.136840 0.000001 -0.000001  0.000000 -0.000000 0.505886
16  1.136842 -0.000002 -0.000000  0.000000 0.000000 0.680333
17  3.789469 -0.000300 -0.378948  0.022870 0.075108 0.306101
18  1.326317 -0.000003 0.000001  -0.000000 -0.000000 0.610548
19  1.326313 0.000001 0.000001  -0.000000 0.000000 1.003026
20  3.789474 0.000302 0.378947  -0.000686 0.000410 0.540762
21  1.136844 -0.000002 -0.000001  0.000000 -0.000000 0.540774
22  1.136842 0.000001 -0.000001  -0.000000 0.000000 0.846017
23  3.789471 0.000905 1.136841  -0.057806 -0.136621 0.396513
24  0.947372 -0.000000 0.000000  0.000000 0.000000 0.976868
25  0.947374 -0.000001 -0.000000  0.000000 0.000000 0.732629
26  -0.000001 0.001514 -1.894737  -0.000014 1.370797 3.140783
27  4.926315 0.000000 -0.000001  1.169229 -0.727019 -1.460977
28  11.210030 0.047297 0.011720  -0.012121 -0.079858 -0.850522
29  11.368422 -0.000003 -0.000002  1.568645 0.172738 0.168731
30  1.126235 0.104084 1.358371  -2.504357 -0.141489 0.818503
31  2.373625 -0.000002 0.000002  0.000000 -0.000000 0.505860
32  1.071900 -0.000000 -0.000000  0.000000 -0.000000 0.785000
33  3.789472 -0.000906 1.136839  -0.033446 -0.153436 0.220562
34  1.136844 -0.000000 0.000000  -0.000000 0.000000 0.322721
35  1.136844 -0.000001 -0.000002  -0.000000 -0.000000 0.627981
36  3.789476 -0.000300 0.378947  -0.029964 -0.072567 0.402275
37  1.326315 0.000000 -0.000003  0.000000 0.000000 0.584389
38  1.326320 0.000002 -0.000000  0.000000 0.000000 1.343181
39  3.789471 0.000302 -0.378946  0.000746 -0.000290 0.383772
40  1.136843 0.000002 -0.000001  -0.000000 0.000000 0.680333
41  1.136842 -0.000003 0.000002  0.000000 0.000000 1.151298
42  3.789470 0.000905 -1.136843  0.042729 0.028628 0.286075
43  0.947367 -0.000000 0.000001  -0.000000 0.000000 0.758811
44  0.947371 0.000003 -0.000001  0.000000 0.000000 0.854752
45  0.628268 1.045216 0.151085  1.674814 -1.370795 -0.003936
46  2.840678 -1.567271 0.000001  -0.000000 -0.000000 -0.000000
47  -8.670676 -11.433036 -23.298759  1.570796 -0.261711 1.588238
time 7
0  -1.881380 7.691641 -22.602280  0.000000 -0.000000 -1.553390
1  0.000000 0.000000 0.000004  -1.570795 -1.570796 0.000000
2  1.326316 -0.003921 0.000002  -0.000004 -0.000001 0.000796
3  4.926311 -0.003923 -0.000000  0.000000 -0.000000 0.000000
4  4.926313 -0.003923 -0.000000  0.000000 -0.000000 0.000000
5  4.926314 -0.003923 -0.000000  0.000000 -0.000000 0.000000
6  4.926318 -0.001509 0.000000  0.000000 -0.000000 -0.000000
7  -0.000001 0.001502 1.894737  0.625520 -0.725277 2.694015
8  4.926316 -0.000000 0.000002  -0.747531 0.410868 -1.041787
9  11.262901 -0.190963 0.053753  0.006823 -0.041275 -0.762897
10  11.368418 -0.000001 -0.000000  -2.596354 -0.095015 0.238693
11  1.126229 0.104084 -1.358367  2.320139 0.490181 0.709870
12  2.373624 -0.000003 -0.000001  -0.000000 -0.000000 0.392491
13  1.071903 -0.000000 -0.000002  -0.000000 -0.000000 0.017444
14  3.789467 -0.000905 -1.136843  0.063527 0.143681 0.423171
15  1.136843 0.000001 -0.000001  -0.000000 0.000000 0.505886
16  1.136840 -0.000004 -0.000002  0.000000 0.000000 0.680333
17  3.789468 -0.000301 -0.378948  0.022870 0.075108 0.306101
18  1.326321 -0.000003 0.000001  -0.000000 0.000000 0.610548
19  1.326312 0.000001 -0.000000  0.000000 -0.000000 1.003026
20  3.789474 0.000301 0.378947  -0.000686 0.000410 0.540762
21  1.136842 -0.000002 0.000001  0.000000 -0.000000 0.540774
22  1.136843 -0.000001 0.000000  0.000000 -0.000000 0.846017
23  3.789470 0.000904 1.136841  -0.057806 -0.136621 0.396513
24  0.947371 -0.000001 0.000000  -0.000000 0.000000 0.976868
25  0.947371 0.000002 0.000000  0.000000 -0.000000 0.732629
26  -0.000001 0.001514 -1.894737  -0.000014 1.370797 3.140783
27  4.926315 0.000000 -0.000001  1.190127 -0.665774 -1.496399
28  11.275219 0.071656 0.016032  -0.013103 -0.018103 -0.829572
29  11.368420 -0.000003 -0.000001  1.598527 0.209388 0.176058
30  1.126235 0.104085 1.358372  -2.504357 -0.141489 0.818503
31  2.373626 -0.000001 0.000001  -0.000000 -0.000000 0.505860
32  1.071900 -0.000001 0.000000  0.000000 -0.000000 0.785000
33  3.789472 -0.000905 1.136840  -0.033446 -0.153436 0.220562
34  1.136842 0.000000 0.000000  -0.000000 0.000000 0.322721
35  1.136847 -0.000000 -0.000002  -0.000000 0.000000 0.627981
36  3.789475 -0.000300 0.378949  -0.029964 -0.072567 0.402275
37  1.326316 0.000000 -0.000002  0.000000 -0.000000 0.584389
38  1.326319 0.000002 -0.000002  -0.000000 -0.000000 1.343181
39  3.789471 0.000303 -0.378945  0.000746 -0.000290 0.383772
40  1.136843 0.000001 0.000001  -0.000000 0.000000 0.680333
41  1.136842 -0.000002 0.000001  0.000000 -0.000000 1.151298
42  3.789469 0.000905 -1.136842  0.042729 0.028628 0.286075
43  0.947369 0.000001 -0.000000  -0.000000 0.000000 0.758811
44  0.947373 0.000001 0.000000  0.000000 0.000000 0.854752
45  0.628269 1.045216 0.151087  1.674814 -1.370795 -0.003936
46  2.840679 -1.567270 -0.000001  -0.000000 -0.000000 -0.000000
47  -8.670676 -11.433036 -23.298759  1.570796 -0.261711 1.588238
time 8
0  -1.881380 7.691641 -22.602280  0.000000 -0.000000 -1.553390
1  0.000000 0.000000 0.000004  -1.570795 -1.570796 0.000000
2  1.326316 -0.003921 0.000002  -0.000004 -0.000001 0.000796
3  4.926311 -0.003923 -0.000000  0.000000 -0.000000 0.000000
4  4.926313 -0.003923 -0.000000  0.000000 -0.000000 0.000000
5  4.926314 -0.003923 -0.000000  0.000000 -0.000000 0.000000
6  4.926318 -0.001509 0.000000  0.000000 -0.000000 -0.000000
7  -0.000001 0.001502 1.894737  0.625520 -0.725277 2.694015
8  4.926316 -0.000000 0.000002  -0.752745 0.392315 -1.059245
9  11.405869 -0.073706 0.026540  0.023892 0.002464 -0.772886
10  11.368418 -0.000003 -0.000001  -2.596354 -0.095015 0.238693
11  1.126230 0.104083 -1.358367  2.320139 0.490181 0.709870
12  2.373625 -0.000004 -0.000000  0.000000 -0.000000 0.392491
13  1.071901 -0.000002 -0.000001  0.000000 0.000000 0.017444
14  3.789467 -0.000905 -1.136842  0.063527 0.143681 0.423171
15  1.136841 0.000003 -0.000001  -0.000000 -0.000000 0.505886
16  1.136842 -0.000004 0.000000  0.000000 0.000000 0.680333
17  3.789469 -0.000301 -0.378948  0.022870 0.075108 0.306101
18  1.326318 -0.000003 0.000001  0.000000 -0.000000 0.610548
19  1.326314 -0.000004 -0.000001  0.000000 0.000000 1.003026
20  3.789470 0.000301 0.378947  -0.000686 0.000410 0.540762
21  1.136843 -0.000000 0.000000  -0.000000 -0.000000 0.540774
22  1.136840 0.000003 0.000000  -0.000000 -0.000000 0.846017
23  3.789472 0.000904 1.136840  -0.057806 -0.136621 0.396513
24  0.947371 -0.000001 -0.000000  -0.000000 -0.000000 0.976868
25  0.947372 0.000004 0.000001  0.000000 0.000000 0.732629
26  -0.000001 0.001514 -1.894737  -0.000014 1.370797 3.140783
27  4.926315 0.000000 -0.000001  1.197015 -0.642467 -1.509105
28  11.328569 0.075092 0.017666  -0.013476 0.005322 -0.801693
29  11.368422 -0.000003 -0.000002  1.610008 0.223264 0.178928
30  1.126234 0.104085 1.358371  -2.504357 -0.141489 0.818503
31  2.373626 -0.000002 0.000001  0.000000 -0.000000 0.505860
32  1.071900 0.000001 0.000001  0.000000 -0.000000 0.785000
33  3.789472 -0.000906 1.136839  -0.033446 -0.153436 0.220562
34  1.136842 -0.000000 0.000001  -0.000000 0.000000 0.322721
35  1.136844 0.000000 -0.000003  -0.000000 0.000000 0.627981
36  3.789474 -0.000300 0.378947  -0.029964 -0.072567 0.402275
37  1.326319 -0.000002 -0.000003  0.000000 0.000000 0.584389
38  1.326320 0.000003 -0.000001  -0.000000 -0.000000 1.343181
39  3.789471 0.000302 -0.378947  0.000746 -0.000290 0.383772
40  1.136845 -0.000000 -0.000000  -0.000000 0.000000 0.680333
41  1.136842 -0.000002 0.000001  -0.000000 -0.000000 1.151298
42  3.789469 0.000904 -1.136844  0.042729 0.028628 0.286075
43  0.947367 -0.000001 -0.000000  -0.000000 0.000000 0.758811
44  0.947374 -0.000002 -0.000001  0.000000 0.000000 0.854752
45  0.628267 1.045216 0.151086  1.674814 -1.370795 -0.003936
46  2.840681 -1.567273 -0.000001  -0.000000 -0.000000 -0.000000
47  -8.670676 -11.433036 -23.298759  1.570796 -0.261711 1.588238
time 9
0  -1.881380 7.691641 -22.602280  0.000000 -0.000000 -1.553390
1  0.000000 0.000000 0.000004  -1.570795 -1.570796 0.000000
2  1.326316 -0.003921 0.000002  -0.000004 -0.000001 0.000796
3  4.926311 -0.003923 -0.000000  0.000000 -0.000000 0.000000
4  4.926313 -0.003923 -0.000000  0.000000 -0.000000 0.000000
5  4.926314 -0.003923 -0.000000  0.000000 -0.000000 0.000000
6  4.926318 -0.001509 0.000000  0.000000 -0.000000 -0.000000
7  -0.000001 0.001502 1.894737  0.625520 -0.725277 2.694015
8  4.926316 -0.000000 0.000002  -0.752745 0.392315 -1.059245
9  11.391973 -0.013037 0.007324  0.011946 0.001232 -0.739441
10  11.368419 -0.000001 0.000000  -2.596354 -0.095015 0.238693
11  1.126231 0.104083 -1.358368  2.320139 0.490181 0.709870
12  2.373625 -0.000004 -0.000001  -0.000000 0.000000 0.392491
13  1.071904 -0.000001 0.000000  -0.000000 -0.000000 0.017444
14  3.789468 -0.000906 -1.136842  0.063527 0.143681 0.423171
15  1.136840 0.000003 0.000000  -0.000000 0.000000 0.505886
16  1.136840 -0.000002 -0.000000  0.000000 0.000000 0.680333
17  3.789470 -0.000301 -0.378948  0.022870 0.075108 0.306101
18  1.326319 -0.000001 0.000000  -0.000000 -0.000000 0.610548
19  1.326314 -0.000000 -0.000001  -0.000000 0.000000 1.003026
20  3.789474 0.000302 0.378947  -0.000686 0.000410 0.540762
21  1.136842 0.000001 0.000000  -0.000000 0.000000 0.540774
22  1.136842 -0.000000 -0.000000  0.000000 -0.000000 0.846017
23  3.789472 0.000904 1.136841  -0.057806 -0.136621 0.396513
24  0.947369 0.000002 0.000000  0.000000 0.000000 0.976868
25  0.947372 0.000001 0.000000  -0.000000 -0.000000 0.732629
26  -0.000001 0.001514 -1.894737  -0.000014 1.370797 3.140783
27  4.926315 0.000000 -0.000001  1.197015 -0.642467 -1.509105
28  11.359868 0.035241 0.008833  -0.006738 0.002661 -0.758954
29  11.368422 -0.000002 -0.000002  1.610008 0.223264 0.178928
30  1.126235 0.104085 1.358370  -2.504357 -0.141489 0.818503
31  2.373625 -0.000000 0.000000  0.000000 -0.000000 0.505860
32  1.071900 0.000000 0.000000  0.000000 -0.000000 0.785000
33  3.789470 -0.000906 1.136839  -0.033446 -0.153436 0.220562
34  1.136840 0.000001 0.000000  -0.000000 0.000000 0.322721
35  1.136848 -0.000001 -0.000003  -0.000000 0.000000 0.627981
36  3.789476 -0.000300 0.378947  -0.029964 -0.072567 0.402275
37  1.326313 -0.000001 -0.000004  0.000000 -0.000000 0.584389
38  1.326318 0.000003 -0.000001  0.000000 0.000000 1.343181
39  3.789471 0.000303 -0.378947  0.000746 -0.000290 0.383772
40  1.136846 0.000000 -0.000001  -0.000000 0.000000 0.680333
41  1.136841 0.000001 -0.000001  -0.000000 0.000000 1.151298
42  3.789471 0.000905 -1.136844  0.042729 0.028628 0.286075
43  0.947368 -0.000001 -0.000001  -0.000000 0.000000 0.758811
44  0.947371 -0.000000 -0.000001  0.000000 0.000000 0.854752
45  0.628268 1.045216 0.151086  1.674814 -1.370795 -0.003936
46  2.840680 -1.567268 -0.000001  -0.000000 -0.000000 -0.000000
47  -8.670676 -11.433036 -23.298759  1.570796 -0.261711 1.588238
time 10
0  -1.881380 7.691641 -22.602280  0.000000 -0.000000 -1.553390
1  0.000000 0.000000 0.000004  -1.570795 -1.570796 0.000000
2  1.326316 -0.003921 0.000002  -0.000004 -0.000001 0.000796
3  4.926311 -0.003923 -0.000000  0.000000 -0.000000 0.000000
4  4.926313 -0.003923 -0.000000  0.000000 -0.000000 0.000000
5  4.926314 -0.003923 -0.000000  0.000000 -0.000000 0.000000
6  4.926318 -0.001509 0.000000  0.000000 -0.000000 -0.000000
7  -0.000001 0.001502 1.894737  0.625520 -0.725277 2.694015
8  4.926316 -0.000000 0.000002  -0.752745 0.392315 -1.059245
9  11.368424 0.000002 -0.000000  0.000000 -0.000000 -0.705995
10  11.368418 -0.000001 0.000000  -2.596354 -0.095015 0.238693
11  1.126232 0.104083 -1.358367  2.320139 0.490181 0.709870
12  2.373624 -0.000004 0.000000  -0.000000 -0.000000 0.392491
13  1.071905 0.000001 -0.000000  0.000000 -0.000000 0.017444
14  3.789470 -0.000905 -1.136842  0.063527 0.143681 0.423171
15  1.136842 0.000001 -0.000001  -0.000000 0.000000 0.505886
16  1.136840 -0.000002 -0.000002  0.000000 0.000000 0.680333
17  3.789469 -0.000301 -0.378948  0.022870 0.075108 0.306101
18  1.326319 -0.000000 0.000001  -0.000000 0.000000 0.610548
19  1.326313 0.000001 0.000000  0.000000 0.000000 1.003026
20  3.789477 0.000302 0.378946  -0.000686 0.000410 0.540762
21  1.136842 -0.000001 0.000001  -0.000000 0.000000 0.540774
22  1.136843 0.000000 0.000000  -0.000000 -0.000000 0.846017
23  3.789474 0.000905 1.136841  -0.057806 -0.136621 0.396513
24  0.947371 0.000000 -0.000000  -0.000000 -0.000000 0.976868
25  0.947372 0.000002 -0.000000  0.000000 -0.000000 0.732629
26  -0.000001 0.001514 -1.894737  -0.000014 1.370797 3.140783
27  4.926315 0.000000 -0.000001  1.197015 -0.642467 -1.509105
28  11.368423 -0.000001 -0.000001  -0.000000 -0.000000 -0.732050
29  11.368420 -0.000003 -0.000001  1.610008 0.223264 0.178928
30  1.126235 0.104084 1.358371  -2.504357 -0.141489 0.818503
31  2.373626 -0.000000 0.000000  -0.000000 0.000000 0.505860
32  1.071900 0.000000 0.000000  0.000000 -0.000000 0.785000
33  3.789471 -0.000906 1.136840  -0.033446 -0.153436 0.220562
34  1.136842 0.000001 -0.000000  -0.000000 0.000000 0.322721
35  1.136846 0.000001 -0.000002  -0.000000 0.000000 0.627981
36  3.789475 -0.000300 0.378948  -0.029964 -0.072567 0.402275
37  1.326320 -0.000001 -0.000002  0.000000 0.000000 0.584389
38  1.326321 0.000001 -0.000002  -0.000000 -0.000000 1.343181
39  3.789471 0.000302 -0.378946  0.000746 -0.000290 0.383772
40  1.136845 0.000000 0.000000  -0.000000 -0.000000 0.680333
41  1.136842 -0.000003 -0.000000  0.000000 0.000000 1.151298
42  3.789468 0.000903 -1.136843  0.042729 0.028628 0.286075
43  0.947369 -0.000002 0.000000  -0.000000 0.000000 0.758811
44  0.947374 0.000002 -0.000000  0.000000 -0.000000 0.854752
45  0.628269 1.045215 0.151088  1.674814 -1.370795 -0.003936
46  2.840678 -1.567269 -0.000000  -0.000000 -0.000000 0.000000
47  -8.670676 -11.433036 -23.298759  1.570796 -0.261711 1.588238
end
