version 1
nodes
  0 "Box01" -1
end
skeleton
  time 0
    0 3.061500 2.842763 2.243589 0.000000 0.000000 1.570796
end
triangles
shotside.bmp
  0 2.841496 -10.287237 2.523589 0.000000 0.000000 1.000000 0.887324 0.942857
  0 3.591495 -11.217237 2.523589 0.000000 0.000000 1.000000 0.873239 0.914286
  0 3.111496 -9.937236 2.523589 0.000000 0.000000 1.000000 0.901408 0.914286
shotside.bmp
  0 3.111496 -9.937236 2.523589 0.000000 0.000000 1.000000 0.901408 0.914286
  0 3.591495 -11.217237 2.523589 0.000000 0.000000 1.000000 0.873239 0.914286
  0 4.021495 -11.017237 2.523589 0.000000 0.000000 1.000000 0.873239 0.885714
shotside.bmp
  0 3.591495 -11.217237 2.523589 0.000000 0.000000 1.000000 0.873239 0.914286
  0 3.701495 -12.757237 2.523589 0.000000 0.000000 1.000000 0.845070 0.885714
  0 4.021495 -11.017237 2.523589 0.000000 0.000000 1.000000 0.873239 0.885714
shotside.bmp
  0 4.021495 -11.017237 2.523589 0.000000 0.000000 1.000000 0.873239 0.885714
  0 3.701495 -12.757237 2.523589 0.000000 0.000000 1.000000 0.845070 0.885714
  0 4.191495 -12.967237 2.523589 0.000000 0.000000 1.000000 0.845070 0.885714
shotside.bmp
  0 3.591495 -11.217237 1.983589 0.000000 0.000000 -1.000000 0.873239 0.914286
  0 4.191495 -12.967237 1.983589 0.000000 0.000000 -1.000000 0.845070 0.885714
  0 3.701495 -12.757237 1.983589 0.000000 0.000000 -1.000000 0.845070 0.885714
shotside.bmp
  0 3.591495 -11.217237 1.983589 0.000000 0.000000 -1.000000 0.873239 0.914286
  0 4.021495 -11.017237 1.983589 0.000000 0.000000 -1.000000 0.873239 0.885714
  0 4.191495 -12.967237 1.983589 0.000000 0.000000 -1.000000 0.845070 0.885714
shotside.bmp
  0 3.591495 -11.217237 1.983589 0.000000 0.000000 -1.000000 0.873239 0.914286
  0 3.111496 -9.937236 1.983589 0.000000 0.000000 -1.000000 0.901408 0.914286
  0 4.021495 -11.017237 1.983589 0.000000 0.000000 -1.000000 0.873239 0.885714
shotside.bmp
  0 3.591495 -11.217237 1.983589 0.000000 0.000000 -1.000000 0.873239 0.914286
  0 2.841496 -10.287237 1.983589 0.000000 0.000000 -1.000000 0.887324 0.942857
  0 3.111496 -9.937236 1.983589 0.000000 0.000000 -1.000000 0.901408 0.914286
shotside.bmp
  0 -2.618497 12.572765 3.203589 -0.029800 -0.021900 0.999316 0.647887 0.600000
  0 -0.658496 15.022765 3.313589 -0.029800 -0.021900 0.999316 0.690141 0.514286
  0 -2.468497 15.042765 3.263589 -0.029800 -0.021900 0.999316 0.690141 0.600000
shotside.bmp
  0 -2.468497 15.042765 3.263589 -0.029800 -0.021900 0.999316 0.690141 0.600000
  0 -0.658496 15.022765 3.313589 -0.029800 -0.021900 0.999316 0.690141 0.514286
  0 -2.468494 23.252765 3.263589 -0.029800 -0.021900 0.999316 0.760563 0.600000
shotside.bmp
  0 -0.658496 15.022765 3.313589 -0.029800 -0.021900 0.999316 0.690141 0.514286
  0 -0.638494 23.242764 3.313589 -0.029800 -0.021900 0.999316 0.760563 0.514286
  0 -2.468494 23.252765 3.263589 -0.029800 -0.021900 0.999316 0.760563 0.600000
shotside.bmp
  0 -0.638494 23.242764 1.173589 -0.027899 -0.021999 -0.999369 0.760563 0.514286
  0 -0.658496 15.022765 1.173589 -0.027899 -0.021999 -0.999369 0.690141 0.514286
  0 -2.468494 23.252765 1.223589 -0.027899 -0.021999 -0.999369 0.760563 0.600000
shotside.bmp
  0 -2.468494 23.252765 1.223589 -0.027899 -0.021999 -0.999369 0.760563 0.600000
  0 -0.658496 15.022765 1.173589 -0.027899 -0.021999 -0.999369 0.690141 0.514286
  0 -2.468497 15.042765 1.223589 -0.027899 -0.021999 -0.999369 0.690141 0.600000
shotside.bmp
  0 -0.658496 15.022765 1.173589 -0.027899 -0.021999 -0.999369 0.690141 0.514286
  0 -2.618497 12.572765 1.283589 -0.027899 -0.021999 -0.999369 0.647887 0.600000
  0 -2.468497 15.042765 1.223589 -0.027899 -0.021999 -0.999369 0.690141 0.600000
shotside.bmp
  0 -2.638497 10.782765 1.223589 -0.296204 0.034200 -0.954512 0.535211 0.600000
  0 -2.618497 12.572765 1.283589 -0.301786 -0.005900 -0.953357 0.647887 0.600000
  0 2.401503 11.822763 -0.306411 -0.301786 -0.005900 -0.953357 0.549296 0.371429
shotside.bmp
  0 2.401503 11.822763 -0.306411 -0.301786 -0.005900 -0.953357 0.549296 0.371429
  0 -2.618497 12.572765 1.283589 -0.301786 -0.005900 -0.953357 0.647887 0.600000
  0 2.151503 13.502764 -0.306411 -0.306909 -0.046001 -0.950627 0.661972 0.371429
shotside.bmp
  0 2.151503 13.502764 4.793589 -0.307509 -0.046101 0.950428 0.661972 0.371429
  0 -2.618497 12.572765 3.203589 -0.302389 -0.006000 0.953166 0.647887 0.600000
  0 2.401503 11.822763 4.793589 -0.302389 -0.006000 0.953166 0.549296 0.371429
shotside.bmp
  0 2.401503 11.822763 4.793589 -0.302389 -0.006000 0.953166 0.549296 0.371429
  0 -2.618497 12.572765 3.203589 -0.302389 -0.006000 0.953166 0.647887 0.600000
  0 -2.638497 10.782765 3.263589 -0.296808 0.034201 0.954325 0.535211 0.600000
shotside.bmp
  0 1.651494 -17.207235 0.743589 -0.152501 -0.988303 0.000000 0.450704 0.542857
  0 1.651494 -17.207235 3.743589 -0.152501 -0.988303 0.000000 0.661972 0.542857
  0 -0.068506 -16.947237 0.763589 -0.152501 -0.988303 0.000000 0.450704 0.485714
shotside.bmp
  0 -0.068506 -16.947237 0.763589 -0.152501 -0.988303 0.000000 0.450704 0.485714
  0 1.651494 -17.207235 3.743589 -0.152501 -0.988303 0.000000 0.661972 0.542857
  0 -0.068506 -16.947237 3.743589 -0.152501 -0.988303 0.000000 0.661972 0.485714
shotside.bmp
  0 -2.638497 10.782765 1.223589 -0.131803 0.010000 -0.991225 0.535211 0.600000
  0 1.721502 9.262764 0.633589 -0.131803 0.010000 -0.991225 0.507042 0.400000
  0 -2.578498 8.252765 1.193589 -0.131803 0.010000 -0.991225 0.492958 0.600000
shotside.bmp
  0 -2.578498 8.252765 1.193589 -0.131803 0.010000 -0.991225 0.492958 0.600000
  0 1.721502 9.262764 0.633589 -0.131803 0.010000 -0.991225 0.507042 0.400000
  0 -2.628500 5.112765 1.143589 -0.131803 0.010000 -0.991225 0.436620 0.600000
shotside.bmp
  0 -2.638497 10.782765 3.263589 -0.132603 0.010000 0.991119 0.535211 0.600000
  0 -2.578498 8.252765 3.293589 -0.132603 0.010000 0.991119 0.492958 0.600000
  0 1.721502 9.262764 3.853589 -0.132603 0.010000 0.991119 0.507042 0.400000
shotside.bmp
  0 1.721502 9.262764 3.853589 -0.132603 0.010000 0.991119 0.507042 0.400000
  0 -2.578498 8.252765 3.293589 -0.132603 0.010000 0.991119 0.492958 0.600000
  0 -2.628500 5.112765 3.333589 -0.132603 0.010000 0.991119 0.436620 0.600000
shotside.bmp
  0 2.401503 11.822763 4.793589 0.965690 -0.259697 0.000000 0.619718 0.371429
  0 1.721502 9.262764 3.853589 0.965690 -0.259697 0.000000 0.563380 0.400000
  0 2.401503 11.822763 -0.306411 0.965690 -0.259697 0.000000 0.619718 0.485714
shotside.bmp
  0 2.401503 11.822763 -0.306411 0.965690 -0.259697 0.000000 0.619718 0.485714
  0 1.721502 9.262764 3.853589 0.965690 -0.259697 0.000000 0.563380 0.400000
  0 1.721502 9.262764 0.633589 0.965690 -0.259697 0.000000 0.563380 0.485714
shotside.bmp
  0 -0.658496 15.022765 1.173589 0.999998 -0.002200 0.000000 0.690141 0.514286
  0 -0.638494 23.242764 1.173589 0.999998 -0.002200 0.000000 0.760563 0.514286
  0 -0.658496 15.022765 3.313589 0.999998 -0.002200 0.000000 0.690141 0.514286
shotside.bmp
  0 -0.658496 15.022765 3.313589 0.999998 -0.002200 0.000000 0.690141 0.514286
  0 -0.638494 23.242764 1.173589 0.999998 -0.002200 0.000000 0.760563 0.514286
  0 -0.638494 23.242764 3.313589 0.999998 -0.002200 0.000000 0.760563 0.514286
shotside.bmp
  0 1.721502 9.262764 0.633589 -0.176291 0.062497 -0.982352 0.507042 0.400000
  0 1.681500 4.072764 0.303589 -0.176291 0.062497 -0.982352 0.408451 0.400000
  0 -2.628500 5.112765 1.143589 -0.176291 0.062497 -0.982352 0.436620 0.600000
shotside.bmp
  0 -2.628500 5.112765 1.143589 -0.176291 0.062497 -0.982352 0.436620 0.600000
  0 1.681500 4.072764 0.303589 -0.176291 0.062497 -0.982352 0.408451 0.400000
  0 -3.438500 3.222765 1.113589 -0.176291 0.062497 -0.982352 0.394366 0.628571
shotside.bmp
  0 1.721502 9.262764 3.853589 0.999998 -0.002200 0.000000 0.563380 0.400000
  0 1.681500 4.072764 4.183589 0.999998 -0.002200 0.000000 0.436620 0.400000
  0 1.721502 9.262764 0.633589 0.999998 -0.002200 0.000000 0.563380 0.485714
shotside.bmp
  0 1.721502 9.262764 0.633589 0.999998 -0.002200 0.000000 0.563380 0.485714
  0 1.681500 4.072764 4.183589 0.999998 -0.002200 0.000000 0.436620 0.400000
  0 1.681500 4.072764 0.303589 0.999998 -0.002200 0.000000 0.436620 0.485714
shotside.bmp
  0 1.721502 9.262764 3.853589 -0.177004 0.062501 0.982224 0.507042 0.400000
  0 -2.628500 5.112765 3.333589 -0.177004 0.062501 0.982224 0.436620 0.600000
  0 1.681500 4.072764 4.183589 -0.177004 0.062501 0.982224 0.408451 0.400000
shotside.bmp
  0 1.681500 4.072764 4.183589 -0.177004 0.062501 0.982224 0.408451 0.400000
  0 -2.628500 5.112765 3.333589 -0.177004 0.062501 0.982224 0.436620 0.600000
  0 -3.438500 3.222765 3.373589 -0.177004 0.062501 0.982224 0.394366 0.628571
shotside.bmp
  0 1.681500 4.072764 4.183589 0.631319 0.775523 0.000000 0.436620 0.400000
  0 2.661500 3.272764 4.703589 0.631319 0.775523 0.000000 0.422535 0.371429
  0 1.681500 4.072764 0.303589 0.631319 0.775523 0.000000 0.436620 0.485714
shotside.bmp
  0 1.681500 4.072764 0.303589 0.631319 0.775523 0.000000 0.436620 0.485714
  0 2.661500 3.272764 4.703589 0.631319 0.775523 0.000000 0.422535 0.371429
  0 2.661500 3.272764 -0.216411 0.631319 0.775523 0.000000 0.422535 0.485714
shotside.bmp
  0 2.661500 3.272764 4.703589 0.917565 -0.397585 0.000000 0.422535 0.371429
  0 1.971499 1.682764 3.613589 0.917565 -0.397585 0.000000 0.380282 0.400000
  0 2.661500 3.272764 -0.216411 0.917565 -0.397585 0.000000 0.422535 0.485714
shotside.bmp
  0 2.661500 3.272764 -0.216411 0.917565 -0.397585 0.000000 0.422535 0.485714
  0 1.971499 1.682764 3.613589 0.917565 -0.397585 0.000000 0.380282 0.400000
  0 1.971499 1.682764 0.873589 0.917565 -0.397585 0.000000 0.380282 0.457143
shotside.bmp
  0 1.971499 1.682764 3.613589 0.997753 -0.066997 0.000000 0.380282 0.400000
  0 1.681498 -2.607236 3.393589 0.997753 -0.066997 0.000000 0.281690 0.400000
  0 1.971499 1.682764 0.873589 0.997753 -0.066997 0.000000 0.380282 0.457143
shotside.bmp
  0 1.971499 1.682764 0.873589 0.997753 -0.066997 0.000000 0.380282 0.457143
  0 1.681498 -2.607236 3.393589 0.997753 -0.066997 0.000000 0.281690 0.400000
  0 1.681498 -2.607236 1.093589 0.997753 -0.066997 0.000000 0.281690 0.457143
shotside.bmp
  0 1.681498 -2.607236 3.393589 0.999998 -0.002200 0.000000 0.281690 0.400000
  0 1.661496 -10.457236 3.863589 0.999998 -0.002200 0.000000 0.098592 0.400000
  0 1.681498 -2.607236 1.093589 0.999998 -0.002200 0.000000 0.281690 0.457143
shotside.bmp
  0 1.681498 -2.607236 1.093589 0.999998 -0.002200 0.000000 0.281690 0.457143
  0 1.661496 -10.457236 3.863589 0.999998 -0.002200 0.000000 0.098592 0.400000
  0 1.661496 -10.457236 0.623589 0.999998 -0.002200 0.000000 0.098592 0.485714
shotside.bmp
  0 1.661496 -10.457236 3.863589 0.898431 0.439115 0.000000 0.887324 1.000000
  0 2.511495 -12.207237 4.863589 0.898431 0.439115 0.000000 0.859155 0.942857
  0 1.661496 -10.457236 0.623589 0.898431 0.439115 0.000000 0.887324 1.000000
shotside.bmp
  0 1.661496 -10.457236 0.623589 0.898431 0.439115 0.000000 0.887324 1.000000
  0 2.511495 -12.207237 4.863589 0.898431 0.439115 0.000000 0.859155 0.942857
  0 2.511495 -12.207237 -0.376411 0.898431 0.439115 0.000000 0.859155 0.942857
shotside.bmp
  0 9.741495 -13.497239 3.633589 0.997753 -0.066997 0.000000 0.830986 0.628571
  0 9.501494 -16.767239 3.633589 0.997753 -0.066997 0.000000 0.774648 0.628571
  0 9.741495 -13.497239 0.853589 0.997753 -0.066997 0.000000 0.830986 0.628571
shotside.bmp
  0 9.741495 -13.497239 0.853589 0.997753 -0.066997 0.000000 0.830986 0.628571
  0 9.501494 -16.767239 3.633589 0.997753 -0.066997 0.000000 0.774648 0.628571
  0 9.501494 -16.767239 0.853589 0.997753 -0.066997 0.000000 0.774648 0.628571
shotside.bmp
  0 1.651494 -17.207235 0.743589 0.562201 -0.827001 0.000000 0.450704 0.542857
  0 3.091494 -16.217236 1.263589 0.562201 -0.827001 0.000000 0.492958 0.571429
  0 1.651494 -17.207235 3.743589 0.562201 -0.827001 0.000000 0.661972 0.542857
shotside.bmp
  0 1.651494 -17.207235 3.743589 0.562201 -0.827001 0.000000 0.661972 0.542857
  0 3.091494 -16.217236 1.263589 0.562201 -0.827001 0.000000 0.492958 0.571429
  0 3.091494 -16.217236 3.223589 0.562201 -0.827001 0.000000 0.619718 0.571429
shotside.bmp
  0 2.511495 -12.207237 4.863589 0.363705 0.931514 0.000000 0.859155 0.942857
  0 4.181495 -12.857237 3.223589 0.363705 0.931514 0.000000 0.845070 0.885714
  0 2.511495 -12.207237 -0.376411 0.363705 0.931514 0.000000 0.859155 0.942857
shotside.bmp
  0 2.511495 -12.207237 -0.376411 0.363705 0.931514 0.000000 0.859155 0.942857
  0 4.181495 -12.857237 3.223589 0.363705 0.931514 0.000000 0.845070 0.885714
  0 4.181495 -12.857237 1.263589 0.363705 0.931514 0.000000 0.845070 0.885714
shotside.bmp
  0 4.181495 -12.857237 3.223589 0.215596 0.976483 0.000000 0.845070 0.885714
  0 8.551494 -13.827238 3.323589 0.215596 0.976483 0.000000 0.816901 0.657143
  0 4.181495 -12.857237 1.263589 0.215596 0.976483 0.000000 0.845070 0.885714
shotside.bmp
  0 4.181495 -12.857237 1.263589 0.215596 0.976483 0.000000 0.845070 0.885714
  0 8.551494 -13.827238 3.323589 0.215596 0.976483 0.000000 0.816901 0.657143
  0 8.551494 -13.827238 1.163589 0.215596 0.976483 0.000000 0.816901 0.657143
shotside.bmp
  0 3.091494 -16.217236 1.263589 -0.429809 -0.902920 0.000000 0.492958 0.571429
  0 5.901493 -17.567237 0.853589 -0.429809 -0.902920 0.000000 0.464789 0.628571
  0 3.091494 -16.217236 3.223589 -0.429809 -0.902920 0.000000 0.619718 0.571429
shotside.bmp
  0 3.091494 -16.217236 3.223589 -0.429809 -0.902920 0.000000 0.619718 0.571429
  0 5.901493 -17.567237 0.853589 -0.429809 -0.902920 0.000000 0.464789 0.628571
  0 5.901493 -17.567237 3.633589 -0.429809 -0.902920 0.000000 0.647887 0.628571
shotside.bmp
  0 8.551494 -13.827238 3.323589 -0.260493 0.965476 0.000000 0.816901 0.657143
  0 9.741495 -13.497239 3.633589 -0.260493 0.965476 0.000000 0.830986 0.628571
  0 8.551494 -13.827238 1.163589 -0.260493 0.965476 0.000000 0.816901 0.657143
shotside.bmp
  0 8.551494 -13.827238 1.163589 -0.260493 0.965476 0.000000 0.816901 0.657143
  0 9.741495 -13.497239 3.633589 -0.260493 0.965476 0.000000 0.830986 0.628571
  0 9.741495 -13.497239 0.853589 -0.260493 0.965476 0.000000 0.830986 0.628571
shotside.bmp
  0 5.901493 -17.567237 0.853589 0.214791 -0.976660 0.000000 0.464789 0.628571
  0 9.501494 -16.767239 0.853589 0.214791 -0.976660 0.000000 0.464789 0.742857
  0 5.901493 -17.567237 3.633589 0.214791 -0.976660 0.000000 0.647887 0.628571
shotside.bmp
  0 5.901493 -17.567237 3.633589 0.214791 -0.976660 0.000000 0.647887 0.628571
  0 9.501494 -16.767239 0.853589 0.214791 -0.976660 0.000000 0.464789 0.742857
  0 9.501494 -16.767239 3.633589 0.214791 -0.976660 0.000000 0.647887 0.742857
shotside.bmp
  0 1.441506 22.342764 3.123589 0.999998 -0.002200 0.000000 0.845070 0.400000
  0 1.441503 13.772764 3.123589 0.999998 -0.002200 0.000000 0.760563 0.400000
  0 1.441506 22.342764 1.433589 0.999998 -0.002200 0.000000 0.845070 0.457143
shotside.bmp
  0 1.441506 22.342764 1.433589 0.999998 -0.002200 0.000000 0.845070 0.457143
  0 1.441503 13.772764 3.123589 0.999998 -0.002200 0.000000 0.760563 0.400000
  0 1.441503 13.772764 1.433589 0.999998 -0.002200 0.000000 0.760563 0.457143
shotside.bmp
  0 -0.148494 22.342764 3.123589 0.000000 0.000000 1.000000 0.746479 0.485714
  0 -0.148497 14.632764 3.123589 0.000000 0.000000 1.000000 0.690141 0.485714
  0 1.441506 22.342764 3.123589 0.000000 0.000000 1.000000 0.746479 0.400000
shotside.bmp
  0 1.441506 22.342764 3.123589 0.000000 0.000000 1.000000 0.746479 0.400000
  0 -0.148497 14.632764 3.123589 0.000000 0.000000 1.000000 0.690141 0.485714
  0 1.441503 13.772764 3.123589 0.000000 0.000000 1.000000 0.676056 0.400000
shotside.bmp
  0 -0.148494 22.342764 1.433589 -1.000000 0.000000 0.000000 0.746479 0.485714
  0 -0.148497 14.632764 1.433589 -1.000000 0.000000 0.000000 0.690141 0.485714
  0 -0.148494 22.342764 3.123589 -1.000000 0.000000 0.000000 0.746479 0.485714
shotside.bmp
  0 -0.148494 22.342764 3.123589 -1.000000 0.000000 0.000000 0.746479 0.485714
  0 -0.148497 14.632764 1.433589 -1.000000 0.000000 0.000000 0.690141 0.485714
  0 -0.148497 14.632764 3.123589 -1.000000 0.000000 0.000000 0.690141 0.485714
shotside.bmp
  0 1.441506 22.342764 1.433589 0.000000 0.000000 -1.000000 0.746479 0.400000
  0 1.441503 13.772764 1.433589 0.000000 0.000000 -1.000000 0.676056 0.400000
  0 -0.148494 22.342764 1.433589 0.000000 0.000000 -1.000000 0.746479 0.485714
shotside.bmp
  0 -0.148494 22.342764 1.433589 0.000000 0.000000 -1.000000 0.746479 0.485714
  0 1.441503 13.772764 1.433589 0.000000 0.000000 -1.000000 0.676056 0.400000
  0 -0.148497 14.632764 1.433589 0.000000 0.000000 -1.000000 0.690141 0.485714
shotside.bmp
  0 3.221496 -9.907237 2.673589 0.750392 -0.660993 0.000000 0.901408 0.314286
  0 1.601495 -11.757236 2.803589 0.750392 -0.660993 0.000000 0.859155 0.400000
  0 3.221496 -9.907237 1.763589 0.750392 -0.660993 0.000000 0.901408 0.314286
shotside.bmp
  0 3.221496 -9.907237 1.763589 0.750392 -0.660993 0.000000 0.901408 0.314286
  0 1.601495 -11.757236 2.803589 0.750392 -0.660993 0.000000 0.859155 0.400000
  0 1.601495 -11.757236 1.633589 0.750392 -0.660993 0.000000 0.859155 0.400000
shotside.bmp
  0 4.191495 -12.967237 2.523589 -0.392688 -0.919672 0.000000 0.000000 0.000000
  0 3.701495 -12.757237 2.523589 -0.392688 -0.919672 0.000000 0.000000 0.000000
  0 4.191495 -12.967237 1.983589 -0.392688 -0.919672 0.000000 0.000000 0.000000
shotside.bmp
  0 4.191495 -12.967237 1.983589 -0.392688 -0.919672 0.000000 0.000000 0.000000
  0 3.701495 -12.757237 2.523589 -0.392688 -0.919672 0.000000 0.000000 0.000000
  0 3.701495 -12.757237 1.983589 -0.392688 -0.919672 0.000000 0.000000 0.000000
shotside.bmp
  0 -3.418503 -5.617235 2.023589 -0.131803 0.010000 -0.991225 0.225352 0.628571
  0 -3.448503 -5.157235 2.023589 -0.131803 0.010000 -0.991225 0.239437 0.628571
  0 -2.358503 -5.797235 1.863589 -0.131803 0.010000 -0.991225 0.225352 0.571429
shotside.bmp
  0 -2.358503 -5.797235 1.863589 -0.131803 0.010000 -0.991225 0.225352 0.571429
  0 -3.448503 -5.157235 2.023589 -0.131803 0.010000 -0.991225 0.239437 0.628571
  0 -2.398503 -4.787235 1.863589 -0.131803 0.010000 -0.991225 0.239437 0.571429
shotside.bmp
  0 -2.398503 -4.787235 2.713589 -0.132603 0.010000 0.991119 0.239437 0.571429
  0 -3.448503 -5.157235 2.553589 -0.132603 0.010000 0.991119 0.239437 0.628571
  0 -2.358503 -5.797235 2.713589 -0.132603 0.010000 0.991119 0.225352 0.571429
shotside.bmp
  0 -2.358503 -5.797235 2.713589 -0.132603 0.010000 0.991119 0.225352 0.571429
  0 -3.448503 -5.157235 2.553589 -0.132603 0.010000 0.991119 0.239437 0.628571
  0 -3.418503 -5.617235 2.553589 -0.132603 0.010000 0.991119 0.225352 0.628571
shotside.bmp
  0 -3.598494 21.532766 2.023589 -0.131803 0.010000 -0.991225 0.732394 0.628571
  0 -3.618494 21.992765 2.023589 -0.131803 0.010000 -0.991225 0.746479 0.628571
  0 -2.428494 21.352765 1.863589 -0.131803 0.010000 -0.991225 0.732394 0.600000
shotside.bmp
  0 -2.428494 21.352765 1.863589 -0.131803 0.010000 -0.991225 0.732394 0.600000
  0 -3.618494 21.992765 2.023589 -0.131803 0.010000 -0.991225 0.746479 0.628571
  0 -2.448494 22.402765 1.863589 -0.131803 0.010000 -0.991225 0.746479 0.600000
shotside.bmp
  0 -2.448494 22.402765 2.713589 -0.132603 0.010000 0.991119 0.746479 0.600000
  0 -3.618494 21.992765 2.553589 -0.132603 0.010000 0.991119 0.746479 0.628571
  0 -2.428494 21.352765 2.713589 -0.132603 0.010000 0.991119 0.732394 0.600000
shotside.bmp
  0 -2.428494 21.352765 2.713589 -0.132603 0.010000 0.991119 0.732394 0.600000
  0 -3.618494 21.992765 2.553589 -0.132603 0.010000 0.991119 0.746479 0.628571
  0 -3.598494 21.532766 2.553589 -0.132603 0.010000 0.991119 0.732394 0.628571
shotside.bmp
  0 1.721502 9.262764 0.633589 -0.225306 -0.280207 -0.933124 0.507042 0.400000
  0 -2.638497 10.782765 1.223589 -0.225306 -0.280207 -0.933124 0.535211 0.600000
  0 2.401503 11.822763 -0.306411 -0.225306 -0.280207 -0.933124 0.549296 0.371429
shotside.bmp
  0 -2.638497 10.782765 3.263589 -0.225909 -0.280011 0.933037 0.535211 0.600000
  0 1.721502 9.262764 3.853589 -0.225909 -0.280011 0.933037 0.507042 0.400000
  0 2.401503 11.822763 4.793589 -0.225909 -0.280011 0.933037 0.549296 0.371429
shotside.bmp
  0 -2.618497 12.572765 1.283589 -0.348112 0.238408 -0.906631 0.647887 0.600000
  0 -0.658496 15.022765 1.173589 -0.348112 0.238408 -0.906631 0.690141 0.514286
  0 2.151503 13.502764 -0.306411 -0.348112 0.238408 -0.906631 0.661972 0.371429
shotside.bmp
  0 -0.658496 15.022765 3.313589 -0.348594 0.237496 0.906685 0.690141 0.514286
  0 -2.618497 12.572765 3.203589 -0.348594 0.237496 0.906685 0.647887 0.600000
  0 2.151503 13.502764 4.793589 -0.348594 0.237496 0.906685 0.661972 0.371429
shotside.bmp
  0 -3.438500 3.222765 1.113589 -0.202404 0.350007 -0.914619 0.394366 0.628571
  0 1.681500 4.072764 0.303589 -0.202404 0.350007 -0.914619 0.408451 0.400000
  0 2.661500 3.272764 -0.216411 -0.202404 0.350007 -0.914619 0.394366 0.342857
shotside.bmp
  0 1.681500 4.072764 4.183589 -0.202908 0.349413 0.914734 0.408451 0.400000
  0 -3.438500 3.222765 3.373589 -0.202908 0.349413 0.914734 0.394366 0.628571
  0 2.661500 3.272764 4.703589 -0.202908 0.349413 0.914734 0.394366 0.342857
shotside.bmp
  0 1.971499 1.682764 0.873589 -0.180799 -0.499398 -0.847297 0.366197 0.371429
  0 -3.438500 3.222765 1.113589 -0.180799 -0.499398 -0.847297 0.394366 0.628571
  0 2.661500 3.272764 -0.216411 -0.180799 -0.499398 -0.847297 0.394366 0.342857
shotside.bmp
  0 -3.438500 3.222765 1.113589 -0.035598 0.031899 -0.998857 0.394366 0.628571
  0 1.971499 1.682764 0.873589 -0.035598 0.031899 -0.998857 0.366197 0.371429
  0 -3.398502 -2.287235 0.933589 -0.035598 0.031899 -0.998857 0.295775 0.628571
shotside.bmp
  0 1.971499 1.682764 3.613589 -0.034800 0.037000 0.998709 0.366197 0.371429
  0 -3.438500 3.222765 3.373589 -0.034800 0.037000 0.998709 0.394366 0.628571
  0 -3.398502 -2.287235 3.573589 -0.034800 0.037000 0.998709 0.295775 0.628571
shotside.bmp
  0 -3.438500 3.222765 3.373589 -0.181301 -0.499203 0.847305 0.394366 0.628571
  0 1.971499 1.682764 3.613589 -0.181301 -0.499203 0.847305 0.366197 0.371429
  0 2.661500 3.272764 4.703589 -0.181301 -0.499203 0.847305 0.394366 0.342857
shotside.bmp
  0 1.681498 -2.607236 1.093589 0.027599 -0.053699 -0.998176 0.281690 0.400000
  0 -3.398502 -2.287235 0.933589 0.027599 -0.053699 -0.998176 0.295775 0.628571
  0 1.971499 1.682764 0.873589 0.027599 -0.053699 -0.998176 0.366197 0.371429
shotside.bmp
  0 -3.398502 -2.287235 0.933589 -0.035801 -0.838632 -0.543521 0.295775 0.628571
  0 1.681498 -2.607236 1.093589 -0.035801 -0.838632 -0.543521 0.281690 0.400000
  0 -2.488502 -2.607235 1.363589 -0.035801 -0.838632 -0.543521 0.281690 0.600000
shotside.bmp
  0 1.681498 -2.607236 3.393589 -0.035599 -0.859384 0.510090 0.281690 0.400000
  0 -3.398502 -2.287235 3.573589 -0.035599 -0.859384 0.510090 0.295775 0.628571
  0 -2.488502 -2.607235 3.103589 -0.035599 -0.859384 0.510090 0.281690 0.600000
shotside.bmp
  0 -3.398502 -2.287235 3.573589 0.032400 -0.054001 0.998015 0.295775 0.628571
  0 1.681498 -2.607236 3.393589 0.032400 -0.054001 0.998015 0.281690 0.400000
  0 1.971499 1.682764 3.613589 0.032400 -0.054001 0.998015 0.366197 0.371429
shotside.bmp
  0 -2.448505 -11.797235 1.003589 -0.112602 0.060201 -0.991815 0.112676 0.600000
  0 1.681498 -2.607236 1.093589 -0.112602 0.060201 -0.991815 0.281690 0.400000
  0 1.661496 -10.457236 0.623589 -0.112602 0.060201 -0.991815 0.140845 0.400000
shotside.bmp
  0 1.681498 -2.607236 1.093589 -0.035598 0.031899 -0.998857 0.281690 0.400000
  0 -2.448505 -11.797235 1.003589 -0.035598 0.031899 -0.998857 0.112676 0.600000
  0 -2.488502 -2.607235 1.363589 -0.035598 0.031899 -0.998857 0.281690 0.600000
shotside.bmp
  0 -2.448505 -11.797235 3.483589 -0.034800 0.037000 0.998709 0.112676 0.600000
  0 1.681498 -2.607236 3.393589 -0.034800 0.037000 0.998709 0.281690 0.400000
  0 -2.488502 -2.607235 3.103589 -0.034800 0.037000 0.998709 0.281690 0.600000
shotside.bmp
  0 1.681498 -2.607236 3.393589 -0.112700 0.060200 0.991804 0.281690 0.400000
  0 -2.448505 -11.797235 3.483589 -0.112700 0.060200 0.991804 0.112676 0.600000
  0 1.661496 -10.457236 3.863589 -0.112700 0.060200 0.991804 0.140845 0.400000
shotside.bmp
  0 2.511495 -12.207237 -0.376411 -0.214300 0.401800 -0.890299 0.859155 0.342857
  0 -2.448505 -11.797235 1.003589 -0.214300 0.401800 -0.890299 0.859155 0.600000
  0 1.661496 -10.457236 0.623589 -0.214300 0.401800 -0.890299 0.887324 0.400000
shotside.bmp
  0 -2.448505 -11.797235 1.003589 -0.260905 0.079101 -0.962118 0.859155 0.600000
  0 2.511495 -12.207237 -0.376411 -0.260905 0.079101 -0.962118 0.859155 0.342857
  0 -1.438506 -14.977235 0.473589 -0.260905 0.079101 -0.962118 0.802817 0.542857
shotside.bmp
  0 2.511495 -12.207237 4.863589 -0.261092 0.076598 0.962270 0.859155 0.342857
  0 -2.448505 -11.797235 3.483589 -0.261092 0.076598 0.962270 0.859155 0.600000
  0 -1.438506 -14.977235 4.003589 -0.261092 0.076598 0.962270 0.802817 0.542857
shotside.bmp
  0 -2.448505 -11.797235 3.483589 -0.214395 0.401791 0.890280 0.859155 0.600000
  0 2.511495 -12.207237 4.863589 -0.214395 0.401791 0.890280 0.859155 0.342857
  0 1.661496 -10.457236 3.863589 -0.214395 0.401791 0.890280 0.887324 0.400000
shotside.bmp
  0 1.651494 -17.207235 0.743589 -0.063902 -0.206607 -0.976335 0.760563 0.400000
  0 -1.438506 -14.977235 0.473589 -0.063902 -0.206607 -0.976335 0.802817 0.542857
  0 2.511495 -12.207237 -0.376411 -0.063902 -0.206607 -0.976335 0.859155 0.342857
shotside.bmp
  0 -0.068506 -16.947237 3.743589 -0.080603 -0.186508 0.979141 0.760563 0.485714
  0 2.511495 -12.207237 4.863589 -0.080603 -0.186508 0.979141 0.859155 0.342857
  0 -1.438506 -14.977235 4.003589 -0.080603 -0.186508 0.979141 0.802817 0.542857
shotside.bmp
  0 2.511495 -12.207237 4.863589 -0.032701 -0.212005 0.976721 0.859155 0.342857
  0 -0.068506 -16.947237 3.743589 -0.032701 -0.212005 0.976721 0.760563 0.485714
  0 1.651494 -17.207235 3.743589 -0.032701 -0.212005 0.976721 0.760563 0.400000
shotside.bmp
  0 4.181495 -12.857237 1.263589 0.616806 -0.271503 -0.738807 0.845070 0.885714
  0 1.651494 -17.207235 0.743589 0.616806 -0.271503 -0.738807 0.760563 1.000000
  0 2.511495 -12.207237 -0.376411 0.616806 -0.271503 -0.738807 0.859155 0.942857
shotside.bmp
  0 1.651494 -17.207235 0.743589 0.418289 -0.135996 -0.898076 0.760563 1.000000
  0 4.181495 -12.857237 1.263589 0.418289 -0.135996 -0.898076 0.845070 0.885714
  0 3.091494 -16.217236 1.263589 0.418289 -0.135996 -0.898076 0.774648 0.914286
shotside.bmp
  0 4.181495 -12.857237 3.223589 0.418289 -0.135996 0.898076 0.845070 0.885714
  0 1.651494 -17.207235 3.743589 0.418289 -0.135996 0.898076 0.760563 1.000000
  0 3.091494 -16.217236 3.223589 0.418289 -0.135996 0.898076 0.774648 0.914286
shotside.bmp
  0 1.651494 -17.207235 3.743589 0.616806 -0.271503 0.738807 0.760563 1.000000
  0 4.181495 -12.857237 3.223589 0.616806 -0.271503 0.738807 0.845070 0.885714
  0 2.511495 -12.207237 4.863589 0.616806 -0.271503 0.738807 0.859155 0.942857
shotside.bmp
  0 5.901493 -17.567237 3.633589 -0.132603 0.010000 0.991119 0.760563 0.800000
  0 4.181495 -12.857237 3.223589 -0.132603 0.010000 0.991119 0.845070 0.885714
  0 3.091494 -16.217236 3.223589 -0.132603 0.010000 0.991119 0.774648 0.914286
shotside.bmp
  0 4.181495 -12.857237 3.223589 -0.006000 0.085502 0.996320 0.845070 0.885714
  0 5.901493 -17.567237 3.633589 -0.006000 0.085502 0.996320 0.760563 0.800000
  0 8.551494 -13.827238 3.323589 -0.006000 0.085502 0.996320 0.816901 0.657143
shotside.bmp
  0 5.901493 -17.567237 0.853589 -0.006000 0.085502 -0.996320 0.760563 0.800000
  0 4.181495 -12.857237 1.263589 -0.006000 0.085502 -0.996320 0.845070 0.885714
  0 8.551494 -13.827238 1.163589 -0.006000 0.085502 -0.996320 0.816901 0.657143
shotside.bmp
  0 4.181495 -12.857237 1.263589 -0.131803 0.010000 -0.991225 0.845070 0.885714
  0 5.901493 -17.567237 0.853589 -0.131803 0.010000 -0.991225 0.760563 0.800000
  0 3.091494 -16.217236 1.263589 -0.131803 0.010000 -0.991225 0.774648 0.914286
shotside.bmp
  0 9.741495 -13.497239 3.633589 0.000000 0.000000 1.000000 0.830986 0.628571
  0 5.901493 -17.567237 3.633589 0.000000 0.000000 1.000000 0.760563 0.800000
  0 9.501494 -16.767239 3.633589 0.000000 0.000000 1.000000 0.774648 0.628571
shotside.bmp
  0 5.901493 -17.567237 3.633589 -0.310007 0.292807 0.904522 0.760563 0.800000
  0 9.741495 -13.497239 3.633589 -0.310007 0.292807 0.904522 0.830986 0.628571
  0 8.551494 -13.827238 3.323589 -0.310007 0.292807 0.904522 0.816901 0.657143
shotside.bmp
  0 9.741495 -13.497239 0.853589 -0.310007 0.292807 -0.904522 0.830986 0.628571
  0 5.901493 -17.567237 0.853589 -0.310007 0.292807 -0.904522 0.760563 0.800000
  0 8.551494 -13.827238 1.163589 -0.310007 0.292807 -0.904522 0.816901 0.657143
shotside.bmp
  0 5.901493 -17.567237 0.853589 0.000000 0.000000 -1.000000 0.760563 0.800000
  0 9.741495 -13.497239 0.853589 0.000000 0.000000 -1.000000 0.830986 0.628571
  0 9.501494 -16.767239 0.853589 0.000000 0.000000 -1.000000 0.774648 0.628571
shotside.bmp
  0 1.611497 -5.887236 2.803589 0.207401 0.051400 0.976905 0.225352 0.400000
  0 1.601495 -11.757236 2.803589 0.081498 -0.000100 0.996674 0.112676 0.400000
  0 3.221496 -9.907237 2.673589 0.207401 0.051400 0.976905 0.154930 0.314286
shotside.bmp
  0 3.221496 -9.907237 2.673589 0.207401 0.051400 0.976905 0.901408 0.914286
  0 2.301497 -6.917237 2.673589 0.329307 0.101802 0.938719 0.000000 0.000000
  0 1.611497 -5.887236 2.803589 0.207401 0.051400 0.976905 0.971831 1.000000
shotside.bmp
  0 1.611497 -5.887236 1.633589 0.207401 0.051400 -0.976905 0.971831 1.000000
  0 2.301497 -6.917237 1.763589 0.329307 0.101802 -0.938719 0.957746 0.971429
  0 3.221496 -9.907237 1.763589 0.207401 0.051400 -0.976905 0.901408 0.914286
shotside.bmp
  0 3.221496 -9.907237 1.763589 0.207401 0.051400 -0.976905 0.901408 0.314286
  0 1.601495 -11.757236 1.633589 0.081498 -0.000100 -0.996674 0.859155 0.400000
  0 1.611497 -5.887236 1.633589 0.207401 0.051400 -0.976905 0.971831 0.400000
shotside.bmp
  0 -2.398503 -4.787235 1.863589 -0.331486 0.943460 0.000000 0.239437 0.571429
  0 -3.448503 -5.157235 2.553589 -0.331486 0.943460 0.000000 0.239437 0.628571
  0 -2.398503 -4.787235 2.713589 -0.331486 0.943460 0.000000 0.239437 0.571429
shotside.bmp
  0 -3.418503 -5.617235 2.553589 -0.997719 -0.067501 0.000000 0.225352 0.628571
  0 -3.448503 -5.157235 2.023589 -0.997719 -0.067501 0.000000 0.239437 0.628571
  0 -3.418503 -5.617235 2.023589 -0.997719 -0.067501 0.000000 0.225352 0.628571
shotside.bmp
  0 -3.418503 -5.617235 2.023589 -0.152501 -0.988303 0.000000 0.225352 0.628571
  0 -2.358503 -5.797235 2.713589 -0.152501 -0.988303 0.000000 0.225352 0.571429
  0 -3.418503 -5.617235 2.553589 -0.152501 -0.988303 0.000000 0.225352 0.628571
shotside.bmp
  0 -3.618494 21.992765 2.553589 -0.331486 0.943460 0.000000 0.746479 0.628571
  0 -2.448494 22.402765 1.863589 -0.331486 0.943460 0.000000 0.746479 0.600000
  0 -3.618494 21.992765 2.023589 -0.331486 0.943460 0.000000 0.746479 0.628571
shotside.bmp
  0 -3.618494 21.992765 2.023589 -0.997719 -0.067501 0.000000 0.746479 0.628571
  0 -3.598494 21.532766 2.553589 -0.997719 -0.067501 0.000000 0.732394 0.628571
  0 -3.618494 21.992765 2.553589 -0.997719 -0.067501 0.000000 0.746479 0.628571
shotside.bmp
  0 -2.428494 21.352765 2.713589 -0.152501 -0.988303 0.000000 0.732394 0.600000
  0 -3.598494 21.532766 2.023589 -0.152501 -0.988303 0.000000 0.732394 0.628571
  0 -2.428494 21.352765 1.863589 -0.152501 -0.988303 0.000000 0.732394 0.600000
shotdark.bmp
  0 2.151503 13.502764 -0.306411 0.988941 0.148306 0.000000 0.333333 1.000000
  0 2.151503 13.502764 4.793589 0.988941 0.148306 0.000000 0.333333 0.000000
  0 2.401503 11.822763 -0.306411 0.988941 0.148306 0.000000 1.000000 1.000000
shotdark.bmp
  0 2.401503 11.822763 -0.306411 0.988941 0.148306 0.000000 1.000000 1.000000
  0 2.151503 13.502764 4.793589 0.988941 0.148306 0.000000 0.333333 0.000000
  0 2.401503 11.822763 4.793589 0.988941 0.148306 0.000000 1.000000 0.000000
shotdark.bmp
  0 2.151503 13.502764 -0.306411 0.475703 0.879606 0.000000 1.000000 1.000000
  0 -0.658496 15.022765 1.173589 0.475703 0.879606 0.000000 0.333333 0.000000
  0 2.151503 13.502764 4.793589 0.475703 0.879606 0.000000 1.000000 1.000000
shotdark.bmp
  0 2.151503 13.502764 4.793589 0.475703 0.879606 0.000000 1.000000 1.000000
  0 -0.658496 15.022765 1.173589 0.475703 0.879606 0.000000 0.333333 0.000000
  0 -0.658496 15.022765 3.313589 0.475703 0.879606 0.000000 0.333333 0.000000
shotdark.bmp
  0 -0.148494 22.342764 1.433589 0.000000 1.000000 0.000000 0.000000 0.000000
  0 -0.148494 22.342764 3.123589 0.000000 1.000000 0.000000 0.000000 0.000000
  0 1.441506 22.342764 1.433589 0.000000 1.000000 0.000000 0.333333 1.000000
shotdark.bmp
  0 1.441506 22.342764 1.433589 0.000000 1.000000 0.000000 0.333333 1.000000
  0 -0.148494 22.342764 3.123589 0.000000 1.000000 0.000000 0.000000 0.000000
  0 1.441506 22.342764 3.123589 0.000000 1.000000 0.000000 0.333333 1.000000
shotdark.bmp
  0 2.301497 -6.917237 2.673589 0.955376 0.295393 0.000000 0.666667 0.600000
  0 3.221496 -9.907237 2.673589 0.955376 0.295393 0.000000 0.666667 0.800000
  0 2.301497 -6.917237 1.763589 0.955376 0.295393 0.000000 0.666667 0.600000
shotdark.bmp
  0 2.301497 -6.917237 1.763589 0.955376 0.295393 0.000000 0.666667 0.600000
  0 3.221496 -9.907237 2.673589 0.955376 0.295393 0.000000 0.666667 0.800000
  0 3.221496 -9.907237 1.763589 0.955376 0.295393 0.000000 0.666667 0.800000
shotdark.bmp
  0 1.611497 -5.887236 2.803589 0.827484 0.561489 0.000000 0.666667 0.600000
  0 2.301497 -6.917237 2.673589 0.827484 0.561489 0.000000 0.666667 0.600000
  0 1.611497 -5.887236 1.633589 0.827484 0.561489 0.000000 0.666667 0.600000
shotdark.bmp
  0 1.611497 -5.887236 1.633589 0.827484 0.561489 0.000000 0.666667 0.600000
  0 2.301497 -6.917237 2.673589 0.827484 0.561489 0.000000 0.666667 0.600000
  0 2.301497 -6.917237 1.763589 0.827484 0.561489 0.000000 0.666667 0.600000
shotdark.bmp
  0 3.111496 -9.937236 2.523589 0.763595 0.645696 0.000000 0.666667 0.800000
  0 4.021495 -11.017237 2.523589 0.763595 0.645696 0.000000 0.666667 0.800000
  0 3.111496 -9.937236 1.983589 0.763595 0.645696 0.000000 0.666667 0.800000
shotdark.bmp
  0 3.111496 -9.937236 1.983589 0.763595 0.645696 0.000000 0.666667 0.800000
  0 4.021495 -11.017237 2.523589 0.763595 0.645696 0.000000 0.666667 0.800000
  0 4.021495 -11.017237 1.983589 0.763595 0.645696 0.000000 0.666667 0.800000
shotdark.bmp
  0 3.591495 -11.217237 2.523589 -0.775297 -0.631597 0.000000 0.666667 0.800000
  0 2.841496 -10.287237 2.523589 -0.775297 -0.631597 0.000000 0.666667 0.800000
  0 3.591495 -11.217237 1.983589 -0.775297 -0.631597 0.000000 0.666667 0.800000
shotdark.bmp
  0 3.591495 -11.217237 1.983589 -0.775297 -0.631597 0.000000 0.666667 0.800000
  0 2.841496 -10.287237 2.523589 -0.775297 -0.631597 0.000000 0.666667 0.800000
  0 2.841496 -10.287237 1.983589 -0.775297 -0.631597 0.000000 0.666667 0.800000
shotdark.bmp
  0 4.021495 -11.017237 2.523589 0.996449 0.084196 0.000000 0.666667 0.800000
  0 4.191495 -12.967237 2.523589 0.996449 0.084196 0.000000 1.000000 1.000000
  0 4.021495 -11.017237 1.983589 0.996449 0.084196 0.000000 0.666667 0.800000
shotdark.bmp
  0 4.021495 -11.017237 1.983589 0.996449 0.084196 0.000000 0.666667 0.800000
  0 4.191495 -12.967237 2.523589 0.996449 0.084196 0.000000 1.000000 1.000000
  0 4.191495 -12.967237 1.983589 0.996449 0.084196 0.000000 1.000000 1.000000
shotdark.bmp
  0 3.591495 -11.217237 1.983589 -0.997258 -0.073997 0.000000 0.666667 0.800000
  0 3.701495 -12.757237 1.983589 -0.997258 -0.073997 0.000000 0.666667 0.800000
  0 3.591495 -11.217237 2.523589 -0.997258 -0.073997 0.000000 0.666667 0.800000
shotdark.bmp
  0 3.591495 -11.217237 2.523589 -0.997258 -0.073997 0.000000 0.666667 0.800000
  0 3.701495 -12.757237 1.983589 -0.997258 -0.073997 0.000000 0.666667 0.800000
  0 3.701495 -12.757237 2.523589 -0.997258 -0.073997 0.000000 0.666667 0.800000
shotdark.bmp
  0 -1.438506 -14.977235 0.473589 -0.041798 -0.176793 -0.983360 0.333333 0.000000
  0 1.651494 -17.207235 0.743589 -0.041798 -0.176793 -0.983360 1.000000 1.000000
  0 -0.068506 -16.947237 0.763589 -0.041798 -0.176793 -0.983360 0.666667 0.400000
shotdark.bmp
  0 -3.448503 -5.157235 2.553589 -0.331486 0.943460 0.000000 0.666667 0.000000
  0 -2.398503 -4.787235 1.863589 -0.331486 0.943460 0.000000 0.666667 0.000000
  0 -3.448503 -5.157235 2.023589 -0.331486 0.943460 0.000000 0.666667 0.000000
shotdark.bmp
  0 -3.448503 -5.157235 2.023589 -0.997258 -0.073997 0.000000 0.666667 0.000000
  0 -3.418503 -5.617235 2.553589 -0.997258 -0.073997 0.000000 0.666667 0.000000
  0 -3.448503 -5.157235 2.553589 -0.997258 -0.073997 0.000000 0.666667 0.000000
shotdark.bmp
  0 -2.358503 -5.797235 2.713589 -0.164902 -0.986310 0.000000 0.666667 0.000000
  0 -3.418503 -5.617235 2.023589 -0.164902 -0.986310 0.000000 0.666667 0.000000
  0 -2.358503 -5.797235 1.863589 -0.164902 -0.986310 0.000000 0.666667 0.000000
shotdark.bmp
  0 -2.448494 22.402765 1.863589 -0.331486 0.943460 0.000000 0.333333 0.000000
  0 -3.618494 21.992765 2.553589 -0.331486 0.943460 0.000000 0.333333 0.000000
  0 -2.448494 22.402765 2.713589 -0.331486 0.943460 0.000000 0.333333 0.000000
shotdark.bmp
  0 -3.598494 21.532766 2.553589 -0.997258 -0.073997 0.000000 0.333333 0.000000
  0 -3.618494 21.992765 2.023589 -0.997258 -0.073997 0.000000 0.333333 0.000000
  0 -3.598494 21.532766 2.023589 -0.997258 -0.073997 0.000000 0.333333 0.000000
shotdark.bmp
  0 -3.598494 21.532766 2.023589 -0.164902 -0.986310 0.000000 0.333333 0.000000
  0 -2.428494 21.352765 2.713589 -0.164902 -0.986310 0.000000 0.333333 0.000000
  0 -3.598494 21.532766 2.553589 -0.164902 -0.986310 0.000000 0.333333 0.000000
shothole.bmp
  0 -2.468494 23.252765 1.223589 0.000800 1.000000 0.000000 1.000000 1.000000
  0 -2.468494 23.252765 3.263589 0.000800 1.000000 0.000000 0.000000 1.000000
  0 -0.638494 23.242764 1.173589 0.000800 1.000000 0.000000 1.000000 0.000000
shothole.bmp
  0 -0.638494 23.242764 1.173589 0.000800 1.000000 0.000000 1.000000 0.000000
  0 -2.468494 23.252765 3.263589 0.000800 1.000000 0.000000 0.000000 1.000000
  0 -0.638494 23.242764 3.313589 0.000800 1.000000 0.000000 0.000000 0.000000
shottop.bmp
  0 -2.638497 10.782765 1.223589 -0.999941 0.010900 0.000000 0.674419 0.200000
  0 -2.638497 10.782765 3.263589 -0.999941 0.010900 0.000000 0.674419 0.600000
  0 -2.618497 12.572765 1.283589 -0.999941 0.010900 0.000000 0.837209 0.200000
shottop.bmp
  0 -2.618497 12.572765 1.283589 -0.999941 0.010900 0.000000 0.837209 0.200000
  0 -2.638497 10.782765 3.263589 -0.999941 0.010900 0.000000 0.674419 0.600000
  0 -2.618497 12.572765 3.203589 -0.999941 0.010900 0.000000 0.837209 0.600000
shottop.bmp
  0 -2.638497 10.782765 1.223589 -0.999638 -0.026901 0.000000 0.674419 0.200000
  0 -2.578498 8.252765 1.193589 -0.999638 -0.026901 0.000000 0.627907 0.200000
  0 -2.638497 10.782765 3.263589 -0.999638 -0.026901 0.000000 0.674419 0.600000
shottop.bmp
  0 -2.638497 10.782765 3.263589 -0.999638 -0.026901 0.000000 0.674419 0.600000
  0 -2.578498 8.252765 1.193589 -0.999638 -0.026901 0.000000 0.627907 0.200000
  0 -2.578498 8.252765 3.293589 -0.999638 -0.026901 0.000000 0.627907 0.600000
shottop.bmp
  0 -2.618497 12.572765 3.203589 -0.998119 0.061301 0.000000 0.837209 0.600000
  0 -2.468497 15.042765 3.263589 -0.998119 0.061301 0.000000 0.883721 0.600000
  0 -2.618497 12.572765 1.283589 -0.998119 0.061301 0.000000 0.837209 0.200000
shottop.bmp
  0 -2.618497 12.572765 1.283589 -0.998119 0.061301 0.000000 0.837209 0.200000
  0 -2.468497 15.042765 3.263589 -0.998119 0.061301 0.000000 0.883721 0.600000
  0 -2.468497 15.042765 1.223589 -0.998119 0.061301 0.000000 0.883721 0.200000
shottop.bmp
  0 -2.468497 15.042765 3.263589 -0.999941 0.010900 0.000000 0.883721 0.600000
  0 -2.468494 23.252765 3.263589 -0.999941 0.010900 0.000000 0.976744 0.600000
  0 -2.468497 15.042765 1.223589 -0.999941 0.010900 0.000000 0.883721 0.200000
shottop.bmp
  0 -2.468497 15.042765 1.223589 -0.999941 0.010900 0.000000 0.883721 0.200000
  0 -2.468494 23.252765 3.263589 -0.999941 0.010900 0.000000 0.976744 0.600000
  0 -2.468494 23.252765 1.223589 -0.999941 0.010900 0.000000 0.976744 0.200000
shottop.bmp
  0 -2.578498 8.252765 1.193589 -0.999941 0.010900 0.000000 0.627907 0.200000
  0 -2.628500 5.112765 1.143589 -0.999941 0.010900 0.000000 0.534884 0.000000
  0 -2.578498 8.252765 3.293589 -0.999941 0.010900 0.000000 0.627907 0.600000
shottop.bmp
  0 -2.578498 8.252765 3.293589 -0.999941 0.010900 0.000000 0.627907 0.600000
  0 -2.628500 5.112765 1.143589 -0.999941 0.010900 0.000000 0.534884 0.000000
  0 -2.628500 5.112765 3.333589 -0.999941 0.010900 0.000000 0.534884 0.800000
shottop.bmp
  0 -2.628500 5.112765 1.143589 -0.920007 0.391903 0.000000 0.534884 0.000000
  0 -3.438500 3.222765 1.113589 -0.920007 0.391903 0.000000 0.488372 0.000000
  0 -2.628500 5.112765 3.333589 -0.920007 0.391903 0.000000 0.534884 0.800000
shottop.bmp
  0 -2.628500 5.112765 3.333589 -0.920007 0.391903 0.000000 0.534884 0.800000
  0 -3.438500 3.222765 1.113589 -0.920007 0.391903 0.000000 0.488372 0.000000
  0 -3.438500 3.222765 3.373589 -0.920007 0.391903 0.000000 0.488372 0.800000
shottop.bmp
  0 -3.438500 3.222765 1.113589 -0.999941 0.010900 0.000000 0.488372 0.000000
  0 -3.398502 -2.287235 0.933589 -0.999941 0.010900 0.000000 0.372093 0.000000
  0 -3.438500 3.222765 3.373589 -0.999941 0.010900 0.000000 0.488372 0.800000
shottop.bmp
  0 -3.438500 3.222765 3.373589 -0.999941 0.010900 0.000000 0.488372 0.800000
  0 -3.398502 -2.287235 0.933589 -0.999941 0.010900 0.000000 0.372093 0.000000
  0 -3.398502 -2.287235 3.573589 -0.999941 0.010900 0.000000 0.372093 0.800000
shottop.bmp
  0 -3.398502 -2.287235 0.933589 -0.329696 -0.944087 0.000000 0.372093 0.000000
  0 -2.488502 -2.607235 1.363589 -0.329696 -0.944087 0.000000 0.348837 0.200000
  0 -3.398502 -2.287235 3.573589 -0.329696 -0.944087 0.000000 0.372093 0.800000
shottop.bmp
  0 -3.398502 -2.287235 3.573589 -0.329696 -0.944087 0.000000 0.372093 0.800000
  0 -2.488502 -2.607235 1.363589 -0.329696 -0.944087 0.000000 0.348837 0.200000
  0 -2.488502 -2.607235 3.103589 -0.329696 -0.944087 0.000000 0.348837 0.600000
shottop.bmp
  0 -2.488502 -2.607235 1.363589 -0.999941 0.010900 0.000000 0.348837 0.200000
  0 -2.448505 -11.797235 1.003589 -0.999941 0.010900 0.000000 0.139535 0.000000
  0 -2.488502 -2.607235 3.103589 -0.999941 0.010900 0.000000 0.348837 0.600000
shottop.bmp
  0 -2.488502 -2.607235 3.103589 -0.999941 0.010900 0.000000 0.348837 0.600000
  0 -2.448505 -11.797235 1.003589 -0.999941 0.010900 0.000000 0.139535 0.000000
  0 -2.448505 -11.797235 3.483589 -0.999941 0.010900 0.000000 0.139535 0.800000
shottop.bmp
  0 -2.448505 -11.797235 1.003589 -0.953336 -0.301911 0.000000 0.139535 0.000000
  0 -1.438506 -14.977235 0.473589 -0.953336 -0.301911 0.000000 0.046512 0.000000
  0 -2.448505 -11.797235 3.483589 -0.953336 -0.301911 0.000000 0.139535 0.800000
shottop.bmp
  0 -2.448505 -11.797235 3.483589 -0.953336 -0.301911 0.000000 0.139535 0.800000
  0 -1.438506 -14.977235 0.473589 -0.953336 -0.301911 0.000000 0.046512 0.000000
  0 -1.438506 -14.977235 4.003589 -0.953336 -0.301911 0.000000 0.046512 1.000000
shottop.bmp
  0 -1.438506 -14.977235 0.473589 -0.820236 -0.572025 0.000000 0.046512 0.000000
  0 -0.068506 -16.947237 0.763589 -0.820236 -0.572025 0.000000 0.000000 0.000000
  0 -1.438506 -14.977235 4.003589 -0.820236 -0.572025 0.000000 0.046512 1.000000
shottop.bmp
  0 -1.438506 -14.977235 4.003589 -0.820236 -0.572025 0.000000 0.046512 1.000000
  0 -0.068506 -16.947237 0.763589 -0.820236 -0.572025 0.000000 0.000000 0.000000
  0 -0.068506 -16.947237 3.743589 -0.820236 -0.572025 0.000000 0.000000 0.800000
end
