version 1
nodes
0 "Bip01" -1
1 "Bip01 Pelvis" 0
2 "Bip01 L Thigh" 1
3 "Bip01 L Calf" 2
4 "Bip01 L Foot" 3
5 "Bip01 R Thigh" 1
6 "Bip01 R Calf" 5
7 "Bip01 R Foot" 6
8 "Bip01 Spine" 1
9 "Bip01 Spine1" 8
10 "Bip01 Neck" 9
11 "Bip01 L Clavicle" 10
12 "Bip01 L UpperArm" 11
13 "Bip01 L Forearm" 12
14 "Bip01 L Hand" 13
15 "Bip01 L Finger0" 14
16 "Bip01 L Finger01" 15
17 "Bip01 L Finger02" 16
18 "Bip01 L Finger1" 14
19 "Bip01 L Finger11" 18
20 "Bip01 L Finger12" 19
21 "Bip01 L Finger2" 14
22 "Bip01 L Finger21" 21
23 "Bip01 L Finger22" 22
24 "Bip01 R Clavicle" 10
25 "Bip01 R UpperArm" 24
26 "Bip01 R Forearm" 25
27 "Bip01 R Hand" 26
28 "Bip01 R Finger0" 27
29 "Bip01 R Finger01" 28
30 "Bip01 R Finger02" 29
31 "Bip01 R Finger1" 27
32 "Bip01 R Finger11" 31
33 "Bip01 R Finger12" 32
34 "Bip01 R Finger2" 27
35 "Bip01 R Finger21" 34
36 "Bip01 R Finger22" 35
37 "Bip01 R Finger4" 27
38 "Bip01 Head" 10
39 "Bone05" 38
40 "Bone08" 9
41 "Bone16" 8
42 "Bone01" 8
43 "Bone03" 1
44 "Box01" -1
end
skeleton
time 0
0  1.247096 4.017045 38.416107  -0.032789 0.051704 -1.633642
1  -1.105177 0.261727 -0.000003  -0.000030 -1.518469 -1.570772
2  -0.000007 0.000008 4.427393  -0.158773 3.106815 0.060093
3  18.465939 0.000001 0.000000  -0.000000 0.000000 -0.249361
4  14.875443 0.000002 0.000001  0.046802 0.003730 0.344277
5  0.000010 -0.000005 -4.427393  0.090490 3.059752 -0.388067
6  18.465939 -0.000001 -0.000001  -0.000000 -0.000000 -0.464631
7  14.875441 -0.000000 0.000000  0.038121 0.027165 0.123363
8  2.255207 -0.007574 0.117194  -0.065613 0.009936 0.038847
9  9.514231 -0.009358 -0.000000  0.009117 -0.105397 0.104605
10  11.752195 -0.001492 -0.000001  -0.025347 0.102407 0.222105
11  -2.396958 0.347956 2.427070  -0.087954 -1.222829 3.000639
12  4.640937 -0.000001 -0.000004  -0.889855 0.346501 -1.844059
13  10.828047 0.000001 0.000001  -0.085715 0.035262 -0.624937
14  9.393335 -0.000000 0.000001  -2.045769 -0.447170 0.433411
15  1.442241 0.107457 -1.746178  1.545041 0.350655 0.094987
16  1.063451 -0.000001 0.000000  0.000000 -0.000000 0.199056
17  1.376311 -0.000003 -0.000001  -0.000000 -0.000000 0.199049
18  4.172847 -0.251361 -1.312744  0.008014 -0.043889 0.147537
19  1.215374 0.000004 0.000002  -0.000000 0.000000 0.645758
20  1.215370 0.000000 -0.000005  0.000000 -0.000000 0.881369
21  4.220530 -0.244856 -0.431465  0.001333 0.026242 0.148339
22  1.350415 -0.000001 0.000001  0.000000 0.000000 0.733035
23  1.350410 -0.000004 -0.000008  -0.000000 0.000000 1.256600
24  -1.861787 0.480784 -2.841136  -2.486408 1.779393 0.406221
25  4.640944 0.000002 0.000003  -1.079032 -0.941785 0.480591
26  10.828049 0.000000 0.000000  -0.603935 0.290104 -2.199200
27  9.393335 -0.000003 -0.000003  2.138403 0.333846 -0.033065
28  1.442242 0.107454 1.746181  -1.937605 -0.475472 0.678379
29  1.063452 0.000001 -0.000000  0.000000 0.000000 0.366516
30  1.376304 0.000014 0.000003  0.000000 0.000000 0.811565
31  4.172846 -0.251365 1.312747  0.001190 -0.096055 0.052246
32  1.215373 0.000002 -0.000001  -0.000000 -0.000000 0.130882
33  1.215373 -0.000001 0.000003  0.000000 -0.000000 1.151880
34  4.220533 -0.244852 0.431465  0.001184 -0.026242 0.052329
35  1.350415 -0.000002 0.000005  -0.000000 0.000000 0.977377
36  1.350410 0.000000 0.000001  0.000000 -0.000000 1.518434
37  4.262824 -0.232719 -1.392175  0.001188 0.078478 0.052453
38  2.110540 -0.000000 -0.000000  0.155327 0.123823 -0.054459
39  0.891906 2.373053 -0.014526  -3.141592 -0.000001 1.413797
40  7.228115 5.709445 3.726567  3.140796 -1.570796 0.000000
41  2.450432 5.076127 0.001325  3.140791 -1.570796 0.000000
42  6.312409 -4.528059 0.001311  3.140791 -1.570796 0.000000
43  2.233310 1.152535 -7.309139  -1.116073 -1.597154 -0.935096
44  3.061500 2.842763 2.243589  0.000000 -0.000000 1.570796
time 1
0  1.278347 3.447954 38.416107  -0.032789 0.040843 -1.630862
1  -0.921575 0.343760 0.000002  -0.000030 -1.518038 -1.570772
2  0.000000 0.000008 4.427393  -0.167971 3.111454 0.024922
3  18.465935 0.000000 -0.000000  0.000000 0.000000 -0.312598
4  14.875445 -0.000001 -0.000000  0.057610 0.005710 0.361343
5  0.000012 -0.000004 -4.427393  0.099499 3.056977 -0.387693
6  18.465937 -0.000000 0.000001  -0.000000 -0.000000 -0.446975
7  14.875441 0.000000 -0.000000  0.031172 0.024953 0.095000
8  2.255212 -0.007575 0.117194  -0.043209 0.010290 0.035240
9  9.514217 -0.009357 0.000000  0.010580 -0.083852 0.071981
10  11.752195 -0.001487 0.000000  -0.010019 0.061887 0.264476
11  -2.279763 0.472960 2.520821  0.061248 -1.295529 2.815390
12  4.640936 -0.000002 0.000001  -0.917355 0.366968 -1.759613
13  10.828044 -0.000009 0.000003  -0.084556 0.033735 -0.625213
14  9.393335 -0.000002 0.000005  -2.076569 -0.441156 0.426922
15  1.442241 0.107454 -1.746182  1.571203 0.394792 0.141905
16  1.063452 -0.000003 -0.000000  0.000000 -0.000000 0.199056
17  1.376304 -0.000014 0.000002  -0.000000 -0.000000 0.199049
18  4.172847 -0.251364 -1.312748  0.008014 -0.012993 0.147777
19  1.215373 0.000002 -0.000001  -0.000000 -0.000000 0.645758
20  1.215372 0.000000 -0.000001  -0.000000 -0.000000 0.829224
21  4.220531 -0.244856 -0.431468  0.001333 0.026242 0.148339
22  1.350418 -0.000001 0.000007  -0.000000 -0.000000 0.761990
23  1.350408 0.000001 -0.000009  -0.000000 0.000000 1.169693
24  -1.955538 0.527664 -2.766915  -2.619984 1.772009 0.240847
25  4.640942 0.000001 -0.000000  -1.047509 -0.946907 0.455008
26  10.828049 -0.000000 0.000001  -0.589700 0.267902 -2.175193
27  9.393335 0.000002 0.000003  2.123061 0.327336 -0.031549
28  1.442242 0.107454 1.746168  -1.937332 -0.475584 0.678019
29  1.063454 -0.000003 -0.000001  -0.000000 0.000000 0.366097
30  1.376307 -0.000006 0.000002  -0.000000 -0.000000 0.810640
31  4.172843 -0.251367 1.312744  0.001190 -0.096055 0.052246
32  1.215374 0.000001 0.000003  -0.000000 -0.000000 0.130714
33  1.215376 0.000001 0.000000  0.000000 0.000000 1.150579
34  4.220531 -0.244855 0.431465  0.001184 -0.026242 0.052329
35  1.350414 -0.000002 0.000001  0.000000 0.000000 0.976244
36  1.350410 -0.000001 -0.000002  0.000000 -0.000000 1.516669
37  4.262822 -0.232719 -1.392184  0.001188 0.078478 0.052453
38  2.110542 -0.000001 0.000000  0.108436 0.106864 -0.090763
39  0.891924 2.373050 -0.014529  -3.141592 -0.000001 1.413797
40  7.228118 5.709445 3.726569  3.140796 -1.570796 0.000000
41  2.450422 5.076127 0.001325  3.140791 -1.570796 0.000000
42  6.312407 -4.528059 0.001311  3.140791 -1.570796 0.000000
43  2.233313 1.152535 -7.309138  -1.134192 -1.598581 -0.910970
44  3.061500 2.842763 2.243589  0.000000 -0.000000 1.570796
time 2
0  1.278347 4.283807 38.431866  -0.032693 0.029518 -1.625685
1  -0.737978 0.429701 0.000006  -0.000030 -1.517046 -1.570772
2  -0.000014 0.000008 4.427393  -0.184067 3.116378 -0.005483
3  18.465940 0.000000 0.000001  0.000000 -0.000000 -0.363408
4  14.875443 0.000001 0.000000  0.078017 0.006774 0.370271
5  -0.000001 -0.000004 -4.427393  0.117709 3.051716 -0.385353
6  18.465940 -0.000001 0.000000  0.000000 -0.000000 -0.425511
7  14.875442 -0.000000 -0.000000  0.017168 0.021224 0.063710
8  2.255202 -0.007575 0.121100  -0.018316 0.009799 0.031567
9  9.514219 -0.009357 0.000000  0.011705 -0.061676 0.038231
10  11.752195 -0.001488 -0.000000  0.004015 0.019342 0.307990
11  -2.146943 0.601867 2.606761  0.331546 -1.360396 2.506737
12  4.640939 -0.000001 -0.000003  -0.955041 0.435186 -1.581641
13  10.828046 0.000000 -0.000002  -0.081311 0.029459 -0.625983
14  9.393332 0.000000 0.000003  -2.163283 -0.424142 0.408999
15  1.442241 0.107454 -1.746176  1.603058 0.441774 0.195864
16  1.063450 -0.000010 -0.000001  -0.000000 0.000000 0.199056
17  1.376304 -0.000004 0.000001  -0.000000 -0.000000 0.199049
18  4.172848 -0.251363 -1.312743  0.008014 0.020900 0.148058
19  1.215374 0.000003 -0.000008  0.000000 -0.000000 0.645758
20  1.215371 0.000001 -0.000002  -0.000000 -0.000000 0.772057
21  4.220532 -0.244854 -0.431468  0.001333 0.026242 0.148339
22  1.350416 -0.000000 0.000004  -0.000000 -0.000000 0.793764
23  1.350409 0.000003 0.000004  0.000000 -0.000000 1.074414
24  -2.045383 0.582350 -2.688790  -2.742451 1.765200 0.082139
25  4.640944 -0.000001 0.000003  -0.957270 -0.959471 0.381504
26  10.828042 -0.000001 0.000002  -0.549841 0.205738 -2.107974
27  9.393334 -0.000002 -0.000001  2.079996 0.309087 -0.027383
28  1.442245 0.107454 1.746171  -1.936605 -0.475865 0.677298
29  1.063454 -0.000007 0.000001  0.000000 -0.000000 0.365258
30  1.376309 0.000001 -0.000002  0.000000 -0.000000 0.808789
31  4.172847 -0.251368 1.312745  0.001190 -0.096055 0.052246
32  1.215374 -0.000001 0.000000  -0.000000 0.000000 0.130421
33  1.215375 0.000002 -0.000002  0.000000 0.000000 1.147977
34  4.220534 -0.244855 0.431471  0.001184 -0.026242 0.052329
35  1.350410 -0.000000 -0.000008  -0.000000 -0.000000 0.974020
36  1.350412 -0.000005 0.000016  0.000000 0.000000 1.513234
37  4.262826 -0.232720 -1.392176  0.001188 0.078478 0.052453
38  2.110538 -0.000002 0.000000  0.057637 0.088222 -0.125372
39  0.891924 2.373051 -0.014529  -3.141592 -0.000001 1.413797
40  7.228124 5.709445 3.726568  3.140796 -1.570796 0.000000
41  2.450424 5.076128 0.001325  3.140791 -1.570796 0.000000
42  6.312412 -4.528059 0.001311  3.140791 -1.570796 0.000000
43  2.233301 1.152535 -7.309138  -1.133329 -1.600445 -0.905034
44  3.061500 2.842763 2.243589  0.000000 -0.000000 1.570796
time 3
0  1.278347 5.092984 38.416107  -0.032693 0.018472 -1.621754
1  -0.558283 0.527360 -0.000004  -0.000030 -1.515911 -1.570772
2  -0.000001 0.000008 4.427393  -0.199972 3.120165 -0.030742
3  18.465939 0.000000 -0.000000  -0.000000 -0.000000 -0.403252
4  14.875443 -0.000000 -0.000001  0.097251 0.009094 0.373628
5  0.000006 -0.000004 -4.427393  0.136302 3.046741 -0.381235
6  18.465940 -0.000001 0.000000  0.000000 -0.000000 -0.399716
7  14.875442 -0.000000 0.000000  0.001936 0.017101 0.030282
8  2.255215 -0.007574 0.121100  0.005270 0.009445 0.027961
9  9.514221 -0.009357 -0.000000  0.011931 -0.039769 0.005152
10  11.752184 -0.001488 -0.000000  0.015892 -0.022448 0.350044
11  -2.010226 0.722967 2.680982  0.755525 -1.396633 2.044429
12  4.640940 -0.000001 0.000001  -0.952076 0.559414 -1.424118
13  10.828046 0.000000 -0.000005  -0.076328 0.022892 -0.627165
14  9.393336 0.000003 0.000002  -2.297788 -0.397538 0.382144
15  1.442242 0.107452 -1.746179  1.636855 0.485111 0.250191
16  1.063450 0.000001 -0.000002  0.000000 0.000000 0.199056
17  1.376306 -0.000006 0.000003  0.000000 -0.000000 0.199049
18  4.172847 -0.251366 -1.312745  0.008014 0.053282 0.148338
19  1.215374 0.000000 0.000004  0.000000 0.000000 0.645758
20  1.215370 -0.000002 0.000000  0.000000 -0.000000 0.717380
21  4.220532 -0.244857 -0.431468  0.001333 0.026242 0.148339
22  1.350418 0.000001 0.000001  -0.000000 0.000000 0.824108
23  1.350409 0.000004 -0.000000  0.000000 -0.000000 0.983301
24  -2.127420 0.637042 -2.614567  -2.868344 1.761478 -0.081868
25  4.640943 0.000001 -0.000002  -0.813865 -0.973367 0.264077
26  10.828045 0.000001 -0.000001  -0.488630 0.110270 -2.004745
27  9.393335 -0.000007 0.000001  2.013554 0.281009 -0.021203
28  1.442244 0.107455 1.746175  -1.936059 -0.476033 0.676731
29  1.063453 -0.000005 0.000000  -0.000000 -0.000000 0.364635
30  1.376309 0.000001 0.000003  0.000000 0.000000 0.807422
31  4.172845 -0.251367 1.312747  0.001190 -0.096055 0.052246
32  1.215374 -0.000002 0.000006  0.000000 -0.000000 0.130211
33  1.215376 0.000003 0.000013  0.000000 -0.000000 1.146004
34  4.220531 -0.244853 0.431467  0.001184 -0.026242 0.052329
35  1.350411 -0.000002 -0.000012  -0.000000 -0.000000 0.972341
36  1.350409 -0.000006 0.000012  0.000000 0.000000 1.510658
37  4.262825 -0.232719 -1.392175  0.001188 0.078478 0.052453
38  2.110535 0.000001 0.000000  0.009718 0.067475 -0.155225
39  0.891922 2.373049 -0.014529  -3.141592 -0.000001 1.413797
40  7.228113 5.709445 3.726567  3.140796 -1.570796 0.000000
41  2.450427 5.076127 0.001325  3.140791 -1.570796 0.000000
42  6.312415 -4.528058 0.001311  3.140791 -1.570796 0.000000
43  2.233313 1.152534 -7.309138  -1.132083 -1.602309 -0.899481
44  3.061500 2.842763 2.243589  0.000000 -0.000000 1.570796
time 4
0  1.278347 5.839917 38.416107  -0.032693 0.008261 -1.622617
1  -0.394217 0.632832 0.000008  -0.000030 -1.515048 -1.570772
2  -0.000004 0.000008 4.427392  -0.214918 3.122438 -0.050472
3  18.465939 0.000001 -0.000001  0.000000 -0.000000 -0.433299
4  14.875444 0.000002 -0.000000  0.110725 0.012861 0.373826
5  0.000004 -0.000004 -4.427393  0.154224 3.043202 -0.375246
6  18.465944 -0.000001 -0.000001  -0.000000 0.000000 -0.370180
7  14.875441 -0.000000 0.000000  -0.016770 0.012281 -0.004084
8  2.255211 -0.007574 0.125007  0.023919 0.010152 0.024586
9  9.514221 -0.009357 0.000000  0.010805 -0.019085 -0.025502
10  11.752199 -0.001487 -0.000000  0.025204 -0.060751 0.388154
11  -1.881311 0.828438 2.747390  1.191412 -1.393913 1.572547
12  4.640939 -0.000001 -0.000003  -0.912726 0.712795 -1.311916
13  10.828047 0.000003 -0.000001  -0.069954 0.014492 -0.628678
14  9.393334 0.000002 0.000005  -2.472133 -0.362758 0.348887
15  1.442243 0.107455 -1.746169  1.667008 0.519190 0.296699
16  1.063449 0.000001 -0.000001  -0.000000 0.000000 0.199056
17  1.376306 -0.000009 -0.000000  -0.000000 -0.000000 0.199049
18  4.172849 -0.251361 -1.312740  0.008038 0.079720 0.148539
19  1.215375 0.000004 0.000002  0.000000 0.000000 0.645758
20  1.215369 -0.000002 -0.000001  -0.000000 0.000000 0.672790
21  4.220534 -0.244854 -0.431462  0.001333 0.026242 0.148339
22  1.350415 0.000001 0.000001  -0.000000 -0.000000 0.848897
23  1.350410 0.000003 -0.000003  0.000000 0.000000 0.908932
24  -2.197736 0.695637 -2.540346  0.134767 1.376574 2.884266
25  4.640942 0.000000 -0.000001  -0.624938 -0.980977 0.108815
26  10.828051 -0.000000 0.000002  -0.410336 -0.011839 -1.872708
27  9.393336 -0.000000 0.000001  1.928057 0.245005 -0.013658
28  1.442244 0.107453 1.746175  -1.936241 -0.475977 0.676937
29  1.063453 -0.000003 -0.000001  0.000000 -0.000000 0.364851
30  1.376307 0.000000 0.000003  -0.000000 -0.000000 0.807863
31  4.172844 -0.251369 1.312744  0.001190 -0.096055 0.052246
32  1.215373 0.000000 0.000001  0.000000 0.000000 0.130295
33  1.215377 0.000002 0.000004  -0.000000 -0.000000 1.146634
34  4.220532 -0.244857 0.431470  0.001184 -0.026242 0.052329
35  1.350412 -0.000004 -0.000003  0.000000 0.000000 0.972928
36  1.350410 -0.000005 0.000003  0.000000 0.000000 1.511517
37  4.262825 -0.232720 -1.392179  0.001188 0.078478 0.052453
38  2.110543 -0.000003 -0.000000  -0.028639 0.044983 -0.178579
39  0.891922 2.373049 -0.014529  -3.141592 -0.000001 1.413797
40  7.228126 5.709445 3.726568  3.140796 -1.570796 0.000000
41  2.450418 5.076127 0.001325  3.140791 -1.570796 0.000000
42  6.312414 -4.528059 0.001312  3.140791 -1.570796 0.000000
43  2.233307 1.152535 -7.309138  -1.130549 -1.603882 -0.894311
44  3.061500 2.842763 2.243589  0.000000 -0.000000 1.570796
time 5
0  1.278347 6.462360 38.400349  -0.032789 -0.000557 -1.631917
1  -0.253588 0.742210 -0.000000  -0.000030 -1.514905 -1.570772
2  0.000003 0.000007 4.427393  -0.228044 3.123101 -0.063720
3  18.465940 0.000000 -0.000000  0.000000 -0.000000 -0.454500
4  14.875443 0.000001 -0.000001  0.114103 0.017714 0.373352
5  0.000006 -0.000004 -4.427393  0.170805 3.042819 -0.367946
6  18.465939 0.000000 0.000000  0.000000 -0.000000 -0.338543
7  14.875443 -0.000000 -0.000000  -0.041513 0.006218 -0.037550
8  2.255211 -0.007575 0.125007  0.033792 0.012863 0.021509
9  9.514216 -0.009357 0.000000  0.008066 -0.000578 -0.051999
10  11.752191 -0.001487 0.000001  0.031879 -0.092786 0.419833
11  -1.768024 0.910471 2.794267  1.459710 -1.371955 1.273947
12  4.640938 -0.000000 0.000001  -0.839410 0.856310 -1.180147
13  10.828047 -0.000001 -0.000005  -0.062538 0.004717 -0.630439
14  9.393336 0.000002 0.000005  -2.678165 -0.321375 0.311565
15  1.442238 0.107455 -1.746187  1.686435 0.539209 0.325885
16  1.063450 -0.000002 -0.000003  -0.000000 -0.000000 0.199056
17  1.376306 -0.000004 0.000000  0.000000 -0.000000 0.199049
18  4.172846 -0.251364 -1.312750  0.008050 0.095731 0.148659
19  1.215374 0.000002 -0.000006  0.000000 -0.000000 0.645758
20  1.215371 0.000006 -0.000008  0.000000 -0.000000 0.645758
21  4.220530 -0.244856 -0.431476  0.001333 0.026242 0.148339
22  1.350418 -0.000001 0.000003  0.000000 -0.000000 0.863926
23  1.350408 0.000001 0.000003  -0.000000 0.000000 0.863926
24  -2.252425 0.742517 -2.477844  -0.013064 1.360264 2.704107
25  4.640941 -0.000001 -0.000005  -0.404001 -0.974973 -0.072423
26  10.828049 -0.000000 0.000001  -0.319230 -0.153929 -1.719064
27  9.393334 -0.000002 -0.000004  1.827883 0.202993 -0.005339
28  1.442245 0.107454 1.746176  -1.937605 -0.475472 0.678379
29  1.063451 -0.000007 -0.000005  -0.000000 -0.000000 0.366516
30  1.376307 0.000003 0.000005  0.000000 -0.000000 0.811565
31  4.172844 -0.251365 1.312743  0.001190 -0.096055 0.052246
32  1.215372 -0.000002 0.000009  -0.000000 -0.000000 0.130882
33  1.215376 0.000002 0.000003  -0.000000 0.000000 1.151880
34  4.220532 -0.244852 0.431462  0.001184 -0.026242 0.052329
35  1.350411 -0.000000 -0.000012  -0.000000 0.000000 0.977377
36  1.350413 -0.000003 0.000003  0.000000 -0.000000 1.518434
37  4.262825 -0.232718 -1.392180  0.001188 0.078478 0.052453
38  2.110540 -0.000000 0.000000  -0.050902 0.021530 -0.194824
39  0.891923 2.373052 -0.014529  -3.141592 -0.000001 1.413797
40  7.228117 5.709446 3.726568  3.140796 -1.570796 0.000000
41  2.450415 5.076127 0.001325  3.140791 -1.570796 0.000000
42  6.312409 -4.528057 0.001312  3.140791 -1.570796 0.000000
43  2.233308 1.152534 -7.309138  -1.128632 -1.604872 -0.889715
44  3.061500 2.842763 2.243589  0.000000 -0.000000 1.570796
time 6
0  1.266628 6.604633 38.384594  -0.033556 -0.004084 -1.683978
1  -0.191085 0.886746 0.000003  -0.000030 -1.515911 -1.570772
2  -0.000007 0.000008 4.427392  -0.238583 3.115526 -0.055142
3  18.465935 0.000000 0.000000  -0.000000 -0.000000 -0.452745
4  14.875443 0.000000 -0.000000  0.072151 0.025525 0.378606
5  0.000002 -0.000004 -4.427392  0.184510 3.051812 -0.365606
6  18.465940 -0.000000 0.000001  0.000000 -0.000000 -0.319640
7  14.875442 -0.000000 0.000001  -0.102966 -0.005634 -0.056346
8  2.255212 -0.007574 0.121100  0.004384 0.023389 0.019358
9  9.514220 -0.009357 0.000000  -0.000750 0.011034 -0.062715
10  11.752195 -0.001488 0.000000  0.033749 -0.102062 0.426381
11  -1.736769 0.930002 2.809892  1.541171 -1.361076 1.186157
12  4.640938 -0.000001 0.000008  -0.724025 0.984431 -1.017621
13  10.828048 -0.000001 -0.000001  -0.054426 -0.005974 -0.632364
14  9.393337 -0.000002 0.000008  -2.907266 -0.275187 0.272200
15  1.442241 0.107455 -1.746179  1.695903 0.548467 0.339923
16  1.063447 0.000001 -0.000000  -0.000000 0.000000 0.199056
17  1.376307 -0.000004 0.000004  -0.000000 -0.000000 0.199049
18  4.172847 -0.251365 -1.312745  0.008050 0.103258 0.148739
19  1.215374 0.000000 -0.000005  0.000000 0.000000 0.645758
20  1.215369 -0.000001 -0.000003  0.000000 0.000000 0.633017
21  4.220531 -0.244857 -0.431466  0.001333 0.026242 0.148339
22  1.350417 -0.000002 0.000002  -0.000000 0.000000 0.870991
23  1.350410 0.000003 0.000004  0.000000 -0.000000 0.842730
24  -2.271948 0.754232 -2.458313  -0.207273 1.328126 2.504547
25  4.640941 -0.000000 -0.000005  -0.170593 -0.950676 -0.261891
26  10.828042 0.000001 0.000003  -0.219583 -0.309341 -1.551016
27  9.393337 0.000004 -0.000000  1.717524 0.156910 0.003251
28  1.442245 0.107453 1.746169  -1.941878 -0.473898 0.682859
29  1.063451 -0.000002 -0.000005  0.000000 -0.000000 0.371646
30  1.376309 0.000006 0.000005  -0.000000 -0.000000 0.822936
31  4.172845 -0.251371 1.312743  0.001190 -0.096055 0.052246
32  1.215371 0.000000 0.000001  0.000000 0.000000 0.132729
33  1.215376 0.000002 0.000002  0.000000 0.000000 1.168038
34  4.220532 -0.244855 0.431462  0.001184 -0.026242 0.052329
35  1.350412 -0.000003 -0.000008  -0.000000 -0.000000 0.991059
36  1.350412 -0.000004 0.000005  0.000000 -0.000000 1.539664
37  4.262826 -0.232721 -1.392181  0.001188 0.078478 0.052453
38  2.110546 -0.000003 0.000000  -0.003239 -0.004569 -0.192988
39  0.891931 2.373048 -0.014529  -3.141592 -0.000001 1.413797
40  7.228120 5.709445 3.726568  3.140796 -1.570796 0.000000
41  2.450420 5.076128 0.001325  3.140791 -1.570796 0.000000
42  6.312412 -4.528059 0.001311  3.140791 -1.570796 0.000000
43  2.233308 1.152535 -7.309138  -1.126427 -1.604989 -0.885791
44  3.061500 2.842763 2.243589  0.000000 -0.000000 1.570796
time 7
0  1.254908 6.462361 38.368835  -0.032501 -0.003991 -1.736518
1  -0.171553 0.984405 0.000004  -0.000030 -1.518469 -1.570772
2  -0.000000 0.000008 4.427393  -0.237050 3.104542 -0.039987
3  18.465935 0.000001 -0.000000  -0.000000 -0.000000 -0.441267
4  14.875446 -0.000000 0.000000  0.018076 0.033102 0.384452
5  0.000010 -0.000004 -4.427393  0.181347 3.062430 -0.368788
6  18.465937 -0.000000 0.000000  -0.000000 -0.000000 -0.320099
7  14.875442 -0.000000 0.000000  -0.148837 -0.013273 -0.057284
8  2.255215 -0.007576 0.117194  -0.035825 0.034583 0.017869
9  9.514218 -0.009357 0.000001  -0.008141 0.014569 -0.062499
10  11.752192 -0.001488 -0.000000  0.031879 -0.092786 0.419833
11  -1.768029 0.910473 2.794267  1.529071 -1.363368 1.204060
12  4.640940 -0.000001 0.000002  -0.556195 1.090541 -0.811357
13  10.828049 -0.000001 -0.000005  -0.045966 -0.017123 -0.634372
14  9.393337 -0.000001 0.000007  3.132967 -0.226223 0.232476
15  1.442243 0.107458 -1.746178  1.701487 0.553774 0.348133
16  1.063449 -0.000008 -0.000001  0.000000 0.000000 0.199056
17  1.376305 -0.000004 0.000001  0.000000 -0.000000 0.199049
18  4.172845 -0.251358 -1.312748  0.008050 0.107632 0.148739
19  1.215374 0.000002 0.000002  0.000000 -0.000000 0.645758
20  1.215372 -0.000001 -0.000005  0.000000 -0.000000 0.625627
21  4.220531 -0.244848 -0.431469  0.001333 0.026242 0.148339
22  1.350416 0.000003 0.000002  -0.000000 0.000000 0.875075
23  1.350407 0.000003 0.000001  -0.000000 -0.000000 0.830397
24  -2.252426 0.742518 -2.477844  -0.391112 1.276289 2.333276
25  4.640938 -0.000002 -0.000003  0.055057 -0.907768 -0.441291
26  10.828053 0.000001 0.000005  -0.115666 -0.471412 -1.375765
27  9.393337 0.000003 0.000001  1.601606 0.108720 0.011708
28  1.442244 0.107455 1.746175  -1.948333 -0.471483 0.689760
29  1.063451 -0.000003 0.000001  -0.000000 0.000000 0.379544
30  1.376307 0.000002 0.000002  0.000000 -0.000000 0.840433
31  4.172844 -0.251367 1.312744  0.001190 -0.096055 0.052246
32  1.215371 0.000001 0.000002  0.000000 -0.000000 0.135541
33  1.215375 0.000000 0.000008  0.000000 0.000000 1.192841
34  4.220531 -0.244855 0.431468  0.001184 -0.026242 0.052329
35  1.350411 0.000002 -0.000009  -0.000000 0.000000 1.012127
36  1.350410 -0.000004 0.000002  -0.000000 -0.000000 1.572392
37  4.262825 -0.232719 -1.392179  0.001188 0.078478 0.052453
38  2.110540 0.000001 0.000000  0.062676 -0.026279 -0.184701
39  0.891922 2.373052 -0.014529  -3.141592 -0.000001 1.413797
40  7.228122 5.709445 3.726568  3.140796 -1.570796 0.000000
41  2.450423 5.076127 0.001325  3.140791 -1.570796 0.000000
42  6.312412 -4.528059 0.001312  3.140791 -1.570796 0.000000
43  2.233315 1.152535 -7.309138  -1.118661 -1.594009 -0.891822
44  3.061500 2.842763 2.243589  0.000000 -0.000000 1.570796
time 8
0  1.247096 6.462361 38.337322  -0.028570 -0.004548 -1.751091
1  -0.152021 1.003937 -0.000001  -0.000030 -1.529061 -1.570772
2  -0.000004 0.000008 4.427393  -0.231972 3.108330 -0.041131
3  18.465940 -0.000000 0.000000  -0.000000 -0.000000 -0.450040
4  14.875444 0.000001 0.000000  -0.001442 0.035741 0.391958
5  0.000006 -0.000004 -4.427392  0.176843 3.073049 -0.366448
6  18.465946 -0.000001 -0.000000  0.000000 0.000000 -0.313404
7  14.875443 -0.000000 -0.000001  -0.155365 -0.014486 -0.061786
8  2.255211 -0.007574 0.093756  -0.054812 0.047545 0.016843
9  9.514219 -0.009357 0.000000  -0.008366 0.015120 -0.064144
10  11.752194 -0.001487 0.000000  0.029614 -0.083486 0.421371
11  -1.791467 0.906565 2.782547  1.499821 -1.367296 1.231153
12  4.640938 -0.000001 0.000004  -0.333434 1.166929 -0.557595
13  10.828057 0.000000 -0.000004  -0.037506 -0.028272 -0.636380
14  9.393339 -0.000000 0.000009  2.886030 -0.176677 0.193803
15  1.442244 0.107450 -1.746177  1.703765 0.555916 0.351479
16  1.063450 0.000000 -0.000001  0.000000 0.000000 0.199056
17  1.376306 -0.000004 -0.000004  -0.000000 0.000000 0.199049
18  4.172848 -0.251365 -1.312744  0.008050 0.109406 0.148779
19  1.215374 -0.000002 -0.000001  0.000000 0.000000 0.645758
20  1.215370 -0.000004 0.000004  -0.000000 0.000000 0.622646
21  4.220535 -0.244858 -0.431466  0.001333 0.026242 0.148339
22  1.350417 0.000001 0.000002  0.000000 -0.000000 0.876750
23  1.350407 0.000007 0.000000  0.000000 0.000000 0.825414
24  -2.228985 0.750324 -2.497376  -0.502656 1.214919 2.229522
25  4.640942 -0.000001 -0.000010  0.258499 -0.850076 -0.598202
26  10.828039 0.000000 0.000005  -0.011749 -0.633484 -1.200514
27  9.393339 0.000005 0.000002  1.484891 0.060406 0.019716
28  1.442243 0.107456 1.746177  -1.954333 -0.469235 0.696042
29  1.063452 -0.000008 -0.000007  0.000000 0.000000 0.386794
30  1.376307 0.000001 0.000002  -0.000000 -0.000000 0.856476
31  4.172841 -0.251367 1.312749  0.001190 -0.096055 0.052246
32  1.215371 0.000001 -0.000000  -0.000000 -0.000000 0.138143
33  1.215375 0.000000 0.000007  0.000000 0.000000 1.215629
34  4.220530 -0.244856 0.431474  0.001184 -0.026242 0.052329
35  1.350411 -0.000004 -0.000011  -0.000000 -0.000000 1.031432
36  1.350411 -0.000004 0.000006  0.000000 -0.000000 1.602449
37  4.262824 -0.232719 -1.392175  0.001188 0.078478 0.052453
38  2.110538 -0.000002 0.000000  0.088281 -0.041193 -0.185077
39  0.891930 2.373051 -0.014529  -3.141592 -0.000001 1.413797
40  7.228119 5.709445 3.726568  3.140796 -1.570796 0.000000
41  2.450425 5.076126 0.001325  3.140791 -1.570796 0.000000
42  6.312418 -4.528059 0.001311  3.140791 -1.570796 0.000000
43  2.233306 1.152535 -7.309137  -1.069099 -1.577407 -0.942276
44  3.061500 2.842763 2.243589  0.000000 -0.000000 1.570796
time 9
0  1.235377 6.462361 38.321568  -0.023968 -0.005013 -1.763364
1  -0.136396 1.031281 -0.000002  -0.000030 -1.545085 -1.570772
2  -0.000009 0.000008 4.427392  -0.226799 3.117703 -0.044943
3  18.465942 0.000000 -0.000000  0.000000 -0.000000 -0.464442
4  14.875443 0.000000 -0.000000  -0.018720 0.038146 0.402347
5  0.000001 -0.000003 -4.427393  0.174159 3.088259 -0.360178
6  18.465944 -0.000001 -0.000000  -0.000000 0.000000 -0.298636
7  14.875443 -0.000000 -0.000000  -0.159752 -0.015244 -0.070378
8  2.255209 -0.007574 0.054692  -0.075908 0.066497 0.015917
9  9.514220 -0.009357 0.000000  -0.007616 0.015012 -0.065226
10  11.752196 -0.001487 -0.000000  0.027265 -0.073814 0.422910
11  -1.818810 0.902659 2.766922  1.455327 -1.372610 1.273468
12  4.640939 0.000000 0.000005  -0.090027 1.208619 -0.293217
13  10.828049 -0.000000 -0.000006  -0.029394 -0.038963 -0.638305
14  9.393346 -0.000005 0.000008  2.645598 -0.128828 0.157429
15  1.442248 0.107448 -1.746176  1.703405 0.555571 0.350945
16  1.063450 -0.000007 -0.000003  -0.000000 -0.000000 0.199056
17  1.376305 -0.000006 0.000000  -0.000000 0.000000 0.199049
18  4.172853 -0.251367 -1.312744  0.008050 0.109118 0.148779
19  1.215379 0.000001 0.000000  0.000000 -0.000000 0.645758
20  1.215370 -0.000002 -0.000003  0.000000 -0.000000 0.623136
21  4.220538 -0.244859 -0.431465  0.001333 0.026242 0.148339
22  1.350415 0.000002 0.000003  -0.000000 0.000000 0.876464
23  1.350408 0.000001 0.000001  -0.000000 0.000000 0.826231
24  -2.205541 0.762044 -2.516907  -0.577637 1.165048 2.163372
25  4.640941 -0.000002 -0.000008  0.432857 -0.783870 -0.727830
26  10.828042 0.000001 0.000007  0.087897 -0.788895 -1.032465
27  9.393341 0.000001 0.000001  1.372263 0.013973 0.027028
28  1.442243 0.107456 1.746175  -1.956879 -0.468280 0.698823
29  1.063452 -0.000007 -0.000003  -0.000000 -0.000000 0.389970
30  1.376306 -0.000007 -0.000000  0.000000 -0.000000 0.863506
31  4.172842 -0.251366 1.312745  0.001190 -0.096055 0.052246
32  1.215371 -0.000001 0.000003  0.000000 -0.000000 0.139276
33  1.215374 -0.000000 0.000002  -0.000000 0.000000 1.225618
34  4.220531 -0.244852 0.431469  0.001184 -0.026242 0.052329
35  1.350410 0.000000 -0.000008  0.000000 -0.000000 1.039909
36  1.350410 -0.000003 0.000003  0.000000 0.000000 1.615568
37  4.262824 -0.232717 -1.392180  0.001188 0.078478 0.052453
38  2.110542 -0.000001 -0.000000  0.114760 -0.056558 -0.186490
39  0.891925 2.373051 -0.014529  -3.141592 -0.000001 1.413797
40  7.228124 5.709446 3.726568  3.140796 -1.570796 0.000000
41  2.450420 5.076126 0.001325  3.140791 -1.570796 0.000000
42  6.312411 -4.528059 0.001311  3.140791 -1.570796 0.000000
43  2.233305 1.152536 -7.309139  -1.182801 -1.560195 -0.829973
44  3.061500 2.842763 2.243589  0.000000 -0.000000 1.570796
time 10
0  1.219751 6.462361 38.305809  -0.018983 -0.005477 -1.773335
1  -0.124677 1.050813 -0.000001  -0.000030 -1.553349 -1.570772
2  -0.000000 0.000009 4.427393  -0.221816 3.118650 -0.045229
3  18.465940 0.000001 -0.000000  -0.000000 -0.000000 -0.469560
4  14.875445 0.000000 0.000000  -0.033688 0.040147 0.407009
5  0.000006 -0.000004 -4.427393  0.168409 3.094381 -0.360365
6  18.465939 -0.000000 -0.000001  -0.000000 0.000000 -0.298045
7  14.875443 -0.000000 -0.000000  -0.162138 -0.015608 -0.071165
8  2.255216 -0.007574 0.039067  -0.097342 0.077652 0.014991
9  9.514212 -0.009357 0.000000  -0.006265 0.014408 -0.065962
10  11.752191 -0.001488 0.000000  0.024856 -0.063807 0.424488
11  -1.842254 0.898757 2.751296  1.397399 -1.378628 1.329282
12  4.640939 0.000001 0.000008  0.104437 1.223430 -0.091531
13  10.828045 -0.000001 -0.000007  -0.021978 -0.048738 -0.640066
14  9.393339 -0.000008 0.000006  2.422716 -0.084954 0.124555
15  1.442242 0.107453 -1.746178  1.701128 0.553429 0.347600
16  1.063446 -0.000003 -0.000010  -0.000000 0.000000 0.199056
17  1.376306 -0.000008 -0.000005  0.000000 -0.000000 0.199049
18  4.172847 -0.251365 -1.312747  0.008050 0.107356 0.148739
19  1.215372 0.000005 0.000000  0.000000 -0.000000 0.645758
20  1.215371 -0.000001 -0.000002  -0.000000 0.000000 0.626117
21  4.220532 -0.244856 -0.431467  0.001333 0.026242 0.148339
22  1.350416 -0.000000 0.000003  -0.000000 0.000000 0.874830
23  1.350409 0.000003 0.000002  -0.000000 -0.000000 0.831173
24  -2.178204 0.769859 -2.536439  -0.566343 1.191981 2.171064
25  4.640942 -0.000002 -0.000005  0.576365 -0.716147 -0.830477
26  10.828047 0.000004 0.000005  0.179001 -0.930985 -0.878819
27  9.393341 0.000001 0.000000  1.268709 -0.028561 0.033440
28  1.442246 0.107457 1.746178  -1.937605 -0.475472 0.678379
29  1.063452 0.000000 -0.000004  0.000000 -0.000000 0.366516
30  1.376308 0.000000 0.000004  0.000000 -0.000000 0.811565
31  4.172845 -0.251364 1.312745  0.001190 -0.096055 0.052246
32  1.215372 0.000002 -0.000003  0.000000 0.000000 0.130882
33  1.215375 0.000002 0.000003  -0.000000 0.000000 1.151880
34  4.220533 -0.244850 0.431469  0.001184 -0.026242 0.052329
35  1.350411 -0.000001 -0.000004  -0.000000 -0.000000 0.977377
36  1.350412 -0.000004 0.000004  0.000000 -0.000000 1.518434
37  4.262826 -0.232716 -1.392176  0.001188 0.078478 0.052453
38  2.110538 -0.000000 -0.000000  0.140571 -0.071532 -0.188609
39  0.891929 2.373050 -0.014529  -3.141592 -0.000001 1.413797
40  7.228116 5.709445 3.726568  3.140796 -1.570796 0.000000
41  2.450416 5.076128 0.001325  3.140791 -1.570796 0.000000
42  6.312408 -4.528059 0.001312  3.140791 -1.570796 0.000000
43  2.233310 1.152536 -7.309138  -1.161900 -1.550642 -0.852377
44  3.061500 2.842763 2.243589  0.000000 -0.000000 1.570796
time 11
0  1.208032 6.462361 38.274296  -0.013902 -0.005848 -1.781005
1  -0.112957 1.066439 0.000002  -0.000030 -1.549569 -1.570772
2  -0.000001 0.000008 4.427392  -0.217218 3.106720 -0.040368
3  18.465939 -0.000000 0.000001  0.000000 -0.000000 -0.461006
4  14.875447 0.000000 -0.000000  -0.046344 0.041680 0.403374
5  0.000005 -0.000004 -4.427392  0.157962 3.087207 -0.370098
6  18.465939 -0.000002 0.000000  0.000000 -0.000000 -0.318393
7  14.875441 -0.000000 -0.000000  -0.162525 -0.015699 -0.060548
8  2.255209 -0.007574 0.046879  -0.117257 0.076081 0.014064
9  9.514224 -0.009357 -0.000000  -0.004502 0.013427 -0.066569
10  11.752190 -0.001488 -0.000001  0.022399 -0.053512 0.426066
11  -1.869596 0.894846 2.731765  1.328229 -1.384596 1.396393
12  4.640939 0.000000 0.000009  0.191296 1.227515 -0.015206
13  10.828053 0.000000 -0.000005  -0.015604 -0.057138 -0.641579
14  9.393339 -0.000007 0.000010  2.228871 -0.047266 0.096443
15  1.442238 0.107455 -1.746177  1.697676 0.550154 0.342530
16  1.063452 -0.000003 -0.000003  0.000000 -0.000000 0.199056
17  1.376306 -0.000006 0.000004  0.000000 0.000000 0.199049
18  4.172843 -0.251364 -1.312746  0.008050 0.104660 0.148739
19  1.215371 0.000004 0.000001  -0.000000 0.000000 0.645758
20  1.215372 -0.000003 0.000000  -0.000000 0.000000 0.630690
21  4.220530 -0.244856 -0.431466  0.001333 0.026242 0.148339
22  1.350415 -0.000000 0.000002  -0.000000 -0.000000 0.872298
23  1.350408 0.000006 0.000000  0.000000 0.000000 0.838769
24  -2.150858 0.777669 -2.559878  -0.602815 1.232440 2.129955
25  4.640939 -0.000003 -0.000022  0.689232 -0.653659 -0.908348
26  10.828049 0.000003 0.000008  0.257294 -1.053093 -0.746778
27  9.393341 0.000007 -0.000000  1.179289 -0.065170 0.038769
28  1.442246 0.107455 1.746169  -1.940878 -0.473898 0.683838
29  1.063451 -0.000004 -0.000003  0.000000 0.000000 0.367835
30  1.376306 0.000000 0.000000  -0.000000 -0.000000 0.820027
31  4.172844 -0.251366 1.312739  0.001394 -0.096055 0.050042
32  1.215371 0.000001 -0.000003  0.000000 -0.000000 0.118208
33  1.215375 0.000001 -0.000000  0.000000 -0.000000 1.155615
34  4.220531 -0.244854 0.431465  0.001232 -0.026242 0.050167
35  1.350408 -0.000000 -0.000005  0.000000 0.000000 0.973264
36  1.350411 -0.000003 0.000005  0.000000 -0.000000 1.523014
37  4.262825 -0.232719 -1.392182  0.000828 0.078478 0.047876
38  2.110534 -0.000002 0.000000  0.164222 -0.085393 -0.190916
39  0.891926 2.373051 -0.014529  -3.141592 -0.000001 1.413797
40  7.228119 5.709445 3.726567  3.140796 -1.570796 0.000000
41  2.450432 5.076127 0.001325  3.140791 -1.570796 0.000000
42  6.312413 -4.528058 0.001311  3.140791 -1.570796 0.000000
43  2.233310 1.152535 -7.309138  -1.175611 -1.560515 -0.840122
44  3.061500 2.842763 2.243589  0.000000 -0.000000 1.570796
time 12
0  1.200219 6.462361 38.258541  -0.008916 -0.006034 -1.786470
1  -0.101239 1.066439 0.000001  -0.000030 -1.540616 -1.570772
2  0.000001 0.000008 4.427393  -0.212619 3.089960 -0.033506
3  18.465940 0.000001 -0.000000  -0.000000 -0.000000 -0.446751
4  14.875446 -0.000003 -0.000001  -0.056690 0.042637 0.395987
5  0.000011 -0.000004 -4.427393  0.145407 3.074866 -0.382920
6  18.465940 -0.000001 -0.000001  -0.000000 -0.000000 -0.345172
7  14.875444 -0.000000 -0.000001  -0.160840 -0.015547 -0.046329
8  2.255215 -0.007574 0.066411  -0.133501 0.068068 0.013237
9  9.514214 -0.009357 0.000000  -0.002664 0.012230 -0.067261
10  11.752192 -0.001488 0.000000  0.019906 -0.042990 0.427683
11  -1.896940 0.890939 2.716139  1.250865 -1.389859 1.471546
12  4.640939 0.000000 0.000003  0.151933 1.231623 -0.083604
13  10.828049 -0.000001 -0.000002  -0.010621 -0.063705 -0.642761
14  9.393341 -0.000002 0.000010  2.075845 -0.017873 0.074472
15  1.442245 0.107448 -1.746178  1.693781 0.546423 0.336783
16  1.063448 -0.000004 -0.000005  0.000000 0.000000 0.199056
17  1.376306 -0.000005 0.000005  0.000000 -0.000000 0.199049
18  4.172846 -0.251367 -1.312745  0.008050 0.101580 0.148699
19  1.215373 0.000000 -0.000000  0.000000 -0.000000 0.645758
20  1.215373 -0.000004 -0.000001  0.000000 -0.000000 0.635876
21  4.220536 -0.244860 -0.431467  0.001333 0.026242 0.148339
22  1.350418 -0.000003 0.000002  -0.000000 0.000000 0.869399
23  1.350408 0.000010 0.000000  -0.000000 -0.000000 0.847427
24  -2.123514 0.785480 -2.579410  -0.659004 1.276289 2.068677
25  4.640936 -0.000003 -0.000014  0.771660 -0.602575 -0.963547
26  10.828038 -0.000000 0.000006  0.318503 -1.148559 -0.643546
27  9.393340 0.000004 -0.000001  1.109111 -0.093826 0.042832
28  1.442243 0.107454 1.746178  -1.951060 -0.469235 0.698771
29  1.063451 -0.000002 -0.000000  0.000000 -0.000000 0.375181
30  1.376307 0.000006 0.000002  0.000000 -0.000000 0.847331
31  4.172844 -0.251367 1.312742  0.001813 -0.096055 0.045634
32  1.215371 -0.000001 -0.000003  -0.000000 -0.000000 0.094580
33  1.215376 0.000000 0.000006  -0.000000 -0.000000 1.177774
34  4.220531 -0.244854 0.431469  0.001352 -0.026242 0.045763
35  1.350410 -0.000001 -0.000001  0.000000 0.000000 0.977629
36  1.350411 -0.000004 -0.000001  0.000000 -0.000000 1.551639
37  4.262824 -0.232720 -1.392175  0.000109 0.078478 0.038682
38  2.110533 -0.000002 0.000000  0.184172 -0.097301 -0.192941
39  0.891921 2.373051 -0.014529  -3.141592 -0.000001 1.413797
40  7.228117 5.709445 3.726568  3.140796 -1.570796 0.000000
41  2.450420 5.076127 0.001325  3.140791 -1.570796 0.000000
42  6.312409 -4.528059 0.001311  3.140791 -1.570796 0.000000
43  2.233314 1.152535 -7.309138  -1.110222 -1.579155 -0.907045
44  3.061500 2.842763 2.243589  0.000000 -0.000000 1.570796
time 13
0  1.200219 6.462361 38.242783  -0.004314 -0.006034 -1.789538
1  -0.089519 1.046907 0.000003  -0.000030 -1.530067 -1.570772
2  -0.000014 0.000008 4.427393  -0.207732 3.072728 -0.026452
3  18.465939 0.000000 0.000000  0.000000 0.000000 -0.430886
4  14.875445 0.000001 -0.000001  -0.064725 0.042957 0.387218
5  0.000004 -0.000005 -4.427393  0.132181 3.061569 -0.395741
6  18.465940 0.000000 0.000001  -0.000000 0.000000 -0.371558
7  14.875443 -0.000000 0.000000  -0.157050 -0.015183 -0.032185
8  2.255206 -0.007575 0.089849  -0.144134 0.056599 0.012509
9  9.514218 -0.009358 0.000001  -0.001013 0.010940 -0.068214
10  11.752195 -0.001488 0.000001  0.017390 -0.032276 0.429301
11  -1.928182 0.887031 2.696608  1.169880 -1.394014 1.550336
12  4.640939 0.000001 0.000004  0.056357 1.232478 -0.211516
13  10.828044 -0.000001 -0.000004  -0.007376 -0.067981 -0.643532
14  9.393338 -0.000002 0.000008  1.975506 0.001211 0.060140
15  1.442244 0.107450 -1.746178  1.690150 0.542878 0.331406
16  1.063448 -0.000003 -0.000005  -0.000000 0.000000 0.199056
17  1.376303 -0.000005 0.000002  0.000000 -0.000000 0.199049
18  4.172847 -0.251366 -1.312747  0.008050 0.098704 0.148699
19  1.215371 0.000006 -0.000002  -0.000000 0.000000 0.645758
20  1.215371 0.000001 0.000001  0.000000 -0.000000 0.640735
21  4.220531 -0.244858 -0.431466  0.001333 0.026242 0.148339
22  1.350417 -0.000005 0.000002  -0.000000 0.000000 0.866703
23  1.350407 -0.000001 0.000000  -0.000000 0.000000 0.855554
24  -2.092263 0.797204 -2.598941  -0.738336 1.317868 1.984836
25  4.640936 -0.000003 -0.000010  0.822902 -0.568418 -0.997143
26  10.828046 -0.000006 0.000008  0.358360 -1.210724 -0.576324
27  9.393347 0.000004 -0.000000  1.063290 -0.112501 0.045433
28  1.442241 0.107454 1.746175  -1.959607 -0.465303 0.710924
29  1.063452 -0.000001 -0.000001  0.000000 0.000000 0.381857
30  1.376307 -0.000002 0.000004  -0.000000 -0.000000 0.870403
31  4.172843 -0.251367 1.312739  0.002137 -0.096043 0.042348
32  1.215370 0.000000 -0.000000  -0.000000 0.000000 0.077247
33  1.215373 0.000001 0.000002  0.000000 0.000000 1.198045
34  4.220531 -0.244854 0.431463  0.001436 -0.026230 0.042480
35  1.350409 -0.000002 0.000004  0.000000 0.000000 0.984008
36  1.350411 -0.000005 0.000004  0.000000 -0.000000 1.577974
37  4.262824 -0.232720 -1.392182  -0.000430 0.078478 0.031757
38  2.110540 -0.000001 0.000000  0.198928 -0.106562 -0.194165
39  0.891925 2.373052 -0.014529  -3.141592 -0.000001 1.413797
40  7.228124 5.709445 3.726568  3.140796 -1.570796 0.000000
41  2.450420 5.076127 0.001326  3.140791 -1.570796 0.000000
42  6.312409 -4.528058 0.001312  3.140791 -1.570796 0.000000
43  2.233306 1.152535 -7.309138  -1.132178 -1.594242 -0.887226
44  3.061500 2.842763 2.243589  0.000000 -0.000000 1.570796
time 14
0  1.727579 6.791367 38.337322  0.000000 -0.000000 -1.701715
1  0.164394 -0.125004 0.000004  -1.570796 -1.570451 0.000001
2  -0.000004 0.000008 4.427392  -0.170749 3.130202 0.000903
3  18.465937 0.000001 -0.000000  -0.000000 -0.000000 -0.416557
4  14.875441 0.000000 0.000001  -0.011325 0.016501 0.401083
5  0.000004 -0.000004 -4.427393  0.106016 3.095625 -0.362237
6  18.465937 0.000001 0.000000  -0.000000 0.000000 -0.394334
7  14.875443 -0.000000 -0.000000  -0.031896 0.004582 0.028706
8  2.255205 -0.007575 0.000003  0.122101 -0.017401 -0.001322
9  9.514218 -0.009358 0.000000  -0.008779 0.002352 -0.095902
10  11.752193 -0.001491 0.000000  0.000024 0.043599 0.440031
11  -2.111796 0.863600 2.563792  0.697216 -1.395374 2.006326
12  4.640937 -0.000000 0.000010  0.003415 1.230668 -0.279847
13  10.828049 -0.000001 -0.000006  -0.006218 -0.069509 -0.643807
14  9.393338 -0.000002 0.000010  1.939538 0.008013 0.055012
15  1.442241 0.107456 -1.746177  1.686435 0.539209 0.325885
16  1.063452 0.000001 0.000002  0.000000 -0.000000 0.199056
17  1.376309 0.000000 0.000002  0.000000 -0.000000 0.199049
18  4.172843 -0.251359 -1.312745  0.008050 0.095731 0.148659
19  1.215375 0.000002 -0.000002  -0.000000 0.000000 0.645758
20  1.215373 -0.000005 -0.000001  0.000000 -0.000000 0.645758
21  4.220529 -0.244855 -0.431465  0.001333 0.026242 0.148339
22  1.350415 -0.000002 -0.000001  -0.000000 0.000000 0.863926
23  1.350410 0.000002 0.000000  0.000000 -0.000000 0.863926
24  -1.885221 0.863610 -2.731757  -0.942449 1.461427 1.764337
25  4.640936 -0.000003 -0.000014  0.840773 -0.556066 -1.008731
26  10.828044 -0.000002 0.000013  0.372594 -1.232925 -0.552316
27  9.393343 0.000007 0.000000  1.046902 -0.119173 0.046355
28  1.442243 0.107454 1.746191  -1.686405 -0.539236 0.325898
29  1.063451 0.000002 -0.000000  0.000000 -0.000000 0.199056
30  1.376306 0.000008 0.000000  0.000000 0.000000 0.199059
31  4.172848 -0.251365 1.312755  -0.008050 -0.095731 0.148659
32  1.215374 0.000002 -0.000002  -0.000000 -0.000000 0.645746
33  1.215373 -0.000001 0.000003  0.000000 -0.000000 0.645746
34  4.220536 -0.244852 0.431468  -0.001333 -0.026242 0.148339
35  1.350421 -0.000000 -0.000008  -0.000000 -0.000000 0.863937
36  1.350412 -0.000002 0.000001  0.000000 -0.000000 0.863925
37  4.262824 -0.232721 -1.392163  0.016840 0.076668 0.253759
38  2.110543 -0.000001 -0.000000  0.002417 -0.010493 -0.153718
39  0.891910 2.373055 -0.014527  -3.141592 -0.000001 1.413797
40  7.228116 5.709445 3.726568  3.140796 -1.570796 0.000000
41  2.450423 5.076127 0.001325  3.140791 -1.570796 0.000000
42  6.312402 -4.528059 0.001311  3.140791 -1.570796 0.000000
43  2.233316 1.152534 -7.309138  -1.140138 -1.553350 -0.884449
44  3.061500 2.842763 2.243589  0.000000 -0.000000 1.570796
end
