version 1
nodes
0 "Bip01" -1
1 "Bip01 Pelvis" 0
2 "Bip01 L Thigh" 1
3 "Bip01 L Calf" 2
4 "Bip01 L Foot" 3
5 "Bip01 R Thigh" 1
6 "Bip01 R Calf" 5
7 "Bip01 R Foot" 6
8 "Bip01 Spine" 1
9 "Bip01 Spine1" 8
10 "Bip01 Neck" 9
11 "Bip01 L Clavicle" 10
12 "Bip01 L UpperArm" 11
13 "Bip01 L Forearm" 12
14 "Bip01 L Hand" 13
15 "Bip01 L Finger0" 14
16 "Bip01 L Finger01" 15
17 "Bip01 L Finger02" 16
18 "Bip01 L Finger1" 14
19 "Bip01 L Finger11" 18
20 "Bip01 L Finger12" 19
21 "Bip01 L Finger2" 14
22 "Bip01 L Finger21" 21
23 "Bip01 L Finger22" 22
24 "Bip01 R Clavicle" 10
25 "Bip01 R UpperArm" 24
26 "Bip01 R Forearm" 25
27 "Bip01 R Hand" 26
28 "Bip01 R Finger0" 27
29 "Bip01 R Finger01" 28
30 "Bip01 R Finger02" 29
31 "Bip01 R Finger1" 27
32 "Bip01 R Finger11" 31
33 "Bip01 R Finger12" 32
34 "Bip01 R Finger2" 27
35 "Bip01 R Finger21" 34
36 "Bip01 R Finger22" 35
37 "Bip01 R Finger4" 27
38 "Bip01 Head" 10
39 "Bone05" 38
40 "Bone08" 9
41 "Bone16" 8
42 "Bone01" 8
43 "Bone03" 1
44 "Box01" -1
end
skeleton
time 0
0  1.727579 6.791367 38.337322  0.000000 -0.000000 -1.701715
1  0.164394 -0.125004 0.000004  -1.570796 -1.570451 0.000001
2  -0.000004 0.000008 4.427392  -0.170749 3.130202 0.000903
3  18.465937 0.000001 -0.000000  -0.000000 -0.000000 -0.416557
4  14.875441 0.000000 0.000001  -0.011325 0.016501 0.401083
5  0.000004 -0.000004 -4.427393  0.106016 3.095625 -0.362237
6  18.465937 0.000001 0.000000  -0.000000 0.000000 -0.394334
7  14.875443 -0.000000 -0.000000  -0.031896 0.004582 0.028706
8  2.255205 -0.007575 0.000003  0.122101 -0.017401 -0.001322
9  9.514218 -0.009358 0.000000  -0.008779 0.002352 -0.095902
10  11.752193 -0.001491 0.000000  0.000024 0.043599 0.440031
11  -2.111796 0.863600 2.563792  0.697216 -1.395374 2.006326
12  4.640937 -0.000000 0.000010  -0.158619 1.196395 -0.501586
13  10.828054 -0.000000 -0.000008  0.079586 -0.028138 -0.715082
14  9.393339 -0.000009 0.000009  1.939538 0.008013 0.055012
15  1.442242 0.107458 -1.746176  1.686435 0.539209 0.325885
16  1.063452 0.000001 0.000001  0.000000 -0.000000 0.199056
17  1.376308 0.000001 -0.000004  0.000000 -0.000000 0.199049
18  4.172849 -0.251361 -1.312745  0.008050 0.095731 0.148659
19  1.215376 0.000004 0.000001  -0.000000 0.000000 0.645758
20  1.215371 -0.000001 -0.000002  0.000000 -0.000000 0.645758
21  4.220532 -0.244856 -0.431466  0.001333 0.026242 0.148339
22  1.350416 0.000001 0.000001  0.000000 0.000000 0.863926
23  1.350410 0.000003 -0.000001  0.000000 0.000000 0.863926
24  -1.885221 0.863610 -2.731757  -0.942449 1.461427 1.764337
25  4.640936 -0.000003 -0.000014  0.840773 -0.556066 -1.008731
26  10.828044 -0.000002 0.000013  0.372594 -1.232925 -0.552316
27  9.393343 0.000007 0.000000  1.046902 -0.119173 0.046355
28  1.442243 0.107454 1.746191  -1.686405 -0.539236 0.325898
29  1.063451 0.000002 -0.000000  0.000000 -0.000000 0.199056
30  1.376306 0.000008 0.000000  0.000000 0.000000 0.199059
31  4.172848 -0.251365 1.312755  -0.008050 -0.095731 0.148659
32  1.215374 0.000002 -0.000002  -0.000000 -0.000000 0.645746
33  1.215373 -0.000001 0.000003  0.000000 -0.000000 0.645746
34  4.220536 -0.244852 0.431468  -0.001333 -0.026242 0.148339
35  1.350421 -0.000000 -0.000008  -0.000000 -0.000000 0.863937
36  1.350412 -0.000002 0.000001  0.000000 -0.000000 0.863925
37  4.262824 -0.232721 -1.392163  0.016840 0.076668 0.253759
38  2.110543 -0.000001 -0.000000  0.002417 -0.010493 -0.153718
39  0.891910 2.373055 -0.014527  -3.141592 -0.000001 1.413797
40  7.228116 5.709445 3.726568  3.140796 -1.570796 0.000000
41  2.450423 5.076127 0.001325  3.140791 -1.570796 0.000000
42  6.312402 -4.528059 0.001311  3.140791 -1.570796 0.000000
43  2.233316 1.152534 -7.309138  -1.140138 -1.553350 -0.884449
44  3.061500 2.842763 2.243589  0.000000 -0.000000 1.570796
time 1
0  0.965837 6.577957 38.400349  -0.002397 0.003156 -1.706605
1  0.148768 0.109378 0.000001  -0.000030 -1.543835 -1.570772
2  0.000000 0.000008 4.427392  -0.166725 3.114863 0.034263
3  18.465937 0.000001 -0.000000  -0.000000 0.000000 -0.351784
4  14.875443 0.000000 0.000000  -0.019147 0.001219 0.370824
5  0.000007 -0.000004 -4.427393  0.100266 3.086633 -0.372344
6  18.465940 -0.000001 0.000001  -0.000000 0.000000 -0.426758
7  14.875443 -0.000000 -0.000001  -0.034704 -0.010090 0.056207
8  2.255207 -0.007575 0.058599  0.101680 -0.026494 0.003013
9  9.514222 -0.009357 0.000000  -0.010730 0.015537 -0.104215
10  11.752192 -0.001491 -0.000000  0.052013 0.032945 0.202656
11  -2.232889 0.500306 2.555980  0.690261 -1.358407 2.255048
12  4.640938 0.000000 0.000005  -0.105470 1.206164 -0.444797
13  10.828055 -0.000002 -0.000005  0.078392 -0.027896 -0.715004
14  9.393337 -0.000005 0.000009  1.970344 0.002422 0.058311
15  1.442244 0.107455 -1.746177  1.686435 0.539209 0.325885
16  1.063453 -0.000001 0.000002  0.000000 -0.000000 0.199056
17  1.376311 0.000001 -0.000000  -0.000000 -0.000000 0.199049
18  4.172849 -0.251362 -1.312745  0.008050 0.095731 0.148659
19  1.215374 0.000002 0.000002  -0.000000 0.000000 0.645758
20  1.215371 0.000004 -0.000001  -0.000000 0.000000 0.645758
21  4.220530 -0.244856 -0.431464  0.001333 0.026242 0.148339
22  1.350415 -0.000001 0.000000  0.000000 0.000000 0.863926
23  1.350410 0.000005 -0.000000  -0.000000 -0.000000 0.863926
24  -2.057113 0.226871 -2.731757  -0.838772 1.410255 2.112691
25  4.640936 -0.000003 -0.000011  0.788082 -0.531897 -0.950555
26  10.828043 0.000002 0.000008  0.422707 -1.231197 -0.662615
27  9.393341 0.000006 -0.000001  1.049782 -0.116249 0.046204
28  1.442244 0.107454 1.746181  -1.689496 -0.538618 0.331974
29  1.063451 0.000001 0.000001  0.000000 -0.000000 0.193735
30  1.376306 0.000012 0.000001  0.000000 0.000000 0.179601
31  4.172848 -0.251364 1.312744  -0.008338 -0.095707 0.151705
32  1.215373 0.000001 0.000002  -0.000000 -0.000000 0.662113
33  1.215372 -0.000000 0.000004  0.000000 -0.000000 0.629672
34  4.220532 -0.244854 0.431464  -0.001417 -0.026230 0.151381
35  1.350415 -0.000002 -0.000003  0.000000 -0.000000 0.860328
36  1.350408 0.000001 0.000001  0.000000 0.000000 0.843124
37  4.262823 -0.232721 -1.392175  0.017319 0.076560 0.260127
38  2.110539 -0.000002 -0.000000  -0.016916 -0.030759 0.059113
39  0.891907 2.373053 -0.014527  -3.141592 -0.000001 1.413797
40  7.228117 5.709446 3.726567  3.140796 -1.570796 0.000000
41  2.450431 5.076128 0.001325  3.140791 -1.570796 0.000000
42  6.312406 -4.528059 0.001311  3.140791 -1.570796 0.000000
43  2.233320 1.152534 -7.309138  -1.237926 -1.563165 -0.805849
44  3.061500 2.842763 2.243589  0.000000 -0.000000 1.570796
time 2
0  0.200189 6.373439 38.463379  -0.004890 0.006405 -1.712549
1  0.125331 0.363292 0.000007  -0.000030 -1.517822 -1.570772
2  -0.000004 0.000008 4.427392  -0.161551 3.098766 0.075820
3  18.465944 0.000001 0.000000  -0.000000 -0.000000 -0.269246
4  14.875442 0.000003 0.000001  -0.028106 -0.013361 0.331123
5  0.000008 -0.000004 -4.427393  0.094419 3.078788 -0.379550
6  18.465937 -0.000000 0.000000  -0.000000 -0.000000 -0.453013
7  14.875443 -0.000000 -0.000001  -0.038459 -0.024550 0.080256
8  2.255209 -0.007574 0.117194  0.081723 -0.033937 0.008770
9  9.514230 -0.009358 -0.000000  -0.013206 0.029245 -0.114758
10  11.752196 -0.001491 -0.000000  0.120086 -0.037705 0.594008
11  -1.748499 1.472991 2.559887  0.816787 -1.316908 1.739510
12  4.640938 0.000000 0.000009  0.020098 1.224731 -0.311298
13  10.828049 -0.000000 -0.000007  0.074498 -0.026756 -0.714459
14  9.393336 -0.000001 0.000008  2.057536 -0.013741 0.068932
15  1.442246 0.107459 -1.746175  1.686435 0.539209 0.325885
16  1.063452 -0.000000 -0.000002  0.000000 -0.000000 0.199056
17  1.376310 -0.000002 0.000000  -0.000000 -0.000000 0.199049
18  4.172847 -0.251356 -1.312743  0.008050 0.095731 0.148659
19  1.215375 0.000004 0.000000  -0.000000 0.000000 0.645758
20  1.215371 -0.000004 -0.000002  0.000000 -0.000000 0.645758
21  4.220532 -0.244853 -0.431465  0.001333 0.026242 0.148339
22  1.350415 -0.000001 0.000002  0.000000 0.000000 0.863926
23  1.350409 -0.000001 0.000000  -0.000000 -0.000000 0.863926
24  -1.947724 0.844076 -2.696598  -0.708714 1.359901 1.854075
25  4.640937 -0.000003 -0.000008  0.664016 -0.478780 -0.822134
26  10.828045 -0.000001 0.000009  0.532958 -1.219096 -0.915459
27  9.393343 0.000004 0.000000  1.071004 -0.104687 0.045020
28  1.442244 0.107454 1.746183  -1.692678 -0.538000 0.338051
29  1.063451 0.000001 -0.000001  -0.000000 -0.000000 0.188425
30  1.376307 0.000009 0.000001  -0.000000 0.000000 0.160165
31  4.172847 -0.251366 1.312750  -0.008625 -0.095683 0.154790
32  1.215377 0.000003 0.000005  0.000000 -0.000000 0.678439
33  1.215372 -0.000002 0.000007  0.000000 0.000000 0.613598
34  4.220531 -0.244854 0.431467  -0.001489 -0.026230 0.154424
35  1.350418 0.000001 -0.000008  -0.000000 -0.000000 0.856719
36  1.350406 0.000001 0.000002  -0.000000 0.000000 0.822371
37  4.262825 -0.232721 -1.392176  0.017811 0.076453 0.266534
38  2.110547 -0.000004 0.000001  -0.033832 -0.032744 -0.155695
39  0.891909 2.373052 -0.014527  -3.141592 -0.000001 1.413797
40  7.228119 5.709445 3.726568  3.140796 -1.570796 0.000000
41  2.450439 5.076127 0.001325  3.140791 -1.570796 0.000000
42  6.312408 -4.528059 0.001311  3.140791 -1.570796 0.000000
43  2.233318 1.152535 -7.309137  -0.614271 -1.573388 -1.448646
44  3.061500 2.842763 2.243589  0.000000 -0.000000 1.570796
time 3
0  -0.295920 6.453469 38.463379  -0.007382 0.009561 -1.719164
1  0.117516 0.605487 -0.000000  -0.000030 -1.491321 -1.570772
2  -0.000014 0.000009 4.427393  -0.157719 3.078125 0.093358
3  18.465940 0.000001 0.000000  0.000000 -0.000000 -0.221507
4  14.875439 0.000002 0.000000  -0.036141 -0.019895 0.303154
5  0.000003 -0.000004 -4.427393  0.086273 3.064343 -0.396864
6  18.465935 -0.000000 0.000001  0.000000 0.000000 -0.479268
7  14.875441 -0.000000 -0.000001  -0.043689 -0.033584 0.093724
8  2.251297 -0.007574 0.175790  0.061302 -0.042048 0.013270
9  9.514226 -0.009358 -0.000000  -0.015607 0.042659 -0.124240
10  11.752195 -0.001491 -0.000000  0.175562 -0.090233 0.670503
11  -1.510214 1.762062 2.528636  0.959225 -1.260979 1.519988
12  4.640939 0.000000 0.000006  0.156187 1.239692 -0.167328
13  10.828048 -0.000001 -0.000006  0.067433 -0.024098 -0.712978
14  9.393340 -0.000003 0.000005  2.192901 -0.039583 0.087962
15  1.442240 0.107461 -1.746174  1.687753 0.540526 0.327855
16  1.063452 -0.000000 0.000005  -0.000000 -0.000000 0.199056
17  1.376313 -0.000001 -0.000005  0.000000 -0.000000 0.199049
18  4.172846 -0.251358 -1.312746  0.008050 0.096774 0.148659
19  1.215381 0.000002 -0.000002  -0.000000 0.000000 0.645758
20  1.215371 0.000001 -0.000001  -0.000000 -0.000000 0.643961
21  4.220527 -0.244851 -0.431466  0.001333 0.026242 0.148339
22  1.350418 -0.000005 0.000001  0.000000 -0.000000 0.864906
23  1.350409 -0.000005 0.000000  -0.000000 0.000000 0.860945
24  -1.982883 0.844074 -2.665347  -0.578748 1.348643 1.903388
25  4.640935 -0.000003 -0.000018  0.511621 -0.429839 -0.685455
26  10.828047 0.000007 0.000009  0.643209 -1.186249 -1.193767
27  9.393344 0.000005 -0.000000  1.129340 -0.080312 0.041680
28  1.442242 0.107453 1.746180  -1.686405 -0.539236 0.325898
29  1.063451 0.000001 0.000002  -0.000000 0.000000 0.199056
30  1.376308 0.000012 0.000001  0.000000 -0.000000 0.199059
31  4.172848 -0.251366 1.312744  -0.008050 -0.095731 0.148659
32  1.215373 -0.000002 0.000001  -0.000000 -0.000000 0.645746
33  1.215373 -0.000001 0.000006  0.000000 0.000000 0.645746
34  4.220532 -0.244855 0.431465  -0.001333 -0.026242 0.148339
35  1.350415 -0.000004 -0.000003  -0.000000 0.000000 0.863937
36  1.350411 -0.000001 0.000003  0.000000 -0.000000 0.863925
37  4.262825 -0.232722 -1.392173  0.016840 0.076668 0.253759
38  2.110541 -0.000003 0.000000  -0.050388 -0.043478 -0.246337
39  0.891910 2.373050 -0.014527  -3.141592 -0.000001 1.413797
40  7.228113 5.709445 3.726567  3.140796 -1.570796 0.000000
41  2.450429 5.076128 0.001325  3.140791 -1.570796 0.000000
42  6.312409 -4.528059 0.001311  3.140791 -1.570796 0.000000
43  2.233309 1.152535 -7.309138  -1.030363 -1.586844 -1.053623
44  3.061500 2.842763 2.243589  0.000000 -0.000000 1.570796
time 4
0  -0.467800 7.049236 38.337322  -0.009971 0.012717 -1.726259
1  0.129236 0.832057 -0.000000  -0.000030 -1.462937 -1.570772
2  -0.000014 0.000008 4.427392  -0.159348 3.055873 0.053135
3  18.465937 0.000001 -0.000001  -0.000000 0.000000 -0.271951
4  14.875438 0.000002 0.000001  -0.042682 -0.017660 0.316348
5  0.000001 -0.000004 -4.427393  0.073718 3.042437 -0.433269
6  18.465939 0.000001 -0.000000  0.000000 -0.000000 -0.510248
7  14.875442 -0.000000 0.000001  -0.050111 -0.037797 0.092749
8  2.243482 -0.007575 0.242198  0.039699 -0.053321 0.013998
9  9.514224 -0.009358 -0.000000  -0.017220 0.054956 -0.129306
10  11.752203 -0.001490 -0.000001  0.230907 -0.137416 0.685099
11  -1.357851 1.937845 2.485665  1.067268 -1.201047 1.394191
12  4.640939 0.000000 0.000000  0.219782 1.249576 -0.100200
13  10.828056 -0.000000 -0.000005  0.056726 -0.019301 -0.710094
14  9.393341 -0.000004 0.000008  2.367702 -0.074210 0.116538
15  1.442232 0.107460 -1.746175  1.691073 0.543789 0.332781
16  1.063449 -0.000000 -0.000005  0.000000 0.000000 0.199056
17  1.376309 0.000001 -0.000005  -0.000000 -0.000000 0.199049
18  4.172839 -0.251360 -1.312744  0.008050 0.099435 0.148699
19  1.215376 0.000005 -0.000000  -0.000000 0.000000 0.645758
20  1.215371 0.000001 -0.000002  0.000000 0.000000 0.639469
21  4.220524 -0.244856 -0.431465  0.001333 0.026242 0.148339
22  1.350415 0.000001 0.000003  0.000000 -0.000000 0.867398
23  1.350408 -0.000005 -0.000001  0.000000 0.000000 0.853471
24  -2.076627 0.742509 -2.626285  -0.293454 1.374789 2.159526
25  4.640938 -0.000003 -0.000009  0.360388 -0.430743 -0.584334
26  10.828043 0.000003 0.000010  0.693324 -1.122284 -1.380459
27  9.393341 0.000001 0.000000  1.243271 -0.038986 0.034975
28  1.442242 0.107452 1.746179  -1.666858 -0.542719 0.287895
29  1.063451 -0.000005 -0.000001  -0.000000 0.000000 0.232133
30  1.376305 0.000009 -0.000001  -0.000000 0.000000 0.320040
31  4.172842 -0.251367 1.312747  -0.006228 -0.095863 0.129625
32  1.215371 0.000000 0.000007  0.000000 -0.000000 0.544057
33  1.215374 -0.000001 0.000002  -0.000000 0.000000 0.745756
34  4.220530 -0.244854 0.431464  -0.000829 -0.026254 0.129361
35  1.350415 -0.000000 -0.000006  0.000000 -0.000000 0.886348
36  1.350404 0.000000 0.000004  0.000000 -0.000000 0.993214
37  4.262821 -0.232723 -1.392174  0.013772 0.077280 0.213999
38  2.110552 -0.000007 0.000000  -0.063961 -0.055566 -0.310940
39  0.891914 2.373052 -0.014527  -3.141592 -0.000001 1.413797
40  7.228124 5.709446 3.726567  3.140796 -1.570796 0.000000
41  2.450429 5.076127 0.001325  3.140791 -1.570796 0.000000
42  6.312409 -4.528059 0.001311  3.140791 -1.570796 0.000000
43  2.233310 1.152535 -7.309138  -1.085584 -1.606066 -1.019539
44  3.061500 2.842763 2.243589  0.000000 -0.000000 1.570796
time 5
0  -0.471707 7.920658 38.163998  -0.012464 0.015780 -1.733546
1  0.183924 1.019562 -0.000005  -0.000030 -1.431248 -1.570772
2  -0.000007 0.000009 4.427393  -0.165384 3.029835 -0.005292
3  18.465935 0.000001 -0.000000  0.000000 0.000000 -0.345643
4  14.875439 0.000003 0.000001  -0.048833 -0.012041 0.335192
5  -0.000002 -0.000003 -4.427394  0.056562 3.016608 -0.479220
6  18.465939 0.000000 0.000001  0.000000 0.000000 -0.541622
7  14.875442 -0.000000 0.000000  -0.056850 -0.040677 0.083107
8  2.235668 -0.007574 0.312513  0.016493 -0.070289 0.008373
9  9.514234 -0.009358 -0.000000  -0.017258 0.065359 -0.126578
10  11.752201 -0.001491 0.000001  0.268479 -0.180669 0.683048
11  -1.232860 2.043322 2.466135  1.159304 -1.155947 1.299604
12  4.640939 0.000000 0.000010  0.095506 1.258756 -0.238374
13  10.828052 -0.000001 -0.000004  0.042334 -0.012206 -0.703045
14  9.393336 -0.000007 0.000007  2.572033 -0.116155 0.154354
15  1.442243 0.107457 -1.746175  1.695423 0.547999 0.339205
16  1.063451 0.000002 0.000003  0.000000 0.000000 0.199056
17  1.376309 -0.000002 0.000003  -0.000000 -0.000000 0.199049
18  4.172849 -0.251361 -1.312745  0.008050 0.102874 0.148739
19  1.215377 0.000003 -0.000001  -0.000000 0.000000 0.645758
20  1.215371 -0.000004 -0.000001  0.000000 0.000000 0.633671
21  4.220531 -0.244857 -0.431465  0.001333 0.026242 0.148339
22  1.350416 -0.000006 0.000002  0.000000 -0.000000 0.870624
23  1.350408 -0.000002 -0.000002  -0.000000 0.000000 0.843792
24  -2.182107 0.664387 -2.563783  0.101905 1.383928 2.538220
25  4.640940 -0.000003 -0.000007  0.215977 -0.476297 -0.505002
26  10.828054 0.000001 0.000010  0.497047 -0.983076 -1.448994
27  9.393338 -0.000004 -0.000000  1.458692 0.020859 0.000673
28  1.442241 0.107455 1.746181  -1.639856 -0.546371 0.235782
29  1.063451 0.000003 0.000001  0.000000 -0.000000 0.277303
30  1.376307 0.000009 -0.000002  -0.000000 -0.000000 0.485248
31  4.172844 -0.251366 1.312750  -0.003736 -0.095995 0.103618
32  1.215376 -0.000001 0.000007  -0.000000 -0.000000 0.405185
33  1.215375 0.000000 -0.000002  0.000000 -0.000000 0.882236
34  4.220530 -0.244853 0.431466  -0.000158 -0.026266 0.103457
35  1.350414 -0.000002 0.000001  -0.000000 -0.000000 0.916943
36  1.350409 0.000000 0.000003  0.000000 0.000000 1.169735
37  4.262821 -0.232722 -1.392169  0.009565 0.077903 0.159673
38  2.110543 -0.000002 0.000001  -0.071622 -0.059294 -0.347432
39  0.891912 2.373053 -0.014527  -3.141592 -0.000001 1.413797
40  7.228117 5.709446 3.726568  3.140796 -1.570796 0.000000
41  2.450434 5.076126 0.001325  3.140791 -1.570796 0.000000
42  6.312413 -4.528059 0.001310  3.140791 -1.570796 0.000000
43  2.233309 1.152536 -7.309138  -1.117894 -1.637929 -1.020305
44  3.061500 2.842763 2.243589  0.000000 -0.000000 1.570796
time 6
0  -0.358422 8.729835 38.006432  -0.015052 0.018936 -1.740545
1  0.437838 1.058626 0.000004  -0.000030 -1.367854 -1.570772
2  -0.000006 0.000008 4.427392  -0.168545 2.968099 -0.021305
3  18.465940 0.000001 -0.000001  -0.000000 0.000000 -0.338040
4  14.875439 -0.000000 0.000001  -0.055908 -0.009168 0.315203
5  0.000010 -0.000005 -4.427393  0.018321 2.964281 -0.535279
6  18.465935 0.000002 -0.000000  -0.000000 0.000000 -0.602796
7  14.875442 -0.000000 0.000000  -0.062184 -0.042557 0.096388
8  2.212243 -0.007574 0.453142  -0.019708 -0.129069 -0.029479
9  9.514227 -0.009359 -0.000000  -0.009867 0.067859 -0.087026
10  11.752199 -0.001491 0.000001  0.285401 -0.234695 0.687072
11  -1.068796 2.109725 2.489571  1.268586 -1.122077 1.180413
12  4.640938 0.000000 0.000005  -0.198844 1.244802 -0.567976
13  10.828053 -0.000000 -0.000005  0.025916 -0.004491 -0.692398
14  9.393336 0.000000 0.000007  2.793743 -0.161894 0.194906
15  1.442240 0.107454 -1.746177  1.699810 0.552185 0.345670
16  1.063451 0.000000 0.000002  0.000000 0.000000 0.199056
17  1.376310 -0.000000 0.000003  -0.000000 -0.000000 0.199049
18  4.172846 -0.251363 -1.312746  0.008050 0.106326 0.148739
19  1.215374 0.000002 -0.000002  -0.000000 0.000000 0.645758
20  1.215372 -0.000001 0.000001  -0.000000 0.000000 0.627832
21  4.220532 -0.244861 -0.431466  0.001333 0.026242 0.148339
22  1.350418 -0.000005 0.000001  0.000000 -0.000000 0.873850
23  1.350410 -0.000001 -0.000002  0.000000 0.000000 0.834072
24  -2.299299 0.660474 -2.462218  0.444778 1.350610 2.855807
25  4.640940 -0.000001 -0.000005  0.067555 -0.524456 -0.415488
26  10.828051 0.000000 0.000001  0.063682 -0.762541 -1.472682
27  9.393341 -0.000003 0.000003  1.736869 0.090205 -0.064036
28  1.442242 0.107452 1.746183  -1.610945 -0.548955 0.180271
29  1.063451 -0.000002 0.000003  0.000000 0.000000 0.325205
30  1.376306 0.000008 0.000001  -0.000000 0.000000 0.660483
31  4.172845 -0.251366 1.312749  -0.001087 -0.096055 0.076009
32  1.215374 0.000001 -0.000005  0.000000 0.000000 0.257877
33  1.215374 0.000000 -0.000005  0.000000 -0.000000 1.027067
34  4.220531 -0.244853 0.431463  0.000573 -0.026254 0.075991
35  1.350413 -0.000002 -0.000000  -0.000000 -0.000000 0.949384
36  1.350406 -0.000000 0.000004  -0.000000 -0.000000 1.356990
37  4.262823 -0.232722 -1.392174  0.005071 0.078334 0.102083
38  2.110543 -0.000007 -0.000000  -0.066841 -0.036863 -0.373847
39  0.891916 2.373053 -0.014527  -3.141592 -0.000001 1.413797
40  7.228120 5.709445 3.726569  3.140796 -1.570796 0.000000
41  2.450426 5.076127 0.001325  3.140791 -1.570796 0.000000
42  6.312410 -4.528060 0.001311  3.140791 -1.570796 0.000000
43  2.233313 1.152534 -7.309139  -1.161037 -1.707887 -1.050847
44  3.061500 2.842763 2.243589  0.000000 -0.000000 1.570796
time 7
0  -0.167010 9.112194 37.959160  -0.017641 0.022000 -1.747064
1  0.633155 1.023469 0.000004  -0.000030 -1.309132 -1.570772
2  -0.000009 0.000008 4.427393  -0.166054 2.905796 -0.003386
3  18.465939 0.000001 -0.000000  -0.000000 0.000000 -0.276630
4  14.875441 0.000000 0.000001  -0.061987 -0.006571 0.275304
5  -0.000004 -0.000005 -4.427393  -0.020399 2.915971 -0.575614
6  18.465937 0.000000 -0.000000  -0.000000 -0.000000 -0.649266
7  14.875440 0.000000 -0.000000  -0.067624 -0.040799 0.112296
8  2.180974 -0.007574 0.582052  -0.037218 -0.189812 -0.065280
9  9.514220 -0.009358 -0.000000  -0.000413 0.065964 -0.041392
10  11.752191 -0.001492 0.000000  0.293359 -0.294283 0.684902
11  -0.893005 2.140980 2.528635  1.384727 -1.088686 1.060265
12  4.640939 -0.000001 0.000007  -0.487378 1.184130 -0.902995
13  10.828058 -0.000000 -0.000003  0.009558 0.001706 -0.682687
14  9.393340 -0.000005 0.000010  3.021850 -0.207476 0.229984
15  1.442244 0.107452 -1.746176  1.703225 0.555399 0.350678
16  1.063450 0.000001 0.000001  -0.000000 0.000000 0.199056
17  1.376310 -0.000001 -0.000002  -0.000000 -0.000000 0.199049
18  4.172849 -0.251365 -1.312745  0.008050 0.108974 0.148779
19  1.215376 0.000005 -0.000002  -0.000000 0.000000 0.645758
20  1.215373 0.000001 0.000000  -0.000000 0.000000 0.623381
21  4.220533 -0.244862 -0.431465  0.001333 0.026242 0.148339
22  1.350417 -0.000005 0.000002  0.000000 0.000000 0.876341
23  1.350411 -0.000001 -0.000000  0.000000 0.000000 0.826640
24  -2.424302 0.680010 -2.329401  -2.535839 1.850930 -0.143830
25  4.640938 -0.000002 -0.000005  -0.084101 -0.576225 -0.318116
26  10.828046 0.000000 0.000006  -0.373562 -0.507362 -1.484210
27  9.393340 0.000001 0.000000  1.975804 0.157942 -0.128392
28  1.442242 0.107456 1.746186  -1.585943 -0.550079 0.132381
29  1.063450 0.000001 0.000004  0.000000 0.000000 0.366516
30  1.376307 0.000009 -0.000002  -0.000000 0.000000 0.811565
31  4.172847 -0.251360 1.312746  0.001190 -0.096055 0.052246
32  1.215375 0.000004 -0.000005  0.000000 -0.000000 0.130882
33  1.215374 0.000002 -0.000002  0.000000 0.000000 1.151880
34  4.220532 -0.244850 0.431465  0.001184 -0.026242 0.052329
35  1.350417 0.000005 -0.000004  -0.000000 0.000000 0.977377
36  1.350410 0.000001 -0.000004  -0.000000 -0.000000 1.518434
37  4.262825 -0.232716 -1.392172  0.001188 0.078478 0.052453
38  2.110546 -0.000005 0.000000  -0.079129 0.002346 -0.399039
39  0.891913 2.373053 -0.014527  -3.141592 -0.000001 1.413797
40  7.228114 5.709445 3.726568  3.140796 -1.570796 0.000000
41  2.450422 5.076126 0.001325  3.140791 -1.570796 0.000000
42  6.312402 -4.528060 0.001311  3.140791 -1.570796 0.000000
43  2.233312 1.152535 -7.309137  -1.190949 -1.755069 -1.079473
44  3.061500 2.842763 2.243589  0.000000 -0.000000 1.570796
time 8
0  0.235346 8.703159 38.116730  -0.020229 0.025063 -1.752721
1  0.375338 1.089877 0.000005  -0.000030 -1.453667 -1.570772
2  -0.000008 0.000008 4.427392  -0.174869 3.044038 -0.069344
3  18.465937 0.000000 -0.000000  -0.000000 0.000000 -0.430448
4  14.875441 0.000003 0.000001  -0.065116 0.012733 0.368848
5  0.000010 -0.000004 -4.427393  0.063175 3.033062 -0.484835
6  18.465937 -0.000001 0.000001  0.000000 0.000000 -0.484256
7  14.875443 -0.000000 -0.000000  -0.074714 -0.027976 0.027168
8  2.239583 -0.007575 0.261730  -0.002831 -0.043384 -0.040530
9  9.514222 -0.009359 -0.000000  0.002514 0.073262 -0.043686
10  11.752197 -0.001492 0.000000  0.291873 -0.334719 0.670818
11  -0.787535 2.125356 2.579417  1.473048 -1.069448 0.982719
12  4.640938 0.000000 0.000006  -0.659542 1.096050 -1.119498
13  10.828048 -0.000001 -0.000005  -0.004654 0.004247 -0.678443
14  9.393340 0.000002 0.000003  -3.035729 -0.249282 0.250963
15  1.442240 0.107457 -1.746176  1.704592 0.556679 0.352690
16  1.063450 -0.000000 -0.000004  0.000000 -0.000000 0.199056
17  1.376310 -0.000010 0.000004  0.000000 -0.000000 0.199049
18  4.172843 -0.251359 -1.312744  0.008062 0.110041 0.148779
19  1.215376 0.000001 -0.000006  -0.000000 0.000000 0.645758
20  1.215371 -0.000002 0.000001  -0.000000 0.000000 0.621584
21  4.220526 -0.244856 -0.431466  0.001333 0.026242 0.148339
22  1.350414 -0.000001 -0.000001  0.000000 0.000000 0.877362
23  1.350408 -0.000006 0.000002  -0.000000 -0.000000 0.823658
24  -2.521963 0.687821 -2.220021  0.524942 1.223876 2.915803
25  4.640940 -0.000001 -0.000009  -0.238220 -0.633685 -0.214223
26  10.828054 0.000002 0.000009  -0.581480 -0.264225 -1.516266
27  9.393340 0.000000 0.000003  2.084219 0.216165 -0.160073
28  1.442242 0.107455 1.746185  -1.581761 -0.550135 0.124296
29  1.063452 -0.000001 0.000001  -0.000000 0.000000 0.373491
30  1.376304 0.000009 0.000002  -0.000000 -0.000000 0.837084
31  4.172844 -0.251359 1.312749  0.001574 -0.096055 0.048239
32  1.215373 -0.000003 0.000005  -0.000000 -0.000000 0.109436
33  1.215374 0.000000 0.000001  0.000000 0.000000 1.172990
34  4.220531 -0.244849 0.431469  0.001280 -0.026242 0.048365
35  1.350416 0.000002 -0.000002  -0.000000 -0.000000 0.982077
36  1.350410 0.000002 0.000002  0.000000 -0.000000 1.545676
37  4.262823 -0.232718 -1.392171  0.000541 0.078478 0.044095
38  2.110542 -0.000007 0.000000  -0.149620 0.039661 -0.409539
39  0.891912 2.373053 -0.014527  -3.141592 -0.000001 1.413797
40  7.228124 5.709444 3.726568  3.140796 -1.570796 0.000000
41  2.450427 5.076127 0.001325  3.140791 -1.570796 0.000000
42  6.312409 -4.528059 0.001311  3.140791 -1.570796 0.000000
43  2.233314 1.152536 -7.309137  -1.123647 -1.628463 -1.062623
44  3.061500 2.842763 2.243589  0.000000 -0.000000 1.570796
time 9
0  0.797863 7.751709 38.400349  -0.022818 0.028219 -1.757227
1  0.031577 1.078158 0.000009  -0.000030 -1.466142 -1.570772
2  -0.000008 0.000008 4.427393  -0.171803 3.028604 -0.010344
3  18.465939 0.000000 0.000000  -0.000000 -0.000000 -0.321298
4  14.875442 0.000003 0.000000  -0.066431 0.032102 0.325790
5  0.000003 -0.000003 -4.427393  0.068159 3.028087 -0.441130
6  18.465939 -0.000000 -0.000000  -0.000000 0.000000 -0.416125
7  14.875443 -0.000000 -0.000000  -0.082295 -0.005665 0.003495
8  2.243484 -0.007574 0.234385  0.036957 -0.031188 -0.008336
9  9.514223 -0.009358 0.000000  0.004164 0.069485 -0.046760
10  11.752198 -0.001491 0.000000  0.279505 -0.331830 0.639179
11  -0.834409 2.043318 2.630200  1.510396 -1.083701 0.979368
12  4.640938 -0.000001 0.000004  -0.743433 1.013592 -1.234835
13  10.828049 0.000003 -0.000003  -0.015392 -0.001656 -0.705057
14  9.393337 -0.000009 0.000005  -2.820557 -0.284978 0.257717
15  1.442242 0.107457 -1.746176  1.702878 0.555079 0.350165
16  1.063452 -0.000001 0.000002  -0.000000 -0.000000 0.199056
17  1.376310 0.000002 -0.000001  -0.000000 -0.000000 0.199049
18  4.172848 -0.251360 -1.312742  0.008050 0.108711 0.148779
19  1.215377 0.000003 -0.000001  -0.000000 0.000000 0.645758
20  1.215373 0.000002 -0.000002  -0.000000 0.000000 0.623830
21  4.220532 -0.244858 -0.431462  0.001333 0.026242 0.148339
22  1.350414 0.000000 0.000003  0.000000 -0.000000 0.876096
23  1.350410 -0.000000 -0.000000  -0.000000 -0.000000 0.827375
24  -2.557121 0.664383 -2.188771  0.451998 1.176881 2.872216
25  4.640940 -0.000001 -0.000004  -0.394337 -0.698046 -0.103455
26  10.828050 0.000000 0.000005  -0.593347 -0.070744 -1.593193
27  9.393337 0.000001 0.000004  2.096249 0.259925 -0.156235
28  1.442243 0.107449 1.746182  -1.585943 -0.550079 0.132381
29  1.063452 -0.000003 -0.000004  0.000000 0.000000 0.366516
30  1.376307 0.000007 0.000001  0.000000 0.000000 0.811565
31  4.172847 -0.251368 1.312745  0.001190 -0.096055 0.052246
32  1.215374 -0.000004 0.000004  -0.000000 -0.000000 0.130882
33  1.215373 0.000000 0.000001  0.000000 -0.000000 1.151880
34  4.220533 -0.244855 0.431462  0.001184 -0.026242 0.052329
35  1.350417 -0.000003 -0.000005  -0.000000 -0.000000 0.977377
36  1.350409 -0.000000 0.000007  0.000000 -0.000000 1.518434
37  4.262824 -0.232724 -1.392177  0.001188 0.078478 0.052453
38  2.110543 -0.000004 -0.000001  -0.192501 0.068798 -0.403606
39  0.891911 2.373051 -0.014527  -3.141592 -0.000001 1.413797
40  7.228118 5.709446 3.726568  3.140796 -1.570796 0.000000
41  2.450429 5.076127 0.001325  3.140791 -1.570796 0.000000
42  6.312408 -4.528059 0.001311  3.140791 -1.570796 0.000000
43  2.233309 1.152536 -7.309138  -1.065931 -1.626687 -1.056399
44  3.061500 2.842763 2.243589  0.000000 -0.000000 1.570796
time 10
0  1.176781 6.880287 38.589432  -0.025407 0.031375 -1.760391
1  -0.167648 0.960967 0.000000  -0.000030 -1.475225 -1.570772
2  -0.000005 0.000009 4.427393  -0.164234 3.017904 0.059807
3  18.465939 -0.000000 0.000001  -0.000000 0.000000 -0.194238
4  14.875443 0.000002 0.000001  -0.068493 0.041850 0.274277
5  0.000008 -0.000002 -4.427393  0.073526 3.027800 -0.407720
6  18.465937 -0.000000 -0.000001  0.000000 0.000000 -0.376678
7  14.875443 -0.000000 -0.000000  -0.087454 0.008098 -0.000970
8  2.247394 -0.007573 0.214854  0.029953 -0.023961 0.002914
9  9.514226 -0.009358 0.000000  0.006828 0.045777 -0.026303
10  11.752197 -0.001491 0.000000  0.254613 -0.285570 0.590220
11  -1.029729 1.883162 2.673171  1.490198 -1.134290 1.055861
12  4.640939 -0.000001 0.000002  -0.796610 0.934187 -1.315303
13  10.828049 0.000001 -0.000006  -0.024360 -0.014641 -0.763607
14  9.393336 -0.000004 0.000005  -2.619559 -0.316600 0.259447
15  1.442243 0.107455 -1.746170  1.697101 0.549624 0.341689
16  1.063452 -0.000001 -0.000003  0.000000 -0.000000 0.199056
17  1.376311 -0.000002 0.000003  0.000000 -0.000000 0.199049
18  4.172847 -0.251362 -1.312740  0.008050 0.104205 0.148739
19  1.215375 0.000003 -0.000005  -0.000000 0.000000 0.645758
20  1.215371 -0.000003 -0.000003  -0.000000 0.000000 0.631425
21  4.220532 -0.244858 -0.431460  0.001333 0.026242 0.148339
22  1.350414 -0.000001 0.000002  0.000000 -0.000000 0.871890
23  1.350409 -0.000003 0.000004  -0.000000 -0.000000 0.840035
24  -2.521969 0.605793 -2.247367  0.482268 1.169285 2.962552
25  4.640945 -0.000000 -0.000001  -0.550883 -0.763802 0.015626
26  10.828049 -0.000001 0.000002  -0.599331 0.071747 -1.705960
27  9.393338 -0.000002 0.000003  2.104645 0.289902 -0.139582
28  1.442243 0.107455 1.746179  -1.642129 -0.549798 0.217708
29  1.063450 -0.000003 -0.000003  0.000000 0.000000 0.365821
30  1.376305 0.000001 0.000001  -0.000000 0.000000 0.809031
31  4.172847 -0.251365 1.312744  0.001154 -0.096055 0.052607
32  1.215373 0.000000 0.000005  -0.000000 -0.000000 0.133023
33  1.215375 0.000001 -0.000005  0.000000 -0.000000 1.149824
34  4.220532 -0.244852 0.431461  0.001184 -0.026242 0.052689
35  1.350418 -0.000002 0.000001  -0.000000 -0.000000 0.976873
36  1.350410 0.000001 -0.000008  0.000000 -0.000000 1.515715
37  4.262824 -0.232719 -1.392179  0.001248 0.078478 0.053249
38  2.110539 0.000001 -0.000001  -0.162937 0.090627 -0.378980
39  0.891907 2.373054 -0.014527  -3.141592 -0.000001 1.413797
40  7.228117 5.709445 3.726568  3.140796 -1.570796 0.000000
41  2.450428 5.076128 0.001325  3.140791 -1.570796 0.000000
42  6.312407 -4.528058 0.001311  3.140791 -1.570796 0.000000
43  2.233315 1.152537 -7.309138  -1.046565 -1.641569 -1.033709
44  3.061500 2.842763 2.243589  0.000000 -0.000000 1.570796
time 11
0  1.293972 6.266736 38.620945  -0.027899 0.034531 -1.761638
1  -0.351248 0.820338 -0.000002  -0.000030 -1.484049 -1.570772
2  -0.000002 0.000008 4.427392  -0.160689 3.022828 0.088497
3  18.465937 -0.000000 0.000000  -0.000000 0.000000 -0.148692
4  14.875440 0.000002 0.000001  -0.070448 0.043084 0.261123
5  0.000011 -0.000004 -4.427393  0.077839 3.035645 -0.397051
6  18.465940 -0.000001 0.000000  0.000000 -0.000000 -0.373659
7  14.875443 -0.000000 -0.000001  -0.088822 0.011978 0.009085
8  2.247393 -0.007574 0.191415  0.015607 -0.017126 0.011682
9  9.514224 -0.009358 0.000000  0.008929 0.018144 -0.002425
10  11.752198 -0.001491 0.000000  0.217724 -0.217485 0.530058
11  -1.303170 1.660493 2.704422  1.408832 -1.205001 1.205687
12  4.640939 -0.000001 0.000000  -0.838666 0.838352 -1.394579
13  10.828049 0.000005 -0.000003  -0.034023 -0.027626 -0.822156
14  9.393335 -0.000006 0.000001  -2.434613 -0.347297 0.261279
15  1.442241 0.107457 -1.746170  1.686435 0.539209 0.325885
16  1.063450 0.000000 -0.000002  0.000000 -0.000000 0.199056
17  1.376310 0.000004 -0.000000  -0.000000 -0.000000 0.199049
18  4.172847 -0.251363 -1.312735  0.008050 0.095731 0.148659
19  1.215377 -0.000001 -0.000000  -0.000000 0.000000 0.645758
20  1.215371 0.000000 0.000008  0.000000 -0.000000 0.645758
21  4.220532 -0.244856 -0.431459  0.001333 0.026242 0.148339
22  1.350412 -0.000001 -0.000005  0.000000 0.000000 0.863926
23  1.350411 -0.000000 -0.000003  -0.000000 -0.000000 0.863926
24  -2.439931 0.547191 -2.348934  -2.649791 1.958267 -0.092038
25  4.640942 -0.000001 -0.000003  -0.703987 -0.824284 0.140837
26  10.828043 -0.000000 0.000002  -0.601562 0.170984 -1.837189
27  9.393335 -0.000002 -0.000001  2.111800 0.309360 -0.114651
28  1.442242 0.107455 1.746182  -1.702042 -0.544967 0.308853
29  1.063454 0.000001 0.000000  0.000000 -0.000000 0.365630
30  1.376304 0.000011 -0.000000  0.000000 -0.000000 0.808326
31  4.172846 -0.251363 1.312750  0.001142 -0.096055 0.052727
32  1.215374 0.000002 -0.000003  0.000000 -0.000000 0.133610
33  1.215371 0.000000 0.000005  -0.000000 -0.000000 1.149236
34  4.220532 -0.244851 0.431468  0.001172 -0.026242 0.052809
35  1.350418 -0.000001 -0.000001  -0.000000 -0.000000 0.976747
36  1.350410 0.000000 0.000004  0.000000 -0.000000 1.514952
37  4.262823 -0.232717 -1.392176  0.001260 0.078478 0.053488
38  2.110543 -0.000005 0.000000  -0.112446 0.107376 -0.335330
39  0.891904 2.373055 -0.014527  -3.141592 -0.000001 1.413797
40  7.228120 5.709446 3.726568  3.140796 -1.570796 0.000000
41  2.450425 5.076128 0.001325  3.140791 -1.570796 0.000000
42  6.312405 -4.528058 0.001311  3.140791 -1.570796 0.000000
43  2.233319 1.152536 -7.309138  -1.043018 -1.635482 -1.022890
44  3.061500 2.842763 2.243589  0.000000 -0.000000 1.570796
time 12
0  1.321317 5.688752 38.605186  -0.030392 0.037873 -1.760871
1  -0.534847 0.675802 0.000008  -0.000030 -1.492701 -1.570772
2  -0.000011 0.000009 4.427392  -0.159156 3.033622 0.099649
3  18.465935 0.000000 0.000000  0.000000 0.000000 -0.141966
4  14.875442 0.000002 0.000000  -0.071017 0.041105 0.268510
5  0.000005 -0.000005 -4.427394  0.081864 3.045498 -0.393776
6  18.465939 -0.000000 0.000001  0.000000 0.000000 -0.386195
7  14.875439 -0.000000 -0.000000  -0.087629 0.013130 0.027656
8  2.251297 -0.007575 0.175790  -0.003590 -0.010488 0.018829
9  9.514229 -0.009357 0.000000  0.010242 -0.012069 0.023705
10  11.752196 -0.001492 0.000000  0.169222 -0.136194 0.460861
11  -1.607869 1.375335 2.700516  1.191603 -1.281150 1.499213
12  4.640938 -0.000000 0.000003  -0.870679 0.704669 -1.490455
13  10.828049 0.000003 -0.000001  -0.046843 -0.033529 -0.848770
14  9.393335 -0.000000 0.000004  -2.268344 -0.380141 0.268604
15  1.442241 0.107458 -1.746171  1.660764 0.512455 0.287217
16  1.063454 0.000001 -0.000002  -0.000000 0.000000 0.199056
17  1.376310 -0.000006 0.000001  -0.000000 -0.000000 0.199049
18  4.172844 -0.251359 -1.312740  0.008026 0.074423 0.148499
19  1.215377 0.000003 0.000000  -0.000000 0.000000 0.645758
20  1.215374 -0.000001 -0.000002  0.000000 0.000000 0.681732
21  4.220528 -0.244854 -0.431462  0.001333 0.026242 0.148339
22  1.350416 -0.000001 0.000005  0.000000 0.000000 0.843956
23  1.350409 -0.000001 -0.000002  0.000000 0.000000 0.923879
24  -2.322728 0.496407 -2.473937  -2.645162 1.925706 -0.000505
25  4.640941 -0.000000 -0.000004  -0.846199 -0.874372 0.264564
26  10.828038 0.000006 0.000002  -0.602169 0.234703 -1.969504
27  9.393337 -0.000002 0.000001  2.119335 0.321408 -0.086439
28  1.442241 0.107454 1.746183  -1.763592 -0.534966 0.403140
29  1.063451 0.000001 -0.000001  -0.000000 0.000000 0.365761
30  1.376306 0.000007 0.000001  -0.000000 -0.000000 0.808833
31  4.172846 -0.251364 1.312753  0.001154 -0.096055 0.052647
32  1.215374 0.000001 -0.000002  0.000000 -0.000000 0.133190
33  1.215372 -0.000002 -0.000005  0.000000 -0.000000 1.149656
34  4.220531 -0.244852 0.431468  0.001184 -0.026242 0.052729
35  1.350416 -0.000000 -0.000004  -0.000000 0.000000 0.976873
36  1.350408 0.000002 0.000008  0.000000 0.000000 1.515476
37  4.262822 -0.232720 -1.392174  0.001248 0.078478 0.053329
38  2.110549 -0.000000 -0.000000  -0.048022 0.118651 -0.276049
39  0.891910 2.373053 -0.014528  -3.141592 -0.000001 1.413797
40  7.228118 5.709445 3.726568  3.140796 -1.570796 0.000000
41  2.450430 5.076128 0.001325  3.140791 -1.570796 0.000000
42  6.312412 -4.528057 0.001311  3.140791 -1.570796 0.000000
43  2.233313 1.152535 -7.309138  -1.047524 -1.626920 -1.011401
44  3.061500 2.842763 2.243589  0.000000 -0.000000 1.570796
time 13
0  1.297879 5.128551 38.542160  -0.032693 0.041122 -1.757707
1  -0.718446 0.531266 0.000007  -0.000030 -1.501266 -1.570772
2  -0.000008 0.000008 4.427392  -0.158964 3.048393 0.098696
3  18.465942 0.000001 -0.000001  -0.000000 0.000000 -0.161193
4  14.875438 0.000003 0.000000  -0.069560 0.037104 0.289644
5  0.000006 -0.000004 -4.427393  0.085602 3.056212 -0.394056
6  18.465937 0.000001 0.000000  0.000000 -0.000000 -0.406346
7  14.875441 -0.000000 -0.000000  -0.083839 0.012979 0.050504
8  2.251300 -0.007575 0.156258  -0.025193 -0.003870 0.025182
9  9.514231 -0.009358 0.000000  0.010692 -0.043613 0.051003
10  11.752192 -0.001491 0.000000  0.110414 -0.050300 0.384564
11  -1.912567 1.043295 2.649731  0.748760 -1.325998 2.020304
12  4.640941 -0.000002 0.000001  -0.896456 0.539671 -1.633241
13  10.828048 0.000004 -0.000001  -0.063685 -0.015694 -0.790739
14  9.393333 -0.000004 0.000005  -2.139807 -0.414154 0.316037
15  1.442242 0.107457 -1.746176  1.620496 0.464871 0.224208
16  1.063449 0.000001 -0.000001  0.000000 0.000000 0.199056
17  1.376309 -0.000003 0.000000  -0.000000 -0.000000 0.199049
18  4.172847 -0.251360 -1.312741  0.008014 0.038002 0.148178
19  1.215372 0.000003 0.000000  -0.000000 0.000000 0.645758
20  1.215372 -0.000002 -0.000002  0.000000 0.000000 0.743187
21  4.220531 -0.244856 -0.431466  0.001333 0.026242 0.148339
22  1.350417 -0.000001 0.000001  0.000000 -0.000000 0.809814
23  1.350410 -0.000002 -0.000010  0.000000 0.000000 1.026264
24  -2.174295 0.465163 -2.610659  -2.630166 1.879739 0.103334
25  4.640943 0.000000 0.000005  -0.965911 -0.911182 0.373688
26  10.828050 -0.000002 0.000000  -0.602851 0.270638 -2.085529
27  9.393337 -0.000004 0.000006  2.127952 0.328828 -0.060094
28  1.442242 0.107453 1.746175  -1.824688 -0.519685 0.497787
29  1.063454 -0.000001 0.000001  -0.000000 -0.000000 0.366073
30  1.376306 0.000010 0.000000  0.000000 0.000000 0.809957
31  4.172846 -0.251365 1.312744  0.001166 -0.096055 0.052486
32  1.215370 0.000002 -0.000000  -0.000000 0.000000 0.132225
33  1.215375 -0.000001 -0.000000  0.000000 -0.000000 1.150537
34  4.220533 -0.244853 0.431464  0.001184 -0.026242 0.052569
35  1.350416 -0.000001 0.000003  -0.000000 -0.000000 0.977083
36  1.350409 -0.000001 0.000002  -0.000000 -0.000000 1.516669
37  4.262824 -0.232721 -1.392179  0.001224 0.078478 0.052970
38  2.110549 -0.000001 -0.000000  0.022931 0.124184 -0.205513
39  0.891907 2.373053 -0.014527  -3.141592 -0.000001 1.413797
40  7.228108 5.709446 3.726568  3.140796 -1.570796 0.000000
41  2.450435 5.076128 0.001325  3.140791 -1.570796 0.000000
42  6.312417 -4.528059 0.001311  3.140791 -1.570796 0.000000
43  2.233314 1.152535 -7.309138  -1.059987 -1.616988 -0.996370
44  3.061500 2.842763 2.243589  0.000000 -0.000000 1.570796
time 14
0  1.258815 4.586137 38.479134  -0.033460 0.045949 -1.710056
1  -0.909858 0.390637 0.000004  -0.000030 -1.509817 -1.570772
2  -0.000007 0.000008 4.427393  -0.159348 3.074621 0.080395
3  18.465940 0.000001 -0.000000  0.000000 0.000000 -0.208055
4  14.875439 -0.000000 0.000001  -0.025297 0.023631 0.320654
5  0.000008 -0.000005 -4.427393  0.088190 3.059656 -0.393776
6  18.465933 -0.000001 -0.000001  -0.000000 -0.000000 -0.436407
7  14.875443 -0.000000 0.000000  -0.036950 0.018769 0.084908
8  2.251301 -0.007574 0.136726  -0.046711 0.002886 0.031567
9  9.514223 -0.009358 -0.000000  0.010242 -0.075157 0.078345
10  11.752204 -0.001492 -0.000000  0.044019 0.031806 0.303690
11  -2.182110 0.695627 2.555979  0.236937 -1.299532 2.607164
12  4.640941 -0.000003 -0.000002  -0.898028 0.402442 -1.778126
13  10.828048 0.000005 0.000001  -0.079019 0.017428 -0.682968
14  9.393334 -0.000005 0.000004  -2.067589 -0.438653 0.392866
15  1.442242 0.107455 -1.746179  1.578909 0.406772 0.155246
16  1.063452 0.000001 -0.000000  0.000000 -0.000000 0.199056
17  1.376313 -0.000004 0.000002  -0.000000 -0.000000 0.199049
18  4.172846 -0.251361 -1.312744  0.008002 -0.004460 0.147858
19  1.215375 0.000003 -0.000000  -0.000000 0.000000 0.645758
20  1.215371 0.000001 -0.000002  0.000000 0.000000 0.814810
21  4.220530 -0.244857 -0.431470  0.001333 0.026242 0.148339
22  1.350416 -0.000003 -0.000002  0.000000 -0.000000 0.769995
23  1.350409 -0.000001 -0.000001  0.000000 0.000000 1.145679
24  -2.014133 0.461251 -2.735662  -2.585641 1.827659 0.232129
25  4.640944 -0.000001 0.000004  -1.048518 -0.933824 0.451393
26  10.828045 -0.000001 0.000000  -0.603589 0.286527 -2.167886
27  9.393333 0.000004 0.000003  2.135310 0.332721 -0.040645
28  1.442242 0.107454 1.746184  -1.883237 -0.499573 0.590272
29  1.063451 -0.000006 -0.000000  0.000000 0.000000 0.366373
30  1.376304 0.000009 0.000001  -0.000000 0.000000 0.811059
31  4.172845 -0.251365 1.312752  0.001190 -0.096055 0.052286
32  1.215372 0.000002 -0.000007  -0.000000 -0.000000 0.131302
33  1.215373 -0.000000 -0.000006  0.000000 -0.000000 1.151460
34  4.220532 -0.244853 0.431467  0.001184 -0.026242 0.052369
35  1.350418 -0.000001 -0.000000  -0.000000 -0.000000 0.977251
36  1.350408 0.000001 0.000003  -0.000000 0.000000 1.517862
37  4.262824 -0.232721 -1.392174  0.001200 0.078478 0.052612
38  2.110545 -0.000002 0.000000  0.093011 0.124905 -0.129374
39  0.891913 2.373053 -0.014527  -3.141592 -0.000001 1.413797
40  7.228125 5.709444 3.726567  3.140796 -1.570796 0.000000
41  2.450432 5.076127 0.001325  3.140791 -1.570796 0.000000
42  6.312405 -4.528059 0.001311  3.140791 -1.570796 0.000000
43  2.233317 1.152534 -7.309139  -1.081750 -1.606707 -0.973105
44  3.061500 2.842763 2.243589  0.000000 -0.000000 1.570796
time 15
0  1.247096 4.017045 38.416107  -0.032789 0.051704 -1.633642
1  -1.105177 0.261727 -0.000003  -0.000030 -1.518469 -1.570772
2  -0.000007 0.000008 4.427393  -0.158773 3.106815 0.060093
3  18.465939 0.000001 0.000000  -0.000000 0.000000 -0.249361
4  14.875443 0.000002 0.000001  0.046802 0.003730 0.344277
5  0.000010 -0.000005 -4.427393  0.090490 3.059752 -0.388067
6  18.465939 -0.000001 -0.000001  -0.000000 -0.000000 -0.464631
7  14.875441 -0.000000 0.000000  0.038121 0.027165 0.123363
8  2.255207 -0.007574 0.117194  -0.065613 0.009936 0.038847
9  9.514231 -0.009358 -0.000000  0.009117 -0.105397 0.104605
10  11.752195 -0.001492 -0.000001  -0.025347 0.102407 0.222105
11  -2.396958 0.347956 2.427070  -0.087954 -1.222829 3.000639
12  4.640937 -0.000001 -0.000004  -0.889855 0.346501 -1.844059
13  10.828047 0.000001 0.000001  -0.085715 0.035262 -0.624937
14  9.393335 -0.000000 0.000001  -2.045769 -0.447170 0.433411
15  1.442241 0.107457 -1.746178  1.545041 0.350655 0.094987
16  1.063451 -0.000001 0.000000  0.000000 -0.000000 0.199056
17  1.376311 -0.000003 -0.000001  -0.000000 -0.000000 0.199049
18  4.172847 -0.251361 -1.312744  0.008014 -0.043889 0.147537
19  1.215374 0.000004 0.000002  -0.000000 0.000000 0.645758
20  1.215370 0.000000 -0.000005  0.000000 -0.000000 0.881369
21  4.220530 -0.244856 -0.431465  0.001333 0.026242 0.148339
22  1.350415 -0.000001 0.000001  0.000000 0.000000 0.733035
23  1.350410 -0.000004 -0.000008  -0.000000 0.000000 1.256600
24  -1.861787 0.480784 -2.841136  -2.486408 1.779393 0.406221
25  4.640944 0.000002 0.000003  -1.079032 -0.941785 0.480591
26  10.828049 0.000000 0.000000  -0.603935 0.290104 -2.199200
27  9.393335 -0.000003 -0.000003  2.138403 0.333846 -0.033065
28  1.442242 0.107454 1.746181  -1.937605 -0.475472 0.678379
29  1.063452 0.000001 -0.000000  0.000000 0.000000 0.366516
30  1.376304 0.000014 0.000003  0.000000 0.000000 0.811565
31  4.172846 -0.251365 1.312747  0.001190 -0.096055 0.052246
32  1.215373 0.000002 -0.000001  -0.000000 -0.000000 0.130882
33  1.215373 -0.000001 0.000003  0.000000 -0.000000 1.151880
34  4.220533 -0.244852 0.431465  0.001184 -0.026242 0.052329
35  1.350415 -0.000002 0.000005  -0.000000 0.000000 0.977377
36  1.350410 0.000000 0.000001  0.000000 -0.000000 1.518434
37  4.262824 -0.232719 -1.392175  0.001188 0.078478 0.052453
38  2.110540 -0.000000 -0.000000  0.155327 0.123823 -0.054459
39  0.891906 2.373053 -0.014526  -3.141592 -0.000001 1.413797
40  7.228115 5.709445 3.726567  3.140796 -1.570796 0.000000
41  2.450432 5.076127 0.001325  3.140791 -1.570796 0.000000
42  6.312409 -4.528059 0.001311  3.140791 -1.570796 0.000000
43  2.233310 1.152535 -7.309139  -1.116073 -1.597154 -0.935096
44  3.061500 2.842763 2.243589  0.000000 -0.000000 1.570796
end
