version 1
nodes
0 "Bip01" -1
1 "Bip01 Pelvis" 0
2 "Bip01 L Thigh" 1
3 "Bip01 L Calf" 2
4 "Bip01 L Foot" 3
5 "Bip01 R Thigh" 1
6 "Bip01 R Calf" 5
7 "Bip01 R Foot" 6
8 "Bip01 Spine" 1
9 "Bip01 Spine1" 8
10 "Bip01 Neck" 9
11 "Bip01 L Clavicle" 10
12 "Bip01 L UpperArm" 11
13 "Bip01 L Forearm" 12
14 "Bip01 L Hand" 13
15 "Bip01 L Finger0" 14
16 "Bip01 L Finger01" 15
17 "Bip01 L Finger02" 16
18 "Bip01 L Finger1" 14
19 "Bip01 L Finger11" 18
20 "Bip01 L Finger12" 19
21 "Bip01 L Finger2" 14
22 "Bip01 L Finger21" 21
23 "Bip01 L Finger22" 22
24 "Bip01 R Clavicle" 10
25 "Bip01 R UpperArm" 24
26 "Bip01 R Forearm" 25
27 "Bip01 R Hand" 26
28 "Bip01 R Finger0" 27
29 "Bip01 R Finger01" 28
30 "Bip01 R Finger02" 29
31 "Bip01 R Finger1" 27
32 "Bip01 R Finger11" 31
33 "Bip01 R Finger12" 32
34 "Bip01 R Finger2" 27
35 "Bip01 R Finger21" 34
36 "Bip01 R Finger22" 35
37 "Bip01 R Finger4" 27
38 "Bip01 Head" 10
39 "Bone05" 38
40 "Bone08" 9
41 "Bone16" 8
42 "Bone01" 8
43 "Bone03" 1
44 "Box01" -1
end
skeleton
time 0
0  1.727579 6.791367 38.274296  0.000000 -0.000000 -1.701715
1  0.164394 -0.125004 0.000004  -1.570795 -1.570451 -0.000000
2  -0.000000 0.000008 4.427392  -0.170749 3.130202 0.000903
3  18.465944 -0.000001 -0.000000  -0.000000 -0.000000 -0.416557
4  14.875443 -0.000002 0.000001  0.018467 0.017437 0.402071
5  -0.000000 -0.000003 -4.427393  0.106016 3.095625 -0.362237
6  18.465937 -0.000001 -0.000001  -0.000000 -0.000000 -0.394334
7  14.875443 0.000000 -0.000000  -0.002065 0.005218 0.029344
8  2.255212 -0.007574 0.000003  0.122101 -0.017401 -0.001322
9  9.514218 -0.009356 -0.000000  -0.008779 0.002352 -0.095902
10  11.752193 -0.001498 -0.000000  0.000024 0.043599 0.440031
11  -2.111790 0.863596 2.563792  0.697216 -1.395374 2.006326
12  4.640938 0.000000 0.000010  0.003415 1.230668 -0.279848
13  10.828056 -0.000002 -0.000005  -0.006217 -0.069509 -0.643807
14  9.393340 -0.000004 0.000007  1.939538 0.008013 0.055012
15  1.442243 0.107458 -1.746178  1.686435 0.539209 0.325885
16  1.063451 0.000000 0.000002  0.000000 0.000000 0.199056
17  1.376308 -0.000001 0.000000  -0.000000 -0.000000 0.199049
18  4.172842 -0.251364 -1.312744  0.008050 0.095731 0.148659
19  1.215372 0.000002 0.000002  0.000000 -0.000000 0.645758
20  1.215371 -0.000000 -0.000001  -0.000000 -0.000000 0.645758
21  4.220532 -0.244854 -0.431463  0.001333 0.026242 0.148339
22  1.350418 0.000005 -0.000000  -0.000000 -0.000000 0.863926
23  1.350409 -0.000003 -0.000003  0.000000 0.000000 0.863926
24  -1.885224 0.863611 -2.731758  -0.942448 1.461427 1.764337
25  4.640937 -0.000004 -0.000011  0.840773 -0.556066 -1.008731
26  10.828046 0.000007 0.000012  0.372594 -1.232925 -0.552316
27  9.393340 0.000008 -0.000000  1.046902 -0.119173 0.046355
28  1.442244 0.107455 1.746176  -1.686405 -0.539236 0.325898
29  1.063452 -0.000002 -0.000000  -0.000000 -0.000000 0.199056
30  1.376308 -0.000008 -0.000000  0.000000 0.000000 0.199059
31  4.172846 -0.251364 1.312746  -0.008050 -0.095731 0.148659
32  1.215372 0.000001 -0.000003  -0.000000 -0.000000 0.645746
33  1.215371 -0.000000 0.000006  0.000000 0.000000 0.645746
34  4.220530 -0.244856 0.431468  -0.001333 -0.026242 0.148339
35  1.350412 -0.000000 -0.000009  -0.000000 -0.000000 0.863937
36  1.350410 0.000000 -0.000005  0.000000 0.000000 0.863925
37  4.262828 -0.232721 -1.392183  0.016840 0.076668 0.253759
38  2.110543 -0.000003 0.000000  0.002417 -0.010493 -0.153718
39  0.891917 2.373053 -0.014527  -3.141592 -0.000001 1.413797
40  7.228116 5.709444 3.726568  3.140796 -1.570796 0.000000
41  2.450423 5.076127 0.001325  3.140791 -1.570796 0.000000
42  6.312402 -4.528057 0.001311  3.140791 -1.570796 0.000000
43  2.233308 1.152536 -7.309137  -1.140139 -1.562088 -0.884449
44  3.061500 2.842763 2.243589  0.000000 -0.000000 1.570796
time 1
0  1.692422 6.791367 38.274296  0.000000 -0.000000 -1.701715
1  0.148768 -0.128910 0.000000  -1.570795 -1.570451 -0.000000
2  -0.000000 0.000007 4.427392  -0.170557 3.131433 -0.000336
3  18.465940 -0.000001 0.000000  -0.000000 -0.000000 -0.418019
4  14.875443 -0.000001 0.000001  0.018290 0.016437 0.402110
5  -0.000000 -0.000003 -4.427393  0.106208 3.096868 -0.362424
6  18.465940 -0.000001 -0.000001  -0.000000 -0.000000 -0.393546
7  14.875441 -0.000000 0.000000  -0.001854 0.004036 0.028481
8  2.255212 -0.007574 0.000003  0.122101 -0.017558 -0.000097
9  9.514216 -0.009356 0.000000  -0.008779 0.002365 -0.095296
10  11.752193 -0.001497 -0.000000  0.000024 0.043599 0.440031
11  -2.111803 0.863598 2.563791  0.663298 -1.393863 2.040408
12  4.640939 0.000000 0.000014  0.003415 1.230668 -0.279847
13  10.828051 -0.000000 -0.000005  -0.006217 -0.069509 -0.643807
14  9.393336 -0.000005 0.000010  1.939538 0.008013 0.055012
15  1.442241 0.107460 -1.746174  1.686435 0.539209 0.325885
16  1.063450 0.000000 0.000001  0.000000 0.000000 0.199056
17  1.376305 -0.000001 0.000005  -0.000000 -0.000000 0.199049
18  4.172843 -0.251364 -1.312743  0.008050 0.095731 0.148659
19  1.215370 0.000007 0.000002  0.000000 -0.000000 0.645758
20  1.215371 0.000001 -0.000001  -0.000000 -0.000000 0.645758
21  4.220530 -0.244853 -0.431462  0.001333 0.026242 0.148339
22  1.350417 0.000000 0.000001  0.000000 0.000000 0.863926
23  1.350408 -0.000010 -0.000004  0.000000 -0.000000 0.863926
24  -1.885231 0.863613 -2.731758  -0.905329 1.460670 1.801515
25  4.640935 -0.000003 -0.000010  0.838919 -0.555197 -1.008422
26  10.828048 0.000005 0.000014  0.372594 -1.232925 -0.552316
27  9.393344 0.000007 0.000001  1.046902 -0.119173 0.046355
28  1.442246 0.107455 1.746173  -1.686405 -0.539236 0.325898
29  1.063452 -0.000007 0.000001  0.000000 0.000000 0.199056
30  1.376308 0.000001 0.000000  -0.000000 0.000000 0.199059
31  4.172847 -0.251364 1.312740  -0.008050 -0.095731 0.148659
32  1.215374 -0.000001 0.000002  0.000000 -0.000000 0.645746
33  1.215372 0.000000 0.000009  0.000000 0.000000 0.645746
34  4.220532 -0.244856 0.431465  -0.001333 -0.026242 0.148339
35  1.350413 -0.000001 -0.000009  -0.000000 -0.000000 0.863937
36  1.350410 -0.000002 -0.000002  -0.000000 0.000000 0.863925
37  4.262829 -0.232720 -1.392184  0.016840 0.076668 0.253759
38  2.110533 -0.000000 -0.000000  0.002519 -0.010493 -0.155554
39  0.891920 2.373050 -0.014527  -3.141592 -0.000001 1.413797
40  7.228117 5.709445 3.726568  3.140796 -1.570796 0.000000
41  2.450427 5.076128 0.001325  3.140791 -1.570796 0.000000
42  6.312402 -4.528058 0.001311  3.140791 -1.570796 0.000000
43  2.233308 1.152536 -7.309138  -1.140042 -1.560864 -0.884449
44  3.061500 2.842763 2.243589  0.000000 -0.000000 1.570796
time 2
0  1.653358 6.791367 38.274296  0.000000 -0.000000 -1.701715
1  0.133144 -0.128910 0.000000  -1.570795 -1.570451 -0.000000
2  0.000000 0.000008 4.427392  -0.170366 3.132853 -0.001671
3  18.465948 -0.000001 -0.000000  -0.000000 -0.000000 -0.419555
4  14.875443 -0.000000 0.000001  0.018076 0.015309 0.402189
5  0.000000 -0.000003 -4.427393  0.106495 3.098112 -0.362705
6  18.465940 -0.000000 -0.000001  -0.000000 0.000000 -0.392693
7  14.875442 -0.000000 0.000000  -0.001573 0.002732 0.027543
8  2.255212 -0.007574 0.000003  0.122101 -0.017715 0.001226
9  9.514215 -0.009356 -0.000000  -0.008779 0.002365 -0.094603
10  11.752192 -0.001499 -0.000000  0.000024 0.043599 0.440031
11  -2.111795 0.863597 2.563792  0.626712 -1.391949 2.077266
12  4.640938 0.000001 0.000011  0.003415 1.230669 -0.279847
13  10.828055 -0.000003 -0.000007  -0.006217 -0.069509 -0.643807
14  9.393341 -0.000002 0.000007  1.939538 0.008013 0.055012
15  1.442239 0.107459 -1.746178  1.686435 0.539209 0.325885
16  1.063454 -0.000000 0.000005  0.000000 0.000000 0.199056
17  1.376302 -0.000000 0.000002  0.000000 -0.000000 0.199049
18  4.172839 -0.251363 -1.312742  0.008050 0.095731 0.148659
19  1.215372 0.000004 -0.000001  -0.000000 -0.000000 0.645758
20  1.215371 -0.000003 0.000000  -0.000000 -0.000000 0.645758
21  4.220526 -0.244852 -0.431463  0.001333 0.026242 0.148339
22  1.350418 0.000001 0.000001  -0.000000 -0.000000 0.863926
23  1.350407 -0.000001 -0.000002  0.000000 0.000000 0.863926
24  -1.885225 0.863612 -2.731758  -0.865155 1.459642 1.841683
25  4.640936 -0.000003 -0.000012  0.833707 -0.552750 -1.007554
26  10.828048 0.000006 0.000015  0.372594 -1.232925 -0.552316
27  9.393343 0.000001 -0.000002  1.046902 -0.119173 0.046355
28  1.442247 0.107456 1.746175  -1.686405 -0.539236 0.325898
29  1.063452 -0.000008 -0.000002  -0.000000 0.000000 0.199056
30  1.376308 -0.000003 -0.000000  -0.000000 0.000000 0.199059
31  4.172847 -0.251363 1.312740  -0.008050 -0.095731 0.148659
32  1.215374 0.000001 -0.000011  0.000000 -0.000000 0.645746
33  1.215375 -0.000001 0.000009  0.000000 -0.000000 0.645746
34  4.220531 -0.244854 0.431466  -0.001333 -0.026242 0.148339
35  1.350413 -0.000002 -0.000002  -0.000000 -0.000000 0.863937
36  1.350410 -0.000000 -0.000010  0.000000 0.000000 0.863925
37  4.262829 -0.232719 -1.392181  0.016840 0.076668 0.253759
38  2.110537 0.000001 -0.000000  0.002571 -0.010463 -0.157626
39  0.891916 2.373051 -0.014527  -3.141592 -0.000001 1.413797
40  7.228117 5.709445 3.726568  3.140796 -1.570796 0.000000
41  2.450421 5.076128 0.001325  3.140791 -1.570796 0.000000
42  6.312402 -4.528058 0.001311  3.140791 -1.570796 0.000000
43  2.233309 1.152536 -7.309137  -1.140138 -1.559496 -0.884450
44  3.061500 2.842763 2.243589  0.000000 -0.000000 1.570796
time 3
0  1.610388 6.791367 38.274296  0.000000 -0.000000 -1.701715
1  0.113611 -0.132817 0.000004  -1.570795 -1.570451 -0.000000
2  -0.000001 0.000008 4.427392  -0.170174 3.134274 -0.003005
3  18.465937 -0.000000 0.000000  0.000000 0.000000 -0.421236
4  14.875444 -0.000003 0.000000  0.017899 0.014095 0.402229
5  -0.000001 -0.000003 -4.427392  0.106687 3.099547 -0.362892
6  18.465942 -0.000002 -0.000000  -0.000000 0.000000 -0.391709
7  14.875442 -0.000000 0.000000  -0.001328 0.001338 0.026493
8  2.255211 -0.007574 0.000003  0.122101 -0.017892 0.002682
9  9.514221 -0.009357 -0.000000  -0.008779 0.002379 -0.093889
10  11.752194 -0.001498 -0.000000  0.000024 0.043599 0.440031
11  -2.111789 0.863597 2.563792  0.588411 -1.389658 2.115657
12  4.640938 0.000001 0.000011  0.003415 1.230668 -0.279847
13  10.828054 -0.000002 -0.000006  -0.006217 -0.069509 -0.643807
14  9.393341 -0.000003 0.000010  1.939538 0.008013 0.055012
15  1.442242 0.107460 -1.746176  1.686435 0.539209 0.325885
16  1.063454 -0.000002 0.000009  0.000000 0.000000 0.199056
17  1.376306 -0.000001 0.000001  -0.000000 -0.000000 0.199049
18  4.172841 -0.251362 -1.312742  0.008050 0.095731 0.148659
19  1.215374 0.000002 0.000000  0.000000 -0.000000 0.645758
20  1.215370 0.000005 -0.000002  -0.000000 0.000000 0.645758
21  4.220527 -0.244851 -0.431461  0.001333 0.026242 0.148339
22  1.350420 0.000000 0.000002  0.000000 -0.000000 0.863926
23  1.350409 -0.000006 -0.000003  0.000000 0.000000 0.863926
24  -1.885228 0.863613 -2.731758  -0.823036 1.458371 1.883817
25  4.640936 -0.000003 -0.000010  0.825663 -0.548970 -1.006216
26  10.828049 -0.000004 0.000010  0.372594 -1.232925 -0.552316
27  9.393343 0.000009 0.000001  1.046902 -0.119173 0.046355
28  1.442245 0.107454 1.746178  -1.686405 -0.539236 0.325898
29  1.063452 -0.000004 0.000000  -0.000000 0.000000 0.199056
30  1.376309 -0.000002 -0.000000  -0.000000 -0.000000 0.199059
31  4.172848 -0.251365 1.312743  -0.008050 -0.095731 0.148659
32  1.215377 -0.000001 -0.000001  0.000000 -0.000000 0.645746
33  1.215371 0.000001 0.000004  -0.000000 -0.000000 0.645746
34  4.220528 -0.244857 0.431474  -0.001333 -0.026242 0.148339
35  1.350414 -0.000001 0.000003  -0.000000 -0.000000 0.863937
36  1.350407 0.000000 -0.000001  -0.000000 0.000000 0.863925
37  4.262828 -0.232722 -1.392177  0.016840 0.076668 0.253759
38  2.110538 -0.000001 0.000000  0.002674 -0.010433 -0.159792
39  0.891922 2.373051 -0.014527  -3.141592 -0.000001 1.413797
40  7.228116 5.709445 3.726568  3.140796 -1.570796 0.000000
41  2.450428 5.076127 0.001325  3.140791 -1.570796 0.000000
42  6.312405 -4.528058 0.001311  3.140791 -1.570796 0.000000
43  2.233307 1.152536 -7.309137  -1.140138 -1.558039 -0.884450
44  3.061500 2.842763 2.243589  0.000000 -0.000000 1.570796
time 4
0  1.567418 6.791367 38.274296  0.000000 -0.000000 -1.701715
1  0.094079 -0.136723 0.000000  -1.570795 -1.570451 -0.000000
2  0.000002 0.000007 4.427392  -0.169983 3.135789 -0.004435
3  18.465944 -0.000000 0.000000  0.000000 0.000000 -0.422918
4  14.875444 -0.000002 0.000000  0.017685 0.012840 0.402268
5  0.000002 -0.000003 -4.427392  0.106974 3.100982 -0.363079
6  18.465942 -0.000000 -0.000001  -0.000000 0.000000 -0.390724
7  14.875442 0.000000 0.000000  -0.001082 -0.000117 0.025405
8  2.255214 -0.007574 0.000003  0.122101 -0.018089 0.004171
9  9.514228 -0.009357 0.000000  -0.008779 0.002379 -0.093131
10  11.752192 -0.001498 -0.000000  0.000024 0.043599 0.440031
11  -2.111792 0.863598 2.563792  0.549538 -1.386988 2.154621
12  4.640938 0.000000 0.000011  0.003415 1.230668 -0.279848
13  10.828052 -0.000002 -0.000005  -0.006217 -0.069509 -0.643807
14  9.393338 -0.000005 0.000007  1.939538 0.008013 0.055012
15  1.442239 0.107458 -1.746179  1.686435 0.539209 0.325885
16  1.063453 -0.000001 0.000006  0.000000 0.000000 0.199056
17  1.376307 -0.000002 0.000000  0.000000 -0.000000 0.199049
18  4.172841 -0.251366 -1.312747  0.008050 0.095731 0.148659
19  1.215372 0.000003 0.000001  -0.000000 -0.000000 0.645758
20  1.215370 0.000002 0.000001  -0.000000 -0.000000 0.645758
21  4.220528 -0.244853 -0.431466  0.001333 0.026242 0.148339
22  1.350419 0.000002 0.000003  0.000000 -0.000000 0.863926
23  1.350408 -0.000005 -0.000004  -0.000000 0.000000 0.863926
24  -1.885226 0.863614 -2.731758  -0.780270 1.456827 1.926635
25  4.640936 -0.000003 -0.000017  0.815316 -0.544098 -1.004498
26  10.828048 0.000003 0.000017  0.372594 -1.232925 -0.552316
27  9.393347 0.000007 -0.000003  1.046902 -0.119173 0.046355
28  1.442247 0.107455 1.746182  -1.686405 -0.539236 0.325898
29  1.063452 -0.000009 0.000001  -0.000000 0.000000 0.199056
30  1.376309 0.000010 0.000002  -0.000000 0.000000 0.199059
31  4.172847 -0.251365 1.312750  -0.008050 -0.095731 0.148659
32  1.215373 0.000000 -0.000003  0.000000 0.000000 0.645746
33  1.215371 0.000001 0.000007  0.000000 0.000000 0.645746
34  4.220531 -0.244855 0.431475  -0.001333 -0.026242 0.148339
35  1.350411 -0.000002 -0.000002  -0.000000 -0.000000 0.863937
36  1.350410 -0.000001 0.000001  -0.000000 0.000000 0.863925
37  4.262827 -0.232720 -1.392171  0.016840 0.076668 0.253759
38  2.110543 0.000000 -0.000000  0.002725 -0.010403 -0.162052
39  0.891924 2.373049 -0.014527  -3.141592 -0.000001 1.413797
40  7.228114 5.709445 3.726568  3.140796 -1.570796 0.000000
41  2.450434 5.076126 0.001325  3.140791 -1.570796 0.000000
42  6.312411 -4.528059 0.001311  3.140791 -1.570796 0.000000
43  2.233310 1.152536 -7.309137  -1.140138 -1.556525 -0.884450
44  3.061500 2.842763 2.243589  0.000000 -0.000000 1.570796
time 5
0  1.524448 6.791367 38.274296  0.000000 -0.000000 -1.701715
1  0.074548 -0.136723 0.000000  -1.570795 -1.570451 -0.000000
2  0.000001 0.000008 4.427392  -0.169695 3.137303 -0.005864
3  18.465939 -0.000000 -0.000000  0.000000 0.000000 -0.424672
4  14.875443 -0.000002 0.000001  0.017472 0.011563 0.402268
5  0.000001 -0.000003 -4.427393  0.107166 3.102417 -0.363360
6  18.465942 -0.000001 -0.000001  -0.000000 -0.000000 -0.389608
7  14.875441 0.000000 -0.000001  -0.000801 -0.001603 0.024279
8  2.255213 -0.007574 0.000003  0.122101 -0.018265 0.005693
9  9.514216 -0.009356 -0.000000  -0.008779 0.002392 -0.092352
10  11.752186 -0.001498 -0.000000  0.000024 0.043599 0.440031
11  -2.111793 0.863598 2.563791  0.511142 -1.383966 2.193107
12  4.640939 0.000001 0.000003  0.003415 1.230669 -0.279848
13  10.828055 -0.000001 -0.000006  -0.006217 -0.069509 -0.643807
14  9.393344 -0.000005 0.000010  1.939538 0.008013 0.055012
15  1.442241 0.107458 -1.746179  1.686435 0.539209 0.325885
16  1.063451 -0.000001 0.000004  0.000000 0.000000 0.199056
17  1.376310 -0.000000 0.000004  0.000000 -0.000000 0.199049
18  4.172839 -0.251364 -1.312743  0.008050 0.095731 0.148659
19  1.215372 0.000004 0.000001  0.000000 -0.000000 0.645758
20  1.215371 0.000002 -0.000001  -0.000000 -0.000000 0.645758
21  4.220528 -0.244853 -0.431463  0.001333 0.026242 0.148339
22  1.350422 0.000004 0.000002  0.000000 -0.000000 0.863926
23  1.350409 -0.000002 -0.000002  0.000000 -0.000000 0.863926
24  -1.885229 0.863613 -2.731759  -0.737780 1.455042 1.969025
25  4.640936 -0.000002 -0.000009  0.803195 -0.538378 -1.002490
26  10.828043 0.000000 0.000010  0.372594 -1.232925 -0.552316
27  9.393347 0.000011 0.000000  1.046902 -0.119173 0.046355
28  1.442241 0.107453 1.746172  -1.686405 -0.539236 0.325898
29  1.063452 -0.000001 -0.000000  -0.000000 0.000000 0.199056
30  1.376309 -0.000002 0.000000  -0.000000 -0.000000 0.199059
31  4.172842 -0.251365 1.312743  -0.008050 -0.095731 0.148659
32  1.215379 0.000001 -0.000001  0.000000 0.000000 0.645746
33  1.215375 0.000001 0.000004  0.000000 0.000000 0.645746
34  4.220522 -0.244858 0.431472  -0.001333 -0.026242 0.148339
35  1.350413 -0.000002 -0.000012  -0.000000 -0.000000 0.863937
36  1.350409 -0.000000 -0.000007  0.000000 0.000000 0.863925
37  4.262823 -0.232722 -1.392181  0.016840 0.076668 0.253759
38  2.110535 -0.000001 -0.000001  0.002828 -0.010343 -0.164359
39  0.891923 2.373051 -0.014527  -3.141592 -0.000001 1.413797
40  7.228108 5.709445 3.726568  3.140796 -1.570796 0.000000
41  2.450424 5.076128 0.001325  3.140791 -1.570796 0.000000
42  6.312403 -4.528058 0.001311  3.140791 -1.570796 0.000000
43  2.233309 1.152536 -7.309137  -1.140137 -1.554981 -0.884450
44  3.061500 2.842763 2.243589  0.000000 -0.000000 1.570796
time 6
0  1.481478 6.791367 38.274296  0.000000 -0.000000 -1.701715
1  0.055016 -0.140629 0.000004  -1.570795 -1.570451 -0.000000
2  -0.000000 0.000008 4.427392  -0.169504 3.138818 -0.007294
3  18.465944 -0.000000 -0.000001  -0.000000 -0.000000 -0.426354
4  14.875443 -0.000001 0.000000  0.017223 0.010286 0.402268
5  -0.000000 -0.000002 -4.427393  0.107454 3.103852 -0.363547
6  18.465937 0.000000 -0.000000  -0.000000 -0.000000 -0.388492
7  14.875441 0.000000 0.000001  -0.000520 -0.003058 0.023116
8  2.255212 -0.007574 0.000003  0.122101 -0.018462 0.007248
9  9.514227 -0.009356 -0.000000  -0.008779 0.002392 -0.091572
10  11.752198 -0.001497 0.000000  0.000024 0.043599 0.440031
11  -2.111793 0.863596 2.563792  0.473984 -1.380693 2.230348
12  4.640938 0.000001 0.000010  0.003415 1.230668 -0.279847
13  10.828054 -0.000000 -0.000005  -0.006217 -0.069509 -0.643807
14  9.393343 -0.000002 0.000011  1.939538 0.008013 0.055012
15  1.442244 0.107457 -1.746178  1.686435 0.539209 0.325885
16  1.063449 -0.000000 0.000008  0.000000 0.000000 0.199056
17  1.376306 -0.000001 0.000004  -0.000000 -0.000000 0.199049
18  4.172842 -0.251364 -1.312743  0.008050 0.095731 0.148659
19  1.215370 0.000005 0.000001  0.000000 -0.000000 0.645758
20  1.215370 0.000002 0.000000  -0.000000 -0.000000 0.645758
21  4.220528 -0.244852 -0.431462  0.001333 0.026242 0.148339
22  1.350418 0.000002 0.000001  -0.000000 -0.000000 0.863926
23  1.350408 -0.000003 -0.000004  0.000000 0.000000 0.863926
24  -1.885226 0.863612 -2.731758  -0.696680 1.453075 2.010134
25  4.640936 -0.000003 -0.000011  0.789824 -0.532052 -1.000280
26  10.828046 0.000003 0.000009  0.372594 -1.232925 -0.552316
27  9.393347 0.000006 -0.000001  1.046902 -0.119173 0.046355
28  1.442245 0.107456 1.746174  -1.686405 -0.539236 0.325898
29  1.063452 -0.000004 0.000001  -0.000000 -0.000000 0.199056
30  1.376309 0.000003 0.000001  -0.000000 0.000000 0.199059
31  4.172843 -0.251364 1.312747  -0.008050 -0.095731 0.148659
32  1.215371 -0.000001 -0.000002  0.000000 0.000000 0.645746
33  1.215376 0.000001 0.000009  0.000000 -0.000000 0.645746
34  4.220527 -0.244855 0.431471  -0.001333 -0.026242 0.148339
35  1.350413 -0.000002 -0.000003  -0.000000 -0.000000 0.863937
36  1.350408 -0.000000 0.000001  0.000000 0.000000 0.863925
37  4.262827 -0.232720 -1.392178  0.016840 0.076668 0.253759
38  2.110536 -0.000002 -0.000000  0.002879 -0.010312 -0.166667
39  0.891916 2.373051 -0.014527  -3.141592 -0.000001 1.413797
40  7.228119 5.709445 3.726568  3.140796 -1.570796 0.000000
41  2.450432 5.076127 0.001325  3.140791 -1.570796 0.000000
42  6.312414 -4.528057 0.001311  3.140791 -1.570796 0.000000
43  2.233308 1.152536 -7.309137  -1.140042 -1.553438 -0.884450
44  3.061500 2.842763 2.243589  0.000000 -0.000000 1.570796
time 7
0  1.438508 6.791367 38.274296  0.000000 -0.000000 -1.701715
1  0.035485 -0.140629 0.000000  -1.570795 -1.570451 -0.000000
2  -0.000001 0.000008 4.427392  -0.169216 3.140333 -0.008724
3  18.465940 -0.000001 -0.000000  0.000000 0.000000 -0.427962
4  14.875445 0.000000 -0.000000  0.017010 0.009030 0.402268
5  -0.000001 -0.000002 -4.427393  0.107741 3.105287 -0.363734
6  18.465948 -0.000002 -0.000001  0.000000 -0.000000 -0.387377
7  14.875443 0.000000 -0.000000  -0.000240 -0.004513 0.021991
8  2.255211 -0.007574 0.000003  0.122101 -0.018638 0.008737
9  9.514221 -0.009356 -0.000000  -0.008742 0.002406 -0.090836
10  11.752192 -0.001498 -0.000000  0.000024 0.043599 0.440031
11  -2.111797 0.863595 2.563791  0.438827 -1.377243 2.265579
12  4.640941 0.000000 0.000003  0.003415 1.230668 -0.279847
13  10.828053 -0.000002 -0.000008  -0.006217 -0.069509 -0.643807
14  9.393343 -0.000006 0.000009  1.939538 0.008013 0.055012
15  1.442241 0.107456 -1.746179  1.686435 0.539209 0.325885
16  1.063451 -0.000002 0.000005  0.000000 -0.000000 0.199056
17  1.376309 0.000000 0.000003  0.000000 -0.000000 0.199049
18  4.172838 -0.251364 -1.312744  0.008050 0.095731 0.148659
19  1.215373 0.000002 0.000002  -0.000000 -0.000000 0.645758
20  1.215370 0.000005 0.000002  -0.000000 -0.000000 0.645758
21  4.220528 -0.244854 -0.431463  0.001333 0.026242 0.148339
22  1.350419 0.000003 -0.000001  -0.000000 0.000000 0.863926
23  1.350408 -0.000003 -0.000003  0.000000 0.000000 0.863926
24  -1.885229 0.863610 -2.731758  -0.657802 1.450957 2.048935
25  4.640936 -0.000003 -0.000016  0.775724 -0.525362 -0.997954
26  10.828045 0.000004 0.000005  0.372594 -1.232925 -0.552316
27  9.393343 0.000003 0.000000  1.046902 -0.119173 0.046355
28  1.442245 0.107455 1.746175  -1.686405 -0.539236 0.325898
29  1.063452 -0.000007 -0.000002  -0.000000 0.000000 0.199056
30  1.376307 0.000004 0.000000  -0.000000 -0.000000 0.199059
31  4.172844 -0.251364 1.312747  -0.008050 -0.095731 0.148659
32  1.215374 0.000000 -0.000006  0.000000 -0.000000 0.645746
33  1.215374 0.000001 0.000006  0.000000 0.000000 0.645746
34  4.220530 -0.244856 0.431471  -0.001333 -0.026242 0.148339
35  1.350411 -0.000003 -0.000010  -0.000000 -0.000000 0.863937
36  1.350408 0.000002 -0.000010  0.000000 0.000000 0.863925
37  4.262826 -0.232720 -1.392179  0.016840 0.076668 0.253759
38  2.110534 -0.000002 -0.000000  0.002982 -0.010282 -0.168974
39  0.891922 2.373049 -0.014527  -3.141592 -0.000001 1.413797
40  7.228117 5.709445 3.726568  3.140796 -1.570796 0.000000
41  2.450426 5.076128 0.001325  3.140791 -1.570796 0.000000
42  6.312401 -4.528056 0.001311  3.140791 -1.570796 0.000000
43  2.233307 1.152536 -7.309138  -1.140138 -1.551923 -0.884450
44  3.061500 2.842763 2.243589  0.000000 -0.000000 1.570796
time 8
0  1.395538 6.791367 38.274296  0.000000 -0.000000 -1.701715
1  0.015953 -0.144536 0.000004  -1.570795 -1.570451 -0.000000
2  0.000002 0.000008 4.427393  -0.168929 -3.141337 -0.010058
3  18.465948 -0.000001 -0.000000  -0.000000 0.000000 -0.429497
4  14.875443 -0.000002 0.000001  0.016832 0.007838 0.402229
5  0.000002 -0.000003 -4.427392  0.107933 3.106722 -0.363922
6  18.465944 -0.000004 -0.000001  0.000000 -0.000000 -0.386326
7  14.875443 0.000000 0.000000  0.000006 -0.005907 0.020865
8  2.255214 -0.007574 0.000003  0.122101 -0.018815 0.010193
9  9.514213 -0.009356 -0.000000  -0.008742 0.002406 -0.090100
10  11.752198 -0.001498 -0.000000  0.000024 0.043599 0.440031
11  -2.111793 0.863597 2.563792  0.406243 -1.373718 2.298225
12  4.640940 0.000001 0.000008  0.003415 1.230668 -0.279847
13  10.828053 -0.000001 -0.000005  -0.006217 -0.069509 -0.643807
14  9.393344 -0.000003 0.000007  1.939538 0.008013 0.055012
15  1.442241 0.107457 -1.746178  1.686435 0.539209 0.325885
16  1.063455 -0.000001 0.000001  -0.000000 -0.000000 0.199056
17  1.376309 -0.000000 0.000004  0.000000 -0.000000 0.199049
18  4.172841 -0.251365 -1.312742  0.008050 0.095731 0.148659
19  1.215375 0.000005 -0.000001  0.000000 0.000000 0.645758
20  1.215372 -0.000000 0.000001  -0.000000 -0.000000 0.645758
21  4.220527 -0.244853 -0.431460  0.001333 0.026242 0.148339
22  1.350420 0.000004 0.000001  -0.000000 0.000000 0.863926
23  1.350407 -0.000007 -0.000003  0.000000 0.000000 0.863926
24  -1.885225 0.863613 -2.731759  -0.621885 1.448748 2.084915
25  4.640935 -0.000003 -0.000008  0.761411 -0.518553 -0.995598
26  10.828045 0.000006 0.000005  0.372594 -1.232925 -0.552316
27  9.393342 0.000007 -0.000001  1.046902 -0.119173 0.046355
28  1.442242 0.107453 1.746174  -1.686405 -0.539236 0.325898
29  1.063452 -0.000004 -0.000000  0.000000 0.000000 0.199056
30  1.376309 -0.000001 0.000002  -0.000000 -0.000000 0.199059
31  4.172843 -0.251364 1.312743  -0.008050 -0.095731 0.148659
32  1.215373 0.000000 -0.000001  0.000000 -0.000000 0.645746
33  1.215374 0.000001 0.000005  -0.000000 0.000000 0.645746
34  4.220526 -0.244855 0.431464  -0.001333 -0.026242 0.148339
35  1.350411 -0.000001 -0.000005  -0.000000 -0.000000 0.863937
36  1.350407 0.000000 0.000001  0.000000 0.000000 0.863925
37  4.262825 -0.232721 -1.392182  0.016840 0.076668 0.253759
38  2.110535 0.000000 -0.000001  0.003034 -0.010252 -0.171140
39  0.891924 2.373049 -0.014527  -3.141592 -0.000001 1.413797
40  7.228116 5.709445 3.726569  3.140796 -1.570796 0.000000
41  2.450422 5.076128 0.001325  3.140791 -1.570796 0.000000
42  6.312399 -4.528058 0.001311  3.140791 -1.570796 0.000000
43  2.233310 1.152536 -7.309137  -1.140138 -1.550467 -0.884450
44  3.061500 2.842763 2.243589  0.000000 -0.000000 1.570796
time 9
0  1.356474 6.791367 38.274296  0.000000 -0.000000 -1.701715
1  0.000327 -0.148442 0.000000  -1.570795 -1.570451 -0.000000
2  0.000002 0.000007 4.427392  -0.168737 -3.140011 -0.011297
3  18.465942 -0.000001 -0.000000  0.000000 0.000000 -0.430886
4  14.875445 -0.000001 0.000000  0.016619 0.006710 0.402189
5  0.000002 -0.000003 -4.427393  0.108220 3.107965 -0.364015
6  18.465944 -0.000003 -0.000001  0.000000 -0.000000 -0.385276
7  14.875443 -0.000000 0.000001  0.000252 -0.007211 0.019815
8  2.255214 -0.007574 0.000003  0.122101 -0.018992 0.011516
9  9.514220 -0.009356 -0.000000  -0.008742 0.002419 -0.089429
10  11.752192 -0.001498 -0.000000  0.000024 0.043599 0.440031
11  -2.111798 0.863598 2.563792  0.376803 -1.370242 2.327616
12  4.640939 0.000001 0.000008  0.003415 1.230668 -0.279847
13  10.828055 -0.000001 -0.000005  -0.006218 -0.069509 -0.643807
14  9.393337 -0.000004 0.000009  1.939538 0.008013 0.055012
15  1.442245 0.107456 -1.746179  1.686435 0.539209 0.325885
16  1.063451 -0.000002 0.000007  0.000000 0.000000 0.199056
17  1.376305 0.000000 0.000004  -0.000000 0.000000 0.199049
18  4.172842 -0.251366 -1.312740  0.008050 0.095731 0.148659
19  1.215371 0.000007 -0.000003  0.000000 -0.000000 0.645758
20  1.215369 0.000002 0.000004  0.000000 -0.000000 0.645758
21  4.220532 -0.244854 -0.431464  0.001333 0.026242 0.148339
22  1.350418 0.000003 0.000002  -0.000000 0.000000 0.863926
23  1.350408 -0.000004 -0.000001  0.000000 0.000000 0.863926
24  -1.885231 0.863611 -2.731759  -0.589394 1.446538 2.117306
25  4.640935 -0.000004 -0.000016  0.747394 -0.511866 -0.993295
26  10.828046 0.000003 0.000007  0.372594 -1.232925 -0.552316
27  9.393343 0.000006 -0.000001  1.046902 -0.119173 0.046355
28  1.442245 0.107456 1.746174  -1.686405 -0.539236 0.325898
29  1.063451 -0.000005 0.000001  0.000000 -0.000000 0.199056
30  1.376309 -0.000002 0.000001  -0.000000 0.000000 0.199059
31  4.172845 -0.251363 1.312743  -0.008050 -0.095731 0.148659
32  1.215374 -0.000001 -0.000002  0.000000 0.000000 0.645746
33  1.215375 -0.000000 0.000001  -0.000000 0.000000 0.645746
34  4.220527 -0.244855 0.431469  -0.001333 -0.026242 0.148339
35  1.350410 -0.000002 -0.000012  -0.000000 -0.000000 0.863937
36  1.350406 0.000002 -0.000001  0.000000 0.000000 0.863925
37  4.262826 -0.232719 -1.392183  0.016840 0.076668 0.253759
38  2.110532 -0.000000 -0.000001  0.003136 -0.010222 -0.173164
39  0.891920 2.373049 -0.014527  -3.141592 -0.000001 1.413797
40  7.228117 5.709445 3.726568  3.140796 -1.570796 0.000000
41  2.450431 5.076127 0.001325  3.140791 -1.570796 0.000000
42  6.312405 -4.528059 0.001311  3.140791 -1.570796 0.000000
43  2.233310 1.152536 -7.309138  -1.140137 -1.549098 -0.884450
44  3.061500 2.842763 2.243589  0.000000 -0.000000 1.570796
time 10
0  1.321317 6.791367 38.274296  0.000000 -0.000000 -1.701715
1  -0.015298 -0.148442 0.000004  -1.570795 -1.570451 -0.000000
2  -0.000002 0.000008 4.427392  -0.168545 -3.138780 -0.012441
3  18.465940 -0.000000 0.000000  -0.000000 0.000000 -0.432129
4  14.875445 0.000000 0.000000  0.016441 0.005688 0.402150
5  -0.000002 -0.000002 -4.427393  0.108412 3.109209 -0.364202
6  18.465944 -0.000001 -0.000000  0.000000 -0.000000 -0.384292
7  14.875441 0.000000 0.000000  0.000462 -0.008393 0.018839
8  2.255210 -0.007574 0.000003  0.122101 -0.019129 0.012774
9  9.514225 -0.009356 0.000000  -0.008742 0.002419 -0.088801
10  11.752194 -0.001498 0.000000  0.000024 0.043599 0.440031
11  -2.111799 0.863596 2.563792  0.350983 -1.366944 2.353369
12  4.640939 0.000001 0.000008  0.003415 1.230669 -0.279847
13  10.828053 -0.000002 -0.000005  -0.006217 -0.069509 -0.643807
14  9.393341 -0.000005 0.000006  1.939538 0.008013 0.055012
15  1.442243 0.107457 -1.746178  1.686435 0.539209 0.325885
16  1.063451 -0.000001 0.000002  0.000000 0.000000 0.199056
17  1.376310 -0.000001 0.000004  -0.000000 -0.000000 0.199049
18  4.172842 -0.251364 -1.312744  0.008050 0.095731 0.148659
19  1.215373 0.000004 -0.000000  0.000000 -0.000000 0.645758
20  1.215368 0.000002 0.000002  0.000000 0.000000 0.645758
21  4.220533 -0.244857 -0.431467  0.001333 0.026242 0.148339
22  1.350420 0.000003 0.000002  -0.000000 -0.000000 0.863926
23  1.350406 -0.000008 -0.000003  0.000000 0.000000 0.863926
24  -1.885229 0.863611 -2.731758  -0.560883 1.444420 2.145766
25  4.640936 -0.000003 -0.000017  0.734176 -0.505545 -0.991126
26  10.828049 0.000001 0.000014  0.372594 -1.232925 -0.552316
27  9.393343 0.000008 -0.000002  1.046902 -0.119173 0.046355
28  1.442241 0.107455 1.746177  -1.686405 -0.539236 0.325898
29  1.063452 -0.000007 -0.000002  0.000000 -0.000000 0.199056
30  1.376312 0.000006 0.000001  -0.000000 0.000000 0.199059
31  4.172843 -0.251364 1.312744  -0.008050 -0.095731 0.148659
32  1.215376 0.000001 -0.000001  0.000000 0.000000 0.645746
33  1.215374 -0.000000 0.000001  0.000000 -0.000000 0.645746
34  4.220527 -0.244855 0.431469  -0.001333 -0.026242 0.148339
35  1.350410 -0.000002 -0.000010  -0.000000 0.000000 0.863937
36  1.350410 -0.000002 -0.000003  -0.000000 0.000000 0.863925
37  4.262825 -0.232720 -1.392181  0.016840 0.076668 0.253759
38  2.110533 -0.000000 -0.000000  0.003188 -0.010192 -0.175048
39  0.891920 2.373050 -0.014527  -3.141592 -0.000001 1.413797
40  7.228118 5.709445 3.726568  3.140796 -1.570796 0.000000
41  2.450428 5.076127 0.001325  3.140791 -1.570796 0.000000
42  6.312407 -4.528058 0.001311  3.140791 -1.570796 0.000000
43  2.233306 1.152536 -7.309138  -1.140137 -1.547875 -0.884450
44  3.061500 2.842763 2.243589  0.000000 -0.000000 1.570796
time 11
0  1.293972 6.791367 38.274296  0.000000 -0.000000 -1.701715
1  -0.030924 -0.148442 0.000004  -1.570795 -1.570451 -0.000000
2  0.000002 0.000008 4.427392  -0.168354 -3.137738 -0.013394
3  18.465942 0.000000 0.000000  -0.000000 0.000000 -0.433226
4  14.875441 -0.000004 0.000001  0.016263 0.004794 0.402110
5  0.000002 -0.000003 -4.427392  0.108604 3.110165 -0.364296
6  18.465942 -0.000000 -0.000001  -0.000000 -0.000000 -0.383438
7  14.875445 0.000000 -0.000001  0.000673 -0.009424 0.017976
8  2.255214 -0.007574 0.000003  0.122059 -0.019267 0.013833
9  9.514218 -0.009356 -0.000000  -0.008742 0.002419 -0.088260
10  11.752192 -0.001497 -0.000000  0.000024 0.043599 0.440031
11  -2.111793 0.863600 2.563792  0.329069 -1.363947 2.375292
12  4.640940 0.000001 0.000004  0.003415 1.230668 -0.279848
13  10.828050 -0.000001 -0.000006  -0.006217 -0.069509 -0.643807
14  9.393337 -0.000008 0.000008  1.939538 0.008013 0.055012
15  1.442240 0.107459 -1.746177  1.686435 0.539209 0.325885
16  1.063452 -0.000001 0.000002  -0.000000 -0.000000 0.199056
17  1.376307 -0.000001 0.000000  -0.000000 -0.000000 0.199049
18  4.172838 -0.251364 -1.312740  0.008050 0.095731 0.148659
19  1.215372 0.000004 -0.000002  -0.000000 0.000000 0.645758
20  1.215371 0.000002 0.000001  0.000000 -0.000000 0.645758
21  4.220529 -0.244855 -0.431463  0.001333 0.026242 0.148339
22  1.350419 0.000006 0.000001  -0.000000 0.000000 0.863926
23  1.350409 -0.000007 -0.000000  0.000000 0.000000 0.863926
24  -1.885224 0.863613 -2.731758  -0.536815 1.442483 2.169867
25  4.640936 -0.000003 -0.000012  0.722256 -0.499830 -0.989173
26  10.828046 -0.000000 -0.000000  0.372594 -1.232925 -0.552316
27  9.393347 0.000008 -0.000001  1.046902 -0.119173 0.046355
28  1.442244 0.107456 1.746171  -1.686405 -0.539236 0.325898
29  1.063452 -0.000010 0.000001  -0.000000 0.000000 0.199056
30  1.376308 0.000004 0.000001  -0.000000 0.000000 0.199059
31  4.172843 -0.251364 1.312740  -0.008050 -0.095731 0.148659
32  1.215375 -0.000002 0.000004  0.000000 -0.000000 0.645746
33  1.215375 0.000000 0.000006  -0.000000 0.000000 0.645746
34  4.220525 -0.244856 0.431468  -0.001333 -0.026242 0.148339
35  1.350409 -0.000002 -0.000008  -0.000000 -0.000000 0.863937
36  1.350410 -0.000003 -0.000008  0.000000 0.000000 0.863925
37  4.262823 -0.232721 -1.392183  0.016840 0.076668 0.253759
38  2.110544 -0.000001 -0.000000  0.003239 -0.010162 -0.176649
39  0.891926 2.373049 -0.014527  -3.141592 -0.000001 1.413797
40  7.228116 5.709446 3.726568  3.140796 -1.570796 0.000000
41  2.450423 5.076128 0.001325  3.140791 -1.570796 0.000000
42  6.312400 -4.528058 0.001311  3.140791 -1.570796 0.000000
43  2.233310 1.152536 -7.309137  -1.140138 -1.546797 -0.884450
44  3.061500 2.842763 2.243589  0.000000 -0.000000 1.570796
time 12
0  1.266628 6.791367 38.274296  0.000000 -0.000000 -1.701715
1  -0.042644 -0.152348 0.000004  -1.570795 -1.570451 -0.000000
2  -0.000001 0.000008 4.427392  -0.168162 -3.136886 -0.014157
3  18.465948 -0.000001 -0.000000  0.000000 0.000000 -0.434103
4  14.875447 -0.000001 0.000000  0.016121 0.004049 0.402031
5  -0.000001 -0.000003 -4.427393  0.108795 3.111026 -0.364389
6  18.465944 -0.000003 -0.000001  -0.000000 -0.000000 -0.382716
7  14.875443 0.000000 0.000001  0.000813 -0.010303 0.017264
8  2.255211 -0.007574 0.000003  0.122059 -0.019385 0.014726
9  9.514223 -0.009357 0.000000  -0.008742 0.002433 -0.087827
10  11.752189 -0.001498 0.000000  0.000024 0.043599 0.440031
11  -2.111794 0.863599 2.563792  0.311348 -1.361379 2.392908
12  4.640938 0.000001 0.000013  0.003415 1.230668 -0.279847
13  10.828051 -0.000002 -0.000007  -0.006217 -0.069509 -0.643807
14  9.393338 -0.000004 0.000010  1.939538 0.008013 0.055012
15  1.442238 0.107456 -1.746174  1.686435 0.539209 0.325885
16  1.063453 -0.000002 0.000006  0.000000 -0.000000 0.199056
17  1.376307 -0.000002 0.000003  0.000000 -0.000000 0.199049
18  4.172841 -0.251368 -1.312743  0.008050 0.095731 0.148659
19  1.215372 0.000008 0.000001  0.000000 -0.000000 0.645758
20  1.215371 0.000001 -0.000000  -0.000000 -0.000000 0.645758
21  4.220530 -0.244856 -0.431464  0.001333 0.026242 0.148339
22  1.350423 0.000002 0.000001  -0.000000 0.000000 0.863926
23  1.350408 -0.000011 -0.000005  -0.000000 -0.000000 0.863926
24  -1.885227 0.863616 -2.731759  -0.517376 1.440849 2.189268
25  4.640937 -0.000003 -0.000016  0.712127 -0.494964 -0.987515
26  10.828048 0.000003 0.000009  0.372594 -1.232925 -0.552316
27  9.393343 -0.000004 0.000000  1.046902 -0.119173 0.046355
28  1.442246 0.107455 1.746178  -1.686405 -0.539236 0.325898
29  1.063452 -0.000005 0.000001  -0.000000 0.000000 0.199056
30  1.376309 0.000000 0.000002  -0.000000 0.000000 0.199059
31  4.172846 -0.251364 1.312744  -0.008050 -0.095731 0.148659
32  1.215376 0.000001 -0.000001  -0.000000 -0.000000 0.645746
33  1.215375 0.000000 0.000004  0.000000 0.000000 0.645746
34  4.220530 -0.244856 0.431471  -0.001333 -0.026242 0.148339
35  1.350409 -0.000002 -0.000005  -0.000000 -0.000000 0.863937
36  1.350407 0.000001 -0.000001  0.000000 0.000000 0.863925
37  4.262827 -0.232720 -1.392178  0.016840 0.076668 0.253759
38  2.110537 0.000002 -0.000000  0.003291 -0.010162 -0.177967
39  0.891921 2.373048 -0.014527  -3.141592 -0.000001 1.413797
40  7.228114 5.709445 3.726568  3.140796 -1.570796 0.000000
41  2.450428 5.076127 0.001325  3.140791 -1.570796 0.000000
42  6.312409 -4.528057 0.001311  3.140791 -1.570796 0.000000
43  2.233307 1.152536 -7.309138  -1.140137 -1.545894 -0.884450
44  3.061500 2.842763 2.243589  0.000000 -0.000000 1.570796
time 13
0  1.247096 6.791367 38.274296  0.000000 -0.000000 -1.701715
1  -0.050456 -0.152348 0.000000  -1.570795 -1.570451 -0.000000
2  0.000001 0.000008 4.427392  -0.168066 -3.136224 -0.014729
3  18.465937 -0.000000 -0.000000  -0.000000 -0.000000 -0.434761
4  14.875445 -0.000003 0.000000  0.016014 0.003496 0.401992
5  0.000001 -0.000002 -4.427392  0.108891 3.111696 -0.364389
6  18.465942 -0.000002 -0.000001  -0.000000 -0.000000 -0.382126
7  14.875444 0.000000 0.000001  0.000919 -0.010939 0.016738
8  2.255213 -0.007574 0.000003  0.122059 -0.019463 0.015388
9  9.514224 -0.009356 -0.000000  -0.008742 0.002433 -0.087481
10  11.752193 -0.001498 -0.000000  0.000024 0.043599 0.440031
11  -2.111796 0.863595 2.563792  0.298295 -1.359414 2.405928
12  4.640940 0.000001 0.000008  0.003415 1.230669 -0.279848
13  10.828057 -0.000000 -0.000007  -0.006217 -0.069509 -0.643807
14  9.393341 -0.000005 0.000009  1.939538 0.008013 0.055012
15  1.442241 0.107458 -1.746176  1.686435 0.539209 0.325885
16  1.063452 -0.000000 0.000001  0.000000 0.000000 0.199056
17  1.376307 0.000000 -0.000000  0.000000 -0.000000 0.199049
18  4.172841 -0.251363 -1.312742  0.008050 0.095731 0.148659
19  1.215374 0.000006 -0.000003  0.000000 -0.000000 0.645758
20  1.215372 -0.000001 0.000002  -0.000000 -0.000000 0.645758
21  4.220531 -0.244853 -0.431463  0.001333 0.026242 0.148339
22  1.350420 0.000000 0.000000  0.000000 -0.000000 0.863926
23  1.350407 -0.000003 -0.000001  0.000000 0.000000 0.863926
24  -1.885231 0.863611 -2.731758  -0.503028 1.439548 2.203540
25  4.640938 -0.000003 -0.000005  0.704283 -0.491190 -0.986231
26  10.828048 0.000003 0.000012  0.372594 -1.232925 -0.552316
27  9.393337 0.000005 0.000000  1.046902 -0.119173 0.046355
28  1.442247 0.107455 1.746175  -1.686405 -0.539236 0.325898
29  1.063452 -0.000004 -0.000000  0.000000 0.000000 0.199056
30  1.376309 -0.000005 0.000002  -0.000000 0.000000 0.199059
31  4.172847 -0.251364 1.312743  -0.008050 -0.095731 0.148659
32  1.215377 -0.000000 -0.000002  0.000000 -0.000000 0.645746
33  1.215374 0.000001 0.000002  0.000000 -0.000000 0.645746
34  4.220529 -0.244855 0.431469  -0.001333 -0.026242 0.148339
35  1.350411 -0.000001 -0.000006  -0.000000 -0.000000 0.863937
36  1.350407 0.000001 -0.000000  0.000000 0.000000 0.863925
37  4.262827 -0.232720 -1.392177  0.016840 0.076668 0.253759
38  2.110535 -0.000004 -0.000000  0.003342 -0.010132 -0.179003
39  0.891930 2.373047 -0.014526  -3.141592 -0.000001 1.413797
40  7.228113 5.709444 3.726568  3.140796 -1.570796 0.000000
41  2.450436 5.076127 0.001325  3.140791 -1.570796 0.000000
42  6.312407 -4.528056 0.001311  3.140791 -1.570796 0.000000
43  2.233309 1.152536 -7.309137  -1.140138 -1.545224 -0.884450
44  3.061500 2.842763 2.243589  0.000000 -0.000000 1.570796
time 14
0  1.235377 6.791367 38.274296  0.000000 -0.000000 -1.701715
1  -0.054363 -0.152348 0.000004  -1.570795 -1.570451 -0.000000
2  -0.000000 0.000008 4.427392  -0.167971 -3.135750 -0.015110
3  18.465946 -0.000000 0.000001  0.000000 0.000000 -0.435200
4  14.875446 -0.000002 -0.000000  0.015943 0.003134 0.401992
5  -0.000000 -0.000003 -4.427393  0.108987 3.112079 -0.364389
6  18.465940 -0.000003 -0.000000  -0.000000 -0.000000 -0.381797
7  14.875439 0.000000 0.000000  0.000954 -0.011364 0.016363
8  2.255212 -0.007574 0.000003  0.122059 -0.019503 0.015818
9  9.514225 -0.009356 0.000000  -0.008742 0.002433 -0.087264
10  11.752192 -0.001497 0.000000  0.000024 0.043599 0.440031
11  -2.111795 0.863597 2.563792  0.290101 -1.358130 2.414065
12  4.640939 0.000001 0.000006  0.003415 1.230669 -0.279848
13  10.828058 -0.000000 -0.000006  -0.006217 -0.069509 -0.643807
14  9.393338 -0.000007 0.000008  1.939538 0.008013 0.055012
15  1.442239 0.107454 -1.746177  1.686435 0.539209 0.325885
16  1.063452 -0.000001 0.000005  -0.000000 -0.000000 0.199056
17  1.376306 0.000000 0.000005  0.000000 -0.000000 0.199049
18  4.172837 -0.251367 -1.312742  0.008050 0.095731 0.148659
19  1.215372 0.000005 -0.000001  0.000000 -0.000000 0.645758
20  1.215371 0.000006 -0.000000  0.000000 -0.000000 0.645758
21  4.220529 -0.244858 -0.431465  0.001333 0.026242 0.148339
22  1.350419 0.000003 0.000002  -0.000000 0.000000 0.863926
23  1.350408 -0.000008 -0.000002  0.000000 0.000000 0.863926
24  -1.885224 0.863612 -2.731758  -0.494049 1.438731 2.212514
25  4.640935 -0.000004 -0.000013  0.699214 -0.488748 -0.985402
26  10.828043 -0.000000 0.000005  0.372594 -1.232925 -0.552316
27  9.393345 -0.000005 -0.000001  1.046902 -0.119173 0.046355
28  1.442246 0.107456 1.746175  -1.686405 -0.539236 0.325898
29  1.063452 -0.000002 0.000001  -0.000000 0.000000 0.199056
30  1.376309 -0.000000 0.000000  -0.000000 0.000000 0.199059
31  4.172846 -0.251364 1.312742  -0.008050 -0.095731 0.148659
32  1.215377 0.000001 0.000003  0.000000 0.000000 0.645746
33  1.215373 -0.000000 0.000004  0.000000 0.000000 0.645746
34  4.220530 -0.244855 0.431466  -0.001333 -0.026242 0.148339
35  1.350415 -0.000002 -0.000008  -0.000000 -0.000000 0.863937
36  1.350409 -0.000001 -0.000003  0.000000 0.000000 0.863925
37  4.262828 -0.232721 -1.392181  0.016840 0.076668 0.253759
38  2.110542 -0.000002 0.000000  0.003342 -0.010132 -0.179662
39  0.891922 2.373049 -0.014527  -3.141592 -0.000001 1.413797
40  7.228115 5.709446 3.726568  3.140796 -1.570796 0.000000
41  2.450435 5.076127 0.001325  3.140791 -1.570796 0.000000
42  6.312409 -4.528058 0.001311  3.140791 -1.570796 0.000000
43  2.233308 1.152536 -7.309137  -1.140137 -1.544788 -0.884450
44  3.061500 2.842763 2.243589  0.000000 -0.000000 1.570796
time 15
0  1.231470 6.791367 38.274296  0.000000 -0.000000 -1.701715
1  -0.058268 -0.152348 0.000000  -1.570795 -1.570451 -0.000000
2  -0.000001 0.000009 4.427392  -0.167875 -3.135655 -0.015301
3  18.465944 -0.000000 0.000000  -0.000000 0.000000 -0.435346
4  14.875443 -0.000002 0.000000  0.015908 0.003006 0.401952
5  -0.000001 -0.000003 -4.427393  0.109083 3.112270 -0.364483
6  18.465944 -0.000002 0.000000  -0.000000 -0.000000 -0.381666
7  14.875440 0.000000 0.000000  0.000989 -0.011515 0.016251
8  2.255211 -0.007574 0.000003  0.122059 -0.019522 0.015950
9  9.514221 -0.009356 0.000000  -0.008742 0.002433 -0.087199
10  11.752192 -0.001497 -0.000000  0.000024 0.043599 0.440031
11  -2.111794 0.863592 2.563792  0.287338 -1.357677 2.416937
12  4.640939 0.000001 0.000009  0.003415 1.230668 -0.279847
13  10.828062 -0.000000 -0.000006  -0.006217 -0.069509 -0.643807
14  9.393339 -0.000006 0.000007  1.939538 0.008013 0.055012
15  1.442240 0.107458 -1.746177  1.686435 0.539209 0.325885
16  1.063456 -0.000002 0.000003  0.000000 -0.000000 0.199056
17  1.376306 -0.000001 0.000006  0.000000 -0.000000 0.199049
18  4.172839 -0.251362 -1.312742  0.008050 0.095731 0.148659
19  1.215372 0.000006 -0.000002  0.000000 -0.000000 0.645758
20  1.215370 -0.000001 0.000002  0.000000 -0.000000 0.645758
21  4.220533 -0.244854 -0.431467  0.001333 0.026242 0.148339
22  1.350417 0.000001 0.000003  -0.000000 -0.000000 0.863926
23  1.350409 -0.000002 -0.000000  0.000000 0.000000 0.863926
24  -1.885232 0.863610 -2.731759  -0.490901 1.438428 2.215591
25  4.640935 -0.000002 -0.000015  0.697413 -0.487880 -0.985108
26  10.828047 0.000001 0.000014  0.372594 -1.232925 -0.552316
27  9.393346 0.000004 -0.000000  1.046902 -0.119173 0.046355
28  1.442250 0.107455 1.746180  -1.686405 -0.539236 0.325898
29  1.063452 -0.000003 -0.000000  -0.000000 0.000000 0.199056
30  1.376309 0.000000 -0.000000  -0.000000 0.000000 0.199059
31  4.172850 -0.251364 1.312749  -0.008050 -0.095731 0.148659
32  1.215378 0.000001 0.000004  -0.000000 -0.000000 0.645746
33  1.215377 -0.000001 -0.000004  0.000000 0.000000 0.645746
34  4.220535 -0.244856 0.431471  -0.001333 -0.026242 0.148339
35  1.350415 -0.000001 -0.000011  -0.000000 -0.000000 0.863937
36  1.350408 0.000001 -0.000005  -0.000000 0.000000 0.863925
37  4.262830 -0.232721 -1.392174  0.016840 0.076668 0.253759
38  2.110538 -0.000004 -0.000000  0.003342 -0.010132 -0.179851
39  0.891921 2.373049 -0.014527  -3.141592 -0.000001 1.413797
40  7.228114 5.709445 3.726568  3.140796 -1.570796 0.000000
41  2.450433 5.076127 0.001325  3.140791 -1.570796 0.000000
42  6.312406 -4.528057 0.001311  3.140791 -1.570796 0.000000
43  2.233307 1.152536 -7.309137  -1.140138 -1.544642 -0.884450
44  3.061500 2.842763 2.243589  0.000000 -0.000000 1.570796
time 16
0  1.235377 6.791367 38.274296  0.000000 -0.000000 -1.701715
1  -0.054363 -0.152348 0.000004  -1.570795 -1.570451 -0.000000
2  -0.000000 0.000008 4.427392  -0.167971 -3.135750 -0.015110
3  18.465946 -0.000000 0.000001  0.000000 0.000000 -0.435200
4  14.875446 -0.000002 -0.000000  0.015943 0.003134 0.401992
5  -0.000000 -0.000003 -4.427393  0.108987 3.112079 -0.364389
6  18.465940 -0.000003 -0.000000  -0.000000 -0.000000 -0.381797
7  14.875439 0.000000 0.000000  0.000954 -0.011364 0.016363
8  2.255212 -0.007574 0.000003  0.122059 -0.019503 0.015818
9  9.514225 -0.009356 0.000000  -0.008742 0.002433 -0.087264
10  11.752192 -0.001497 0.000000  0.000024 0.043599 0.440031
11  -2.111795 0.863597 2.563792  0.290101 -1.358130 2.414065
12  4.640939 0.000001 0.000006  0.003415 1.230669 -0.279848
13  10.828058 -0.000000 -0.000006  -0.006217 -0.069509 -0.643807
14  9.393338 -0.000007 0.000008  1.939538 0.008013 0.055012
15  1.442239 0.107454 -1.746177  1.686435 0.539209 0.325885
16  1.063452 -0.000001 0.000005  -0.000000 -0.000000 0.199056
17  1.376306 0.000000 0.000005  0.000000 -0.000000 0.199049
18  4.172837 -0.251367 -1.312742  0.008050 0.095731 0.148659
19  1.215372 0.000005 -0.000001  0.000000 -0.000000 0.645758
20  1.215371 0.000006 -0.000000  0.000000 -0.000000 0.645758
21  4.220529 -0.244858 -0.431465  0.001333 0.026242 0.148339
22  1.350419 0.000003 0.000002  -0.000000 0.000000 0.863926
23  1.350408 -0.000008 -0.000002  0.000000 0.000000 0.863926
24  -1.885224 0.863612 -2.731758  -0.494049 1.438731 2.212514
25  4.640935 -0.000004 -0.000013  0.699214 -0.488748 -0.985403
26  10.828044 -0.000000 0.000009  0.372594 -1.232925 -0.552316
27  9.393341 -0.000001 -0.000000  1.046902 -0.119173 0.046355
28  1.442246 0.107456 1.746175  -1.686405 -0.539236 0.325898
29  1.063453 -0.000002 0.000000  -0.000000 0.000000 0.199056
30  1.376309 -0.000000 0.000000  -0.000000 0.000000 0.199059
31  4.172846 -0.251364 1.312742  -0.008050 -0.095731 0.148659
32  1.215377 0.000001 0.000003  0.000000 0.000000 0.645746
33  1.215372 -0.000000 0.000004  0.000000 0.000000 0.645746
34  4.220530 -0.244855 0.431466  -0.001333 -0.026242 0.148339
35  1.350415 -0.000002 -0.000008  -0.000000 -0.000000 0.863937
36  1.350408 -0.000001 -0.000003  0.000000 0.000000 0.863925
37  4.262828 -0.232720 -1.392181  0.016840 0.076668 0.253759
38  2.110542 -0.000002 0.000000  0.003342 -0.010132 -0.179662
39  0.891922 2.373049 -0.014527  -3.141592 -0.000001 1.413797
40  7.228115 5.709446 3.726568  3.140796 -1.570796 0.000000
41  2.450435 5.076127 0.001325  3.140791 -1.570796 0.000000
42  6.312409 -4.528058 0.001311  3.140791 -1.570796 0.000000
43  2.233308 1.152536 -7.309137  -1.140137 -1.544788 -0.884450
44  3.061500 2.842763 2.243589  0.000000 -0.000000 1.570796
time 17
0  1.247096 6.791367 38.274296  0.000000 -0.000000 -1.701715
1  -0.050456 -0.152348 0.000000  -1.570795 -1.570451 -0.000000
2  0.000001 0.000008 4.427392  -0.168066 -3.136224 -0.014729
3  18.465937 -0.000000 -0.000000  -0.000000 -0.000000 -0.434761
4  14.875445 -0.000003 0.000000  0.016014 0.003496 0.401992
5  0.000001 -0.000002 -4.427392  0.108891 3.111696 -0.364389
6  18.465942 -0.000002 -0.000001  -0.000000 -0.000000 -0.382126
7  14.875444 0.000000 0.000001  0.000883 -0.010939 0.016738
8  2.255213 -0.007574 0.000003  0.122059 -0.019463 0.015388
9  9.514224 -0.009356 -0.000000  -0.008742 0.002433 -0.087481
10  11.752193 -0.001498 -0.000000  0.000024 0.043599 0.440031
11  -2.111796 0.863595 2.563792  0.298295 -1.359414 2.405928
12  4.640940 0.000001 0.000008  0.003415 1.230669 -0.279848
13  10.828057 -0.000000 -0.000007  -0.006217 -0.069509 -0.643807
14  9.393341 -0.000005 0.000009  1.939538 0.008013 0.055012
15  1.442241 0.107458 -1.746176  1.686435 0.539209 0.325885
16  1.063452 -0.000000 0.000001  0.000000 0.000000 0.199056
17  1.376307 0.000000 -0.000000  0.000000 -0.000000 0.199049
18  4.172841 -0.251363 -1.312742  0.008050 0.095731 0.148659
19  1.215374 0.000006 -0.000003  0.000000 -0.000000 0.645758
20  1.215372 -0.000001 0.000002  -0.000000 -0.000000 0.645758
21  4.220531 -0.244853 -0.431463  0.001333 0.026242 0.148339
22  1.350420 0.000000 0.000000  0.000000 -0.000000 0.863926
23  1.350407 -0.000003 -0.000001  0.000000 0.000000 0.863926
24  -1.885231 0.863611 -2.731758  -0.503028 1.439548 2.203540
25  4.640938 -0.000003 -0.000005  0.704283 -0.491190 -0.986231
26  10.828047 0.000003 0.000012  0.372594 -1.232925 -0.552316
27  9.393340 0.000009 -0.000000  1.046902 -0.119173 0.046355
28  1.442248 0.107457 1.746178  -1.686405 -0.539236 0.325898
29  1.063452 -0.000004 -0.000001  -0.000000 0.000000 0.199056
30  1.376310 0.000003 0.000001  -0.000000 0.000000 0.199059
31  4.172850 -0.251363 1.312743  -0.008050 -0.095731 0.148659
32  1.215377 0.000000 -0.000002  0.000000 -0.000000 0.645746
33  1.215375 0.000001 0.000002  0.000000 0.000000 0.645746
34  4.220532 -0.244854 0.431469  -0.001333 -0.026242 0.148339
35  1.350406 -0.000001 -0.000014  -0.000000 -0.000000 0.863937
36  1.350407 -0.000000 -0.000001  0.000000 0.000000 0.863925
37  4.262830 -0.232719 -1.392177  0.016840 0.076668 0.253759
38  2.110535 -0.000004 -0.000000  0.003342 -0.010132 -0.179003
39  0.891930 2.373047 -0.014526  -3.141592 -0.000001 1.413797
40  7.228113 5.709444 3.726568  3.140796 -1.570796 0.000000
41  2.450436 5.076127 0.001325  3.140791 -1.570796 0.000000
42  6.312407 -4.528056 0.001311  3.140791 -1.570796 0.000000
43  2.233309 1.152536 -7.309137  -1.140138 -1.545224 -0.884450
44  3.061500 2.842763 2.243589  0.000000 -0.000000 1.570796
time 18
0  1.266628 6.791367 38.274296  0.000000 -0.000000 -1.701715
1  -0.042644 -0.152348 0.000004  -1.570795 -1.570451 -0.000000
2  -0.000001 0.000008 4.427392  -0.168162 -3.136886 -0.014157
3  18.465948 -0.000001 -0.000000  0.000000 0.000000 -0.434103
4  14.875447 -0.000001 0.000000  0.016121 0.004049 0.402031
5  -0.000001 -0.000003 -4.427393  0.108795 3.111026 -0.364296
6  18.465948 -0.000002 -0.000001  -0.000000 -0.000000 -0.382716
7  14.875441 0.000000 0.000001  0.000813 -0.010303 0.017264
8  2.255211 -0.007574 0.000003  0.122059 -0.019385 0.014726
9  9.514223 -0.009357 0.000000  -0.008742 0.002433 -0.087827
10  11.752189 -0.001498 0.000000  0.000024 0.043599 0.440031
11  -2.111794 0.863599 2.563792  0.311348 -1.361379 2.392908
12  4.640938 0.000001 0.000013  0.003415 1.230668 -0.279847
13  10.828051 -0.000002 -0.000007  -0.006217 -0.069509 -0.643807
14  9.393338 -0.000004 0.000010  1.939538 0.008013 0.055012
15  1.442238 0.107456 -1.746174  1.686435 0.539209 0.325885
16  1.063453 -0.000002 0.000006  0.000000 -0.000000 0.199056
17  1.376307 -0.000002 0.000003  0.000000 -0.000000 0.199049
18  4.172841 -0.251368 -1.312743  0.008050 0.095731 0.148659
19  1.215372 0.000008 0.000001  0.000000 -0.000000 0.645758
20  1.215371 0.000001 -0.000000  -0.000000 -0.000000 0.645758
21  4.220530 -0.244856 -0.431464  0.001333 0.026242 0.148339
22  1.350423 0.000002 0.000001  -0.000000 0.000000 0.863926
23  1.350408 -0.000011 -0.000005  -0.000000 -0.000000 0.863926
24  -1.885227 0.863616 -2.731759  -0.517376 1.440849 2.189268
25  4.640937 -0.000003 -0.000016  0.712127 -0.494964 -0.987515
26  10.828050 -0.000000 0.000012  0.372594 -1.232925 -0.552316
27  9.393344 -0.000004 -0.000001  1.046902 -0.119173 0.046355
28  1.442245 0.107455 1.746178  -1.686405 -0.539236 0.325898
29  1.063452 -0.000002 0.000002  -0.000000 0.000000 0.199056
30  1.376309 -0.000001 0.000000  -0.000000 0.000000 0.199059
31  4.172848 -0.251365 1.312745  -0.008050 -0.095731 0.148659
32  1.215374 0.000001 0.000000  -0.000000 -0.000000 0.645746
33  1.215373 -0.000000 0.000005  0.000000 0.000000 0.645746
34  4.220531 -0.244856 0.431472  -0.001333 -0.026242 0.148339
35  1.350415 -0.000002 -0.000008  -0.000000 -0.000000 0.863937
36  1.350408 -0.000004 -0.000004  -0.000000 0.000000 0.863925
37  4.262828 -0.232720 -1.392177  0.016840 0.076668 0.253759
38  2.110537 0.000002 -0.000000  0.003291 -0.010162 -0.177967
39  0.891921 2.373048 -0.014527  -3.141592 -0.000001 1.413797
40  7.228114 5.709445 3.726568  3.140796 -1.570796 0.000000
41  2.450428 5.076127 0.001325  3.140791 -1.570796 0.000000
42  6.312409 -4.528057 0.001311  3.140791 -1.570796 0.000000
43  2.233307 1.152536 -7.309138  -1.140137 -1.545894 -0.884450
44  3.061500 2.842763 2.243589  0.000000 -0.000000 1.570796
time 19
0  1.293972 6.791367 38.274296  0.000000 -0.000000 -1.701715
1  -0.030924 -0.148442 0.000004  -1.570795 -1.570451 -0.000000
2  0.000002 0.000008 4.427392  -0.168354 -3.137738 -0.013394
3  18.465942 0.000000 0.000000  -0.000000 0.000000 -0.433226
4  14.875441 -0.000004 0.000001  0.016263 0.004794 0.402110
5  0.000002 -0.000003 -4.427392  0.108604 3.110165 -0.364296
6  18.465942 -0.000000 -0.000001  -0.000000 -0.000000 -0.383438
7  14.875445 0.000000 -0.000001  0.000673 -0.009424 0.017976
8  2.255214 -0.007574 0.000003  0.122059 -0.019267 0.013833
9  9.514218 -0.009356 -0.000000  -0.008742 0.002419 -0.088260
10  11.752192 -0.001497 -0.000000  0.000024 0.043599 0.440031
11  -2.111793 0.863600 2.563792  0.329069 -1.363947 2.375292
12  4.640940 0.000001 0.000004  0.003415 1.230668 -0.279848
13  10.828050 -0.000001 -0.000006  -0.006217 -0.069509 -0.643807
14  9.393337 -0.000008 0.000008  1.939538 0.008013 0.055012
15  1.442240 0.107459 -1.746177  1.686435 0.539209 0.325885
16  1.063452 -0.000001 0.000002  -0.000000 -0.000000 0.199056
17  1.376307 -0.000001 0.000000  -0.000000 -0.000000 0.199049
18  4.172838 -0.251364 -1.312740  0.008050 0.095731 0.148659
19  1.215372 0.000004 -0.000002  -0.000000 0.000000 0.645758
20  1.215371 0.000002 0.000001  0.000000 -0.000000 0.645758
21  4.220529 -0.244855 -0.431463  0.001333 0.026242 0.148339
22  1.350419 0.000006 0.000001  -0.000000 0.000000 0.863926
23  1.350409 -0.000007 -0.000000  0.000000 0.000000 0.863926
24  -1.885224 0.863613 -2.731758  -0.536815 1.442483 2.169867
25  4.640936 -0.000003 -0.000012  0.722256 -0.499830 -0.989173
26  10.828046 0.000000 -0.000000  0.372594 -1.232925 -0.552316
27  9.393347 0.000008 -0.000001  1.046902 -0.119173 0.046355
28  1.442244 0.107456 1.746171  -1.686405 -0.539236 0.325898
29  1.063452 -0.000010 0.000001  -0.000000 0.000000 0.199056
30  1.376308 0.000004 0.000001  -0.000000 0.000000 0.199059
31  4.172843 -0.251364 1.312740  -0.008050 -0.095731 0.148659
32  1.215375 -0.000002 0.000004  0.000000 -0.000000 0.645746
33  1.215375 0.000000 0.000006  -0.000000 0.000000 0.645746
34  4.220525 -0.244856 0.431468  -0.001333 -0.026242 0.148339
35  1.350409 -0.000002 -0.000008  -0.000000 -0.000000 0.863937
36  1.350410 -0.000003 -0.000008  0.000000 0.000000 0.863925
37  4.262823 -0.232721 -1.392183  0.016840 0.076668 0.253759
38  2.110544 -0.000001 -0.000000  0.003239 -0.010162 -0.176649
39  0.891926 2.373049 -0.014527  -3.141592 -0.000001 1.413797
40  7.228116 5.709446 3.726568  3.140796 -1.570796 0.000000
41  2.450423 5.076128 0.001325  3.140791 -1.570796 0.000000
42  6.312400 -4.528058 0.001311  3.140791 -1.570796 0.000000
43  2.233310 1.152536 -7.309137  -1.140137 -1.546797 -0.884545
44  3.061500 2.842763 2.243589  0.000000 -0.000000 1.570796
time 20
0  1.321317 6.791367 38.274296  0.000000 -0.000000 -1.701715
1  -0.015298 -0.148442 0.000004  -1.570795 -1.570451 -0.000000
2  -0.000002 0.000008 4.427392  -0.168545 -3.138780 -0.012441
3  18.465940 -0.000000 0.000000  -0.000000 0.000000 -0.432129
4  14.875445 0.000000 0.000000  0.016441 0.005688 0.402150
5  -0.000002 -0.000002 -4.427393  0.108412 3.109209 -0.364202
6  18.465944 -0.000001 -0.000000  0.000000 -0.000000 -0.384292
7  14.875441 0.000000 0.000000  0.000497 -0.008393 0.018839
8  2.255210 -0.007574 0.000003  0.122101 -0.019129 0.012774
9  9.514225 -0.009356 0.000000  -0.008742 0.002419 -0.088801
10  11.752194 -0.001498 0.000000  0.000024 0.043599 0.440031
11  -2.111799 0.863596 2.563792  0.350983 -1.366944 2.353369
12  4.640939 0.000001 0.000008  0.003415 1.230669 -0.279847
13  10.828053 -0.000002 -0.000005  -0.006217 -0.069509 -0.643807
14  9.393341 -0.000005 0.000006  1.939538 0.008013 0.055012
15  1.442243 0.107457 -1.746178  1.686435 0.539209 0.325885
16  1.063451 -0.000001 0.000002  0.000000 0.000000 0.199056
17  1.376310 -0.000001 0.000004  -0.000000 -0.000000 0.199049
18  4.172842 -0.251364 -1.312744  0.008050 0.095731 0.148659
19  1.215373 0.000004 -0.000000  0.000000 -0.000000 0.645758
20  1.215368 0.000002 0.000002  0.000000 0.000000 0.645758
21  4.220533 -0.244857 -0.431467  0.001333 0.026242 0.148339
22  1.350420 0.000003 0.000002  -0.000000 -0.000000 0.863926
23  1.350406 -0.000008 -0.000003  0.000000 0.000000 0.863926
24  -1.885229 0.863611 -2.731758  -0.560883 1.444420 2.145766
25  4.640936 -0.000003 -0.000017  0.734176 -0.505545 -0.991126
26  10.828046 0.000001 0.000006  0.372594 -1.232925 -0.552316
27  9.393346 0.000008 0.000000  1.046902 -0.119173 0.046355
28  1.442243 0.107454 1.746178  -1.686405 -0.539236 0.325898
29  1.063452 -0.000008 0.000000  0.000000 0.000000 0.199056
30  1.376310 -0.000002 -0.000001  -0.000000 -0.000000 0.199059
31  4.172844 -0.251366 1.312745  -0.008050 -0.095731 0.148659
32  1.215374 0.000000 0.000003  0.000000 0.000000 0.645746
33  1.215376 -0.000002 0.000001  0.000000 0.000000 0.645746
34  4.220529 -0.244856 0.431469  -0.001333 -0.026242 0.148339
35  1.350413 -0.000001 -0.000014  -0.000000 0.000000 0.863937
36  1.350409 0.000000 0.000001  -0.000000 0.000000 0.863925
37  4.262826 -0.232721 -1.392180  0.016840 0.076668 0.253759
38  2.110533 -0.000000 -0.000000  0.003188 -0.010192 -0.175048
39  0.891920 2.373050 -0.014527  -3.141592 -0.000001 1.413797
40  7.228118 5.709445 3.726568  3.140796 -1.570796 0.000000
41  2.450428 5.076127 0.001325  3.140791 -1.570796 0.000000
42  6.312407 -4.528058 0.001311  3.140791 -1.570796 0.000000
43  2.233306 1.152536 -7.309138  -1.140137 -1.547875 -0.884545
44  3.061500 2.842763 2.243589  0.000000 -0.000000 1.570796
time 21
0  1.356474 6.791367 38.274296  0.000000 -0.000000 -1.701715
1  0.000327 -0.148442 0.000000  -1.570795 -1.570451 -0.000000
2  0.000002 0.000007 4.427392  -0.168737 -3.140011 -0.011297
3  18.465942 -0.000001 -0.000000  0.000000 0.000000 -0.430886
4  14.875445 -0.000001 0.000000  0.016619 0.006710 0.402189
5  0.000002 -0.000003 -4.427393  0.108220 3.107965 -0.364015
6  18.465944 -0.000003 -0.000001  0.000000 -0.000000 -0.385276
7  14.875443 -0.000000 0.000001  0.000287 -0.007211 0.019815
8  2.255214 -0.007574 0.000003  0.122101 -0.018992 0.011516
9  9.514220 -0.009356 -0.000000  -0.008742 0.002419 -0.089429
10  11.752192 -0.001498 -0.000000  0.000024 0.043599 0.440031
11  -2.111798 0.863598 2.563792  0.376803 -1.370242 2.327616
12  4.640939 0.000001 0.000008  0.003415 1.230668 -0.279847
13  10.828055 -0.000001 -0.000005  -0.006218 -0.069509 -0.643807
14  9.393337 -0.000004 0.000009  1.939538 0.008013 0.055012
15  1.442245 0.107456 -1.746179  1.686435 0.539209 0.325885
16  1.063451 -0.000002 0.000007  0.000000 0.000000 0.199056
17  1.376305 0.000000 0.000004  -0.000000 0.000000 0.199049
18  4.172842 -0.251366 -1.312740  0.008050 0.095731 0.148659
19  1.215371 0.000007 -0.000003  0.000000 -0.000000 0.645758
20  1.215369 0.000002 0.000004  0.000000 -0.000000 0.645758
21  4.220532 -0.244854 -0.431464  0.001333 0.026242 0.148339
22  1.350418 0.000003 0.000002  -0.000000 0.000000 0.863926
23  1.350408 -0.000004 -0.000001  0.000000 0.000000 0.863926
24  -1.885231 0.863611 -2.731759  -0.589394 1.446538 2.117306
25  4.640935 -0.000004 -0.000016  0.747394 -0.511866 -0.993295
26  10.828045 0.000003 0.000007  0.372594 -1.232925 -0.552316
27  9.393343 0.000006 -0.000001  1.046902 -0.119173 0.046355
28  1.442244 0.107457 1.746174  -1.686405 -0.539236 0.325898
29  1.063452 -0.000008 0.000000  0.000000 -0.000000 0.199056
30  1.376309 -0.000002 -0.000000  -0.000000 0.000000 0.199059
31  4.172843 -0.251362 1.312743  -0.008050 -0.095731 0.148659
32  1.215378 -0.000000 -0.000006  0.000000 0.000000 0.645746
33  1.215374 0.000001 0.000001  -0.000000 0.000000 0.645746
34  4.220525 -0.244854 0.431472  -0.001333 -0.026242 0.148339
35  1.350412 -0.000002 -0.000004  -0.000000 -0.000000 0.863937
36  1.350408 0.000001 -0.000005  0.000000 0.000000 0.863925
37  4.262825 -0.232719 -1.392179  0.016840 0.076668 0.253759
38  2.110532 -0.000000 -0.000001  0.003136 -0.010222 -0.173164
39  0.891920 2.373049 -0.014527  -3.141592 -0.000001 1.413797
40  7.228117 5.709445 3.726568  3.140796 -1.570796 0.000000
41  2.450431 5.076127 0.001325  3.140791 -1.570796 0.000000
42  6.312405 -4.528059 0.001311  3.140791 -1.570796 0.000000
43  2.233310 1.152536 -7.309138  -1.140138 -1.549098 -0.884545
44  3.061500 2.842763 2.243589  0.000000 -0.000000 1.570796
time 22
0  1.395538 6.791367 38.274296  0.000000 -0.000000 -1.701715
1  0.015953 -0.144536 0.000004  -1.570795 -1.570451 -0.000000
2  0.000002 0.000008 4.427393  -0.169025 -3.141337 -0.010058
3  18.465948 -0.000001 0.000000  -0.000000 0.000000 -0.429497
4  14.875443 -0.000002 0.000001  0.016832 0.007838 0.402229
5  0.000002 -0.000003 -4.427392  0.107933 3.106722 -0.363922
6  18.465944 -0.000004 -0.000001  0.000000 -0.000000 -0.386326
7  14.875443 0.000000 0.000000  0.000041 -0.005907 0.020865
8  2.255214 -0.007574 0.000003  0.122101 -0.018815 0.010193
9  9.514213 -0.009356 -0.000000  -0.008742 0.002406 -0.090100
10  11.752198 -0.001498 -0.000000  0.000024 0.043599 0.440031
11  -2.111793 0.863597 2.563792  0.406243 -1.373718 2.298225
12  4.640940 0.000001 0.000008  0.003415 1.230668 -0.279847
13  10.828053 -0.000001 -0.000005  -0.006217 -0.069509 -0.643807
14  9.393344 -0.000003 0.000007  1.939538 0.008013 0.055012
15  1.442241 0.107457 -1.746178  1.686435 0.539209 0.325885
16  1.063455 -0.000001 0.000001  -0.000000 -0.000000 0.199056
17  1.376309 -0.000000 0.000004  0.000000 -0.000000 0.199049
18  4.172841 -0.251365 -1.312742  0.008050 0.095731 0.148659
19  1.215375 0.000005 -0.000001  0.000000 0.000000 0.645758
20  1.215372 -0.000000 0.000001  -0.000000 -0.000000 0.645758
21  4.220527 -0.244853 -0.431460  0.001333 0.026242 0.148339
22  1.350420 0.000004 0.000001  -0.000000 0.000000 0.863926
23  1.350407 -0.000007 -0.000003  0.000000 0.000000 0.863926
24  -1.885225 0.863613 -2.731759  -0.621885 1.448748 2.084915
25  4.640935 -0.000003 -0.000008  0.761411 -0.518553 -0.995598
26  10.828044 0.000002 0.000005  0.372594 -1.232925 -0.552316
27  9.393344 0.000010 -0.000001  1.046902 -0.119173 0.046355
28  1.442240 0.107455 1.746175  -1.686405 -0.539236 0.325898
29  1.063452 -0.000004 -0.000000  0.000000 -0.000000 0.199056
30  1.376310 -0.000002 0.000000  -0.000000 -0.000000 0.199059
31  4.172842 -0.251364 1.312739  -0.008050 -0.095731 0.148659
32  1.215374 0.000000 -0.000004  0.000000 0.000000 0.645746
33  1.215373 0.000002 0.000010  0.000000 0.000000 0.645746
34  4.220525 -0.244855 0.431464  -0.001333 -0.026242 0.148339
35  1.350410 -0.000002 -0.000005  -0.000000 -0.000000 0.863937
36  1.350408 -0.000000 0.000002  0.000000 0.000000 0.863925
37  4.262824 -0.232719 -1.392182  0.016840 0.076668 0.253759
38  2.110535 0.000000 -0.000001  0.003034 -0.010252 -0.171140
39  0.891924 2.373049 -0.014527  -3.141592 -0.000001 1.413797
40  7.228116 5.709445 3.726569  3.140796 -1.570796 0.000000
41  2.450422 5.076128 0.001325  3.140791 -1.570796 0.000000
42  6.312399 -4.528058 0.001311  3.140791 -1.570796 0.000000
43  2.233310 1.152536 -7.309137  -1.140138 -1.550467 -0.884545
44  3.061500 2.842763 2.243589  0.000000 -0.000000 1.570796
time 23
0  1.438508 6.791367 38.274296  0.000000 -0.000000 -1.701715
1  0.035485 -0.140629 0.000000  -1.570795 -1.570451 -0.000000
2  -0.000001 0.000008 4.427392  -0.169216 3.140333 -0.008724
3  18.465940 -0.000001 -0.000000  0.000000 0.000000 -0.427962
4  14.875445 0.000000 -0.000000  0.017045 0.009030 0.402268
5  -0.000001 -0.000002 -4.427393  0.107645 3.105287 -0.363734
6  18.465940 0.000000 -0.000001  -0.000000 -0.000000 -0.387377
7  14.875443 -0.000000 -0.000000  -0.000204 -0.004513 0.021991
8  2.255211 -0.007574 0.000003  0.122101 -0.018638 0.008737
9  9.514221 -0.009356 -0.000000  -0.008742 0.002406 -0.090836
10  11.752192 -0.001498 -0.000000  0.000024 0.043599 0.440031
11  -2.111797 0.863595 2.563791  0.438827 -1.377243 2.265579
12  4.640941 0.000000 0.000003  0.003415 1.230668 -0.279847
13  10.828053 -0.000002 -0.000008  -0.006217 -0.069509 -0.643807
14  9.393343 -0.000006 0.000009  1.939538 0.008013 0.055012
15  1.442241 0.107456 -1.746179  1.686435 0.539209 0.325885
16  1.063451 -0.000002 0.000005  0.000000 -0.000000 0.199056
17  1.376309 0.000000 0.000003  0.000000 -0.000000 0.199049
18  4.172838 -0.251364 -1.312744  0.008050 0.095731 0.148659
19  1.215373 0.000002 0.000002  -0.000000 -0.000000 0.645758
20  1.215370 0.000005 0.000002  -0.000000 -0.000000 0.645758
21  4.220528 -0.244854 -0.431463  0.001333 0.026242 0.148339
22  1.350419 0.000003 -0.000001  -0.000000 0.000000 0.863926
23  1.350408 -0.000003 -0.000003  0.000000 0.000000 0.863926
24  -1.885229 0.863610 -2.731758  -0.657802 1.450957 2.048935
25  4.640936 -0.000003 -0.000016  0.775724 -0.525362 -0.997954
26  10.828045 -0.000000 0.000006  0.372594 -1.232925 -0.552316
27  9.393343 0.000007 0.000001  1.046902 -0.119173 0.046355
28  1.442246 0.107455 1.746176  -1.686405 -0.539236 0.325898
29  1.063452 -0.000007 -0.000002  -0.000000 0.000000 0.199056
30  1.376308 0.000004 0.000000  -0.000000 -0.000000 0.199059
31  4.172845 -0.251365 1.312747  -0.008050 -0.095731 0.148659
32  1.215376 0.000001 -0.000006  0.000000 -0.000000 0.645746
33  1.215373 0.000002 0.000002  -0.000000 0.000000 0.645746
34  4.220529 -0.244856 0.431471  -0.001333 -0.026242 0.148339
35  1.350408 -0.000002 -0.000010  -0.000000 -0.000000 0.863937
36  1.350407 0.000002 -0.000005  -0.000000 0.000000 0.863925
37  4.262826 -0.232722 -1.392178  0.016840 0.076668 0.253759
38  2.110534 -0.000002 -0.000000  0.002982 -0.010282 -0.168974
39  0.891922 2.373049 -0.014527  -3.141592 -0.000001 1.413797
40  7.228117 5.709445 3.726568  3.140796 -1.570796 0.000000
41  2.450426 5.076128 0.001325  3.140791 -1.570796 0.000000
42  6.312401 -4.528056 0.001311  3.140791 -1.570796 0.000000
43  2.233307 1.152536 -7.309138  -1.140138 -1.551923 -0.884544
44  3.061500 2.842763 2.243589  0.000000 -0.000000 1.570796
time 24
0  1.481478 6.791367 38.274296  0.000000 -0.000000 -1.701715
1  0.055016 -0.140629 0.000004  -1.570795 -1.570451 -0.000000
2  -0.000000 0.000008 4.427392  -0.169504 3.138818 -0.007294
3  18.465944 -0.000000 -0.000001  -0.000000 -0.000000 -0.426354
4  14.875443 -0.000001 0.000000  0.017259 0.010286 0.402268
5  -0.000000 -0.000002 -4.427393  0.107454 3.103852 -0.363547
6  18.465937 0.000000 -0.000000  -0.000000 -0.000000 -0.388492
7  14.875441 0.000000 0.000001  -0.000485 -0.003058 0.023116
8  2.255212 -0.007574 0.000003  0.122101 -0.018462 0.007248
9  9.514227 -0.009356 -0.000000  -0.008779 0.002392 -0.091572
10  11.752198 -0.001497 0.000000  0.000024 0.043599 0.440031
11  -2.111793 0.863596 2.563792  0.473984 -1.380693 2.230348
12  4.640938 0.000001 0.000010  0.003415 1.230668 -0.279847
13  10.828054 -0.000000 -0.000005  -0.006217 -0.069509 -0.643807
14  9.393343 -0.000002 0.000011  1.939538 0.008013 0.055012
15  1.442244 0.107457 -1.746178  1.686435 0.539209 0.325885
16  1.063449 -0.000000 0.000008  0.000000 0.000000 0.199056
17  1.376306 -0.000001 0.000004  -0.000000 -0.000000 0.199049
18  4.172842 -0.251364 -1.312743  0.008050 0.095731 0.148659
19  1.215370 0.000005 0.000001  0.000000 -0.000000 0.645758
20  1.215370 0.000002 0.000000  -0.000000 -0.000000 0.645758
21  4.220528 -0.244852 -0.431462  0.001333 0.026242 0.148339
22  1.350418 0.000002 0.000001  -0.000000 -0.000000 0.863926
23  1.350408 -0.000003 -0.000004  0.000000 0.000000 0.863926
24  -1.885226 0.863612 -2.731758  -0.696680 1.453075 2.010134
25  4.640936 -0.000003 -0.000011  0.789824 -0.532051 -1.000280
26  10.828047 0.000003 0.000012  0.372594 -1.232925 -0.552316
27  9.393347 0.000006 -0.000002  1.046902 -0.119173 0.046355
28  1.442245 0.107456 1.746174  -1.686405 -0.539236 0.325898
29  1.063452 -0.000004 0.000001  -0.000000 0.000000 0.199056
30  1.376309 0.000003 0.000001  -0.000000 0.000000 0.199059
31  4.172844 -0.251363 1.312743  -0.008050 -0.095731 0.148659
32  1.215373 -0.000000 -0.000002  0.000000 -0.000000 0.645746
33  1.215375 0.000000 0.000005  0.000000 -0.000000 0.645746
34  4.220527 -0.244854 0.431471  -0.001333 -0.026242 0.148339
35  1.350413 -0.000001 -0.000003  -0.000000 -0.000000 0.863937
36  1.350406 0.000000 0.000005  0.000000 0.000000 0.863925
37  4.262827 -0.232720 -1.392179  0.016840 0.076668 0.253759
38  2.110536 -0.000002 -0.000000  0.002879 -0.010312 -0.166667
39  0.891916 2.373051 -0.014527  -3.141592 -0.000001 1.413797
40  7.228119 5.709445 3.726568  3.140796 -1.570796 0.000000
41  2.450432 5.076127 0.001325  3.140791 -1.570796 0.000000
42  6.312414 -4.528057 0.001311  3.140791 -1.570796 0.000000
43  2.233308 1.152536 -7.309137  -1.140138 -1.553438 -0.884545
44  3.061500 2.842763 2.243589  0.000000 -0.000000 1.570796
time 25
0  1.524448 6.791367 38.274296  0.000000 -0.000000 -1.701715
1  0.074548 -0.136723 0.000000  -1.570795 -1.570451 -0.000000
2  0.000001 0.000008 4.427392  -0.169695 3.137303 -0.005864
3  18.465939 -0.000000 -0.000000  0.000000 0.000000 -0.424672
4  14.875443 -0.000002 0.000001  0.017472 0.011563 0.402268
5  0.000001 -0.000003 -4.427393  0.107166 3.102417 -0.363360
6  18.465942 -0.000001 -0.000001  -0.000000 -0.000000 -0.389608
7  14.875441 0.000000 -0.000001  -0.000766 -0.001572 0.024279
8  2.255213 -0.007574 0.000003  0.122101 -0.018265 0.005693
9  9.514216 -0.009356 -0.000000  -0.008779 0.002392 -0.092352
10  11.752186 -0.001498 -0.000000  0.000024 0.043599 0.440031
11  -2.111793 0.863598 2.563791  0.511142 -1.383966 2.193107
12  4.640939 0.000001 0.000003  0.003415 1.230669 -0.279848
13  10.828055 -0.000001 -0.000006  -0.006217 -0.069509 -0.643807
14  9.393344 -0.000005 0.000010  1.939538 0.008013 0.055012
15  1.442241 0.107458 -1.746179  1.686435 0.539209 0.325885
16  1.063451 -0.000001 0.000004  0.000000 0.000000 0.199056
17  1.376310 -0.000000 0.000004  0.000000 -0.000000 0.199049
18  4.172839 -0.251364 -1.312743  0.008050 0.095731 0.148659
19  1.215372 0.000004 0.000001  0.000000 -0.000000 0.645758
20  1.215371 0.000002 -0.000001  -0.000000 -0.000000 0.645758
21  4.220528 -0.244853 -0.431463  0.001333 0.026242 0.148339
22  1.350422 0.000004 0.000002  0.000000 -0.000000 0.863926
23  1.350409 -0.000002 -0.000002  0.000000 -0.000000 0.863926
24  -1.885229 0.863613 -2.731759  -0.737780 1.455042 1.969025
25  4.640936 -0.000002 -0.000009  0.803195 -0.538378 -1.002490
26  10.828043 0.000004 0.000009  0.372594 -1.232925 -0.552316
27  9.393347 0.000011 -0.000001  1.046902 -0.119173 0.046355
28  1.442246 0.107454 1.746181  -1.686405 -0.539236 0.325898
29  1.063452 -0.000001 -0.000000  -0.000000 0.000000 0.199056
30  1.376307 -0.000003 0.000001  -0.000000 -0.000000 0.199059
31  4.172845 -0.251365 1.312751  -0.008050 -0.095731 0.148659
32  1.215375 0.000000 -0.000004  0.000000 -0.000000 0.645746
33  1.215376 0.000001 0.000004  -0.000000 0.000000 0.645746
34  4.220528 -0.244857 0.431480  -0.001333 -0.026242 0.148339
35  1.350411 -0.000002 -0.000007  -0.000000 -0.000000 0.863937
36  1.350409 0.000001 -0.000006  -0.000000 0.000000 0.863925
37  4.262828 -0.232722 -1.392172  0.016840 0.076668 0.253759
38  2.110535 -0.000001 -0.000001  0.002828 -0.010343 -0.164359
39  0.891923 2.373051 -0.014527  -3.141592 -0.000001 1.413797
40  7.228108 5.709445 3.726568  3.140796 -1.570796 0.000000
41  2.450424 5.076128 0.001325  3.140791 -1.570796 0.000000
42  6.312403 -4.528058 0.001311  3.140791 -1.570796 0.000000
43  2.233309 1.152536 -7.309137  -1.140137 -1.554981 -0.884545
44  3.061500 2.842763 2.243589  0.000000 -0.000000 1.570796
time 26
0  1.567418 6.791367 38.274296  0.000000 -0.000000 -1.701715
1  0.094079 -0.136723 0.000000  -1.570795 -1.570451 -0.000000
2  0.000002 0.000007 4.427392  -0.169983 3.135789 -0.004435
3  18.465944 -0.000000 0.000000  0.000000 0.000000 -0.422918
4  14.875444 -0.000002 0.000000  0.017685 0.012840 0.402268
5  0.000002 -0.000003 -4.427392  0.106879 3.100982 -0.363079
6  18.465940 -0.000001 -0.000001  -0.000000 0.000000 -0.390724
7  14.875443 -0.000000 -0.000000  -0.001047 -0.000117 0.025405
8  2.255214 -0.007574 0.000003  0.122101 -0.018089 0.004171
9  9.514228 -0.009357 0.000000  -0.008779 0.002379 -0.093131
10  11.752192 -0.001498 -0.000000  0.000024 0.043599 0.440031
11  -2.111792 0.863598 2.563792  0.549538 -1.386988 2.154621
12  4.640938 0.000000 0.000011  0.003415 1.230668 -0.279848
13  10.828052 -0.000002 -0.000005  -0.006217 -0.069509 -0.643807
14  9.393338 -0.000005 0.000007  1.939538 0.008013 0.055012
15  1.442239 0.107458 -1.746179  1.686435 0.539209 0.325885
16  1.063453 -0.000001 0.000006  0.000000 0.000000 0.199056
17  1.376307 -0.000002 0.000000  0.000000 -0.000000 0.199049
18  4.172841 -0.251366 -1.312747  0.008050 0.095731 0.148659
19  1.215372 0.000003 0.000001  -0.000000 -0.000000 0.645758
20  1.215370 0.000002 0.000001  -0.000000 -0.000000 0.645758
21  4.220528 -0.244853 -0.431466  0.001333 0.026242 0.148339
22  1.350419 0.000002 0.000003  0.000000 -0.000000 0.863926
23  1.350408 -0.000005 -0.000004  -0.000000 0.000000 0.863926
24  -1.885226 0.863614 -2.731758  -0.780270 1.456827 1.926635
25  4.640936 -0.000003 -0.000017  0.815316 -0.544098 -1.004498
26  10.828047 0.000002 0.000014  0.372594 -1.232925 -0.552316
27  9.393345 0.000007 -0.000002  1.046902 -0.119173 0.046355
28  1.442248 0.107456 1.746179  -1.686405 -0.539236 0.325898
29  1.063452 -0.000002 0.000001  -0.000000 0.000000 0.199056
30  1.376310 0.000002 -0.000000  -0.000000 -0.000000 0.199059
31  4.172848 -0.251363 1.312747  -0.008050 -0.095731 0.148659
32  1.215376 0.000000 -0.000003  0.000000 -0.000000 0.645746
33  1.215374 0.000001 0.000007  0.000000 0.000000 0.645746
34  4.220531 -0.244854 0.431471  -0.001333 -0.026242 0.148339
35  1.350411 -0.000003 -0.000006  -0.000000 -0.000000 0.863937
36  1.350409 0.000001 -0.000003  -0.000000 0.000000 0.863925
37  4.262828 -0.232719 -1.392174  0.016840 0.076668 0.253759
38  2.110543 0.000000 -0.000000  0.002725 -0.010403 -0.162052
39  0.891924 2.373049 -0.014527  -3.141592 -0.000001 1.413797
40  7.228114 5.709445 3.726568  3.140796 -1.570796 0.000000
41  2.450434 5.076126 0.001325  3.140791 -1.570796 0.000000
42  6.312411 -4.528059 0.001311  3.140791 -1.570796 0.000000
43  2.233310 1.152536 -7.309137  -1.140137 -1.556525 -0.884545
44  3.061500 2.842763 2.243589  0.000000 -0.000000 1.570796
time 27
0  1.610388 6.791367 38.274296  0.000000 -0.000000 -1.701715
1  0.113611 -0.132817 0.000004  -1.570795 -1.570451 -0.000000
2  -0.000001 0.000008 4.427392  -0.170174 3.134274 -0.003005
3  18.465937 -0.000000 0.000000  0.000000 0.000000 -0.421236
4  14.875444 -0.000003 0.000000  0.017899 0.014095 0.402229
5  -0.000001 -0.000003 -4.427392  0.106687 3.099547 -0.362892
6  18.465942 -0.000002 -0.000000  -0.000000 0.000000 -0.391709
7  14.875442 -0.000000 0.000000  -0.001292 0.001338 0.026493
8  2.255211 -0.007574 0.000003  0.122101 -0.017892 0.002682
9  9.514221 -0.009357 -0.000000  -0.008779 0.002379 -0.093889
10  11.752194 -0.001498 -0.000000  0.000024 0.043599 0.440031
11  -2.111789 0.863597 2.563792  0.588411 -1.389658 2.115657
12  4.640938 0.000001 0.000011  0.003415 1.230668 -0.279847
13  10.828054 -0.000002 -0.000006  -0.006217 -0.069509 -0.643807
14  9.393341 -0.000003 0.000010  1.939538 0.008013 0.055012
15  1.442242 0.107460 -1.746176  1.686435 0.539209 0.325885
16  1.063454 -0.000002 0.000009  0.000000 0.000000 0.199056
17  1.376306 -0.000001 0.000001  -0.000000 -0.000000 0.199049
18  4.172841 -0.251362 -1.312742  0.008050 0.095731 0.148659
19  1.215374 0.000002 0.000000  0.000000 -0.000000 0.645758
20  1.215370 0.000005 -0.000002  -0.000000 0.000000 0.645758
21  4.220527 -0.244851 -0.431461  0.001333 0.026242 0.148339
22  1.350420 0.000000 0.000002  0.000000 -0.000000 0.863926
23  1.350409 -0.000006 -0.000003  0.000000 0.000000 0.863926
24  -1.885228 0.863613 -2.731758  -0.823036 1.458371 1.883817
25  4.640936 -0.000003 -0.000010  0.825663 -0.548970 -1.006216
26  10.828046 -0.000004 0.000010  0.372594 -1.232925 -0.552316
27  9.393343 0.000009 -0.000001  1.046902 -0.119173 0.046355
28  1.442247 0.107455 1.746175  -1.686405 -0.539236 0.325898
29  1.063452 -0.000008 -0.000000  -0.000000 -0.000000 0.199056
30  1.376310 -0.000006 0.000000  -0.000000 -0.000000 0.199059
31  4.172848 -0.251363 1.312744  -0.008050 -0.095731 0.148659
32  1.215375 0.000000 -0.000000  0.000000 -0.000000 0.645746
33  1.215374 0.000001 0.000004  0.000000 -0.000000 0.645746
34  4.220530 -0.244856 0.431471  -0.001333 -0.026242 0.148339
35  1.350412 -0.000002 -0.000008  -0.000000 -0.000000 0.863937
36  1.350407 -0.000001 -0.000005  0.000000 0.000000 0.863925
37  4.262828 -0.232721 -1.392181  0.016840 0.076668 0.253759
38  2.110538 -0.000001 0.000000  0.002674 -0.010433 -0.159792
39  0.891922 2.373051 -0.014527  -3.141592 -0.000001 1.413797
40  7.228116 5.709445 3.726568  3.140796 -1.570796 0.000000
41  2.450428 5.076127 0.001325  3.140791 -1.570796 0.000000
42  6.312405 -4.528058 0.001311  3.140791 -1.570796 0.000000
43  2.233307 1.152536 -7.309137  -1.140137 -1.558039 -0.884642
44  3.061500 2.842763 2.243589  0.000000 -0.000000 1.570796
time 28
0  1.653358 6.791367 38.274296  0.000000 -0.000000 -1.701715
1  0.133144 -0.128910 0.000000  -1.570795 -1.570451 -0.000000
2  0.000000 0.000008 4.427392  -0.170366 3.132853 -0.001671
3  18.465948 -0.000001 -0.000000  -0.000000 -0.000000 -0.419555
4  14.875443 -0.000000 0.000001  0.018112 0.015309 0.402189
5  0.000000 -0.000003 -4.427393  0.106495 3.098112 -0.362705
6  18.465940 -0.000000 -0.000001  -0.000000 0.000000 -0.392693
7  14.875442 -0.000000 0.000000  -0.001573 0.002732 0.027543
8  2.255212 -0.007574 0.000003  0.122101 -0.017715 0.001226
9  9.514215 -0.009356 -0.000000  -0.008779 0.002365 -0.094603
10  11.752192 -0.001499 -0.000000  0.000024 0.043599 0.440031
11  -2.111795 0.863597 2.563792  0.626712 -1.391949 2.077266
12  4.640938 0.000001 0.000011  0.003415 1.230669 -0.279847
13  10.828055 -0.000003 -0.000007  -0.006217 -0.069509 -0.643807
14  9.393341 -0.000002 0.000007  1.939538 0.008013 0.055012
15  1.442239 0.107459 -1.746178  1.686435 0.539209 0.325885
16  1.063454 -0.000000 0.000005  0.000000 0.000000 0.199056
17  1.376302 -0.000000 0.000002  0.000000 -0.000000 0.199049
18  4.172839 -0.251363 -1.312742  0.008050 0.095731 0.148659
19  1.215372 0.000004 -0.000001  -0.000000 -0.000000 0.645758
20  1.215371 -0.000003 0.000000  -0.000000 -0.000000 0.645758
21  4.220526 -0.244852 -0.431463  0.001333 0.026242 0.148339
22  1.350418 0.000001 0.000001  -0.000000 -0.000000 0.863926
23  1.350407 -0.000001 -0.000002  0.000000 0.000000 0.863926
24  -1.885225 0.863612 -2.731758  -0.865155 1.459642 1.841683
25  4.640936 -0.000003 -0.000012  0.833707 -0.552750 -1.007554
26  10.828049 0.000003 0.000010  0.372594 -1.232925 -0.552316
27  9.393341 0.000001 -0.000003  1.046902 -0.119173 0.046355
28  1.442248 0.107456 1.746175  -1.686405 -0.539236 0.325898
29  1.063452 -0.000008 -0.000002  -0.000000 0.000000 0.199056
30  1.376308 -0.000003 0.000000  -0.000000 -0.000000 0.199059
31  4.172851 -0.251363 1.312740  -0.008050 -0.095731 0.148659
32  1.215374 0.000001 -0.000008  -0.000000 -0.000000 0.645746
33  1.215371 0.000000 0.000005  -0.000000 -0.000000 0.645746
34  4.220532 -0.244855 0.431466  -0.001333 -0.026242 0.148339
35  1.350411 -0.000002 -0.000002  -0.000000 -0.000000 0.863937
36  1.350408 0.000000 -0.000006  0.000000 0.000000 0.863925
37  4.262830 -0.232720 -1.392181  0.016840 0.076668 0.253759
38  2.110537 0.000001 -0.000000  0.002571 -0.010463 -0.157626
39  0.891916 2.373051 -0.014527  -3.141592 -0.000001 1.413797
40  7.228117 5.709445 3.726568  3.140796 -1.570796 0.000000
41  2.450421 5.076128 0.001325  3.140791 -1.570796 0.000000
42  6.312402 -4.528058 0.001311  3.140791 -1.570796 0.000000
43  2.233309 1.152536 -7.309137  -1.140138 -1.559496 -0.884640
44  3.061500 2.842763 2.243589  0.000000 -0.000000 1.570796
time 29
0  1.692422 6.791367 38.274296  0.000000 -0.000000 -1.701715
1  0.148768 -0.128910 0.000000  -1.570795 -1.570451 -0.000000
2  -0.000000 0.000007 4.427392  -0.170557 3.131433 -0.000336
3  18.465940 -0.000001 0.000000  -0.000000 -0.000000 -0.418019
4  14.875443 -0.000001 0.000001  0.018290 0.016437 0.402110
5  -0.000000 -0.000003 -4.427393  0.106208 3.096868 -0.362424
6  18.465940 -0.000001 -0.000001  -0.000000 -0.000000 -0.393546
7  14.875441 -0.000000 0.000000  -0.001819 0.004036 0.028481
8  2.255212 -0.007574 0.000003  0.122101 -0.017558 -0.000097
9  9.514216 -0.009356 0.000000  -0.008779 0.002365 -0.095296
10  11.752193 -0.001497 -0.000000  0.000024 0.043599 0.440031
11  -2.111803 0.863598 2.563791  0.663298 -1.393863 2.040408
12  4.640939 0.000000 0.000014  0.003415 1.230668 -0.279847
13  10.828051 -0.000000 -0.000005  -0.006217 -0.069509 -0.643807
14  9.393336 -0.000005 0.000010  1.939538 0.008013 0.055012
15  1.442241 0.107460 -1.746174  1.686435 0.539209 0.325885
16  1.063450 0.000000 0.000001  0.000000 0.000000 0.199056
17  1.376305 -0.000001 0.000005  -0.000000 -0.000000 0.199049
18  4.172843 -0.251364 -1.312743  0.008050 0.095731 0.148659
19  1.215370 0.000007 0.000002  0.000000 -0.000000 0.645758
20  1.215371 0.000001 -0.000001  -0.000000 -0.000000 0.645758
21  4.220530 -0.244853 -0.431462  0.001333 0.026242 0.148339
22  1.350417 0.000000 0.000001  0.000000 0.000000 0.863926
23  1.350408 -0.000010 -0.000004  0.000000 -0.000000 0.863926
24  -1.885231 0.863613 -2.731758  -0.905329 1.460670 1.801515
25  4.640935 -0.000003 -0.000010  0.838919 -0.555197 -1.008422
26  10.828048 0.000005 0.000014  0.372594 -1.232925 -0.552316
27  9.393344 0.000007 0.000001  1.046902 -0.119173 0.046355
28  1.442246 0.107455 1.746173  -1.686405 -0.539236 0.325898
29  1.063452 -0.000007 0.000001  0.000000 0.000000 0.199056
30  1.376308 0.000001 0.000000  -0.000000 0.000000 0.199059
31  4.172847 -0.251364 1.312740  -0.008050 -0.095731 0.148659
32  1.215374 -0.000001 0.000002  0.000000 -0.000000 0.645746
33  1.215372 0.000000 0.000009  0.000000 0.000000 0.645746
34  4.220532 -0.244856 0.431465  -0.001333 -0.026242 0.148339
35  1.350413 -0.000001 -0.000009  -0.000000 -0.000000 0.863937
36  1.350410 -0.000002 -0.000002  -0.000000 0.000000 0.863925
37  4.262829 -0.232720 -1.392184  0.016840 0.076668 0.253759
38  2.110533 -0.000000 -0.000000  0.002519 -0.010493 -0.155554
39  0.891920 2.373050 -0.014527  -3.141592 -0.000001 1.413797
40  7.228117 5.709445 3.726568  3.140796 -1.570796 0.000000
41  2.450427 5.076128 0.001325  3.140791 -1.570796 0.000000
42  6.312402 -4.528058 0.001311  3.140791 -1.570796 0.000000
43  2.233308 1.152536 -7.309138  -1.140140 -1.560864 -0.884641
44  3.061500 2.842763 2.243589  0.000000 -0.000000 1.570796
time 30
0  1.727579 6.791367 38.274296  0.000000 -0.000000 -1.701715
1  0.164394 -0.125004 0.000004  -1.570795 -1.570451 -0.000000
2  -0.000000 0.000008 4.427392  -0.170749 3.130202 0.000903
3  18.465944 -0.000001 -0.000000  -0.000000 -0.000000 -0.416557
4  14.875443 -0.000002 0.000001  0.018467 0.017437 0.402071
5  -0.000000 -0.000003 -4.427393  0.106016 3.095625 -0.362237
6  18.465937 -0.000001 -0.000001  -0.000000 -0.000000 -0.394334
7  14.875443 0.000000 -0.000000  -0.002065 0.005218 0.029344
8  2.255212 -0.007574 0.000003  0.122101 -0.017401 -0.001322
9  9.514218 -0.009356 -0.000000  -0.008779 0.002352 -0.095902
10  11.752193 -0.001498 -0.000000  0.000024 0.043599 0.440031
11  -2.111790 0.863596 2.563792  0.697216 -1.395374 2.006326
12  4.640938 0.000000 0.000010  0.003415 1.230668 -0.279848
13  10.828056 -0.000002 -0.000005  -0.006217 -0.069509 -0.643807
14  9.393340 -0.000004 0.000007  1.939538 0.008013 0.055012
15  1.442243 0.107458 -1.746178  1.686435 0.539209 0.325885
16  1.063451 0.000000 0.000002  0.000000 0.000000 0.199056
17  1.376308 -0.000001 0.000000  -0.000000 -0.000000 0.199049
18  4.172842 -0.251364 -1.312744  0.008050 0.095731 0.148659
19  1.215372 0.000002 0.000002  0.000000 -0.000000 0.645758
20  1.215371 -0.000000 -0.000001  -0.000000 -0.000000 0.645758
21  4.220532 -0.244854 -0.431463  0.001333 0.026242 0.148339
22  1.350418 0.000005 -0.000000  -0.000000 -0.000000 0.863926
23  1.350409 -0.000003 -0.000003  0.000000 0.000000 0.863926
24  -1.885224 0.863611 -2.731758  -0.942448 1.461427 1.764337
25  4.640937 -0.000004 -0.000011  0.840773 -0.556066 -1.008731
26  10.828046 0.000007 0.000012  0.372594 -1.232925 -0.552316
27  9.393340 0.000008 -0.000000  1.046902 -0.119173 0.046355
28  1.442244 0.107455 1.746176  -1.686405 -0.539236 0.325898
29  1.063452 -0.000002 -0.000000  -0.000000 -0.000000 0.199056
30  1.376308 -0.000008 -0.000000  0.000000 0.000000 0.199059
31  4.172846 -0.251364 1.312746  -0.008050 -0.095731 0.148659
32  1.215372 0.000001 -0.000003  -0.000000 -0.000000 0.645746
33  1.215371 -0.000000 0.000006  0.000000 0.000000 0.645746
34  4.220530 -0.244856 0.431468  -0.001333 -0.026242 0.148339
35  1.350412 -0.000000 -0.000009  -0.000000 -0.000000 0.863937
36  1.350410 0.000000 -0.000005  0.000000 0.000000 0.863925
37  4.262828 -0.232721 -1.392183  0.016840 0.076668 0.253759
38  2.110543 -0.000003 0.000000  0.002417 -0.010493 -0.153718
39  0.891917 2.373053 -0.014527  -3.141592 -0.000001 1.413797
40  7.228116 5.709444 3.726568  3.140796 -1.570796 0.000000
41  2.450423 5.076127 0.001325  3.140791 -1.570796 0.000000
42  6.312402 -4.528057 0.001311  3.140791 -1.570796 0.000000
43  2.233308 1.152536 -7.309137  -1.140139 -1.562088 -0.884449
44  3.061500 2.842763 2.243589  0.000000 -0.000000 1.570796
end
