version 1
nodes
0 "Bip01" -1
1 "Bip01 Pelvis" 0
2 "Bip01 L Thigh" 1
3 "Bip01 L Calf" 2
4 "Bip01 L Foot" 3
5 "Bip01 R Thigh" 1
6 "Bip01 R Calf" 5
7 "Bip01 R Foot" 6
8 "Bip01 Spine" 1
9 "Bip01 Spine1" 8
10 "Bip01 Neck" 9
11 "Bip01 L Clavicle" 10
12 "Bip01 L UpperArm" 11
13 "Bip01 L Forearm" 12
14 "Bip01 L Hand" 13
15 "Bip01 L Finger0" 14
16 "Bip01 L Finger01" 15
17 "Bip01 L Finger02" 16
18 "Bip01 L Finger1" 14
19 "Bip01 L Finger11" 18
20 "Bip01 L Finger12" 19
21 "Bip01 L Finger2" 14
22 "Bip01 L Finger21" 21
23 "Bip01 L Finger22" 22
24 "Bip01 R Clavicle" 10
25 "Bip01 R UpperArm" 24
26 "Bip01 R Forearm" 25
27 "Bip01 R Hand" 26
28 "Bip01 R Finger0" 27
29 "Bip01 R Finger01" 28
30 "Bip01 R Finger02" 29
31 "Bip01 R Finger1" 27
32 "Bip01 R Finger11" 31
33 "Bip01 R Finger12" 32
34 "Bip01 R Finger2" 27
35 "Bip01 R Finger21" 34
36 "Bip01 R Finger22" 35
37 "Bip01 R Finger4" 27
38 "Bip01 Head" 10
39 "Bone05" 38
40 "Bone08" 9
41 "Bone16" 8
42 "Bone01" 8
43 "Bone03" 1
44 "Box01" -1
end
skeleton
time 0
0  1.727579 6.791367 38.400349  0.000000 -0.000000 -1.701715
1  0.164394 -0.125004 0.000004  -1.570795 -1.570451 -0.000000
2  -0.000008 0.000009 4.427392  -0.170749 3.130202 0.000903
3  18.465937 0.000000 -0.000000  0.000000 -0.000000 -0.416557
4  14.875443 0.000000 0.000000  0.018467 0.017437 0.402071
5  0.000004 -0.000005 -4.427393  0.106016 3.095625 -0.362237
6  18.465939 0.000000 0.000000  0.000000 0.000000 -0.394334
7  14.875443 0.000000 0.000000  -0.002065 0.005218 0.029344
8  2.255205 -0.007575 0.000003  0.122101 -0.017401 -0.001322
9  9.514218 -0.009357 -0.000000  -0.008779 0.002352 -0.095902
10  11.752192 -0.001490 0.000000  0.000024 0.043599 0.440031
11  -2.111788 0.863597 2.563790  0.697216 -1.395374 2.006326
12  4.640939 0.000000 0.000013  0.003415 1.230668 -0.279848
13  10.828053 -0.000001 -0.000007  -0.006218 -0.069509 -0.643807
14  9.393339 -0.000005 0.000009  1.939538 0.008013 0.055012
15  1.442242 0.107453 -1.746178  1.686435 0.539209 0.325885
16  1.063453 0.000000 -0.000000  0.000000 -0.000000 0.199056
17  1.376310 -0.000002 0.000005  -0.000000 0.000000 0.199049
18  4.172846 -0.251369 -1.312746  0.008050 0.095731 0.148659
19  1.215378 -0.000004 -0.000002  -0.000000 0.000000 0.645758
20  1.215371 0.000008 0.000003  0.000000 0.000000 0.645758
21  4.220532 -0.244855 -0.431466  0.001333 0.026242 0.148339
22  1.350416 -0.000005 0.000001  0.000000 -0.000000 0.863926
23  1.350409 -0.000003 0.000002  0.000000 -0.000000 0.863926
24  -1.885223 0.863613 -2.731759  -0.942448 1.461427 1.764337
25  4.640937 -0.000002 -0.000013  0.840773 -0.556066 -1.008731
26  10.828048 0.000003 0.000013  0.372594 -1.232925 -0.552316
27  9.393341 0.000009 0.000000  1.046902 -0.119173 0.046355
28  1.442245 0.107455 1.746179  -1.686405 -0.539236 0.325898
29  1.063452 -0.000009 -0.000001  0.000000 -0.000000 0.199056
30  1.376309 0.000000 -0.000001  -0.000000 -0.000000 0.199059
31  4.172843 -0.251364 1.312745  -0.008050 -0.095731 0.148659
32  1.215370 0.000001 -0.000001  -0.000000 -0.000000 0.645746
33  1.215371 0.000002 -0.000001  -0.000000 -0.000000 0.645746
34  4.220530 -0.244853 0.431467  -0.001333 -0.026242 0.148339
35  1.350415 -0.000003 -0.000003  -0.000000 0.000000 0.863937
36  1.350411 0.000000 0.000001  0.000000 0.000000 0.863925
37  4.262828 -0.232717 -1.392184  0.016840 0.076668 0.253759
38  2.110548 -0.000001 -0.000000  0.002417 -0.010493 -0.153718
39  0.891929 2.373050 -0.014527  -3.141592 -0.000001 1.413797
40  7.228112 5.709445 3.726568  3.140796 -1.570796 0.000000
41  2.450423 5.076127 0.001325  3.140791 -1.570796 0.000000
42  6.312402 -4.528056 0.001311  3.140791 -1.570796 0.000000
43  2.233305 1.152536 -7.309137  -1.140138 -1.553350 -0.884449
44  3.061500 2.842763 2.243589  0.000000 -0.000000 1.570796
time 1
0  1.563512 6.720230 38.416107  0.000000 -0.000000 -1.701715
1  0.172208 -0.125004 0.000000  0.000034 -1.574203 -1.570821
2  0.000002 0.000010 4.427392  -0.169791 3.137682 0.006050
3  18.465939 -0.000001 -0.000000  0.000000 -0.000000 -0.411220
4  14.875442 -0.000002 -0.000000  0.017579 0.012584 0.401123
5  0.000010 -0.000004 -4.427393  0.108220 3.103565 -0.356996
6  18.465940 -0.000000 0.000000  0.000000 -0.000000 -0.389608
7  14.875444 0.000000 0.000000  -0.001363 0.001126 0.030282
8  2.255214 -0.007574 -0.007810  0.125519 -0.013964 -0.001388
9  9.514224 -0.009356 -0.000000  -0.004052 0.002567 -0.097677
10  11.752196 -0.001489 0.000000  0.000024 0.040063 0.440031
11  -2.103984 0.863597 2.567697  0.710364 -1.395978 1.993498
12  4.640938 0.000001 0.000003  0.018015 1.231899 -0.262398
13  10.828050 -0.000000 -0.000005  -0.006217 -0.069509 -0.643807
14  9.393342 -0.000005 0.000009  1.939538 0.008013 0.055012
15  1.442241 0.107455 -1.746177  1.686435 0.539209 0.325885
16  1.063451 -0.000001 -0.000000  0.000000 -0.000000 0.199056
17  1.376308 -0.000001 0.000005  -0.000000 -0.000000 0.199049
18  4.172845 -0.251368 -1.312746  0.008050 0.095731 0.148659
19  1.215377 -0.000005 -0.000003  0.000000 -0.000000 0.645758
20  1.215370 0.000004 0.000004  0.000000 0.000000 0.645758
21  4.220529 -0.244853 -0.431467  0.001333 0.026242 0.148339
22  1.350417 -0.000006 -0.000000  -0.000000 -0.000000 0.863926
23  1.350410 -0.000005 0.000001  0.000000 0.000000 0.863926
24  -1.896942 0.863610 -2.723946  -0.940319 1.456373 1.766645
25  4.640936 -0.000003 -0.000013  0.840773 -0.556066 -1.008731
26  10.828050 0.000005 0.000012  0.372594 -1.232925 -0.552316
27  9.393343 0.000010 -0.000002  1.046902 -0.119173 0.046355
28  1.442244 0.107453 1.746175  -1.686405 -0.539236 0.325898
29  1.063451 -0.000005 -0.000000  0.000000 0.000000 0.199056
30  1.376308 0.000003 -0.000002  -0.000000 0.000000 0.199059
31  4.172844 -0.251365 1.312739  -0.008050 -0.095731 0.148659
32  1.215369 0.000001 -0.000003  -0.000000 0.000000 0.645746
33  1.215374 0.000001 -0.000004  0.000000 0.000000 0.645746
34  4.220529 -0.244856 0.431464  -0.001333 -0.026242 0.148339
35  1.350414 -0.000003 -0.000006  -0.000000 0.000000 0.863937
36  1.350409 -0.000003 -0.000002  0.000000 0.000000 0.863925
37  4.262826 -0.232720 -1.392184  0.016840 0.076668 0.253759
38  2.110541 -0.000004 -0.000000  -0.000308 -0.008779 -0.152305
39  0.891926 2.373049 -0.014527  -3.141592 -0.000001 1.413797
40  7.228117 5.709445 3.726568  3.140796 -1.570796 0.000000
41  2.450430 5.076128 0.001325  3.140791 -1.570796 0.000000
42  6.312409 -4.528056 0.001311  3.140791 -1.570796 0.000000
43  2.233308 1.152536 -7.309137  -1.139946 -1.545690 -0.880333
44  3.061500 2.842763 2.243589  0.000000 -0.000000 1.570796
time 2
0  1.403350 6.649094 38.431866  0.000000 -0.000000 -1.701715
1  0.180020 -0.121097 0.000000  0.000033 -1.577566 -1.570821
2  -0.000008 0.000009 4.427392  -0.168833 -3.138117 0.011578
3  18.465940 -0.000001 -0.000000  0.000000 -0.000000 -0.405152
4  14.875443 -0.000002 0.000001  0.016619 0.007668 0.399819
5  0.000004 -0.000004 -4.427393  0.110425 3.111409 -0.351568
6  18.465939 -0.000000 -0.000000  0.000000 -0.000000 -0.384554
7  14.875443 0.000000 -0.000000  -0.000766 -0.002997 0.031070
8  2.255203 -0.007575 -0.015622  0.128852 -0.010626 -0.001421
9  9.514219 -0.009357 0.000000  0.000713 0.002796 -0.099496
10  11.752197 -0.001489 0.000000  0.000024 0.036420 0.440031
11  -2.096164 0.863596 2.575509  0.722273 -1.396658 1.982009
12  4.640939 0.000000 0.000006  0.054303 1.234422 -0.218993
13  10.828053 -0.000001 -0.000005  -0.006217 -0.069509 -0.643807
14  9.393335 -0.000003 0.000011  1.939538 0.008013 0.055012
15  1.442243 0.107453 -1.746178  1.686435 0.539209 0.325885
16  1.063451 0.000000 -0.000001  -0.000000 -0.000000 0.199056
17  1.376310 0.000000 0.000006  -0.000000 -0.000000 0.199049
18  4.172846 -0.251368 -1.312746  0.008050 0.095731 0.148659
19  1.215380 -0.000004 -0.000002  -0.000000 0.000000 0.645758
20  1.215370 -0.000000 0.000000  0.000000 0.000000 0.645758
21  4.220528 -0.244853 -0.431464  0.001333 0.026242 0.148339
22  1.350418 -0.000005 0.000003  0.000000 -0.000000 0.863926
23  1.350410 -0.000008 -0.000000  -0.000000 0.000000 0.863926
24  -1.904747 0.863609 -2.720040  -0.939579 1.451108 1.767585
25  4.640936 -0.000003 -0.000022  0.840773 -0.556066 -1.008731
26  10.828047 -0.000003 0.000012  0.372594 -1.232925 -0.552316
27  9.393341 0.000006 -0.000002  1.046902 -0.119173 0.046355
28  1.442246 0.107455 1.746176  -1.686405 -0.539236 0.325898
29  1.063451 -0.000006 -0.000001  0.000000 -0.000000 0.199056
30  1.376310 -0.000001 -0.000001  -0.000000 -0.000000 0.199059
31  4.172845 -0.251365 1.312745  -0.008050 -0.095731 0.148659
32  1.215372 -0.000000 -0.000002  -0.000000 -0.000000 0.645746
33  1.215372 0.000001 0.000004  0.000000 0.000000 0.645746
34  4.220531 -0.244855 0.431471  -0.001333 -0.026242 0.148339
35  1.350414 -0.000003 -0.000008  -0.000000 -0.000000 0.863937
36  1.350409 -0.000002 -0.000006  -0.000000 0.000000 0.863925
37  4.262829 -0.232719 -1.392181  0.016840 0.076668 0.253759
38  2.110544 -0.000003 -0.000000  -0.003291 -0.007035 -0.150845
39  0.891934 2.373049 -0.014527  -3.141592 -0.000001 1.413797
40  7.228115 5.709445 3.726568  3.140796 -1.570796 0.000000
41  2.450427 5.076127 0.001325  3.140791 -1.570796 0.000000
42  6.312406 -4.528057 0.001311  3.140791 -1.570796 0.000000
43  2.233305 1.152536 -7.309136  -1.139178 -1.538118 -0.876695
44  3.061500 2.842763 2.243589  0.000000 -0.000000 1.570796
time 3
0  1.239283 6.586850 38.463379  0.000000 -0.000000 -1.701715
1  0.187833 -0.117191 0.000000  -0.000030 -1.580827 -1.570772
2  -0.000008 0.000009 4.427393  -0.167875 -3.130826 0.017392
3  18.465939 0.000001 0.000000  0.000000 0.000000 -0.398427
4  14.875446 -0.000000 -0.000001  0.015623 0.002708 0.398160
5  0.000008 -0.000004 -4.427393  0.112629 3.119253 -0.346046
6  18.465942 -0.000001 0.000001  0.000000 -0.000000 -0.379172
7  14.875443 0.000000 0.000000  -0.000169 -0.007180 0.031745
8  2.255210 -0.007574 -0.023435  0.132143 -0.007346 -0.001487
9  9.514219 -0.009357 -0.000000  0.005628 0.003037 -0.101336
10  11.752193 -0.001490 0.000000  0.000024 0.032717 0.440031
11  -2.084450 0.863599 2.583322  0.733230 -1.397388 1.971478
12  4.640939 0.000001 0.000011  0.100683 1.236541 -0.163375
13  10.828058 -0.000000 -0.000010  -0.006217 -0.069509 -0.643807
14  9.393342 -0.000004 0.000011  1.939538 0.008013 0.055012
15  1.442242 0.107454 -1.746174  1.686435 0.539209 0.325885
16  1.063452 0.000000 0.000004  -0.000000 -0.000000 0.199056
17  1.376310 -0.000001 0.000007  0.000000 -0.000000 0.199049
18  4.172848 -0.251369 -1.312744  0.008050 0.095731 0.148659
19  1.215373 -0.000004 -0.000002  0.000000 0.000000 0.645758
20  1.215371 0.000007 -0.000001  0.000000 0.000000 0.645758
21  4.220533 -0.244853 -0.431465  0.001333 0.026242 0.148339
22  1.350414 -0.000005 0.000000  -0.000000 0.000000 0.863926
23  1.350410 -0.000003 0.000000  -0.000000 0.000000 0.863926
24  -1.916478 0.863616 -2.712226  -0.939764 1.445631 1.767585
25  4.640936 -0.000003 -0.000014  0.840773 -0.556066 -1.008731
26  10.828047 0.000002 0.000011  0.372594 -1.232925 -0.552316
27  9.393346 0.000004 0.000000  1.046902 -0.119173 0.046355
28  1.442246 0.107455 1.746170  -1.686405 -0.539236 0.325898
29  1.063451 -0.000010 0.000001  0.000000 0.000000 0.199056
30  1.376310 0.000000 0.000000  -0.000000 -0.000000 0.199059
31  4.172843 -0.251365 1.312739  -0.008050 -0.095731 0.148659
32  1.215368 0.000000 0.000000  0.000000 0.000000 0.645746
33  1.215371 0.000002 0.000000  0.000000 0.000000 0.645746
34  4.220529 -0.244855 0.431464  -0.001333 -0.026242 0.148339
35  1.350415 -0.000002 -0.000007  -0.000000 -0.000000 0.863937
36  1.350410 -0.000001 -0.000000  -0.000000 0.000000 0.863925
37  4.262827 -0.232719 -1.392188  0.016840 0.076668 0.253759
38  2.110540 0.000001 -0.000000  -0.006376 -0.005291 -0.149292
39  0.891935 2.373049 -0.014527  -3.141592 -0.000001 1.413797
40  7.228118 5.709445 3.726568  3.140796 -1.570796 0.000000
41  2.450428 5.076128 0.001325  3.140791 -1.570796 0.000000
42  6.312404 -4.528058 0.001311  3.140791 -1.570796 0.000000
43  2.233306 1.152536 -7.309137  -1.138890 -1.530662 -0.872578
44  3.061500 2.842763 2.243589  0.000000 -0.000000 1.570796
time 4
0  1.071309 6.515713 38.479134  0.000000 -0.000000 -1.701715
1  0.195646 -0.113285 0.000004  -0.000030 -1.584061 -1.570772
2  -0.000009 0.000009 4.427393  -0.167108 -3.123725 0.023588
3  18.465942 0.000001 -0.000000  0.000000 -0.000000 -0.390970
4  14.875444 -0.000002 -0.000000  0.014628 -0.002272 0.396185
5  0.000007 -0.000004 -4.427393  0.114642 3.127098 -0.340244
6  18.465940 -0.000001 0.000000  0.000000 0.000000 -0.373396
7  14.875442 0.000000 0.000000  0.000427 -0.011394 0.032233
8  2.255204 -0.007575 -0.027342  0.135350 -0.004106 -0.001553
9  9.514223 -0.009357 -0.000000  0.010617 0.003279 -0.103219
10  11.752193 -0.001489 0.000000  0.000012 0.028966 0.440031
11  -2.076632 0.863599 2.591134  0.743520 -1.398169 1.961426
12  4.640937 0.000001 0.000011  0.144594 1.237202 -0.110243
13  10.828054 -0.000001 -0.000006  -0.006217 -0.069509 -0.643807
14  9.393336 -0.000008 0.000009  1.939538 0.008013 0.055012
15  1.442242 0.107456 -1.746179  1.686435 0.539209 0.325885
16  1.063452 -0.000001 0.000001  0.000000 -0.000000 0.199056
17  1.376309 -0.000000 0.000009  0.000000 -0.000000 0.199049
18  4.172844 -0.251368 -1.312743  0.008050 0.095731 0.148659
19  1.215378 -0.000003 -0.000002  0.000000 0.000000 0.645758
20  1.215371 0.000004 0.000001  0.000000 0.000000 0.645758
21  4.220531 -0.244853 -0.431467  0.001333 0.026242 0.148339
22  1.350414 -0.000005 0.000004  0.000000 -0.000000 0.863926
23  1.350408 -0.000003 0.000002  -0.000000 0.000000 0.863926
24  -1.928187 0.863613 -2.704414  -0.940412 1.440002 1.767072
25  4.640937 -0.000003 -0.000011  0.840773 -0.556066 -1.008731
26  10.828052 0.000005 0.000010  0.372594 -1.232925 -0.552316
27  9.393340 0.000006 -0.000001  1.046902 -0.119173 0.046355
28  1.442246 0.107454 1.746175  -1.686405 -0.539236 0.325898
29  1.063451 -0.000007 -0.000001  0.000000 0.000000 0.199056
30  1.376308 -0.000004 0.000000  -0.000000 -0.000000 0.199059
31  4.172844 -0.251365 1.312747  -0.008050 -0.095731 0.148659
32  1.215374 -0.000001 -0.000000  0.000000 0.000000 0.645746
33  1.215372 0.000003 0.000002  0.000000 0.000000 0.645746
34  4.220531 -0.244854 0.431467  -0.001333 -0.026242 0.148339
35  1.350415 -0.000001 -0.000007  -0.000000 -0.000000 0.863937
36  1.350411 -0.000002 0.000003  -0.000000 0.000000 0.863925
37  4.262827 -0.232720 -1.392182  0.016840 0.076668 0.253759
38  2.110548 -0.000001 -0.000000  -0.009563 -0.003517 -0.147738
39  0.891929 2.373047 -0.014527  -3.141592 -0.000001 1.413797
40  7.228115 5.709445 3.726567  3.140796 -1.570796 0.000000
41  2.450432 5.076127 0.001325  3.140791 -1.570796 0.000000
42  6.312408 -4.528056 0.001311  3.140791 -1.570796 0.000000
43  2.233304 1.152535 -7.309137  -1.138507 -1.523614 -0.868461
44  3.061500 2.842763 2.243589  0.000000 -0.000000 1.570796
time 5
0  0.911148 6.444577 38.510647  0.000000 -0.000000 -1.701715
1  0.203458 -0.109378 0.000000  -0.000030 -1.587266 -1.570772
2  -0.000005 0.000009 4.427392  -0.166342 -3.116529 0.030069
3  18.465939 -0.000000 -0.000001  -0.000000 -0.000000 -0.382928
4  14.875443 -0.000002 0.000000  0.013632 -0.007274 0.393854
5  0.000003 -0.000004 -4.427393  0.116654 3.134942 -0.334255
6  18.465940 -0.000001 -0.000000  -0.000000 -0.000000 -0.367226
7  14.875443 0.000000 0.000000  0.001024 -0.015608 0.032496
8  2.255210 -0.007575 -0.035154  0.138556 -0.000904 -0.001619
9  9.514219 -0.009357 -0.000000  0.015645 0.003548 -0.105103
10  11.752191 -0.001489 -0.000000  0.000012 0.025191 0.440031
11  -2.064920 0.863596 2.598947  0.753619 -1.398924 1.951757
12  4.640938 0.000000 0.000006  0.172908 1.236210 -0.074841
13  10.828054 -0.000000 -0.000005  -0.006217 -0.069509 -0.643807
14  9.393345 0.000001 0.000007  1.939538 0.008013 0.055012
15  1.442240 0.107458 -1.746176  1.686435 0.539209 0.325885
16  1.063450 -0.000000 0.000001  -0.000000 -0.000000 0.199056
17  1.376308 -0.000001 0.000009  -0.000000 -0.000000 0.199049
18  4.172849 -0.251367 -1.312748  0.008050 0.095731 0.148659
19  1.215377 -0.000003 -0.000004  -0.000000 -0.000000 0.645758
20  1.215370 0.000003 0.000001  0.000000 0.000000 0.645758
21  4.220532 -0.244852 -0.431466  0.001333 0.026242 0.148339
22  1.350413 -0.000008 0.000004  0.000000 -0.000000 0.863926
23  1.350410 -0.000000 0.000001  0.000000 -0.000000 0.863926
24  -1.936011 0.863613 -2.696601  -0.941338 1.434343 1.766303
25  4.640936 -0.000003 -0.000008  0.840773 -0.556066 -1.008731
26  10.828049 0.000004 0.000007  0.372594 -1.232925 -0.552316
27  9.393343 0.000009 -0.000000  1.046902 -0.119173 0.046355
28  1.442248 0.107455 1.746185  -1.686405 -0.539236 0.325898
29  1.063452 -0.000006 0.000002  0.000000 0.000000 0.199056
30  1.376308 -0.000004 -0.000001  -0.000000 0.000000 0.199059
31  4.172849 -0.251364 1.312749  -0.008050 -0.095731 0.148659
32  1.215370 -0.000000 -0.000003  0.000000 0.000000 0.645746
33  1.215372 0.000002 0.000004  0.000000 0.000000 0.645746
34  4.220535 -0.244853 0.431472  -0.001333 -0.026242 0.148339
35  1.350415 -0.000003 -0.000007  -0.000000 -0.000000 0.863937
36  1.350411 0.000000 -0.000001  -0.000000 0.000000 0.863925
37  4.262831 -0.232718 -1.392175  0.016840 0.076668 0.253759
38  2.110542 -0.000003 -0.000000  -0.012700 -0.001743 -0.146137
39  0.891928 2.373049 -0.014527  -3.141592 -0.000001 1.413797
40  7.228107 5.709445 3.726568  3.140796 -1.570796 0.000000
41  2.450430 5.076128 0.001325  3.140791 -1.570796 0.000000
42  6.312404 -4.528057 0.001311  3.140791 -1.570796 0.000000
43  2.233303 1.152535 -7.309138  -1.138123 -1.517934 -0.864440
44  3.061500 2.842763 2.243589  0.000000 -0.000000 1.570796
time 6
0  0.743174 6.364548 38.526405  0.000000 -0.000000 -1.701715
1  0.211270 -0.105472 0.000004  0.000033 -1.590472 -1.570821
2  -0.000005 0.000009 4.427393  -0.165671 -3.109333 0.036741
3  18.465944 0.000001 -0.000000  0.000000 -0.000000 -0.374447
4  14.875444 -0.000001 -0.000000  0.012637 -0.012233 0.391286
5  0.000006 -0.000003 -4.427393  0.118475 -3.140303 -0.328171
6  18.465940 0.000001 0.000001  -0.000000 -0.000000 -0.360531
7  14.875442 -0.000000 0.000001  0.001585 -0.019791 0.032496
8  2.255209 -0.007574 -0.042967  0.141721 0.002277 -0.001652
9  9.514224 -0.009357 -0.000000  0.020672 0.003817 -0.106964
10  11.752192 -0.001490 -0.000000  0.000012 0.021415 0.440031
11  -2.057100 0.863595 2.606760  0.763814 -1.399680 1.941896
12  4.640939 0.000001 0.000004  0.187448 1.234236 -0.055419
13  10.828055 -0.000001 -0.000005  -0.006217 -0.069509 -0.643807
14  9.393335 -0.000002 0.000008  1.939538 0.008013 0.055012
15  1.442240 0.107455 -1.746173  1.686435 0.539209 0.325885
16  1.063452 -0.000002 -0.000002  0.000000 0.000000 0.199056
17  1.376308 -0.000001 0.000004  0.000000 -0.000000 0.199049
18  4.172847 -0.251370 -1.312744  0.008050 0.095731 0.148659
19  1.215377 -0.000002 -0.000001  0.000000 0.000000 0.645758
20  1.215368 0.000002 0.000000  0.000000 0.000000 0.645758
21  4.220533 -0.244855 -0.431465  0.001333 0.026242 0.148339
22  1.350412 -0.000003 0.000003  0.000000 -0.000000 0.863926
23  1.350410 -0.000004 -0.000000  -0.000000 0.000000 0.863926
24  -1.947719 0.863611 -2.688789  -0.942171 1.428684 1.765534
25  4.640936 -0.000003 -0.000007  0.840773 -0.556066 -1.008731
26  10.828048 0.000001 0.000007  0.372594 -1.232925 -0.552316
27  9.393343 0.000010 -0.000001  1.046902 -0.119173 0.046355
28  1.442247 0.107455 1.746178  -1.686405 -0.539236 0.325898
29  1.063451 -0.000014 0.000000  0.000000 0.000000 0.199056
30  1.376309 -0.000003 -0.000001  -0.000000 -0.000000 0.199059
31  4.172845 -0.251364 1.312744  -0.008050 -0.095731 0.148659
32  1.215372 -0.000001 -0.000003  0.000000 0.000000 0.645746
33  1.215374 0.000002 0.000004  -0.000000 0.000000 0.645746
34  4.220532 -0.244854 0.431472  -0.001333 -0.026242 0.148339
35  1.350416 -0.000001 -0.000008  -0.000000 -0.000000 0.863937
36  1.350409 -0.000000 -0.000003  -0.000000 0.000000 0.863925
37  4.262829 -0.232717 -1.392183  0.016840 0.076668 0.253759
38  2.110549 -0.000004 -0.000000  -0.015887 0.000031 -0.144489
39  0.891932 2.373048 -0.014527  -3.141592 -0.000001 1.413797
40  7.228115 5.709444 3.726567  3.140796 -1.570796 0.000000
41  2.450433 5.076128 0.001325  3.140791 -1.570796 0.000000
42  6.312408 -4.528058 0.001311  3.140791 -1.570796 0.000000
43  2.233303 1.152536 -7.309137  -1.138219 -1.512022 -0.859940
44  3.061500 2.842763 2.243589  0.000000 -0.000000 1.570796
time 7
0  0.575200 6.302303 38.557919  0.000000 -0.000000 -1.701715
1  0.219084 -0.101566 0.000000  -0.000030 -1.593690 -1.570772
2  -0.000004 0.000009 4.427393  -0.165192 -3.102231 0.043509
3  18.465937 0.000001 0.000000  0.000000 -0.000000 -0.365601
4  14.875443 -0.000002 0.000000  0.011606 -0.017192 0.388482
5  0.000004 -0.000004 -4.427393  0.120296 -3.132363 -0.321808
6  18.465942 -0.000001 0.000000  -0.000000 -0.000000 -0.353377
7  14.875443 0.000000 -0.000000  0.002147 -0.023974 0.032196
8  2.255205 -0.007575 -0.050780  0.144970 0.005518 -0.001719
9  9.514220 -0.009357 -0.000000  0.025624 0.004099 -0.108848
10  11.752200 -0.001489 0.000000  0.000012 0.017664 0.440031
11  -2.045389 0.863598 2.614573  0.774389 -1.400385 1.931652
12  4.640939 0.000000 0.000010  0.198914 1.231898 -0.039900
13  10.828047 -0.000002 -0.000006  -0.006217 -0.069509 -0.643807
14  9.393336 -0.000003 0.000007  1.939538 0.008013 0.055012
15  1.442237 0.107458 -1.746177  1.686435 0.539209 0.325885
16  1.063450 -0.000001 -0.000002  -0.000000 -0.000000 0.199056
17  1.376306 -0.000002 0.000008  0.000000 0.000000 0.199049
18  4.172843 -0.251367 -1.312748  0.008050 0.095731 0.148659
19  1.215376 -0.000005 -0.000001  -0.000000 -0.000000 0.645758
20  1.215369 0.000004 0.000002  0.000000 0.000000 0.645758
21  4.220528 -0.244850 -0.431467  0.001333 0.026242 0.148339
22  1.350415 -0.000003 0.000001  -0.000000 -0.000000 0.863926
23  1.350410 0.000001 0.000000  0.000000 0.000000 0.863926
24  -1.955533 0.863608 -2.680976  -0.942726 1.423056 1.765107
25  4.640935 -0.000003 -0.000018  0.840773 -0.556066 -1.008731
26  10.828053 0.000005 0.000013  0.372594 -1.232925 -0.552316
27  9.393343 0.000010 -0.000001  1.046902 -0.119173 0.046355
28  1.442245 0.107455 1.746177  -1.686405 -0.539236 0.325898
29  1.063451 -0.000006 0.000000  0.000000 0.000000 0.199056
30  1.376310 0.000001 -0.000002  -0.000000 0.000000 0.199059
31  4.172844 -0.251364 1.312742  -0.008050 -0.095731 0.148659
32  1.215372 0.000000 -0.000001  -0.000000 -0.000000 0.645746
33  1.215375 0.000002 -0.000008  0.000000 0.000000 0.645746
34  4.220530 -0.244854 0.431467  -0.001333 -0.026242 0.148339
35  1.350417 -0.000002 -0.000004  -0.000000 0.000000 0.863937
36  1.350411 0.000000 -0.000002  -0.000000 0.000000 0.863925
37  4.262825 -0.232718 -1.392182  0.016840 0.076668 0.253759
38  2.110542 -0.000004 -0.000000  -0.019024 0.001835 -0.142841
39  0.891926 2.373049 -0.014527  -3.141592 -0.000001 1.413797
40  7.228119 5.709444 3.726567  3.140796 -1.570796 0.000000
41  2.450426 5.076127 0.001325  3.140791 -1.570796 0.000000
42  6.312401 -4.528057 0.001311  3.140791 -1.570796 0.000000
43  2.233307 1.152535 -7.309138  -1.138794 -1.504275 -0.854866
44  3.061500 2.842763 2.243589  0.000000 -0.000000 1.570796
time 8
0  0.411133 6.231167 38.573673  0.000000 -0.000000 -1.701715
1  0.226896 -0.097659 0.000004  -0.000030 -1.596967 -1.570772
2  -0.000006 0.000009 4.427393  -0.164713 -3.095130 0.050467
3  18.465935 0.000000 -0.000000  -0.000000 0.000000 -0.356390
4  14.875443 -0.000001 -0.000001  0.010610 -0.022109 0.385479
5  0.000008 -0.000004 -4.427393  0.122022 -3.124328 -0.315350
6  18.465942 0.000000 0.000001  -0.000000 -0.000000 -0.345697
7  14.875445 0.000000 -0.000000  0.002673 -0.028127 0.031558
8  2.255208 -0.007575 -0.058593  0.148218 0.008797 -0.001785
9  9.514214 -0.009357 -0.000000  0.030539 0.004381 -0.110688
10  11.752194 -0.001489 0.000000  0.000000 0.013961 0.440031
11  -2.037574 0.863597 2.622385  0.785822 -1.401014 1.920738
12  4.640940 -0.000000 0.000008  0.207660 1.229359 -0.027854
13  10.828053 -0.000001 -0.000006  -0.006218 -0.069509 -0.643807
14  9.393341 -0.000001 0.000007  1.939538 0.008013 0.055012
15  1.442239 0.107459 -1.746176  1.686435 0.539209 0.325885
16  1.063453 -0.000001 -0.000001  -0.000000 -0.000000 0.199056
17  1.376307 -0.000001 0.000008  -0.000000 -0.000000 0.199049
18  4.172847 -0.251367 -1.312746  0.008050 0.095731 0.148659
19  1.215379 -0.000007 -0.000001  0.000000 0.000000 0.645758
20  1.215370 0.000006 0.000002  0.000000 0.000000 0.645758
21  4.220534 -0.244852 -0.431470  0.001333 0.026242 0.148339
22  1.350415 -0.000004 -0.000000  -0.000000 0.000000 0.863926
23  1.350410 -0.000002 0.000001  0.000000 -0.000000 0.863926
24  -1.967259 0.863612 -2.677070  -0.942819 1.417578 1.765192
25  4.640935 -0.000003 -0.000014  0.840773 -0.556066 -1.008731
26  10.828045 0.000007 0.000005  0.372594 -1.232925 -0.552316
27  9.393344 0.000004 0.000001  1.046902 -0.119173 0.046355
28  1.442244 0.107454 1.746179  -1.686405 -0.539236 0.325898
29  1.063451 -0.000010 -0.000001  0.000000 0.000000 0.199056
30  1.376308 0.000000 -0.000001  -0.000000 -0.000000 0.199059
31  4.172843 -0.251365 1.312743  -0.008050 -0.095731 0.148659
32  1.215370 -0.000001 -0.000001  0.000000 -0.000000 0.645746
33  1.215371 0.000003 -0.000005  0.000000 0.000000 0.645746
34  4.220530 -0.244853 0.431466  -0.001333 -0.026242 0.148339
35  1.350416 -0.000003 -0.000007  -0.000000 -0.000000 0.863937
36  1.350410 -0.000001 -0.000000  0.000000 0.000000 0.863925
37  4.262827 -0.232719 -1.392185  0.016840 0.076668 0.253759
38  2.110540 -0.000002 -0.000000  -0.022006 0.003609 -0.141193
39  0.891929 2.373049 -0.014527  -3.141592 -0.000001 1.413797
40  7.228114 5.709445 3.726568  3.140796 -1.570796 0.000000
41  2.450426 5.076127 0.001325  3.140791 -1.570796 0.000000
42  6.312399 -4.528057 0.001311  3.140791 -1.570796 0.000000
43  2.233305 1.152535 -7.309136  -1.139561 -1.495567 -0.849504
44  3.061500 2.842763 2.243589  0.000000 -0.000000 1.570796
time 9
0  0.250972 6.160031 38.605186  0.000000 -0.000000 -1.701715
1  0.234708 -0.093753 0.000000  0.000033 -1.600302 -1.570821
2  -0.000005 0.000009 4.427393  -0.164426 -3.087934 0.057425
3  18.465937 0.000000 -0.000001  -0.000000 0.000000 -0.347032
4  14.875444 -0.000001 0.000000  0.009579 -0.026940 0.382359
5  0.000003 -0.000004 -4.427392  0.123651 -3.116196 -0.308705
6  18.465946 0.000001 0.000001  0.000000 0.000000 -0.337493
7  14.875442 -0.000000 0.000000  0.003200 -0.032220 0.030545
8  2.255204 -0.007574 -0.066405  0.151552 0.012136 -0.001818
9  9.514219 -0.009357 -0.000000  0.035379 0.004664 -0.112485
10  11.752199 -0.001489 0.000000  0.000000 0.010318 0.440031
11  -2.025855 0.863599 2.630198  0.798304 -1.401568 1.908580
12  4.640939 0.000001 0.000004  0.214060 1.226766 -0.018832
13  10.828050 -0.000001 -0.000005  -0.006217 -0.069509 -0.643807
14  9.393337 -0.000004 0.000006  1.939538 0.008013 0.055012
15  1.442239 0.107454 -1.746175  1.686435 0.539209 0.325885
16  1.063452 0.000000 0.000001  0.000000 -0.000000 0.199056
17  1.376306 -0.000001 0.000005  -0.000000 -0.000000 0.199049
18  4.172844 -0.251369 -1.312744  0.008050 0.095731 0.148659
19  1.215377 -0.000005 -0.000003  -0.000000 0.000000 0.645758
20  1.215370 0.000002 0.000004  0.000000 -0.000000 0.645758
21  4.220529 -0.244853 -0.431466  0.001333 0.026242 0.148339
22  1.350416 -0.000005 0.000001  -0.000000 0.000000 0.863926
23  1.350410 -0.000005 -0.000002  -0.000000 0.000000 0.863926
24  -1.971159 0.863611 -2.669258  -0.942171 1.412283 1.765790
25  4.640935 -0.000003 -0.000015  0.840773 -0.556066 -1.008731
26  10.828047 -0.000002 0.000009  0.372594 -1.232925 -0.552316
27  9.393344 0.000009 -0.000002  1.046902 -0.119173 0.046355
28  1.442245 0.107454 1.746178  -1.686405 -0.539236 0.325898
29  1.063452 -0.000008 0.000001  0.000000 0.000000 0.199056
30  1.376309 0.000003 -0.000000  -0.000000 -0.000000 0.199059
31  4.172844 -0.251365 1.312744  -0.008050 -0.095731 0.148659
32  1.215371 -0.000000 0.000003  0.000000 -0.000000 0.645746
33  1.215371 0.000001 -0.000001  0.000000 0.000000 0.645746
34  4.220531 -0.244854 0.431468  -0.001333 -0.026242 0.148339
35  1.350415 -0.000003 0.000000  -0.000000 0.000000 0.863937
36  1.350411 -0.000002 0.000001  0.000000 0.000000 0.863925
37  4.262827 -0.232718 -1.392184  0.016840 0.076668 0.253759
38  2.110544 -0.000004 -0.000000  -0.024885 0.005413 -0.139545
39  0.891931 2.373048 -0.014527  -3.141592 -0.000001 1.413797
40  7.228119 5.709445 3.726568  3.140796 -1.570796 0.000000
41  2.450427 5.076127 0.001325  3.140791 -1.570796 0.000000
42  6.312406 -4.528057 0.001311  3.140791 -1.570796 0.000000
43  2.233308 1.152536 -7.309136  -1.140616 -1.486509 -0.843856
44  3.061500 2.842763 2.243589  0.000000 -0.000000 1.570796
time 10
0  0.090810 6.088894 38.620945  0.000000 -0.000000 -1.701715
1  0.242522 -0.089846 0.000004  0.000033 -1.603737 -1.570821
2  -0.000003 0.000009 4.427392  -0.164138 -3.080832 0.064287
3  18.465939 -0.000000 -0.000001  0.000000 -0.000000 -0.337601
4  14.875445 -0.000001 0.000000  0.008548 -0.031687 0.379159
5  0.000009 -0.000004 -4.427392  0.125184 -3.108065 -0.301874
6  18.465940 0.000000 0.000000  0.000000 -0.000000 -0.328698
7  14.875442 0.000000 -0.000000  0.003691 -0.036251 0.029157
8  2.255209 -0.007574 -0.074218  0.154969 0.015573 -0.001884
9  9.514222 -0.009357 -0.000000  0.040069 0.004959 -0.114260
10  11.752196 -0.001489 0.000000  0.000000 0.006782 0.440031
11  -2.018042 0.863599 2.638011  0.812119 -1.401946 1.895081
12  4.640939 0.000000 0.000007  0.218495 1.224253 -0.012380
13  10.828053 -0.000001 -0.000006  -0.006217 -0.069509 -0.643807
14  9.393339 -0.000005 0.000010  1.939538 0.008013 0.055012
15  1.442241 0.107457 -1.746174  1.686435 0.539209 0.325885
16  1.063448 0.000000 -0.000004  -0.000000 -0.000000 0.199056
17  1.376307 -0.000002 0.000011  -0.000000 -0.000000 0.199049
18  4.172849 -0.251369 -1.312744  0.008050 0.095731 0.148659
19  1.215374 -0.000001 -0.000003  -0.000000 0.000000 0.645758
20  1.215370 0.000005 0.000002  0.000000 0.000000 0.645758
21  4.220536 -0.244854 -0.431466  0.001333 0.026242 0.148339
22  1.350414 -0.000003 0.000001  -0.000000 0.000000 0.863926
23  1.350409 -0.000005 0.000001  0.000000 0.000000 0.863926
24  -1.982887 0.863613 -2.661443  -0.940782 1.407259 1.767243
25  4.640935 -0.000003 -0.000014  0.840773 -0.556066 -1.008731
26  10.828045 0.000005 0.000008  0.372594 -1.232925 -0.552316
27  9.393343 0.000005 -0.000002  1.046902 -0.119173 0.046355
28  1.442243 0.107454 1.746168  -1.686405 -0.539236 0.325898
29  1.063452 -0.000009 0.000001  0.000000 0.000000 0.199056
30  1.376309 -0.000000 0.000000  -0.000000 -0.000000 0.199059
31  4.172843 -0.251364 1.312737  -0.008050 -0.095731 0.148659
32  1.215373 0.000000 0.000003  -0.000000 -0.000000 0.645746
33  1.215371 0.000003 0.000000  -0.000000 0.000000 0.645746
34  4.220528 -0.244855 0.431459  -0.001333 -0.026242 0.148339
35  1.350413 -0.000004 -0.000010  -0.000000 -0.000000 0.863937
36  1.350411 -0.000002 -0.000005  -0.000000 0.000000 0.863925
37  4.262825 -0.232720 -1.392190  0.016840 0.076668 0.253759
38  2.110541 0.000000 -0.000000  -0.027610 0.007217 -0.137897
39  0.891922 2.373051 -0.014527  -3.141592 -0.000001 1.413797
40  7.228117 5.709445 3.726568  3.140796 -1.570796 0.000000
41  2.450427 5.076127 0.001325  3.140791 -1.570796 0.000000
42  6.312410 -4.528056 0.001311  3.140791 -1.570796 0.000000
43  2.233309 1.152535 -7.309137  -1.141958 -1.476490 -0.837728
44  3.061500 2.842763 2.243589  0.000000 -0.000000 1.570796
time 11
0  -0.069351 6.026650 38.636703  0.000000 -0.000000 -1.701715
1  0.246429 -0.085940 0.000004  -0.000030 -1.607285 -1.570772
2  -0.000004 0.000008 4.427393  -0.164042 -3.073636 0.071055
3  18.465937 0.000000 0.000001  0.000000 -0.000000 -0.328317
4  14.875447 -0.000000 0.000000  0.007553 -0.036348 0.375999
5  0.000013 -0.000004 -4.427393  0.126718 -3.099838 -0.294855
6  18.465933 0.000001 0.000000  0.000000 -0.000000 -0.319312
7  14.875443 -0.000000 -0.000000  0.004147 -0.040192 0.027318
8  2.255211 -0.007575 -0.082031  0.158513 0.019147 -0.001950
9  9.514216 -0.009357 -0.000000  0.044646 0.005242 -0.115948
10  11.752197 -0.001488 0.000000  -0.000000 0.003355 0.440031
11  -2.010224 0.863595 2.645824  0.827744 -1.402173 1.879763
12  4.640939 0.000000 0.000006  0.221338 1.221942 -0.008049
13  10.828054 -0.000003 -0.000006  -0.006217 -0.069509 -0.643807
14  9.393341 -0.000006 0.000008  1.939538 0.008013 0.055012
15  1.442237 0.107458 -1.746177  1.686435 0.539209 0.325885
16  1.063453 -0.000001 -0.000001  0.000000 0.000000 0.199056
17  1.376305 -0.000001 0.000006  -0.000000 -0.000000 0.199049
18  4.172845 -0.251368 -1.312748  0.008050 0.095731 0.148659
19  1.215377 -0.000003 -0.000005  -0.000000 0.000000 0.645758
20  1.215369 0.000000 0.000003  0.000000 0.000000 0.645758
21  4.220531 -0.244852 -0.431467  0.001333 0.026242 0.148339
22  1.350413 -0.000004 0.000001  -0.000000 0.000000 0.863926
23  1.350411 -0.000002 0.000002  0.000000 0.000000 0.863926
24  -1.990693 0.863612 -2.653630  -0.938375 1.402539 1.769636
25  4.640936 -0.000004 -0.000011  0.840773 -0.556066 -1.008731
26  10.828045 0.000000 0.000007  0.372594 -1.232925 -0.552316
27  9.393343 0.000007 0.000001  1.046902 -0.119173 0.046355
28  1.442245 0.107454 1.746176  -1.686405 -0.539236 0.325898
29  1.063452 -0.000011 -0.000001  0.000000 -0.000000 0.199056
30  1.376309 0.000000 -0.000000  -0.000000 0.000000 0.199059
31  4.172846 -0.251364 1.312742  -0.008050 -0.095731 0.148659
32  1.215373 -0.000000 0.000001  -0.000000 -0.000000 0.645746
33  1.215374 0.000002 -0.000005  0.000000 0.000000 0.645746
34  4.220532 -0.244854 0.431467  -0.001333 -0.026242 0.148339
35  1.350418 -0.000002 -0.000010  0.000000 0.000000 0.863937
36  1.350408 -0.000003 -0.000008  -0.000000 0.000000 0.863925
37  4.262827 -0.232718 -1.392185  0.016840 0.076668 0.253759
38  2.110543 -0.000003 -0.000000  -0.030078 0.009022 -0.136296
39  0.891935 2.373048 -0.014527  -3.141592 -0.000001 1.413797
40  7.228119 5.709446 3.726568  3.140796 -1.570796 0.000000
41  2.450425 5.076128 0.001325  3.140791 -1.570796 0.000000
42  6.312399 -4.528056 0.001311  3.140791 -1.570796 0.000000
43  2.233307 1.152536 -7.309137  -1.143780 -1.464461 -0.831122
44  3.061500 2.842763 2.243589  0.000000 -0.000000 1.570796
time 12
0  -0.221699 5.964406 38.668217  0.000000 -0.000000 -1.701715
1  0.254241 -0.082034 -0.000004  -0.000030 -1.610979 -1.570772
2  -0.000005 0.000009 4.427393  -0.164042 -3.066440 0.077631
3  18.465942 0.000000 0.000000  0.000000 -0.000000 -0.319397
4  14.875442 0.000001 0.000000  0.006557 -0.040881 0.372917
5  0.000011 -0.000004 -4.427393  0.128155 -3.091516 -0.287648
6  18.465942 0.000001 0.000001  0.000000 -0.000000 -0.309204
7  14.875443 0.000000 -0.000000  0.004604 -0.044042 0.024992
8  2.255207 -0.007574 -0.089843  0.162226 0.022839 -0.002016
9  9.514215 -0.009357 -0.000000  0.048998 0.005524 -0.117594
10  11.752200 -0.001489 -0.000000  0.000000 0.000059 0.440031
11  -1.998516 0.863598 2.649730  0.845465 -1.402173 1.862435
12  4.640938 0.000000 0.000004  0.222955 1.219952 -0.005401
13  10.828051 -0.000000 -0.000003  -0.006217 -0.069509 -0.643807
14  9.393343 -0.000003 0.000009  1.939538 0.008013 0.055012
15  1.442242 0.107455 -1.746175  1.686435 0.539209 0.325885
16  1.063455 -0.000001 -0.000002  0.000000 -0.000000 0.199056
17  1.376307 -0.000001 0.000009  0.000000 -0.000000 0.199049
18  4.172846 -0.251370 -1.312746  0.008050 0.095731 0.148659
19  1.215377 -0.000003 -0.000002  0.000000 0.000000 0.645758
20  1.215372 0.000001 0.000001  0.000000 0.000000 0.645758
21  4.220533 -0.244855 -0.431467  0.001333 0.026242 0.148339
22  1.350413 -0.000005 0.000001  -0.000000 -0.000000 0.863926
23  1.350411 -0.000003 -0.000000  0.000000 0.000000 0.863926
24  -1.998508 0.863612 -2.649724  -0.934858 1.398181 1.773140
25  4.640936 -0.000003 -0.000013  0.840773 -0.556066 -1.008731
26  10.828047 -0.000000 0.000013  0.372594 -1.232925 -0.552316
27  9.393349 0.000004 -0.000000  1.046902 -0.119173 0.046355
28  1.442248 0.107454 1.746175  -1.686405 -0.539236 0.325898
29  1.063451 -0.000006 0.000002  0.000000 -0.000000 0.199056
30  1.376308 -0.000001 0.000000  -0.000000 -0.000000 0.199059
31  4.172844 -0.251366 1.312745  -0.008050 -0.095731 0.148659
32  1.215372 0.000001 0.000004  -0.000000 -0.000000 0.645746
33  1.215372 0.000002 -0.000002  0.000000 -0.000000 0.645746
34  4.220532 -0.244855 0.431467  -0.001333 -0.026242 0.148339
35  1.350418 -0.000002 -0.000012  -0.000000 -0.000000 0.863937
36  1.350410 -0.000002 0.000001  -0.000000 0.000000 0.863925
37  4.262829 -0.232720 -1.392184  0.016840 0.076668 0.253759
38  2.110539 -0.000001 -0.000000  -0.032289 0.010796 -0.134742
39  0.891929 2.373050 -0.014527  -3.141592 -0.000001 1.413797
40  7.228116 5.709445 3.726568  3.140796 -1.570796 0.000000
41  2.450425 5.076127 0.001325  3.140791 -1.570796 0.000000
42  6.312399 -4.528058 0.001311  3.140791 -1.570796 0.000000
43  2.233306 1.152535 -7.309137  -1.145889 -1.452316 -0.824133
44  3.061500 2.842763 2.243589  0.000000 -0.000000 1.570796
time 13
0  -0.370141 5.911053 38.683971  0.000000 -0.000000 -1.701715
1  0.262054 -0.078127 0.000004  -0.000030 -1.614831 -1.570772
2  -0.000005 0.000008 4.427393  -0.164138 -3.059054 0.083827
3  18.465935 0.000000 -0.000001  0.000000 0.000000 -0.310917
4  14.875443 0.000000 -0.000001  0.005598 -0.045287 0.370034
5  0.000017 -0.000004 -4.427393  0.129401 -3.083097 -0.280349
6  18.465937 0.000001 0.000000  0.000000 0.000000 -0.298505
7  14.875443 0.000000 0.000000  0.005025 -0.047771 0.022141
8  2.255208 -0.007574 -0.097656  0.166066 0.026688 -0.002083
9  9.514224 -0.009358 -0.000000  0.053125 0.005806 -0.119131
10  11.752199 -0.001490 0.000000  0.000000 -0.003045 0.440031
11  -1.990697 0.863597 2.653636  0.865473 -1.401896 1.842809
12  4.640939 0.000000 0.000007  0.223696 1.218394 -0.004012
13  10.828049 -0.000001 -0.000003  -0.006217 -0.069509 -0.643807
14  9.393342 -0.000002 0.000005  1.939538 0.008013 0.055012
15  1.442245 0.107456 -1.746178  1.686435 0.539209 0.325885
16  1.063457 0.000000 0.000003  -0.000000 0.000000 0.199056
17  1.376308 -0.000001 0.000009  0.000000 -0.000000 0.199049
18  4.172848 -0.251366 -1.312747  0.008050 0.095731 0.148659
19  1.215374 -0.000006 -0.000004  -0.000000 0.000000 0.645758
20  1.215370 0.000007 0.000003  0.000000 0.000000 0.645758
21  4.220535 -0.244853 -0.431467  0.001333 0.026242 0.148339
22  1.350411 -0.000005 -0.000001  -0.000000 -0.000000 0.863926
23  1.350410 -0.000002 0.000001  0.000000 -0.000000 0.863926
24  -2.006324 0.863611 -2.645818  -0.930137 1.394277 1.777755
25  4.640936 -0.000003 -0.000013  0.840773 -0.556066 -1.008731
26  10.828044 -0.000000 0.000013  0.372594 -1.232925 -0.552316
27  9.393346 0.000004 -0.000000  1.046902 -0.119173 0.046355
28  1.442244 0.107455 1.746176  -1.686405 -0.539236 0.325898
29  1.063452 -0.000015 -0.000002  0.000000 0.000000 0.199056
30  1.376310 0.000000 -0.000001  -0.000000 -0.000000 0.199059
31  4.172843 -0.251365 1.312748  -0.008050 -0.095731 0.148659
32  1.215368 -0.000000 -0.000000  0.000000 -0.000000 0.645746
33  1.215374 0.000001 0.000003  0.000000 0.000000 0.645746
34  4.220530 -0.244854 0.431468  -0.001333 -0.026242 0.148339
35  1.350416 -0.000001 -0.000013  -0.000000 -0.000000 0.863937
36  1.350412 -0.000003 -0.000005  -0.000000 0.000000 0.863925
37  4.262828 -0.232718 -1.392184  0.016840 0.076668 0.253759
38  2.110546 -0.000005 -0.000000  -0.034243 0.012540 -0.133235
39  0.891926 2.373050 -0.014527  -3.141592 -0.000001 1.413797
40  7.228113 5.709444 3.726568  3.140796 -1.570796 0.000000
41  2.450433 5.076128 0.001325  3.140791 -1.570796 0.000000
42  6.312412 -4.528057 0.001311  3.140791 -1.570796 0.000000
43  2.233308 1.152535 -7.309136  -1.149149 -1.442588 -0.815517
44  3.061500 2.842763 2.243589  0.000000 -0.000000 1.570796
time 14
0  -0.514677 5.848808 38.699730  0.000000 -0.000000 -1.701715
1  0.265960 -0.074221 0.000004  -0.000030 -1.618869 -1.570772
2  -0.000006 0.000009 4.427393  -0.164234 -3.051669 0.089641
3  18.465931 0.000001 -0.000001  0.000000 -0.000000 -0.303241
4  14.875443 -0.000000 0.000000  0.004638 -0.049544 0.367505
5  0.000010 -0.000003 -4.427393  0.130647 -3.074679 -0.272862
6  18.465942 -0.000001 0.000000  -0.000000 -0.000000 -0.287084
7  14.875443 0.000000 0.000001  0.005411 -0.051408 0.018764
8  2.255209 -0.007574 -0.109375  0.170074 0.030754 -0.002149
9  9.514220 -0.009357 -0.000000  0.057026 0.006061 -0.120581
10  11.752193 -0.001489 0.000000  -0.000000 -0.005993 0.440031
11  -1.982887 0.863598 2.661450  0.887958 -1.401291 1.820694
12  4.640938 0.000001 0.000005  0.223901 1.217379 -0.003471
13  10.828053 -0.000002 -0.000006  -0.006217 -0.069509 -0.643807
14  9.393345 -0.000002 0.000009  1.939538 0.008013 0.055012
15  1.442240 0.107457 -1.746176  1.686435 0.539209 0.325885
16  1.063451 -0.000001 -0.000001  -0.000000 -0.000000 0.199056
17  1.376308 -0.000001 0.000005  -0.000000 -0.000000 0.199049
18  4.172845 -0.251366 -1.312744  0.008050 0.095731 0.148659
19  1.215375 -0.000004 -0.000001  0.000000 0.000000 0.645758
20  1.215370 0.000002 0.000003  0.000000 0.000000 0.645758
21  4.220531 -0.244852 -0.431466  0.001333 0.026242 0.148339
22  1.350413 -0.000004 0.000002  -0.000000 -0.000000 0.863926
23  1.350411 0.000001 0.000000  0.000000 0.000000 0.863926
24  -2.014138 0.863612 -2.638005  -0.924027 1.390858 1.783823
25  4.640936 -0.000003 -0.000013  0.840773 -0.556066 -1.008731
26  10.828048 0.000004 0.000012  0.372594 -1.232925 -0.552316
27  9.393341 0.000002 0.000001  1.046902 -0.119173 0.046355
28  1.442245 0.107453 1.746171  -1.686405 -0.539236 0.325898
29  1.063452 -0.000005 -0.000001  0.000000 -0.000000 0.199056
30  1.376309 -0.000003 -0.000001  -0.000000 -0.000000 0.199059
31  4.172844 -0.251366 1.312739  -0.008050 -0.095731 0.148659
32  1.215370 0.000001 0.000002  0.000000 -0.000000 0.645746
33  1.215369 0.000002 0.000001  -0.000000 -0.000000 0.645746
34  4.220530 -0.244855 0.431461  -0.001333 -0.026242 0.148339
35  1.350415 -0.000003 -0.000003  -0.000000 -0.000000 0.863937
36  1.350411 -0.000002 -0.000004  -0.000000 0.000000 0.863925
37  4.262826 -0.232719 -1.392191  0.016840 0.076668 0.253759
38  2.110544 -0.000004 -0.000000  -0.035785 0.014284 -0.131775
39  0.891932 2.373050 -0.014527  -3.141592 -0.000001 1.413797
40  7.228113 5.709445 3.726568  3.140796 -1.570796 0.000000
41  2.450432 5.076127 0.001325  3.140791 -1.570796 0.000000
42  6.312407 -4.528056 0.001311  3.140791 -1.570796 0.000000
43  2.233305 1.152536 -7.309137  -1.151737 -1.432482 -0.808911
44  3.061500 2.842763 2.243589  0.000000 -0.000000 1.570796
time 15
0  -0.655306 5.795457 38.715485  0.000000 -0.000000 -1.701715
1  0.273773 -0.070315 0.000000  -0.000030 -1.623123 -1.570772
2  -0.000004 0.000009 4.427393  -0.164521 -3.044094 0.094883
3  18.465931 0.000000 -0.000001  -0.000000 -0.000000 -0.296515
4  14.875443 -0.000000 0.000000  0.003713 -0.053630 0.365412
5  0.000012 -0.000004 -4.427392  0.131797 -3.066069 -0.265188
6  18.465940 0.000001 0.000000  0.000000 0.000000 -0.274876
7  14.875442 0.000000 0.000001  0.005762 -0.054895 0.014825
8  2.255212 -0.007575 -0.117188  0.174293 0.034996 -0.002215
9  9.514216 -0.009357 -0.000000  0.060666 0.006317 -0.121945
10  11.752193 -0.001489 0.000000  -0.000000 -0.008714 0.440031
11  -1.975066 0.863594 2.665355  0.913111 -1.400284 1.795803
12  4.640939 0.000001 0.000007  0.223897 1.217017 -0.003379
13  10.828050 -0.000001 -0.000004  -0.006217 -0.069509 -0.643807
14  9.393341 -0.000001 0.000005  1.939538 0.008013 0.055012
15  1.442245 0.107455 -1.746179  1.686435 0.539209 0.325885
16  1.063451 -0.000001 -0.000002  0.000000 -0.000000 0.199056
17  1.376308 -0.000002 0.000004  -0.000000 -0.000000 0.199049
18  4.172851 -0.251369 -1.312748  0.008050 0.095731 0.148659
19  1.215378 -0.000008 -0.000004  -0.000000 0.000000 0.645758
20  1.215368 -0.000003 0.000004  0.000000 0.000000 0.645758
21  4.220536 -0.244853 -0.431468  0.001333 0.026242 0.148339
22  1.350412 -0.000002 -0.000000  -0.000000 -0.000000 0.863926
23  1.350409 -0.000004 0.000000  0.000000 0.000000 0.863926
24  -2.021945 0.863610 -2.634099  -0.916344 1.387983 1.791430
25  4.640936 -0.000004 -0.000012  0.840773 -0.556066 -1.008731
26  10.828046 -0.000002 0.000010  0.372594 -1.232925 -0.552316
27  9.393345 0.000005 0.000002  1.046902 -0.119173 0.046355
28  1.442246 0.107455 1.746172  -1.686405 -0.539236 0.325898
29  1.063451 -0.000008 0.000001  0.000000 -0.000000 0.199056
30  1.376309 0.000003 -0.000000  -0.000000 -0.000000 0.199059
31  4.172842 -0.251365 1.312744  -0.008050 -0.095731 0.148659
32  1.215371 -0.000001 0.000001  -0.000000 -0.000000 0.645746
33  1.215369 0.000002 0.000002  -0.000000 0.000000 0.645746
34  4.220529 -0.244855 0.431465  -0.001333 -0.026242 0.148339
35  1.350415 -0.000003 -0.000007  -0.000000 -0.000000 0.863937
36  1.350413 -0.000001 -0.000008  -0.000000 0.000000 0.863925
37  4.262827 -0.232719 -1.392187  0.016840 0.076668 0.253759
38  2.110544 -0.000003 -0.000000  -0.037019 0.015997 -0.130410
39  0.891927 2.373047 -0.014527  -3.141592 -0.000001 1.413797
40  7.228110 5.709445 3.726568  3.140796 -1.570796 0.000000
41  2.450423 5.076128 0.001325  3.140791 -1.570796 0.000000
42  6.312397 -4.528056 0.001311  3.140791 -1.570796 0.000000
43  2.233307 1.152535 -7.309137  -1.152312 -1.419172 -0.809868
44  3.061500 2.842763 2.243589  0.000000 -0.000000 1.570796
time 16
0  -0.803748 5.759888 38.715485  0.000000 -0.000000 -1.701715
1  0.277678 -0.062502 0.000000  -0.000030 -1.631114 -1.570772
2  -0.000013 0.000009 4.427393  -0.164713 -3.031785 0.096027
3  18.465937 0.000000 -0.000001  0.000000 0.000000 -0.298927
4  14.875446 0.000000 0.000000  0.002718 -0.057994 0.368177
5  0.000007 -0.000004 -4.427393  0.133523 -3.053155 -0.254800
6  18.465944 -0.000001 0.000000  -0.000000 -0.000000 -0.255710
7  14.875445 0.000000 0.000001  0.006183 -0.058593 0.006721
8  2.251300 -0.007575 -0.136720  0.183112 0.043028 -0.002380
9  9.514220 -0.009356 -0.000000  0.063479 0.006505 -0.122768
10  11.752200 -0.001489 0.000000  0.000000 -0.010955 0.440031
11  -1.971163 0.863594 2.669262  0.960178 -1.396759 1.749180
12  4.640938 0.000000 0.000003  0.223852 1.217022 -0.003435
13  10.828052 -0.000001 -0.000008  -0.006217 -0.069509 -0.643807
14  9.393342 -0.000003 0.000010  1.939538 0.008013 0.055012
15  1.442245 0.107458 -1.746175  1.686435 0.539209 0.325885
16  1.063453 -0.000002 -0.000005  0.000000 0.000000 0.199056
17  1.376307 -0.000001 0.000007  -0.000000 -0.000000 0.199049
18  4.172851 -0.251365 -1.312746  0.008050 0.095731 0.148659
19  1.215376 -0.000002 -0.000003  -0.000000 0.000000 0.645758
20  1.215368 -0.000002 0.000002  0.000000 0.000000 0.645758
21  4.220538 -0.244853 -0.431466  0.001333 0.026242 0.148339
22  1.350415 -0.000003 -0.000002  -0.000000 0.000000 0.863926
23  1.350411 0.000002 -0.000002  0.000000 0.000000 0.863926
24  -2.029760 0.863609 -2.630192  -0.892647 1.388286 1.814847
25  4.640935 -0.000004 -0.000013  0.840773 -0.556066 -1.008731
26  10.828046 -0.000004 0.000011  0.372594 -1.232925 -0.552316
27  9.393345 0.000006 -0.000001  1.046902 -0.119173 0.046355
28  1.442244 0.107454 1.746184  -1.686405 -0.539236 0.325898
29  1.063452 -0.000008 -0.000002  -0.000000 0.000000 0.199056
30  1.376310 0.000002 -0.000000  -0.000000 -0.000000 0.199059
31  4.172843 -0.251365 1.312750  -0.008050 -0.095731 0.148659
32  1.215372 0.000002 0.000003  0.000000 -0.000000 0.645746
33  1.215374 0.000003 -0.000006  0.000000 -0.000000 0.645746
34  4.220530 -0.244855 0.431472  -0.001333 -0.026242 0.148339
35  1.350417 -0.000002 -0.000007  -0.000000 0.000000 0.863937
36  1.350409 0.000000 0.000003  0.000000 0.000000 0.863925
37  4.262826 -0.232719 -1.392179  0.016840 0.076668 0.253759
38  2.110546 -0.000006 -0.000000  -0.037842 0.018373 -0.129515
39  0.891932 2.373048 -0.014527  -3.141592 -0.000001 1.413797
40  7.228118 5.709445 3.726568  3.140796 -1.570796 0.000000
41  2.450428 5.076128 0.001325  3.140791 -1.570796 0.000000
42  6.312406 -4.528057 0.001311  3.140791 -1.570796 0.000000
43  2.233300 1.152536 -7.309138  -1.152312 -1.405163 -0.809485
44  3.061500 2.842763 2.243589  0.000000 -0.000000 1.570796
time 17
0  -0.952190 5.733212 38.731243  0.000000 -0.000000 -1.701715
1  0.277678 -0.054689 0.000004  -0.000030 -1.643272 -1.570772
2  -0.000012 0.000008 4.427393  -0.164617 -3.014457 0.091547
3  18.465935 0.000001 -0.000001  0.000000 0.000000 -0.313037
4  14.875443 0.000000 0.000001  0.001722 -0.062314 0.377026
5  0.000010 -0.000005 -4.427393  0.135631 -3.035840 -0.241229
6  18.465940 -0.000000 0.000001  0.000000 -0.000000 -0.227946
7  14.875445 -0.000000 -0.000000  0.006569 -0.062261 -0.006710
8  2.251298 -0.007576 -0.164065  0.196909 0.055204 -0.002612
9  9.514218 -0.009357 -0.000000  0.064980 0.006599 -0.122854
10  11.752196 -0.001489 -0.000000  0.000000 -0.012273 0.440031
11  -1.967261 0.863598 2.673168  1.030491 -1.389481 1.679293
12  4.640938 0.000001 0.000005  0.223533 1.217060 -0.003833
13  10.828053 -0.000001 -0.000003  -0.006217 -0.069509 -0.643807
14  9.393339 -0.000005 0.000010  1.939538 0.008013 0.055012
15  1.442244 0.107455 -1.746175  1.686435 0.539209 0.325885
16  1.063452 -0.000001 0.000001  -0.000000 0.000000 0.199056
17  1.376304 -0.000000 0.000003  -0.000000 -0.000000 0.199049
18  4.172847 -0.251368 -1.312744  0.008050 0.095731 0.148659
19  1.215377 -0.000006 -0.000002  -0.000000 0.000000 0.645758
20  1.215371 -0.000003 0.000002  0.000000 0.000000 0.645758
21  4.220534 -0.244852 -0.431466  0.001333 0.026242 0.148339
22  1.350415 -0.000005 0.000004  0.000000 -0.000000 0.863926
23  1.350411 -0.000004 0.000000  -0.000000 0.000000 0.863926
24  -2.033671 0.863615 -2.626286  -0.847844 1.392583 1.859374
25  4.640937 -0.000003 -0.000015  0.840773 -0.556066 -1.008731
26  10.828051 0.000005 0.000016  0.372594 -1.232925 -0.552316
27  9.393342 0.000003 -0.000000  1.046902 -0.119173 0.046355
28  1.442247 0.107456 1.746180  -1.686405 -0.539236 0.325898
29  1.063451 -0.000006 -0.000000  -0.000000 -0.000000 0.199056
30  1.376309 -0.000002 -0.000002  -0.000000 -0.000000 0.199059
31  4.172846 -0.251363 1.312745  -0.008050 -0.095731 0.148659
32  1.215374 0.000002 -0.000001  0.000000 0.000000 0.645746
33  1.215373 0.000002 -0.000005  0.000000 -0.000000 0.645746
34  4.220531 -0.244853 0.431474  -0.001333 -0.026242 0.148339
35  1.350413 -0.000003 -0.000012  0.000000 -0.000000 0.863937
36  1.350411 -0.000001 -0.000003  0.000000 0.000000 0.863925
37  4.262829 -0.232718 -1.392180  0.016840 0.076668 0.253759
38  2.110541 -0.000001 0.000000  -0.037688 0.021350 -0.129327
39  0.891928 2.373049 -0.014527  -3.141592 -0.000001 1.413797
40  7.228117 5.709445 3.726568  3.140796 -1.570796 0.000000
41  2.450428 5.076127 0.001325  3.140791 -1.570796 0.000000
42  6.312407 -4.528056 0.001311  3.140791 -1.570796 0.000000
43  2.233303 1.152535 -7.309138  -1.151162 -1.392086 -0.799049
44  3.061500 2.842763 2.243589  0.000000 -0.000000 1.570796
time 18
0  -1.057662 5.724320 38.715485  0.000000 -0.000000 -1.701715
1  0.277679 -0.050783 0.000004  -0.000030 -1.654913 -1.570772
2  -0.000002 0.000009 4.427393  -0.164042 -2.998455 0.084685
3  18.465937 0.000001 0.000000  -0.000000 -0.000000 -0.331022
4  14.875443 0.000000 -0.000001  0.000976 -0.065507 0.387415
5  0.000009 -0.000004 -4.427393  0.137260 -3.020056 -0.228782
6  18.465939 -0.000001 -0.000000  0.000000 -0.000000 -0.200641
7  14.875444 -0.000000 0.000000  0.006885 -0.064929 -0.020854
8  2.247398 -0.007574 -0.187503  0.209777 0.066890 -0.002844
9  9.514228 -0.009356 -0.000000  0.065093 0.006599 -0.122551
10  11.752191 -0.001489 0.000000  -0.000000 -0.012489 0.440031
11  -1.967257 0.863594 2.673168  1.100519 -1.380315 1.609597
12  4.640939 0.000000 0.000007  0.222669 1.217162 -0.004913
13  10.828052 -0.000001 -0.000006  -0.006217 -0.069509 -0.643807
14  9.393342 -0.000006 0.000010  1.939538 0.008013 0.055012
15  1.442249 0.107457 -1.746178  1.686435 0.539209 0.325885
16  1.063450 0.000001 -0.000005  -0.000000 -0.000000 0.199056
17  1.376307 -0.000002 0.000003  0.000000 -0.000000 0.199049
18  4.172852 -0.251368 -1.312746  0.008050 0.095731 0.148659
19  1.215375 -0.000005 -0.000000  -0.000000 0.000000 0.645758
20  1.215368 0.000007 0.000002  0.000000 0.000000 0.645758
21  4.220537 -0.244850 -0.431466  0.001333 0.026242 0.148339
22  1.350417 -0.000003 0.000001  -0.000000 -0.000000 0.863926
23  1.350411 -0.000003 -0.000001  0.000000 -0.000000 0.863926
24  -2.033670 0.863611 -2.626287  -0.795543 1.398453 1.911251
25  4.640937 -0.000004 -0.000010  0.840773 -0.556066 -1.008731
26  10.828048 0.000001 0.000006  0.372594 -1.232925 -0.552316
27  9.393345 0.000009 -0.000001  1.046902 -0.119173 0.046355
28  1.442247 0.107455 1.746176  -1.686405 -0.539236 0.325898
29  1.063451 -0.000010 -0.000001  0.000000 -0.000000 0.199056
30  1.376309 0.000002 -0.000001  -0.000000 -0.000000 0.199059
31  4.172845 -0.251364 1.312742  -0.008050 -0.095731 0.148659
32  1.215371 0.000000 -0.000001  -0.000000 0.000000 0.645746
33  1.215370 0.000001 0.000000  0.000000 0.000000 0.645746
34  4.220535 -0.244853 0.431463  -0.001333 -0.026242 0.148339
35  1.350414 -0.000001 -0.000010  0.000000 -0.000000 0.863937
36  1.350407 -0.000001 -0.000006  -0.000000 -0.000000 0.863925
37  4.262829 -0.232718 -1.392185  0.016840 0.076668 0.253759
38  2.110548 -0.000007 -0.000000  -0.035220 0.023785 -0.129562
39  0.891929 2.373049 -0.014527  -3.141592 -0.000001 1.413797
40  7.228112 5.709445 3.726568  3.140796 -1.570796 0.000000
41  2.450436 5.076128 0.001325  3.140791 -1.570796 0.000000
42  6.312413 -4.528056 0.001311  3.140791 -1.570796 0.000000
43  2.233307 1.152536 -7.309136  -1.149436 -1.379766 -0.788135
44  3.061500 2.842763 2.243589  0.000000 -0.000000 1.570796
time 19
0  -1.085007 5.750996 38.715485  0.000000 -0.000000 -1.701715
1  0.277678 -0.046876 0.000000  -0.000030 -1.661380 -1.570772
2  -0.000005 0.000010 4.427392  -0.163276 -2.989933 0.077727
3  18.465937 -0.000000 -0.000000  -0.000000 -0.000000 -0.346301
4  14.875442 -0.000003 -0.000000  0.000656 -0.066401 0.395513
5  0.000006 -0.000003 -4.427392  0.138123 -3.012212 -0.223822
6  18.465939 -0.000001 0.000001  0.000000 0.000000 -0.187973
7  14.875443 0.000000 0.000000  0.006990 -0.065747 -0.028283
8  2.247390 -0.007574 -0.203128  0.215769 0.073371 -0.002943
9  9.514218 -0.009357 0.000000  0.063667 0.006505 -0.122140
10  11.752191 -0.001490 0.000000  0.000000 -0.011374 0.440031
11  -1.971158 0.863598 2.669262  1.153397 -1.372056 1.556751
12  4.640938 0.000000 0.000008  0.220984 1.217359 -0.007016
13  10.828055 -0.000002 -0.000006  -0.006217 -0.069509 -0.643807
14  9.393343 -0.000007 0.000006  1.939538 0.008013 0.055012
15  1.442242 0.107456 -1.746174  1.686435 0.539209 0.325885
16  1.063451 -0.000000 0.000003  0.000000 0.000000 0.199056
17  1.376308 -0.000001 0.000009  0.000000 0.000000 0.199049
18  4.172851 -0.251370 -1.312743  0.008050 0.095731 0.148659
19  1.215373 -0.000002 -0.000003  -0.000000 0.000000 0.645758
20  1.215370 0.000008 0.000003  0.000000 0.000000 0.645758
21  4.220537 -0.244853 -0.431464  0.001333 0.026242 0.148339
22  1.350415 -0.000006 0.000001  -0.000000 -0.000000 0.863926
23  1.350411 0.000002 -0.000000  0.000000 0.000000 0.863926
24  -2.029756 0.863613 -2.630192  -0.752962 1.403991 1.953642
25  4.640937 -0.000005 -0.000010  0.840773 -0.556066 -1.008731
26  10.828046 0.000002 0.000015  0.372594 -1.232925 -0.552316
27  9.393345 0.000010 0.000001  1.046902 -0.119173 0.046355
28  1.442246 0.107454 1.746181  -1.686405 -0.539236 0.325898
29  1.063452 -0.000007 -0.000000  0.000000 0.000000 0.199056
30  1.376308 0.000003 0.000001  -0.000000 0.000000 0.199059
31  4.172843 -0.251366 1.312752  -0.008050 -0.095731 0.148659
32  1.215373 -0.000001 0.000002  0.000000 0.000000 0.645746
33  1.215370 0.000002 -0.000001  -0.000000 0.000000 0.645746
34  4.220530 -0.244855 0.431473  -0.001333 -0.026242 0.148339
35  1.350418 -0.000002 -0.000005  -0.000000 0.000000 0.863937
36  1.350411 0.000000 -0.000004  0.000000 0.000000 0.863925
37  4.262827 -0.232720 -1.392176  0.016840 0.076668 0.253759
38  2.110550 -0.000002 -0.000000  -0.029410 0.024567 -0.129939
39  0.891935 2.373047 -0.014527  -3.141592 -0.000001 1.413797
40  7.228115 5.709445 3.726568  3.140796 -1.570796 0.000000
41  2.450429 5.076127 0.001325  3.140791 -1.570796 0.000000
42  6.312404 -4.528056 0.001311  3.140791 -1.570796 0.000000
43  2.233304 1.152536 -7.309136  -1.150203 -1.370242 -0.787369
44  3.061500 2.842763 2.243589  0.000000 -0.000000 1.570796
time 20
0  -0.999067 5.795457 38.683971  0.000000 -0.000000 -1.701715
1  0.273772 -0.050783 0.000000  -0.000030 -1.658003 -1.570772
2  -0.000002 0.000008 4.427393  -0.162605 -2.995141 0.072675
3  18.465939 0.000000 -0.000000  0.000000 -0.000000 -0.353319
4  14.875445 -0.000001 0.000001  0.001047 -0.063825 0.398002
5  0.000010 -0.000004 -4.427393  0.138410 -3.018812 -0.233368
6  18.465939 0.000001 0.000000  -0.000000 -0.000000 -0.205235
7  14.875445 -0.000000 0.000000  0.006780 -0.063777 -0.020929
8  2.247399 -0.007575 -0.195315  0.209060 0.069973 -0.002844
9  9.514218 -0.009357 0.000000  0.060666 0.006317 -0.121945
10  11.752196 -0.001489 0.000000  0.000000 -0.008714 0.440031
11  -1.975071 0.863598 2.665355  1.177407 -1.368102 1.532242
12  4.640938 0.000001 0.000006  0.218203 1.217681 -0.010490
13  10.828053 -0.000001 -0.000005  -0.006217 -0.069509 -0.643807
14  9.393342 -0.000005 0.000010  1.939538 0.008013 0.055012
15  1.442243 0.107454 -1.746177  1.686435 0.539209 0.325885
16  1.063450 -0.000001 -0.000004  0.000000 0.000000 0.199056
17  1.376306 -0.000000 0.000008  -0.000000 -0.000000 0.199049
18  4.172848 -0.251368 -1.312746  0.008050 0.095731 0.148659
19  1.215375 -0.000001 -0.000002  0.000000 -0.000000 0.645758
20  1.215370 -0.000002 0.000004  0.000000 0.000000 0.645758
21  4.220531 -0.244852 -0.431464  0.001333 0.026242 0.148339
22  1.350414 -0.000009 -0.000000  -0.000000 0.000000 0.863926
23  1.350411 -0.000010 -0.000003  -0.000000 0.000000 0.863926
24  -2.021949 0.863614 -2.634099  -0.741113 1.407744 1.965436
25  4.640935 -0.000004 -0.000012  0.840773 -0.556066 -1.008731
26  10.828047 0.000001 0.000010  0.372594 -1.232925 -0.552316
27  9.393345 0.000008 -0.000001  1.046902 -0.119173 0.046355
28  1.442244 0.107455 1.746172  -1.686405 -0.539236 0.325898
29  1.063451 -0.000002 -0.000001  0.000000 -0.000000 0.199056
30  1.376308 0.000003 -0.000001  -0.000000 0.000000 0.199059
31  4.172844 -0.251365 1.312739  -0.008050 -0.095731 0.148659
32  1.215370 0.000001 -0.000004  0.000000 0.000000 0.645746
33  1.215375 0.000002 -0.000002  0.000000 -0.000000 0.645746
34  4.220530 -0.244854 0.431463  -0.001333 -0.026242 0.148339
35  1.350417 -0.000002 -0.000015  0.000000 -0.000000 0.863937
36  1.350411 -0.000001 -0.000006  -0.000000 0.000000 0.863925
37  4.262828 -0.232718 -1.392188  0.016840 0.076668 0.253759
38  2.110544 -0.000002 -0.000001  -0.018921 0.022582 -0.130127
39  0.891933 2.373048 -0.014527  -3.141592 -0.000001 1.413797
40  7.228117 5.709445 3.726568  3.140796 -1.570796 0.000000
41  2.450425 5.076128 0.001325  3.140791 -1.570796 0.000000
42  6.312407 -4.528057 0.001311  3.140791 -1.570796 0.000000
43  2.233305 1.152535 -7.309137  -1.143972 -1.377669 -0.798092
44  3.061500 2.842763 2.243589  0.000000 -0.000000 1.570796
time 21
0  -0.819374 5.875485 38.668217  0.000000 -0.000000 -1.701715
1  0.273773 -0.066408 -0.000004  -0.000030 -1.639234 -1.570772
2  -0.000011 0.000009 4.427393  -0.162126 -3.019570 0.074295
3  18.465939 0.000000 -0.000000  -0.000000 -0.000000 -0.342061
4  14.875445 0.000000 -0.000000  0.001936 -0.058504 0.389311
5  0.000013 -0.000004 -4.427392  0.136206 -3.044641 -0.259011
6  18.465946 -0.000001 0.000000  0.000000 -0.000000 -0.256826
7  14.875441 0.000000 -0.000000  0.006288 -0.059866 0.003982
8  2.251302 -0.007574 -0.152345  0.181593 0.051119 -0.002347
9  9.514221 -0.009357 -0.000000  0.055301 0.006008 -0.122378
10  11.752196 -0.001489 -0.000000  0.000000 -0.004903 0.440031
11  -1.986787 0.863597 2.657543  1.177407 -1.370066 1.531476
12  4.640939 0.000001 0.000007  0.214043 1.218155 -0.015682
13  10.828056 -0.000001 -0.000006  -0.006217 -0.069509 -0.643807
14  9.393340 -0.000004 0.000009  1.939538 0.008013 0.055012
15  1.442245 0.107457 -1.746177  1.686435 0.539209 0.325885
16  1.063452 -0.000000 0.000003  -0.000000 0.000000 0.199056
17  1.376306 -0.000001 0.000008  -0.000000 0.000000 0.199049
18  4.172852 -0.251367 -1.312747  0.008050 0.095731 0.148659
19  1.215382 -0.000004 -0.000004  -0.000000 -0.000000 0.645758
20  1.215370 0.000004 0.000001  0.000000 0.000000 0.645758
21  4.220531 -0.244848 -0.431463  0.001333 0.026242 0.148339
22  1.350413 -0.000005 -0.000001  -0.000000 0.000000 0.863926
23  1.350410 -0.000001 -0.000002  0.000000 0.000000 0.863926
24  -2.014130 0.863610 -2.641912  -0.771383 1.408561 1.935523
25  4.640936 -0.000004 -0.000016  0.840773 -0.556066 -1.008731
26  10.828048 0.000002 0.000009  0.372594 -1.232925 -0.552316
27  9.393339 -0.000002 -0.000001  1.046902 -0.119173 0.046355
28  1.442248 0.107456 1.746176  -1.686405 -0.539236 0.325898
29  1.063451 -0.000008 0.000001  0.000000 -0.000000 0.199056
30  1.376308 -0.000000 -0.000001  -0.000000 0.000000 0.199059
31  4.172848 -0.251364 1.312744  -0.008050 -0.095731 0.148659
32  1.215370 0.000001 0.000001  0.000000 -0.000000 0.645746
33  1.215374 0.000001 -0.000002  -0.000000 -0.000000 0.645746
34  4.220532 -0.244855 0.431468  -0.001333 -0.026242 0.148339
35  1.350420 -0.000002 -0.000011  0.000000 -0.000000 0.863937
36  1.350408 0.000001 -0.000006  -0.000000 0.000000 0.863925
37  4.262831 -0.232717 -1.392185  0.016840 0.076668 0.253759
38  2.110544 -0.000002 -0.000000  0.006427 0.016118 -0.129751
39  0.891927 2.373051 -0.014527  -3.141592 -0.000001 1.413797
40  7.228115 5.709445 3.726568  3.140796 -1.570796 0.000000
41  2.450432 5.076128 0.001325  3.140791 -1.570796 0.000000
42  6.312407 -4.528057 0.001311  3.140791 -1.570796 0.000000
43  2.233302 1.152535 -7.309138  -1.142054 -1.397503 -0.802113
44  3.061500 2.842763 2.243589  0.000000 -0.000000 1.570796
time 22
0  -0.600617 5.955514 38.636703  0.000000 -0.000000 -1.701715
1  0.273773 -0.089846 0.000000  -0.000030 -1.608148 -1.570772
2  -0.000014 0.000009 4.427393  -0.161360 -3.058391 0.082969
3  18.465939 0.000000 -0.000001  0.000000 -0.000000 -0.312598
4  14.875446 0.000001 0.000000  0.003109 -0.052226 0.369797
5  0.000008 -0.000004 -4.427393  0.129689 -3.083480 -0.290737
6  18.465937 0.000000 0.000001  0.000000 0.000000 -0.321084
7  14.875444 0.000000 -0.000001  0.005586 -0.055319 0.035084
8  2.255206 -0.007574 -0.082031  0.137206 0.019972 -0.001586
9  9.514218 -0.009357 -0.000000  0.047722 0.005564 -0.123244
10  11.752196 -0.001489 0.000000  0.000000 -0.000480 0.440031
11  -1.998509 0.863598 2.649730  1.165307 -1.376110 1.542486
12  4.640939 0.000001 0.000007  0.208219 1.218802 -0.022948
13  10.828051 -0.000000 -0.000005  -0.006217 -0.069509 -0.643807
14  9.393335 -0.000003 0.000005  1.939538 0.008013 0.055012
15  1.442241 0.107457 -1.746175  1.686435 0.539209 0.325885
16  1.063452 0.000000 -0.000000  0.000000 -0.000000 0.199056
17  1.376308 -0.000002 0.000010  -0.000000 -0.000000 0.199049
18  4.172846 -0.251369 -1.312746  0.008050 0.095731 0.148659
19  1.215377 -0.000004 -0.000004  -0.000000 -0.000000 0.645758
20  1.215369 0.000010 0.000003  0.000000 0.000000 0.645758
21  4.220530 -0.244852 -0.431465  0.001333 0.026242 0.148339
22  1.350412 -0.000002 0.000001  0.000000 -0.000000 0.863926
23  1.350411 -0.000001 -0.000001  0.000000 0.000000 0.863926
24  -2.002413 0.863614 -2.649724  -0.827571 1.407078 1.879886
25  4.640935 -0.000003 -0.000013  0.840773 -0.556066 -1.008731
26  10.828046 0.000000 0.000012  0.372594 -1.232925 -0.552316
27  9.393345 0.000007 -0.000002  1.046902 -0.119173 0.046355
28  1.442245 0.107456 1.746172  -1.686405 -0.539236 0.325898
29  1.063451 -0.000001 0.000000  0.000000 0.000000 0.199056
30  1.376309 0.000006 0.000002  -0.000000 -0.000000 0.199059
31  4.172843 -0.251364 1.312742  -0.008050 -0.095731 0.148659
32  1.215373 0.000000 -0.000000  0.000000 0.000000 0.645746
33  1.215369 0.000003 -0.000004  -0.000000 -0.000000 0.645746
34  4.220529 -0.244853 0.431463  -0.001333 -0.026242 0.148339
35  1.350414 -0.000003 -0.000009  -0.000000 -0.000000 0.863937
36  1.350409 -0.000001 0.000001  0.000000 0.000000 0.863925
37  4.262825 -0.232719 -1.392186  0.016840 0.076668 0.253759
38  2.110547 -0.000000 -0.000000  0.047920 0.005924 -0.129091
39  0.891923 2.373049 -0.014527  -3.141592 -0.000001 1.413797
40  7.228115 5.709445 3.726568  3.140796 -1.570796 0.000000
41  2.450427 5.076127 0.001325  3.140791 -1.570796 0.000000
42  6.312402 -4.528057 0.001311  3.140791 -1.570796 0.000000
43  2.233303 1.152535 -7.309137  -1.150299 -1.434958 -0.813889
44  3.061500 2.842763 2.243589  0.000000 -0.000000 1.570796
time 23
0  -0.346703 6.044434 38.620945  0.000000 -0.000000 -1.701715
1  0.273772 -0.121097 0.000000  0.000035 -1.573125 -1.570821
2  -0.000004 0.000010 4.427392  -0.159922 -3.102515 0.095074
3  18.465933 0.000000 -0.000001  0.000000 0.000000 -0.274363
4  14.875443 -0.000002 -0.000000  0.004495 -0.045202 0.345067
5  0.000005 -0.000004 -4.427392  0.119626 -3.126241 -0.320965
6  18.465939 0.000001 0.000001  0.000000 -0.000000 -0.380025
7  14.875443 0.000000 0.000000  0.004569 -0.049862 0.062547
8  2.255212 -0.007574 -0.003903  0.088010 -0.015103 -0.000726
9  9.514217 -0.009357 -0.000000  0.038943 0.005040 -0.123893
10  11.752193 -0.001489 0.000000  -0.000000 0.004409 0.440031
11  -2.010233 0.863598 2.641918  1.141107 -1.384143 1.565654
12  4.640939 0.000001 0.000006  0.200434 1.219638 -0.032655
13  10.828051 -0.000001 -0.000009  -0.006217 -0.069509 -0.643807
14  9.393342 -0.000001 0.000007  1.939538 0.008013 0.055012
15  1.442245 0.107456 -1.746178  1.686435 0.539209 0.325885
16  1.063449 0.000000 -0.000003  0.000000 0.000000 0.199056
17  1.376310 -0.000001 0.000009  -0.000000 -0.000000 0.199049
18  4.172852 -0.251369 -1.312746  0.008050 0.095731 0.148659
19  1.215372 -0.000002 -0.000004  -0.000000 -0.000000 0.645758
20  1.215370 0.000004 0.000002  0.000000 0.000000 0.645758
21  4.220532 -0.244850 -0.431466  0.001333 0.026242 0.148339
22  1.350412 -0.000000 0.000001  0.000000 -0.000000 0.863926
23  1.350410 -0.000005 -0.000002  0.000000 0.000000 0.863926
24  -1.986797 0.863613 -2.657538  -0.891629 1.404687 1.816471
25  4.640935 -0.000003 -0.000013  0.840773 -0.556066 -1.008731
26  10.828050 -0.000003 0.000012  0.372594 -1.232925 -0.552316
27  9.393341 -0.000002 -0.000002  1.046902 -0.119173 0.046355
28  1.442246 0.107453 1.746176  -1.686405 -0.539236 0.325898
29  1.063451 -0.000009 -0.000000  0.000000 0.000000 0.199056
30  1.376309 0.000001 -0.000001  -0.000000 -0.000000 0.199059
31  4.172845 -0.251366 1.312745  -0.008050 -0.095731 0.148659
32  1.215371 0.000001 -0.000009  0.000000 -0.000000 0.645746
33  1.215372 0.000002 0.000003  -0.000000 0.000000 0.645746
34  4.220531 -0.244855 0.431471  -0.001333 -0.026242 0.148339
35  1.350416 -0.000002 -0.000008  -0.000000 -0.000000 0.863937
36  1.350410 -0.000000 -0.000002  -0.000000 0.000000 0.863925
37  4.262826 -0.232721 -1.392179  0.016840 0.076668 0.253759
38  2.110536 -0.000000 -0.000000  0.093011 -0.005441 -0.128809
39  0.891941 2.373048 -0.014527  -3.141592 -0.000001 1.413797
40  7.228112 5.709445 3.726568  3.140796 -1.570796 0.000000
41  2.450431 5.076128 0.001325  3.140791 -1.570796 0.000000
42  6.312406 -4.528056 0.001311  3.140791 -1.570796 0.000000
43  2.233305 1.152536 -7.309136  -1.159311 -1.475645 -0.828250
44  3.061500 2.842763 2.243589  0.000000 -0.000000 1.570796
time 24
0  -0.069351 6.151139 38.589432  0.000000 -0.000000 -1.701715
1  0.265960 -0.144536 0.000004  -0.000030 -1.542513 -1.570772
2  -0.000006 0.000009 4.427393  -0.158102 3.140902 0.104701
3  18.465935 -0.000000 -0.000000  0.000000 0.000000 -0.241392
4  14.875443 -0.000001 0.000000  0.006060 -0.037518 0.323024
5  0.000002 -0.000004 -4.427392  0.108604 3.118679 -0.346046
6  18.465944 -0.000002 0.000000  0.000000 -0.000000 -0.425183
7  14.875441 -0.000000 -0.000000  0.003305 -0.043436 0.081869
8  2.255206 -0.007574 0.062505  0.046070 -0.045740 0.000002
9  9.514221 -0.009357 -0.000000  0.030089 0.004489 -0.123699
10  11.752190 -0.001489 0.000000  0.000000 0.009695 0.440031
11  -2.025855 0.863599 2.630198  1.104521 -1.392025 1.601364
12  4.640939 0.000001 0.000005  0.190384 1.220670 -0.045177
13  10.828054 -0.000001 -0.000004  -0.006217 -0.069509 -0.643807
14  9.393343 -0.000003 0.000009  1.939538 0.008013 0.055012
15  1.442242 0.107459 -1.746177  1.686435 0.539209 0.325885
16  1.063453 0.000000 0.000005  0.000000 -0.000000 0.199056
17  1.376310 -0.000000 0.000008  -0.000000 0.000000 0.199049
18  4.172846 -0.251363 -1.312745  0.008050 0.095731 0.148659
19  1.215377 -0.000003 -0.000000  0.000000 0.000000 0.645758
20  1.215368 -0.000001 0.000004  0.000000 -0.000000 0.645758
21  4.220528 -0.244847 -0.431463  0.001333 0.026242 0.148339
22  1.350417 -0.000002 0.000001  -0.000000 -0.000000 0.863926
23  1.350411 -0.000004 -0.000002  0.000000 0.000000 0.863926
24  -1.975070 0.863613 -2.665349  -0.948373 1.403356 1.760321
25  4.640935 -0.000003 -0.000016  0.840773 -0.556066 -1.008731
26  10.828046 0.000006 0.000009  0.372594 -1.232925 -0.552316
27  9.393341 -0.000001 -0.000002  1.046902 -0.119173 0.046355
28  1.442249 0.107456 1.746173  -1.686405 -0.539236 0.325898
29  1.063452 -0.000014 -0.000000  0.000000 0.000000 0.199056
30  1.376310 -0.000004 0.000000  -0.000000 0.000000 0.199059
31  4.172850 -0.251363 1.312741  -0.008050 -0.095731 0.148659
32  1.215371 -0.000002 -0.000002  0.000000 -0.000000 0.645746
33  1.215369 0.000003 -0.000002  -0.000000 0.000000 0.645746
34  4.220536 -0.244853 0.431464  -0.001333 -0.026242 0.148339
35  1.350417 -0.000000 -0.000005  0.000000 -0.000000 0.863937
36  1.350412 -0.000003 -0.000001  0.000000 0.000000 0.863925
37  4.262833 -0.232717 -1.392186  0.016840 0.076668 0.253759
38  2.110542 -0.000002 -0.000000  0.129259 -0.015484 -0.129233
39  0.891934 2.373046 -0.014527  -3.141592 -0.000001 1.413797
40  7.228110 5.709445 3.726568  3.140796 -1.570796 0.000000
41  2.450429 5.076127 0.001325  3.140791 -1.570796 0.000000
42  6.312407 -4.528058 0.001311  3.140791 -1.570796 0.000000
43  2.233306 1.152536 -7.309136  -1.164009 -1.514964 -0.845675
44  3.061500 2.842763 2.243589  0.000000 -0.000000 1.570796
time 25
0  0.223627 6.248950 38.557919  0.000000 -0.000000 -1.701715
1  0.258147 -0.156255 0.000004  -0.000030 -1.524634 -1.570772
2  -0.000004 0.000009 4.427392  -0.157240 3.114768 0.102985
3  18.465933 0.000000 -0.000000  0.000000 -0.000000 -0.234447
4  14.875444 -0.000001 -0.000000  0.007802 -0.029111 0.315677
5  0.000012 -0.000004 -4.427393  0.100649 3.092755 -0.362705
6  18.465937 0.000001 0.000000  0.000000 -0.000000 -0.450453
7  14.875443 0.000000 0.000001  0.001831 -0.036070 0.089935
8  2.255212 -0.007575 0.101569  0.023582 -0.063612 0.000399
9  9.514221 -0.009357 -0.000000  0.022285 0.004005 -0.122032
10  11.752200 -0.001489 0.000000  0.000012 0.015255 0.440031
11  -2.041483 0.863599 2.622384  1.056787 -1.397590 1.648370
12  4.640939 -0.000000 0.000010  0.169059 1.222685 -0.071910
13  10.828053 -0.000002 -0.000005  -0.006217 -0.069509 -0.643807
14  9.393332 -0.000010 0.000010  1.939538 0.008013 0.055012
15  1.442240 0.107459 -1.746172  1.686435 0.539209 0.325885
16  1.063450 -0.000001 -0.000004  0.000000 -0.000000 0.199056
17  1.376311 0.000001 0.000015  -0.000000 -0.000000 0.199049
18  4.172847 -0.251367 -1.312744  0.008050 0.095731 0.148659
19  1.215374 -0.000000 -0.000001  0.000000 0.000000 0.645758
20  1.215371 -0.000001 0.000004  0.000000 0.000000 0.645758
21  4.220535 -0.244850 -0.431465  0.001333 0.026242 0.148339
22  1.350414 -0.000005 0.000001  -0.000000 -0.000000 0.863926
23  1.350411 -0.000003 -0.000001  0.000000 0.000000 0.863926
24  -1.963342 0.863611 -2.677070  -0.985585 1.405656 1.723400
25  4.640936 -0.000004 -0.000011  0.840773 -0.556066 -1.008731
26  10.828047 0.000002 0.000009  0.372594 -1.232925 -0.552316
27  9.393347 0.000008 -0.000003  1.046902 -0.119173 0.046355
28  1.442246 0.107453 1.746177  -1.686405 -0.539236 0.325898
29  1.063451 -0.000012 0.000000  0.000000 0.000000 0.199056
30  1.376309 0.000004 -0.000001  -0.000000 -0.000000 0.199059
31  4.172846 -0.251365 1.312741  -0.008050 -0.095731 0.148659
32  1.215372 0.000002 0.000003  -0.000000 -0.000000 0.645746
33  1.215372 0.000001 0.000001  0.000000 0.000000 0.645746
34  4.220532 -0.244855 0.431466  -0.001333 -0.026242 0.148339
35  1.350416 -0.000001 -0.000006  0.000000 0.000000 0.863937
36  1.350410 -0.000001 -0.000003  -0.000000 0.000000 0.863925
37  4.262830 -0.232719 -1.392183  0.016840 0.076668 0.253759
38  2.110544 -0.000001 -0.000000  0.144170 -0.021678 -0.130645
39  0.891931 2.373048 -0.014527  -3.141592 -0.000001 1.413797
40  7.228115 5.709445 3.726568  3.140796 -1.570796 0.000000
41  2.450429 5.076127 0.001325  3.140791 -1.570796 0.000000
42  6.312402 -4.528057 0.001311  3.140791 -1.570796 0.000000
43  2.233308 1.152535 -7.309137  -1.150011 -1.545865 -0.873823
44  3.061500 2.842763 2.243589  0.000000 -0.000000 1.570796
time 26
0  0.528324 6.364548 38.526405  0.000000 -0.000000 -1.701715
1  0.242521 -0.160161 0.000000  -0.000030 -1.522378 -1.570772
2  -0.000009 0.000008 4.427393  -0.158677 3.105678 0.086782
3  18.465937 -0.000000 0.000000  0.000000 -0.000000 -0.260838
4  14.875443 -0.000001 -0.000000  0.009615 -0.019980 0.327133
5  0.000012 -0.000005 -4.427393  0.097965 3.081754 -0.370192
6  18.465942 0.000001 -0.000000  0.000000 -0.000000 -0.455507
7  14.875442 0.000000 -0.000000  0.000287 -0.028006 0.086709
8  2.255204 -0.007575 0.105475  0.025058 -0.065870 0.000366
9  9.514223 -0.009357 -0.000000  0.015607 0.003588 -0.118481
10  11.752196 -0.001489 -0.000000  0.000012 0.020996 0.440031
11  -2.057104 0.863602 2.610666  0.996382 -1.400259 1.708301
12  4.640938 0.000000 0.000013  0.132730 1.225577 -0.117529
13  10.828053 -0.000002 -0.000005  -0.006217 -0.069509 -0.643807
14  9.393334 -0.000008 0.000010  1.939538 0.008013 0.055012
15  1.442245 0.107457 -1.746176  1.686435 0.539209 0.325885
16  1.063450 0.000001 -0.000002  0.000000 -0.000000 0.199056
17  1.376312 -0.000002 0.000009  -0.000000 -0.000000 0.199049
18  4.172850 -0.251367 -1.312746  0.008050 0.095731 0.148659
19  1.215379 -0.000001 -0.000003  0.000000 0.000000 0.645758
20  1.215371 0.000002 0.000002  0.000000 0.000000 0.645758
21  4.220536 -0.244853 -0.431468  0.001333 0.026242 0.148339
22  1.350416 -0.000004 0.000000  -0.000000 0.000000 0.863926
23  1.350411 -0.000004 0.000000  -0.000000 0.000000 0.863926
24  -1.947725 0.863614 -2.688789  -0.999656 1.412827 1.709298
25  4.640936 -0.000003 -0.000010  0.840773 -0.556066 -1.008731
26  10.828047 0.000006 0.000012  0.372594 -1.232925 -0.552316
27  9.393346 0.000004 0.000000  1.046902 -0.119173 0.046355
28  1.442247 0.107457 1.746171  -1.686405 -0.539236 0.325898
29  1.063451 -0.000004 0.000000  0.000000 -0.000000 0.199056
30  1.376308 -0.000001 -0.000001  -0.000000 -0.000000 0.199059
31  4.172844 -0.251362 1.312741  -0.008050 -0.095731 0.148659
32  1.215374 -0.000000 -0.000000  -0.000000 0.000000 0.645746
33  1.215372 0.000002 -0.000004  0.000000 0.000000 0.645746
34  4.220530 -0.244852 0.431464  -0.001333 -0.026242 0.148339
35  1.350414 -0.000001 -0.000005  0.000000 -0.000000 0.863937
36  1.350408 0.000001 -0.000007  -0.000000 0.000000 0.863925
37  4.262826 -0.232717 -1.392182  0.016840 0.076668 0.253759
38  2.110544 0.000000 -0.000000  0.133681 -0.023092 -0.133329
39  0.891932 2.373047 -0.014527  -3.141592 -0.000001 1.413797
40  7.228117 5.709444 3.726568  3.140796 -1.570796 0.000000
41  2.450429 5.076128 0.001325  3.140791 -1.570796 0.000000
42  6.312410 -4.528057 0.001311  3.140791 -1.570796 0.000000
43  2.233306 1.152535 -7.309136  -2.023903 -1.570330 0.000040
44  3.061500 2.842763 2.243589  0.000000 -0.000000 1.570796
time 27
0  0.840833 6.471253 38.494892  0.000000 -0.000000 -1.701715
1  0.226896 -0.152348 0.000008  -0.000030 -1.530182 -1.570772
2  -0.000008 0.000009 4.427393  -0.161360 3.107383 0.064097
3  18.465933 0.000000 0.000000  0.000000 -0.000000 -0.302071
4  14.875443 -0.000002 0.000000  0.011428 -0.010381 0.347003
5  0.000005 -0.000004 -4.427393  0.099115 3.080415 -0.371783
6  18.465939 0.000000 0.000001  0.000000 -0.000000 -0.447697
7  14.875444 0.000000 0.000000  -0.001187 -0.019609 0.076279
8  2.255210 -0.007574 0.089849  0.042526 -0.058074 0.000068
9  9.514218 -0.009357 -0.000000  0.009304 0.003226 -0.113481
10  11.752198 -0.001490 0.000000  0.000012 0.026809 0.440031
11  -2.068826 0.863598 2.598948  0.923782 -1.401014 1.780581
12  4.640939 0.000000 0.000009  0.089337 1.228171 -0.171987
13  10.828057 -0.000001 -0.000005  -0.006217 -0.069509 -0.643807
14  9.393343 -0.000002 0.000012  1.939538 0.008013 0.055012
15  1.442241 0.107454 -1.746176  1.686435 0.539209 0.325885
16  1.063452 0.000000 0.000004  -0.000000 -0.000000 0.199056
17  1.376310 -0.000001 0.000008  -0.000000 -0.000000 0.199049
18  4.172846 -0.251370 -1.312746  0.008050 0.095731 0.148659
19  1.215377 -0.000001 -0.000001  0.000000 0.000000 0.645758
20  1.215370 -0.000002 0.000000  0.000000 0.000000 0.645758
21  4.220532 -0.244855 -0.431466  0.001333 0.026242 0.148339
22  1.350413 -0.000005 0.000001  -0.000000 -0.000000 0.863926
23  1.350408 -0.000008 -0.000001  0.000000 0.000000 0.863926
24  -1.932107 0.863613 -2.700507  -0.997804 1.423540 1.710837
25  4.640936 -0.000003 -0.000018  0.840773 -0.556066 -1.008731
26  10.828048 -0.000000 0.000008  0.372594 -1.232925 -0.552316
27  9.393342 0.000009 -0.000002  1.046902 -0.119173 0.046355
28  1.442245 0.107455 1.746175  -1.686405 -0.539236 0.325898
29  1.063451 -0.000008 0.000000  0.000000 -0.000000 0.199056
30  1.376308 -0.000001 0.000001  -0.000000 0.000000 0.199059
31  4.172845 -0.251364 1.312742  -0.008050 -0.095731 0.148659
32  1.215371 0.000001 -0.000000  -0.000000 -0.000000 0.645746
33  1.215370 0.000002 -0.000000  0.000000 0.000000 0.645746
34  4.220529 -0.244855 0.431468  -0.001333 -0.026242 0.148339
35  1.350415 -0.000001 -0.000009  -0.000000 -0.000000 0.863937
36  1.350408 -0.000001 -0.000004  0.000000 0.000000 0.863925
37  4.262829 -0.232718 -1.392184  0.016840 0.076668 0.253759
38  2.110545 -0.000003 -0.000000  0.106894 -0.021378 -0.137379
39  0.891928 2.373047 -0.014527  -3.141592 -0.000001 1.413797
40  7.228116 5.709445 3.726568  3.140796 -1.570796 0.000000
41  2.450426 5.076127 0.001325  3.140791 -1.570796 0.000000
42  6.312403 -4.528056 0.001311  3.140791 -1.570796 0.000000
43  2.233298 1.152535 -7.309136  -2.022003 -1.570330 0.000020
44  3.061500 2.842763 2.243589  0.000000 -0.000000 1.570796
time 28
0  1.145530 6.577957 38.447620  0.000000 -0.000000 -1.701715
1  0.203458 -0.144536 0.000004  -0.000030 -1.543720 -1.570772
2  -0.000004 0.000009 4.427393  -0.164234 3.114863 0.040363
3  18.465940 0.000000 -0.000000  -0.000000 -0.000000 -0.346082
4  14.875446 -0.000001 -0.000000  0.013170 -0.000654 0.368493
5  0.000010 -0.000003 -4.427393  0.102374 3.084911 -0.369537
6  18.465940 -0.000000 0.000000  -0.000000 -0.000000 -0.431550
7  14.875445 0.000000 -0.000001  -0.002626 -0.011212 0.061347
8  2.255208 -0.007574 0.058599  0.069065 -0.044542 -0.000395
9  9.514219 -0.009357 -0.000000  0.003264 0.002890 -0.107614
10  11.752192 -0.001488 0.000000  0.000024 0.032573 0.440031
11  -2.084455 0.863600 2.583323  0.845751 -1.400083 1.858319
12  4.640939 0.000000 0.000004  0.047425 1.229820 -0.224578
13  10.828052 -0.000001 -0.000008  -0.006217 -0.069509 -0.643807
14  9.393331 -0.000008 0.000008  1.939538 0.008013 0.055012
15  1.442240 0.107454 -1.746176  1.686435 0.539209 0.325885
16  1.063453 0.000000 -0.000001  -0.000000 0.000000 0.199056
17  1.376309 -0.000002 0.000009  0.000000 -0.000000 0.199049
18  4.172842 -0.251369 -1.312745  0.008050 0.095731 0.148659
19  1.215376 -0.000005 -0.000003  -0.000000 0.000000 0.645758
20  1.215369 -0.000001 0.000002  0.000000 0.000000 0.645758
21  4.220530 -0.244853 -0.431467  0.001333 0.026242 0.148339
22  1.350414 -0.000007 -0.000000  -0.000000 -0.000000 0.863926
23  1.350409 -0.000005 -0.000001  0.000000 0.000000 0.863926
24  -1.916479 0.863614 -2.712226  -0.984012 1.436250 1.724084
25  4.640936 -0.000003 -0.000013  0.840773 -0.556066 -1.008731
26  10.828049 0.000004 0.000011  0.372594 -1.232925 -0.552316
27  9.393342 0.000001 0.000001  1.046902 -0.119173 0.046355
28  1.442247 0.107454 1.746168  -1.686405 -0.539236 0.325898
29  1.063451 -0.000009 0.000000  0.000000 -0.000000 0.199056
30  1.376310 0.000004 -0.000002  -0.000000 -0.000000 0.199059
31  4.172847 -0.251366 1.312735  -0.008050 -0.095731 0.148659
32  1.215373 0.000001 -0.000004  -0.000000 -0.000000 0.645746
33  1.215370 0.000003 0.000001  0.000000 0.000000 0.645746
34  4.220531 -0.244855 0.431461  -0.001333 -0.026242 0.148339
35  1.350415 -0.000002 -0.000011  -0.000000 -0.000000 0.863937
36  1.350410 -0.000002 0.000002  -0.000000 0.000000 0.863925
37  4.262829 -0.232720 -1.392189  0.016840 0.076668 0.253759
38  2.110539 -0.000002 -0.000000  0.071211 -0.017800 -0.142417
39  0.891928 2.373049 -0.014527  -3.141592 -0.000001 1.413797
40  7.228116 5.709446 3.726568  3.140796 -1.570796 0.000000
41  2.450428 5.076128 0.001325  3.140791 -1.570796 0.000000
42  6.312407 -4.528058 0.001311  3.140791 -1.570796 0.000000
43  2.233308 1.152536 -7.309138  -1.186732 -1.565874 -0.832939
44  3.061500 2.842763 2.243589  0.000000 -0.000000 1.570796
time 29
0  1.442414 6.684662 38.416107  0.000000 -0.000000 -1.701715
1  0.183927 -0.132817 0.000004  -0.000030 -1.558695 -1.570772
2  -0.000004 0.000008 4.427393  -0.166629 3.123763 0.018536
3  18.465939 0.000000 -0.000000  0.000000 0.000000 -0.385706
4  14.875443 -0.000000 0.000001  0.014770 0.008860 0.387692
5  0.000005 -0.000004 -4.427393  0.106304 3.091129 -0.365419
6  18.465937 0.000000 0.000001  0.000000 -0.000000 -0.411859
7  14.875445 0.000000 -0.000000  -0.003995 -0.003058 0.044651
8  2.255206 -0.007575 0.023441  0.097840 -0.029538 -0.000891
9  9.514223 -0.009358 -0.000000  -0.002664 0.002607 -0.101552
10  11.752194 -0.001490 0.000000  0.000024 0.038218 0.440031
11  -2.100070 0.863596 2.571604  0.768673 -1.397942 1.935194
12  4.640940 0.000001 0.000006  0.015857 1.230520 -0.264213
13  10.828052 0.000000 -0.000004  -0.006217 -0.069509 -0.643807
14  9.393338 -0.000006 0.000010  1.939538 0.008013 0.055012
15  1.442242 0.107455 -1.746177  1.686435 0.539209 0.325885
16  1.063453 -0.000001 -0.000001  -0.000000 0.000000 0.199056
17  1.376311 -0.000001 0.000008  -0.000000 -0.000000 0.199049
18  4.172846 -0.251367 -1.312746  0.008050 0.095731 0.148659
19  1.215376 -0.000004 -0.000003  0.000000 0.000000 0.645758
20  1.215369 0.000005 0.000002  0.000000 0.000000 0.645758
21  4.220535 -0.244854 -0.431467  0.001333 0.026242 0.148339
22  1.350416 -0.000008 0.000002  0.000000 -0.000000 0.863926
23  1.350411 -0.000002 0.000002  0.000000 0.000000 0.863926
24  -1.900856 0.863613 -2.723945  -0.963092 1.449383 1.744424
25  4.640936 -0.000004 -0.000008  0.840773 -0.556066 -1.008731
26  10.828047 -0.000002 0.000011  0.372594 -1.232925 -0.552316
27  9.393344 0.000009 0.000001  1.046902 -0.119173 0.046355
28  1.442246 0.107456 1.746177  -1.686405 -0.539236 0.325898
29  1.063451 -0.000010 0.000001  0.000000 0.000000 0.199056
30  1.376308 0.000000 0.000001  -0.000000 0.000000 0.199059
31  4.172844 -0.251363 1.312747  -0.008050 -0.095731 0.148659
32  1.215369 0.000001 0.000002  0.000000 -0.000000 0.645746
33  1.215374 0.000001 0.000000  -0.000000 0.000000 0.645746
34  4.220531 -0.244853 0.431465  -0.001333 -0.026242 0.148339
35  1.350417 -0.000003 -0.000006  -0.000000 0.000000 0.863937
36  1.350408 0.000000 0.000003  0.000000 0.000000 0.863925
37  4.262827 -0.232717 -1.392179  0.016840 0.076668 0.253759
38  2.110539 -0.000001 -0.000000  0.033934 -0.013740 -0.148114
39  0.891930 2.373049 -0.014527  -3.141592 -0.000001 1.413797
40  7.228115 5.709445 3.726568  3.140796 -1.570796 0.000000
41  2.450428 5.076127 0.001325  3.140791 -1.570796 0.000000
42  6.312409 -4.528057 0.001311  3.140791 -1.570796 0.000000
43  2.233306 1.152535 -7.309137  -1.166311 -1.559845 -0.851132
44  3.061500 2.842763 2.243589  0.000000 -0.000000 1.570796
time 30
0  1.727579 6.791367 38.400349  0.000000 -0.000000 -1.701715
1  0.164394 -0.125004 0.000004  -1.570795 -1.570451 -0.000000
2  -0.000008 0.000009 4.427392  -0.170749 3.130202 0.000903
3  18.465937 0.000000 -0.000000  0.000000 -0.000000 -0.416557
4  14.875443 0.000000 0.000000  0.018467 0.017437 0.402071
5  0.000004 -0.000005 -4.427393  0.106016 3.095625 -0.362237
6  18.465939 0.000000 0.000000  0.000000 0.000000 -0.394334
7  14.875443 0.000000 0.000000  -0.002065 0.005218 0.029344
8  2.255205 -0.007575 0.000003  0.122101 -0.017401 -0.001322
9  9.514218 -0.009357 -0.000000  -0.008779 0.002352 -0.095902
10  11.752192 -0.001490 0.000000  0.000024 0.043599 0.440031
11  -2.111788 0.863597 2.563790  0.697216 -1.395374 2.006326
12  4.640939 0.000000 0.000013  0.003415 1.230668 -0.279848
13  10.828053 -0.000001 -0.000007  -0.006218 -0.069509 -0.643807
14  9.393339 -0.000005 0.000009  1.939538 0.008013 0.055012
15  1.442242 0.107453 -1.746178  1.686435 0.539209 0.325885
16  1.063453 0.000000 -0.000000  0.000000 -0.000000 0.199056
17  1.376310 -0.000002 0.000005  -0.000000 0.000000 0.199049
18  4.172846 -0.251369 -1.312746  0.008050 0.095731 0.148659
19  1.215378 -0.000004 -0.000002  -0.000000 0.000000 0.645758
20  1.215371 0.000008 0.000003  0.000000 0.000000 0.645758
21  4.220532 -0.244855 -0.431466  0.001333 0.026242 0.148339
22  1.350416 -0.000005 0.000001  0.000000 -0.000000 0.863926
23  1.350409 -0.000003 0.000002  0.000000 -0.000000 0.863926
24  -1.885223 0.863613 -2.731759  -0.942448 1.461427 1.764337
25  4.640937 -0.000002 -0.000013  0.840773 -0.556066 -1.008731
26  10.828048 0.000003 0.000013  0.372594 -1.232925 -0.552316
27  9.393341 0.000009 0.000000  1.046902 -0.119173 0.046355
28  1.442245 0.107455 1.746179  -1.686405 -0.539236 0.325898
29  1.063452 -0.000009 -0.000001  0.000000 -0.000000 0.199056
30  1.376309 0.000000 -0.000001  -0.000000 -0.000000 0.199059
31  4.172843 -0.251364 1.312745  -0.008050 -0.095731 0.148659
32  1.215370 0.000001 -0.000001  -0.000000 -0.000000 0.645746
33  1.215371 0.000002 -0.000001  -0.000000 -0.000000 0.645746
34  4.220530 -0.244853 0.431467  -0.001333 -0.026242 0.148339
35  1.350415 -0.000003 -0.000003  -0.000000 0.000000 0.863937
36  1.350411 0.000000 0.000001  0.000000 0.000000 0.863925
37  4.262828 -0.232717 -1.392184  0.016840 0.076668 0.253759
38  2.110548 -0.000001 -0.000000  0.002417 -0.010493 -0.153718
39  0.891929 2.373050 -0.014527  -3.141592 -0.000001 1.413797
40  7.228112 5.709445 3.726568  3.140796 -1.570796 0.000000
41  2.450423 5.076127 0.001325  3.140791 -1.570796 0.000000
42  6.312402 -4.528056 0.001311  3.140791 -1.570796 0.000000
43  2.233305 1.152536 -7.309137  -1.160367 -1.554573 -0.854771
44  3.061500 2.842763 2.243589  0.000000 -0.000000 1.570796
end
