version 1
nodes
0 "Bip01" -1
1 "Bip01 Pelvis" 0
2 "Bip01 L Thigh" 1
3 "Bip01 L Calf" 2
4 "Bip01 L Foot" 3
5 "Bip01 R Thigh" 1
6 "Bip01 R Calf" 5
7 "Bip01 R Foot" 6
8 "Bip01 Spine" 1
9 "Bip01 Spine1" 8
10 "Bip01 Neck" 9
11 "Bip01 L Clavicle" 10
12 "Bip01 L UpperArm" 11
13 "Bip01 L Forearm" 12
14 "Bip01 L Hand" 13
15 "Bip01 L Finger0" 14
16 "Bip01 L Finger01" 15
17 "Bip01 L Finger02" 16
18 "Bip01 L Finger1" 14
19 "Bip01 L Finger11" 18
20 "Bip01 L Finger12" 19
21 "Bip01 L Finger2" 14
22 "Bip01 L Finger21" 21
23 "Bip01 L Finger22" 22
24 "Bip01 R Clavicle" 10
25 "Bip01 R UpperArm" 24
26 "Bip01 R Forearm" 25
27 "Bip01 R Hand" 26
28 "Bip01 R Finger0" 27
29 "Bip01 R Finger01" 28
30 "Bip01 R Finger02" 29
31 "Bip01 R Finger1" 27
32 "Bip01 R Finger11" 31
33 "Bip01 R Finger12" 32
34 "Bip01 R Finger2" 27
35 "Bip01 R Finger21" 34
36 "Bip01 R Finger22" 35
37 "Bip01 R Finger4" 27
38 "Bip01 Head" 10
39 "Bone05" 38
40 "Bone08" 9
41 "Bone16" 8
42 "Bone01" 8
43 "Bone03" 1
44 "Box01" -1
end
skeleton
time 0
0  1.727579 6.791367 38.337322  0.000000 -0.000000 -1.701715
1  0.164394 -0.125004 0.000008  -1.570795 -1.570451 -0.000000
2  -0.000004 0.000009 4.427393  -0.170749 3.130202 0.000903
3  18.465939 0.000001 0.000000  -0.000000 -0.000000 -0.416557
4  14.875443 0.000000 0.000000  0.018467 0.017437 0.402071
5  0.000007 -0.000005 -4.427392  0.106016 3.095625 -0.362237
6  18.465940 -0.000000 0.000000  -0.000000 0.000000 -0.394334
7  14.875444 0.000000 -0.000000  -0.002065 0.005218 0.029344
8  2.255212 -0.007575 0.000003  0.122101 -0.017401 -0.001322
9  9.514211 -0.009356 -0.000000  -0.008779 0.002352 -0.095902
10  11.752190 -0.001495 0.000000  0.000024 0.043599 0.440031
11  -2.111789 0.863596 2.563791  0.697216 -1.395374 2.006326
12  4.640937 0.000000 0.000010  0.003415 1.230668 -0.279848
13  10.828056 -0.000002 -0.000006  -0.006217 -0.069509 -0.643807
14  9.393339 -0.000009 0.000004  1.939538 0.008013 0.055012
15  1.442245 0.107456 -1.746177  1.686435 0.539209 0.325885
16  1.063445 0.000000 -0.000002  0.000000 -0.000000 0.199056
17  1.376309 -0.000002 0.000010  0.000000 -0.000000 0.199049
18  4.172853 -0.251366 -1.312747  0.008050 0.095731 0.148659
19  1.215374 -0.000001 -0.000003  -0.000000 -0.000000 0.645758
20  1.215370 -0.000001 -0.000000  -0.000000 0.000000 0.645758
21  4.220537 -0.244853 -0.431463  0.001333 0.026242 0.148339
22  1.350416 0.000003 -0.000002  0.000000 -0.000000 0.863926
23  1.350407 -0.000004 -0.000005  0.000000 0.000000 0.863926
24  -1.885224 0.863611 -2.731757  -0.942448 1.461427 1.764337
25  4.640936 -0.000003 -0.000014  0.840773 -0.556066 -1.008731
26  10.828043 0.000001 0.000011  0.372594 -1.232925 -0.552316
27  9.393346 0.000006 0.000001  1.046902 -0.119173 0.046355
28  1.442243 0.107454 1.746184  -1.686405 -0.539236 0.325898
29  1.063452 -0.000002 -0.000001  0.000000 -0.000000 0.199056
30  1.376305 0.000008 -0.000000  0.000000 0.000000 0.199059
31  4.172844 -0.251364 1.312747  -0.008050 -0.095731 0.148659
32  1.215372 0.000003 -0.000003  0.000000 0.000000 0.645746
33  1.215372 0.000000 0.000009  -0.000000 -0.000000 0.645746
34  4.220535 -0.244853 0.431466  -0.001333 -0.026242 0.148339
35  1.350416 0.000001 -0.000013  -0.000000 -0.000000 0.863937
36  1.350410 -0.000000 0.000008  0.000000 0.000000 0.863925
37  4.262823 -0.232720 -1.392175  0.016840 0.076668 0.253759
38  2.110536 0.000000 -0.000000  0.002417 -0.010493 -0.153718
39  0.891933 2.373049 -0.014527  -3.141592 -0.000001 1.413797
40  7.228112 5.709443 3.726568  3.140796 -1.570796 0.000000
41  2.450423 5.076127 0.001325  3.140791 -1.570796 0.000000
42  6.312402 -4.528057 0.001311  3.140791 -1.570796 0.000000
43  2.233308 1.152535 -7.309138  -1.140138 -1.553350 -0.884449
44  3.061500 2.842763 2.243589  0.000000 -0.000000 1.570796
time 1
0  1.504916 6.791367 38.384594  0.000000 -0.000000 -1.684936
1  -0.015298 -0.148442 0.000008  -1.570795 -1.570796 0.000000
2  -0.000002 0.000008 4.427392  -0.169120 3.140523 -0.005864
3  18.465939 0.000001 0.000001  -0.000000 -0.000000 -0.417288
4  14.875445 -0.000002 -0.000000  0.033755 0.008753 0.394526
5  0.000009 -0.000004 -4.427392  0.107070 3.100695 -0.355967
6  18.465944 -0.000002 0.000000  -0.000000 0.000000 -0.376612
7  14.875444 0.000000 0.000000  0.015519 0.000974 0.018352
8  2.255213 -0.007575 0.000003  0.113578 -0.018226 0.009399
9  9.514209 -0.009356 0.000000  -0.008742 0.002164 -0.079926
10  11.752188 -0.001495 -0.000000  0.000024 0.043599 0.461177
11  -2.096169 0.906568 2.563790  0.813357 -1.397766 1.868467
12  4.640939 0.000000 0.000004  0.050960 1.241566 -0.223803
13  10.828047 -0.000002 -0.000005  -0.005571 -0.062280 -0.636679
14  9.393334 -0.000003 0.000010  2.208807 0.007374 0.048193
15  1.442240 0.107457 -1.746177  1.682276 0.540009 0.317798
16  1.063447 -0.000001 0.000000  -0.000000 0.000000 0.199056
17  1.376310 -0.000001 0.000004  0.000000 -0.000000 0.199049
18  4.172851 -0.251367 -1.312748  0.008050 0.095731 0.148659
19  1.215376 -0.000002 -0.000003  -0.000000 -0.000000 0.645758
20  1.215370 0.000002 -0.000001  -0.000000 -0.000000 0.645758
21  4.220533 -0.244853 -0.431465  0.001333 0.026242 0.148339
22  1.350414 0.000004 0.000002  0.000000 0.000000 0.863926
23  1.350410 -0.000009 -0.000006  0.000000 0.000000 0.863926
24  -1.869597 0.906582 -2.731758  -1.135176 1.446296 1.551445
25  4.640937 -0.000002 -0.000011  0.785179 -0.650734 -0.959969
26  10.828049 0.000002 0.000008  0.333847 -1.104701 -0.552816
27  9.393344 0.000009 -0.000002  1.116134 -0.092407 0.051356
28  1.442244 0.107455 1.746179  -1.688496 -0.534517 0.329194
29  1.063452 -0.000006 0.000000  0.000000 -0.000000 0.199056
30  1.376306 0.000005 -0.000000  0.000000 -0.000000 0.199059
31  4.172846 -0.251364 1.312743  -0.008613 -0.095683 0.154590
32  1.215375 0.000002 -0.000008  -0.000000 -0.000000 0.651663
33  1.215371 0.000001 0.000007  0.000000 0.000000 0.651663
34  4.220536 -0.244853 0.431464  -0.001489 -0.026230 0.154224
35  1.350416 -0.000001 -0.000003  -0.000000 -0.000000 0.869813
36  1.350408 -0.000001 0.000000  0.000000 0.000000 0.869793
37  4.262824 -0.232720 -1.392174  0.017403 0.076536 0.261201
38  2.110535 0.000002 -0.000000  0.012031 -0.012357 -0.141146
39  0.891930 2.373047 -0.014527  -3.141592 -0.000001 1.413797
40  7.228114 5.709444 3.726568  3.140796 -1.570796 0.000000
41  2.450424 5.076127 0.001325  3.140791 -1.570796 0.000000
42  6.312400 -4.528058 0.001311  3.140791 -1.570796 0.000000
43  2.233309 1.152535 -7.309137  -1.152218 -1.550438 -0.857738
44  3.061500 2.842763 2.243589  0.000000 -0.000000 1.570796
time 2
0  1.278347 6.791367 38.431866  0.000000 -0.000000 -1.666240
1  -0.218430 -0.171880 0.000004  0.000036 -1.572249 -1.570821
2  -0.000007 0.000009 4.427393  -0.167300 -3.130353 -0.014157
3  18.465948 0.000002 -0.000000  0.000000 0.000000 -0.418750
4  14.875446 -0.000002 0.000001  0.050927 -0.000335 0.386111
5  0.000008 -0.000005 -4.427392  0.108604 3.107296 -0.347450
6  18.465940 -0.000000 -0.000000  0.000000 -0.000000 -0.352589
7  14.875443 0.000000 -0.000000  0.035032 -0.003361 0.003345
8  2.255216 -0.007574 -0.003903  0.103916 -0.017774 0.021641
9  9.514213 -0.009356 0.000000  -0.008742 0.001935 -0.061806
10  11.752186 -0.001495 0.000000  0.000024 0.043599 0.484966
11  -2.072723 0.949533 2.563790  0.951889 -1.399680 1.705045
12  4.640940 -0.000000 0.000007  0.190242 1.263944 -0.062164
13  10.828054 -0.000003 -0.000002  -0.004029 -0.045042 -0.619682
14  9.393336 -0.000005 0.000003  2.851343 0.002903 0.031930
15  1.442243 0.107457 -1.746176  1.673947 0.541499 0.301605
16  1.063446 -0.000004 0.000001  -0.000000 0.000000 0.199056
17  1.376311 -0.000003 0.000008  0.000000 -0.000000 0.199049
18  4.172850 -0.251367 -1.312747  0.008050 0.095731 0.148659
19  1.215373 0.000000 -0.000001  -0.000000 -0.000000 0.645758
20  1.215370 -0.000001 -0.000003  -0.000000 0.000000 0.645758
21  4.220534 -0.244851 -0.431463  0.001333 0.026242 0.148339
22  1.350423 -0.000003 0.000001  0.000000 -0.000000 0.863926
23  1.350408 -0.000006 -0.000004  0.000000 0.000000 0.863926
24  -1.846162 0.949552 -2.731757  -1.293559 1.427111 1.369918
25  4.640938 -0.000002 -0.000009  0.616149 -0.873317 -0.796281
26  10.828045 0.000000 0.000004  0.241446 -0.798936 -0.556290
27  9.393345 0.000000 -0.000001  1.288049 -0.028463 0.065885
28  1.442247 0.107454 1.746177  -1.692678 -0.525135 0.335837
29  1.063451 -0.000002 0.000001  0.000000 0.000000 0.199056
30  1.376305 0.000004 -0.000000  0.000000 -0.000000 0.199059
31  4.172848 -0.251364 1.312743  -0.009740 -0.095576 0.166411
32  1.215375 0.000002 -0.000004  0.000000 -0.000000 0.663456
33  1.215373 -0.000003 -0.000002  0.000000 -0.000000 0.663456
34  4.220538 -0.244853 0.431463  -0.001800 -0.026218 0.166035
35  1.350417 -0.000001 -0.000011  -0.000000 -0.000000 0.881606
36  1.350410 0.000003 0.000001  0.000000 0.000000 0.881577
37  4.262830 -0.232720 -1.392183  0.018542 0.076273 0.276166
38  2.110538 0.000000 -0.000000  0.022674 -0.015605 -0.128856
39  0.891926 2.373050 -0.014527  -3.141592 -0.000001 1.413797
40  7.228114 5.709444 3.726568  3.140796 -1.570796 0.000000
41  2.450423 5.076127 0.001325  3.140791 -1.570796 0.000000
42  6.312404 -4.528059 0.001311  3.140791 -1.570796 0.000000
43  2.233304 1.152535 -7.309138  -1.158928 -1.547613 -0.836580
44  3.061500 2.842763 2.243589  0.000000 -0.000000 1.570796
time 3
0  1.047871 6.791367 38.494892  0.000000 -0.000000 -1.646586
1  -0.433280 -0.191412 0.000004  0.000034 -1.574347 -1.570821
2  -0.000011 0.000009 4.427394  -0.165288 -3.117286 -0.023116
3  18.465939 0.000001 -0.000001  -0.000000 -0.000000 -0.419774
4  14.875444 -0.000004 0.000000  0.069094 -0.009509 0.376670
5  0.000004 -0.000005 -4.427392  0.110233 3.114757 -0.337062
6  18.465946 -0.000002 0.000001  -0.000000 0.000000 -0.323447
7  14.875441 0.000000 -0.000000  0.055528 -0.007696 -0.014852
8  2.255214 -0.007575 -0.007810  0.093748 -0.016616 0.034578
9  9.514215 -0.009356 -0.000000  -0.008704 0.001707 -0.042604
10  11.752189 -0.001494 -0.000000  0.000024 0.043599 0.510175
11  -2.049293 0.996416 2.563790  1.079749 -1.397665 1.550911
12  4.640940 0.000000 -0.000006  0.410859 1.278887 0.189934
13  10.828053 -0.000001 -0.000004  -0.002188 -0.024468 -0.599396
14  9.393338 -0.000003 0.000002  -2.663706 -0.009195 0.012503
15  1.442239 0.107454 -1.746176  1.667667 0.542545 0.289454
16  1.063448 0.000000 -0.000003  0.000000 -0.000000 0.199056
17  1.376308 -0.000005 0.000003  0.000000 -0.000000 0.199049
18  4.172849 -0.251369 -1.312748  0.008050 0.095731 0.148659
19  1.215373 -0.000003 -0.000004  -0.000000 -0.000000 0.645758
20  1.215371 0.000001 -0.000000  0.000000 0.000000 0.645758
21  4.220536 -0.244856 -0.431462  0.001333 0.026242 0.148339
22  1.350415 0.000003 0.000001  0.000000 -0.000000 0.863926
23  1.350408 -0.000007 -0.000005  -0.000000 0.000000 0.863926
24  -1.822721 0.996430 -2.727849  -1.407048 1.405444 1.231636
25  4.640940 -0.000001 -0.000008  0.252468 -1.113268 -0.418324
26  10.828041 0.000001 -0.000001  0.131157 -0.433990 -0.565711
27  9.393335 0.000002 0.000001  1.509439 0.048137 0.089596
28  1.442248 0.107455 1.746179  -1.695769 -0.518056 0.340729
29  1.063450 -0.000001 -0.000001  0.000000 0.000000 0.199056
30  1.376305 0.000005 -0.000001  0.000000 0.000000 0.199059
31  4.172848 -0.251364 1.312742  -0.010591 -0.095480 0.175307
32  1.215374 0.000001 -0.000005  0.000000 0.000000 0.672270
33  1.215370 -0.000003 0.000004  0.000000 -0.000000 0.672270
34  4.220533 -0.244853 0.431465  -0.002028 -0.026194 0.174883
35  1.350415 -0.000001 -0.000011  -0.000000 0.000000 0.890461
36  1.350408 0.000001 0.000003  -0.000000 0.000000 0.890451
37  4.262826 -0.232720 -1.392181  0.019393 0.076057 0.287349
38  2.110539 0.000002 -0.000000  0.033472 -0.020355 -0.116755
39  0.891925 2.373047 -0.014527  -3.141592 -0.000001 1.413797
40  7.228115 5.709445 3.726568  3.140796 -1.570796 0.000000
41  2.450426 5.076128 0.001325  3.140791 -1.570796 0.000000
42  6.312409 -4.528057 0.001311  3.140791 -1.570796 0.000000
43  2.233301 1.152535 -7.309138  -1.163625 -1.544584 -0.817336
44  3.061500 2.842763 2.243589  0.000000 -0.000000 1.570796
time 4
0  0.817395 6.791367 38.557919  0.000000 -0.000000 -1.626931
1  -0.652037 -0.207038 0.000004  0.000033 -1.576373 -1.570821
2  -0.000004 0.000009 4.427392  -0.163084 -3.104409 -0.031790
3  18.465937 0.000001 0.000000  0.000000 -0.000000 -0.419481
4  14.875443 -0.000002 -0.000000  0.087261 -0.018512 0.366162
5  0.000009 -0.000004 -4.427392  0.111862 3.122410 -0.325177
6  18.465939 0.000000 -0.000000  -0.000000 0.000000 -0.290563
7  14.875442 0.000000 0.000001  0.075989 -0.012031 -0.035336
8  2.255212 -0.007575 -0.011716  0.083622 -0.015300 0.047549
9  9.514215 -0.009357 0.000000  -0.008704 0.001478 -0.023423
10  11.752193 -0.001495 0.000000  0.000024 0.043599 0.535344
11  -2.021954 1.047199 2.567696  1.158923 -1.391219 1.445793
12  4.640942 0.000000 -0.000001  0.659890 1.270797 0.474125
13  10.828048 -0.000002 -0.000002  -0.000647 -0.007230 -0.582399
14  9.393332 -0.000002 0.000000  -2.017473 -0.032678 -0.003870
15  1.442243 0.107456 -1.746177  1.669764 0.542201 0.293498
16  1.063446 -0.000005 -0.000000  -0.000000 -0.000000 0.199056
17  1.376309 -0.000005 0.000005  0.000000 -0.000000 0.199049
18  4.172856 -0.251369 -1.312746  0.008050 0.095731 0.148659
19  1.215370 -0.000003 -0.000003  -0.000000 -0.000000 0.645758
20  1.215371 -0.000003 0.000000  -0.000000 0.000000 0.645758
21  4.220537 -0.244855 -0.431464  0.001333 0.026242 0.148339
22  1.350412 0.000005 -0.000003  0.000000 -0.000000 0.863926
23  1.350409 -0.000006 -0.000004  -0.000000 0.000000 0.863926
24  -1.795383 1.047212 -2.727851  -1.476289 1.383565 1.137454
25  4.640941 0.000000 0.000002  -0.407457 -1.225442 0.273517
26  10.828048 -0.000002 -0.000004  0.038751 -0.128225 -0.584053
27  9.393331 0.000003 0.000001  1.725947 0.112606 0.123091
28  1.442242 0.107455 1.746179  -1.694769 -0.520416 0.339081
29  1.063455 -0.000002 0.000001  0.000000 -0.000000 0.199056
30  1.376309 0.000005 -0.000000  0.000000 0.000000 0.199059
31  4.172848 -0.251364 1.312742  -0.010303 -0.095516 0.172342
32  1.215374 0.000002 -0.000004  -0.000000 -0.000000 0.669332
33  1.215369 0.000004 0.000005  -0.000000 -0.000000 0.669332
34  4.220533 -0.244853 0.431464  -0.001944 -0.026206 0.171920
35  1.350415 0.000001 -0.000010  -0.000000 -0.000000 0.887482
36  1.350411 -0.000000 0.000004  0.000000 0.000000 0.887493
37  4.262823 -0.232720 -1.392179  0.019117 0.076129 0.283608
38  2.110530 0.000003 -0.000000  0.043755 -0.026399 -0.104748
39  0.891924 2.373049 -0.014527  -3.141592 -0.000001 1.413797
40  7.228116 5.709445 3.726568  3.140796 -1.570796 0.000000
41  2.450425 5.076127 0.001325  3.140791 -1.570796 0.000000
42  6.312404 -4.528059 0.001311  3.140791 -1.570796 0.000000
43  2.233307 1.152535 -7.309138  -1.167940 -1.541147 -0.798475
44  3.061500 2.842763 2.243589  0.000000 -0.000000 1.570796
time 5
0  0.586919 6.791367 38.605186  0.000000 -0.000000 -1.608235
1  -0.859074 -0.222663 0.000000  -0.000029 -1.577766 -1.570772
2  -0.000002 0.000009 4.427393  -0.160785 -3.092857 -0.039415
3  18.465940 0.000001 -0.000000  -0.000000 -0.000000 -0.417069
4  14.875445 -0.000001 0.000001  0.104539 -0.027132 0.354746
5  0.000007 -0.000004 -4.427392  0.113108 3.129585 -0.312542
6  18.465937 -0.000002 -0.000000  -0.000000 0.000000 -0.255775
7  14.875444 0.000000 0.000000  0.095433 -0.016335 -0.056871
8  2.255210 -0.007574 -0.015622  0.074044 -0.014495 0.059791
9  9.514216 -0.009356 -0.000000  -0.008667 0.001250 -0.005282
10  11.752200 -0.001494 -0.000000  0.000024 0.043599 0.559173
11  -1.998508 1.090162 2.567696  1.159495 -1.380919 1.421955
12  4.640943 0.000002 0.000003  0.857428 1.238735 0.703922
13  10.828043 -0.000001 0.000001  0.000000 0.000000 -0.575271
14  9.393337 -0.000003 -0.000004  -1.741076 -0.071370 -0.011099
15  1.442239 0.107455 -1.746176  1.686435 0.539209 0.325885
16  1.063448 0.000000 -0.000002  -0.000000 -0.000000 0.199056
17  1.376307 -0.000003 0.000005  -0.000000 -0.000000 0.199049
18  4.172846 -0.251368 -1.312747  0.008050 0.095731 0.148659
19  1.215380 -0.000002 -0.000001  -0.000000 -0.000000 0.645758
20  1.215371 0.000003 -0.000001  -0.000000 0.000000 0.645758
21  4.220529 -0.244855 -0.431465  0.001333 0.026242 0.148339
22  1.350416 0.000002 0.000001  -0.000000 -0.000000 0.863926
23  1.350406 -0.000004 -0.000006  -0.000000 0.000000 0.863926
24  -1.771940 1.090179 -2.727850  -1.504707 1.363744 1.085663
25  4.640942 -0.000001 0.000000  -0.868556 -1.189176 0.758001
26  10.828047 0.000000 -0.000003  0.000000 -0.000000 -0.614291
27  9.393333 -0.000000 0.000000  1.879762 0.139762 0.167212
28  1.442244 0.107453 1.746179  -1.686405 -0.539236 0.325898
29  1.063451 -0.000008 0.000001  0.000000 -0.000000 0.199056
30  1.376308 0.000006 -0.000001  0.000000 -0.000000 0.199059
31  4.172847 -0.251367 1.312744  -0.008050 -0.095731 0.148659
32  1.215364 -0.000001 -0.000003  0.000000 0.000000 0.645746
33  1.215370 0.000001 0.000003  -0.000000 -0.000000 0.645746
34  4.220533 -0.244855 0.431465  -0.001333 -0.026242 0.148339
35  1.350414 -0.000001 -0.000009  -0.000000 -0.000000 0.863937
36  1.350411 -0.000000 0.000003  0.000000 0.000000 0.863925
37  4.262828 -0.232721 -1.392179  0.016840 0.076668 0.253759
38  2.110537 -0.000002 -0.000000  0.052753 -0.033255 -0.092694
39  0.891932 2.373048 -0.014527  -3.141592 -0.000001 1.413797
40  7.228117 5.709445 3.726568  3.140796 -1.570796 0.000000
41  2.450428 5.076127 0.001325  3.140791 -1.570796 0.000000
42  6.312406 -4.528057 0.001311  3.140791 -1.570796 0.000000
43  2.233308 1.152536 -7.309138  -1.172829 -1.536574 -0.779040
44  3.061500 2.842763 2.243589  0.000000 -0.000000 1.570796
time 6
0  0.368163 6.791367 38.652458  0.000000 -0.000000 -1.591457
1  -1.038767 -0.230476 0.000008  -0.000029 -1.577867 -1.570772
2  -0.000002 0.000008 4.427392  -0.158581 -3.083483 -0.045325
3  18.465939 0.000002 -0.000000  -0.000000 0.000000 -0.412098
4  14.875444 -0.000003 0.000000  0.119969 -0.035135 0.342737
5  0.000005 -0.000004 -4.427392  0.113875 3.135229 -0.300189
6  18.465939 0.000002 0.000000  0.000000 0.000000 -0.222432
7  14.875443 0.000000 -0.000000  0.112946 -0.020579 -0.077468
8  2.255214 -0.007575 -0.015622  0.065563 -0.014809 0.070578
9  9.514219 -0.009357 -0.000000  -0.008667 0.001062 0.010651
10  11.752203 -0.001494 -0.000000  0.000024 0.043599 0.580318
11  -1.975078 1.129229 2.567696  1.058598 -1.363041 1.504096
12  4.640942 0.000001 0.000003  0.997422 1.160444 0.818832
13  10.828051 -0.000005 -0.000003  0.000000 0.000000 -0.752451
14  9.393335 -0.000002 -0.000003  -1.775903 -0.144306 0.002381
15  1.442241 0.107454 -1.746179  1.727302 0.529753 0.406073
16  1.063445 -0.000005 -0.000001  -0.000000 -0.000000 0.199056
17  1.376310 -0.000002 0.000004  -0.000000 -0.000000 0.199049
18  4.172853 -0.251369 -1.312750  0.008050 0.095731 0.148659
19  1.215376 -0.000003 0.000000  -0.000000 -0.000000 0.645758
20  1.215373 0.000000 -0.000002  -0.000000 -0.000000 0.645758
21  4.220536 -0.244856 -0.431465  0.001333 0.026242 0.148339
22  1.350426 0.000003 0.000003  0.000000 0.000000 0.863926
23  1.350413 -0.000009 -0.000003  -0.000000 0.000000 0.863926
24  -1.748505 1.129243 -2.727851  -1.497764 1.344316 1.072587
25  4.640942 0.000000 0.000001  -0.970199 -1.161768 0.854873
26  10.828047 -0.000001 -0.000001  0.000000 0.000000 -0.695113
27  9.393331 0.000001 0.000000  1.945005 0.106123 0.221285
28  1.442248 0.107453 1.746179  -1.663312 -0.586709 0.290573
29  1.063445 -0.000009 0.000001  0.000000 -0.000000 0.199056
30  1.376308 0.000004 -0.000000  0.000000 -0.000000 0.199059
31  4.172846 -0.251365 1.312744  -0.002262 -0.096043 0.088271
32  1.215376 0.000001 -0.000003  0.000000 -0.000000 0.585648
33  1.215375 -0.000001 0.000003  0.000000 -0.000000 0.585648
34  4.220539 -0.244855 0.431464  0.000249 -0.026266 0.088202
35  1.350421 0.000000 -0.000011  -0.000000 -0.000000 0.803797
36  1.350403 0.000002 0.000004  -0.000000 0.000000 0.803813
37  4.262826 -0.232722 -1.392179  0.010955 0.077723 0.177622
38  2.110533 0.000002 -0.000000  0.060054 -0.040321 -0.080451
39  0.891932 2.373050 -0.014527  -3.141592 -0.000001 1.413797
40  7.228127 5.709445 3.726568  3.140796 -1.570796 0.000000
41  2.450429 5.076126 0.001325  3.140791 -1.570796 0.000000
42  6.312405 -4.528059 0.001311  3.140791 -1.570796 0.000000
43  2.233304 1.152535 -7.309138  -1.176856 -1.531390 -0.760562
44  3.061500 2.842763 2.243589  0.000000 -0.000000 1.570796
time 7
0  0.161125 6.791367 38.699730  0.000000 -0.000000 -1.577554
1  -1.183303 -0.238289 0.000008  0.000033 -1.576028 -1.570821
2  -0.000010 0.000008 4.427393  -0.156665 -3.077329 -0.048565
3  18.465939 0.000001 -0.000001  0.000000 0.000000 -0.404202
4  14.875443 -0.000002 0.000001  0.132625 -0.042392 0.330530
5  0.000006 -0.000003 -4.427392  0.113875 3.138864 -0.290456
6  18.465940 -0.000000 0.000000  -0.000000 0.000000 -0.195718
7  14.875442 0.000000 0.000000  0.127546 -0.024793 -0.093901
8  2.255207 -0.007574 -0.011716  0.058644 -0.016910 0.079181
9  9.514216 -0.009356 -0.000000  -0.008667 0.000900 0.023402
10  11.752196 -0.001495 -0.000000  0.000024 0.043599 0.597479
11  -1.959447 1.160477 2.567697  0.903012 -1.333956 1.646934
12  4.640942 0.000002 0.000000  1.129096 1.018799 0.930873
13  10.828049 -0.000002 -0.000000  0.000000 0.000000 -1.009373
14  9.393333 -0.000001 -0.000001  -1.813402 -0.243032 0.026265
15  1.442249 0.107455 -1.746176  1.786530 0.510276 0.525176
16  1.063448 -0.000002 -0.000000  -0.000000 -0.000000 0.199056
17  1.376307 -0.000004 0.000006  0.000000 -0.000000 0.199049
18  4.172856 -0.251370 -1.312747  0.008050 0.095731 0.148659
19  1.215373 -0.000004 -0.000001  -0.000000 -0.000000 0.645758
20  1.215369 0.000001 -0.000002  -0.000000 -0.000000 0.645758
21  4.220539 -0.244856 -0.431462  0.001333 0.026242 0.148339
22  1.350418 0.000004 -0.000003  -0.000000 -0.000000 0.863926
23  1.350413 -0.000008 -0.000002  0.000000 0.000000 0.863926
24  -1.728976 1.160492 -2.723944  -1.466476 1.325947 1.088568
25  4.640942 -0.000001 -0.000004  -1.086122 -1.115182 0.966862
26  10.828050 -0.000006 -0.000003  0.000000 0.000000 -0.778763
27  9.393336 -0.000000 0.000000  2.006715 0.037478 0.279285
28  1.442244 0.107452 1.746179  -1.622855 -0.657159 0.232229
29  1.063447 -0.000005 0.000000  0.000000 -0.000000 0.199056
30  1.376308 0.000006 -0.000001  -0.000000 0.000000 0.199059
31  4.172842 -0.251366 1.312744  0.006487 -0.095851 -0.003053
32  1.215378 0.000002 -0.000005  0.000000 0.000000 0.494703
33  1.215366 -0.000001 0.000005  0.000000 -0.000000 0.494703
34  4.220536 -0.244854 0.431464  0.002622 -0.026146 -0.002762
35  1.350416 -0.000001 -0.000009  -0.000000 -0.000000 0.712853
36  1.350408 -0.000000 0.000003  -0.000000 0.000000 0.712833
37  4.262823 -0.232721 -1.392179  0.001955 0.078466 0.062363
38  2.110530 -0.000003 -0.000000  0.065298 -0.046725 -0.067879
39  0.891931 2.373046 -0.014526  -3.141592 -0.000001 1.413797
40  7.228122 5.709444 3.726568  3.140796 -1.570796 0.000000
41  2.450429 5.076127 0.001325  3.140791 -1.570796 0.000000
42  6.312408 -4.528058 0.001311  3.140791 -1.570796 0.000000
43  2.233306 1.152535 -7.309137  -1.179253 -1.527021 -0.743999
44  3.061500 2.842763 2.243589  0.000000 -0.000000 1.570796
time 8
0  -0.022474 6.791367 38.715485  0.000000 -0.000000 -1.567487
1  -1.277055 -0.242195 0.000008  -1.570795 -1.569962 -0.000000
2  -0.000002 0.000007 4.427393  -0.155324 -3.075340 -0.048470
3  18.465942 0.000001 0.000000  0.000000 0.000000 -0.393090
4  14.875443 -0.000001 0.000000  0.141620 -0.048714 0.318600
5  0.000009 -0.000006 -4.427392  0.113204 3.139247 -0.286619
6  18.465937 -0.000001 0.000000  -0.000000 0.000000 -0.183838
7  14.875442 0.000000 -0.000000  0.138250 -0.028946 -0.101442
8  2.255215 -0.007577 0.000003  0.053791 -0.021466 0.084905
9  9.514214 -0.009355 -0.000000  -0.008667 0.000793 0.031823
10  11.752196 -0.001494 -0.000000  0.000024 0.043599 0.609315
11  -1.943817 1.183915 2.567697  0.754667 -1.296435 1.788623
12  4.640943 -0.000000 0.000002  1.217562 0.849157 1.006738
13  10.828045 -0.000001 -0.000000  0.000000 0.000000 -1.289481
14  9.393329 -0.000004 -0.000003  -1.853482 -0.347756 0.057084
15  1.442236 0.107454 -1.746176  1.847472 0.481972 0.653042
16  1.063448 0.000001 -0.000002  -0.000000 -0.000000 0.199056
17  1.376310 0.000000 0.000005  0.000000 -0.000000 0.199049
18  4.172841 -0.251372 -1.312746  0.008050 0.095731 0.148659
19  1.215376 -0.000004 -0.000002  -0.000000 -0.000000 0.645758
20  1.215371 -0.000002 -0.000004  -0.000000 0.000000 0.645758
21  4.220528 -0.244857 -0.431461  0.001333 0.026242 0.148339
22  1.350415 0.000002 -0.000001  -0.000000 -0.000000 0.863926
23  1.350407 -0.000006 -0.000005  0.000000 0.000000 0.863926
24  -1.713342 1.183927 -2.723944  -1.416767 1.313692 1.128737
25  4.640942 -0.000001 -0.000000  -1.181428 -1.057299 1.055544
26  10.828044 0.000003 -0.000003  0.000000 0.000000 -0.858813
27  9.393335 0.000003 0.000000  2.060091 -0.043237 0.332242
28  1.442249 0.107454 1.746179  -1.570396 -0.730867 0.161012
29  1.063453 -0.000005 0.000001  0.000000 -0.000000 0.199056
30  1.376308 0.000007 -0.000001  -0.000000 0.000000 0.199059
31  4.172851 -0.251364 1.312744  0.015895 -0.094749 -0.101831
32  1.215373 0.000001 -0.000004  0.000000 0.000000 0.396372
33  1.215371 0.000001 0.000005  0.000000 -0.000000 0.396372
34  4.220540 -0.244853 0.431465  0.005175 -0.025763 -0.101094
35  1.350420 -0.000001 -0.000011  -0.000000 -0.000000 0.614522
36  1.350409 -0.000002 0.000004  -0.000000 0.000000 0.614506
37  4.262831 -0.232721 -1.392179  -0.007788 0.078106 -0.062209
38  2.110534 0.000002 -0.000000  0.068229 -0.051597 -0.054648
39  0.891926 2.373052 -0.014526  -3.141592 -0.000001 1.413797
40  7.228120 5.709445 3.726567  3.140796 -1.570796 0.000000
41  2.450425 5.076128 0.001325  3.140791 -1.570796 0.000000
42  6.312409 -4.528057 0.001311  3.140791 -1.570796 0.000000
43  2.233310 1.152533 -7.309138  -1.185868 -1.527196 -0.725042
44  3.061500 2.842763 2.243589  0.000000 -0.000000 1.570796
time 9
0  -0.186542 6.791367 38.731243  0.000000 -0.000000 -1.562118
1  -1.312213 -0.242195 0.000000  -0.000031 -1.563926 -1.570772
2  -0.000004 0.000009 4.427392  -0.154653 -3.078276 -0.044181
3  18.465946 0.000001 0.000001  0.000000 0.000000 -0.378249
4  14.875443 -0.000002 -0.000000  0.146028 -0.053992 0.307381
5  0.000005 -0.000004 -4.427392  0.111575 3.135420 -0.291860
6  18.465942 -0.000002 -0.000000  -0.000000 -0.000000 -0.194602
7  14.875442 0.000000 -0.000000  0.144181 -0.033038 -0.095514
8  2.255213 -0.007574 0.011722  0.051471 -0.029165 0.086956
9  9.514219 -0.009356 -0.000000  -0.008667 0.000766 0.034875
10  11.752192 -0.001494 -0.000000  0.000024 0.043599 0.614404
11  -1.939913 1.191734 2.571604  0.638430 -1.258360 1.904368
12  4.640943 -0.000001 -0.000001  1.273001 0.689833 1.051988
13  10.828047 0.000003 0.000001  0.000000 0.000000 -1.535970
14  9.393337 -0.000002 -0.000002  -1.893929 -0.439146 0.089271
15  1.442242 0.107455 -1.746175  1.896585 0.451685 0.762087
16  1.063447 -0.000007 0.000000  -0.000000 -0.000000 0.199056
17  1.376310 -0.000008 0.000005  0.000000 -0.000000 0.199049
18  4.172845 -0.251369 -1.312750  0.008050 0.095731 0.148659
19  1.215380 -0.000002 0.000003  -0.000000 -0.000000 0.645758
20  1.215367 0.000002 0.000000  0.000000 0.000000 0.645758
21  4.220537 -0.244856 -0.431460  0.001333 0.026242 0.148339
22  1.350418 0.000003 0.000000  0.000000 -0.000000 0.863926
23  1.350410 -0.000006 -0.000002  0.000000 0.000000 0.863926
24  -1.705524 1.191743 -2.723943  -1.347155 1.312269 1.195399
25  4.640942 0.000001 0.000000  -1.241418 -0.999694 1.102090
26  10.828049 -0.000001 -0.000004  0.000000 0.000000 -0.928704
27  9.393327 0.000001 0.000000  2.104193 -0.112012 0.374772
28  1.442247 0.107452 1.746180  -1.517938 -0.789969 0.093503
29  1.063453 -0.000000 0.000000  0.000000 0.000000 0.199056
30  1.376300 0.000003 -0.000001  0.000000 -0.000000 0.199059
31  4.172851 -0.251366 1.312744  0.023637 -0.093119 -0.184379
32  1.215375 0.000004 -0.000004  -0.000000 -0.000000 0.314156
33  1.215371 0.000001 0.000005  0.000000 0.000000 0.314156
34  4.220532 -0.244855 0.431465  0.007272 -0.025247 -0.183331
35  1.350418 -0.000000 -0.000010  -0.000000 -0.000000 0.532306
36  1.350409 -0.000004 0.000002  -0.000000 0.000000 0.532305
37  4.262827 -0.232723 -1.392178  -0.015854 0.076872 -0.166364
38  2.110542 -0.000001 -0.000000  0.068743 -0.054122 -0.040710
39  0.891932 2.373046 -0.014527  -3.141592 -0.000001 1.413797
40  7.228114 5.709445 3.726568  3.140796 -1.570796 0.000000
41  2.450433 5.076127 0.001325  3.140791 -1.570796 0.000000
42  6.312411 -4.528059 0.001311  3.140791 -1.570796 0.000000
43  2.233302 1.152534 -7.309138  -1.186922 -1.535904 -0.722170
44  3.061500 2.842763 2.243589  0.000000 -0.000000 1.570796
time 10
0  -0.127946 6.791367 38.573673  0.000000 -0.000000 -1.561447
1  -1.308305 -0.242195 0.000004  -0.000030 -1.507863 -1.570772
2  -0.000005 0.000009 4.427393  -0.157623 -3.137833 -0.031313
3  18.465940 0.000001 -0.000001  -0.000000 -0.000000 -0.348787
4  14.875444 -0.000001 0.000000  0.147024 -0.052396 0.291027
5  0.000015 -0.000006 -4.427392  0.089915 3.072666 -0.371596
6  18.465939 -0.000001 -0.000000  -0.000000 -0.000000 -0.367817
7  14.875444 0.000000 0.000000  0.144673 -0.031189 -0.001833
8  2.255213 -0.007575 0.140632  0.046914 -0.085018 0.086857
9  9.514210 -0.009355 -0.000000  -0.008667 0.000766 0.034291
10  11.752191 -0.001495 0.000000  0.000024 0.043599 0.614483
11  -1.939910 1.191730 2.571604  0.457692 -1.228319 2.086074
12  4.640945 0.000001 -0.000002  1.252080 0.601007 1.018329
13  10.828047 0.000003 0.000001  0.000000 -0.000000 -1.629685
14  9.393336 0.000001 -0.000001  -1.904801 -0.472157 0.102067
15  1.442241 0.107455 -1.746176  1.915017 0.438240 0.804901
16  1.063446 -0.000005 -0.000001  -0.000000 -0.000000 0.199056
17  1.376308 -0.000001 0.000005  0.000000 -0.000000 0.199049
18  4.172848 -0.251368 -1.312746  0.008050 0.095731 0.148659
19  1.215375 -0.000004 0.000004  -0.000000 -0.000000 0.645758
20  1.215369 0.000002 -0.000003  -0.000000 -0.000000 0.645758
21  4.220535 -0.244855 -0.431460  0.001333 0.026242 0.148339
22  1.350416 0.000002 -0.000002  0.000000 -0.000000 0.863926
23  1.350410 -0.000005 -0.000005  0.000000 0.000000 0.863926
24  -1.705531 1.191747 -2.723943  -0.948836 1.376393 1.591613
25  4.640942 0.000000 -0.000001  -1.121862 -0.985189 0.899878
26  10.828049 0.000002 -0.000002  0.000000 0.000000 -0.927740
27  9.393335 0.000003 -0.000000  2.104193 -0.112012 0.374772
28  1.442247 0.107453 1.746180  -1.517938 -0.789969 0.093503
29  1.063452 -0.000005 0.000000  0.000000 -0.000000 0.199056
30  1.376308 0.000004 0.000000  -0.000000 -0.000000 0.199059
31  4.172847 -0.251365 1.312744  0.023637 -0.093119 -0.184379
32  1.215375 -0.000000 -0.000003  -0.000000 -0.000000 0.314156
33  1.215375 0.000001 0.000004  0.000000 0.000000 0.314156
34  4.220534 -0.244854 0.431465  0.007272 -0.025247 -0.183331
35  1.350415 -0.000001 -0.000011  -0.000000 -0.000000 0.532306
36  1.350403 0.000001 0.000004  -0.000000 0.000000 0.532305
37  4.262826 -0.232721 -1.392179  -0.015854 0.076872 -0.166364
38  2.110540 0.000001 -0.000000  0.067663 -0.054904 -0.025831
39  0.891923 2.373050 -0.014527  -3.141592 -0.000001 1.413797
40  7.228116 5.709444 3.726568  3.140796 -1.570796 0.000000
41  2.450426 5.076128 0.001325  3.140791 -1.570796 0.000000
42  6.312400 -4.528057 0.001311  3.140791 -1.570796 0.000000
43  2.233309 1.152534 -7.309137  -1.153463 -1.596979 -0.827867
44  3.061500 2.842763 2.243589  0.000000 -0.000000 1.570796
time 11
0  0.075185 6.791367 38.400349  0.000000 -0.000000 -1.564323
1  -1.288776 -0.242195 0.000008  -0.000030 -1.466142 -1.570772
2  -0.000004 0.000009 4.427393  -0.160018 3.097725 -0.030646
3  18.465937 0.000001 -0.000000  0.000000 0.000000 -0.349737
4  14.875444 -0.000001 0.000001  0.144926 -0.046607 0.293555
5  0.000014 -0.000002 -4.427394  0.067967 3.024548 -0.422226
6  18.465937 -0.000003 -0.000000  -0.000000 0.000000 -0.473098
7  14.875443 0.000000 -0.000000  0.140742 -0.025429 0.054031
8  2.247402 -0.007575 0.234385  0.044298 -0.126555 0.086096
9  9.514214 -0.009355 -0.000000  -0.008667 0.000793 0.032624
10  11.752193 -0.001495 -0.000000  0.000024 0.043599 0.612234
11  -1.939916 1.187823 2.567696  0.290387 -1.225448 2.250453
12  4.640943 -0.000000 -0.000003  1.226999 0.569185 0.956337
13  10.828043 -0.000011 -0.000000  -0.000000 0.000000 -1.651344
14  9.393333 -0.000003 -0.000004  -1.893929 -0.439146 0.089271
15  1.442237 0.107455 -1.746178  1.896585 0.451685 0.762087
16  1.063447 -0.000002 0.000000  -0.000000 -0.000000 0.199056
17  1.376307 -0.000002 0.000004  0.000000 -0.000000 0.199049
18  4.172847 -0.251369 -1.312748  0.008050 0.095731 0.148659
19  1.215371 -0.000003 0.000002  -0.000000 -0.000000 0.645758
20  1.215371 0.000001 0.000002  -0.000000 0.000000 0.645758
21  4.220531 -0.244855 -0.431465  0.001333 0.026242 0.148339
22  1.350418 0.000003 0.000001  -0.000000 -0.000000 0.863926
23  1.350409 -0.000009 -0.000006  0.000000 0.000000 0.863926
24  -1.709436 1.187839 -2.723944  -0.319835 1.406987 2.214052
25  4.640942 -0.000001 -0.000001  -1.051396 -0.965173 0.728254
26  10.828049 0.000000 -0.000004  0.000000 0.000000 -0.916681
27  9.393335 0.000001 -0.000001  2.104193 -0.112012 0.374772
28  1.442247 0.107453 1.746178  -1.517938 -0.789969 0.093503
29  1.063449 -0.000008 -0.000000  0.000000 -0.000000 0.199056
30  1.376304 0.000005 -0.000002  0.000000 -0.000000 0.199059
31  4.172848 -0.251364 1.312743  0.023637 -0.093119 -0.184379
32  1.215371 0.000002 -0.000004  -0.000000 -0.000000 0.314156
33  1.215370 0.000001 0.000004  0.000000 0.000000 0.314156
34  4.220538 -0.244853 0.431464  0.007272 -0.025247 -0.183331
35  1.350410 -0.000001 -0.000010  -0.000000 -0.000000 0.532306
36  1.350409 -0.000001 0.000003  -0.000000 0.000000 0.532305
37  4.262823 -0.232720 -1.392179  -0.015854 0.076872 -0.166364
38  2.110536 -0.000000 -0.000000  0.066172 -0.055115 -0.010198
39  0.891930 2.373046 -0.014527  -3.141592 -0.000001 1.413797
40  7.228112 5.709444 3.726568  3.140796 -1.570796 0.000000
41  2.450424 5.076128 0.001325  3.140791 -1.570796 0.000000
42  6.312398 -4.528056 0.001311  3.140791 -1.570796 0.000000
43  2.233312 1.152536 -7.309137  -1.140328 -1.658054 -0.884737
44  3.061500 2.842763 2.243589  0.000000 -0.000000 1.570796
time 12
0  0.208001 6.791367 38.353081  0.000000 -0.000000 -1.570076
1  -1.257524 -0.242195 0.000004  -0.000030 -1.554872 -1.570772
2  -0.000009 0.000008 4.427392  -0.155994 -3.093331 -0.082688
3  18.465937 -0.000001 -0.000000  0.000000 0.000000 -0.476725
4  14.875443 -0.000003 0.000001  0.139913 -0.042031 0.368453
5  0.000005 -0.000004 -4.427392  0.105345 3.107678 -0.373655
6  18.465944 -0.000003 -0.000000  -0.000000 -0.000000 -0.374577
7  14.875441 0.000000 0.000001  0.134460 -0.022762 0.001281
8  2.255209 -0.007575 0.035160  0.053412 -0.038101 0.083647
9  9.514211 -0.009354 -0.000000  -0.008667 0.000820 0.029918
10  11.752196 -0.001496 -0.000000  0.000024 0.043599 0.607855
11  -1.947723 1.180011 2.567697  0.139756 -1.257429 2.397886
12  4.640940 0.000001 -0.000001  1.252142 0.599708 0.907751
13  10.828048 0.000000 -0.000001  0.000000 -0.000000 -1.583071
14  9.393336 -0.000006 -0.000004  -1.893929 -0.439146 0.089271
15  1.442244 0.107455 -1.746174  1.896585 0.451685 0.762087
16  1.063446 -0.000001 -0.000002  -0.000000 -0.000000 0.199056
17  1.376306 0.000001 0.000004  0.000000 -0.000000 0.199049
18  4.172849 -0.251369 -1.312747  0.008050 0.095731 0.148659
19  1.215374 -0.000002 -0.000005  -0.000000 -0.000000 0.645758
20  1.215372 -0.000001 0.000002  -0.000000 0.000000 0.645758
21  4.220535 -0.244855 -0.431459  0.001333 0.026242 0.148339
22  1.350414 0.000002 -0.000001  0.000000 -0.000000 0.863926
23  1.350409 -0.000006 -0.000005  -0.000000 0.000000 0.863926
24  -1.713344 1.180025 -2.723945  -0.229489 1.383928 2.308320
25  4.640940 0.000000 0.000000  -1.069730 -0.880929 0.756251
26  10.828047 -0.000001 -0.000003  0.000000 0.000000 -1.055692
27  9.393329 -0.000000 0.000000  2.100771 -0.137583 0.395722
28  1.442239 0.107452 1.746178  -1.503301 -0.804464 0.075119
29  1.063455 -0.000003 -0.000000  0.000000 -0.000000 0.199056
30  1.376305 0.000002 -0.000001  -0.000000 0.000000 0.199059
31  4.172847 -0.251365 1.312743  0.025567 -0.092615 -0.205216
32  1.215378 0.000002 -0.000004  -0.000000 0.000000 0.293424
33  1.215372 0.000001 0.000004  -0.000000 -0.000000 0.293424
34  4.220535 -0.244854 0.431464  0.007799 -0.025091 -0.204070
35  1.350415 0.000000 -0.000010  -0.000000 -0.000000 0.511574
36  1.350408 -0.000003 0.000004  -0.000000 0.000000 0.511600
37  4.262825 -0.232722 -1.392178  -0.017867 0.076441 -0.192592
38  2.110535 -0.000001 -0.000000  0.064218 -0.054754 0.006000
39  0.891937 2.373050 -0.014526  -3.141592 -0.000001 1.413797
40  7.228118 5.709443 3.726568  3.140796 -1.570796 0.000000
41  2.450427 5.076128 0.001325  3.140791 -1.570796 0.000000
42  6.312405 -4.528056 0.001311  3.140791 -1.570796 0.000000
43  2.233305 1.152535 -7.309137  -1.153368 -1.562088 -0.827579
44  3.061500 2.842763 2.243589  0.000000 -0.000000 1.570796
time 13
0  0.344724 6.791367 38.321568  0.000000 -0.000000 -1.578130
1  -1.214554 -0.238289 0.000008  -0.000030 -1.640570 -1.570772
2  -0.000007 0.000009 4.427393  -0.144880 -3.006598 -0.120719
3  18.465939 0.000002 -0.000001  -0.000000 -0.000000 -0.571252
4  14.875443 -0.000001 0.000001  0.132412 -0.037923 0.426049
5  0.000014 -0.000004 -4.427393  0.133139 -3.090846 -0.312449
6  18.465935 -0.000001 0.000000  -0.000000 0.000000 -0.240745
7  14.875442 0.000000 -0.000000  0.125791 -0.019427 -0.071203
8  2.251305 -0.007575 -0.156252  0.062357 0.047349 0.081232
9  9.514220 -0.009355 -0.000000  -0.008667 0.000860 0.026281
10  11.752194 -0.001495 0.000000  0.000024 0.043599 0.601622
11  -1.951634 1.168295 2.567697  0.004845 -1.238794 2.534214
12  4.640941 0.000002 -0.000002  1.237925 0.600718 0.851262
13  10.828047 -0.000009 0.000002  0.000000 0.000000 -1.525049
14  9.393332 0.000000 -0.000002  -1.893929 -0.439146 0.089271
15  1.442240 0.107454 -1.746174  1.896585 0.451685 0.762087
16  1.063449 -0.000001 -0.000002  -0.000000 -0.000000 0.199056
17  1.376307 0.000001 0.000004  0.000000 -0.000000 0.199049
18  4.172848 -0.251370 -1.312745  0.008050 0.095731 0.148659
19  1.215377 -0.000003 -0.000004  -0.000000 -0.000000 0.645758
20  1.215369 0.000003 -0.000002  -0.000000 -0.000000 0.645758
21  4.220534 -0.244857 -0.431460  0.001333 0.026242 0.148339
22  1.350416 0.000003 -0.000002  0.000000 -0.000000 0.863926
23  1.350409 -0.000005 -0.000004  0.000000 0.000000 0.863926
24  -1.721154 1.168307 -2.723944  -0.263091 1.373851 2.282253
25  4.640941 0.000001 0.000001  -1.111469 -0.821162 0.819596
26  10.828050 0.000002 -0.000003  0.000000 0.000000 -1.130919
27  9.393335 0.000002 0.000001  2.104193 -0.112012 0.374772
28  1.442245 0.107453 1.746179  -1.517938 -0.789969 0.093503
29  1.063449 -0.000007 0.000000  0.000000 -0.000000 0.199056
30  1.376308 0.000004 -0.000001  -0.000000 0.000000 0.199059
31  4.172843 -0.251365 1.312744  0.023637 -0.093119 -0.184379
32  1.215376 0.000002 -0.000003  -0.000000 -0.000000 0.314156
33  1.215378 -0.000000 0.000004  0.000000 0.000000 0.314156
34  4.220533 -0.244852 0.431464  0.007272 -0.025247 -0.183331
35  1.350414 -0.000000 -0.000010  -0.000000 -0.000000 0.532306
36  1.350403 -0.000000 0.000003  -0.000000 0.000000 0.532305
37  4.262824 -0.232722 -1.392179  -0.015854 0.076872 -0.166364
38  2.110538 0.000003 -0.000000  0.061956 -0.053882 0.022433
39  0.891929 2.373052 -0.014527  -3.141592 -0.000001 1.413797
40  7.228114 5.709444 3.726568  3.140796 -1.570796 0.000000
41  2.450431 5.076128 0.001325  3.140791 -1.570796 0.000000
42  6.312410 -4.528058 0.001311  3.140791 -1.570796 0.000000
43  2.233307 1.152535 -7.309138  -1.175993 -1.483567 -0.751849
44  3.061500 2.842763 2.243589  0.000000 -0.000000 1.570796
time 14
0  0.485354 6.791367 38.290054  0.000000 -0.000000 -1.587909
1  -1.163772 -0.238289 0.000004  -0.000030 -1.580166 -1.570772
2  -0.000001 0.000008 4.427393  -0.155707 -3.076761 -0.093173
3  18.465937 0.000000 -0.000001  -0.000000 0.000000 -0.514813
4  14.875444 -0.000002 0.000001  0.123417 -0.032006 0.397488
5  0.000007 -0.000004 -4.427392  0.113588 3.126715 -0.365138
6  18.465937 -0.000001 -0.000001  -0.000000 0.000000 -0.356856
7  14.875442 -0.000000 -0.000001  0.115648 -0.017305 -0.008699
8  2.255209 -0.007575 -0.019529  0.059825 -0.012747 0.078122
9  9.514211 -0.009356 -0.000000  -0.008667 0.000914 0.021822
10  11.752191 -0.001494 0.000000  0.000024 0.043599 0.593810
11  -1.963356 1.156574 2.567696  -0.004587 -1.214847 2.551063
12  4.640942 0.000000 -0.000003  1.228551 0.562258 0.847867
13  10.828048 -0.000007 -0.000000  -0.000000 0.000000 -1.558300
14  9.393339 -0.000000 -0.000004  -1.893929 -0.439146 0.089271
15  1.442237 0.107454 -1.746174  1.896585 0.451685 0.762087
16  1.063447 -0.000004 -0.000001  0.000000 -0.000000 0.199056
17  1.376308 -0.000004 0.000004  0.000000 -0.000000 0.199049
18  4.172843 -0.251370 -1.312747  0.008050 0.095731 0.148659
19  1.215379 -0.000003 -0.000002  -0.000000 -0.000000 0.645758
20  1.215369 0.000000 -0.000001  0.000000 0.000000 0.645758
21  4.220530 -0.244856 -0.431461  0.001333 0.026242 0.148339
22  1.350419 0.000003 0.000000  0.000000 -0.000000 0.863926
23  1.350410 -0.000007 -0.000003  0.000000 0.000000 0.863926
24  -1.732876 1.156590 -2.723944  -0.262073 1.371309 2.291227
25  4.640940 0.000001 -0.000004  -1.085361 -0.856380 0.789428
26  10.828047 0.000002 -0.000003  0.000000 0.000000 -1.063472
27  9.393338 0.000000 0.000000  2.104138 -0.107164 0.371474
28  1.442251 0.107454 1.746179  -1.520393 -0.787497 0.096592
29  1.063450 -0.000006 0.000000  0.000000 -0.000000 0.199056
30  1.376308 0.000005 -0.000001  0.000000 0.000000 0.199059
31  4.172848 -0.251363 1.312744  0.023302 -0.093203 -0.180812
32  1.215373 -0.000000 -0.000003  -0.000000 -0.000000 0.317724
33  1.215371 -0.000000 0.000005  0.000000 -0.000000 0.317724
34  4.220541 -0.244853 0.431465  0.007188 -0.025271 -0.179767
35  1.350421 -0.000001 -0.000010  -0.000000 -0.000000 0.535873
36  1.350412 -0.000004 0.000003  0.000000 0.000000 0.535883
37  4.262836 -0.232721 -1.392179  -0.015507 0.076944 -0.161827
38  2.110536 0.000001 -0.000000  0.059334 -0.052529 0.038913
39  0.891928 2.373056 -0.014527  -3.141592 -0.000001 1.413797
40  7.228112 5.709445 3.726569  3.140796 -1.570796 0.000000
41  2.450424 5.076128 0.001325  3.140791 -1.570796 0.000000
42  6.312403 -4.528059 0.001311  3.140791 -1.570796 0.000000
43  2.233305 1.152534 -7.309137  -1.153272 -1.544642 -0.827580
44  3.061500 2.842763 2.243589  0.000000 -0.000000 1.570796
time 15
0  0.622077 6.791367 38.274296  0.000000 -0.000000 -1.598839
1  -1.105174 -0.234382 0.000008  -0.000030 -1.518469 -1.570772
2  -0.000004 0.000008 4.427392  -0.162701 3.134274 -0.060766
3  18.465937 0.000001 -0.000000  -0.000000 0.000000 -0.446093
4  14.875444 -0.000002 0.000000  0.113320 -0.026578 0.362291
5  0.000015 -0.000004 -4.427393  0.087998 3.063100 -0.405848
6  18.465942 -0.000000 -0.000000  -0.000000 0.000000 -0.442380
7  14.875443 -0.000000 0.000000  0.104347 -0.014910 0.036848
8  2.255213 -0.007574 0.117194  0.058011 -0.074178 0.074780
9  9.514217 -0.009356 -0.000000  -0.008667 0.000981 0.016583
10  11.752195 -0.001494 -0.000000  0.000024 0.043599 0.584618
11  -1.967258 1.137041 2.567697  0.006846 -1.247079 2.549244
12  4.640944 -0.000000 0.000002  1.268966 0.559877 0.877955
13  10.828047 -0.000001 0.000001  -0.000000 -0.000000 -1.593810
14  9.393338 -0.000001 -0.000003  -1.893929 -0.439146 0.089271
15  1.442242 0.107455 -1.746174  1.896585 0.451685 0.762087
16  1.063447 -0.000008 -0.000001  -0.000000 0.000000 0.199056
17  1.376307 -0.000005 0.000005  0.000000 -0.000000 0.199049
18  4.172850 -0.251369 -1.312744  0.008050 0.095731 0.148659
19  1.215371 -0.000004 -0.000003  -0.000000 -0.000000 0.645758
20  1.215370 -0.000000 0.000001  0.000000 -0.000000 0.645758
21  4.220532 -0.244855 -0.431460  0.001333 0.026242 0.148339
22  1.350414 0.000002 -0.000002  0.000000 -0.000000 0.863926
23  1.350409 -0.000005 -0.000003  0.000000 0.000000 0.863926
24  -1.740689 1.137058 -2.727850  -0.249854 1.366074 2.312679
25  4.640940 -0.000001 -0.000006  -1.056888 -0.881487 0.758071
26  10.828048 -0.000000 -0.000002  0.000000 0.000000 -1.008047
27  9.393333 0.000000 0.000000  2.104193 -0.112012 0.374772
28  1.442246 0.107454 1.746179  -1.517938 -0.789969 0.093503
29  1.063446 -0.000003 0.000001  -0.000000 -0.000000 0.199056
30  1.376303 0.000003 0.000000  0.000000 -0.000000 0.199059
31  4.172850 -0.251364 1.312744  0.023637 -0.093119 -0.184379
32  1.215378 0.000001 -0.000003  -0.000000 -0.000000 0.314156
33  1.215378 -0.000001 0.000005  0.000000 0.000000 0.314156
34  4.220536 -0.244852 0.431464  0.007272 -0.025247 -0.183331
35  1.350412 -0.000001 -0.000010  -0.000000 -0.000000 0.532306
36  1.350407 -0.000001 0.000004  -0.000000 0.000000 0.532305
37  4.262832 -0.232719 -1.392178  -0.015854 0.076872 -0.166364
38  2.110532 0.000003 -0.000000  0.056455 -0.050725 0.055111
39  0.891925 2.373043 -0.014527  -3.141592 -0.000001 1.413797
40  7.228119 5.709445 3.726568  3.140796 -1.570796 0.000000
41  2.450430 5.076127 0.001325  3.140791 -1.570796 0.000000
42  6.312409 -4.528058 0.001311  3.140791 -1.570796 0.000000
43  2.233310 1.152535 -7.309138  -1.140328 -1.605688 -0.884737
44  3.061500 2.842763 2.243589  0.000000 -0.000000 1.570796
time 16
0  0.754893 6.791367 38.274296  0.000000 -0.000000 -1.610344
1  -1.038767 -0.230476 0.000008  -0.000031 -1.566025 -1.570772
2  -0.000001 0.000008 4.427394  -0.160497 -3.104030 -0.078494
3  18.465940 0.000002 -0.000000  0.000000 -0.000000 -0.496829
4  14.875444 -0.000002 0.000001  0.102726 -0.021385 0.395790
5  0.000008 -0.000004 -4.427392  0.107262 3.107870 -0.376462
6  18.465935 0.000000 -0.000001  -0.000000 -0.000000 -0.381601
7  14.875444 0.000000 -0.000000  0.092520 -0.012879 0.004358
8  2.255223 -0.007575 0.007816  0.064719 -0.026632 0.070578
9  9.514211 -0.009356 -0.000000  -0.008667 0.001062 0.010651
10  11.752196 -0.001495 -0.000000  0.000024 0.043599 0.574361
11  -1.978973 1.117508 2.567696  0.009228 -1.257529 2.557190
12  4.640942 0.000001 0.000003  1.283058 0.573082 0.881701
13  10.828053 -0.000005 -0.000002  -0.000000 -0.000000 -1.565195
14  9.393333 0.000000 -0.000003  -1.893929 -0.439146 0.089271
15  1.442240 0.107455 -1.746175  1.896585 0.451685 0.762087
16  1.063447 0.000001 -0.000001  -0.000000 -0.000000 0.199056
17  1.376307 0.000004 0.000003  0.000000 -0.000000 0.199049
18  4.172854 -0.251369 -1.312746  0.008050 0.095731 0.148659
19  1.215374 -0.000004 -0.000000  -0.000000 -0.000000 0.645758
20  1.215371 0.000001 0.000000  0.000000 -0.000000 0.645758
21  4.220538 -0.244856 -0.431462  0.001333 0.026242 0.148339
22  1.350415 0.000002 -0.000001  0.000000 -0.000000 0.863926
23  1.350407 -0.000004 -0.000003  0.000000 0.000000 0.863926
24  -1.752402 1.117520 -2.727850  -0.227267 1.347463 2.346010
25  4.640940 -0.000000 0.000005  -1.069984 -0.823812 0.787119
26  10.828044 -0.000002 -0.000003  0.000000 0.000000 -1.071830
27  9.393330 -0.000001 0.000001  2.106953 -0.136672 0.388884
28  1.442240 0.107453 1.746178  -1.506301 -0.801598 0.078827
29  1.063447 -0.000006 -0.000001  0.000000 -0.000000 0.199056
30  1.376306 0.000002 -0.000000  -0.000000 0.000000 0.199059
31  4.172847 -0.251366 1.312743  0.025183 -0.092711 -0.201049
32  1.215376 0.000001 -0.000003  0.000000 0.000000 0.297537
33  1.215377 -0.000000 0.000004  0.000000 0.000000 0.297537
34  4.220532 -0.244853 0.431464  0.007692 -0.025127 -0.199946
35  1.350414 0.000000 -0.000008  -0.000000 -0.000000 0.515729
36  1.350405 -0.000002 0.000002  -0.000000 0.000000 0.515702
37  4.262823 -0.232721 -1.392181  -0.017460 0.076525 -0.187339
38  2.110543 -0.000001 -0.000000  0.053370 -0.048560 0.070791
39  0.891933 2.373045 -0.014527  -3.141592 -0.000001 1.413797
40  7.228120 5.709445 3.726568  3.140796 -1.570796 0.000000
41  2.450421 5.076127 0.001325  3.140791 -1.570796 0.000000
42  6.312400 -4.528058 0.001311  3.140791 -1.570796 0.000000
43  2.233310 1.152534 -7.309137  -1.147425 -1.562088 -0.850940
44  3.061500 2.842763 2.243589  0.000000 -0.000000 1.570796
time 17
0  0.879897 6.791367 38.290054  0.000000 -0.000000 -1.621658
1  -0.964547 -0.226569 0.000004  -0.000030 -1.645341 -1.570772
2  -0.000010 0.000008 4.427393  -0.152258 -3.025251 -0.106040
3  18.465944 0.000001 0.000000  0.000000 -0.000000 -0.570229
4  14.875444 -0.000002 0.000001  0.092060 -0.017022 0.442562
5  0.000013 -0.000004 -4.427392  0.133331 -3.095438 -0.312823
6  18.465940 -0.000002 0.000000  -0.000000 0.000000 -0.243173
7  14.875443 0.000000 0.000000  0.080727 -0.010485 -0.070190
8  2.251308 -0.007575 -0.167971  0.073495 0.052651 0.066243
9  9.514217 -0.009356 -0.000000  -0.008667 0.001142 0.004135
10  11.752198 -0.001494 -0.000000  0.000024 0.043599 0.563236
11  -1.994606 1.097986 2.567698  0.009228 -1.242849 2.568391
12  4.640942 -0.000000 -0.000004  1.248293 0.565938 0.851554
13  10.828053 0.000000 -0.000001  -0.000000 -0.000000 -1.505464
14  9.393330 -0.000004 -0.000003  -1.893929 -0.439146 0.089271
15  1.442240 0.107456 -1.746176  1.896585 0.451685 0.762087
16  1.063446 -0.000001 -0.000002  -0.000000 -0.000000 0.199056
17  1.376309 -0.000005 0.000005  0.000000 -0.000000 0.199049
18  4.172848 -0.251369 -1.312747  0.008050 0.095731 0.148659
19  1.215371 -0.000001 -0.000005  -0.000000 -0.000000 0.645758
20  1.215367 0.000001 -0.000000  0.000000 -0.000000 0.645758
21  4.220532 -0.244854 -0.431461  0.001333 0.026242 0.148339
22  1.350419 0.000004 0.000005  0.000000 -0.000000 0.863926
23  1.350408 -0.000007 -0.000001  0.000000 0.000000 0.863926
24  -1.764130 1.097997 -2.727849  -0.206995 1.327642 2.377888
25  4.640943 0.000001 0.000000  -1.090346 -0.749191 0.828415
26  10.828043 0.000000 -0.000003  0.000000 0.000000 -1.164097
27  9.393337 0.000002 -0.000001  2.108885 -0.155866 0.399844
28  1.442245 0.107454 1.746179  -1.497027 -0.810531 0.067189
29  1.063451 -0.000003 0.000000  0.000000 -0.000000 0.199056
30  1.376305 0.000002 -0.000002  -0.000000 -0.000000 0.199059
31  4.172852 -0.251365 1.312744  0.026382 -0.092388 -0.213992
32  1.215374 0.000001 -0.000003  0.000000 -0.000000 0.284653
33  1.215368 0.000001 0.000004  0.000000 -0.000000 0.284653
34  4.220534 -0.244853 0.431465  0.008015 -0.025020 -0.212838
35  1.350416 0.000000 -0.000011  -0.000000 -0.000000 0.502845
36  1.350407 -0.000002 0.000003  0.000000 0.000000 0.502821
37  4.262830 -0.232721 -1.392180  -0.018706 0.076237 -0.203696
38  2.110532 0.000004 -0.000000  0.050028 -0.046064 0.085670
39  0.891932 2.373048 -0.014527  -3.141592 -0.000001 1.413797
40  7.228121 5.709445 3.726567  3.140796 -1.570796 0.000000
41  2.450430 5.076127 0.001325  3.140791 -1.570796 0.000000
42  6.312406 -4.528059 0.001311  3.140791 -1.570796 0.000000
43  2.233310 1.152535 -7.309138  -1.168227 -1.479198 -0.767455
44  3.061500 2.842763 2.243589  0.000000 -0.000000 1.570796
time 18
0  0.993182 6.791367 38.321568  0.000000 -0.000000 -1.632396
1  -0.886420 -0.222663 0.000004  -0.000030 -1.692897 -1.570772
2  -0.000007 0.000009 4.427393  -0.146605 -2.980465 -0.117192
3  18.465944 0.000001 -0.000001  -0.000000 0.000000 -0.604297
4  14.875445 -0.000002 0.000001  0.081999 -0.013127 0.466738
5  0.000012 -0.000004 -4.427393  0.139656 -3.040528 -0.229625
6  18.465935 -0.000001 -0.000000  -0.000000 -0.000000 -0.057881
7  14.875443 -0.000000 0.000001  0.069602 -0.008090 -0.171150
8  2.239587 -0.007575 -0.273443  0.079866 0.100335 0.061743
9  9.514219 -0.009356 -0.000000  -0.008667 0.001223 -0.002858
10  11.752197 -0.001494 0.000000  0.000024 0.043599 0.551480
11  -2.006315 1.074538 2.567696  0.010371 -1.237560 2.578922
12  4.640944 0.000001 0.000002  1.241278 0.552084 0.844003
13  10.828045 -0.000002 -0.000000  -0.000000 -0.000000 -1.488991
14  9.393328 -0.000001 -0.000003  -1.893929 -0.439146 0.089271
15  1.442237 0.107454 -1.746174  1.896585 0.451685 0.762087
16  1.063447 0.000001 -0.000001  -0.000000 -0.000000 0.199056
17  1.376312 -0.000000 0.000005  0.000000 -0.000000 0.199049
18  4.172846 -0.251369 -1.312747  0.008050 0.095731 0.148659
19  1.215376 -0.000002 -0.000001  -0.000000 -0.000000 0.645758
20  1.215374 -0.000001 0.000003  -0.000000 0.000000 0.645758
21  4.220531 -0.244857 -0.431460  0.001333 0.026242 0.148339
22  1.350419 0.000002 0.000004  0.000000 0.000000 0.863926
23  1.350406 -0.000004 -0.000004  -0.000000 0.000000 0.863926
24  -1.779747 1.074554 -2.727851  -0.202551 1.324495 2.394041
25  4.640942 0.000001 -0.000002  -1.110202 -0.726387 0.855012
26  10.828053 0.000000 -0.000005  0.000000 0.000000 -1.203768
27  9.393331 0.000002 0.000001  2.104193 -0.112012 0.374772
28  1.442245 0.107452 1.746179  -1.517938 -0.789969 0.093503
29  1.063452 -0.000005 0.000002  0.000000 0.000000 0.199056
30  1.376305 0.000004 -0.000001  -0.000000 0.000000 0.199059
31  4.172844 -0.251365 1.312744  0.023637 -0.093119 -0.184379
32  1.215375 0.000002 -0.000004  -0.000000 -0.000000 0.314156
33  1.215372 -0.000001 0.000003  0.000000 0.000000 0.314156
34  4.220536 -0.244853 0.431465  0.007272 -0.025247 -0.183331
35  1.350412 -0.000001 -0.000011  -0.000000 -0.000000 0.532306
36  1.350410 0.000000 0.000003  -0.000000 0.000000 0.532305
37  4.262829 -0.232722 -1.392178  -0.015854 0.076872 -0.166364
38  2.110538 0.000004 -0.000000  0.046480 -0.043328 0.099514
39  0.891926 2.373053 -0.014527  -3.141592 -0.000001 1.413797
40  7.228120 5.709445 3.726568  3.140796 -1.570796 0.000000
41  2.450429 5.076127 0.001325  3.140791 -1.570796 0.000000
42  6.312406 -4.528058 0.001311  3.140791 -1.570796 0.000000
43  2.233308 1.152536 -7.309138  -1.201591 -1.422492 -0.682150
44  3.061500 2.842763 2.243589  0.000000 -0.000000 1.570796
time 19
0  1.028339 6.791367 38.510647  0.000000 -0.000000 -1.641792
1  -0.800478 -0.218757 0.000000  -0.000030 -1.637006 -1.570772
2  -0.000013 0.000009 4.427393  -0.158677 -3.046461 -0.070297
3  18.465942 0.000000 -0.000001  -0.000000 -0.000000 -0.503116
4  14.875446 -0.000003 0.000000  0.073004 -0.010041 0.412381
5  0.000010 -0.000003 -4.427393  0.128443 -3.098021 -0.260508
6  18.465940 -0.000000 -0.000001  -0.000000 -0.000000 -0.131329
7  14.875441 0.000000 -0.000001  0.060336 -0.009060 -0.129655
8  2.251303 -0.007575 -0.148439  0.080035 0.044776 0.056449
9  9.514216 -0.009356 -0.000000  -0.008704 0.001317 -0.010305
10  11.752186 -0.001495 0.000000  0.000024 0.043599 0.539408
11  -2.018043 1.055010 2.567697  -0.012686 -1.306054 2.613291
12  4.640944 -0.000000 0.000003  1.334089 0.591987 0.880179
13  10.828047 -0.000005 -0.000002  -0.000000 -0.000000 -1.489235
14  9.393333 -0.000006 -0.000002  -1.896878 -0.457103 0.096011
15  1.442241 0.107456 -1.746172  1.902996 0.447154 0.776824
16  1.063447 -0.000004 -0.000002  -0.000000 0.000000 0.199056
17  1.376307 0.000003 0.000004  0.000000 -0.000000 0.199049
18  4.172855 -0.251368 -1.312741  0.008050 0.095731 0.148659
19  1.215383 -0.000002 0.000004  0.000000 -0.000000 0.645758
20  1.215373 -0.000002 -0.000003  -0.000000 -0.000000 0.645758
21  4.220539 -0.244854 -0.431456  0.001333 0.026242 0.148339
22  1.350422 0.000003 0.000003  0.000000 0.000000 0.863926
23  1.350409 -0.000008 -0.000003  0.000000 0.000000 0.863926
24  -1.791470 1.055021 -2.727851  -0.177280 1.324495 2.430534
25  4.640940 0.000000 -0.000005  -1.107245 -0.741102 0.839054
26  10.828051 0.000001 -0.000004  0.000000 0.000000 -1.162746
27  9.393334 0.000000 0.000001  2.110210 -0.120373 0.384762
28  1.442243 0.107452 1.746179  -1.511392 -0.796542 0.085212
29  1.063448 -0.000002 0.000001  0.000000 -0.000000 0.199056
30  1.376298 0.000004 -0.000001  0.000000 -0.000000 0.199059
31  4.172843 -0.251366 1.312744  0.024512 -0.092891 -0.193836
32  1.215373 0.000002 -0.000004  0.000000 -0.000000 0.304756
33  1.215374 -0.000000 0.000003  0.000000 0.000000 0.304756
34  4.220536 -0.244854 0.431465  0.007512 -0.025175 -0.192739
35  1.350417 0.000001 -0.000010  0.000000 -0.000000 0.522905
36  1.350416 -0.000002 0.000003  -0.000000 0.000000 0.522906
37  4.262829 -0.232721 -1.392179  -0.016765 0.076680 -0.178225
38  2.110536 0.000000 -0.000000  0.042778 -0.040351 0.112086
39  0.891925 2.373047 -0.014527  -3.141592 -0.000001 1.413797
40  7.228111 5.709444 3.726568  3.140796 -1.570796 0.000000
41  2.450429 5.076127 0.001325  3.140791 -1.570796 0.000000
42  6.312404 -4.528057 0.001311  3.140791 -1.570796 0.000000
43  2.233302 1.152536 -7.309138  -1.180691 -1.474830 -0.738446
44  3.061500 2.842763 2.243589  0.000000 -0.000000 1.570796
time 20
0  1.036152 6.791367 38.715485  0.000000 -0.000000 -1.649366
1  -0.710632 -0.210944 0.000008  -1.570795 -1.570451 -0.000000
2  -0.000002 0.000009 4.427393  -0.165096 -3.124672 -0.006532
3  18.465942 -0.000000 0.000000  0.000000 0.000000 -0.360996
4  14.875443 -0.000003 0.000000  0.065716 -0.008529 0.334836
5  0.000009 -0.000004 -4.427392  0.110808 3.118679 -0.292983
6  18.465939 -0.000001 0.000000  0.000000 -0.000000 -0.206942
7  14.875441 0.000000 -0.000000  0.053001 -0.010121 -0.086773
8  2.255214 -0.007575 0.000003  0.080499 -0.021074 0.051155
9  9.514212 -0.009354 0.000000  -0.008704 0.001411 -0.018076
10  11.752192 -0.001494 0.000000  0.000024 0.043599 0.527218
11  -2.029763 1.031572 2.563789  0.013515 -1.245719 2.600176
12  4.640940 0.000000 0.000008  1.294047 0.502945 0.885623
13  10.828048 -0.000003 0.000000  0.000000 -0.000000 -1.582034
14  9.393333 -0.000000 -0.000002  -1.893929 -0.439146 0.089271
15  1.442245 0.107454 -1.746178  1.896585 0.451685 0.762087
16  1.063446 -0.000002 -0.000002  -0.000000 0.000000 0.199056
17  1.376312 -0.000003 0.000006  -0.000000 -0.000000 0.199049
18  4.172853 -0.251371 -1.312748  0.008050 0.095731 0.148659
19  1.215377 -0.000002 -0.000002  -0.000000 -0.000000 0.645758
20  1.215373 -0.000001 -0.000000  -0.000000 0.000000 0.645758
21  4.220540 -0.244856 -0.431462  0.001333 0.026242 0.148339
22  1.350419 0.000003 0.000002  0.000000 -0.000000 0.863926
23  1.350410 -0.000006 -0.000005  -0.000000 0.000000 0.863926
24  -1.803185 1.031584 -2.727850  -0.206531 1.333815 2.414040
25  4.640942 -0.000000 -0.000000  -1.092797 -0.780713 0.829465
26  10.828045 -0.000002 -0.000001  0.000000 0.000000 -1.092727
27  9.393337 0.000001 0.000000  2.104193 -0.112012 0.374772
28  1.442247 0.107454 1.746180  -1.517938 -0.789969 0.093503
29  1.063449 -0.000005 0.000000  0.000000 -0.000000 0.199056
30  1.376308 0.000003 -0.000001  0.000000 0.000000 0.199059
31  4.172848 -0.251364 1.312744  0.023637 -0.093119 -0.184379
32  1.215380 0.000001 -0.000004  -0.000000 -0.000000 0.314156
33  1.215372 -0.000001 0.000004  0.000000 0.000000 0.314156
34  4.220540 -0.244853 0.431465  0.007272 -0.025247 -0.183331
35  1.350415 0.000001 -0.000010  -0.000000 -0.000000 0.532306
36  1.350407 -0.000001 0.000002  -0.000000 0.000000 0.532305
37  4.262830 -0.232722 -1.392179  -0.015854 0.076872 -0.166364
38  2.110538 0.000001 0.000000  0.038922 -0.037254 0.123057
39  0.891929 2.373047 -0.014527  -3.141592 -0.000001 1.413797
40  7.228113 5.709444 3.726568  3.140796 -1.570796 0.000000
41  2.450424 5.076128 0.001325  3.140791 -1.570796 0.000000
42  6.312404 -4.528057 0.001311  3.140791 -1.570796 0.000000
43  2.233310 1.152535 -7.309138  -1.182416 -1.542720 -0.746009
44  3.061500 2.842763 2.243589  0.000000 -0.000000 1.570796
time 21
0  1.083028 6.791367 38.746998  0.000000 -0.000000 -1.655215
1  -0.620786 -0.207038 0.000008  -0.000031 -1.562561 -1.570772
2  -0.000006 0.000008 4.427393  -0.165767 -3.137644 0.009672
3  18.465939 0.000000 -0.000001  -0.000000 0.000000 -0.330948
4  14.875443 -0.000002 0.000001  0.060312 -0.006508 0.321484
5  0.000006 -0.000004 -4.427392  0.108220 3.109687 -0.295416
6  18.465939 -0.000000 -0.000000  -0.000000 0.000000 -0.216131
7  14.875443 0.000000 0.000001  0.047000 -0.009302 -0.080095
8  2.255208 -0.007575 0.015628  0.084423 -0.029028 0.045729
9  9.514215 -0.009355 0.000000  -0.008704 0.001505 -0.026108
10  11.752194 -0.001495 -0.000000  0.000024 0.043599 0.515146
11  -2.045382 1.008134 2.563791  0.157572 -1.272915 2.472655
12  4.640942 0.000000 -0.000000  1.244754 0.604831 0.917175
13  10.828050 -0.000005 -0.000001  -0.000000 -0.000000 -1.405953
14  9.393337 -0.000001 -0.000006  -1.885176 -0.338510 0.053421
15  1.442236 0.107454 -1.746179  1.859444 0.475274 0.679026
16  1.063448 -0.000003 -0.000002  -0.000000 -0.000000 0.199056
17  1.376308 -0.000001 0.000005  0.000000 -0.000000 0.199049
18  4.172844 -0.251370 -1.312751  0.008050 0.095731 0.148659
19  1.215377 -0.000002 -0.000002  -0.000000 -0.000000 0.645758
20  1.215371 0.000001 -0.000001  0.000000 0.000000 0.645758
21  4.220531 -0.244856 -0.431464  0.001333 0.026242 0.148339
22  1.350413 0.000003 0.000002  0.000000 -0.000000 0.863926
23  1.350406 -0.000004 -0.000003  -0.000000 0.000000 0.863926
24  -1.814903 1.008146 -2.727850  -0.371211 1.355180 2.264818
25  4.640940 -0.000001 -0.000002  -1.068717 -0.849058 0.852213
26  10.828042 0.000007 -0.000003  0.000000 0.000000 -1.006054
27  9.393333 0.000002 0.000001  2.075325 -0.050231 0.313571
28  1.442237 0.107454 1.746179  -1.556759 -0.747440 0.143143
29  1.063448 -0.000008 -0.000000  0.000000 -0.000000 0.199056
30  1.376303 0.000006 0.000001  -0.000000 0.000000 0.199059
31  4.172840 -0.251365 1.312743  0.018040 -0.094365 -0.124632
32  1.215368 0.000000 -0.000001  -0.000000 0.000000 0.373625
33  1.215370 0.000002 0.000004  0.000000 -0.000000 0.373625
34  4.220533 -0.244852 0.431464  0.005762 -0.025631 -0.123835
35  1.350408 -0.000000 -0.000010  -0.000000 -0.000000 0.591817
36  1.350410 -0.000002 0.000004  -0.000000 0.000000 0.591797
37  4.262823 -0.232720 -1.392179  -0.010030 0.077855 -0.090984
38  2.110535 0.000005 -0.000000  0.034963 -0.034067 0.132192
39  0.891928 2.373050 -0.014527  -3.141592 -0.000001 1.413797
40  7.228119 5.709444 3.726568  3.140796 -1.570796 0.000000
41  2.450432 5.076128 0.001325  3.140791 -1.570796 0.000000
42  6.312407 -4.528056 0.001311  3.140791 -1.570796 0.000000
43  2.233304 1.152534 -7.309138  -1.185965 -1.554107 -0.748020
44  3.061500 2.842763 2.243589  0.000000 -0.000000 1.570796
time 22
0  1.133811 6.791367 38.762756  0.000000 -0.000000 -1.660104
1  -0.527033 -0.199225 0.000000  -0.000030 -1.557775 -1.570772
2  -0.000007 0.000008 4.427393  -0.166054 3.136546 0.022635
3  18.465939 0.000001 -0.000000  -0.000000 0.000000 -0.308212
4  14.875443 -0.000002 0.000001  0.055833 -0.004613 0.312240
5  0.000009 -0.000005 -4.427393  0.106687 3.103947 -0.296539
6  18.465942 -0.000001 -0.000000  -0.000000 0.000000 -0.222891
7  14.875444 0.000000 0.000000  0.041946 -0.008241 -0.074542
8  2.255215 -0.007575 0.027348  0.088643 -0.033505 0.040203
9  9.514214 -0.009355 -0.000000  -0.008704 0.001613 -0.034313
10  11.752197 -0.001494 0.000000  0.000024 0.043599 0.503508
11  -2.057101 0.984696 2.563791  0.368037 -1.302025 2.277259
12  4.640942 -0.000000 0.000001  1.191240 0.730241 0.954405
13  10.828054 -0.000004 -0.000000  0.000000 0.000000 -1.189909
14  9.393337 -0.000002 -0.000003  -1.883979 -0.221254 0.013859
15  1.442239 0.107455 -1.746175  1.813280 0.498974 0.580489
16  1.063447 -0.000000 -0.000000  -0.000000 -0.000000 0.199056
17  1.376310 -0.000001 0.000005  0.000000 -0.000000 0.199049
18  4.172851 -0.251368 -1.312744  0.008050 0.095731 0.148659
19  1.215375 -0.000001 -0.000001  -0.000000 -0.000000 0.645758
20  1.215370 0.000001 -0.000004  -0.000000 -0.000000 0.645758
21  4.220534 -0.244855 -0.431462  0.001333 0.026242 0.148339
22  1.350416 0.000003 0.000000  0.000000 -0.000000 0.863926
23  1.350411 -0.000005 -0.000001  -0.000000 0.000000 0.863926
24  -1.826623 0.984708 -2.731757  -0.624199 1.370462 2.026628
25  4.640939 0.000000 -0.000002  -1.042355 -0.926468 0.888469
26  10.828050 -0.000002 -0.000003  0.000000 -0.000000 -0.912373
27  9.393327 0.000000 -0.000000  2.037239 0.027393 0.233942
28  1.442246 0.107454 1.746179  -1.599671 -0.691710 0.200354
29  1.063450 -0.000003 -0.000000  0.000000 -0.000000 0.199056
30  1.376306 0.000008 -0.000001  -0.000000 0.000000 0.199059
31  4.172850 -0.251364 1.312743  0.010862 -0.095456 -0.048896
32  1.215374 0.000002 -0.000003  -0.000000 -0.000000 0.449042
33  1.215377 -0.000001 0.000006  0.000000 0.000000 0.449042
34  4.220541 -0.244852 0.431463  0.003809 -0.025990 -0.048405
35  1.350413 -0.000000 -0.000010  -0.000000 -0.000000 0.667233
36  1.350406 -0.000001 0.000003  -0.000000 0.000000 0.667224
37  4.262823 -0.232722 -1.392179  -0.002563 0.078454 0.004574
38  2.110538 0.000003 -0.000000  0.030952 -0.030879 0.139255
39  0.891933 2.373046 -0.014527  -3.141592 -0.000001 1.413797
40  7.228122 5.709445 3.726568  3.140796 -1.570796 0.000000
41  2.450422 5.076128 0.001325  3.140791 -1.570796 0.000000
42  6.312405 -4.528058 0.001311  3.140791 -1.570796 0.000000
43  2.233304 1.152534 -7.309138  -1.195264 -1.561505 -0.743615
44  3.061500 2.842763 2.243589  0.000000 -0.000000 1.570796
time 23
0  1.184594 6.791367 38.778515  0.000000 -0.000000 -1.664227
1  -0.433280 -0.191412 0.000004  -0.000030 -1.555835 -1.570772
2  -0.000005 0.000008 4.427392  -0.166342 3.131054 0.032357
3  18.465946 0.000001 0.000001  0.000000 0.000000 -0.293079
4  14.875448 0.000001 0.000001  0.052029 -0.002783 0.307223
5  0.000000 -0.000004 -4.427392  0.105920 3.100791 -0.297101
6  18.465940 -0.000002 -0.000000  0.000000 -0.000000 -0.228536
7  14.875443 0.000000 0.000000  0.037559 -0.007029 -0.069515
8  2.255207 -0.007575 0.031254  0.093115 -0.035096 0.034612
9  9.514217 -0.009356 -0.000000  -0.008704 0.001707 -0.042604
10  11.752189 -0.001494 -0.000000  0.000024 0.043599 0.492501
11  -2.064919 0.961260 2.563791  0.620900 -1.320408 2.036292
12  4.640944 0.000000 0.000002  1.134932 0.857310 0.989411
13  10.828047 -0.000006 -0.000000  -0.000000 -0.000000 -0.965139
14  9.393341 -0.000000 -0.000002  -1.884992 -0.103884 -0.024531
15  1.442244 0.107455 -1.746176  1.763927 0.518562 0.479242
16  1.063448 -0.000002 -0.000000  -0.000000 -0.000000 0.199056
17  1.376308 0.000002 0.000006  0.000000 -0.000000 0.199049
18  4.172853 -0.251369 -1.312748  0.008050 0.095731 0.148659
19  1.215371 -0.000001 -0.000000  -0.000000 -0.000000 0.645758
20  1.215369 0.000003 -0.000001  -0.000000 0.000000 0.645758
21  4.220535 -0.244855 -0.431463  0.001333 0.026242 0.148339
22  1.350426 0.000002 0.000002  0.000000 -0.000000 0.863926
23  1.350405 -0.000007 -0.000004  0.000000 0.000000 0.863926
24  -1.838345 0.961273 -2.731757  -0.905514 1.371763 1.758099
25  4.640942 0.000000 0.000001  -1.015318 -1.002554 0.927526
26  10.828049 0.000001 -0.000002  0.000000 0.000000 -0.815863
27  9.393335 0.000000 -0.000002  1.987672 0.103130 0.146844
28  1.442240 0.107452 1.746179  -1.638401 -0.631653 0.254269
29  1.063454 -0.000004 -0.000001  0.000000 -0.000000 0.199056
30  1.376306 0.000008 -0.000001  -0.000000 -0.000000 0.199059
31  4.172848 -0.251365 1.312742  0.003287 -0.096007 0.030287
32  1.215376 0.000002 -0.000005  0.000000 0.000000 0.527900
33  1.215366 0.000000 0.000004  -0.000000 -0.000000 0.527900
34  4.220532 -0.244854 0.431465  0.001747 -0.026218 0.030469
35  1.350416 -0.000000 -0.000009  0.000000 -0.000000 0.746049
36  1.350411 0.000000 0.000003  0.000000 0.000000 0.746038
37  4.262823 -0.232722 -1.392179  0.005251 0.078322 0.104431
38  2.110528 0.000008 -0.000000  0.026839 -0.027722 0.143963
39  0.891924 2.373047 -0.014527  -3.141592 -0.000001 1.413797
40  7.228112 5.709445 3.726568  3.140796 -1.570796 0.000000
41  2.450430 5.076128 0.001325  3.140791 -1.570796 0.000000
42  6.312411 -4.528057 0.001311  3.140791 -1.570796 0.000000
43  2.233299 1.152535 -7.309138  -1.219232 -1.565874 -0.724372
44  3.061500 2.842763 2.243589  0.000000 -0.000000 1.570796
time 24
0  1.235377 6.791367 38.778515  0.000000 -0.000000 -1.667966
1  -0.339527 -0.183599 0.000004  -0.000030 -1.556151 -1.570772
2  -0.000003 0.000009 4.427393  -0.166629 3.128308 0.038743
3  18.465937 0.000001 -0.000000  0.000000 -0.000000 -0.285549
4  14.875444 -0.000003 0.000001  0.048687 -0.000931 0.306433
5  0.000009 -0.000005 -4.427392  0.105824 3.099643 -0.297381
6  18.465940 -0.000001 0.000000  -0.000000 0.000000 -0.233984
7  14.875442 0.000000 0.000000  0.033558 -0.005634 -0.064525
8  2.255219 -0.007575 0.031254  0.097630 -0.034428 0.028987
9  9.514209 -0.009356 -0.000000  -0.008704 0.001814 -0.050895
10  11.752192 -0.001495 -0.000000  0.000024 0.043599 0.482401
11  -2.076636 0.941723 2.563790  0.853850 -1.324890 1.812174
12  4.640943 0.000001 -0.000002  1.075955 0.967206 1.011480
13  10.828049 0.000000 0.000000  -0.000000 -0.000000 -0.763006
14  9.393338 -0.000000 -0.000002  -1.881030 -0.002407 -0.055838
15  1.442243 0.107455 -1.746176  1.718877 0.531957 0.389449
16  1.063451 0.000001 -0.000000  -0.000000 -0.000000 0.199056
17  1.376309 -0.000003 0.000005  0.000000 -0.000000 0.199049
18  4.172846 -0.251369 -1.312747  0.008050 0.095731 0.148659
19  1.215375 -0.000003 -0.000000  -0.000000 -0.000000 0.645758
20  1.215373 0.000000 -0.000001  0.000000 0.000000 0.645758
21  4.220534 -0.244856 -0.431464  0.001333 0.026242 0.148339
22  1.350420 0.000002 -0.000001  0.000000 -0.000000 0.863926
23  1.350407 -0.000003 -0.000005  0.000000 0.000000 0.863926
24  -1.850071 0.941741 -2.731757  -1.133139 1.363108 1.540591
25  4.640942 0.000000 -0.000000  -0.798639 -1.067601 0.728169
26  10.828043 -0.000001 -0.000004  0.020641 -0.068297 -0.734191
27  9.393332 0.000001 0.000002  1.881313 0.090607 0.109702
28  1.442241 0.107452 1.746180  -1.668131 -0.577270 0.297782
29  1.063447 -0.000007 0.000000  0.000000 -0.000000 0.199056
30  1.376307 0.000007 -0.000003  -0.000000 0.000000 0.199059
31  4.172844 -0.251366 1.312743  -0.003412 -0.096007 0.100292
32  1.215373 0.000001 -0.000003  0.000000 -0.000000 0.597608
33  1.215373 0.000001 0.000006  0.000000 -0.000000 0.597608
34  4.220539 -0.244853 0.431464  -0.000062 -0.026266 0.100174
35  1.350417 -0.000000 -0.000010  -0.000000 -0.000000 0.815800
36  1.350405 -0.000001 0.000002  0.000000 0.000000 0.815787
37  4.262825 -0.232720 -1.392179  0.012142 0.077555 0.192786
38  2.110531 0.000003 -0.000000  0.022726 -0.024655 0.146082
39  0.891930 2.373045 -0.014527  -3.141592 -0.000001 1.413797
40  7.228121 5.709445 3.726568  3.140796 -1.570796 0.000000
41  2.450423 5.076127 0.001325  3.140791 -1.570796 0.000000
42  6.312403 -4.528057 0.001311  3.140791 -1.570796 0.000000
43  2.233307 1.152534 -7.309138  -1.269461 -1.568233 -0.679186
44  3.061500 2.842763 2.243589  0.000000 -0.000000 1.570796
time 25
0  1.293972 6.791367 38.762756  0.000000 -0.000000 -1.671610
1  -0.245775 -0.171880 0.000011  -0.000030 -1.558077 -1.570772
2  -0.000003 0.000009 4.427393  -0.167012 3.127646 0.042174
3  18.465940 0.000001 -0.000001  0.000000 -0.000000 -0.284818
4  14.875446 -0.000002 0.000001  0.045487 0.001006 0.309475
5  0.000010 -0.000004 -4.427392  0.106208 3.099930 -0.298130
6  18.465939 -0.000001 -0.000001  -0.000000 -0.000000 -0.240285
7  14.875444 0.000000 0.000000  0.029697 -0.004149 -0.059160
8  2.255220 -0.007575 0.027348  0.102144 -0.032130 0.023461
9  9.514212 -0.009356 0.000000  -0.008742 0.001908 -0.059100
10  11.752190 -0.001494 -0.000000  0.000024 0.043599 0.473486
11  -2.084457 0.930006 2.563792  1.000384 -1.324236 1.672495
12  4.640942 0.000001 0.000003  1.004810 1.054828 0.908528
13  10.828044 -0.000005 -0.000001  -0.000461 -0.005150 -0.712788
14  9.393333 -0.000003 -0.000001  -2.064310 0.001970 -0.047622
15  1.442241 0.107454 -1.746179  1.686435 0.539209 0.325885
16  1.063446 -0.000003 0.000000  -0.000000 -0.000000 0.199056
17  1.376309 -0.000000 0.000003  0.000000 -0.000000 0.199049
18  4.172852 -0.251370 -1.312748  0.008050 0.095731 0.148659
19  1.215371 -0.000004 -0.000003  0.000000 -0.000000 0.645758
20  1.215370 0.000003 0.000001  0.000000 0.000000 0.645758
21  4.220534 -0.244857 -0.431464  0.001333 0.026242 0.148339
22  1.350424 0.000002 -0.000001  -0.000000 -0.000000 0.863926
23  1.350408 -0.000006 -0.000004  -0.000000 0.000000 0.863926
24  -1.857885 0.930020 -2.731757  -1.265419 1.357752 1.416154
25  4.640942 -0.000000 -0.000004  -0.382177 -1.118141 0.298687
26  10.828045 0.000000 -0.000004  0.073870 -0.244429 -0.670458
27  9.393342 0.000002 0.000000  1.725301 0.058653 0.083296
28  1.442237 0.107453 1.746180  -1.686405 -0.539236 0.325898
29  1.063450 -0.000011 0.000001  0.000000 -0.000000 0.199056
30  1.376306 0.000006 -0.000001  -0.000000 -0.000000 0.199059
31  4.172840 -0.251365 1.312744  -0.008050 -0.095731 0.148659
32  1.215373 0.000002 -0.000002  0.000000 0.000000 0.645746
33  1.215369 0.000005 0.000008  0.000000 -0.000000 0.645746
34  4.220531 -0.244853 0.431465  -0.001333 -0.026242 0.148339
35  1.350419 -0.000001 -0.000013  -0.000000 -0.000000 0.863937
36  1.350408 -0.000006 0.000002  0.000000 0.000000 0.863925
37  4.262818 -0.232721 -1.392177  0.016840 0.076668 0.253759
38  2.110526 0.000002 -0.000000  0.018664 -0.021739 0.145376
39  0.891931 2.373044 -0.014527  -3.141592 -0.000001 1.413797
40  7.228116 5.709445 3.726568  3.140796 -1.570796 0.000000
41  2.450427 5.076127 0.001325  3.140791 -1.570796 0.000000
42  6.312407 -4.528058 0.001311  3.140791 -1.570796 0.000000
43  2.233307 1.152536 -7.309138  -1.355957 -1.569515 -0.598363
44  3.061500 2.842763 2.243589  0.000000 -0.000000 1.570796
time 26
0  1.352568 6.791367 38.746998  0.000000 -0.000000 -1.675349
1  -0.159834 -0.164068 0.000004  -0.000030 -1.561038 -1.570772
2  -0.000006 0.000008 4.427393  -0.167396 3.128308 0.043127
3  18.465937 0.000000 -0.000001  -0.000000 -0.000000 -0.289643
4  14.875443 -0.000001 0.000001  0.042181 0.003070 0.315637
5  0.000008 -0.000004 -4.427392  0.106783 3.101078 -0.299721
6  18.465940 -0.000002 -0.000000  -0.000000 -0.000000 -0.248096
7  14.875446 0.000000 0.000000  0.025697 -0.002603 -0.053007
8  2.255209 -0.007575 0.019535  0.106574 -0.028772 0.018035
9  9.514209 -0.009356 -0.000000  -0.008742 0.002003 -0.067153
10  11.752192 -0.001494 -0.000000  0.000024 0.043599 0.465753
11  -2.092269 0.914379 2.563790  1.042305 -1.330506 1.636977
12  4.640941 0.000001 0.000000  0.854793 1.145493 0.713284
13  10.828055 -0.000004 -0.000002  -0.001612 -0.018022 -0.679125
14  9.393338 -0.000004 0.000001  -2.520617 0.004909 -0.027094
15  1.442240 0.107454 -1.746178  1.671442 0.541930 0.296761
16  1.063448 0.000003 -0.000002  0.000000 -0.000000 0.199056
17  1.376308 -0.000006 0.000007  -0.000000 -0.000000 0.199049
18  4.172852 -0.251369 -1.312747  0.008050 0.095731 0.148659
19  1.215370 -0.000001 -0.000001  0.000000 -0.000000 0.645758
20  1.215369 -0.000000 -0.000001  -0.000000 -0.000000 0.645758
21  4.220533 -0.244856 -0.431465  0.001333 0.026242 0.148339
22  1.350419 0.000003 0.000002  0.000000 -0.000000 0.863926
23  1.350408 -0.000005 -0.000005  0.000000 0.000000 0.863926
24  -1.865692 0.914392 -2.731757  -1.306334 1.366195 1.381541
25  4.640940 -0.000001 -0.000007  0.129936 -1.070172 -0.238632
26  10.828049 -0.000000 0.000003  0.146652 -0.485263 -0.622706
27  9.393340 0.000001 0.000000  1.544477 0.015186 0.065694
28  1.442247 0.107453 1.746179  -1.693951 -0.522326 0.337793
29  1.063450 -0.000010 -0.000000  -0.000000 -0.000000 0.199056
30  1.376307 0.000001 0.000000  0.000000 0.000000 0.199059
31  4.172846 -0.251365 1.312745  -0.010076 -0.095540 0.169977
32  1.215374 0.000001 -0.000005  -0.000000 -0.000000 0.666982
33  1.215373 -0.000003 0.000003  0.000000 0.000000 0.666982
34  4.220537 -0.244854 0.431466  -0.001884 -0.026206 0.169558
35  1.350419 -0.000002 -0.000014  -0.000000 -0.000000 0.885131
36  1.350410 -0.000001 0.000001  -0.000000 0.000000 0.885155
37  4.262827 -0.232722 -1.392180  0.018889 0.076189 0.280623
38  2.110534 -0.000002 -0.000000  0.014962 -0.018762 0.122680
39  0.891931 2.373052 -0.014527  -3.141592 -0.000001 1.413797
40  7.228117 5.709445 3.726568  3.140796 -1.570796 0.000000
41  2.450421 5.076128 0.001325  3.140791 -1.570796 0.000000
42  6.312397 -4.528059 0.001311  3.140791 -1.570796 0.000000
43  2.233304 1.152535 -7.309137  -1.961093 -1.570796 0.000000
44  3.061500 2.842763 2.243589  0.000000 -0.000000 1.570796
time 27
0  1.415070 6.791367 38.731243  0.000000 -0.000000 -1.679471
1  -0.069988 -0.156255 0.000008  -0.000031 -1.564401 -1.570772
2  -0.000004 0.000009 4.427393  -0.167971 3.129445 0.042270
3  18.465942 0.000000 0.000000  0.000000 0.000000 -0.298635
4  14.875445 -0.000002 0.000000  0.038483 0.005326 0.324052
5  0.000009 -0.000004 -4.427392  0.107454 3.102321 -0.302529
6  18.465940 -0.000000 0.000000  -0.000000 -0.000000 -0.258401
7  14.875443 0.000000 0.000000  0.021309 -0.001027 -0.045766
8  2.255214 -0.007574 0.011722  0.110836 -0.025021 0.012774
9  9.514212 -0.009356 0.000000  -0.008742 0.002097 -0.074925
10  11.752193 -0.001495 0.000000  0.000024 0.043599 0.458928
11  -2.096167 0.898754 2.563791  1.009912 -1.345363 1.675655
12  4.640940 0.000001 0.000001  0.608617 1.213944 0.417346
13  10.828048 -0.000003 -0.000004  -0.003109 -0.034755 -0.658707
14  9.393335 -0.000005 0.000004  -3.113291 0.006703 -0.000410
15  1.442247 0.107453 -1.746174  1.669549 0.542237 0.293108
16  1.063448 -0.000006 -0.000003  0.000000 0.000000 0.199056
17  1.376312 -0.000001 0.000003  0.000000 -0.000000 0.199049
18  4.172853 -0.251370 -1.312744  0.008050 0.095731 0.148659
19  1.215374 -0.000001 -0.000002  -0.000000 -0.000000 0.645758
20  1.215371 -0.000002 0.000000  0.000000 0.000000 0.645758
21  4.220536 -0.244855 -0.431462  0.001333 0.026242 0.148339
22  1.350417 0.000003 0.000003  0.000000 -0.000000 0.863926
23  1.350409 -0.000005 -0.000005  0.000000 0.000000 0.863926
24  -1.869598 0.898769 -2.731758  -1.283284 1.386500 1.409830
25  4.640938 -0.000002 -0.000006  0.498737 -0.922865 -0.632566
26  10.828048 0.000001 0.000006  0.225951 -0.747664 -0.588974
27  9.393340 0.000006 0.000000  1.362632 -0.032024 0.054917
28  1.442246 0.107453 1.746178  -1.694860 -0.520191 0.339287
29  1.063453 -0.000001 0.000001  -0.000000 -0.000000 0.199056
30  1.376304 0.000008 -0.000000  -0.000000 0.000000 0.199059
31  4.172846 -0.251365 1.312743  -0.010339 -0.095516 0.172662
32  1.215375 0.000002 -0.000011  -0.000000 -0.000000 0.669626
33  1.215368 0.000000 0.000001  0.000000 0.000000 0.669626
34  4.220538 -0.244854 0.431462  -0.001956 -0.026206 0.172201
35  1.350412 0.000002 -0.000013  -0.000000 -0.000000 0.887775
36  1.350410 -0.000002 0.000008  0.000000 0.000000 0.887779
37  4.262826 -0.232722 -1.392179  0.019141 0.076129 0.284006
38  2.110534 0.000003 -0.000000  0.011774 -0.015785 0.068060
39  0.891937 2.373044 -0.014527  -3.141592 -0.000001 1.413797
40  7.228116 5.709444 3.726568  3.140796 -1.570796 0.000000
41  2.450426 5.076128 0.001325  3.140791 -1.570796 0.000000
42  6.312404 -4.528058 0.001311  3.140791 -1.570796 0.000000
43  2.233305 1.152535 -7.309137  -1.132277 -1.564796 -0.840983
44  3.061500 2.842763 2.243589  0.000000 -0.000000 1.570796
time 28
0  1.481478 6.791367 38.683971  0.000000 -0.000000 -1.684265
1  0.012046 -0.144536 0.000000  0.000017 -1.567534 -1.570772
2  -0.000004 0.000008 4.427392  -0.168545 3.130297 0.040173
3  18.465942 0.000001 0.000000  -0.000000 0.000000 -0.310040
4  14.875444 -0.000001 0.000001  0.034146 0.007838 0.333888
5  0.000010 -0.000005 -4.427392  0.108029 3.103278 -0.306927
6  18.465944 -0.000001 -0.000000  -0.000000 -0.000000 -0.271659
7  14.875442 0.000000 -0.000000  0.016221 0.000519 -0.037174
8  2.255208 -0.007575 0.003909  0.114844 -0.021447 0.007777
9  9.514215 -0.009356 0.000000  -0.008742 0.002191 -0.082372
10  11.752194 -0.001495 -0.000000  0.000024 0.043599 0.452616
11  -2.103982 0.887035 2.563791  0.922829 -1.364073 1.768901
12  4.640939 0.000001 0.000006  0.313405 1.241845 0.076416
13  10.828045 -0.000003 -0.000003  -0.004606 -0.051488 -0.648221
14  9.393337 -0.000006 0.000006  2.577441 0.007627 0.026275
15  1.442241 0.107452 -1.746178  1.675193 0.541277 0.304047
16  1.063449 -0.000001 -0.000003  -0.000000 0.000000 0.199056
17  1.376311 -0.000002 0.000009  0.000000 0.000000 0.199049
18  4.172853 -0.251374 -1.312748  0.008050 0.095731 0.148659
19  1.215372 0.000003 -0.000000  -0.000000 -0.000000 0.645758
20  1.215370 -0.000001 -0.000001  -0.000000 0.000000 0.645758
21  4.220533 -0.244857 -0.431464  0.001333 0.026242 0.148339
22  1.350419 0.000002 -0.000000  0.000000 -0.000000 0.863926
23  1.350408 -0.000005 -0.000004  0.000000 0.000000 0.863926
24  -1.877410 0.887049 -2.731758  -1.205712 1.413100 1.492133
25  4.640937 -0.000002 -0.000016  0.703667 -0.748480 -0.856489
26  10.828041 -0.000002 0.000011  0.298731 -0.988497 -0.567305
27  9.393345 0.000010 -0.000001  1.203267 -0.075285 0.049155
28  1.442243 0.107453 1.746180  -1.692042 -0.526539 0.334858
29  1.063451 -0.000010 0.000001  0.000000 -0.000000 0.199056
30  1.376304 0.000008 -0.000000  -0.000000 -0.000000 0.199059
31  4.172846 -0.251364 1.312743  -0.009572 -0.095588 0.164648
32  1.215371 0.000001 -0.000005  -0.000000 0.000000 0.661652
33  1.215373 0.000001 0.000010  0.000000 0.000000 0.661652
34  4.220534 -0.244854 0.431467  -0.001752 -0.026218 0.164273
35  1.350414 -0.000001 -0.000014  0.000000 0.000000 0.879843
36  1.350410 -0.000003 0.000004  -0.000000 0.000000 0.879812
37  4.262826 -0.232720 -1.392180  0.018374 0.076309 0.273897
38  2.110533 0.000002 -0.000000  0.008689 -0.013319 -0.005113
39  0.891928 2.373049 -0.014527  -3.141592 -0.000001 1.413797
40  7.228120 5.709444 3.726568  3.140796 -1.570796 0.000000
41  2.450431 5.076127 0.001325  3.140791 -1.570796 0.000000
42  6.312405 -4.528057 0.001311  3.140791 -1.570796 0.000000
43  2.233308 1.152535 -7.309137  -1.138987 -1.555738 -0.850269
44  3.061500 2.842763 2.243589  0.000000 -0.000000 1.570796
time 29
0  1.590856 6.791367 38.542160  0.000000 -0.000000 -1.692127
1  0.090173 -0.136723 0.000008  -1.570795 -1.569833 -0.000000
2  -0.000008 0.000008 4.427392  -0.169504 3.131149 0.022539
3  18.465939 0.000001 -0.000000  -0.000000 -0.000000 -0.358510
4  14.875442 -0.000001 0.000001  0.027071 0.012073 0.365135
5  0.000003 -0.000004 -4.427392  0.107454 3.100695 -0.331634
6  18.465942 -0.000002 -0.000000  -0.000000 -0.000000 -0.327385
7  14.875443 -0.000000 -0.000000  0.007973 0.002672 -0.006523
8  2.255209 -0.007575 0.000003  0.118599 -0.018717 0.003046
9  9.514219 -0.009356 0.000000  -0.008779 0.002271 -0.089386
10  11.752190 -0.001495 0.000000  0.000024 0.043599 0.446462
11  -2.107888 0.875313 2.563791  0.804782 -1.381574 1.892783
12  4.640939 0.000000 0.000007  0.086425 1.237722 -0.183938
13  10.828056 -0.000002 -0.000003  -0.005757 -0.064360 -0.644358
14  9.393338 -0.000008 0.000007  2.121786 0.007966 0.046801
15  1.442242 0.107457 -1.746177  1.682696 0.539923 0.318619
16  1.063448 0.000000 -0.000002  0.000000 -0.000000 0.199056
17  1.376309 -0.000001 0.000004  0.000000 -0.000000 0.199049
18  4.172853 -0.251370 -1.312748  0.008050 0.095731 0.148659
19  1.215373 0.000001 -0.000001  -0.000000 -0.000000 0.645758
20  1.215369 0.000006 0.000001  -0.000000 0.000000 0.645758
21  4.220536 -0.244853 -0.431464  0.001333 0.026242 0.148339
22  1.350415 0.000009 0.000000  0.000000 -0.000000 0.863926
23  1.350406 -0.000013 -0.000005  0.000000 0.000000 0.863926
24  -1.881322 0.875329 -2.731758  -1.081301 1.439639 1.620842
25  4.640936 -0.000003 -0.000014  0.807501 -0.610646 -0.971593
26  10.828047 0.000007 0.000007  0.351957 -1.164629 -0.555738
27  9.393345 0.000000 -0.000002  1.090032 -0.106909 0.046801
28  1.442244 0.107455 1.746179  -1.688314 -0.535023 0.328885
29  1.063452 -0.000004 0.000001  0.000000 -0.000000 0.199056
30  1.376306 0.000005 -0.000000  0.000000 0.000000 0.199059
31  4.172847 -0.251363 1.312741  -0.008553 -0.095683 0.153989
32  1.215376 0.000002 -0.000007  -0.000000 -0.000000 0.651076
33  1.215372 0.000001 0.000002  -0.000000 -0.000000 0.651076
34  4.220536 -0.244852 0.431463  -0.001465 -0.026230 0.153623
35  1.350413 -0.000001 -0.000014  -0.000000 -0.000000 0.869225
36  1.350409 -0.000000 -0.000000  0.000000 0.000000 0.869221
37  4.262824 -0.232720 -1.392176  0.017343 0.076548 0.260485
38  2.110531 0.000001 -0.000000  0.005553 -0.011515 -0.083465
39  0.891927 2.373049 -0.014527  -3.141592 -0.000001 1.413797
40  7.228117 5.709445 3.726568  3.140796 -1.570796 0.000000
41  2.450429 5.076127 0.001325  3.140791 -1.570796 0.000000
42  6.312407 -4.528057 0.001311  3.140791 -1.570796 0.000000
43  2.233305 1.152535 -7.309137  -1.142151 -1.553787 -0.863866
44  3.061500 2.842763 2.243589  0.000000 -0.000000 1.570796
time 30
0  1.727579 6.791367 38.321568  0.000000 -0.000000 -1.701715
1  0.164394 -0.125004 0.000008  -1.570795 -1.570451 -0.000000
2  -0.000008 0.000009 4.427393  -0.170749 3.130486 -0.000527
3  18.465937 0.000000 0.000000  0.000000 0.000000 -0.419920
4  14.875444 -0.000003 0.000001  0.018467 0.017458 0.404007
5  0.000004 -0.000005 -4.427392  0.105920 3.095529 -0.363922
6  18.465935 0.000000 -0.000000  -0.000000 0.000000 -0.397944
7  14.875441 0.000000 0.000000  -0.002065 0.005218 0.031295
8  2.255208 -0.007575 0.000003  0.122101 -0.017401 -0.001322
9  9.514215 -0.009356 -0.000000  -0.008779 0.002352 -0.095902
10  11.752190 -0.001495 0.000000  0.000024 0.043599 0.440031
11  -2.111785 0.863596 2.563791  0.697216 -1.395374 2.006326
12  4.640937 0.000000 0.000010  0.003415 1.230668 -0.279848
13  10.828056 -0.000002 -0.000005  -0.006217 -0.069509 -0.643807
14  9.393339 -0.000008 0.000005  1.939538 0.008013 0.055012
15  1.442242 0.107456 -1.746179  1.686435 0.539209 0.325885
16  1.063447 0.000000 0.000000  0.000000 -0.000000 0.199056
17  1.376309 -0.000001 0.000009  0.000000 -0.000000 0.199049
18  4.172849 -0.251366 -1.312747  0.008050 0.095731 0.148659
19  1.215372 -0.000003 -0.000003  -0.000000 -0.000000 0.645758
20  1.215371 0.000003 -0.000002  -0.000000 0.000000 0.645758
21  4.220533 -0.244853 -0.431463  0.001333 0.026242 0.148339
22  1.350414 0.000005 -0.000002  0.000000 -0.000000 0.863926
23  1.350408 -0.000000 -0.000005  0.000000 0.000000 0.863926
24  -1.885220 0.863613 -2.731757  -0.942448 1.461427 1.764337
25  4.640936 -0.000003 -0.000010  0.840773 -0.556066 -1.008731
26  10.828045 0.000005 0.000013  0.372594 -1.232925 -0.552316
27  9.393342 0.000003 -0.000001  1.046902 -0.119173 0.046355
28  1.442241 0.107453 1.746184  -1.686405 -0.539236 0.325898
29  1.063452 -0.000002 -0.000001  0.000000 -0.000000 0.199056
30  1.376306 0.000012 -0.000001  0.000000 0.000000 0.199059
31  4.172844 -0.251365 1.312747  -0.008050 -0.095731 0.148659
32  1.215372 0.000002 0.000001  0.000000 0.000000 0.645746
33  1.215374 -0.000000 0.000006  -0.000000 -0.000000 0.645746
34  4.220535 -0.244854 0.431466  -0.001333 -0.026242 0.148339
35  1.350416 0.000000 -0.000013  -0.000000 -0.000000 0.863937
36  1.350412 -0.000000 0.000008  0.000000 0.000000 0.863925
37  4.262823 -0.232721 -1.392175  0.016840 0.076668 0.253759
38  2.110543 0.000000 -0.000000  0.002417 -0.010493 -0.153718
39  0.891933 2.373050 -0.014527  -3.141592 -0.000001 1.413797
40  7.228112 5.709443 3.726568  3.140796 -1.570796 0.000000
41  2.450427 5.076127 0.001325  3.140791 -1.570796 0.000000
42  6.312402 -4.528057 0.001311  3.140791 -1.570796 0.000000
43  2.233305 1.152535 -7.309138  -1.145315 -1.553438 -0.878131
44  3.061500 2.842763 2.243589  0.000000 -0.000000 1.570796
end
