version 1
nodes
0 "Bip01" -1
1 "Bip01 Pelvis" 0
2 "Bip01 L Thigh" 1
3 "Bip01 L Calf" 2
4 "Bip01 L Foot" 3
5 "Bip01 R Thigh" 1
6 "Bip01 R Calf" 5
7 "Bip01 R Foot" 6
8 "Bip01 Spine" 1
9 "Bip01 Spine1" 8
10 "Bip01 Neck" 9
11 "Bip01 L Clavicle" 10
12 "Bip01 L UpperArm" 11
13 "Bip01 L Forearm" 12
14 "Bip01 L Hand" 13
15 "Bip01 L Finger0" 14
16 "Bip01 L Finger01" 15
17 "Bip01 L Finger02" 16
18 "Bip01 L Finger1" 14
19 "Bip01 L Finger11" 18
20 "Bip01 L Finger12" 19
21 "Bip01 L Finger2" 14
22 "Bip01 L Finger21" 21
23 "Bip01 L Finger22" 22
24 "Bip01 R Clavicle" 10
25 "Bip01 R UpperArm" 24
26 "Bip01 R Forearm" 25
27 "Bip01 R Hand" 26
28 "Bip01 R Finger0" 27
29 "Bip01 R Finger01" 28
30 "Bip01 R Finger02" 29
31 "Bip01 R Finger1" 27
32 "Bip01 R Finger11" 31
33 "Bip01 R Finger12" 32
34 "Bip01 R Finger2" 27
35 "Bip01 R Finger21" 34
36 "Bip01 R Finger22" 35
37 "Bip01 R Finger4" 27
38 "Bip01 Head" 10
39 "Bone05" 38
40 "Bone08" 9
41 "Bone16" 8
42 "Bone01" 8
43 "Bone03" 1
44 "Box01" -1
end
skeleton
time 0
0  0.157219 2.949998 40.543270  0.000000 0.218047 -1.570843
1  0.129237 -0.000000 0.000003  -0.000030 -1.484710 -1.570772
2  -0.000004 0.000009 4.427393  -0.006337 3.134084 -0.899631
3  18.465939 -0.000002 0.000001  0.000000 -0.000000 -1.281344
4  14.875443 -0.000002 -0.000000  0.016263 -0.074638 0.141269
5  0.000007 -0.000003 -4.427393  0.028480 3.103278 0.031763
6  18.465939 0.000000 0.000000  -0.000000 -0.000000 -0.667119
7  14.875441 -0.000003 -0.000001  0.031593 -0.044042 -0.450656
8  2.247396 -0.007572 0.191415  0.009953 -0.085509 -0.116268
9  9.514225 -0.009357 -0.000000  -0.000000 0.000000 0.213236
10  11.752189 -0.001492 0.000000  -0.000000 -0.000001 -0.045449
11  -2.170385 -0.171592 2.649731  0.394238 -1.354680 2.800264
12  4.640937 0.000001 -0.000002  0.213596 0.847353 -0.444717
13  10.828044 0.000001 -0.000004  0.127681 -0.216452 -0.908868
14  9.393333 -0.000003 -0.000002  -1.568874 0.118593 -0.085388
15  1.442241 0.107455 -1.746178  1.742810 0.349042 0.431626
16  1.063449 -0.000001 -0.000002  -0.000000 -0.000000 0.174535
17  1.376307 -0.000000 0.000001  0.000000 0.000000 0.174529
18  4.172840 -0.251364 -1.312744  0.069543 0.066333 0.874883
19  1.215374 0.000000 -0.000004  -0.000000 -0.000000 1.247894
20  1.215376 0.000005 -0.000003  0.000000 -0.000000 1.247894
21  4.220529 -0.244854 -0.431464  0.018387 0.018764 0.872814
22  1.350425 0.000001 -0.000001  -0.000000 -0.000000 1.247901
23  1.350409 -0.000004 0.000001  -0.000000 -0.000000 1.247901
24  -2.170393 -0.171575 -2.649723  -0.550977 1.337235 2.647444
25  4.640940 0.000002 0.000000  -0.046954 -0.721100 0.113992
26  10.828052 -0.000003 0.000007  0.498488 -0.517765 -1.529338
27  9.393339 -0.000007 0.000003  1.689932 -0.412136 -0.152544
28  1.442244 0.107453 1.746176  -1.742773 -0.349066 0.431617
29  1.063453 0.000000 0.000002  0.000000 -0.000000 0.174535
30  1.376306 -0.000003 0.000002  0.000000 -0.000000 0.174532
31  4.172845 -0.251363 1.312744  -0.069543 -0.066333 0.874883
32  1.215373 -0.000001 -0.000004  -0.000000 0.000000 1.247903
33  1.215372 0.000000 -0.000005  -0.000000 0.000000 1.247903
34  4.220534 -0.244849 0.431462  -0.018387 -0.018764 0.872814
35  1.350413 0.000007 -0.000009  -0.000000 0.000000 1.247903
36  1.350405 -0.000006 0.000004  -0.000000 -0.000000 1.247881
37  4.262827 -0.232721 -1.392181  0.058247 0.052627 0.874232
38  2.110541 -0.000001 -0.000000  0.000000 0.000001 -0.043206
39  0.891924 2.373050 -0.014527  -3.141592 -0.000001 1.413797
40  7.228121 5.709445 3.726569  3.140796 -1.570796 0.000000
41  2.450420 5.076127 0.001325  3.079792 -1.570796 0.000000
42  6.312404 -4.528059 0.001311  -3.055134 -1.570796 0.000000
43  2.233313 1.152536 -7.309138  -1.454790 -1.588242 -0.194544
44  3.061500 2.842763 2.243589  0.000000 -0.000000 1.570796
time 1
0  0.219721 -10.121395 40.905678  0.000000 0.218047 -1.570843
1  0.820665 0.000000 0.000001  -0.000030 -1.516931 -1.570773
2  -0.000002 0.000008 4.427393  0.011675 3.118082 -0.924698
3  18.465937 0.000001 0.000000  -0.000000 0.000000 -0.580976
4  14.875445 0.000001 -0.000000  -0.042931 -0.035092 0.056692
5  0.000000 -0.000004 -4.427394  0.028480 3.121071 0.072286
6  18.465939 0.000001 0.000000  -0.000000 0.000000 -0.923102
7  14.875442 0.000001 -0.000001  0.022011 -0.034918 -0.278788
8  2.251298 -0.007575 0.121100  0.010080 -0.052909 -0.189160
9  9.514224 -0.009358 -0.000000  0.000000 -0.000000 0.235426
10  11.752193 -0.001492 0.000000  0.000000 -0.000001 -0.067147
11  -2.166482 -0.218467 2.649729  0.255802 -1.364274 2.957270
12  4.640940 0.000001 0.000005  0.160919 0.858224 -0.503951
13  10.828044 0.000000 -0.000002  0.127681 -0.216452 -0.908868
14  9.393333 -0.000003 0.000002  -1.568874 0.118593 -0.085388
15  1.442246 0.107454 -1.746174  1.742810 0.349042 0.431626
16  1.063450 -0.000001 0.000003  -0.000000 -0.000000 0.174535
17  1.376308 -0.000003 -0.000002  0.000000 0.000000 0.174529
18  4.172840 -0.251367 -1.312746  0.069543 0.066333 0.874883
19  1.215370 0.000004 -0.000004  -0.000000 -0.000000 1.247894
20  1.215374 -0.000001 -0.000002  0.000000 0.000000 1.247894
21  4.220530 -0.244857 -0.431464  0.018387 0.018764 0.872814
22  1.350415 -0.000002 -0.000001  -0.000000 -0.000000 1.247901
23  1.350407 -0.000004 0.000000  0.000000 0.000000 1.247901
24  -2.166486 -0.218453 -2.649724  -0.642805 1.322770 2.579927
25  4.640939 0.000000 -0.000008  -0.046954 -0.721100 0.113992
26  10.828056 -0.000007 0.000006  0.523977 -0.519604 -1.558490
27  9.393343 0.000006 0.000001  1.689932 -0.412136 -0.152545
28  1.442244 0.107451 1.746177  -1.742773 -0.349066 0.431617
29  1.063454 -0.000002 0.000001  0.000000 -0.000000 0.174535
30  1.376306 -0.000004 0.000002  0.000000 -0.000000 0.174532
31  4.172846 -0.251366 1.312741  -0.069543 -0.066333 0.874883
32  1.215373 -0.000003 -0.000001  -0.000000 0.000000 1.247903
33  1.215370 0.000000 0.000001  0.000000 0.000000 1.247903
34  4.220534 -0.244850 0.431461  -0.018387 -0.018764 0.872814
35  1.350413 0.000001 -0.000006  0.000000 -0.000000 1.247903
36  1.350404 -0.000007 0.000004  -0.000000 -0.000000 1.247881
37  4.262826 -0.232722 -1.392182  0.058247 0.052627 0.874232
38  2.110546 -0.000003 -0.000000  0.000000 0.000001 0.029355
39  0.891917 2.373050 -0.014527  -3.141592 -0.000001 1.413797
40  7.228119 5.709444 3.726569  2.908467 -1.570796 0.000000
41  2.450422 5.076127 0.001325  3.091904 -1.570796 0.000000
42  6.312407 -4.528059 0.001311  -3.024823 -1.570796 0.000000
43  2.233304 1.152534 -7.309139  -1.505890 -1.562088 -0.108474
44  3.061500 2.842763 2.243589  0.000000 -0.000000 1.570796
time 2
0  0.344724 -27.914473 40.952946  0.000000 0.218047 -1.570843
1  0.844103 0.000000 0.000003  -0.000030 -1.549152 -1.570773
2  -0.000006 0.000008 4.427393  0.028634 3.104921 -0.914500
3  18.465942 0.000002 0.000000  0.000000 -0.000000 -0.053214
4  14.875444 0.000001 -0.000001  -0.047660 0.019438 -0.033218
5  0.000002 -0.000002 -4.427393  0.027330 3.139055 0.128531
6  18.465933 0.000000 0.000000  0.000000 -0.000000 -1.199891
7  14.875443 0.000001 -0.000001  0.011658 -0.028794 -0.099754
8  2.255207 -0.007574 0.046879  -0.003295 -0.026828 -0.188233
9  9.514218 -0.009356 0.000000  -0.009942 0.013534 0.228217
10  11.752190 -0.001493 -0.000000  -0.000000 -0.000001 -0.088885
11  -2.158672 -0.265339 2.649730  0.088021 -1.370041 -3.139804
12  4.640942 0.000000 0.000008  0.042765 0.875159 -0.639347
13  10.828043 -0.000002 -0.000000  0.127681 -0.216452 -0.908868
14  9.393332 -0.000005 -0.000002  -1.568874 0.118593 -0.085388
15  1.442250 0.107458 -1.746179  1.742810 0.349042 0.431626
16  1.063453 0.000003 -0.000001  -0.000000 -0.000000 0.174535
17  1.376311 0.000002 0.000003  0.000000 0.000000 0.174529
18  4.172844 -0.251363 -1.312748  0.069543 0.066333 0.874883
19  1.215371 -0.000002 -0.000006  -0.000000 -0.000000 1.247894
20  1.215373 -0.000003 0.000001  0.000000 0.000000 1.247894
21  4.220534 -0.244851 -0.431467  0.018387 0.018764 0.872814
22  1.350419 -0.000001 -0.000000  0.000000 0.000000 1.247901
23  1.350412 -0.000003 -0.000000  -0.000000 0.000000 1.247901
24  -2.158670 -0.265328 -2.649723  -0.722598 1.306853 2.524460
25  4.640942 -0.000003 -0.000002  -0.046954 -0.721100 0.113992
26  10.828052 -0.000002 0.000008  0.580052 -0.523649 -1.622623
27  9.393339 -0.000003 0.000001  1.689932 -0.412136 -0.152544
28  1.442240 0.107456 1.746173  -1.742773 -0.349066 0.431617
29  1.063451 -0.000002 0.000002  0.000000 -0.000000 0.174535
30  1.376305 -0.000006 0.000001  -0.000000 -0.000000 0.174532
31  4.172844 -0.251364 1.312739  -0.069543 -0.066333 0.874883
32  1.215375 0.000005 -0.000000  -0.000000 0.000000 1.247903
33  1.215372 0.000000 0.000000  -0.000000 0.000000 1.247903
34  4.220533 -0.244850 0.431463  -0.018387 -0.018764 0.872814
35  1.350412 0.000000 -0.000006  0.000000 0.000000 1.247903
36  1.350407 -0.000005 -0.000005  0.000000 -0.000000 1.247881
37  4.262825 -0.232722 -1.392184  0.058247 0.052627 0.874232
38  2.110541 0.000003 0.000000  0.018664 -0.009200 0.057465
39  0.891919 2.373048 -0.014527  -3.141592 -0.000001 1.413797
40  7.228116 5.709445 3.726569  2.678324 -1.570796 0.000000
41  2.450419 5.076130 0.001325  3.105947 -1.570796 0.000000
42  6.312402 -4.528056 0.001311  -2.994511 -1.570796 0.000000
43  2.233307 1.152536 -7.309138  -1.570892 -1.544642 0.000096
44  3.061500 2.842763 2.243589  0.000000 -0.000000 1.570796
time 3
0  0.547856 -41.892857 38.873055  0.000000 0.218047 -1.570843
1  0.422212 0.000000 0.000004  -0.000029 -1.561081 -1.570775
2  -0.000002 0.000006 4.427393  0.025472 3.091002 -0.813847
3  18.465935 0.000003 0.000000  0.000000 -0.000000 -0.026456
4  14.875445 0.000007 -0.000001  -0.041047 0.036146 -0.184477
5  0.000010 -0.000011 -4.427393  0.025605 3.135803 0.153332
6  18.465939 -0.000000 -0.000000  0.000000 -0.000000 -1.435132
7  14.875442 0.000002 -0.000000  -0.001012 -0.024399 0.064686
8  2.255210 -0.007574 0.019535  0.001304 -0.009624 -0.136584
9  9.514224 -0.009357 -0.000000  -0.000000 0.000000 0.196242
10  11.752194 -0.001491 0.000000  -0.000000 -0.000001 -0.109596
11  -2.154758 -0.308315 2.649730  0.088021 -1.370041 -3.119125
12  4.640941 0.000001 -0.000003  -0.075830 0.882272 -0.779070
13  10.828037 0.000003 0.000003  0.127681 -0.216452 -0.908868
14  9.393332 -0.000000 0.000001  -1.568874 0.118593 -0.085388
15  1.442241 0.107454 -1.746181  1.742810 0.349042 0.431626
16  1.063456 0.000002 0.000003  0.000000 -0.000000 0.174535
17  1.376313 -0.000001 -0.000010  -0.000000 0.000000 0.174529
18  4.172843 -0.251369 -1.312749  0.069543 0.066333 0.874883
19  1.215374 0.000001 0.000001  -0.000000 -0.000000 1.247894
20  1.215382 -0.000001 -0.000001  0.000000 0.000000 1.247894
21  4.220527 -0.244854 -0.431468  0.018387 0.018764 0.872814
22  1.350424 0.000001 -0.000003  -0.000000 0.000000 1.247901
23  1.350405 -0.000003 -0.000005  0.000000 -0.000000 1.247901
24  -2.154767 -0.308303 -2.649724  -0.673074 1.317141 2.593003
25  4.640940 0.000001 -0.000004  -0.046954 -0.721100 0.113992
26  10.828048 -0.000008 0.000006  0.636128 -0.527694 -1.686756
27  9.393340 0.000005 -0.000000  1.689932 -0.412136 -0.152544
28  1.442245 0.107453 1.746181  -1.742773 -0.349066 0.431617
29  1.063451 0.000002 -0.000004  0.000000 -0.000000 0.174535
30  1.376306 -0.000009 0.000002  -0.000000 0.000000 0.174532
31  4.172848 -0.251367 1.312748  -0.069543 -0.066333 0.874883
32  1.215373 0.000001 -0.000003  -0.000000 -0.000000 1.247903
33  1.215369 0.000001 0.000003  -0.000000 0.000000 1.247903
34  4.220535 -0.244849 0.431471  -0.018387 -0.018764 0.872814
35  1.350415 0.000003 -0.000003  0.000000 -0.000000 1.247903
36  1.350410 -0.000006 0.000000  -0.000000 -0.000000 1.247881
37  4.262827 -0.232722 -1.392175  0.058247 0.052627 0.874232
38  2.110546 -0.000003 0.000000  0.000000 0.000001 0.058642
39  0.891919 2.373047 -0.014527  -3.141592 -0.000001 1.413797
40  7.228120 5.709445 3.726569  2.460147 -1.570796 0.000000
41  2.450424 5.076127 0.001325  3.130434 -1.570796 0.000000
42  6.312408 -4.528055 0.001311  -2.988337 -1.570796 0.000000
43  2.233310 1.152531 -7.309139  -1.609954 -1.596980 0.065359
44  3.061500 2.842763 2.243589  0.000000 -0.000000 1.570796
time 4
0  1.024433 -55.764538 36.572563  0.000000 0.218047 -1.570843
1  -1.468471 -0.066408 0.000001  -0.000030 -1.464733 -1.570772
2  0.000000 0.000009 4.427392  -0.045045 2.997736 -0.661534
3  18.465937 -0.000002 -0.000000  -0.000000 0.000000 -0.205496
4  14.875443 0.000000 -0.000001  -0.043500 0.045958 -0.230340
5  0.000006 -0.000005 -4.427393  0.030589 3.022826 0.100081
6  18.465940 0.000005 0.000000  0.000000 0.000000 -1.566274
7  14.875444 -0.000001 -0.000001  -0.016910 -0.017063 0.192808
8  2.243494 -0.007573 0.234385  0.086448 -0.052280 0.098636
9  9.514223 -0.009358 -0.000000  0.133149 -0.151913 0.058429
10  11.752194 -0.001491 0.000001  0.000000 -0.000001 -0.125022
11  -2.150853 -0.343472 2.649729  0.088021 -1.370041 -3.103712
12  4.640945 0.000001 -0.000004  -0.128914 0.882278 -0.843050
13  10.828045 0.000003 -0.000002  0.127681 -0.216452 -0.908868
14  9.393337 -0.000001 0.000008  -1.568874 0.118593 -0.085388
15  1.442247 0.107450 -1.746177  1.742810 0.349042 0.431626
16  1.063461 0.000003 0.000004  0.000000 -0.000000 0.174535
17  1.376316 -0.000000 0.000006  -0.000000 -0.000000 0.174529
18  4.172843 -0.251372 -1.312746  0.069543 0.066333 0.874883
19  1.215373 -0.000004 -0.000003  -0.000000 -0.000000 1.247894
20  1.215368 -0.000002 -0.000004  -0.000000 -0.000000 1.247894
21  4.220529 -0.244862 -0.431465  0.018387 0.018764 0.872814
22  1.350422 0.000007 0.000005  0.000000 0.000000 1.247901
23  1.350406 -0.000004 0.000000  0.000000 -0.000000 1.247901
24  -2.150856 -0.343461 -2.649723  0.414786 1.352819 -2.611362
25  4.640940 -0.000000 -0.000015  -0.046954 -0.721100 0.113992
26  10.828046 -0.000006 0.000001  0.661617 -0.529533 -1.715908
27  9.393342 -0.000006 0.000000  1.689932 -0.412136 -0.152544
28  1.442244 0.107454 1.746182  -1.742773 -0.349066 0.431617
29  1.063450 -0.000004 0.000002  0.000000 -0.000000 0.174535
30  1.376308 -0.000002 -0.000003  0.000000 -0.000000 0.174532
31  4.172844 -0.251361 1.312750  -0.069543 -0.066333 0.874883
32  1.215375 0.000001 -0.000001  -0.000000 0.000000 1.247903
33  1.215371 0.000001 -0.000007  -0.000000 0.000000 1.247903
34  4.220536 -0.244852 0.431471  -0.018387 -0.018764 0.872814
35  1.350414 0.000007 -0.000007  0.000000 0.000000 1.247903
36  1.350399 -0.000006 -0.000000  -0.000000 -0.000000 1.247881
37  4.262826 -0.232720 -1.392173  0.058247 0.052627 0.874232
38  2.110549 -0.000005 -0.000000  -0.245665 0.069128 -0.028703
39  0.891923 2.373050 -0.014527  -3.141592 -0.000001 1.413797
40  7.228122 5.709447 3.726569  2.837515 -1.570796 0.000000
41  2.450423 5.076127 0.001324  2.896446 -1.570796 0.000000
42  6.312409 -4.528059 0.001311  -3.059676 -1.570796 0.000000
43  2.233312 1.152533 -7.309137  -1.531584 -1.658054 -0.065391
44  3.061500 2.842763 2.243589  0.000000 -0.000000 1.570796
time 5
0  1.321317 -69.004875 37.360405  0.000000 0.218047 -1.570843
1  -1.331741 -0.066408 0.000006  -0.000030 -1.381436 -1.570772
2  -0.000004 0.000003 4.427394  -0.060183 2.894907 -0.391794
3  18.465939 0.000000 0.000001  0.000000 -0.000000 -0.480892
4  14.875442 0.000009 -0.000001  -0.023093 0.068370 0.320022
5  0.000003 -0.000005 -4.427393  -0.020015 2.916545 -0.131078
6  18.465937 0.000003 0.000000  -0.000000 -0.000000 -1.522954
7  14.875448 -0.000001 -0.000001  -0.036880 0.007249 0.267206
8  2.216148 -0.007568 0.421893  0.077630 -0.137376 0.082357
9  9.514218 -0.009363 -0.000001  0.126921 -0.145757 0.068690
10  11.752193 -0.001494 -0.000002  -0.000000 -0.000001 0.042250
11  -2.178203 0.019812 2.649733  0.229315 -1.365584 2.873789
12  4.640939 -0.000012 -0.000004  -0.092594 0.866054 -0.796351
13  10.828047 -0.000005 0.000002  0.130714 -0.218521 -0.904245
14  9.393334 -0.000007 0.000002  -1.568874 0.118593 -0.085388
15  1.442247 0.107450 -1.746175  1.742810 0.349042 0.431626
16  1.063451 0.000000 0.000004  -0.000000 -0.000000 0.174535
17  1.376314 0.000001 0.000002  0.000000 -0.000000 0.174529
18  4.172848 -0.251368 -1.312743  0.069543 0.066333 0.874883
19  1.215371 -0.000000 -0.000002  0.000000 -0.000000 1.247894
20  1.215378 -0.000003 0.000005  0.000000 0.000000 1.247894
21  4.220538 -0.244860 -0.431462  0.018387 0.018764 0.872814
22  1.350419 -0.000007 0.000002  0.000000 -0.000000 1.247901
23  1.350395 0.000001 -0.000010  -0.000000 -0.000000 1.247901
24  -2.178205 0.019823 -2.649722  -0.421567 1.352184 2.685817
25  4.640939 0.000010 -0.000001  -0.046954 -0.721100 0.113992
26  10.828046 -0.000002 0.000002  0.657817 -0.529259 -1.711563
27  9.393334 0.000003 -0.000002  1.689932 -0.412136 -0.152544
28  1.442246 0.107450 1.746180  -1.742773 -0.349066 0.431617
29  1.063449 -0.000009 0.000001  0.000000 -0.000000 0.174535
30  1.376307 -0.000010 -0.000000  0.000000 -0.000000 0.174532
31  4.172844 -0.251359 1.312743  -0.069543 -0.066333 0.874883
32  1.215373 -0.000010 -0.000002  -0.000000 -0.000000 1.247903
33  1.215375 0.000000 -0.000004  0.000000 0.000000 1.247903
34  4.220535 -0.244851 0.431462  -0.018387 -0.018764 0.872814
35  1.350414 -0.000003 0.000005  -0.000000 0.000000 1.247903
36  1.350410 -0.000007 0.000005  -0.000000 -0.000000 1.247881
37  4.262829 -0.232729 -1.392181  0.058247 0.052627 0.874232
38  2.110541 -0.000009 0.000001  -0.235176 0.068647 -0.189033
39  0.891918 2.373054 -0.014527  -3.141592 -0.000001 1.413797
40  7.228122 5.709444 3.726568  3.140796 -1.570796 0.000000
41  2.450418 5.076120 0.001325  3.001240 -1.570796 0.000000
42  6.312399 -4.528068 0.001311  -3.124942 -1.570796 0.000000
43  2.233309 1.152533 -7.309137  -1.257293 -1.762787 -0.557879
44  3.061500 2.842763 2.243589  0.000000 -0.000000 1.570796
time 6
0  0.997088 -83.250023 37.801594  0.000000 0.218047 -1.570843
1  -0.995803 -0.062502 -0.000002  -0.000030 -1.395994 -1.570772
2  0.000001 -0.000001 4.427395  -0.000397 2.911193 -0.030837
3  18.465935 -0.000003 -0.000001  -0.000000 -0.000000 -0.335042
4  14.875442 0.000007 0.000000  -0.005459 0.055642 0.324802
5  0.000008 -0.000011 -4.427393  -0.104547 2.930225 -0.478752
6  18.465937 0.000004 -0.000000  -0.000000 -0.000000 -1.331623
7  14.875447 -0.000000 -0.000001  -0.035897 0.049083 0.289416
8  2.223959 -0.007583 0.390641  0.075900 -0.128794 0.039442
9  9.514223 -0.009366 -0.000001  0.110264 -0.128742 0.094322
10  11.752198 -0.001494 -0.000001  0.000000 -0.000001 -0.056022
11  -2.166482 -0.195038 2.649731  0.380899 -1.355813 2.823815
12  4.640937 -0.000008 -0.000002  -0.014294 0.828746 -0.695862
13  10.828045 0.000010 0.000002  0.137385 -0.223074 -0.894074
14  9.393331 -0.000006 0.000009  -1.568874 0.118593 -0.085388
15  1.442246 0.107447 -1.746178  1.742810 0.349042 0.431626
16  1.063451 0.000005 -0.000002  -0.000000 -0.000000 0.174535
17  1.376314 -0.000002 -0.000008  -0.000000 0.000000 0.174529
18  4.172840 -0.251372 -1.312745  0.069543 0.066333 0.874883
19  1.215374 -0.000002 -0.000002  0.000000 -0.000000 1.247894
20  1.215370 -0.000004 -0.000001  -0.000000 0.000000 1.247894
21  4.220531 -0.244866 -0.431466  0.018387 0.018764 0.872814
22  1.350418 -0.000000 -0.000008  -0.000000 -0.000000 1.247901
23  1.350409 -0.000004 0.000003  0.000000 -0.000000 1.247901
24  -2.166481 -0.195020 -2.649723  -0.619940 1.326704 2.590952
25  4.640941 -0.000004 -0.000007  -0.046954 -0.721100 0.113992
26  10.828044 -0.000007 -0.000002  0.647399 -0.528507 -1.699648
27  9.393333 0.000002 0.000005  1.689932 -0.412136 -0.152544
28  1.442240 0.107454 1.746179  -1.742773 -0.349066 0.431617
29  1.063456 -0.000013 0.000004  -0.000000 -0.000000 0.174535
30  1.376308 0.000006 -0.000007  0.000000 -0.000000 0.174532
31  4.172839 -0.251353 1.312744  -0.069543 -0.066333 0.874883
32  1.215369 -0.000012 -0.000001  -0.000000 -0.000000 1.247903
33  1.215381 -0.000001 0.000001  -0.000000 0.000000 1.247903
34  4.220531 -0.244848 0.431471  -0.018387 -0.018764 0.872814
35  1.350413 -0.000002 -0.000003  0.000000 0.000000 1.247903
36  1.350408 -0.000007 0.000015  -0.000000 -0.000000 1.247881
37  4.262822 -0.232718 -1.392179  0.058247 0.052627 0.874232
38  2.110546 -0.000003 0.000002  -0.206640 0.065791 -0.073106
39  0.891914 2.373053 -0.014527  -3.141592 -0.000001 1.413797
40  7.228117 5.709430 3.726571  3.099288 -1.570796 0.000000
41  2.450424 5.076111 0.001325  3.088832 -1.570796 0.000000
42  6.312399 -4.528075 0.001311  -3.117339 -1.570796 0.000000
43  2.233317 1.152532 -7.309137  -1.153942 -1.760806 -0.940458
44  3.061500 2.842763 2.243589  0.000000 -0.000000 1.570796
time 7
0  0.715829 -96.499260 39.582108  0.000000 0.218047 -1.570843
1  -0.550471 -0.054689 -0.000001  -0.000030 -1.530857 -1.570773
2  -0.000001 0.000008 4.427393  -0.016589 3.048109 -0.098987
3  18.465935 -0.000007 -0.000000  -0.000000 0.000000 -0.604955
4  14.875458 -0.000013 -0.000001  -0.042718 0.035039 -0.510933
5  0.000007 -0.000006 -4.427393  -0.075412 3.057838 -0.735273
6  18.465939 0.000008 0.000001  -0.000000 0.000000 -1.075575
7  14.875436 0.000001 -0.000001  -0.005574 0.072515 0.267919
8  2.255206 -0.007573 0.085943  0.067799 -0.002750 -0.016376
9  9.514228 -0.009355 0.000001  0.086515 -0.102977 0.127465
10  11.752187 -0.001511 0.000003  -0.000000 -0.000001 -0.169877
11  -2.131326 -0.437221 2.649728  0.443115 -1.350072 2.876948
12  4.640941 -0.000000 0.000002  0.066519 0.790920 -0.593752
13  10.828049 -0.000002 -0.000009  0.144056 -0.227626 -0.883903
14  9.393332 0.000004 -0.000002  -1.568874 0.118593 -0.085388
15  1.442249 0.107457 -1.746181  1.742810 0.349042 0.431626
16  1.063450 0.000003 0.000007  -0.000000 -0.000000 0.174535
17  1.376307 0.000001 0.000005  0.000000 -0.000000 0.174529
18  4.172843 -0.251364 -1.312751  0.069543 0.066333 0.874883
19  1.215376 0.000009 0.000001  0.000000 -0.000000 1.247894
20  1.215368 -0.000002 0.000005  0.000000 0.000000 1.247894
21  4.220532 -0.244853 -0.431470  0.018387 0.018764 0.872814
22  1.350417 -0.000007 0.000001  -0.000000 -0.000000 1.247901
23  1.350403 -0.000008 -0.000000  0.000000 0.000000 1.247901
24  -2.131329 -0.437221 -2.649724  -0.538851 1.338899 2.783674
25  4.640939 0.000003 -0.000001  -0.046954 -0.721100 0.113992
26  10.828053 -0.000005 -0.000001  0.631834 -0.527384 -1.681846
27  9.393338 -0.000001 -0.000009  1.689932 -0.412136 -0.152544
28  1.442246 0.107444 1.746181  -1.742773 -0.349066 0.431617
29  1.063453 0.000003 -0.000015  0.000000 -0.000000 0.174535
30  1.376306 -0.000011 0.000004  0.000000 0.000000 0.174532
31  4.172842 -0.251358 1.312743  -0.069543 -0.066333 0.874883
32  1.215372 -0.000006 0.000002  -0.000000 0.000000 1.247903
33  1.215362 0.000001 0.000001  -0.000000 0.000000 1.247903
34  4.220532 -0.244848 0.431467  -0.018387 -0.018764 0.872814
35  1.350415 0.000002 0.000000  0.000000 0.000000 1.247903
36  1.350400 -0.000005 0.000002  0.000000 0.000000 1.247881
37  4.262828 -0.232730 -1.392176  0.058247 0.052627 0.874232
38  2.110545 -0.000002 -0.000001  -0.164634 0.058184 0.064434
39  0.891915 2.373047 -0.014527  -3.141592 -0.000001 1.413797
40  7.228115 5.709431 3.726568  2.983219 -1.570796 0.000000
41  2.450425 5.076126 0.001326  3.140791 -1.570796 0.000000
42  6.312408 -4.528056 0.001311  -3.095396 -1.570796 0.000000
43  2.233314 1.152536 -7.309138  -1.152504 -1.649113 -1.142566
44  3.061500 2.842763 2.243589  0.000000 -0.000000 1.570796
time 8
0  0.430665 -109.152733 40.054810  0.000000 0.218047 -1.570843
1  -0.101230 -0.042970 0.000006  -0.000027 -1.568037 -1.570772
2  0.000001 0.000011 4.427392  -0.009786 3.103216 -0.064769
3  18.465933 0.000001 0.000000  0.000000 -0.000000 -0.849572
4  14.875456 -0.000004 -0.000001  -0.031234 0.019608 -0.425132
5  0.000012 -0.000004 -4.427393  -0.058160 3.105382 -0.851414
6  18.465946 -0.000000 0.000001  0.000000 -0.000000 -0.729080
7  14.875443 -0.000014 -0.000002  0.030891 0.058146 0.197573
8  2.255210 -0.007572 0.003909  0.047758 0.023016 -0.072526
9  9.514229 -0.009351 -0.000001  0.058752 -0.070869 0.160414
10  11.752193 -0.001515 0.000001  0.000000 -0.000001 -0.195954
11  -2.119600 -0.495825 2.649729  0.396334 -1.354504 2.948654
12  4.640941 0.000003 -0.000003  0.123865 0.781266 -0.525711
13  10.828048 0.000003 0.000005  0.147088 -0.229695 -0.879279
14  9.393332 0.000004 -0.000003  -1.568874 0.118593 -0.085388
15  1.442244 0.107443 -1.746185  1.742810 0.349042 0.431626
16  1.063452 0.000003 -0.000006  0.000000 -0.000000 0.174535
17  1.376313 -0.000004 -0.000007  -0.000000 0.000000 0.174529
18  4.172844 -0.251374 -1.312749  0.069543 0.066333 0.874883
19  1.215373 -0.000004 -0.000006  -0.000000 -0.000000 1.247894
20  1.215385 -0.000004 0.000002  -0.000000 0.000000 1.247894
21  4.220530 -0.244859 -0.431468  0.018387 0.018764 0.872814
22  1.350420 -0.000009 -0.000004  0.000000 -0.000000 1.247901
23  1.350402 -0.000005 -0.000001  0.000000 0.000000 1.247901
24  -2.119604 -0.495811 -2.649725  -0.402590 1.353939 2.942553
25  4.640940 -0.000001 -0.000002  -0.046954 -0.721100 0.113992
26  10.828048 -0.000008 0.000008  0.612592 -0.525997 -1.659839
27  9.393335 0.000003 0.000009  1.689932 -0.412136 -0.152544
28  1.442252 0.107443 1.746174  -1.742773 -0.349066 0.431617
29  1.063456 -0.000008 -0.000001  0.000000 -0.000000 0.174535
30  1.376308 -0.000013 -0.000008  0.000000 -0.000000 0.174532
31  4.172849 -0.251369 1.312737  -0.069543 -0.066333 0.874883
32  1.215374 0.000004 0.000003  -0.000000 -0.000000 1.247903
33  1.215377 0.000001 0.000006  0.000000 -0.000000 1.247903
34  4.220538 -0.244853 0.431459  -0.018387 -0.018764 0.872814
35  1.350415 0.000022 -0.000013  0.000000 0.000000 1.247903
36  1.350400 -0.000006 0.000011  0.000000 0.000000 1.247881
37  4.262831 -0.232725 -1.392184  0.058247 0.052627 0.874232
38  2.110551 -0.000006 -0.000001  -0.113680 0.044172 0.115146
39  0.891918 2.373045 -0.014527  -3.141592 -0.000001 1.413797
40  7.228123 5.709429 3.726569  2.824217 -1.570796 0.000000
41  2.450429 5.076124 0.001325  -3.140814 -1.570796 0.000000
42  6.312409 -4.528049 0.001310  -3.066054 -1.570796 0.000000
43  2.233312 1.152542 -7.309138  -1.189511 -1.614425 -1.236487
44  3.061500 2.842763 2.243589  0.000000 -0.000000 1.570796
time 9
0  0.141593 -123.886940 40.322678  0.000000 0.218047 -1.570843
1  0.258152 -0.023438 0.000003  0.000032 -1.586088 -1.570819
2  -0.000002 0.000012 4.427392  -0.005092 3.141470 -0.008057
3  18.465940 0.000011 -0.000000  0.000000 0.000000 -1.103108
4  14.875460 0.000002 0.000000  -0.013814 0.008711 -0.233026
5  0.000004 -0.000001 -4.427393  -0.041484 -3.137625 -0.893903
6  18.465929 0.000005 0.000002  0.000000 0.000000 -0.317736
7  14.875450 0.000006 0.000000  0.050650 0.017920 0.080893
8  2.255209 -0.007562 -0.031248  0.023244 0.027985 -0.116731
9  9.514224 -0.009369 -0.000000  0.029339 -0.035361 0.185699
10  11.752186 -0.001494 0.000000  -0.000000 -0.000001 -0.195362
11  -2.119603 -0.491898 2.649729  0.292388 -1.362184 3.049655
12  4.640940 -0.000005 0.000005  0.157686 0.796051 -0.490177
13  10.828044 0.000009 -0.000020  0.146013 -0.228962 -0.880918
14  9.393341 -0.000001 0.000013  -1.568874 0.118593 -0.085388
15  1.442258 0.107452 -1.746180  1.742810 0.349042 0.431626
16  1.063455 0.000003 0.000002  0.000000 0.000000 0.174535
17  1.376310 0.000002 0.000012  -0.000000 -0.000000 0.174529
18  4.172863 -0.251365 -1.312746  0.069543 0.066333 0.874883
19  1.215371 -0.000002 -0.000001  -0.000000 -0.000000 1.247894
20  1.215382 0.000007 0.000005  0.000000 -0.000000 1.247894
21  4.220544 -0.244850 -0.431464  0.018387 0.018764 0.872814
22  1.350418 0.000011 -0.000005  -0.000000 -0.000000 1.247901
23  1.350396 -0.000008 -0.000003  0.000000 -0.000000 1.247901
24  -2.119603 -0.491896 -2.649723  -0.237264 1.365196 3.103654
25  4.640940 -0.000016 -0.000009  -0.046954 -0.721100 0.113992
26  10.828050 -0.000002 0.000003  0.591144 -0.524449 -1.635309
27  9.393337 -0.000012 -0.000004  1.689932 -0.412136 -0.152544
28  1.442240 0.107461 1.746171  -1.742773 -0.349066 0.431617
29  1.063451 -0.000001 0.000004  -0.000000 -0.000000 0.174535
30  1.376304 -0.000005 0.000016  -0.000000 0.000000 0.174532
31  4.172839 -0.251347 1.312733  -0.069543 -0.066333 0.874883
32  1.215374 0.000009 -0.000014  -0.000000 -0.000000 1.247903
33  1.215369 0.000003 0.000000  0.000000 0.000000 1.247903
34  4.220526 -0.244838 0.431449  -0.018387 -0.018764 0.872814
35  1.350409 0.000000 -0.000006  -0.000000 0.000000 1.247903
36  1.350402 -0.000007 0.000010  -0.000000 -0.000000 1.247881
37  4.262823 -0.232714 -1.392183  0.058247 0.052627 0.874232
38  2.110548 0.000008 0.000000  -0.057843 0.023966 0.134640
39  0.891924 2.373051 -0.014527  -3.141592 -0.000001 1.413797
40  7.228110 5.709435 3.726570  2.653913 -1.570796 0.000000
41  2.450427 5.076106 0.001325  3.128503 -1.570796 0.000000
42  6.312407 -4.528073 0.001311  -3.036253 -1.570796 0.000000
43  2.233312 1.152541 -7.309138  -2.443428 -1.570796 0.000000
44  3.061500 2.842763 2.243589  0.000000 -0.000000 1.570796
time 10
0  -0.174823 -136.487061 40.921432  0.000000 0.218047 -1.570843
1  0.422206 0.000000 -0.000000  -0.000030 -1.591692 -1.570771
2  -0.000003 0.000002 4.427393  -0.001930 -3.114919 0.047035
3  18.465939 0.000012 -0.000000  0.000000 -0.000000 -1.347945
4  14.875433 -0.000001 0.000000  0.005882 -0.000420 0.007392
5  0.000007 -0.000003 -4.427394  -0.030079 -3.106056 -0.891282
6  18.465931 -0.000007 -0.000000  -0.000000 0.000000 -0.001959
7  14.875438 -0.000006 -0.000002  0.047667 -0.019457 -0.061298
8  2.255207 -0.007558 -0.046873  -0.002831 0.020699 -0.136584
9  9.514227 -0.009344 -0.000000  0.000000 0.000000 0.196242
10  11.752199 -0.001483 -0.000000  -0.000000 -0.000001 -0.187985
11  -2.123511 -0.476280 2.649729  0.162813 -1.368203 -3.114051
12  4.640941 -0.000006 0.000004  0.182099 0.809523 -0.466205
13  10.828049 -0.000005 0.000002  0.143241 -0.227070 -0.885145
14  9.393339 -0.000003 -0.000008  -1.568874 0.118593 -0.085388
15  1.442246 0.107447 -1.746183  1.742810 0.349042 0.431626
16  1.063446 0.000001 0.000018  0.000000 -0.000000 0.174535
17  1.376303 0.000001 -0.000025  -0.000000 0.000000 0.174529
18  4.172834 -0.251361 -1.312746  0.069543 0.066333 0.874883
19  1.215376 0.000015 0.000000  0.000000 -0.000000 1.247894
20  1.215377 0.000009 0.000000  0.000000 -0.000000 1.247894
21  4.220517 -0.244849 -0.431461  0.018387 0.018764 0.872814
22  1.350423 0.000004 -0.000001  0.000000 0.000000 1.247901
23  1.350424 -0.000002 -0.000006  0.000000 0.000000 1.247901
24  -2.123515 -0.476277 -2.649724  -0.088044 1.370038 -3.040736
25  4.640938 -0.000008 -0.000007  -0.046954 -0.721100 0.113992
26  10.828058 -0.000007 0.000002  0.568960 -0.522849 -1.609938
27  9.393352 0.000001 0.000004  1.689932 -0.412136 -0.152544
28  1.442239 0.107460 1.746169  -1.742773 -0.349066 0.431617
29  1.063452 -0.000001 0.000001  0.000000 -0.000000 0.174535
30  1.376306 0.000000 0.000007  0.000000 -0.000000 0.174532
31  4.172851 -0.251361 1.312741  -0.069543 -0.066333 0.874883
32  1.215374 0.000011 -0.000019  -0.000000 -0.000000 1.247903
33  1.215363 -0.000001 -0.000004  -0.000000 0.000000 1.247903
34  4.220540 -0.244847 0.431465  -0.018387 -0.018764 0.872814
35  1.350413 -0.000012 -0.000002  0.000000 -0.000000 1.247903
36  1.350402 -0.000005 0.000012  -0.000000 -0.000000 1.247881
37  4.262823 -0.232715 -1.392191  0.058247 0.052627 0.874232
38  2.110547 0.000008 -0.000000  -0.000000 0.000001 0.137042
39  0.891923 2.373045 -0.014527  -3.141592 -0.000001 1.413797
40  7.228127 5.709451 3.726569  2.503840 -1.570796 0.000000
41  2.450421 5.076119 0.001325  3.101032 -1.570796 0.000000
42  6.312407 -4.528052 0.001311  -3.012831 -1.570796 0.000000
43  2.233312 1.152535 -7.309139  -1.186251 -1.535904 -1.231030
44  3.061500 2.842763 2.243589  0.000000 -0.000000 1.570796
time 11
0  -0.584991 -148.615891 39.456055  0.000000 0.218047 -1.570843
1  -0.253605 0.105472 -0.000007  -0.000030 -1.537138 -1.570772
2  -0.000008 -0.000024 4.427393  0.005543 3.135220 0.076392
3  18.465925 -0.000002 -0.000001  0.000000 -0.000000 -1.566536
4  14.875447 0.000000 -0.000001  0.025613 -0.009466 0.237974
5  0.000003 -0.000011 -4.427394  -0.059694 -3.118301 -0.794139
6  18.465935 -0.000009 0.000000  0.000000 0.000000 0.110936
7  14.875431 -0.000031 -0.000000  0.045175 -0.037858 -0.334389
8  2.255206 -0.007597 0.074224  -0.055107 -0.047037 -0.052243
9  9.514216 -0.009375 -0.000001  -0.054175 0.053572 0.144957
10  11.752194 -0.001496 0.000000  0.000000 -0.000001 -0.184513
11  -2.123515 -0.468481 2.649731  0.050101 -1.370545 -3.006923
12  4.640941 0.000006 -0.000003  0.198338 0.821615 -0.451808
13  10.828046 -0.000001 0.000003  0.139450 -0.224483 -0.890925
14  9.393312 0.000007 0.000002  -1.568874 0.118593 -0.085388
15  1.442249 0.107443 -1.746176  1.742810 0.349042 0.431626
16  1.063451 -0.000001 0.000006  0.000000 -0.000000 0.174535
17  1.376304 0.000001 -0.000011  0.000000 -0.000000 0.174529
18  4.172843 -0.251377 -1.312741  0.069543 0.066333 0.874883
19  1.215373 -0.000000 -0.000003  -0.000000 -0.000000 1.247894
20  1.215357 -0.000002 0.000000  0.000000 -0.000000 1.247894
21  4.220516 -0.244846 -0.431460  0.018387 0.018764 0.872814
22  1.350418 0.000008 0.000000  0.000000 0.000000 1.247901
23  1.350414 -0.000007 0.000004  0.000000 -0.000000 1.247901
24  -2.123525 -0.468479 -2.649724  -0.088044 1.370038 -3.044155
25  4.640942 0.000006 0.000000  -0.046954 -0.721100 0.113992
26  10.828049 -0.000007 0.000008  0.547512 -0.521302 -1.585407
27  9.393336 -0.000004 -0.000000  1.689932 -0.412136 -0.152544
28  1.442247 0.107448 1.746176  -1.742773 -0.349066 0.431617
29  1.063450 0.000006 0.000004  0.000000 -0.000000 0.174535
30  1.376312 0.000000 0.000012  -0.000000 0.000000 0.174532
31  4.172843 -0.251365 1.312740  -0.069543 -0.066333 0.874883
32  1.215373 0.000014 -0.000005  -0.000000 -0.000000 1.247903
33  1.215378 0.000004 -0.000004  0.000000 0.000000 1.247903
34  4.220524 -0.244843 0.431460  -0.018387 -0.018764 0.872814
35  1.350412 -0.000017 -0.000002  -0.000000 0.000000 1.247903
36  1.350403 -0.000015 0.000005  0.000000 0.000000 1.247881
37  4.262815 -0.232714 -1.392189  0.058247 0.052627 0.874232
38  2.110538 -0.000022 -0.000000  0.116046 -0.038878 0.098854
39  0.891927 2.373042 -0.014527  -3.141592 -0.000001 1.413797
40  7.228122 5.709439 3.726567  2.364215 -1.570796 0.000000
41  2.450413 5.076140 0.001325  3.062327 -1.570796 0.000000
42  6.312400 -4.528070 0.001310  -3.002778 -1.570796 0.000000
43  2.233302 1.152508 -7.309139  -1.160174 -1.535904 -1.178564
44  3.061500 2.842763 2.243589  0.000000 -0.000000 1.570796
time 12
0  -0.995160 -162.452011 36.099861  0.000000 0.218047 -1.570843
1  -1.202836 0.257820 0.000007  -0.000030 -1.640441 -1.570772
2  0.000000 -0.000002 4.427393  0.003531 -3.025062 0.056186
3  18.465939 -0.000014 -0.000000  -0.000000 0.000000 -1.741555
4  14.875430 -0.000006 -0.000001  0.044065 -0.018065 0.400728
5  0.000009 0.000006 -4.427393  0.020238 -3.015560 -0.657503
6  18.465927 -0.000006 -0.000000  0.000000 0.000000 -0.001959
7  14.875437 -0.000000 0.000000  0.052019 -0.053045 -0.468852
8  2.251310 -0.007568 -0.152345  -0.116835 0.051080 0.068592
9  9.514238 -0.009355 -0.000000  -0.116116 0.104362 0.069794
10  11.752190 -0.001486 0.000005  0.000000 -0.000001 -0.149284
11  -2.139135 -0.394270 2.649734  -0.000109 -1.370771 -2.993041
12  4.640937 0.000033 0.000004  0.207868 0.831983 -0.444850
13  10.828045 -0.000010 -0.000027  0.135320 -0.221664 -0.897222
14  9.393324 -0.000005 -0.000013  -1.568874 0.118593 -0.085388
15  1.442237 0.107455 -1.746183  1.742810 0.349042 0.431626
16  1.063457 0.000002 -0.000014  0.000000 -0.000000 0.174535
17  1.376303 -0.000001 -0.000010  -0.000000 0.000000 0.174529
18  4.172830 -0.251362 -1.312748  0.069543 0.066333 0.874883
19  1.215369 0.000006 -0.000004  -0.000000 -0.000000 1.247894
20  1.215359 -0.000002 -0.000003  -0.000000 0.000000 1.247894
21  4.220523 -0.244848 -0.431464  0.018387 0.018764 0.872814
22  1.350428 0.000027 -0.000000  -0.000000 -0.000000 1.247901
23  1.350434 -0.000000 0.000000  0.000000 0.000000 1.247901
24  -2.139135 -0.394241 -2.649719  -0.088044 1.370038 -3.079366
25  4.640938 -0.000004 -0.000001  -0.046954 -0.721100 0.113992
26  10.828045 -0.000019 -0.000000  0.528270 -0.519914 -1.563400
27  9.393350 -0.000017 0.000002  1.689932 -0.412136 -0.152544
28  1.442265 0.107451 1.746166  -1.742773 -0.349066 0.431617
29  1.063462 0.000008 0.000000  0.000000 0.000000 0.174535
30  1.376304 -0.000009 0.000007  0.000000 0.000000 0.174532
31  4.172861 -0.251364 1.312731  -0.069543 -0.066333 0.874883
32  1.215374 -0.000010 -0.000008  -0.000000 -0.000000 1.247903
33  1.215389 -0.000001 -0.000004  0.000000 -0.000000 1.247903
34  4.220556 -0.244848 0.431451  -0.018387 -0.018764 0.872814
35  1.350411 -0.000029 -0.000007  0.000000 0.000000 1.247903
36  1.350400 -0.000006 -0.000005  0.000000 -0.000000 1.247881
37  4.262838 -0.232718 -1.392192  0.058247 0.052627 0.874232
38  2.110550 -0.000017 0.000004  0.249007 -0.062782 0.013863
39  0.891925 2.373045 -0.014527  -3.141592 -0.000001 1.413797
40  7.228106 5.709438 3.726569  2.708528 -1.570796 0.000000
41  2.450431 5.076117 0.001324  2.922688 -1.570796 0.000000
42  6.312418 -4.528051 0.001312  -3.055440 -1.570796 0.000000
43  2.233308 1.152524 -7.309138  -1.130166 -1.439909 -1.060229
44  3.061500 2.842763 2.243589  0.000000 -0.000000 1.570796
time 13
0  -1.299857 -175.487839 36.651348  0.000000 0.218047 -1.570843
1  -1.202844 0.257820 0.000003  -0.000030 -1.710689 -1.570772
2  0.000007 -0.000002 4.427392  0.041664 -2.940886 -0.158463
3  18.465940 -0.000007 0.000001  0.000000 0.000000 -1.780448
4  14.875424 -0.000001 0.000001  0.058712 -0.029218 0.367703
5  0.000013 -0.000021 -4.427394  0.078797 -2.935395 -0.578048
6  18.465937 -0.000016 -0.000001  0.000000 -0.000000 -0.712146
7  14.875443 0.000001 0.000000  0.030996 -0.082965 0.328847
8  2.235684 -0.007589 -0.312508  -0.111983 0.121172 0.069023
9  9.514229 -0.009329 -0.000000  -0.116116 0.104362 0.069794
10  11.752187 -0.001504 -0.000005  -0.000000 -0.000001 0.014950
11  -2.178204 -0.038797 2.649723  0.421582 -1.352187 2.713048
12  4.640944 0.000005 -0.000002  0.212352 0.840121 -0.443023
13  10.828041 -0.000006 0.000008  0.131529 -0.219078 -0.903002
14  9.393328 0.000001 0.000003  -1.568874 0.118593 -0.085388
15  1.442261 0.107432 -1.746182  1.742810 0.349042 0.431626
16  1.063448 -0.000001 -0.000012  0.000000 -0.000000 0.174535
17  1.376310 -0.000002 -0.000008  -0.000000 -0.000000 0.174529
18  4.172856 -0.251377 -1.312748  0.069543 0.066333 0.874883
19  1.215369 -0.000014 -0.000000  -0.000000 -0.000000 1.247894
20  1.215360 -0.000002 0.000000  0.000000 0.000000 1.247894
21  4.220544 -0.244864 -0.431465  0.018387 0.018764 0.872814
22  1.350431 0.000010 0.000002  -0.000000 -0.000000 1.247901
23  1.350400 -0.000003 0.000004  0.000000 -0.000000 1.247901
24  -2.178205 -0.038767 -2.649727  -0.176447 1.367738 2.952894
25  4.640929 -0.000008 0.000004  -0.046954 -0.721100 0.113992
26  10.828054 0.000010 0.000008  0.512705 -0.518791 -1.545598
27  9.393348 0.000000 0.000000  1.689932 -0.412136 -0.152544
28  1.442240 0.107448 1.746167  -1.742773 -0.349066 0.431617
29  1.063449 -0.000007 -0.000029  0.000000 -0.000000 0.174535
30  1.376308 -0.000007 -0.000004  0.000000 -0.000000 0.174532
31  4.172847 -0.251366 1.312740  -0.069543 -0.066333 0.874883
32  1.215367 0.000014 0.000003  -0.000000 -0.000000 1.247903
33  1.215384 -0.000004 0.000007  0.000000 0.000000 1.247903
34  4.220520 -0.244849 0.431446  -0.018387 -0.018764 0.872814
35  1.350413 0.000015 -0.000018  0.000000 0.000000 1.247903
36  1.350390 -0.000010 -0.000001  -0.000000 -0.000000 1.247881
37  4.262817 -0.232726 -1.392192  0.058247 0.052627 0.874232
38  2.110544 -0.000016 -0.000005  0.249007 -0.062782 -0.150422
39  0.891920 2.373066 -0.014527  -3.141592 -0.000001 1.413797
40  7.228117 5.709444 3.726566  3.140796 -1.570796 0.000000
41  2.450423 5.076137 0.001324  3.027395 -1.570796 0.000000
42  6.312412 -4.528037 0.001312  -3.116216 -1.570796 0.000000
43  2.233325 1.152520 -7.309140  -1.128344 -1.361388 -0.974829
44  3.061500 2.842763 2.243589  0.000000 -0.000000 1.570796
time 14
0  -1.034224 -189.928604 37.171322  0.000000 0.218047 -1.570843
1  -0.937212 0.187506 0.000001  -0.000032 -1.575912 -1.570765
2  -0.000006 -0.000009 4.427392  0.040227 -3.069659 -0.473955
3  18.465940 0.000006 0.000000  -0.000000 -0.000000 -1.636207
4  14.875426 0.000003 -0.000000  0.058961 -0.050076 0.256935
5  0.000001 -0.000001 -4.427393  -0.005160 -3.061191 0.011735
6  18.465942 -0.000010 0.000000  0.000000 -0.000000 -0.411596
7  14.875434 -0.000004 -0.000000  0.006078 -0.075266 0.398330
8  2.255202 -0.007579 -0.007810  -0.085613 -0.007955 0.035339
9  9.514221 -0.009347 0.000001  -0.082238 0.073167 0.085338
10  11.752193 -0.001496 -0.000001  -0.000000 -0.000001 -0.016927
11  -2.174296 -0.109079 2.649732  0.619947 -1.326703 2.551925
12  4.640933 0.000015 -0.000003  0.213614 0.845445 -0.443849
13  10.828047 -0.000005 0.000011  0.128756 -0.217186 -0.907229
14  9.393342 0.000004 0.000008  -1.568874 0.118593 -0.085388
15  1.442252 0.107443 -1.746182  1.742810 0.349042 0.431626
16  1.063447 -0.000002 0.000003  -0.000000 -0.000000 0.174535
17  1.376310 -0.000004 0.000022  0.000000 -0.000000 0.174529
18  4.172846 -0.251369 -1.312749  0.069543 0.066333 0.874883
19  1.215368 -0.000017 -0.000002  -0.000000 -0.000000 1.247894
20  1.215366 0.000000 0.000004  0.000000 0.000000 1.247894
21  4.220525 -0.244850 -0.431467  0.018387 0.018764 0.872814
22  1.350421 0.000014 0.000001  -0.000000 -0.000000 1.247901
23  1.350407 -0.000006 -0.000004  0.000000 0.000000 1.247901
24  -2.174303 -0.109080 -2.649724  -0.314466 1.360778 2.849653
25  4.640938 -0.000003 0.000003  -0.046954 -0.721100 0.113992
26  10.828047 -0.000005 0.000004  0.502287 -0.518040 -1.533683
27  9.393344 -0.000014 0.000000  1.689932 -0.412136 -0.152544
28  1.442243 0.107463 1.746174  -1.742773 -0.349066 0.431617
29  1.063462 0.000008 -0.000024  0.000000 -0.000000 0.174535
30  1.376305 0.000000 -0.000015  0.000000 -0.000000 0.174532
31  4.172834 -0.251354 1.312743  -0.069543 -0.066333 0.874883
32  1.215375 0.000005 -0.000003  -0.000000 -0.000000 1.247903
33  1.215373 -0.000005 0.000003  0.000000 0.000000 1.247903
34  4.220525 -0.244843 0.431466  -0.018387 -0.018764 0.872814
35  1.350411 -0.000002 -0.000011  -0.000000 0.000000 1.247903
36  1.350400 -0.000008 0.000023  0.000000 -0.000000 1.247881
37  4.262809 -0.232708 -1.392188  0.058247 0.052627 0.874232
38  2.110539 -0.000014 -0.000003  0.175379 -0.048109 -0.098344
39  0.891925 2.373051 -0.014527  -3.141592 -0.000001 1.413797
40  7.228114 5.709448 3.726568  3.140796 -1.570796 0.000000
41  2.450419 5.076130 0.001324  3.062327 -1.570796 0.000000
42  6.312405 -4.528055 0.001311  -3.100397 -1.570796 0.000000
43  2.233309 1.152537 -7.309138  -0.823470 -1.471189 -0.843281
44  3.061500 2.842763 2.243589  0.000000 -0.000000 1.570796
time 15
0  0.157219 -201.790680 40.543270  0.000000 0.218047 -1.570843
1  -0.620814 -0.000000 -0.000002  -0.000030 -1.484710 -1.570772
2  -0.000009 -0.000015 4.427393  -0.006337 3.134084 -0.899631
3  18.465925 -0.000008 -0.000001  0.000000 -0.000000 -1.281344
4  14.875441 0.000017 0.000001  0.016263 -0.074638 0.141269
5  0.000004 -0.000028 -4.427393  0.028480 3.103278 0.031763
6  18.465940 -0.000023 -0.000001  -0.000000 -0.000000 -0.667119
7  14.875397 0.000011 -0.000000  0.031593 -0.044042 -0.450656
8  2.235680 -0.007581 0.191415  0.009953 -0.085509 -0.116268
9  9.514220 -0.009358 -0.000000  -0.000000 0.000000 0.213236
10  11.752202 -0.001487 0.000000  -0.000000 -0.000001 -0.045449
11  -2.162577 -0.171581 2.649729  0.394238 -1.354680 2.800264
12  4.640939 -0.000013 -0.000011  0.213596 0.847353 -0.444717
13  10.828045 -0.000010 0.000001  0.127681 -0.216452 -0.908868
14  9.393329 -0.000009 0.000001  -1.568874 0.118593 -0.085388
15  1.442255 0.107438 -1.746185  1.742810 0.349042 0.431626
16  1.063448 0.000005 -0.000003  -0.000000 -0.000000 0.174535
17  1.376307 0.000003 -0.000009  0.000000 0.000000 0.174529
18  4.172840 -0.251371 -1.312746  0.069543 0.066333 0.874883
19  1.215375 -0.000002 -0.000006  -0.000000 -0.000000 1.247894
20  1.215375 -0.000002 -0.000007  0.000000 -0.000000 1.247894
21  4.220527 -0.244864 -0.431469  0.018387 0.018764 0.872814
22  1.350419 0.000011 0.000005  -0.000000 -0.000000 1.247901
23  1.350430 -0.000002 0.000002  -0.000000 -0.000000 1.247901
24  -2.162577 -0.171574 -2.649723  -0.550977 1.337235 2.647444
25  4.640940 -0.000015 -0.000003  -0.046954 -0.721100 0.113992
26  10.828043 -0.000007 0.000000  0.498488 -0.517765 -1.529338
27  9.393333 -0.000005 -0.000001  1.689932 -0.412136 -0.152544
28  1.442245 0.107474 1.746159  -1.742773 -0.349066 0.431617
29  1.063452 -0.000006 0.000007  0.000000 -0.000000 0.174535
30  1.376311 -0.000010 -0.000004  0.000000 -0.000000 0.174532
31  4.172844 -0.251343 1.312727  -0.069543 -0.066333 0.874883
32  1.215372 -0.000008 -0.000002  -0.000000 0.000000 1.247903
33  1.215388 0.000001 0.000004  -0.000000 0.000000 1.247903
34  4.220535 -0.244834 0.431454  -0.018387 -0.018764 0.872814
35  1.350410 0.000005 0.000010  -0.000000 0.000000 1.247903
36  1.350396 -0.000007 0.000013  -0.000000 -0.000000 1.247881
37  4.262825 -0.232697 -1.392198  0.058247 0.052627 0.874232
38  2.110544 -0.000009 -0.000000  0.000000 0.000001 -0.043206
39  0.891924 2.373048 -0.014527  -3.141592 -0.000001 1.413797
40  7.228123 5.709451 3.726569  3.140796 -1.570796 0.000000
41  2.450420 5.076126 0.001325  3.079792 -1.570796 0.000000
42  6.312406 -4.528052 0.001311  -3.055134 -1.570796 0.000000
43  2.233309 1.152511 -7.309138  -1.454790 -1.588242 -0.194544
44  3.061500 2.842763 2.243589  0.000000 -0.000000 1.570796
end
