version 1
nodes
0 "Bip01" -1
1 "Bip01 Pelvis" 0
2 "Bip01 L Thigh" 1
3 "Bip01 L Calf" 2
4 "Bip01 L Foot" 3
5 "Bip01 R Thigh" 1
6 "Bip01 R Calf" 5
7 "Bip01 R Foot" 6
8 "Bip01 Spine" 1
9 "Bip01 Spine1" 8
10 "Bip01 Neck" 9
11 "Bip01 L Clavicle" 10
12 "Bip01 L UpperArm" 11
13 "Bip01 L Forearm" 12
14 "Bip01 L Hand" 13
15 "Bip01 L Finger0" 14
16 "Bip01 L Finger01" 15
17 "Bip01 L Finger02" 16
18 "Bip01 L Finger1" 14
19 "Bip01 L Finger11" 18
20 "Bip01 L Finger12" 19
21 "Bip01 L Finger2" 14
22 "Bip01 L Finger21" 21
23 "Bip01 L Finger22" 22
24 "Bip01 R Clavicle" 10
25 "Bip01 R UpperArm" 24
26 "Bip01 R Forearm" 25
27 "Bip01 R Hand" 26
28 "Bip01 R Finger0" 27
29 "Bip01 R Finger01" 28
30 "Bip01 R Finger02" 29
31 "Bip01 R Finger1" 27
32 "Bip01 R Finger11" 31
33 "Bip01 R Finger12" 32
34 "Bip01 R Finger2" 27
35 "Bip01 R Finger21" 34
36 "Bip01 R Finger22" 35
37 "Bip01 R Finger4" 27
38 "Bip01 Head" 10
39 "Bone05" 38
40 "Bone08" 9
41 "Bone16" 8
42 "Bone01" 8
43 "Bone03" 1
44 "Box01" -1
end
skeleton
time 0
0  1.278347 8.258556 38.211269  -0.032789 -0.000650 -1.631917
1  1.363651 0.101566 0.000002  -0.000030 -1.518469 -1.570772
2  -0.000011 0.000008 4.427393  -0.149096 -3.138875 0.101937
3  18.465939 0.000001 0.000000  -0.000000 -0.000000 -0.309601
4  14.875443 0.000001 -0.000000  0.036670 -0.030665 0.388482
5  -0.000002 -0.000004 -4.427392  0.087615 3.102417 -0.364109
6  18.465944 -0.000001 -0.000001  -0.000000 -0.000000 -0.544773
7  14.875443 0.000000 0.000001  0.057494 -0.014698 0.179152
8  2.251287 -0.007574 0.117194  -0.066331 -0.001572 -0.135293
9  9.514222 -0.009357 0.000000  0.024649 -0.102897 -0.044531
10  11.752193 -0.001491 -0.000000  -0.034168 0.101832 0.134367
11  -2.424298 0.137010 2.423162  -0.077188 -1.168613 3.076366
12  4.640942 0.000001 -0.000009  -0.889855 0.346501 -1.844059
13  10.828048 -0.000002 0.000000  -0.085715 0.035262 -0.624937
14  9.393338 0.000004 0.000003  -2.045769 -0.447170 0.433411
15  1.442244 0.107452 -1.746174  1.545041 0.350655 0.094987
16  1.063448 -0.000000 -0.000001  -0.000000 -0.000000 0.199056
17  1.376306 0.000003 0.000001  -0.000000 -0.000000 0.199049
18  4.172846 -0.251364 -1.312745  0.008014 -0.043889 0.147537
19  1.215369 0.000001 0.000002  0.000000 -0.000000 0.645758
20  1.215371 0.000000 0.000010  0.000000 -0.000000 0.881369
21  4.220532 -0.244854 -0.431460  0.001333 0.026242 0.148339
22  1.350415 0.000001 0.000001  0.000000 -0.000000 0.733035
23  1.350409 0.000002 -0.000005  -0.000000 -0.000000 1.256600
24  -1.889125 0.316715 -2.845044  0.445518 1.274322 -2.864594
25  4.640945 0.000004 0.000006  -1.079032 -0.941785 0.480591
26  10.828049 -0.000001 -0.000002  -0.603935 0.290104 -2.199200
27  9.393334 -0.000005 -0.000005  2.138403 0.333846 -0.033065
28  1.442247 0.107456 1.746177  -2.449551 -0.338953 0.923133
29  1.063450 -0.000004 0.000002  -0.000000 -0.000000 0.366516
30  1.376308 -0.000010 0.000001  0.000000 -0.000000 0.811565
31  4.172845 -0.251364 1.312751  -0.000488 -0.096055 0.069757
32  1.215366 0.000001 -0.000003  -0.000000 -0.000000 0.130882
33  1.215370 0.000000 0.000002  0.000000 0.000000 1.151880
34  4.220535 -0.244854 0.431466  -0.011400 0.078000 0.147658
35  1.350416 -0.000000 -0.000004  -0.000000 0.000000 0.977377
36  1.350407 0.000002 -0.000002  0.000000 -0.000000 1.518434
37  4.262825 -0.232721 -1.392179  0.021250 -0.052274 0.146778
38  2.110544 -0.000003 -0.000000  0.102935 0.247224 -0.196190
39  0.891922 2.373053 -0.014528  -3.141592 -0.000001 1.413797
40  7.228109 5.709445 3.726568  3.140796 -1.570796 0.000000
41  2.450433 5.076126 0.001325  -3.081308 -1.570796 0.000000
42  6.312405 -4.528059 0.001311  -3.081312 -1.570796 0.000000
43  2.233305 1.152536 -7.309138  -1.044456 -1.534594 -0.988711
44  3.061500 2.842763 2.243589  0.000000 -0.000000 1.570796
time 1
0  1.278347 8.258556 38.211269  -0.032789 -0.000650 -1.631917
1  1.363651 0.101566 0.000002  -0.000030 -1.518469 -1.570772
2  -0.000011 0.000008 4.427393  -0.149096 -3.138875 0.101937
3  18.465939 0.000001 0.000000  -0.000000 -0.000000 -0.309601
4  14.875443 0.000001 -0.000000  0.036670 -0.030665 0.388482
5  -0.000002 -0.000004 -4.427392  0.087615 3.102417 -0.364109
6  18.465944 -0.000001 -0.000001  -0.000000 -0.000000 -0.544773
7  14.875443 0.000000 0.000001  0.057494 -0.014698 0.179152
8  2.251287 -0.007574 0.117194  -0.066331 -0.001572 -0.135293
9  9.514222 -0.009357 0.000000  0.024649 -0.102897 -0.044531
10  11.752193 -0.001491 -0.000000  -0.034168 0.101832 0.134367
11  -2.424298 0.137010 2.423162  -0.077188 -1.168613 3.076366
12  4.640942 0.000001 -0.000009  -0.885537 0.388863 -1.808712
13  10.828048 0.000003 0.000002  -0.097721 0.061683 -0.727176
14  9.393344 -0.000004 0.000004  -2.045769 -0.447170 0.433411
15  1.442242 0.107452 -1.746180  1.545041 0.350655 0.094987
16  1.063441 0.000002 -0.000003  0.000000 -0.000000 0.199056
17  1.376307 0.000002 -0.000001  -0.000000 -0.000000 0.199049
18  4.172843 -0.251366 -1.312747  0.008014 -0.043889 0.147537
19  1.215373 -0.000000 -0.000000  -0.000000 0.000000 0.645758
20  1.215371 0.000000 0.000005  0.000000 -0.000000 0.881369
21  4.220529 -0.244855 -0.431465  0.001333 0.026242 0.148339
22  1.350417 0.000002 0.000003  -0.000000 -0.000000 0.733035
23  1.350409 0.000001 -0.000002  -0.000000 -0.000000 1.256600
24  -1.889125 0.316715 -2.845044  0.445518 1.274322 -2.864594
25  4.640945 0.000004 0.000006  -1.184640 -0.866564 0.604656
26  10.828050 -0.000001 -0.000003  -0.630972 0.277494 -2.279427
27  9.393335 -0.000010 -0.000008  2.138403 0.333846 -0.033065
28  1.442245 0.107455 1.746174  -2.449551 -0.338953 0.923133
29  1.063456 -0.000005 -0.000008  -0.000000 0.000000 0.366516
30  1.376310 -0.000008 0.000001  -0.000000 -0.000000 0.811565
31  4.172847 -0.251363 1.312747  -0.000488 -0.096055 0.069757
32  1.215373 0.000002 -0.000001  -0.000000 -0.000000 0.130882
33  1.215375 -0.000001 0.000003  -0.000000 -0.000000 1.151880
34  4.220536 -0.244854 0.431466  -0.011400 0.078000 0.147658
35  1.350418 -0.000000 -0.000002  -0.000000 -0.000000 0.977377
36  1.350409 -0.000001 0.000007  0.000000 -0.000000 1.518434
37  4.262825 -0.232721 -1.392181  0.021250 -0.052274 0.146778
38  2.110544 -0.000003 -0.000000  0.102935 0.247224 -0.196190
39  0.891922 2.373053 -0.014528  -3.141592 -0.000001 1.413797
40  7.228109 5.709445 3.726568  3.140796 -1.570796 0.000000
41  2.450433 5.076126 0.001325  -3.081308 -1.570796 0.000000
42  6.312405 -4.528059 0.001311  -3.081312 -1.570796 0.000000
43  2.233305 1.152536 -7.309138  -1.044456 -1.534594 -0.988711
44  3.061500 2.842763 2.243589  0.000000 -0.000000 1.570796
time 2
0  1.278347 8.258556 38.211269  -0.032789 -0.000650 -1.631917
1  1.363651 0.101566 0.000002  -0.000030 -1.518469 -1.570772
2  -0.000011 0.000008 4.427393  -0.149096 -3.138875 0.101937
3  18.465939 0.000001 0.000000  -0.000000 -0.000000 -0.309601
4  14.875443 0.000001 -0.000000  0.036670 -0.030665 0.388482
5  -0.000002 -0.000004 -4.427392  0.087615 3.102417 -0.364109
6  18.465944 -0.000001 -0.000001  -0.000000 -0.000000 -0.544773
7  14.875443 0.000000 0.000001  0.057494 -0.014698 0.179152
8  2.251287 -0.007574 0.117194  -0.066331 -0.001572 -0.135293
9  9.514222 -0.009357 0.000000  0.024649 -0.102897 -0.044531
10  11.752193 -0.001491 -0.000000  -0.034168 0.101832 0.134367
11  -2.424298 0.137010 2.423162  -0.077188 -1.168613 3.076366
12  4.640942 0.000001 -0.000009  -0.871633 0.468967 -1.742066
13  10.828048 -0.000004 0.000001  -0.120017 0.110750 -0.917047
14  9.393341 -0.000005 0.000008  -2.045769 -0.447170 0.433411
15  1.442243 0.107453 -1.746171  1.545041 0.350655 0.094987
16  1.063448 -0.000004 0.000001  -0.000000 -0.000000 0.199056
17  1.376302 -0.000002 -0.000001  0.000000 -0.000000 0.199049
18  4.172845 -0.251363 -1.312745  0.008014 -0.043889 0.147537
19  1.215370 0.000000 0.000006  0.000000 0.000000 0.645758
20  1.215369 0.000002 0.000002  0.000000 -0.000000 0.881369
21  4.220531 -0.244854 -0.431460  0.001333 0.026242 0.148339
22  1.350412 0.000002 -0.000005  -0.000000 -0.000000 0.733035
23  1.350405 -0.000001 -0.000000  0.000000 0.000000 1.256600
24  -1.889125 0.316715 -2.845044  0.445518 1.274322 -2.864594
25  4.640945 0.000004 0.000006  -1.333094 -0.710341 0.779037
26  10.828050 -0.000001 -0.000001  -0.681185 0.254075 -2.428420
27  9.393335 -0.000002 -0.000008  2.138403 0.333846 -0.033065
28  1.442244 0.107454 1.746176  -2.449551 -0.338953 0.923133
29  1.063451 -0.000004 -0.000000  -0.000000 0.000000 0.366516
30  1.376310 -0.000010 -0.000000  -0.000000 -0.000000 0.811565
31  4.172845 -0.251365 1.312751  -0.000488 -0.096055 0.069757
32  1.215374 0.000002 -0.000010  -0.000000 0.000000 0.130882
33  1.215373 -0.000000 -0.000001  0.000000 0.000000 1.151880
34  4.220536 -0.244855 0.431470  -0.011400 0.078000 0.147658
35  1.350417 0.000001 -0.000006  0.000000 -0.000000 0.977377
36  1.350410 -0.000003 0.000001  0.000000 -0.000000 1.518434
37  4.262825 -0.232722 -1.392178  0.021250 -0.052274 0.146778
38  2.110544 -0.000003 -0.000000  0.102935 0.247224 -0.196190
39  0.891922 2.373053 -0.014528  -3.141592 -0.000001 1.413797
40  7.228109 5.709445 3.726568  3.140796 -1.570796 0.000000
41  2.450433 5.076126 0.001325  -3.081308 -1.570796 0.000000
42  6.312405 -4.528059 0.001311  -3.081312 -1.570796 0.000000
43  2.233305 1.152536 -7.309138  -1.044456 -1.534594 -0.988711
44  3.061500 2.842763 2.243589  0.000000 -0.000000 1.570796
time 3
0  1.278347 8.258556 38.211269  -0.032789 -0.000650 -1.631917
1  1.363651 0.101566 0.000002  -0.000030 -1.518469 -1.570772
2  -0.000011 0.000008 4.427393  -0.149096 -3.138875 0.101937
3  18.465939 0.000001 0.000000  -0.000000 -0.000000 -0.309601
4  14.875443 0.000001 -0.000000  0.036670 -0.030665 0.388482
5  -0.000002 -0.000004 -4.427392  0.087615 3.102417 -0.364109
6  18.465944 -0.000001 -0.000001  -0.000000 -0.000000 -0.544773
7  14.875443 0.000000 0.000001  0.057494 -0.014698 0.179152
8  2.251287 -0.007574 0.117194  -0.066331 -0.001572 -0.135293
9  9.514222 -0.009357 0.000000  0.024649 -0.102897 -0.044531
10  11.752193 -0.001491 -0.000000  -0.034168 0.101832 0.134367
11  -2.424298 0.137010 2.423162  -0.077188 -1.168613 3.076366
12  4.640942 0.000001 -0.000009  -0.860773 0.512719 -1.705284
13  10.828048 -0.000001 -0.000001  -0.132023 0.137170 -1.019286
14  9.393339 -0.000003 0.000005  -2.045769 -0.447170 0.433411
15  1.442246 0.107453 -1.746178  1.545041 0.350655 0.094987
16  1.063450 0.000001 -0.000001  0.000000 0.000000 0.199056
17  1.376303 0.000000 0.000001  -0.000000 -0.000000 0.199049
18  4.172847 -0.251363 -1.312750  0.008014 -0.043889 0.147537
19  1.215369 0.000003 0.000001  0.000000 0.000000 0.645758
20  1.215370 -0.000001 0.000006  -0.000000 -0.000000 0.881369
21  4.220532 -0.244853 -0.431464  0.001333 0.026242 0.148339
22  1.350415 0.000002 -0.000001  0.000000 0.000000 0.733035
23  1.350406 0.000001 0.000000  -0.000000 0.000000 1.256600
24  -1.889125 0.316715 -2.845044  0.445518 1.274322 -2.864594
25  4.640945 0.000004 0.000006  -1.395429 -0.620384 0.850725
26  10.828045 0.000001 -0.000003  -0.708222 0.241465 -2.508647
27  9.393335 -0.000002 -0.000009  2.138403 0.333846 -0.033065
28  1.442241 0.107455 1.746178  -2.449551 -0.338953 0.923133
29  1.063454 -0.000007 -0.000008  -0.000000 -0.000000 0.366516
30  1.376307 -0.000008 0.000004  0.000000 -0.000000 0.811565
31  4.172844 -0.251364 1.312755  -0.000488 -0.096055 0.069757
32  1.215364 0.000003 -0.000006  -0.000000 -0.000000 0.130882
33  1.215369 -0.000001 -0.000005  0.000000 0.000000 1.151880
34  4.220533 -0.244853 0.431474  -0.011400 0.078000 0.147658
35  1.350415 0.000000 -0.000009  -0.000000 -0.000000 0.977377
36  1.350411 0.000003 0.000002  0.000000 -0.000000 1.518434
37  4.262824 -0.232721 -1.392175  0.021250 -0.052274 0.146778
38  2.110544 -0.000003 -0.000000  0.102935 0.247224 -0.196190
39  0.891922 2.373053 -0.014528  -3.141592 -0.000001 1.413797
40  7.228109 5.709445 3.726568  3.140796 -1.570796 0.000000
41  2.450433 5.076126 0.001325  -3.081308 -1.570796 0.000000
42  6.312405 -4.528059 0.001311  -3.081312 -1.570796 0.000000
43  2.233305 1.152536 -7.309138  -1.044456 -1.534594 -0.988711
44  3.061500 2.842763 2.243589  0.000000 -0.000000 1.570796
time 4
0  1.278347 8.258556 38.211269  -0.032789 -0.000650 -1.631917
1  1.363651 0.101566 0.000002  -0.000030 -1.518469 -1.570772
2  -0.000011 0.000008 4.427393  -0.149096 -3.138875 0.101937
3  18.465939 0.000001 0.000000  -0.000000 -0.000000 -0.309601
4  14.875443 0.000001 -0.000000  0.036670 -0.030665 0.388482
5  -0.000002 -0.000004 -4.427392  0.087615 3.102417 -0.364109
6  18.465944 -0.000001 -0.000001  -0.000000 -0.000000 -0.544773
7  14.875443 0.000000 0.000001  0.057494 -0.014698 0.179152
8  2.251287 -0.007574 0.117194  -0.066331 -0.001572 -0.135293
9  9.514222 -0.009357 0.000000  0.024649 -0.102897 -0.044531
10  11.752193 -0.001491 -0.000000  -0.034168 0.101832 0.134367
11  -2.424298 0.137010 2.423162  -0.077188 -1.168613 3.076366
12  4.640942 0.000001 -0.000009  -0.863302 0.503341 -1.713212
13  10.828046 -0.000003 0.000001  -0.129458 0.131525 -0.997442
14  9.393341 0.000001 0.000002  -2.045769 -0.447170 0.433411
15  1.442246 0.107453 -1.746180  1.545041 0.350655 0.094987
16  1.063447 -0.000004 -0.000002  -0.000000 0.000000 0.199056
17  1.376303 -0.000001 0.000000  -0.000000 -0.000000 0.199049
18  4.172848 -0.251362 -1.312754  0.008014 -0.043889 0.147537
19  1.215367 0.000002 -0.000007  -0.000000 0.000000 0.645758
20  1.215368 0.000003 0.000006  0.000000 -0.000000 0.881369
21  4.220533 -0.244853 -0.431468  0.001333 0.026242 0.148339
22  1.350416 0.000001 0.000006  0.000000 -0.000000 0.733035
23  1.350410 0.000001 0.000000  -0.000000 0.000000 1.256600
24  -1.889125 0.316715 -2.845044  0.445518 1.274322 -2.864594
25  4.640945 0.000004 0.000006  -1.382882 -0.639858 0.836459
26  10.828051 -0.000005 -0.000004  -0.702445 0.244159 -2.491505
27  9.393336 -0.000006 -0.000007  2.138403 0.333846 -0.033065
28  1.442244 0.107455 1.746178  -2.449551 -0.338953 0.923133
29  1.063452 -0.000003 0.000001  -0.000000 -0.000000 0.366516
30  1.376305 -0.000010 0.000000  0.000000 -0.000000 0.811565
31  4.172845 -0.251364 1.312752  -0.000488 -0.096055 0.069757
32  1.215364 0.000002 -0.000006  -0.000000 -0.000000 0.130882
33  1.215377 -0.000001 0.000004  -0.000000 -0.000000 1.151880
34  4.220536 -0.244854 0.431473  -0.011400 0.078000 0.147658
35  1.350414 -0.000000 -0.000005  0.000000 0.000000 0.977377
36  1.350410 -0.000000 0.000003  0.000000 0.000000 1.518434
37  4.262826 -0.232720 -1.392178  0.021250 -0.052274 0.146778
38  2.110544 -0.000003 -0.000000  0.102935 0.247224 -0.196190
39  0.891922 2.373053 -0.014528  -3.141592 -0.000001 1.413797
40  7.228109 5.709445 3.726568  3.140796 -1.570796 0.000000
41  2.450433 5.076126 0.001325  -3.081308 -1.570796 0.000000
42  6.312405 -4.528059 0.001311  -3.081312 -1.570796 0.000000
43  2.233305 1.152536 -7.309138  -1.044456 -1.534594 -0.988711
44  3.061500 2.842763 2.243589  0.000000 -0.000000 1.570796
time 5
0  1.278347 8.258556 38.211269  -0.032789 -0.000650 -1.631917
1  1.363651 0.101566 0.000002  -0.000030 -1.518469 -1.570772
2  -0.000011 0.000008 4.427393  -0.149096 -3.138875 0.101937
3  18.465939 0.000001 0.000000  -0.000000 -0.000000 -0.309601
4  14.875443 0.000001 -0.000000  0.036670 -0.030665 0.388482
5  -0.000002 -0.000004 -4.427392  0.087615 3.102417 -0.364109
6  18.465944 -0.000001 -0.000001  -0.000000 -0.000000 -0.544773
7  14.875443 0.000000 0.000001  0.057494 -0.014698 0.179152
8  2.251287 -0.007574 0.117194  -0.066331 -0.001572 -0.135293
9  9.514222 -0.009357 0.000000  0.024649 -0.102897 -0.044531
10  11.752193 -0.001491 -0.000000  -0.034168 0.101832 0.134367
11  -2.424298 0.137010 2.423162  -0.077188 -1.168613 3.076366
12  4.640942 0.000001 -0.000009  -0.869299 0.479229 -1.733480
13  10.828047 0.000001 -0.000002  -0.122843 0.116967 -0.941106
14  9.393336 0.000002 0.000004  -2.045769 -0.447170 0.433411
15  1.442241 0.107449 -1.746183  1.545041 0.350655 0.094987
16  1.063447 -0.000006 0.000000  0.000000 -0.000000 0.199056
17  1.376306 -0.000005 -0.000002  -0.000000 -0.000000 0.199049
18  4.172844 -0.251367 -1.312756  0.008014 -0.043889 0.147537
19  1.215368 -0.000001 -0.000000  0.000000 0.000000 0.645758
20  1.215367 0.000001 0.000001  0.000000 -0.000000 0.881369
21  4.220531 -0.244857 -0.431472  0.001333 0.026242 0.148339
22  1.350413 0.000002 -0.000004  -0.000000 -0.000000 0.733035
23  1.350404 -0.000003 0.000004  -0.000000 0.000000 1.256600
24  -1.889125 0.316715 -2.845044  0.445518 1.274322 -2.864594
25  4.640945 0.000004 0.000006  -1.348640 -0.689460 0.797080
26  10.828048 0.000002 -0.000003  -0.687547 0.251108 -2.447299
27  9.393333 -0.000004 -0.000010  2.138403 0.333846 -0.033065
28  1.442243 0.107456 1.746178  -2.449551 -0.338953 0.923133
29  1.063452 -0.000004 0.000003  -0.000000 -0.000000 0.366516
30  1.376307 -0.000008 -0.000006  0.000000 0.000000 0.811565
31  4.172846 -0.251364 1.312752  -0.000488 -0.096055 0.069757
32  1.215371 0.000001 -0.000004  -0.000000 0.000000 0.130882
33  1.215377 0.000000 -0.000001  0.000000 -0.000000 1.151880
34  4.220532 -0.244854 0.431467  -0.011400 0.078000 0.147658
35  1.350412 -0.000001 -0.000008  -0.000000 -0.000000 0.977377
36  1.350408 0.000002 0.000014  0.000000 -0.000000 1.518434
37  4.262825 -0.232720 -1.392180  0.021250 -0.052274 0.146778
38  2.110544 -0.000003 -0.000000  0.102935 0.247224 -0.196190
39  0.891922 2.373053 -0.014528  -3.141592 -0.000001 1.413797
40  7.228109 5.709445 3.726568  3.140796 -1.570796 0.000000
41  2.450433 5.076126 0.001325  -3.081308 -1.570796 0.000000
42  6.312405 -4.528059 0.001311  -3.081312 -1.570796 0.000000
43  2.233305 1.152536 -7.309138  -1.044456 -1.534594 -0.988711
44  3.061500 2.842763 2.243589  0.000000 -0.000000 1.570796
time 6
0  1.278347 8.258556 38.211269  -0.032789 -0.000650 -1.631917
1  1.363651 0.101566 0.000002  -0.000030 -1.518469 -1.570772
2  -0.000011 0.000008 4.427393  -0.149096 -3.138875 0.101937
3  18.465939 0.000001 0.000000  -0.000000 -0.000000 -0.309601
4  14.875443 0.000001 -0.000000  0.036670 -0.030665 0.388482
5  -0.000002 -0.000004 -4.427392  0.087615 3.102417 -0.364109
6  18.465944 -0.000001 -0.000001  -0.000000 -0.000000 -0.544773
7  14.875443 0.000000 0.000001  0.057494 -0.014698 0.179152
8  2.251287 -0.007574 0.117194  -0.066331 -0.001572 -0.135293
9  9.514222 -0.009357 0.000000  0.024649 -0.102897 -0.044531
10  11.752193 -0.001491 -0.000000  -0.034168 0.101832 0.134367
11  -2.424298 0.137010 2.423162  -0.077188 -1.168613 3.076366
12  4.640942 0.000001 -0.000009  -0.876309 0.446454 -1.760841
13  10.828048 0.000005 0.000004  -0.113797 0.097061 -0.864076
14  9.393341 0.000000 0.000002  -2.045769 -0.447170 0.433411
15  1.442243 0.107455 -1.746181  1.545041 0.350655 0.094987
16  1.063448 0.000002 -0.000001  -0.000000 0.000000 0.199056
17  1.376305 -0.000004 -0.000002  -0.000000 -0.000000 0.199049
18  4.172848 -0.251360 -1.312754  0.008014 -0.043889 0.147537
19  1.215366 -0.000000 -0.000000  0.000000 -0.000000 0.645758
20  1.215369 -0.000000 0.000001  -0.000000 -0.000000 0.881369
21  4.220531 -0.244852 -0.431465  0.001333 0.026242 0.148339
22  1.350414 0.000002 -0.000003  0.000000 -0.000000 0.733035
23  1.350406 0.000002 -0.000002  -0.000000 0.000000 1.256600
24  -1.889125 0.316715 -2.845044  0.445518 1.274322 -2.864594
25  4.640945 0.000004 0.000006  -1.296627 -0.755579 0.736441
26  10.828047 0.000001 -0.000003  -0.667176 0.260609 -2.386853
27  9.393334 -0.000002 -0.000007  2.138403 0.333846 -0.033065
28  1.442240 0.107455 1.746172  -2.449551 -0.338953 0.923133
29  1.063454 -0.000006 -0.000005  -0.000000 -0.000000 0.366516
30  1.376308 -0.000009 0.000003  0.000000 -0.000000 0.811565
31  4.172844 -0.251365 1.312749  -0.000488 -0.096055 0.069757
32  1.215365 0.000001 -0.000003  -0.000000 0.000000 0.130882
33  1.215370 -0.000000 0.000005  -0.000000 -0.000000 1.151880
34  4.220534 -0.244854 0.431467  -0.011400 0.078000 0.147658
35  1.350418 -0.000000 -0.000003  -0.000000 -0.000000 0.977377
36  1.350409 0.000000 0.000004  -0.000000 0.000000 1.518434
37  4.262825 -0.232721 -1.392176  0.021250 -0.052274 0.146778
38  2.110544 -0.000003 -0.000000  0.102935 0.247224 -0.196190
39  0.891922 2.373053 -0.014528  -3.141592 -0.000001 1.413797
40  7.228109 5.709445 3.726568  3.140796 -1.570796 0.000000
41  2.450433 5.076126 0.001325  -3.081308 -1.570796 0.000000
42  6.312405 -4.528059 0.001311  -3.081312 -1.570796 0.000000
43  2.233305 1.152536 -7.309138  -1.044456 -1.534594 -0.988711
44  3.061500 2.842763 2.243589  0.000000 -0.000000 1.570796
time 7
0  1.278347 8.258556 38.211269  -0.032789 -0.000650 -1.631917
1  1.363651 0.101566 0.000002  -0.000030 -1.518469 -1.570772
2  -0.000011 0.000008 4.427393  -0.149096 -3.138875 0.101937
3  18.465939 0.000001 0.000000  -0.000000 -0.000000 -0.309601
4  14.875443 0.000001 -0.000000  0.036670 -0.030665 0.388482
5  -0.000002 -0.000004 -4.427392  0.087615 3.102417 -0.364109
6  18.465944 -0.000001 -0.000001  -0.000000 -0.000000 -0.544773
7  14.875443 0.000000 0.000001  0.057494 -0.014698 0.179152
8  2.251287 -0.007574 0.117194  -0.066331 -0.001572 -0.135293
9  9.514222 -0.009357 0.000000  0.024649 -0.102897 -0.044531
10  11.752193 -0.001491 -0.000000  -0.034168 0.101832 0.134367
11  -2.424298 0.137010 2.423162  -0.077188 -1.168613 3.076366
12  4.640942 0.000001 -0.000009  -0.882444 0.411038 -1.790282
13  10.828048 0.000003 -0.000001  -0.103941 0.075372 -0.780147
14  9.393337 -0.000003 0.000001  -2.045769 -0.447170 0.433411
15  1.442246 0.107453 -1.746174  1.545041 0.350655 0.094987
16  1.063454 0.000001 -0.000001  -0.000000 0.000000 0.199056
17  1.376310 -0.000003 -0.000000  -0.000000 0.000000 0.199049
18  4.172848 -0.251364 -1.312744  0.008014 -0.043889 0.147537
19  1.215370 0.000004 -0.000002  0.000000 -0.000000 0.645758
20  1.215371 0.000001 -0.000002  0.000000 -0.000000 0.881369
21  4.220532 -0.244854 -0.431459  0.001333 0.026242 0.148339
22  1.350412 0.000004 0.000003  0.000000 -0.000000 0.733035
23  1.350411 0.000000 0.000002  0.000000 0.000000 1.256600
24  -1.889125 0.316715 -2.845044  0.445518 1.274322 -2.864594
25  4.640945 0.000004 0.000006  -1.231426 -0.824789 0.659774
26  10.828052 -0.000000 -0.000003  -0.644981 0.270960 -2.320994
27  9.393334 -0.000008 -0.000005  2.138403 0.333846 -0.033065
28  1.442243 0.107455 1.746171  -2.449551 -0.338953 0.923133
29  1.063453 -0.000006 -0.000005  -0.000000 0.000000 0.366516
30  1.376309 -0.000014 0.000001  -0.000000 -0.000000 0.811565
31  4.172845 -0.251364 1.312748  -0.000488 -0.096055 0.069757
32  1.215369 0.000002 -0.000004  -0.000000 0.000000 0.130882
33  1.215375 -0.000001 0.000007  0.000000 0.000000 1.151880
34  4.220532 -0.244854 0.431462  -0.011400 0.078000 0.147658
35  1.350415 0.000001 0.000001  -0.000000 -0.000000 0.977377
36  1.350406 0.000001 -0.000000  0.000000 -0.000000 1.518434
37  4.262824 -0.232722 -1.392183  0.021250 -0.052274 0.146778
38  2.110544 -0.000003 -0.000000  0.102935 0.247224 -0.196190
39  0.891922 2.373053 -0.014528  -3.141592 -0.000001 1.413797
40  7.228109 5.709445 3.726568  3.140796 -1.570796 0.000000
41  2.450433 5.076126 0.001325  -3.081308 -1.570796 0.000000
42  6.312405 -4.528059 0.001311  -3.081312 -1.570796 0.000000
43  2.233305 1.152536 -7.309138  -1.044456 -1.534594 -0.988711
44  3.061500 2.842763 2.243589  0.000000 -0.000000 1.570796
time 8
0  1.278347 8.258556 38.211269  -0.032789 -0.000650 -1.631917
1  1.363651 0.101566 0.000002  -0.000030 -1.518469 -1.570772
2  -0.000011 0.000008 4.427393  -0.149096 -3.138875 0.101937
3  18.465939 0.000001 0.000000  -0.000000 -0.000000 -0.309601
4  14.875443 0.000001 -0.000000  0.036670 -0.030665 0.388482
5  -0.000002 -0.000004 -4.427392  0.087615 3.102417 -0.364109
6  18.465944 -0.000001 -0.000001  -0.000000 -0.000000 -0.544773
7  14.875443 0.000000 0.000001  0.057494 -0.014698 0.179152
8  2.251287 -0.007574 0.117194  -0.066331 -0.001572 -0.135293
9  9.514222 -0.009357 0.000000  0.024649 -0.102897 -0.044531
10  11.752193 -0.001491 -0.000000  -0.034168 0.101832 0.134367
11  -2.424298 0.137010 2.423162  -0.077188 -1.168613 3.076366
12  4.640942 0.000001 -0.000009  -0.886747 0.378841 -1.817053
13  10.828049 -0.000000 -0.000002  -0.094896 0.055465 -0.703117
14  9.393337 -0.000002 0.000005  -2.045769 -0.447170 0.433411
15  1.442241 0.107453 -1.746177  1.545041 0.350655 0.094987
16  1.063449 0.000000 -0.000003  0.000000 -0.000000 0.199056
17  1.376307 0.000001 0.000002  -0.000000 -0.000000 0.199049
18  4.172842 -0.251363 -1.312749  0.008014 -0.043889 0.147537
19  1.215367 -0.000000 -0.000004  -0.000000 -0.000000 0.645758
20  1.215369 0.000002 0.000004  0.000000 -0.000000 0.881369
21  4.220529 -0.244854 -0.431465  0.001333 0.026242 0.148339
22  1.350415 0.000002 -0.000000  -0.000000 -0.000000 0.733035
23  1.350407 0.000000 -0.000003  0.000000 0.000000 1.256600
24  -1.889125 0.316715 -2.845044  0.445518 1.274322 -2.864594
25  4.640945 0.000004 0.000006  -1.161723 -0.884959 0.577677
26  10.828054 -0.000002 -0.000004  -0.624610 0.280461 -2.260548
27  9.393336 -0.000007 -0.000008  2.138403 0.333846 -0.033065
28  1.442239 0.107455 1.746171  -2.449551 -0.338953 0.923133
29  1.063450 -0.000005 -0.000005  -0.000000 0.000000 0.366516
30  1.376302 -0.000010 -0.000003  0.000000 -0.000000 0.811565
31  4.172842 -0.251364 1.312748  -0.000488 -0.096055 0.069757
32  1.215369 0.000002 0.000002  -0.000000 -0.000000 0.130882
33  1.215372 -0.000001 0.000000  0.000000 0.000000 1.151880
34  4.220531 -0.244855 0.431464  -0.011400 0.078000 0.147658
35  1.350415 0.000002 -0.000006  -0.000000 -0.000000 0.977377
36  1.350409 -0.000001 0.000006  -0.000000 0.000000 1.518434
37  4.262824 -0.232721 -1.392180  0.021250 -0.052274 0.146778
38  2.110544 -0.000003 -0.000000  0.102935 0.247224 -0.196190
39  0.891922 2.373053 -0.014528  -3.141592 -0.000001 1.413797
40  7.228109 5.709445 3.726568  3.140796 -1.570796 0.000000
41  2.450433 5.076126 0.001325  -3.081308 -1.570796 0.000000
42  6.312405 -4.528059 0.001311  -3.081312 -1.570796 0.000000
43  2.233305 1.152536 -7.309138  -1.044456 -1.534594 -0.988711
44  3.061500 2.842763 2.243589  0.000000 -0.000000 1.570796
time 9
0  1.278347 8.258556 38.211269  -0.032789 -0.000650 -1.631917
1  1.363651 0.101566 0.000002  -0.000030 -1.518469 -1.570772
2  -0.000011 0.000008 4.427393  -0.149096 -3.138875 0.101937
3  18.465939 0.000001 0.000000  -0.000000 -0.000000 -0.309601
4  14.875443 0.000001 -0.000000  0.036670 -0.030665 0.388482
5  -0.000002 -0.000004 -4.427392  0.087615 3.102417 -0.364109
6  18.465944 -0.000001 -0.000001  -0.000000 -0.000000 -0.544773
7  14.875443 0.000000 0.000001  0.057494 -0.014698 0.179152
8  2.251287 -0.007574 0.117194  -0.066331 -0.001572 -0.135293
9  9.514222 -0.009357 0.000000  0.024649 -0.102897 -0.044531
10  11.752193 -0.001491 -0.000000  -0.034168 0.101832 0.134367
11  -2.424298 0.137010 2.423162  -0.077188 -1.168613 3.076366
12  4.640942 0.000001 -0.000009  -0.889112 0.355501 -1.836526
13  10.828047 0.000001 -0.000002  -0.088280 0.040907 -0.646781
14  9.393340 -0.000005 0.000005  -2.045769 -0.447170 0.433411
15  1.442244 0.107453 -1.746179  1.545041 0.350655 0.094987
16  1.063444 -0.000004 -0.000001  0.000000 -0.000000 0.199056
17  1.376308 0.000002 0.000000  -0.000000 -0.000000 0.199049
18  4.172847 -0.251362 -1.312749  0.008014 -0.043889 0.147537
19  1.215370 0.000002 -0.000007  -0.000000 -0.000000 0.645758
20  1.215367 0.000001 0.000010  0.000000 -0.000000 0.881369
21  4.220531 -0.244853 -0.431464  0.001333 0.026242 0.148339
22  1.350417 0.000002 -0.000001  -0.000000 -0.000000 0.733035
23  1.350407 0.000002 -0.000001  0.000000 -0.000000 1.256600
24  -1.889125 0.316715 -2.845044  0.445518 1.274322 -2.864594
25  4.640945 0.000004 0.000006  -1.103486 -0.926402 0.509251
26  10.828051 -0.000004 -0.000002  -0.609712 0.287410 -2.216341
27  9.393333 -0.000001 -0.000004  2.138403 0.333846 -0.033065
28  1.442239 0.107455 1.746168  -2.449551 -0.338953 0.923133
29  1.063456 -0.000005 -0.000000  -0.000000 0.000000 0.366516
30  1.376308 -0.000005 0.000006  0.000000 -0.000000 0.811565
31  4.172843 -0.251364 1.312749  -0.000488 -0.096055 0.069757
32  1.215364 0.000002 -0.000007  -0.000000 0.000000 0.130882
33  1.215373 -0.000001 -0.000000  -0.000000 0.000000 1.151880
34  4.220531 -0.244854 0.431464  -0.011400 0.078000 0.147658
35  1.350411 -0.000000 -0.000010  -0.000000 -0.000000 0.977377
36  1.350411 0.000000 0.000008  0.000000 0.000000 1.518434
37  4.262822 -0.232721 -1.392182  0.021250 -0.052274 0.146778
38  2.110544 -0.000003 -0.000000  0.102935 0.247224 -0.196190
39  0.891922 2.373053 -0.014528  -3.141592 -0.000001 1.413797
40  7.228109 5.709445 3.726568  3.140796 -1.570796 0.000000
41  2.450433 5.076126 0.001325  -3.081308 -1.570796 0.000000
42  6.312405 -4.528059 0.001311  -3.081312 -1.570796 0.000000
43  2.233305 1.152536 -7.309138  -1.044456 -1.534594 -0.988711
44  3.061500 2.842763 2.243589  0.000000 -0.000000 1.570796
time 10
0  1.278347 8.258556 38.211269  -0.032789 -0.000650 -1.631917
1  1.363651 0.101566 0.000002  -0.000030 -1.518469 -1.570772
2  -0.000011 0.000008 4.427393  -0.149096 -3.138875 0.101937
3  18.465939 0.000001 0.000000  -0.000000 -0.000000 -0.309601
4  14.875443 0.000001 -0.000000  0.036670 -0.030665 0.388482
5  -0.000002 -0.000004 -4.427392  0.087615 3.102417 -0.364109
6  18.465944 -0.000001 -0.000001  -0.000000 -0.000000 -0.544773
7  14.875443 0.000000 0.000001  0.057494 -0.014698 0.179152
8  2.251287 -0.007574 0.117194  -0.066331 -0.001572 -0.135293
9  9.514222 -0.009357 0.000000  0.024649 -0.102897 -0.044531
10  11.752193 -0.001491 -0.000000  -0.034168 0.101832 0.134367
11  -2.424298 0.137010 2.423162  -0.077188 -1.168613 3.076366
12  4.640942 0.000001 -0.000009  -0.889855 0.346501 -1.844059
13  10.828048 -0.000002 0.000000  -0.085715 0.035262 -0.624937
14  9.393338 0.000004 0.000003  -2.045769 -0.447170 0.433411
15  1.442244 0.107452 -1.746174  1.545041 0.350655 0.094987
16  1.063448 -0.000000 -0.000001  -0.000000 -0.000000 0.199056
17  1.376306 0.000003 0.000001  -0.000000 -0.000000 0.199049
18  4.172846 -0.251364 -1.312745  0.008014 -0.043889 0.147537
19  1.215369 0.000001 0.000002  0.000000 -0.000000 0.645758
20  1.215371 0.000000 0.000010  0.000000 -0.000000 0.881369
21  4.220532 -0.244854 -0.431460  0.001333 0.026242 0.148339
22  1.350415 0.000001 0.000001  0.000000 -0.000000 0.733035
23  1.350409 0.000002 -0.000005  -0.000000 -0.000000 1.256600
24  -1.889125 0.316715 -2.845044  0.445518 1.274322 -2.864594
25  4.640945 0.000004 0.000006  -1.079032 -0.941785 0.480591
26  10.828049 -0.000001 -0.000002  -0.603935 0.290104 -2.199200
27  9.393334 -0.000005 -0.000005  2.138403 0.333846 -0.033065
28  1.442247 0.107456 1.746177  -2.449551 -0.338953 0.923133
29  1.063450 -0.000004 0.000002  -0.000000 -0.000000 0.366516
30  1.376308 -0.000010 0.000001  0.000000 -0.000000 0.811565
31  4.172845 -0.251364 1.312751  -0.000488 -0.096055 0.069757
32  1.215366 0.000001 -0.000003  -0.000000 -0.000000 0.130882
33  1.215370 0.000000 0.000002  0.000000 0.000000 1.151880
34  4.220535 -0.244854 0.431466  -0.011400 0.078000 0.147658
35  1.350416 -0.000000 -0.000004  -0.000000 0.000000 0.977377
36  1.350407 0.000002 -0.000002  0.000000 -0.000000 1.518434
37  4.262825 -0.232721 -1.392179  0.021250 -0.052274 0.146778
38  2.110544 -0.000003 -0.000000  0.102935 0.247224 -0.196190
39  0.891922 2.373053 -0.014528  -3.141592 -0.000001 1.413797
40  7.228109 5.709445 3.726568  3.140796 -1.570796 0.000000
41  2.450433 5.076126 0.001325  -3.081308 -1.570796 0.000000
42  6.312405 -4.528059 0.001311  -3.081312 -1.570796 0.000000
43  2.233305 1.152536 -7.309138  -1.044456 -1.534594 -0.988711
44  3.061500 2.842763 2.243589  0.000000 -0.000000 1.570796
end
