version 1
nodes
0 "Hands biped" -1
1 "Bip01 Pelvis" 0
2 "Bip01 Spine" 1
3 "Bip01 Spine1" 2
4 "Bip01 Spine2" 3
5 "Bip01 Spine3" 4
6 "Bip01 Neck" 5
7 "Bip01 R Arm" 6
8 "Bip01 R Arm1" 7
9 "Bip01 R Arm2" 8
10 "Bip01 R Hand" 9
end
skeleton
time 0
0  0.001490 3.722770 -24.602341  0.000000 -0.000000 -1.570795
1  0.000000 -0.000000 0.000002  -1.570795 -1.570796 0.000000
2  1.326318 -0.003921 0.000002  -0.000004 -0.000001 0.000796
3  4.926312 -0.003923 0.000000  -0.000000 -0.000000 -0.000000
4  4.926315 -0.003923 0.000000  -0.000000 -0.000000 -0.000000
5  4.926313 -0.003923 0.000000  -0.000000 -0.000000 -0.000000
6  4.926318 -0.001509 0.000000  -0.000000 -0.000000 -0.000000
7  -0.000001 0.001514 -1.894738  -0.000014 1.370797 3.140783
8  4.926314 -0.000000 0.000001  -0.000000 -1.078934 -0.000000
9  11.368418 0.000000 0.000000  -1.226711 -0.158674 -0.145866
10  11.368423 0.000003 -0.000001  1.707635 -0.014376 -0.026593
time 1
0  0.001490 3.722770 -24.602341  0.000000 -0.000000 -1.570795
1  0.000000 -0.000000 0.000002  -1.570795 -1.570796 0.000000
2  1.326318 -0.003921 0.000002  -0.000004 -0.000001 0.000796
3  4.926312 -0.003923 0.000000  -0.000000 -0.000000 -0.000000
4  4.926315 -0.003923 0.000000  -0.000000 -0.000000 -0.000000
5  4.926313 -0.003923 0.000000  -0.000000 -0.000000 -0.000000
6  4.926318 -0.001509 0.000000  -0.000000 -0.000000 -0.000000
7  -0.000001 0.001514 -1.894738  -0.000014 1.370797 3.140783
8  4.926314 -0.000000 0.000001  -0.000000 -1.078934 -0.000000
9  11.368418 0.000000 0.000000  -1.174093 -0.150932 -0.210113
10  11.368423 0.000001 -0.000000  1.707635 -0.014376 -0.026593
time 2
0  0.001490 3.722770 -24.602341  0.000000 -0.000000 -1.570795
1  0.000000 -0.000000 0.000002  -1.570795 -1.570796 0.000000
2  1.326318 -0.003921 0.000002  -0.000004 -0.000001 0.000796
3  4.926312 -0.003923 0.000000  -0.000000 -0.000000 -0.000000
4  4.926315 -0.003923 0.000000  -0.000000 -0.000000 -0.000000
5  4.926313 -0.003923 0.000000  -0.000000 -0.000000 -0.000000
6  4.926318 -0.001509 0.000000  -0.000000 -0.000000 -0.000000
7  -0.000001 0.001514 -1.894738  -0.000014 1.370797 3.140783
8  4.926314 -0.000000 0.000001  -0.000000 -1.078934 -0.000000
9  11.368418 0.000000 0.000000  -1.035362 -0.130520 -0.379492
10  11.368422 0.000001 -0.000000  1.707635 -0.014376 -0.026593
time 3
0  0.001490 3.722770 -24.602341  0.000000 -0.000000 -1.570795
1  0.000000 -0.000000 0.000002  -1.570795 -1.570796 0.000000
2  1.326318 -0.003921 0.000002  -0.000004 -0.000001 0.000796
3  4.926312 -0.003923 0.000000  -0.000000 -0.000000 -0.000000
4  4.926315 -0.003923 0.000000  -0.000000 -0.000000 -0.000000
5  4.926313 -0.003923 0.000000  -0.000000 -0.000000 -0.000000
6  4.926318 -0.001509 0.000000  -0.000000 -0.000000 -0.000000
7  -0.000001 0.001514 -1.894738  -0.000014 1.370797 3.140783
8  4.926314 -0.000000 0.000001  -0.000000 -1.078934 -0.000000
9  11.368418 0.000000 0.000000  -0.839197 -0.101662 -0.618958
10  11.368423 0.000001 -0.000000  1.707635 -0.014376 -0.026593
time 4
0  0.001490 3.722770 -24.602341  0.000000 -0.000000 -1.570795
1  0.000000 -0.000000 0.000002  -1.570795 -1.570796 0.000000
2  1.326318 -0.003921 0.000002  -0.000004 -0.000001 0.000796
3  4.926312 -0.003923 0.000000  -0.000000 -0.000000 -0.000000
4  4.926315 -0.003923 0.000000  -0.000000 -0.000000 -0.000000
5  4.926313 -0.003923 0.000000  -0.000000 -0.000000 -0.000000
6  4.926318 -0.001509 0.000000  -0.000000 -0.000000 -0.000000
7  -0.000001 0.001514 -1.894738  -0.000014 1.370797 3.140783
8  4.926314 -0.000000 0.000001  -0.000000 -1.078934 -0.000000
9  11.368418 0.000000 0.000000  -0.614282 -0.068580 -0.893468
10  11.368423 0.000001 0.000000  1.707635 -0.014376 -0.026593
time 5
0  0.001490 3.722770 -24.602341  0.000000 -0.000000 -1.570795
1  0.000000 -0.000000 0.000002  -1.570795 -1.570796 0.000000
2  1.326318 -0.003921 0.000002  -0.000004 -0.000001 0.000796
3  4.926312 -0.003923 0.000000  -0.000000 -0.000000 -0.000000
4  4.926315 -0.003923 0.000000  -0.000000 -0.000000 -0.000000
5  4.926313 -0.003923 0.000000  -0.000000 -0.000000 -0.000000
6  4.926318 -0.001509 0.000000  -0.000000 -0.000000 -0.000000
7  -0.000001 0.001514 -1.894738  -0.000014 1.370797 3.140783
8  4.926314 -0.000000 0.000001  -0.000000 -1.078934 -0.000000
9  11.368418 0.000000 0.000000  -0.389297 -0.035498 -1.167978
10  11.368422 0.000001 -0.000000  1.707635 -0.014376 -0.026593
time 6
0  0.001490 3.722770 -24.602341  0.000000 -0.000000 -1.570795
1  0.000000 -0.000000 0.000002  -1.570795 -1.570796 0.000000
2  1.326318 -0.003921 0.000002  -0.000004 -0.000001 0.000796
3  4.926312 -0.003923 0.000000  -0.000000 -0.000000 -0.000000
4  4.926315 -0.003923 0.000000  -0.000000 -0.000000 -0.000000
5  4.926313 -0.003923 0.000000  -0.000000 -0.000000 -0.000000
6  4.926318 -0.001509 0.000000  -0.000000 -0.000000 -0.000000
7  -0.000001 0.001514 -1.894738  -0.000014 1.370797 3.140783
8  4.926314 -0.000000 0.000001  -0.000000 -1.078934 -0.000000
9  11.368418 0.000000 0.000000  -0.192924 -0.006640 -1.407444
10  11.368422 0.000003 -0.000001  1.707635 -0.014376 -0.026593
time 7
0  0.001490 3.722770 -24.602341  0.000000 -0.000000 -1.570795
1  0.000000 -0.000000 0.000002  -1.570795 -1.570796 0.000000
2  1.326318 -0.003921 0.000002  -0.000004 -0.000001 0.000796
3  4.926312 -0.003923 0.000000  -0.000000 -0.000000 -0.000000
4  4.926315 -0.003923 0.000000  -0.000000 -0.000000 -0.000000
5  4.926313 -0.003923 0.000000  -0.000000 -0.000000 -0.000000
6  4.926318 -0.001509 0.000000  -0.000000 -0.000000 -0.000000
7  -0.000001 0.001514 -1.894738  -0.000014 1.370797 3.140783
8  4.926314 -0.000000 0.000001  -0.000000 -1.078934 -0.000000
9  11.368418 0.000000 0.000000  -0.053845 0.013773 -1.576822
10  11.368422 -0.000001 0.000001  1.707635 -0.014376 -0.026593
time 8
0  0.001490 3.722770 -24.602341  0.000000 -0.000000 -1.570795
1  0.000000 -0.000000 0.000002  -1.570795 -1.570796 0.000000
2  1.326318 -0.003921 0.000002  -0.000004 -0.000001 0.000796
3  4.926312 -0.003923 0.000000  -0.000000 -0.000000 -0.000000
4  4.926315 -0.003923 0.000000  -0.000000 -0.000000 -0.000000
5  4.926313 -0.003923 0.000000  -0.000000 -0.000000 -0.000000
6  4.926318 -0.001509 0.000000  -0.000000 -0.000000 -0.000000
7  -0.000001 0.001514 -1.894738  -0.000014 1.370797 3.140783
8  4.926314 -0.000000 0.000001  -0.000000 -1.078934 -0.000000
9  11.368418 0.000000 0.000000  -0.000741 0.021515 -1.641069
10  11.368421 0.000003 0.000000  1.707635 -0.014376 -0.026593
time 9
0  0.001490 3.722770 -24.602341  0.000000 -0.000000 -1.570795
1  0.000000 -0.000000 0.000002  -1.570795 -1.570796 0.000000
2  1.326318 -0.003921 0.000002  -0.000004 -0.000001 0.000796
3  4.926312 -0.003923 0.000000  -0.000000 -0.000000 -0.000000
4  4.926315 -0.003923 0.000000  -0.000000 -0.000000 -0.000000
5  4.926313 -0.003923 0.000000  -0.000000 -0.000000 -0.000000
6  4.926318 -0.001509 0.000000  -0.000000 -0.000000 -0.000000
7  -0.000001 0.001514 -1.894738  -0.000014 1.370797 3.140783
8  4.926314 -0.000000 0.000001  -0.000000 -1.078934 -0.000000
9  11.368418 0.000000 0.000000  -0.000313 0.018154 -1.629869
10  11.368422 -0.000000 -0.000000  1.707635 -0.014376 -0.026593
time 10
0  0.001490 3.722770 -24.602341  0.000000 -0.000000 -1.570795
1  0.000000 -0.000000 0.000002  -1.570795 -1.570796 0.000000
2  1.326318 -0.003921 0.000002  -0.000004 -0.000001 0.000796
3  4.926312 -0.003923 0.000000  -0.000000 -0.000000 -0.000000
4  4.926315 -0.003923 0.000000  -0.000000 -0.000000 -0.000000
5  4.926313 -0.003923 0.000000  -0.000000 -0.000000 -0.000000
6  4.926318 -0.001509 0.000000  -0.000000 -0.000000 -0.000000
7  -0.000001 0.001514 -1.894738  -0.000014 1.370797 3.140783
8  4.926314 -0.000000 0.000001  -0.000000 -1.078934 -0.000000
9  11.368418 0.000000 0.000000  -0.000093 0.010758 -1.605229
10  11.368421 -0.000000 0.000001  1.707635 -0.014376 -0.026593
time 11
0  0.001490 3.722770 -24.602341  0.000000 -0.000000 -1.570795
1  0.000000 -0.000000 0.000002  -1.570795 -1.570796 0.000000
2  1.326318 -0.003921 0.000002  -0.000004 -0.000001 0.000796
3  4.926312 -0.003923 0.000000  -0.000000 -0.000000 -0.000000
4  4.926315 -0.003923 0.000000  -0.000000 -0.000000 -0.000000
5  4.926313 -0.003923 0.000000  -0.000000 -0.000000 -0.000000
6  4.926318 -0.001509 0.000000  -0.000000 -0.000000 -0.000000
7  -0.000001 0.001514 -1.894738  -0.000014 1.370797 3.140783
8  4.926314 -0.000000 0.000001  -0.000000 -1.078934 -0.000000
9  11.368418 0.000000 0.000000  -0.000012 0.003362 -1.580589
10  11.368422 0.000001 0.000001  1.707635 -0.014376 -0.026593
time 12
0  0.001490 3.722770 -24.602341  0.000000 -0.000000 -1.570795
1  0.000000 -0.000000 0.000002  -1.570795 -1.570796 0.000000
2  1.326318 -0.003921 0.000002  -0.000004 -0.000001 0.000796
3  4.926312 -0.003923 0.000000  -0.000000 -0.000000 -0.000000
4  4.926315 -0.003923 0.000000  -0.000000 -0.000000 -0.000000
5  4.926313 -0.003923 0.000000  -0.000000 -0.000000 -0.000000
6  4.926318 -0.001509 0.000000  -0.000000 -0.000000 -0.000000
7  -0.000001 0.001514 -1.894738  -0.000014 1.370797 3.140783
8  4.926314 -0.000000 0.000001  -0.000000 -1.078934 -0.000000
9  11.368418 0.000000 0.000000  0.000000 -0.000000 -1.569389
10  11.368422 0.000001 -0.000000  1.707635 -0.014376 -0.026593
end
