version 1
nodes
0 "Bip01" -1
1 "Bip01 Pelvis" 0
2 "Bip01 L Thigh" 1
3 "Bip01 L Calf" 2
4 "Bip01 L Foot" 3
5 "Bip01 R Thigh" 1
6 "Bip01 R Calf" 5
7 "Bip01 R Foot" 6
8 "Bip01 Spine" 1
9 "Bip01 Spine1" 8
10 "Bip01 Neck" 9
11 "Bip01 L Clavicle" 10
12 "Bip01 L UpperArm" 11
13 "Bip01 L Forearm" 12
14 "Bip01 L Hand" 13
15 "Bip01 L Finger0" 14
16 "Bip01 L Finger01" 15
17 "Bip01 L Finger02" 16
18 "Bip01 L Finger1" 14
19 "Bip01 L Finger11" 18
20 "Bip01 L Finger12" 19
21 "Bip01 L Finger2" 14
22 "Bip01 L Finger21" 21
23 "Bip01 L Finger22" 22
24 "Bip01 R Clavicle" 10
25 "Bip01 R UpperArm" 24
26 "Bip01 R Forearm" 25
27 "Bip01 R Hand" 26
28 "Bip01 R Finger0" 27
29 "Bip01 R Finger01" 28
30 "Bip01 R Finger02" 29
31 "Bip01 R Finger1" 27
32 "Bip01 R Finger11" 31
33 "Bip01 R Finger12" 32
34 "Bip01 R Finger2" 27
35 "Bip01 R Finger21" 34
36 "Bip01 R Finger22" 35
37 "Bip01 R Finger4" 27
38 "Bip01 Head" 10
39 "Bone05" 38
40 "Bone08" 9
41 "Bone16" 8
42 "Bone01" 8
43 "Bone03" 1
44 "Box01" -1
end
skeleton
time 0
0  0.420091 1.059590 39.345757  0.000000 -0.000000 -1.570795
1  -0.245774 -0.000000 0.000000  -1.021376 -1.570400 -0.549426
2  -0.000923 0.000008 4.427392  -0.000317 -3.130563 -0.072680
3  18.465935 -0.000130 -0.000070  -0.000001 0.000015 -0.242158
4  14.875449 0.000417 0.000167  0.001118 -0.017827 0.169459
5  0.000926 -0.000004 -4.427392  0.000288 3.130167 -0.072680
6  18.465940 -0.000130 0.000427  0.000006 -0.000034 -0.242158
7  14.875444 0.000418 -0.000167  -0.001115 0.005127 0.169473
8  2.255210 -0.007558 0.000470  -0.000004 -0.000184 0.000803
9  9.514226 -0.009356 0.000233  -0.000000 0.000000 0.000000
10  11.752196 -0.001491 0.000288  -0.000011 -0.000023 0.478763
11  -1.967263 0.937800 2.649730  0.088017 -1.370041 2.575769
12  4.640935 0.000003 0.000002  -0.049948 1.052208 -0.032372
13  10.828042 0.000102 0.000002  -0.000007 -0.000003 -0.409434
14  9.393347 0.000029 -0.000004  -1.569609 -0.000001 0.165807
15  1.442248 0.107452 -1.746175  1.585941 0.550077 0.132381
16  1.063451 0.000005 -0.000003  -0.000001 -0.000000 0.183259
17  1.376312 0.000004 -0.000002  0.000003 0.000001 0.148356
18  4.172847 -0.251363 -1.312735  -0.001197 0.096043 0.052253
19  1.215375 -0.000006 -0.000013  0.000007 0.000014 0.052348
20  1.215372 0.000006 0.000005  -0.000001 -0.000006 0.052366
21  4.220532 -0.244849 -0.431456  -0.001189 0.026230 0.052339
22  1.350415 -0.000011 -0.000012  0.000005 0.000014 0.052346
23  1.350408 0.000004 0.000005  -0.000003 -0.000009 0.052368
24  -1.967258 0.937811 -2.649725  -0.088049 1.370038 2.575735
25  4.640945 0.000012 -0.000000  0.049954 -1.052208 -0.032362
26  10.828055 0.000041 -0.000000  -0.000004 -0.000002 -0.409434
27  9.393341 -0.000020 0.000000  1.569610 0.000000 0.165802
28  1.442248 0.107459 1.746178  -1.585941 -0.550075 0.132380
29  1.063451 -0.000002 0.000001  -0.000004 -0.000002 0.183258
30  1.376310 -0.000003 -0.000003  0.000002 0.000000 0.148356
31  4.172848 -0.251363 1.312741  0.001195 -0.096044 0.052256
32  1.215372 -0.000010 0.000012  -0.000007 -0.000013 0.052347
33  1.215374 0.000004 -0.000004  0.000001 0.000005 0.052365
34  4.220537 -0.244850 0.431461  0.001182 -0.026251 0.052318
35  1.350415 0.000015 -0.000017  0.000001 0.000006 0.052369
36  1.350412 0.000002 -0.000003  0.000003 0.000009 0.052368
37  4.262825 -0.232718 -1.392183  0.001185 0.078468 0.052445
38  2.110545 0.000018 -0.000000  0.000000 0.000001 -0.322560
39  0.891931 2.373047 -0.014527  -3.141592 -0.000002 1.413796
40  7.228031 5.709447 3.726745  3.140790 -1.570772 0.000000
41  2.450426 5.076128 0.001385  3.140790 -1.570772 0.000000
42  6.312409 -4.528057 0.001466  3.140790 -1.570772 0.000000
43  2.234815 1.152551 -7.308675  -1.569191 -1.571002 -0.001598
44  3.061500 2.842763 2.243589  0.000000 -0.000000 1.570796
end
triangles
shotside.bmp
27  -13.571594 -5.979132 33.751045  -0.996618 -0.011820 0.081319  0.887324 0.942857
27  -13.524772 -5.422928 34.405762  -0.996618 -0.011829 0.081321  0.873239 0.914286
27  -13.593775 -5.774310 33.508995  -0.996618 -0.011822 0.081319  0.901408 0.914286
shotside.bmp
27  -13.593775 -5.774310 33.508995  -0.996618 -0.011822 0.081319  0.901408 0.914286
27  -13.524772 -5.422928 34.405762  -0.996618 -0.011829 0.081321  0.873239 0.914286
27  -13.539722 -5.099126 34.269619  -0.996618 -0.011830 0.081321  0.873239 0.885714
shotside.bmp
27  -13.524772 -5.422928 34.405762  -0.996618 -0.011829 0.081321  0.873239 0.914286
27  -13.437891 -5.350756 35.480995  -0.996618 -0.011832 0.081322  0.845070 0.885714
27  -13.539722 -5.099126 34.269619  -0.996618 -0.011830 0.081321  0.873239 0.885714
shotside.bmp
27  -13.539722 -5.099126 34.269619  -0.996618 -0.011830 0.081321  0.873239 0.885714
27  -13.437891 -5.350756 35.480995  -0.996618 -0.011832 0.081322  0.845070 0.885714
27  -13.429966 -4.984705 35.631363  -0.996618 -0.011833 0.081321  0.845070 0.885714
shotside.bmp
27  -13.148050 -5.418458 34.375019  0.996618 0.011825 -0.081321  0.873239 0.914286
27  -13.053245 -4.980235 35.600624  0.996618 0.011825 -0.081322  0.845070 0.885714
27  -13.061170 -5.346285 35.450256  0.996618 0.011825 -0.081322  0.845070 0.885714
shotside.bmp
27  -13.148050 -5.418458 34.375019  0.996618 0.011825 -0.081321  0.873239 0.914286
27  -13.163001 -5.094656 34.238876  0.996618 0.011825 -0.081320  0.873239 0.885714
27  -13.053245 -4.980235 35.600624  0.996618 0.011825 -0.081322  0.845070 0.885714
shotside.bmp
27  -13.148050 -5.418458 34.375019  0.996618 0.011825 -0.081321  0.873239 0.914286
27  -13.217053 -5.769840 33.478256  0.996618 0.011825 -0.081320  0.901408 0.914286
27  -13.163001 -5.094656 34.238876  0.996618 0.011825 -0.081320  0.873239 0.885714
shotside.bmp
27  -13.148050 -5.418458 34.375019  0.996618 0.011827 -0.081320  0.873239 0.914286
27  -13.194873 -5.974661 33.720306  0.996618 0.011827 -0.081320  0.887324 0.942857
27  -13.217053 -5.769840 33.478256  0.996618 0.011827 -0.081320  0.901408 0.914286
shotside.bmp
27  -15.304049 -9.926125 17.798634  -0.993901 -0.040006 0.102765  0.647887 0.600000
27  -15.536633 -8.440790 16.111107  -0.993912 -0.040368 0.102517  0.690141 0.514286
27  -15.487947 -9.797586 16.080051  -0.993893 -0.040023 0.102834  0.690141 0.600000
shotside.bmp
27  -15.487947 -9.797586 16.080051  -0.993893 -0.040023 0.102834  0.690141 0.600000
27  -15.536633 -8.440790 16.111107  -0.993912 -0.040368 0.102517  0.690141 0.514286
27  -15.955961 -9.742579 10.352404  -0.993896 -0.040007 0.102807  0.760563 0.600000
shotside.bmp
27  -15.536633 -8.440790 16.111107  -0.993912 -0.040368 0.102517  0.690141 0.514286
27  -16.005383 -8.370718 10.376640  -0.993898 -0.040006 0.102793  0.760563 0.514286
27  -15.955961 -9.742579 10.352404  -0.993896 -0.040007 0.102807  0.760563 0.600000
shotside.bmp
27  -14.512449 -8.353003 10.254822  0.998115 -0.014470 -0.059647  0.760563 0.514286
27  -14.043699 -8.423075 15.989287  0.998095 -0.014819 -0.059884  0.690141 0.514286
27  -14.532791 -9.725691 10.236277  0.998115 -0.014467 -0.059635  0.760563 0.600000
shotside.bmp
27  -14.532791 -9.725691 10.236277  0.998115 -0.014467 -0.059635  0.760563 0.600000
27  -14.043699 -8.423075 15.989287  0.998095 -0.014819 -0.059884  0.690141 0.514286
27  -14.064777 -9.780698 15.963925  0.998116 -0.014484 -0.059626  0.690141 0.600000
shotside.bmp
27  -14.043699 -8.423075 15.989287  0.998095 -0.014819 -0.059884  0.690141 0.514286
27  -13.964594 -9.910230 17.689337  0.998152 -0.014395 -0.059037  0.647887 0.600000
27  -14.064777 -9.780698 15.963925  0.998116 -0.014484 -0.059626  0.690141 0.600000
shotside.bmp
27  -13.820531 -9.936725 18.934544  0.957007 -0.266222 -0.115171  0.535211 0.600000
27  -13.964594 -9.910230 17.689337  0.959264 -0.272095 -0.076009  0.647887 0.600000
27  -12.854051 -6.137527 18.161598  0.959407 -0.272098 -0.074165  0.549296 0.371429
shotside.bmp
27  -12.854051 -6.137527 18.161598  0.959407 -0.272098 -0.074165  0.549296 0.371429
27  -13.964594 -9.910230 17.689337  0.959264 -0.272095 -0.076009  0.647887 0.600000
27  -12.947756 -6.313750 16.987589  0.959986 -0.277876 -0.034799  0.661972 0.371429
shotside.bmp
27  -16.505680 -6.355971 17.277906  -0.946021 -0.300809 0.120659  0.661972 0.371429
27  -15.304049 -9.926125 17.798634  -0.952024 -0.295378 0.080013  0.647887 0.600000
27  -16.411976 -6.179748 18.451916  -0.951857 -0.295395 0.081919  0.549296 0.371429
shotside.bmp
27  -16.411976 -6.179748 18.451916  -0.951857 -0.295395 0.081919  0.549296 0.371429
27  -15.304049 -9.926125 17.798634  -0.952024 -0.295378 0.080013  0.647887 0.600000
27  -15.243701 -9.953612 19.050671  -0.956281 -0.289692 0.040065  0.535211 0.600000
shotside.bmp
27  -11.925507 -6.903156 38.468033  0.082175 -0.152289 0.984914  0.450704 0.542857
27  -14.018404 -6.927992 38.638809  0.082175 -0.152290 0.984914  0.661972 0.542857
27  -11.940080 -8.191431 38.274239  0.082175 -0.152290 0.984914  0.450704 0.485714
shotside.bmp
27  -11.940080 -8.191431 38.274239  0.082175 -0.152290 0.984914  0.450704 0.485714
27  -14.018404 -6.927992 38.638809  0.082175 -0.152290 0.984914  0.661972 0.542857
27  -14.019024 -8.216101 38.443874  0.082177 -0.152290 0.984914  0.661972 0.485714
shotside.bmp
27  -13.820531 -9.936725 18.934544  0.989481 -0.111483 -0.092189  0.535211 0.600000
27  -13.358277 -6.672403 19.995718  0.989518 -0.111366 -0.091931  0.507042 0.400000
27  -13.655874 -9.908432 20.698345  0.989535 -0.111262 -0.091873  0.492958 0.600000
shotside.bmp
27  -13.655874 -9.908432 20.698345  0.989535 -0.111262 -0.091873  0.492958 0.600000
27  -13.358277 -6.672403 19.995718  0.989518 -0.111366 -0.091931  0.507042 0.400000
27  -13.441583 -9.966553 22.885704  0.989522 -0.111372 -0.091887  0.436620 0.600000
shotside.bmp
27  -15.243701 -9.953612 19.050671  -0.988333 -0.135500 0.069554  0.535211 0.600000
27  -15.120902 -9.925817 20.817888  -0.988350 -0.135516 0.069281  0.492958 0.600000
27  -15.604653 -6.699059 20.179016  -0.988337 -0.135604 0.069287  0.507042 0.400000
shotside.bmp
27  -15.604653 -6.699059 20.179016  -0.988337 -0.135604 0.069287  0.507042 0.400000
27  -15.120902 -9.925817 20.817888  -0.988350 -0.135516 0.069281  0.492958 0.600000
27  -14.969398 -9.984683 23.010370  -0.988329 -0.135623 0.069364  0.436620 0.600000
shotside.bmp
27  -16.411976 -6.179748 18.451916  0.011949 0.958203 0.285838  0.619718 0.371429
27  -15.604653 -6.699059 20.179016  0.011955 0.958190 0.285884  0.563380 0.400000
27  -12.854051 -6.137527 18.161598  0.011957 0.958203 0.285838  0.619718 0.485714
shotside.bmp
27  -12.854051 -6.137527 18.161598  0.011957 0.958203 0.285838  0.619718 0.485714
27  -15.604653 -6.699059 20.179016  0.011955 0.958190 0.285884  0.563380 0.400000
27  -13.358277 -6.672403 19.995718  0.011958 0.958190 0.285884  0.563380 0.485714
shotside.bmp
27  -14.043699 -8.423075 15.989287  -0.010796 0.999856 0.013100  0.690141 0.514286
27  -14.512449 -8.353003 10.254822  -0.010796 0.999856 0.013100  0.760563 0.514286
27  -15.536633 -8.440790 16.111107  -0.010796 0.999856 0.013100  0.690141 0.514286
shotside.bmp
27  -15.536633 -8.440790 16.111107  -0.010796 0.999856 0.013100  0.690141 0.514286
27  -14.512449 -8.353003 10.254822  -0.010796 0.999856 0.013100  0.760563 0.514286
27  -16.005383 -8.370718 10.376640  -0.010796 0.999856 0.013100  0.760563 0.514286
shotside.bmp
27  -13.358277 -6.672403 19.995718  0.977712 -0.152644 -0.144147  0.507042 0.400000
27  -12.831870 -6.734441 23.597383  0.977722 -0.152847 -0.143867  0.408451 0.400000
27  -13.441583 -9.966553 22.885704  0.977539 -0.153201 -0.144730  0.436620 0.600000
shotside.bmp
27  -13.441583 -9.966553 22.885704  0.977539 -0.153201 -0.144730  0.436620 0.600000
27  -12.831870 -6.734441 23.597383  0.977722 -0.152847 -0.143867  0.408451 0.400000
27  -13.306226 -10.586397 24.196161  0.977567 -0.153406 -0.144325  0.394366 0.628571
shotside.bmp
27  -15.604653 -6.699059 20.179016  -0.010777 0.999853 0.013333  0.563380 0.400000
27  -15.538684 -6.766562 23.818253  -0.010777 0.999853 0.013333  0.436620 0.400000
27  -13.358277 -6.672403 19.995718  -0.010777 0.999853 0.013333  0.563380 0.485714
shotside.bmp
27  -13.358277 -6.672403 19.995718  -0.010777 0.999853 0.013333  0.563380 0.485714
27  -15.538684 -6.766562 23.818253  -0.010777 0.999853 0.013333  0.436620 0.400000
27  -12.831870 -6.734441 23.597383  -0.010777 0.999853 0.013333  0.436620 0.485714
shotside.bmp
27  -15.604653 -6.699059 20.179016  -0.984137 -0.176720 0.015632  0.507042 0.400000
27  -14.969398 -9.984683 23.010370  -0.984061 -0.177181 0.015226  0.436620 0.600000
27  -15.538684 -6.766562 23.818253  -0.984124 -0.176739 0.016235  0.408451 0.400000
shotside.bmp
27  -15.538684 -6.766562 23.818253  -0.984124 -0.176739 0.016235  0.408451 0.400000
27  -14.969398 -9.984683 23.010370  -0.984061 -0.177181 0.015226  0.436620 0.600000
27  -14.882875 -10.605106 24.324812  -0.984010 -0.177421 0.015694  0.394366 0.628571
shotside.bmp
27  -15.538684 -6.766562 23.818253  -0.071519 0.612412 -0.787297  0.436620 0.400000
27  -15.863939 -6.041311 24.413687  -0.071531 0.612412 -0.787296  0.422535 0.371429
27  -12.831870 -6.734441 23.597383  -0.071506 0.612298 -0.787387  0.436620 0.485714
shotside.bmp
27  -12.831870 -6.734441 23.597383  -0.071506 0.612298 -0.787387  0.436620 0.485714
27  -15.863939 -6.041311 24.413687  -0.071531 0.612412 -0.787296  0.422535 0.371429
27  -12.431588 -6.000581 24.133615  -0.071489 0.612412 -0.787300  0.422535 0.485714
shotside.bmp
27  -15.863939 -6.041311 24.413687  0.024278 0.903047 0.428856  0.422535 0.371429
27  -15.007185 -6.560381 25.455456  0.024288 0.903006 0.428942  0.380282 0.400000
27  -12.431588 -6.000581 24.133615  0.024264 0.903109 0.428726  0.422535 0.485714
shotside.bmp
27  -12.431588 -6.000581 24.133615  0.024264 0.903109 0.428726  0.422535 0.485714
27  -15.007185 -6.560381 25.455456  0.024288 0.903006 0.428942  0.380282 0.400000
27  -13.095673 -6.537698 25.299480  0.024274 0.903047 0.428855  0.380282 0.457143
shotside.bmp
27  -15.007185 -6.560381 25.455456  -0.005124 0.996608 0.082136  0.380282 0.400000
27  -14.606758 -6.804777 28.433535  -0.005144 0.996627 0.081898  0.281690 0.400000
27  -13.095673 -6.537698 25.299480  -0.005144 0.996627 0.081898  0.380282 0.457143
shotside.bmp
27  -13.095673 -6.537698 25.299480  -0.005144 0.996627 0.081898  0.380282 0.457143
27  -14.606758 -6.804777 28.433535  -0.005144 0.996627 0.081898  0.281690 0.400000
27  -13.002204 -6.785737 28.302608  -0.005144 0.996627 0.081898  0.281690 0.457143
shotside.bmp
27  -14.606758 -6.804777 28.433535  -0.010786 0.999854 0.013223  0.281690 0.400000
27  -14.486988 -6.876261 33.936630  -0.010786 0.999854 0.013223  0.098592 0.400000
27  -13.002204 -6.785737 28.302608  -0.010786 0.999854 0.013223  0.281690 0.457143
shotside.bmp
27  -13.002204 -6.785737 28.302608  -0.010786 0.999854 0.013223  0.281690 0.457143
27  -14.486988 -6.876261 33.936630  -0.010786 0.999854 0.013223  0.098592 0.400000
27  -12.226660 -6.849439 33.752190  -0.010786 0.999854 0.013223  0.098592 0.485714
shotside.bmp
27  -14.486988 -6.876261 33.936630  -0.047527 0.890295 -0.452897  0.887324 1.000000
27  -15.091879 -6.258839 35.221123  -0.047533 0.890295 -0.452896  0.859155 0.942857
27  -12.226660 -6.849439 33.752190  -0.047515 0.890296 -0.452896  0.887324 1.000000
shotside.bmp
27  -12.226660 -6.849439 33.752190  -0.047515 0.890296 -0.452896  0.887324 1.000000
27  -15.091879 -6.258839 35.221123  -0.047533 0.890295 -0.452896  0.859155 0.942857
27  -11.436285 -6.215459 34.922836  -0.047510 0.890275 -0.452939  0.859155 0.942857
shotside.bmp
27  -14.219947 -0.835426 36.108013  -0.005100 0.996585 0.082412  0.830986 0.628571
27  -14.031558 -1.037314 38.387413  -0.005098 0.996581 0.082460  0.774648 0.628571
27  -12.280529 -0.812412 35.949760  -0.005102 0.996585 0.082412  0.830986 0.628571
shotside.bmp
27  -12.280529 -0.812412 35.949760  -0.005102 0.996585 0.082412  0.830986 0.628571
27  -14.031558 -1.037314 38.387413  -0.005098 0.996581 0.082460  0.774648 0.628571
27  -12.092140 -1.014300 38.229164  -0.005102 0.996585 0.082412  0.774648 0.628571
shotside.bmp
27  -11.925507 -6.903156 38.468033  0.062849 0.527539 0.847203  0.450704 0.542857
27  -12.356600 -5.820953 37.818310  0.062814 0.527539 0.847205  0.492958 0.571429
27  -14.018404 -6.927992 38.638809  0.062887 0.527581 0.847174  0.661972 0.542857
shotside.bmp
27  -14.018404 -6.927992 38.638809  0.062887 0.527581 0.847174  0.661972 0.542857
27  -12.356600 -5.820953 37.818310  0.062814 0.527539 0.847205  0.492958 0.571429
27  -13.723959 -5.837179 37.929882  0.062925 0.527542 0.847195  0.619718 0.571429
shotside.bmp
27  -15.091879 -6.258839 35.221123  -0.080311 0.351567 -0.932712  0.859155 0.942857
27  -13.924497 -4.997262 35.594391  -0.080294 0.351522 -0.932730  0.845070 0.885714
27  -11.436285 -6.215459 34.922836  -0.080251 0.351476 -0.932751  0.859155 0.942857
shotside.bmp
27  -11.436285 -6.215459 34.922836  -0.080251 0.351476 -0.932751  0.859155 0.942857
27  -13.924497 -4.997262 35.594391  -0.080294 0.351522 -0.932730  0.845070 0.885714
27  -12.557137 -4.981036 35.482815  -0.080268 0.351474 -0.932750  0.845070 0.885714
shotside.bmp
27  -13.924497 -4.997262 35.594391  -0.081984 0.211461 -0.973942  0.845070 0.885714
27  -13.975044 -1.727469 36.311214  -0.081984 0.211555 -0.973922  0.816901 0.657143
27  -12.557137 -4.981036 35.482815  -0.081982 0.211648 -0.973901  0.845070 0.885714
shotside.bmp
27  -12.557137 -4.981036 35.482815  -0.081982 0.211648 -0.973901  0.845070 0.885714
27  -13.975044 -1.727469 36.311214  -0.081984 0.211555 -0.973922  0.816901 0.657143
27  -12.468158 -1.709587 36.188255  -0.081983 0.211368 -0.973962  0.816901 0.657143
shotside.bmp
27  -12.356600 -5.820953 37.818310  0.078870 -0.414611 0.906574  0.492958 0.571429
27  -12.016813 -3.719348 38.758923  0.078887 -0.414611 0.906573  0.464789 0.628571
27  -13.723959 -5.837179 37.929882  0.078915 -0.414698 0.906531  0.619718 0.571429
shotside.bmp
27  -13.723959 -5.837179 37.929882  0.078915 -0.414698 0.906531  0.619718 0.571429
27  -12.016813 -3.719348 38.758923  0.078887 -0.414611 0.906573  0.464789 0.628571
27  -13.956231 -3.742363 38.917175  0.078903 -0.414655 0.906551  0.647887 0.628571
shotside.bmp
27  -13.975044 -1.727469 36.311214  -0.076208 -0.234519 -0.969120  0.816901 0.657143
27  -14.219947 -0.835426 36.108013  -0.076263 -0.234519 -0.969115  0.830986 0.628571
27  -12.468158 -1.709587 36.188255  -0.076384 -0.234521 -0.969105  0.816901 0.657143
shotside.bmp
27  -12.468158 -1.709587 36.188255  -0.076384 -0.234521 -0.969105  0.816901 0.657143
27  -14.219947 -0.835426 36.108013  -0.076263 -0.234519 -0.969115  0.830986 0.628571
27  -12.280529 -0.812412 35.949760  -0.076327 -0.234520 -0.969110  0.830986 0.628571
shotside.bmp
27  -12.016813 -3.719348 38.758923  0.077568 0.191526 0.978418  0.464789 0.628571
27  -12.092140 -1.014300 38.229164  0.077565 0.191527 0.978418  0.464789 0.742857
27  -13.956231 -3.742363 38.917175  0.077566 0.191526 0.978418  0.647887 0.628571
shotside.bmp
27  -13.956231 -3.742363 38.917175  0.077566 0.191526 0.978418  0.647887 0.628571
27  -12.092140 -1.014300 38.229164  0.077565 0.191527 0.978418  0.464789 0.742857
27  -14.031558 -1.037314 38.387413  0.077563 0.191527 0.978418  0.647887 0.742857
shotside.bmp
27  -15.838700 -6.815356 11.010087  -0.010844 0.999863 0.012509  0.845070 0.400000
27  -15.350164 -6.872775 16.988886  -0.010844 0.999863 0.012509  0.760563 0.400000
27  -14.659701 -6.801365 10.913883  -0.010844 0.999863 0.012509  0.845070 0.457143
shotside.bmp
27  -14.659701 -6.801365 10.913883  -0.010844 0.999863 0.012509  0.845070 0.457143
27  -15.350164 -6.872775 16.988886  -0.010844 0.999863 0.012509  0.760563 0.400000
27  -14.171165 -6.858784 16.892681  -0.010841 0.999862 0.012557  0.760563 0.457143
shotside.bmp
27  -15.825573 -8.007718 10.997564  -0.996618 -0.011826 0.081321  0.746479 0.485714
27  -15.386062 -8.059376 16.376390  -0.996618 -0.011826 0.081321  0.690141 0.485714
27  -15.838700 -6.815356 11.010087  -0.996618 -0.011826 0.081321  0.746479 0.400000
shotside.bmp
27  -15.838700 -6.815356 11.010087  -0.996618 -0.011826 0.081321  0.746479 0.400000
27  -15.386062 -8.059376 16.376390  -0.996618 -0.011826 0.081321  0.690141 0.485714
27  -15.350164 -6.872775 16.988886  -0.996618 -0.011826 0.081321  0.676056 0.400000
shotside.bmp
27  -14.646574 -7.993727 10.901361  0.011008 -0.999884 -0.010502  0.746479 0.485714
27  -14.207063 -8.045384 16.280186  0.011009 -0.999884 -0.010502  0.690141 0.485714
27  -15.825573 -8.007718 10.997564  0.011008 -0.999884 -0.010502  0.746479 0.485714
shotside.bmp
27  -15.825573 -8.007718 10.997564  0.011008 -0.999884 -0.010502  0.746479 0.485714
27  -14.207063 -8.045384 16.280186  0.011009 -0.999884 -0.010502  0.690141 0.485714
27  -15.386062 -8.059376 16.376390  0.011009 -0.999884 -0.010502  0.690141 0.485714
shotside.bmp
27  -14.659701 -6.801365 10.913883  0.996618 0.011827 -0.081321  0.746479 0.400000
27  -14.171165 -6.858784 16.892681  0.996618 0.011826 -0.081321  0.676056 0.400000
27  -14.646574 -7.993727 10.901361  0.996618 0.011827 -0.081321  0.746479 0.485714
shotside.bmp
27  -14.646574 -7.993727 10.901361  0.996618 0.011827 -0.081321  0.746479 0.485714
27  -14.171165 -6.858784 16.892681  0.996618 0.011826 -0.081321  0.676056 0.400000
27  -14.207063 -8.045384 16.280186  0.996618 0.011825 -0.081321  0.690141 0.485714
shotside.bmp
27  -13.701038 -5.692860 33.497471  0.047893 0.720617 0.691678  0.901408 0.314286
27  -13.672895 -6.921191 34.782753  0.047892 0.720616 0.691679  0.859155 0.400000
27  -13.066193 -5.685327 33.445671  0.047884 0.720616 0.691679  0.901408 0.314286
shotside.bmp
27  -13.066193 -5.685327 33.445671  0.047884 0.720616 0.691679  0.901408 0.314286
27  -13.672895 -6.921191 34.782753  0.047892 0.720616 0.691679  0.859155 0.400000
27  -12.856666 -6.911505 34.716148  0.047886 0.720649 0.691645  0.859155 0.400000
shotside.bmp
27  -13.429966 -4.984705 35.631363  0.079712 -0.379220 0.921867  0.000000 0.000000
27  -13.437891 -5.350756 35.480995  0.079718 -0.379265 0.921848  0.000000 0.000000
27  -13.053245 -4.980235 35.600624  0.079717 -0.379265 0.921848  0.000000 0.000000
shotside.bmp
27  -13.053245 -4.980235 35.600624  0.079717 -0.379265 0.921848  0.000000 0.000000
27  -13.437891 -5.350756 35.480995  0.079718 -0.379265 0.921848  0.000000 0.000000
27  -13.061170 -5.346285 35.450256  0.079726 -0.379221 0.921865  0.000000 0.000000
shotside.bmp
27  -13.437309 -10.638160 30.415283  0.989633 -0.110219 -0.092083  0.225352 0.628571
27  -13.463284 -10.657576 30.094131  0.989571 -0.110525 -0.092376  0.239437 0.628571
27  -13.324179 -9.843134 30.540100  0.989569 -0.110536 -0.092386  0.225352 0.571429
shotside.bmp
27  -13.324179 -9.843134 30.540100  0.989621 -0.110332 -0.092069  0.225352 0.571429
27  -13.463284 -10.657576 30.094131  0.989699 -0.109966 -0.091668  0.239437 0.628571
27  -13.381424 -9.866364 29.835165  0.989670 -0.110101 -0.091819  0.239437 0.571429
shotside.bmp
27  -13.974411 -9.873400 29.883551  -0.988479 -0.134403 0.069607  0.239437 0.571429
27  -13.833029 -10.661963 30.124302  -0.988491 -0.134173 0.069874  0.239437 0.628571
27  -13.917166 -9.850170 30.588486  -0.988480 -0.134526 0.069355  0.225352 0.571429
shotside.bmp
27  -13.917166 -9.850170 30.588486  -0.988480 -0.134526 0.069355  0.225352 0.571429
27  -13.833029 -10.661963 30.124302  -0.988491 -0.134173 0.069874  0.239437 0.628571
27  -13.807055 -10.642548 30.445454  -0.988483 -0.134512 0.069334  0.225352 0.628571
shotside.bmp
27  -14.983519 -10.591239 11.472861  0.989544 -0.111064 -0.092022  0.732394 0.628571
27  -15.009577 -10.603155 11.151789  0.989511 -0.111299 -0.092087  0.746479 0.628571
27  -14.871297 -9.713722 11.598546  0.989502 -0.111368 -0.092106  0.732394 0.600000
shotside.bmp
27  -14.871297 -9.713722 11.598546  0.989537 -0.111157 -0.091979  0.732394 0.600000
27  -15.009577 -10.603155 11.151789  0.989561 -0.110981 -0.091939  0.746479 0.628571
27  -14.930987 -9.721685 10.865864  0.989560 -0.110986 -0.091940  0.746479 0.600000
shotside.bmp
27  -15.523974 -9.728722 10.914250  -0.988371 -0.135260 0.069477  0.746479 0.600000
27  -15.379322 -10.607543 11.181959  -0.988377 -0.135163 0.069579  0.746479 0.628571
27  -15.464284 -9.720758 11.646933  -0.988360 -0.135377 0.069408  0.732394 0.600000
shotside.bmp
27  -15.464284 -9.720758 11.646933  -0.988360 -0.135377 0.069408  0.732394 0.600000
27  -15.379322 -10.607543 11.181959  -0.988377 -0.135163 0.069579  0.746479 0.628571
27  -15.353264 -10.595627 11.503032  -0.988359 -0.135360 0.069452  0.732394 0.628571
shotside.bmp
27  -13.358277 -6.672403 19.995718  0.958261 -0.202619 0.201697  0.507042 0.400000
27  -13.820531 -9.936725 18.934544  0.958262 -0.202615 0.201696  0.535211 0.600000
27  -12.854051 -6.137527 18.161598  0.958268 -0.202591 0.201692  0.549296 0.371429
shotside.bmp
27  -15.243701 -9.953612 19.050671  -0.907770 -0.225384 0.353774  0.535211 0.600000
27  -15.604653 -6.699059 20.179016  -0.907765 -0.225396 0.353778  0.507042 0.400000
27  -16.411976 -6.179748 18.451916  -0.907793 -0.225373 0.353722  0.549296 0.371429
shotside.bmp
27  -13.964594 -9.910230 17.689337  0.894654 -0.314802 -0.317009  0.647887 0.600000
27  -14.043699 -8.423075 15.989287  0.894654 -0.314802 -0.317009  0.690141 0.514286
27  -12.947756 -6.313750 16.987589  0.894654 -0.314802 -0.317009  0.661972 0.371429
shotside.bmp
27  -15.536633 -8.440790 16.111107  -0.926670 -0.336416 -0.167651  0.690141 0.514286
27  -15.304049 -9.926125 17.798634  -0.926651 -0.336420 -0.167745  0.647887 0.600000
27  -16.505680 -6.355971 17.277906  -0.926690 -0.336409 -0.167557  0.661972 0.371429
shotside.bmp
27  -13.306226 -10.586397 24.196161  0.887472 -0.175170 -0.426273  0.394366 0.628571
27  -12.831870 -6.734441 23.597383  0.887485 -0.175213 -0.426228  0.408451 0.400000
27  -12.431588 -6.000581 24.133615  0.887456 -0.175265 -0.426268  0.394366 0.342857
shotside.bmp
27  -15.538684 -6.766562 23.818253  -0.940476 -0.197417 -0.276644  0.408451 0.400000
27  -14.882875 -10.605106 24.324812  -0.940480 -0.197388 -0.276651  0.394366 0.628571
27  -15.863939 -6.041311 24.413687  -0.940468 -0.197470 -0.276632  0.394366 0.342857
shotside.bmp
27  -13.095673 -6.537698 25.299480  0.888912 -0.163858 0.427768  0.366197 0.371429
27  -13.306226 -10.586397 24.196161  0.888906 -0.163885 0.427770  0.394366 0.628571
27  -12.431588 -6.000581 24.133615  0.888913 -0.163856 0.427768  0.394366 0.342857
shotside.bmp
27  -13.306226 -10.586397 24.196161  0.993284 -0.020631 -0.113848  0.394366 0.628571
27  -13.095673 -6.537698 25.299480  0.993284 -0.020631 -0.113848  0.366197 0.371429
27  -12.866883 -10.591827 28.030241  0.993304 -0.020879 -0.113624  0.295775 0.628571
shotside.bmp
27  -15.007185 -6.560381 25.455456  -0.998061 -0.043972 0.044046  0.366197 0.371429
27  -14.882875 -10.605106 24.324812  -0.998062 -0.043969 0.044045  0.394366 0.628571
27  -14.708632 -10.613683 28.180523  -0.998062 -0.043957 0.044036  0.295775 0.628571
shotside.bmp
27  -14.882875 -10.605106 24.324812  -0.803661 -0.184470 0.565773  0.394366 0.628571
27  -15.007185 -6.560381 25.455456  -0.803692 -0.184466 0.565731  0.366197 0.371429
27  -15.863939 -6.041311 24.413687  -0.803671 -0.184441 0.565768  0.394366 0.342857
shotside.bmp
27  -13.002204 -6.785737 28.302608  0.998904 0.037518 -0.027991  0.281690 0.400000
27  -12.866883 -10.591827 28.030241  0.998904 0.037518 -0.027991  0.295775 0.628571
27  -13.095673 -6.537698 25.299480  0.998904 0.037518 -0.027991  0.366197 0.371429
shotside.bmp
27  -12.866883 -10.591827 28.030241  0.610430 -0.034923 0.791300  0.295775 0.628571
27  -13.002204 -6.785737 28.302608  0.610435 -0.035040 0.791291  0.281690 0.400000
27  -13.156137 -9.915110 28.285131  0.610432 -0.034981 0.791296  0.281690 0.600000
shotside.bmp
27  -14.606758 -6.804777 28.433535  -0.438051 -0.047482 0.897695  0.281690 0.400000
27  -14.708632 -10.613683 28.180523  -0.438060 -0.047349 0.897698  0.295775 0.628571
27  -14.370017 -9.929515 28.384182  -0.438054 -0.047422 0.897697  0.281690 0.600000
shotside.bmp
27  -14.708632 -10.613683 28.180523  -0.990653 0.017894 0.135226  0.295775 0.628571
27  -14.606758 -6.804777 28.433535  -0.990677 0.017798 0.135062  0.281690 0.400000
27  -15.007185 -6.560381 25.455456  -0.990629 0.017987 0.135392  0.366197 0.371429
shotside.bmp
27  -12.381439 -9.943707 34.676292  0.985521 -0.092846 -0.141873  0.112676 0.600000
27  -13.002204 -6.785737 28.302608  0.985528 -0.092804 -0.141850  0.281690 0.400000
27  -12.226660 -6.849439 33.752190  0.985523 -0.092852 -0.141858  0.140845 0.400000
shotside.bmp
27  -13.002204 -6.785737 28.302608  0.993422 -0.019312 -0.112873  0.281690 0.400000
27  -12.381439 -9.943707 34.676292  0.993431 -0.019335 -0.112789  0.112676 0.600000
27  -13.156137 -9.915110 28.285131  0.993367 -0.019182 -0.113375  0.281690 0.600000
shotside.bmp
27  -14.111568 -9.964237 34.817467  -0.998127 -0.041735 0.044739  0.112676 0.600000
27  -14.606758 -6.804777 28.433535  -0.998134 -0.041715 0.044602  0.281690 0.400000
27  -14.370017 -9.929515 28.384182  -0.998163 -0.041637 0.044022  0.281690 0.600000
shotside.bmp
27  -14.606758 -6.804777 28.433535  -0.993026 -0.116249 0.019640  0.281690 0.400000
27  -14.111568 -9.964237 34.817467  -0.993017 -0.116336 0.019599  0.112676 0.600000
27  -14.486988 -6.876261 33.936630  -0.993025 -0.116252 0.019648  0.140845 0.400000
shotside.bmp
27  -11.436285 -6.215459 34.922836  0.859273 -0.186136 -0.476448  0.859155 0.342857
27  -12.381439 -9.943707 34.676292  0.859290 -0.186168 -0.476406  0.859155 0.600000
27  -12.226660 -6.849439 33.752190  0.859294 -0.186148 -0.476406  0.887324 0.400000
shotside.bmp
27  -12.381439 -9.943707 34.676292  0.959303 -0.232321 -0.160516  0.859155 0.600000
27  -11.436285 -6.215459 34.922836  0.959320 -0.232317 -0.160417  0.859155 0.342857
27  -11.838756 -9.203213 36.872581  0.959313 -0.232312 -0.160465  0.802817 0.542857
shotside.bmp
27  -15.091879 -6.258839 35.221123  -0.966839 -0.255384 -0.000651  0.859155 0.342857
27  -14.111568 -9.964237 34.817467  -0.966831 -0.255417 -0.000659  0.859155 0.600000
27  -14.301398 -9.232436 37.073524  -0.966837 -0.255393 -0.000653  0.802817 0.542857
shotside.bmp
27  -14.111568 -9.964237 34.817467  -0.920523 -0.207396 -0.331097  0.859155 0.600000
27  -15.091879 -6.258839 35.221123  -0.920530 -0.207367 -0.331094  0.859155 0.342857
27  -14.486988 -6.876261 33.936630  -0.920527 -0.207377 -0.331095  0.887324 0.400000
shotside.bmp
27  -11.925507 -6.903156 38.468033  0.990772 -0.050053 0.125960  0.760563 0.400000
27  -11.838756 -9.203213 36.872581  0.990771 -0.050035 0.125972  0.802817 0.542857
27  -11.436285 -6.215459 34.922836  0.990771 -0.050040 0.125968  0.859155 0.342857
shotside.bmp
27  -14.019024 -8.216101 38.443874  -0.960233 -0.088315 0.264865  0.760563 0.485714
27  -15.091879 -6.258839 35.221123  -0.960229 -0.088268 0.264894  0.859155 0.342857
27  -14.301398 -9.232436 37.073524  -0.960241 -0.088267 0.264849  0.802817 0.542857
shotside.bmp
27  -15.091879 -6.258839 35.221123  -0.955935 -0.044170 0.290238  0.859155 0.342857
27  -14.019024 -8.216101 38.443874  -0.955935 -0.044170 0.290238  0.760563 0.485714
27  -14.018404 -6.927992 38.638809  -0.955943 -0.044212 0.290203  0.760563 0.400000
shotside.bmp
27  -12.557137 -4.981036 35.482815  0.771324 0.596432 0.222099  0.845070 0.885714
27  -11.925507 -6.903156 38.468033  0.771331 0.596443 0.222046  0.760563 1.000000
27  -11.436285 -6.215459 34.922836  0.771327 0.596437 0.222073  0.859155 0.942857
shotside.bmp
27  -11.925507 -6.903156 38.468033  0.912498 0.403591 0.066793  0.760563 1.000000
27  -12.557137 -4.981036 35.482815  0.912498 0.403591 0.066793  0.845070 0.885714
27  -12.356600 -5.820953 37.818310  0.912498 0.403591 0.066793  0.774648 0.914286
shotside.bmp
27  -13.924497 -4.997262 35.594391  -0.898860 0.382099 0.214594  0.845070 0.885714
27  -14.018404 -6.927992 38.638809  -0.898860 0.382099 0.214594  0.760563 1.000000
27  -13.723959 -5.837179 37.929882  -0.898860 0.382099 0.214594  0.774648 0.914286
shotside.bmp
27  -14.018404 -6.927992 38.638809  -0.739011 0.578482 0.345284  0.760563 1.000000
27  -13.924497 -4.997262 35.594391  -0.738967 0.578509 0.345334  0.845070 0.885714
27  -15.091879 -6.258839 35.221123  -0.738974 0.578514 0.345310  0.859155 0.942857
shotside.bmp
27  -13.956231 -3.742363 38.917175  -0.988366 -0.135258 0.069562  0.760563 0.800000
27  -13.924497 -4.997262 35.594391  -0.988218 -0.136496 0.069238  0.845070 0.885714
27  -13.723959 -5.837179 37.929882  -0.988319 -0.135646 0.069466  0.774648 0.914286
shotside.bmp
27  -13.924497 -4.997262 35.594391  -0.999853 -0.016625 -0.004204  0.845070 0.885714
27  -13.956231 -3.742363 38.917175  -0.999853 -0.016624 -0.004222  0.760563 0.800000
27  -13.975044 -1.727469 36.311214  -0.999853 -0.016623 -0.004226  0.816901 0.657143
shotside.bmp
27  -12.016813 -3.719348 38.758923  0.986056 0.006942 -0.166267  0.760563 0.800000
27  -12.557137 -4.981036 35.482815  0.986059 0.006893 -0.166253  0.845070 0.885714
27  -12.468158 -1.709587 36.188255  0.986056 0.006943 -0.166271  0.816901 0.657143
shotside.bmp
27  -12.557137 -4.981036 35.482815  0.989410 -0.112176 -0.092109  0.845070 0.885714
27  -12.016813 -3.719348 38.758923  0.989568 -0.110985 -0.091856  0.760563 0.800000
27  -12.356600 -5.820953 37.818310  0.989518 -0.111366 -0.091932  0.774648 0.914286
shotside.bmp
27  -14.219947 -0.835426 36.108013  -0.996618 -0.011827 0.081321  0.830986 0.628571
27  -13.956231 -3.742363 38.917175  -0.996618 -0.011827 0.081321  0.760563 0.800000
27  -14.031558 -1.037314 38.387413  -0.996618 -0.011827 0.081321  0.774648 0.628571
shotside.bmp
27  -13.956231 -3.742363 38.917175  -0.927979 -0.298896 -0.222523  0.760563 0.800000
27  -14.219947 -0.835426 36.108013  -0.927982 -0.298852 -0.222567  0.830986 0.628571
27  -13.975044 -1.727469 36.311214  -0.927987 -0.298797 -0.222623  0.816901 0.657143
shotside.bmp
27  -12.280529 -0.812412 35.949760  0.886418 -0.277321 -0.370616  0.830986 0.628571
27  -12.016813 -3.719348 38.758923  0.886423 -0.277364 -0.370572  0.760563 0.800000
27  -12.468158 -1.709587 36.188255  0.886412 -0.277267 -0.370671  0.816901 0.657143
shotside.bmp
27  -12.016813 -3.719348 38.758923  0.996618 0.011827 -0.081321  0.760563 0.800000
27  -12.280529 -0.812412 35.949760  0.996618 0.011827 -0.081321  0.830986 0.628571
27  -12.092140 -1.014300 38.229164  0.996618 0.011827 -0.081321  0.774648 0.628571
shotside.bmp
27  -14.007600 -6.874363 30.687668  -0.982557 0.183502 0.030133  0.225352 0.400000
27  -13.672895 -6.921191 34.782753  -0.994577 0.063940 0.082021  0.112676 0.400000
27  -13.701038 -5.692860 33.497471  -0.981110 0.191102 0.030051  0.154930 0.314286
shotside.bmp
27  -13.701038 -5.692860 33.497471  -0.981110 0.191102 0.030051  0.901408 0.914286
27  -13.863889 -6.362747 31.404274  -0.953894 0.299331 -0.022066  0.000000 0.000000
27  -14.007600 -6.874363 30.687668  -0.982557 0.183502 0.030133  0.971831 1.000000
shotside.bmp
27  -13.191370 -6.864677 30.621065  0.971513 0.200451 -0.126422  0.971831 1.000000
27  -13.229043 -6.355214 31.352472  0.930362 0.321726 -0.175837  0.957746 0.971429
27  -13.066193 -5.685327 33.445671  0.971497 0.200304 -0.126773  0.901408 0.914286
shotside.bmp
27  -13.066193 -5.685327 33.445671  0.968286 0.213998 -0.128944  0.901408 0.314286
27  -12.856666 -6.911505 34.716148  0.992953 0.087285 -0.080159  0.859155 0.400000
27  -13.191370 -6.864677 30.621065  0.968197 0.213220 -0.130887  0.971831 0.400000
shotside.bmp
27  -13.381424 -9.866364 29.835165  -0.073961 -0.302386 -0.950312  0.239437 0.571429
27  -13.833029 -10.661963 30.124302  -0.073956 -0.302294 -0.950341  0.239437 0.628571
27  -13.974411 -9.873400 29.883551  -0.073954 -0.302294 -0.950342  0.239437 0.571429
shotside.bmp
27  -13.807055 -10.642548 30.445454  0.017191 -0.997700 0.065573  0.225352 0.628571
27  -13.463284 -10.657576 30.094131  0.017191 -0.997700 0.065573  0.239437 0.628571
27  -13.437309 -10.638160 30.415283  0.016859 -0.997966 0.061472  0.225352 0.628571
shotside.bmp
27  -13.437309 -10.638160 30.415283  0.082588 -0.151015 0.985076  0.225352 0.628571
27  -13.917166 -9.850170 30.588486  0.082498 -0.151014 0.985083  0.225352 0.571429
27  -13.807055 -10.642548 30.445454  0.082313 -0.151013 0.985099  0.225352 0.628571
shotside.bmp
27  -15.379322 -10.607543 11.181959  -0.073938 -0.302596 -0.950247  0.746479 0.628571
27  -14.930987 -9.721685 10.865864  -0.073940 -0.302550 -0.950261  0.746479 0.600000
27  -15.009577 -10.603155 11.151789  -0.073945 -0.302551 -0.950261  0.746479 0.628571
shotside.bmp
27  -15.009577 -10.603155 11.151789  0.017009 -0.997848 0.063320  0.746479 0.628571
27  -15.353264 -10.595627 11.503032  0.017018 -0.997848 0.063319  0.732394 0.628571
27  -15.379322 -10.607543 11.181959  0.016731 -0.998065 0.059886  0.746479 0.628571
shotside.bmp
27  -15.464284 -9.720758 11.646933  0.082151 -0.152491 0.984885  0.732394 0.600000
27  -14.983519 -10.591239 11.472861  0.082165 -0.152444 0.984891  0.732394 0.628571
27  -14.871297 -9.713722 11.598546  0.082182 -0.152539 0.984875  0.732394 0.600000
shotdark.bmp
27  -12.947756 -6.313750 16.987589  -0.023810 0.988698 -0.148015  0.333333 1.000000
27  -16.505680 -6.355971 17.277906  -0.023806 0.988706 -0.147966  0.333333 0.000000
27  -12.854051 -6.137527 18.161598  -0.023806 0.988706 -0.147967  1.000000 1.000000
shotdark.bmp
27  -12.854051 -6.137527 18.161598  -0.023806 0.988706 -0.147967  1.000000 1.000000
27  -16.505680 -6.355971 17.277906  -0.023806 0.988706 -0.147966  0.333333 0.000000
27  -16.411976 -6.179748 18.451916  -0.023810 0.988699 -0.148013  1.000000 0.000000
shotdark.bmp
27  -12.947756 -6.313750 16.987589  -0.077658 0.459176 -0.884944  1.000000 1.000000
27  -14.043699 -8.423075 15.989287  -0.077658 0.459176 -0.884944  0.333333 0.000000
27  -16.505680 -6.355971 17.277906  -0.077658 0.459176 -0.884945  1.000000 1.000000
shotdark.bmp
27  -16.505680 -6.355971 17.277906  -0.077658 0.459176 -0.884945  1.000000 1.000000
27  -14.043699 -8.423075 15.989287  -0.077658 0.459176 -0.884944  0.333333 0.000000
27  -15.536633 -8.440790 16.111107  -0.077658 0.459176 -0.884944  0.333333 0.000000
shotdark.bmp
27  -14.646574 -7.993727 10.901361  -0.081438 0.009570 -0.996632  0.000000 0.000000
27  -15.825573 -8.007718 10.997564  -0.081438 0.009570 -0.996633  0.000000 0.000000
27  -14.659701 -6.801365 10.913883  -0.081437 0.009570 -0.996633  0.333333 1.000000
shotdark.bmp
27  -14.659701 -6.801365 10.913883  -0.081437 0.009570 -0.996633  0.333333 1.000000
27  -15.825573 -8.007718 10.997564  -0.081438 0.009570 -0.996633  0.000000 0.000000
27  -15.838700 -6.815356 11.010087  -0.081437 0.009571 -0.996633  0.333333 1.000000
shotdark.bmp
27  -13.863889 -6.362747 31.404274  -0.036039 0.952244 -0.303205  0.666667 0.600000
27  -13.701038 -5.692860 33.497471  -0.036042 0.952244 -0.303205  0.666667 0.800000
27  -13.229043 -6.355214 31.352472  -0.036040 0.952244 -0.303205  0.666667 0.600000
shotdark.bmp
27  -13.229043 -6.355214 31.352472  -0.036040 0.952244 -0.303205  0.666667 0.600000
27  -13.701038 -5.692860 33.497471  -0.036042 0.952244 -0.303205  0.666667 0.800000
27  -13.066193 -5.685327 33.445671  -0.036036 0.952273 -0.303114  0.666667 0.800000
shotdark.bmp
27  -14.007600 -6.874363 30.687668  -0.056781 0.814452 -0.577446  0.666667 0.600000
27  -13.863889 -6.362747 31.404274  -0.056770 0.814452 -0.577447  0.666667 0.600000
27  -13.191370 -6.864677 30.621065  -0.056790 0.814424 -0.577485  0.666667 0.600000
shotdark.bmp
27  -13.191370 -6.864677 30.621065  -0.056790 0.814424 -0.577485  0.666667 0.600000
27  -13.863889 -6.362747 31.404274  -0.056770 0.814452 -0.577447  0.666667 0.600000
27  -13.229043 -6.355214 31.352472  -0.056796 0.814424 -0.577484  0.666667 0.600000
shotdark.bmp
27  -13.593775 -5.774310 33.508995  -0.062807 0.747518 -0.661266  0.666667 0.800000
27  -13.539722 -5.099126 34.269619  -0.062833 0.747513 -0.661269  0.666667 0.800000
27  -13.217053 -5.769840 33.478256  -0.062807 0.747612 -0.661159  0.666667 0.800000
shotdark.bmp
27  -13.217053 -5.769840 33.478256  -0.062807 0.747612 -0.661159  0.666667 0.800000
27  -13.539722 -5.099126 34.269619  -0.062833 0.747513 -0.661269  0.666667 0.800000
27  -13.163001 -5.094656 34.238876  -0.062836 0.747575 -0.661198  0.666667 0.800000
shotdark.bmp
27  -13.524772 -5.422928 34.405762  0.061840 -0.759637 0.647401  0.666667 0.800000
27  -13.571594 -5.979132 33.751045  0.061844 -0.759666 0.647366  0.666667 0.800000
27  -13.148050 -5.418458 34.375019  0.061841 -0.759636 0.647401  0.666667 0.800000
shotdark.bmp
27  -13.148050 -5.418458 34.375019  0.061841 -0.759636 0.647401  0.666667 0.800000
27  -13.571594 -5.979132 33.751045  0.061844 -0.759666 0.647366  0.666667 0.800000
27  -13.194873 -5.974661 33.720306  0.061850 -0.759634 0.647403  0.666667 0.800000
shotdark.bmp
27  -13.539722 -5.099126 34.269619  -0.018314 0.996669 -0.079469  0.666667 0.800000
27  -13.429966 -4.984705 35.631363  -0.018311 0.996669 -0.079470  1.000000 1.000000
27  -13.163001 -5.094656 34.238876  -0.018313 0.996669 -0.079470  0.666667 0.800000
shotdark.bmp
27  -13.163001 -5.094656 34.238876  -0.018313 0.996669 -0.079470  0.666667 0.800000
27  -13.429966 -4.984705 35.631363  -0.018311 0.996669 -0.079470  1.000000 1.000000
27  -13.053245 -4.980235 35.600624  -0.018311 0.996669 -0.079471  1.000000 1.000000
shotdark.bmp
27  -13.148050 -5.418458 34.375019  0.017426 -0.997500 0.068489  0.666667 0.800000
27  -13.061170 -5.346285 35.450256  0.017427 -0.997500 0.068487  0.666667 0.800000
27  -13.524772 -5.422928 34.405762  0.017423 -0.997503 0.068441  0.666667 0.800000
shotdark.bmp
27  -13.524772 -5.422928 34.405762  0.017423 -0.997503 0.068441  0.666667 0.800000
27  -13.061170 -5.346285 35.450256  0.017427 -0.997500 0.068487  0.666667 0.800000
27  -13.437891 -5.350756 35.480995  0.017424 -0.997503 0.068439  0.666667 0.800000
shotdark.bmp
27  -11.838756 -9.203213 36.872581  0.994955 -0.029184 0.095985  0.333333 0.000000
27  -11.925507 -6.903156 38.468033  0.994964 -0.029270 0.095863  1.000000 1.000000
27  -11.940080 -8.191431 38.274239  0.994958 -0.029251 0.095937  0.666667 0.400000
shotdark.bmp
27  -13.833029 -10.661963 30.124302  -0.073968 -0.302385 -0.950311  0.666667 0.000000
27  -13.381424 -9.866364 29.835165  -0.073963 -0.302385 -0.950312  0.666667 0.000000
27  -13.463284 -10.657576 30.094131  -0.073959 -0.302248 -0.950356  0.666667 0.000000
shotdark.bmp
27  -13.463284 -10.657576 30.094131  0.017191 -0.997700 0.065573  0.666667 0.000000
27  -13.807055 -10.642548 30.445454  0.017191 -0.997700 0.065573  0.666667 0.000000
27  -13.833029 -10.661963 30.124302  0.017380 -0.997540 0.067910  0.666667 0.000000
shotdark.bmp
27  -13.917166 -9.850170 30.588486  0.082179 -0.163466 0.983120  0.666667 0.000000
27  -13.437309 -10.638160 30.415283  0.082153 -0.163466 0.983122  0.666667 0.000000
27  -13.324179 -9.843134 30.540100  0.082148 -0.163466 0.983123  0.666667 0.000000
shotdark.bmp
27  -14.930987 -9.721685 10.865864  -0.073922 -0.302731 -0.950205  0.333333 0.000000
27  -15.379322 -10.607543 11.181959  -0.073936 -0.302731 -0.950204  0.333333 0.000000
27  -15.523974 -9.728722 10.914250  -0.073955 -0.302731 -0.950202  0.333333 0.000000
shotdark.bmp
27  -15.353264 -10.595627 11.503032  0.017018 -0.997848 0.063319  0.333333 0.000000
27  -15.009577 -10.603155 11.151789  0.017009 -0.997848 0.063320  0.333333 0.000000
27  -14.983519 -10.591239 11.472861  0.017254 -0.997646 0.066372  0.333333 0.000000
shotdark.bmp
27  -14.983519 -10.591239 11.472861  0.082047 -0.164419 0.982972  0.333333 0.000000
27  -15.464284 -9.720758 11.646933  0.082043 -0.164419 0.982973  0.333333 0.000000
27  -15.353264 -10.595627 11.503032  0.082121 -0.164418 0.982966  0.333333 0.000000
shothole.bmp
27  -14.532791 -9.725691 10.236277  -0.081439 0.010070 -0.996627  1.000000 1.000000
27  -15.955961 -9.742579 10.352404  -0.081444 0.010070 -0.996627  0.000000 1.000000
27  -14.512449 -8.353003 10.254822  -0.081433 0.010070 -0.996628  1.000000 0.000000
shothole.bmp
27  -14.512449 -8.353003 10.254822  -0.081433 0.010070 -0.996628  1.000000 0.000000
27  -15.955961 -9.742579 10.352404  -0.081444 0.010070 -0.996627  0.000000 1.000000
27  -16.005383 -8.370718 10.376640  -0.081450 0.010069 -0.996627  0.000000 0.000000
shottop.bmp
27  -13.820531 -9.936725 18.934544  0.010032 -0.999698 -0.022432  0.674419 0.200000
27  -15.243701 -9.953612 19.050671  0.010033 -0.999698 -0.022433  0.674419 0.600000
27  -13.964594 -9.910230 17.689337  0.010032 -0.999698 -0.022433  0.837209 0.200000
shottop.bmp
27  -13.964594 -9.910230 17.689337  0.010032 -0.999698 -0.022433  0.837209 0.200000
27  -15.243701 -9.953612 19.050671  0.010033 -0.999698 -0.022433  0.674419 0.600000
27  -15.304049 -9.926125 17.798634  0.010033 -0.999698 -0.022433  0.837209 0.600000
shottop.bmp
27  -13.820531 -9.936725 18.934544  0.013371 -0.999748 0.018014  0.674419 0.200000
27  -13.655874 -9.908432 20.698345  0.013330 -0.999750 0.017970  0.627907 0.200000
27  -15.243701 -9.953612 19.050671  0.013330 -0.999750 0.017970  0.674419 0.600000
shottop.bmp
27  -15.243701 -9.953612 19.050671  0.013330 -0.999750 0.017970  0.674419 0.600000
27  -13.655874 -9.908432 20.698345  0.013330 -0.999750 0.017970  0.627907 0.200000
27  -15.120902 -9.925817 20.817888  0.013330 -0.999750 0.017970  0.627907 0.600000
shottop.bmp
27  -15.304049 -9.926125 17.798634  0.005607 -0.997070 -0.076284  0.837209 0.600000
27  -15.487947 -9.797586 16.080051  0.005611 -0.997074 -0.076238  0.883721 0.600000
27  -13.964594 -9.910230 17.689337  0.005611 -0.997074 -0.076237  0.837209 0.200000
shottop.bmp
27  -13.964594 -9.910230 17.689337  0.005611 -0.997074 -0.076237  0.837209 0.200000
27  -15.487947 -9.797586 16.080051  0.005611 -0.997074 -0.076238  0.883721 0.600000
27  -14.064777 -9.780698 15.963925  0.005604 -0.997067 -0.076334  0.883721 0.200000
shottop.bmp
27  -15.487947 -9.797586 16.080051  0.010122 -0.999721 -0.021347  0.883721 0.600000
27  -15.955961 -9.742579 10.352404  0.010122 -0.999721 -0.021347  0.976744 0.600000
27  -14.064777 -9.780698 15.963925  0.010122 -0.999721 -0.021347  0.883721 0.200000
shottop.bmp
27  -14.064777 -9.780698 15.963925  0.010122 -0.999721 -0.021347  0.883721 0.200000
27  -15.955961 -9.742579 10.352404  0.010122 -0.999721 -0.021347  0.976744 0.600000
27  -14.532791 -9.725691 10.236277  0.010121 -0.999721 -0.021347  0.976744 0.200000
shottop.bmp
27  -13.655874 -9.908432 20.698345  0.010021 -0.999695 -0.022583  0.627907 0.200000
27  -13.441583 -9.966553 22.885704  0.010021 -0.999695 -0.022583  0.534884 0.000000
27  -15.120902 -9.925817 20.817888  0.010021 -0.999695 -0.022583  0.627907 0.600000
shottop.bmp
27  -15.120902 -9.925817 20.817888  0.010021 -0.999695 -0.022583  0.627907 0.600000
27  -13.441583 -9.966553 22.885704  0.010021 -0.999695 -0.022583  0.534884 0.000000
27  -14.969398 -9.984683 23.010370  0.010016 -0.999694 -0.022630  0.534884 0.800000
shottop.bmp
27  -13.441583 -9.966553 22.885704  -0.023824 -0.905508 -0.423659  0.534884 0.000000
27  -13.306226 -10.586397 24.196161  -0.023821 -0.905529 -0.423616  0.488372 0.000000
27  -14.969398 -9.984683 23.010370  -0.023824 -0.905508 -0.423659  0.534884 0.800000
shottop.bmp
27  -14.969398 -9.984683 23.010370  -0.023824 -0.905508 -0.423659  0.534884 0.800000
27  -13.306226 -10.586397 24.196161  -0.023821 -0.905529 -0.423616  0.488372 0.000000
27  -14.882875 -10.605106 24.324812  -0.023821 -0.905528 -0.423616  0.488372 0.800000
shottop.bmp
27  -13.306226 -10.586397 24.196161  0.010166 -0.999732 -0.020810  0.488372 0.000000
27  -12.866883 -10.591827 28.030241  0.010165 -0.999732 -0.020809  0.372093 0.000000
27  -14.882875 -10.605106 24.324812  0.010165 -0.999732 -0.020810  0.488372 0.800000
shottop.bmp
27  -14.882875 -10.605106 24.324812  0.010165 -0.999732 -0.020810  0.488372 0.800000
27  -12.866883 -10.591827 28.030241  0.010165 -0.999732 -0.020809  0.372093 0.000000
27  -14.708632 -10.613683 28.180523  0.010166 -0.999732 -0.020809  0.372093 0.800000
shottop.bmp
27  -12.866883 -10.591827 28.030241  0.080880 -0.318899 0.944332  0.372093 0.000000
27  -13.156137 -9.915110 28.285131  0.080856 -0.318899 0.944334  0.348837 0.200000
27  -14.708632 -10.613683 28.180523  0.080794 -0.318764 0.944384  0.372093 0.800000
shottop.bmp
27  -14.708632 -10.613683 28.180523  0.080794 -0.318764 0.944384  0.372093 0.800000
27  -13.156137 -9.915110 28.285131  0.080856 -0.318899 0.944334  0.348837 0.200000
27  -14.370017 -9.929515 28.384182  0.080825 -0.318854 0.944351  0.348837 0.600000
shottop.bmp
27  -13.156137 -9.915110 28.285131  0.010146 -0.999727 -0.021048  0.348837 0.200000
27  -12.381439 -9.943707 34.676292  0.010150 -0.999728 -0.020999  0.139535 0.000000
27  -14.370017 -9.929515 28.384182  0.010146 -0.999727 -0.021048  0.348837 0.600000
shottop.bmp
27  -14.370017 -9.929515 28.384182  0.010146 -0.999727 -0.021048  0.348837 0.600000
27  -12.381439 -9.943707 34.676292  0.010150 -0.999728 -0.020999  0.139535 0.000000
27  -14.111568 -9.964237 34.817467  0.010146 -0.999727 -0.021047  0.139535 0.800000
shottop.bmp
27  -12.381439 -9.943707 34.676292  0.036594 -0.949931 0.310311  0.139535 0.000000
27  -11.838756 -9.203213 36.872581  0.036594 -0.949931 0.310310  0.046512 0.000000
27  -14.111568 -9.964237 34.817467  0.036593 -0.949931 0.310310  0.139535 0.800000
shottop.bmp
27  -14.111568 -9.964237 34.817467  0.036593 -0.949931 0.310310  0.139535 0.800000
27  -11.838756 -9.203213 36.872581  0.036594 -0.949931 0.310310  0.046512 0.000000
27  -14.301398 -9.232436 37.073524  0.036592 -0.949931 0.310310  0.046512 1.000000
shottop.bmp
27  -11.838756 -9.203213 36.872581  0.057576 -0.806629 0.588248  0.046512 0.000000
27  -11.940080 -8.191431 38.274239  0.057561 -0.806742 0.588093  0.000000 0.000000
27  -14.301398 -9.232436 37.073524  0.057562 -0.806686 0.588170  0.046512 1.000000
shottop.bmp
27  -14.301398 -9.232436 37.073524  0.057562 -0.806686 0.588170  0.046512 1.000000
27  -11.940080 -8.191431 38.274239  0.057561 -0.806742 0.588093  0.000000 0.000000
27  -14.019024 -8.216101 38.443874  0.057566 -0.806658 0.588208  0.000000 0.800000
end
