version 1
nodes
0 "Bip01" -1
1 "Bip01 Pelvis" 0
2 "Bip01 L Thigh" 1
3 "Bip01 L Calf" 2
4 "Bip01 L Foot" 3
5 "Bip01 R Thigh" 1
6 "Bip01 R Calf" 5
7 "Bip01 R Foot" 6
8 "Bip01 Spine" 1
9 "Bip01 Spine1" 8
10 "Bip01 Neck" 9
11 "Bip01 L Clavicle" 10
12 "Bip01 L UpperArm" 11
13 "Bip01 L Forearm" 12
14 "Bip01 L Hand" 13
15 "Bip01 L Finger0" 14
16 "Bip01 L Finger01" 15
17 "Bip01 L Finger02" 16
18 "Bip01 L Finger1" 14
19 "Bip01 L Finger11" 18
20 "Bip01 L Finger12" 19
21 "Bip01 L Finger2" 14
22 "Bip01 L Finger21" 21
23 "Bip01 L Finger22" 22
24 "Bip01 R Clavicle" 10
25 "Bip01 R UpperArm" 24
26 "Bip01 R Forearm" 25
27 "Bip01 R Hand" 26
28 "Bip01 R Finger0" 27
29 "Bip01 R Finger01" 28
30 "Bip01 R Finger02" 29
31 "Bip01 R Finger1" 27
32 "Bip01 R Finger11" 31
33 "Bip01 R Finger12" 32
34 "Bip01 R Finger2" 27
35 "Bip01 R Finger21" 34
36 "Bip01 R Finger22" 35
37 "Bip01 R Finger4" 27
38 "Bip01 Head" 10
39 "Bone05" 38
40 "Bone08" 9
41 "Bone16" 8
42 "Bone01" 8
43 "Bone03" 1
44 "Line02" -1
end
skeleton
time 0
0  1.278347 2.647669 38.416107  -0.032789 0.051704 -1.633642
1  -1.105178 0.261727 0.000009  -0.000030 -1.518469 -1.570772
2  -0.000001 0.000009 4.427392  -0.158773 3.106815 0.060093
3  18.465946 0.000001 -0.000001  -0.000000 0.000000 -0.249361
4  14.875446 -0.000004 0.000000  0.046802 0.003730 0.344277
5  0.000012 -0.000004 -4.427393  0.090490 3.059752 -0.388067
6  18.465944 -0.000003 0.000000  0.000000 -0.000000 -0.464631
7  14.875439 -0.000000 -0.000002  0.038121 0.027165 0.123363
8  2.255213 -0.007573 0.117194  -0.065613 0.009936 0.038847
9  9.514224 -0.009356 0.000000  0.009117 -0.105397 0.104605
10  11.752184 -0.001493 -0.000000  -0.025347 0.102407 0.222105
11  -2.396960 0.347957 2.427070  -0.087954 -1.222829 3.000639
12  4.640935 0.000000 0.000010  -0.836585 0.394230 -1.666165
13  10.828040 0.000003 0.000005  -0.000000 -0.000000 -0.616638
14  9.393339 -0.000014 -0.000002  -2.045769 -0.447170 0.433411
15  1.442239 0.107451 -1.746187  1.545041 0.350655 0.094987
16  1.063458 -0.000005 -0.000001  0.000000 -0.000000 0.199056
17  1.376315 -0.000003 0.000002  -0.000000 -0.000000 0.199049
18  4.172844 -0.251368 -1.312749  0.008014 -0.043889 0.147537
19  1.215378 0.000001 0.000009  -0.000000 -0.000000 0.645758
20  1.215377 -0.000006 -0.000001  -0.000000 -0.000000 0.881369
21  4.220530 -0.244856 -0.431466  0.001333 0.026242 0.148339
22  1.350418 0.000002 0.000006  -0.000000 0.000000 0.733035
23  1.350403 0.000003 -0.000005  0.000000 -0.000000 1.256600
24  -1.861777 0.480782 -2.841138  -2.486408 1.779393 0.406221
25  4.640939 -0.000010 0.000003  -0.560801 -1.159539 -0.317921
26  10.828046 0.000005 0.000003  -0.554819 0.309165 -1.947248
27  9.393343 -0.000020 -0.000002  2.186878 0.121479 0.376033
28  1.442238 0.107453 1.746181  -1.937605 -0.475472 0.678379
29  1.063461 0.000001 -0.000004  0.000000 0.000000 0.366516
30  1.376302 0.000009 -0.000001  -0.000000 -0.000000 0.811565
31  4.172841 -0.251365 1.312740  0.001190 -0.096055 0.052246
32  1.215376 0.000001 0.000017  -0.000000 0.000000 0.130882
33  1.215371 -0.000002 -0.000004  0.000000 0.000000 1.151880
34  4.220537 -0.244853 0.431461  0.001184 -0.026242 0.052329
35  1.350416 -0.000003 -0.000017  0.000000 0.000000 0.977377
36  1.350410 0.000000 0.000016  -0.000000 -0.000000 1.518434
37  4.262831 -0.232716 -1.392186  0.001188 0.078478 0.052453
38  2.110536 0.000006 -0.000001  0.155327 0.123823 -0.054459
39  0.891917 2.373047 -0.014524  -3.141592 -0.000001 1.413797
40  7.228100 5.709447 3.726566  3.140796 -1.570796 0.000000
41  2.450437 5.076128 0.001325  3.140791 -1.570796 0.000000
42  6.312407 -4.528057 0.001311  3.140791 -1.570796 0.000000
43  2.233278 1.152535 -7.309137  -1.134959 -1.596979 -0.916906
44  -5.952957 -2.602895 0.029162  0.000000 -0.000000 0.000000
time 1
0  1.278347 2.722019 38.416107  -0.032787 0.050692 -1.633385
1  -1.088619 0.270370 0.000009  -0.000030 -1.518389 -1.570772
2  0.000003 0.000009 4.427392  -0.160081 3.107181 0.057518
3  18.465942 0.000001 -0.000000  -0.000000 -0.000000 -0.253645
4  14.875443 -0.000004 0.000000  0.048291 0.003942 0.344965
5  0.000013 -0.000003 -4.427393  0.091974 3.059366 -0.387768
6  18.465942 -0.000003 0.000001  -0.000000 -0.000000 -0.462431
7  14.875440 -0.000000 -0.000002  0.036842 0.026819 0.120394
8  2.255215 -0.007573 0.117376  -0.063528 0.009941 0.038515
9  9.514219 -0.009356 0.000000  0.009156 -0.103387 0.101575
10  11.752186 -0.001493 0.000000  -0.024170 0.098607 0.225972
11  -2.384947 0.359146 2.434530  -0.078472 -1.230254 2.988450
12  4.640937 0.000000 0.000005  -0.838862 0.413402 -1.652574
13  10.828046 0.000002 0.000006  0.000525 -0.012095 -0.604540
14  9.393340 -0.000006 -0.000003  -2.029534 -0.437088 0.421590
15  1.442237 0.107450 -1.746182  1.547040 0.354761 0.099342
16  1.063454 0.000002 -0.000001  0.000000 -0.000000 0.199056
17  1.376313 -0.000002 0.000002  0.000000 -0.000000 0.199049
18  4.172844 -0.251368 -1.312742  0.008013 -0.041010 0.147560
19  1.215379 0.000001 0.000011  -0.000000 -0.000000 0.645758
20  1.215381 -0.000007 0.000000  -0.000000 -0.000000 0.876511
21  4.220528 -0.244856 -0.431464  0.001333 0.026242 0.148339
22  1.350417 0.000002 0.000008  0.000000 0.000000 0.735734
23  1.350402 0.000003 -0.000005  -0.000000 -0.000000 1.248503
24  -1.869602 0.485784 -2.834132  -2.496493 1.778150 0.392728
25  4.640939 -0.000010 0.000002  -0.527993 -1.160504 -0.330637
26  10.828050 0.000005 0.000005  -0.534116 0.288517 -1.916351
27  9.393341 -0.000011 0.000001  2.150850 0.110452 0.370692
28  1.442238 0.107453 1.746180  -1.937573 -0.475484 0.678345
29  1.063458 -0.000007 0.000000  -0.000000 0.000000 0.366477
30  1.376304 -0.000002 0.000001  0.000000 -0.000000 0.811479
31  4.172843 -0.251365 1.312742  0.001190 -0.096055 0.052246
32  1.215374 0.000001 0.000015  -0.000000 0.000000 0.130868
33  1.215372 -0.000002 -0.000005  0.000000 0.000000 1.151758
34  4.220537 -0.244853 0.431462  0.001184 -0.026242 0.052329
35  1.350415 -0.000003 -0.000018  0.000000 0.000000 0.977273
36  1.350410 -0.000002 0.000004  -0.000000 -0.000000 1.518273
37  4.262831 -0.232716 -1.392188  0.001188 0.078478 0.052453
38  2.110540 0.000003 -0.000001  0.151042 0.121987 -0.057350
39  0.891919 2.373049 -0.014525  -3.141592 -0.000001 1.413797
40  7.228101 5.709447 3.726567  3.140796 -1.570796 0.000000
41  2.450440 5.076128 0.001325  3.140791 -1.570796 0.000000
42  6.312405 -4.528056 0.001311  3.140791 -1.570796 0.000000
43  2.233288 1.152535 -7.309137  -1.134991 -1.597140 -0.916245
44  -5.952957 -2.602895 0.029162  0.000000 -0.000000 0.000000
time 2
0  1.278347 2.925882 38.416107  -0.032781 0.047918 -1.632681
1  -1.043216 0.294070 0.000010  -0.000030 -1.518171 -1.570772
2  0.000006 0.000008 4.427393  -0.163667 3.108182 0.050458
3  18.465944 0.000001 0.000000  -0.000000 0.000000 -0.265392
4  14.875444 -0.000004 0.000001  0.052373 0.004525 0.346853
5  0.000010 -0.000003 -4.427393  0.096045 3.058310 -0.386950
6  18.465942 -0.000003 0.000001  0.000000 -0.000000 -0.456399
7  14.875439 -0.000000 -0.000002  0.033336 0.025871 0.112255
8  2.255214 -0.007573 0.117875  -0.057810 0.009955 0.037604
9  9.514221 -0.009356 0.000000  0.009264 -0.097875 0.093266
10  11.752183 -0.001492 -0.000000  -0.020941 0.088187 0.236577
11  -2.352020 0.389830 2.454986  -0.049740 -1.250342 2.952110
12  4.640934 0.000001 0.000006  -0.843309 0.466129 -1.614761
13  10.828043 0.000007 0.000006  0.004203 -0.024191 -0.526699
14  9.393338 -0.000005 -0.000004  -1.986410 -0.408910 0.389875
15  1.442237 0.107451 -1.746190  1.552719 0.365992 0.111348
16  1.063457 0.000004 -0.000001  0.000000 0.000000 0.199056
17  1.376314 -0.000006 0.000003  -0.000000 -0.000000 0.199049
18  4.172844 -0.251367 -1.312744  0.008011 -0.033116 0.147624
19  1.215376 0.000001 0.000010  -0.000000 -0.000000 0.645758
20  1.215378 -0.000006 0.000000  -0.000000 -0.000000 0.863191
21  4.220527 -0.244856 -0.431466  0.001333 0.026242 0.148339
22  1.350418 0.000002 0.000009  -0.000000 -0.000000 0.743133
23  1.350404 0.000007 -0.000003  -0.000000 -0.000000 1.226300
24  -1.891063 0.499504 -2.814924  -2.524966 1.774930 0.354927
25  4.640941 -0.000010 0.000006  -0.437844 -1.162864 -0.365753
26  10.828048 0.000004 0.000004  -0.477349 0.231902 -1.831632
27  9.393341 -0.000010 0.000001  2.052671 0.080080 0.356239
28  1.442238 0.107453 1.746182  -1.937486 -0.475516 0.678253
29  1.063458 -0.000001 -0.000004  0.000000 0.000000 0.366371
30  1.376304 -0.000004 -0.000001  -0.000000 -0.000000 0.811242
31  4.172843 -0.251365 1.312738  0.001190 -0.096055 0.052246
32  1.215376 0.000001 0.000009  -0.000000 0.000000 0.130831
33  1.215372 -0.000003 -0.000001  0.000000 0.000000 1.151423
34  4.220535 -0.244852 0.431457  0.001184 -0.026242 0.052329
35  1.350416 -0.000003 -0.000011  0.000000 -0.000000 0.976989
36  1.350410 -0.000001 0.000001  -0.000000 -0.000000 1.517831
37  4.262831 -0.232717 -1.392189  0.001188 0.078478 0.052453
38  2.110535 0.000003 -0.000001  0.139294 0.116952 -0.065276
39  0.891920 2.373049 -0.014524  -3.141592 -0.000001 1.413797
40  7.228099 5.709448 3.726567  3.140796 -1.570796 0.000000
41  2.450436 5.076129 0.001325  3.140791 -1.570796 0.000000
42  6.312404 -4.528057 0.001311  3.140791 -1.570796 0.000000
43  2.233287 1.152535 -7.309137  -1.135038 -1.597580 -0.914472
44  -5.952957 -2.602895 0.029162  0.000000 -0.000000 0.000000
time 3
0  1.278347 3.230476 38.416107  -0.032771 0.043773 -1.631629
1  -0.975378 0.329479 0.000009  -0.000030 -1.517844 -1.570772
2  -0.000002 0.000008 4.427392  -0.169024 3.109677 0.039910
3  18.465944 0.000000 -0.000000  -0.000000 0.000000 -0.282942
4  14.875445 -0.000004 0.000000  0.058472 0.005396 0.349672
5  0.000006 -0.000003 -4.427393  0.102126 3.056730 -0.385727
6  18.465946 -0.000003 0.000001  -0.000000 -0.000000 -0.447387
7  14.875440 -0.000000 -0.000002  0.028098 0.024454 0.100094
8  2.255207 -0.007573 0.118621  -0.049267 0.009975 0.036243
9  9.514221 -0.009357 0.000000  0.009425 -0.089639 0.080851
10  11.752191 -0.001493 0.000000  -0.016118 0.072619 0.252420
11  -2.302817 0.435674 2.485550  0.001952 -1.279464 2.888538
12  4.640938 0.000000 0.000008  -0.844702 0.545164 -1.556205
13  10.828044 0.000006 0.000007  0.034025 -0.022699 -0.363482
14  9.393339 -0.000004 -0.000006  -1.925697 -0.365516 0.344246
15  1.442240 0.107452 -1.746185  1.561741 0.382688 0.129477
16  1.063455 0.000000 -0.000001  0.000000 -0.000000 0.199056
17  1.376311 -0.000001 0.000003  0.000000 -0.000000 0.199049
18  4.172844 -0.251366 -1.312743  0.008009 -0.021322 0.147720
19  1.215374 0.000002 0.000006  0.000000 -0.000000 0.645758
20  1.215382 -0.000006 0.000002  -0.000000 -0.000000 0.843289
21  4.220527 -0.244855 -0.431465  0.001333 0.026242 0.148339
22  1.350416 0.000003 0.000005  -0.000000 0.000000 0.754188
23  1.350404 0.000006 -0.000002  -0.000000 -0.000000 1.193126
24  -1.923111 0.520002 -2.786223  -2.569660 1.770660 0.296346
25  4.640939 -0.000009 0.000005  -0.302732 -1.165596 -0.418784
26  10.828039 0.000003 0.000004  -0.392532 0.147312 -1.705052
27  9.393340 -0.000014 -0.000005  1.907615 0.034368 0.335096
28  1.442237 0.107454 1.746187  -1.937356 -0.475564 0.678116
29  1.063456 0.000000 0.000002  -0.000000 -0.000000 0.366212
30  1.376305 0.000007 0.000001  0.000000 -0.000000 0.810889
31  4.172843 -0.251363 1.312742  0.001190 -0.096055 0.052246
32  1.215374 0.000001 0.000010  0.000000 -0.000000 0.130775
33  1.215370 -0.000001 -0.000000  0.000000 0.000000 1.150922
34  4.220534 -0.244851 0.431461  0.001184 -0.026242 0.052329
35  1.350418 -0.000004 -0.000010  -0.000000 -0.000000 0.976565
36  1.350412 0.000001 0.000007  -0.000000 -0.000000 1.517171
37  4.262829 -0.232716 -1.392187  0.001188 0.078478 0.052453
38  2.110539 0.000001 -0.000001  0.121740 0.109429 -0.077119
39  0.891922 2.373049 -0.014526  -3.141592 -0.000001 1.413797
40  7.228107 5.709447 3.726567  3.140796 -1.570796 0.000000
41  2.450433 5.076128 0.001325  3.140791 -1.570796 0.000000
42  6.312409 -4.528058 0.001311  3.140791 -1.570796 0.000000
43  2.233280 1.152535 -7.309137  -1.135002 -1.598238 -0.911930
44  -5.952957 -2.602895 0.029162  0.000000 -0.000000 0.000000
time 4
0  1.278347 3.607022 38.416107  -0.032760 0.038648 -1.630329
1  -0.891515 0.373254 0.000009  -0.000030 -1.517441 -1.570773
2  0.000006 0.000009 4.427392  -0.175647 3.111524 0.026869
3  18.465944 0.000000 0.000000  -0.000000 0.000000 -0.304639
4  14.875444 -0.000003 0.000001  0.066012 0.006472 0.353158
5  0.000013 -0.000003 -4.427393  0.109644 3.054778 -0.384214
6  18.465946 -0.000004 0.000000  0.000000 -0.000000 -0.436246
7  14.875442 -0.000000 -0.000002  0.021622 0.022700 0.085060
8  2.255219 -0.007573 0.119542  -0.038706 0.010001 0.034561
9  9.514225 -0.009355 0.000000  0.009624 -0.079458 0.065504
10  11.752191 -0.001495 -0.000000  -0.010155 0.053374 0.272007
11  -2.241993 0.492350 2.523335  0.084383 -1.313496 2.790580
12  4.640935 0.000000 0.000002  -0.836547 0.642809 -1.478714
13  10.828037 0.000004 0.000004  0.061270 -0.020655 -0.266008
14  9.393339 -0.000007 -0.000004  -1.856589 -0.310104 0.290373
15  1.442239 0.107450 -1.746183  1.573801 0.403167 0.152229
16  1.063454 0.000006 -0.000002  0.000000 -0.000000 0.199056
17  1.376312 -0.000003 0.000001  -0.000000 -0.000000 0.199049
18  4.172845 -0.251367 -1.312740  0.008008 -0.006741 0.147838
19  1.215379 0.000001 0.000008  -0.000000 -0.000000 0.645758
20  1.215377 -0.000007 -0.000002  -0.000000 -0.000000 0.818686
21  4.220528 -0.244858 -0.431461  0.001333 0.026242 0.148339
22  1.350414 0.000002 0.000002  -0.000000 0.000000 0.767855
23  1.350413 0.000002 0.000002  -0.000000 -0.000000 1.152117
24  -1.962737 0.545346 -2.750742  -2.628164 1.766333 0.220759
25  4.640941 -0.000009 0.000011  -0.135314 -1.167643 -0.484980
26  10.828044 0.000003 0.000003  -0.287680 0.042740 -1.548572
27  9.393341 -0.000009 0.000000  1.730952 -0.022609 0.309534
28  1.442239 0.107452 1.746180  -1.937195 -0.475624 0.677946
29  1.063456 -0.000005 -0.000001  0.000000 -0.000000 0.366016
30  1.376309 0.000001 0.000001  -0.000000 -0.000000 0.810452
31  4.172843 -0.251367 1.312742  0.001190 -0.096055 0.052246
32  1.215374 0.000001 0.000019  -0.000000 -0.000000 0.130706
33  1.215369 -0.000000 0.000004  0.000000 0.000000 1.150303
34  4.220534 -0.244855 0.431460  0.001184 -0.026242 0.052329
35  1.350417 -0.000001 -0.000008  -0.000000 0.000000 0.976040
36  1.350409 -0.000000 0.000005  -0.000000 -0.000000 1.516356
37  4.262828 -0.232719 -1.392189  0.001188 0.078478 0.052453
38  2.110539 0.000000 -0.000000  0.100040 0.100130 -0.091760
39  0.891930 2.373048 -0.014525  -3.141592 -0.000001 1.413797
40  7.228105 5.709446 3.726568  3.140796 -1.570796 0.000000
41  2.450436 5.076128 0.001325  3.140791 -1.570796 0.000000
42  6.312412 -4.528057 0.001311  3.140791 -1.570796 0.000000
43  2.233293 1.152536 -7.309136  -1.134795 -1.599052 -0.908952
44  -5.952957 -2.602895 0.029162  0.000000 -0.000000 0.000000
time 5
0  1.278347 4.026739 38.416107  -0.032748 0.032936 -1.628879
1  -0.798039 0.422046 0.000016  -0.000029 -1.516991 -1.570773
2  0.000002 0.000009 4.427392  -0.183030 3.113581 0.012333
3  18.465946 -0.000000 -0.000000  -0.000000 0.000000 -0.328823
4  14.875444 -0.000001 0.000000  0.074417 0.007673 0.357043
5  -0.000003 -0.000002 -4.427393  0.118023 3.052602 -0.382529
6  18.465950 -0.000005 0.000001  -0.000000 -0.000000 -0.423828
7  14.875441 -0.000000 -0.000002  0.014404 0.020745 0.068303
8  2.255212 -0.007573 0.120570  -0.026935 0.010029 0.032686
9  9.514228 -0.009357 0.000000  0.009846 -0.068110 0.048398
10  11.752203 -0.001494 -0.000000  -0.003509 0.031922 0.293839
11  -2.174202 0.555526 2.565451  0.208563 -1.347722 2.648002
12  4.640936 0.000001 0.000005  -0.811740 0.750618 -1.382104
13  10.828035 0.000003 0.000005  0.061653 -0.020287 -0.270567
14  9.393339 -0.000011 -0.000006  -1.786981 -0.246606 0.233003
15  1.442240 0.107450 -1.746184  1.588448 0.425747 0.178072
16  1.063451 -0.000000 -0.000002  0.000000 -0.000000 0.199056
17  1.376314 0.000000 0.000000  0.000000 -0.000000 0.199049
18  4.172843 -0.251366 -1.312742  0.008009 0.009511 0.147969
19  1.215377 0.000002 0.000008  -0.000000 -0.000000 0.645758
20  1.215373 -0.000003 -0.000003  -0.000000 -0.000000 0.791262
21  4.220529 -0.244856 -0.431463  0.001333 0.026242 0.148339
22  1.350414 0.000001 0.000002  -0.000000 -0.000000 0.783088
23  1.350404 0.000005 0.000001  -0.000000 -0.000000 1.106405
24  -2.006921 0.573599 -2.711194  -2.696906 1.762833 0.133084
25  4.640940 -0.000006 0.000001  0.051299 -1.168188 -0.559086
26  10.828051 0.000001 0.000004  -0.170806 -0.073820 -1.374151
27  9.393341 -0.000007 -0.000002  1.537454 -0.086591 0.281511
28  1.442241 0.107453 1.746179  -1.937016 -0.475690 0.677756
29  1.063455 0.000007 -0.000001  -0.000000 -0.000000 0.365797
30  1.376305 0.000001 -0.000003  -0.000000 0.000000 0.809966
31  4.172843 -0.251367 1.312745  0.001190 -0.096055 0.052246
32  1.215374 -0.000000 0.000013  0.000000 0.000000 0.130628
33  1.215371 -0.000003 0.000008  0.000000 0.000000 1.149614
34  4.220533 -0.244853 0.431465  0.001184 -0.026242 0.052329
35  1.350415 -0.000000 -0.000006  0.000000 -0.000000 0.975455
36  1.350409 0.000001 0.000002  -0.000000 -0.000000 1.515446
37  4.262828 -0.232718 -1.392185  0.001188 0.078478 0.052453
38  2.110533 0.000003 -0.000001  0.075853 0.089764 -0.108080
39  0.891925 2.373047 -0.014526  -3.141592 -0.000001 1.413797
40  7.228119 5.709445 3.726567  3.140796 -1.570796 0.000000
41  2.450442 5.076127 0.001325  3.140791 -1.570796 0.000000
42  6.312417 -4.528059 0.001311  3.140791 -1.570796 0.000000
43  2.233288 1.152536 -7.309137  -1.134367 -1.599959 -0.905828
44  -5.952957 -2.602895 0.029162  0.000000 -0.000000 0.000000
time 6
0  1.278347 4.460847 38.416107  -0.032734 0.027029 -1.627380
1  -0.701358 0.472512 0.000015  -0.000029 -1.516526 -1.570773
2  0.000004 0.000009 4.427393  -0.190665 3.115705 -0.002703
3  18.465937 0.000001 -0.000001  -0.000000 0.000000 -0.353837
4  14.875444 0.000001 0.000001  0.083110 0.008914 0.361062
5  -0.000002 -0.000003 -4.427393  0.126690 3.050351 -0.380785
6  18.465948 -0.000005 -0.000000  0.000000 -0.000000 -0.410983
7  14.875441 -0.000000 -0.000002  0.006940 0.018721 0.050972
8  2.255214 -0.007574 0.121632  -0.014759 0.010059 0.030747
9  9.514228 -0.009356 0.000000  0.010076 -0.056372 0.030705
10  11.752194 -0.001494 0.000000  0.003366 0.009734 0.316420
11  -2.104076 0.620867 2.609010  0.383946 -1.376898 2.452388
12  4.640936 0.000002 -0.000001  -0.763153 0.859361 -1.264540
13  10.828032 -0.000000 0.000005  0.062036 -0.019919 -0.277230
14  9.393342 -0.000002 -0.000005  -1.722870 -0.179664 0.175862
15  1.442238 0.107448 -1.746185  1.604962 0.448781 0.205386
16  1.063451 0.000003 -0.000001  0.000000 -0.000000 0.199056
17  1.376316 0.000001 0.000002  -0.000000 -0.000000 0.199049
18  4.172843 -0.251367 -1.312742  0.008013 0.026320 0.148105
19  1.215376 0.000000 0.000003  -0.000000 -0.000000 0.645758
20  1.215375 -0.000002 -0.000007  -0.000000 -0.000000 0.762897
21  4.220527 -0.244856 -0.431462  0.001333 0.026242 0.148339
22  1.350421 0.000004 -0.000001  0.000000 0.000000 0.798844
23  1.350411 0.000003 -0.000001  -0.000000 -0.000000 1.059127
24  -2.052598 0.602815 -2.670290  -2.770777 1.760764 0.039749
25  4.640941 -0.000006 0.000004  0.243670 -1.166839 -0.635454
26  10.828050 0.000001 0.000006  -0.049926 -0.194377 -1.193749
27  9.393341 -0.000003 -0.000001  1.341101 -0.153132 0.252698
28  1.442240 0.107454 1.746180  -1.936831 -0.475759 0.677560
29  1.063454 -0.000007 0.000001  -0.000000 -0.000000 0.365570
30  1.376304 0.000005 -0.000000  0.000000 0.000000 0.809462
31  4.172843 -0.251364 1.312744  0.001190 -0.096055 0.052246
32  1.215375 0.000001 0.000013  0.000000 0.000000 0.130549
33  1.215371 0.000000 0.000001  -0.000000 0.000000 1.148900
34  4.220533 -0.244852 0.431463  0.001184 -0.026242 0.052329
35  1.350419 0.000001 -0.000004  0.000000 0.000000 0.974850
36  1.350409 -0.000001 0.000003  -0.000000 0.000000 1.514505
37  4.262825 -0.232717 -1.392181  0.001188 0.078478 0.052453
38  2.110536 0.000002 -0.000000  0.050835 0.079042 -0.124958
39  0.891927 2.373048 -0.014525  -3.141592 -0.000001 1.413797
40  7.228110 5.709446 3.726567  3.140796 -1.570796 0.000000
41  2.450441 5.076127 0.001325  3.140791 -1.570796 0.000000
42  6.312419 -4.528060 0.001311  3.140791 -1.570796 0.000000
43  2.233288 1.152536 -7.309136  -1.133727 -1.600898 -0.902797
44  -5.952957 -2.602895 0.029162  0.000000 -0.000000 0.000000
time 7
0  1.278347 4.880564 38.416107  -0.032722 0.021317 -1.625930
1  -0.607880 0.521305 0.000013  -0.000029 -1.516076 -1.570773
2  0.000006 0.000009 4.427393  -0.198046 3.117757 -0.017240
3  18.465940 -0.000001 -0.000000  0.000000 0.000000 -0.378021
4  14.875444 0.000001 0.000000  0.091514 0.010115 0.364947
5  -0.000005 -0.000003 -4.427394  0.135070 3.048176 -0.379100
6  18.465950 -0.000005 -0.000001  0.000000 -0.000000 -0.398565
7  14.875443 -0.000000 -0.000001  -0.000277 0.016762 0.034215
8  2.255209 -0.007574 0.122659  -0.002988 0.010087 0.028872
9  9.514224 -0.009356 0.000000  0.010298 -0.045024 0.013599
10  11.752206 -0.001496 0.000000  0.010012 -0.011718 0.338252
11  -2.036272 0.684038 2.651127  0.604749 -1.396171 2.210863
12  4.640936 0.000001 -0.000003  -0.685328 0.959358 -1.124453
13  10.828037 0.000006 0.000002  0.128502 -0.017016 -0.280704
14  9.393343 -0.000004 -0.000012  -1.668230 -0.114330 0.121981
15  1.442245 0.107450 -1.746179  1.622280 0.470694 0.232410
16  1.063450 0.000009 0.000001  -0.000000 -0.000000 0.199056
17  1.376313 -0.000001 0.000000  0.000000 -0.000000 0.199049
18  4.172848 -0.251366 -1.312736  0.008018 0.042572 0.148237
19  1.215377 0.000002 0.000004  0.000000 -0.000000 0.645758
20  1.215371 -0.000005 -0.000008  -0.000000 -0.000000 0.735473
21  4.220530 -0.244857 -0.431459  0.001333 0.026242 0.148339
22  1.350413 0.000001 0.000000  0.000000 0.000000 0.814077
23  1.350410 0.000004 0.000000  -0.000000 -0.000000 1.013415
24  -2.096766 0.631064 -2.630742  -2.843509 1.760313 -0.051686
25  4.640941 -0.000005 0.000006  0.428427 -1.163729 -0.708404
26  10.828039 -0.000001 0.000005  0.066947 -0.310937 -1.019327
27  9.393342 0.000001 -0.000003  1.154956 -0.217664 0.224646
28  1.442238 0.107453 1.746181  -1.936651 -0.475825 0.677371
29  1.063452 -0.000002 -0.000002  0.000000 -0.000000 0.365351
30  1.376303 0.000004 -0.000001  -0.000000 -0.000000 0.808975
31  4.172841 -0.251367 1.312747  0.001190 -0.096055 0.052246
32  1.215372 0.000002 0.000011  0.000000 -0.000000 0.130471
33  1.215373 -0.000001 0.000017  0.000000 0.000000 1.148211
34  4.220529 -0.244854 0.431468  0.001184 -0.026242 0.052329
35  1.350418 -0.000002 0.000001  0.000000 0.000000 0.974265
36  1.350408 0.000000 0.000001  -0.000000 0.000000 1.513596
37  4.262823 -0.232718 -1.392183  0.001188 0.078478 0.052453
38  2.110538 0.000002 -0.000000  0.026648 0.068676 -0.141278
39  0.891927 2.373047 -0.014527  -3.141592 -0.000001 1.413797
40  7.228117 5.709445 3.726568  3.140796 -1.570796 0.000000
41  2.450438 5.076126 0.001325  3.140791 -1.570796 0.000000
42  6.312417 -4.528059 0.001311  3.140791 -1.570796 0.000000
43  2.233290 1.152535 -7.309137  -1.132933 -1.601806 -0.900040
44  -5.952957 -2.602895 0.029162  0.000000 -0.000000 0.000000
time 8
0  1.278347 5.257110 38.416107  -0.032711 0.016192 -1.624630
1  -0.524018 0.565079 0.000019  -0.000029 -1.515673 -1.570773
2  0.000005 0.000009 4.427392  -0.204668 3.119596 -0.030283
3  18.465942 -0.000001 -0.000002  0.000000 0.000000 -0.399718
4  14.875445 0.000002 0.000000  0.099054 0.011193 0.368432
5  0.000001 -0.000003 -4.427393  0.142588 3.046223 -0.377587
6  18.465948 -0.000005 -0.000001  0.000000 -0.000000 -0.387424
7  14.875437 -0.000000 -0.000002  -0.006751 0.015004 0.019183
8  2.255214 -0.007574 0.123581  0.007573 0.010113 0.027190
9  9.514226 -0.009356 0.000000  0.010497 -0.034843 -0.001748
10  11.752203 -0.001495 0.000000  0.015975 -0.030963 0.357838
11  -1.975457 0.740713 2.688911  0.835761 -1.403474 1.960289
12  4.640936 0.000001 -0.000007  -0.579144 1.041537 -0.965634
13  10.828031 0.000002 -0.000002  0.194392 -0.012150 -0.296605
14  9.393342 -0.000003 -0.000010  -1.625203 -0.055680 0.074188
15  1.442240 0.107449 -1.746180  1.638971 0.490012 0.257207
16  1.063448 0.000004 -0.000002  -0.000000 0.000000 0.199056
17  1.376312 0.000001 0.000003  0.000000 -0.000000 0.199049
18  4.172843 -0.251365 -1.312738  0.008024 0.057153 0.148355
19  1.215373 0.000000 0.000003  0.000000 -0.000000 0.645758
20  1.215376 -0.000005 -0.000010  -0.000000 -0.000000 0.710870
21  4.220529 -0.244855 -0.431461  0.001333 0.026242 0.148339
22  1.350415 0.000004 -0.000003  -0.000000 0.000000 0.827744
23  1.350412 0.000002 0.000004  -0.000000 -0.000000 0.972406
24  -2.136395 0.656405 -2.595262  0.232938 1.380375 3.008079
25  4.640941 -0.000004 0.000006  0.592691 -1.159482 -0.772657
26  10.828045 -0.000000 0.000005  0.171799 -0.415507 -0.862846
27  9.393343 -0.000002 -0.000002  0.991135 -0.275594 0.199010
28  1.442241 0.107451 1.746180  -1.936490 -0.475885 0.677200
29  1.063451 0.000003 -0.000003  0.000000 -0.000000 0.365155
30  1.376303 -0.000000 -0.000001  0.000000 -0.000000 0.808539
31  4.172843 -0.251366 1.312745  0.001190 -0.096055 0.052246
32  1.215374 0.000003 0.000008  -0.000000 0.000000 0.130402
33  1.215370 -0.000001 0.000012  0.000000 0.000000 1.147592
34  4.220530 -0.244854 0.431465  0.001184 -0.026242 0.052329
35  1.350415 -0.000002 0.000005  0.000000 0.000000 0.973740
36  1.350410 -0.000001 -0.000003  0.000000 0.000000 1.512780
37  4.262825 -0.232719 -1.392184  0.001188 0.078478 0.052453
38  2.110538 -0.000000 -0.000000  0.004948 0.059377 -0.155918
39  0.891928 2.373044 -0.014527  -3.141592 -0.000001 1.413797
40  7.228114 5.709446 3.726568  3.140796 -1.570796 0.000000
41  2.450436 5.076128 0.001325  3.140791 -1.570796 0.000000
42  6.312417 -4.528059 0.001311  3.140791 -1.570796 0.000000
43  2.233298 1.152536 -7.309136  -1.132086 -1.602621 -0.897702
44  -5.952957 -2.602895 0.029162  0.000000 -0.000000 0.000000
time 9
0  1.278347 5.561704 38.416107  -0.032701 0.012047 -1.623578
1  -0.456180 0.600489 0.000019  -0.000029 -1.515346 -1.570773
2  0.000002 0.000009 4.427392  -0.210025 3.121082 -0.040834
3  18.465948 -0.000001 -0.000001  0.000000 -0.000000 -0.417268
4  14.875446 0.000002 -0.000000  0.105154 0.012065 0.371251
5  -0.000002 -0.000003 -4.427393  0.148669 3.044644 -0.376364
6  18.465944 -0.000002 -0.000001  0.000000 -0.000000 -0.378412
7  14.875438 -0.000000 -0.000002  -0.011987 0.013581 0.007023
8  2.255213 -0.007575 0.124326  0.016116 0.010133 0.025829
9  9.514223 -0.009355 0.000000  0.010658 -0.026607 -0.014163
10  11.752210 -0.001495 0.000000  0.020798 -0.046531 0.373682
11  -1.926245 0.786556 2.719475  1.027463 -1.401568 1.752091
12  4.640935 0.000002 -0.000001  -0.459586 1.099629 -0.805468
13  10.828039 0.000001 0.000003  0.141341 -0.007491 -0.400029
14  9.393343 -0.000003 -0.000013  -1.594486 -0.008499 0.035548
15  1.442245 0.107449 -1.746179  1.653286 0.505378 0.277672
16  1.063447 0.000003 -0.000002  0.000000 -0.000000 0.199056
17  1.376316 0.000006 0.000002  -0.000000 -0.000000 0.199049
18  4.172847 -0.251366 -1.312738  0.008031 0.068947 0.148451
19  1.215371 0.000006 0.000005  0.000000 -0.000000 0.645758
20  1.215378 -0.000004 -0.000011  -0.000000 -0.000000 0.690968
21  4.220529 -0.244857 -0.431462  0.001333 0.026242 0.148339
22  1.350415 0.000003 -0.000004  -0.000000 0.000000 0.838799
23  1.350411 0.000004 0.000007  0.000000 -0.000000 0.939232
24  -2.168452 0.676905 -2.566561  0.181053 1.378746 2.942766
25  4.640942 -0.000003 -0.000002  0.724287 -1.155080 -0.823559
26  10.828054 0.000000 0.000007  0.256616 -0.500097 -0.736265
27  9.393340 0.000001 -0.000003  0.860896 -0.322398 0.177743
28  1.442241 0.107454 1.746182  -1.936360 -0.475933 0.677063
29  1.063450 0.000001 -0.000002  0.000000 -0.000000 0.364996
30  1.376306 0.000005 -0.000001  0.000000 0.000000 0.808185
31  4.172845 -0.251365 1.312743  0.001190 -0.096055 0.052246
32  1.215374 0.000001 -0.000000  -0.000000 -0.000000 0.130346
33  1.215370 -0.000000 0.000015  0.000000 0.000000 1.147091
34  4.220529 -0.244852 0.431463  0.001184 -0.026242 0.052329
35  1.350419 -0.000001 -0.000001  -0.000000 0.000000 0.973316
36  1.350408 -0.000000 0.000002  -0.000000 0.000000 1.512120
37  4.262823 -0.232718 -1.392182  0.001188 0.078478 0.052453
38  2.110538 -0.000003 0.000000  -0.012606 0.051854 -0.167762
39  0.891927 2.373047 -0.014528  -3.141592 -0.000001 1.413797
40  7.228118 5.709445 3.726568  3.140796 -1.570796 0.000000
41  2.450437 5.076127 0.001325  3.140791 -1.570796 0.000000
42  6.312415 -4.528059 0.001311  3.140791 -1.570796 0.000000
43  2.233295 1.152536 -7.309136  -1.131315 -1.603280 -0.895897
44  -5.952957 -2.602895 0.029162  0.000000 -0.000000 0.000000
time 10
0  1.278347 5.765567 38.416107  -0.032695 0.009273 -1.622874
1  -0.410778 0.624189 0.000017  -0.000029 -1.515128 -1.570773
2  0.000015 0.000009 4.427393  -0.213610 3.122076 -0.047896
3  18.465942 -0.000001 -0.000001  -0.000000 -0.000000 -0.429015
4  14.875445 0.000002 0.000001  0.109236 0.012648 0.373138
5  0.000004 -0.000003 -4.427393  0.152740 3.043587 -0.375545
6  18.465950 -0.000007 -0.000001  0.000000 -0.000000 -0.372380
7  14.875437 -0.000000 -0.000002  -0.015492 0.012629 -0.001116
8  2.255220 -0.007574 0.124825  0.021834 0.010147 0.024918
9  9.514227 -0.009356 0.000000  0.010766 -0.021095 -0.022472
10  11.752211 -0.001496 0.000000  0.024027 -0.056951 0.384287
11  -1.893329 0.817246 2.739931  1.149261 -1.396476 1.618915
12  4.640935 0.000003 -0.000010  -0.359437 1.132493 -0.679027
13  10.828035 0.000000 -0.000000  0.042819 -0.004111 -0.561657
14  9.393337 -0.000005 -0.000010  -1.575961 0.022833 0.009559
15  1.442245 0.107448 -1.746181  1.663280 0.515521 0.291582
16  1.063447 0.000000 -0.000002  0.000000 0.000000 0.199056
17  1.376314 -0.000003 0.000002  -0.000000 -0.000000 0.199049
18  4.172847 -0.251366 -1.312740  0.008036 0.076841 0.148516
19  1.215374 0.000003 0.000005  -0.000000 -0.000000 0.645758
20  1.215375 -0.000003 -0.000009  -0.000000 -0.000000 0.677648
21  4.220532 -0.244857 -0.431464  0.001333 0.026242 0.148339
22  1.350421 0.000006 -0.000002  -0.000000 0.000000 0.846198
23  1.350412 0.000002 0.000002  -0.000000 -0.000000 0.917030
24  -2.189907 0.690627 -2.547352  0.147012 1.377217 2.899770
25  4.640942 -0.000001 0.000004  0.811640 -1.151671 -0.857007
26  10.828049 0.000001 0.000006  0.313383 -0.556711 -0.651546
27  9.393342 0.000003 -0.000003  0.774912 -0.353661 0.163157
28  1.442240 0.107453 1.746183  -1.936273 -0.475965 0.676971
29  1.063450 0.000000 -0.000002  0.000000 -0.000000 0.364890
30  1.376306 0.000002 -0.000001  0.000000 0.000000 0.807949
31  4.172843 -0.251365 1.312745  0.001190 -0.096055 0.052246
32  1.215375 0.000002 0.000002  0.000000 0.000000 0.130309
33  1.215371 0.000000 0.000018  -0.000000 0.000000 1.146756
34  4.220526 -0.244853 0.431467  0.001184 -0.026242 0.052329
35  1.350419 -0.000001 0.000013  0.000000 0.000000 0.973032
36  1.350409 -0.000001 -0.000005  -0.000000 0.000000 1.511678
37  4.262822 -0.232718 -1.392183  0.001188 0.078478 0.052453
38  2.110530 -0.000000 -0.000000  -0.024354 0.046819 -0.175688
39  0.891920 2.373047 -0.014528  -3.141592 -0.000001 1.413797
40  7.228123 5.709445 3.726568  3.140796 -1.570796 0.000000
41  2.450440 5.076126 0.001325  3.140791 -1.570796 0.000000
42  6.312425 -4.528059 0.001311  3.140791 -1.570796 0.000000
43  2.233301 1.152536 -7.309136  -1.130759 -1.603721 -0.894729
44  -5.952957 -2.602895 0.029162  0.000000 -0.000000 0.000000
time 11
0  1.278347 5.839917 38.416107  -0.032693 0.008261 -1.622617
1  -0.394219 0.632832 0.000027  -0.000030 -1.515048 -1.570772
2  0.000012 0.000009 4.427392  -0.214918 3.122438 -0.050472
3  18.465939 -0.000001 -0.000001  -0.000000 -0.000000 -0.433299
4  14.875444 0.000004 0.000000  0.110725 0.012861 0.373826
5  -0.000004 -0.000003 -4.427393  0.154224 3.043202 -0.375246
6  18.465954 -0.000006 -0.000002  -0.000000 -0.000000 -0.370180
7  14.875437 -0.000000 -0.000001  -0.016770 0.012281 -0.004084
8  2.255218 -0.007574 0.125007  0.023919 0.010152 0.024586
9  9.514225 -0.009355 -0.000000  0.010805 -0.019085 -0.025502
10  11.752218 -0.001496 0.000000  0.025204 -0.060751 0.388154
11  -1.881309 0.828427 2.747392  1.191411 -1.393913 1.572547
12  4.640934 0.000002 -0.000007  -0.318642 1.142982 -0.628809
13  10.828044 0.000002 0.000002  -0.010232 -0.002807 -0.645707
14  9.393341 -0.000003 -0.000013  -1.569611 0.034195 0.000037
15  1.442245 0.107449 -1.746178  1.667008 0.519190 0.296699
16  1.063449 0.000012 -0.000003  0.000000 0.000000 0.199056
17  1.376313 0.000007 0.000003  -0.000000 -0.000000 0.199049
18  4.172847 -0.251364 -1.312736  0.008038 0.079720 0.148539
19  1.215373 0.000005 0.000002  -0.000000 -0.000000 0.645758
20  1.215370 -0.000003 -0.000014  0.000000 -0.000000 0.672790
21  4.220531 -0.244855 -0.431459  0.001333 0.026242 0.148339
22  1.350420 0.000006 0.000002  -0.000000 -0.000000 0.848897
23  1.350406 0.000005 0.000002  -0.000000 -0.000000 0.908932
24  -2.197730 0.695625 -2.540347  0.134767 1.376574 2.884266
25  4.640943 -0.000001 0.000003  0.843344 -1.150338 -0.869073
26  10.828040 -0.000001 0.000006  0.334086 -0.577359 -0.620648
27  9.393338 0.000003 -0.000000  0.743796 -0.365046 0.157755
28  1.442239 0.107453 1.746186  -1.936241 -0.475977 0.676937
29  1.063450 -0.000001 -0.000002  -0.000000 0.000000 0.364851
30  1.376306 0.000007 -0.000001  0.000000 -0.000000 0.807863
31  4.172843 -0.251365 1.312750  0.001190 -0.096055 0.052246
32  1.215375 0.000003 0.000000  -0.000000 -0.000000 0.130295
33  1.215370 -0.000002 0.000021  0.000000 0.000000 1.146634
34  4.220527 -0.244852 0.431469  0.001184 -0.026242 0.052329
35  1.350419 -0.000002 0.000020  -0.000000 -0.000000 0.972928
36  1.350410 0.000001 0.000002  0.000000 -0.000000 1.511517
37  4.262823 -0.232718 -1.392182  0.001188 0.078478 0.052453
38  2.110538 -0.000007 -0.000000  -0.028639 0.044983 -0.178579
39  0.891930 2.373044 -0.014528  -3.141592 -0.000001 1.413797
40  7.228126 5.709445 3.726568  3.140796 -1.570796 0.000000
41  2.450438 5.076127 0.001324  3.140791 -1.570796 0.000000
42  6.312426 -4.528060 0.001311  3.140791 -1.570796 0.000000
43  2.233299 1.152536 -7.309136  -1.130549 -1.603882 -0.894311
44  -5.952957 -2.602895 0.029162  0.000000 -0.000000 0.000000
end
