version 1
nodes
0 "Bip01" -1
1 "Bip01 Pelvis" 0
2 "Bip01 L Thigh" 1
3 "Bip01 L Calf" 2
4 "Bip01 L Foot" 3
5 "Bip01 R Thigh" 1
6 "Bip01 R Calf" 5
7 "Bip01 R Foot" 6
8 "Bip01 Spine" 1
9 "Bip01 Spine1" 8
10 "Bip01 Neck" 9
11 "Bip01 L Clavicle" 10
12 "Bip01 L UpperArm" 11
13 "Bip01 L Forearm" 12
14 "Bip01 L Hand" 13
15 "Bip01 L Finger0" 14
16 "Bip01 L Finger01" 15
17 "Bip01 L Finger02" 16
18 "Bip01 L Finger1" 14
19 "Bip01 L Finger11" 18
20 "Bip01 L Finger12" 19
21 "Bip01 L Finger2" 14
22 "Bip01 L Finger21" 21
23 "Bip01 L Finger22" 22
24 "Bip01 R Clavicle" 10
25 "Bip01 R UpperArm" 24
26 "Bip01 R Forearm" 25
27 "Bip01 R Hand" 26
28 "Bip01 R Finger0" 27
29 "Bip01 R Finger01" 28
30 "Bip01 R Finger02" 29
31 "Bip01 R Finger1" 27
32 "Bip01 R Finger11" 31
33 "Bip01 R Finger12" 32
34 "Bip01 R Finger2" 27
35 "Bip01 R Finger21" 34
36 "Bip01 R Finger22" 35
37 "Bip01 R Finger4" 27
38 "Bip01 Head" 10
39 "Bone05" 38
40 "Bone08" 9
41 "Bone16" 8
42 "Bone01" 8
43 "Bone03" 1
44 "Line02" -1
end
skeleton
time 0
0  1.278347 5.839917 38.416107  -0.032693 0.008261 -1.622617
1  -0.394219 0.632832 0.000031  -0.000030 -1.515048 -1.570772
2  0.000012 0.000009 4.427392  -0.214918 3.122438 -0.050472
3  18.465940 0.000000 -0.000002  0.000000 -0.000000 -0.433299
4  14.875445 0.000007 -0.000002  0.110725 0.012861 0.373826
5  -0.000004 -0.000005 -4.427393  0.154224 3.043202 -0.375246
6  18.465958 -0.000008 -0.000001  -0.000000 0.000000 -0.370180
7  14.875438 0.000000 0.000000  -0.016770 0.012281 -0.004084
8  2.255218 -0.007573 0.125007  0.023919 0.010152 0.024586
9  9.514225 -0.009354 -0.000000  0.010805 -0.019085 -0.025502
10  11.752211 -0.001492 -0.000000  0.025204 -0.060751 0.388154
11  -1.881315 0.828428 2.747388  1.191412 -1.393913 1.572547
12  4.640940 0.000001 -0.000011  -0.318642 1.142982 -0.628809
13  10.828051 0.000005 0.000005  -0.010232 -0.002807 -0.645707
14  9.393328 -0.000012 -0.000002  -1.569611 0.034195 0.000037
15  1.442255 0.107449 -1.746184  1.667008 0.519190 0.296699
16  1.063450 0.000012 -0.000002  -0.000000 -0.000000 0.199056
17  1.376310 0.000000 0.000000  0.000000 -0.000000 0.199049
18  4.172850 -0.251366 -1.312740  0.008038 0.079720 0.148539
19  1.215382 0.000000 -0.000004  -0.000000 0.000000 0.645758
20  1.215369 -0.000001 -0.000014  0.000000 0.000000 0.672790
21  4.220541 -0.244850 -0.431461  0.001333 0.026242 0.148339
22  1.350412 0.000003 -0.000007  0.000000 -0.000000 0.848897
23  1.350411 0.000003 -0.000000  -0.000000 0.000000 0.908932
24  -2.197732 0.695624 -2.540349  0.134767 1.376574 2.884266
25  4.640943 -0.000009 -0.000001  0.843344 -1.150338 -0.869073
26  10.828039 0.000001 0.000009  0.334086 -0.577359 -0.620648
27  9.393341 -0.000009 0.000003  0.743796 -0.365046 0.157755
28  1.442246 0.107455 1.746185  -1.936241 -0.475977 0.676937
29  1.063457 0.000002 -0.000000  -0.000000 0.000000 0.364851
30  1.376314 -0.000001 0.000001  0.000000 0.000000 0.807863
31  4.172840 -0.251361 1.312745  0.001190 -0.096055 0.052246
32  1.215375 0.000004 0.000003  0.000000 -0.000000 0.130295
33  1.215365 -0.000001 0.000015  0.000000 0.000000 1.146634
34  4.220542 -0.244849 0.431457  0.001184 -0.026242 0.052329
35  1.350421 0.000001 -0.000000  0.000000 -0.000000 0.972928
36  1.350408 -0.000001 0.000002  -0.000000 0.000000 1.511517
37  4.262836 -0.232718 -1.392185  0.001188 0.078478 0.052453
38  2.110540 -0.000010 0.000000  -0.028639 0.044983 -0.178579
39  0.891946 2.373040 -0.014527  -3.141592 -0.000001 1.413797
40  7.228106 5.709446 3.726570  3.140796 -1.570796 0.000000
41  2.450426 5.076127 0.001323  3.140791 -1.570796 0.000000
42  6.312426 -4.528056 0.001311  3.140791 -1.570796 0.000000
43  2.233299 1.152535 -7.309137  -1.130549 -1.603882 -0.894311
44  -5.952957 -2.602895 0.029162  0.000000 -0.000000 0.000000
time 1
0  0.825642 6.051574 38.395683  -0.026802 0.008900 -1.642415
1  -0.258507 0.663044 0.000015  -0.000030 -1.501538 -1.570772
2  -0.000001 0.000009 4.427392  -0.200511 3.110233 -0.023592
3  18.465940 -0.000001 -0.000001  -0.000000 0.000000 -0.391468
4  14.875445 0.000005 0.000000  0.077830 0.004943 0.358930
5  -0.000005 -0.000004 -4.427393  0.134971 3.043207 -0.388012
6  18.465948 -0.000003 -0.000001  0.000000 -0.000000 -0.406494
7  14.875439 -0.000000 0.000001  -0.022134 -0.000698 0.021025
8  2.252173 -0.007573 0.155390  0.028010 -0.006304 0.023311
9  9.514223 -0.009355 0.000000  0.003539 -0.004127 -0.052414
10  11.752192 -0.001492 0.000000  0.065367 -0.068816 0.465140
11  -1.783242 1.043697 2.680963  1.152677 -1.360433 1.534972
12  4.640940 0.000001 -0.000011  -0.379033 1.128456 -0.703659
13  10.828042 0.000002 0.000001  -0.043397 -0.059496 -0.454638
14  9.393322 -0.000016 -0.000006  -1.585210 0.031029 0.002696
15  1.442252 0.107448 -1.746184  1.671187 0.523663 0.303088
16  1.063453 0.000007 0.000001  0.000000 -0.000000 0.199056
17  1.376309 -0.000001 -0.000000  -0.000000 0.000000 0.199049
18  4.172852 -0.251367 -1.312741  0.008040 0.083257 0.148568
19  1.215379 -0.000000 -0.000005  0.000000 -0.000000 0.645758
20  1.215372 -0.000004 -0.000005  -0.000000 0.000000 0.666809
21  4.220538 -0.244853 -0.431462  0.001333 0.026242 0.148339
22  1.350414 0.000000 -0.000006  0.000000 0.000000 0.852217
23  1.350410 0.000000 -0.000001  -0.000000 -0.000000 0.898981
24  -2.166341 0.707784 -2.562629  0.015174 1.385539 2.700902
25  4.640942 -0.000009 0.000003  0.811640 -1.151671 -0.857007
26  10.828040 -0.000001 0.000009  0.313383 -0.556711 -0.651546
27  9.393338 -0.000008 0.000003  0.774912 -0.353661 0.163157
28  1.442245 0.107455 1.746184  -1.883621 -0.493129 0.607264
29  1.063455 0.000004 -0.000001  0.000000 -0.000000 0.330443
30  1.376312 0.000011 0.000000  0.000000 0.000000 0.681391
31  4.172843 -0.251362 1.312743  -0.000734 -0.096060 0.072307
32  1.215374 0.000003 0.000008  -0.000000 -0.000000 0.237567
33  1.215370 -0.000001 0.000010  0.000000 0.000000 1.042703
34  4.220540 -0.244849 0.431459  0.000662 -0.026260 0.072300
35  1.350420 -0.000000 0.000003  0.000000 0.000000 0.950481
36  1.350409 0.000002 0.000004  0.000000 0.000000 1.377142
37  4.262831 -0.232718 -1.392179  0.004467 0.078363 0.094338
38  2.110538 -0.000006 0.000000  -0.030963 0.018915 -0.201182
39  0.891945 2.373042 -0.014527  -3.141592 -0.000001 1.413797
40  7.228106 5.709446 3.726569  3.140796 -1.570796 0.000000
41  2.450426 5.076127 0.001324  3.140791 -1.570796 0.000000
42  6.312415 -4.528057 0.001311  3.140791 -1.570796 0.000000
43  2.233294 1.152535 -7.309137  -1.129493 -1.603653 -0.911264
44  -5.952957 -2.602895 0.029162  0.000000 -0.000000 0.000000
time 2
0  -0.015095 6.531968 38.357746  -0.015862 0.010530 -1.685244
1  -0.006474 0.737529 -0.000002  -0.000030 -1.476447 -1.570772
2  -0.000005 0.000008 4.427393  -0.173754 3.083224 0.026303
3  18.465946 -0.000000 -0.000002  -0.000000 0.000000 -0.313782
4  14.875443 0.000000 -0.000000  0.010844 -0.009753 0.331256
5  0.000003 -0.000004 -4.427392  0.097829 3.043044 -0.413671
6  18.465942 -0.000002 -0.000000  0.000000 -0.000000 -0.473934
7  14.875442 -0.000000 0.000001  -0.034906 -0.024809 0.067649
8  2.246536 -0.007573 0.211816  0.035607 -0.036865 0.019683
9  9.514220 -0.009357 -0.000000  -0.009954 0.027285 -0.102394
10  11.752193 -0.001490 0.000001  0.151241 -0.093918 0.608113
11  -1.568835 1.505499 2.556377  1.078465 -1.284025 1.466013
12  4.640942 0.000001 -0.000012  -0.490547 1.090257 -0.846179
13  10.828044 0.000003 0.000002  -0.104990 -0.164777 -0.099795
14  9.393333 -0.000011 -0.000002  -1.611778 0.008790 0.021251
15  1.442245 0.107452 -1.746178  1.680766 0.533583 0.317524
16  1.063450 -0.000000 -0.000001  -0.000000 -0.000000 0.199056
17  1.376309 -0.000003 0.000000  -0.000000 0.000000 0.199049
18  4.172843 -0.251368 -1.312746  0.008045 0.091176 0.148632
19  1.215375 -0.000001 0.000001  0.000000 -0.000000 0.645758
20  1.215368 -0.000001 0.000000  -0.000000 -0.000000 0.653423
21  4.220532 -0.244855 -0.431462  0.001333 0.026242 0.148339
22  1.350415 0.000002 0.000002  -0.000000 -0.000000 0.859648
23  1.350408 -0.000001 0.000001  0.000000 -0.000000 0.876706
24  -2.108026 0.730358 -2.604007  -0.215530 1.384629 2.340306
25  4.640943 -0.000009 0.000005  0.724287 -1.155080 -0.823559
26  10.828033 0.000002 0.000010  0.256616 -0.500097 -0.736265
27  9.393342 -0.000011 0.000002  0.860896 -0.322398 0.177743
28  1.442241 0.107454 1.746180  -1.769454 -0.523452 0.449849
29  1.063453 -0.000002 0.000000  -0.000000 -0.000000 0.266541
30  1.376308 0.000003 0.000002  0.000000 -0.000000 0.446513
31  4.172843 -0.251364 1.312745  -0.004307 -0.095968 0.109564
32  1.215375 0.000002 0.000005  -0.000000 -0.000000 0.436785
33  1.215372 -0.000000 0.000003  0.000000 -0.000000 0.849687
34  4.220532 -0.244852 0.431469  -0.000307 -0.026266 0.109390
35  1.350417 -0.000000 0.000003  -0.000000 -0.000000 0.908795
36  1.350409 0.000000 0.000005  0.000000 -0.000000 1.127589
37  4.262824 -0.232719 -1.392177  0.010531 0.077785 0.172120
38  2.110547 -0.000004 -0.000000  -0.041137 -0.029498 -0.253197
39  0.891924 2.373049 -0.014527  -3.141592 -0.000001 1.413797
40  7.228118 5.709445 3.726568  3.140796 -1.570796 0.000000
41  2.450425 5.076127 0.001325  3.140791 -1.570796 0.000000
42  6.312407 -4.528058 0.001311  3.140791 -1.570796 0.000000
43  2.233305 1.152534 -7.309137  -1.116924 -1.603905 -0.957566
44  -5.952957 -2.602895 0.029162  0.000000 -0.000000 0.000000
time 3
0  -0.467800 7.049236 38.337322  -0.009971 0.012717 -1.726259
1  0.129237 0.832057 -0.000000  -0.000030 -1.462937 -1.570772
2  -0.000010 0.000008 4.427393  -0.159348 3.055873 0.053135
3  18.465937 -0.000000 -0.000001  -0.000000 0.000000 -0.271951
4  14.875441 -0.000002 -0.000000  -0.042682 -0.017660 0.316348
5  0.000008 -0.000002 -4.427393  0.073718 3.042437 -0.433269
6  18.465935 0.000001 -0.000000  -0.000000 -0.000000 -0.510248
7  14.875443 0.000000 0.000001  -0.050111 -0.037797 0.092749
8  2.243490 -0.007573 0.242198  0.039699 -0.053321 0.013998
9  9.514221 -0.009358 -0.000000  -0.017220 0.054956 -0.129306
10  11.752199 -0.001488 -0.000000  0.230907 -0.137416 0.685099
11  -1.357856 1.937841 2.485664  1.067268 -1.201047 1.394191
12  4.640942 0.000001 -0.000011  -0.571317 1.046202 -0.954701
13  10.828048 0.000001 0.000001  -0.138155 -0.221467 0.091274
14  9.393327 -0.000012 -0.000003  -1.622770 -0.052127 0.071291
15  1.442240 0.107455 -1.746179  1.691073 0.543789 0.332781
16  1.063452 -0.000000 -0.000000  -0.000000 -0.000000 0.199056
17  1.376307 0.000002 -0.000000  0.000000 -0.000000 0.199049
18  4.172840 -0.251367 -1.312750  0.008050 0.099435 0.148699
19  1.215369 -0.000004 -0.000001  0.000000 0.000000 0.645758
20  1.215374 -0.000003 0.000001  0.000000 -0.000000 0.639469
21  4.220526 -0.244857 -0.431467  0.001333 0.026242 0.148339
22  1.350414 -0.000002 -0.000003  -0.000000 0.000000 0.867398
23  1.350406 -0.000002 -0.000002  0.000000 -0.000000 0.853471
24  -2.076628 0.742507 -2.626287  -0.293454 1.374789 2.159526
25  4.640939 -0.000009 -0.000004  0.592691 -1.159482 -0.772656
26  10.828037 0.000000 0.000009  0.171799 -0.415508 -0.862846
27  9.393343 -0.000002 0.000001  0.991135 -0.275594 0.199010
28  1.442248 0.107454 1.746178  -1.666858 -0.542719 0.287895
29  1.063451 -0.000003 0.000001  0.000000 -0.000000 0.232133
30  1.376307 0.000008 -0.000000  0.000000 0.000000 0.320040
31  4.172849 -0.251364 1.312747  -0.006228 -0.095863 0.129625
32  1.215374 0.000002 -0.000000  -0.000000 0.000000 0.544057
33  1.215375 0.000001 0.000003  -0.000000 -0.000000 0.745756
34  4.220537 -0.244852 0.431469  -0.000829 -0.026254 0.129361
35  1.350417 -0.000002 0.000001  0.000000 -0.000000 0.886348
36  1.350410 -0.000001 -0.000010  -0.000000 -0.000000 0.993214
37  4.262827 -0.232719 -1.392173  0.013772 0.077280 0.213999
38  2.110547 -0.000007 0.000000  -0.063961 -0.055566 -0.310940
39  0.891931 2.373049 -0.014527  -3.141592 -0.000001 1.413797
40  7.228131 5.709445 3.726567  3.140796 -1.570796 0.000000
41  2.450430 5.076127 0.001325  3.140791 -1.570796 0.000000
42  6.312405 -4.528059 0.001311  3.140791 -1.570796 0.000000
43  2.233306 1.152535 -7.309137  -1.085584 -1.606066 -1.019539
44  -5.952957 -2.602895 0.029162  0.000000 -0.000000 0.000000
time 4
0  -0.331428 7.416857 38.344551  -0.011176 0.015184 -1.746850
1  0.124277 0.924777 0.000026  -0.000030 -1.463100 -1.570772
2  -0.000009 0.000008 4.427393  -0.161297 3.039397 0.043194
3  18.465937 0.000001 0.000000  -0.000000 -0.000000 -0.279661
4  14.875440 -0.000001 0.000000  -0.060467 -0.009886 0.316841
5  0.000004 -0.000003 -4.427392  0.069530 3.039670 -0.439164
6  18.465939 0.000002 -0.000001  -0.000000 -0.000000 -0.495541
7  14.875443 -0.000000 0.000001  -0.063445 -0.035056 0.078809
8  2.243484 -0.007573 0.241801  0.039561 -0.052087 0.006788
9  9.514220 -0.009358 0.000000  -0.014742 0.065909 -0.124632
10  11.752191 -0.001490 -0.000000  0.266129 -0.197690 0.682768
11  -1.194389 2.111390 2.505143  1.163115 -1.144227 1.285385
12  4.640943 0.000000 -0.000009  -0.562197 1.000167 -0.945770
13  10.828046 0.000005 0.000002  -0.115211 -0.217554 0.035687
14  9.393332 -0.000010 -0.000005  -1.626887 -0.161483 0.157495
15  1.442239 0.107449 -1.746179  1.697927 0.550386 0.342873
16  1.063454 0.000006 -0.000001  0.000000 -0.000000 0.199056
17  1.376307 -0.000002 0.000003  0.000000 -0.000000 0.199049
18  4.172843 -0.251373 -1.312749  0.008052 0.104837 0.148744
19  1.215374 0.000002 0.000000  -0.000000 -0.000000 0.645758
20  1.215366 -0.000003 0.000000  -0.000000 -0.000000 0.630356
21  4.220529 -0.244861 -0.431466  0.001333 0.026242 0.148339
22  1.350420 0.000001 0.000001  -0.000000 0.000000 0.872464
23  1.350402 0.000001 -0.000003  0.000000 -0.000000 0.838274
24  -2.151706 0.730304 -2.557927  -0.115750 1.351807 2.307306
25  4.640942 -0.000009 0.000002  0.428427 -1.163730 -0.708404
26  10.828039 0.000001 0.000007  0.066947 -0.310937 -1.019327
27  9.393339 -0.000012 0.000001  1.154956 -0.217664 0.224646
28  1.442247 0.107454 1.746174  -1.617337 -0.548517 0.192526
29  1.063450 0.000004 0.000001  0.000000 -0.000000 0.253130
30  1.376307 0.000003 0.000001  -0.000000 -0.000000 0.396841
31  4.172848 -0.251365 1.312747  -0.005070 -0.095931 0.117535
32  1.215374 0.000001 0.000004  -0.000000 -0.000000 0.479498
33  1.215376 -0.000001 0.000004  0.000000 0.000000 0.809213
34  4.220534 -0.244853 0.431470  -0.000515 -0.026262 0.117325
35  1.350416 0.000000 -0.000007  0.000000 -0.000000 0.900571
36  1.350410 -0.000001 -0.000006  0.000000 -0.000000 1.075280
37  4.262826 -0.232721 -1.392174  0.011821 0.077601 0.188760
38  2.110547 -0.000004 -0.000000  -0.101342 -0.042441 -0.355068
39  0.891934 2.373049 -0.014527  -3.141592 -0.000001 1.413797
40  7.228128 5.709445 3.726567  3.140796 -1.570796 0.000000
41  2.450421 5.076127 0.001325  3.140791 -1.570796 0.000000
42  6.312398 -4.528059 0.001311  3.140791 -1.570796 0.000000
43  2.233308 1.152535 -7.309137  -1.059825 -1.611326 -1.058048
44  -5.952957 -2.602895 0.029162  0.000000 -0.000000 0.000000
time 5
0  0.001330 7.629681 38.361851  -0.014255 0.018265 -1.753356
1  0.117029 1.003344 0.000030  -0.000030 -1.463338 -1.570772
2  -0.000002 0.000007 4.427393  -0.165578 3.031986 0.021377
3  18.465940 0.000000 0.000000  -0.000000 -0.000000 -0.296624
4  14.875441 -0.000001 0.000001  -0.063351 0.007217 0.318450
5  0.000005 -0.000003 -4.427393  0.068856 3.034791 -0.440128
6  18.465937 0.000001 -0.000001  -0.000000 -0.000000 -0.463186
7  14.875443 -0.000000 0.000000  -0.073587 -0.027812 0.048136
8  2.243485 -0.007573 0.241221  0.039358 -0.048185 -0.000476
9  9.514222 -0.009358 -0.000000  -0.008830 0.067669 -0.109962
10  11.752192 -0.001489 0.000000  0.273430 -0.261198 0.679361
11  -1.038613 2.101195 2.555746  1.290934 -1.110787 1.147671
12  4.640943 -0.000000 -0.000005  -0.496762 0.941638 -0.857366
13  10.828051 0.000000 0.000003  -0.077610 -0.211837 -0.143866
14  9.393328 -0.000006 -0.000004  -1.645780 -0.252138 0.234022
15  1.442241 0.107452 -1.746179  1.701376 0.553679 0.347977
16  1.063451 0.000007 0.000002  0.000000 0.000000 0.199056
17  1.376307 -0.000002 -0.000000  -0.000000 0.000000 0.199049
18  4.172845 -0.251365 -1.312747  0.008052 0.107551 0.148768
19  1.215368 -0.000003 -0.000001  -0.000000 0.000000 0.645758
20  1.215370 -0.000001 -0.000004  0.000000 -0.000000 0.625785
21  4.220531 -0.244855 -0.431464  0.001333 0.026242 0.148339
22  1.350418 -0.000004 -0.000001  -0.000000 0.000000 0.875009
23  1.350405 -0.000002 -0.000002  -0.000000 0.000000 0.830637
24  -2.316876 0.703455 -2.407530  0.130024 1.290157 2.553279
25  4.640940 -0.000010 -0.000004  0.243669 -1.166839 -0.635454
26  10.828040 -0.000001 0.000007  -0.049926 -0.194377 -1.193749
27  9.393341 -0.000011 0.000002  1.341101 -0.153132 0.252698
28  1.442245 0.107453 1.746177  -1.596122 -0.549749 0.151883
29  1.063452 0.000004 -0.000001  0.000000 -0.000000 0.299325
30  1.376307 0.000006 0.000001  0.000000 -0.000000 0.565802
31  4.172846 -0.251366 1.312750  -0.002521 -0.096030 0.090936
32  1.215373 0.000003 0.000006  -0.000000 -0.000000 0.337469
33  1.215374 -0.000000 0.000006  0.000000 0.000000 0.948818
34  4.220533 -0.244854 0.431465  0.000178 -0.026267 0.090845
35  1.350418 0.000001 0.000001  -0.000000 -0.000000 0.931862
36  1.350408 -0.000001 -0.000008  0.000000 -0.000000 1.255824
37  4.262824 -0.232722 -1.392171  0.007505 0.078133 0.133230
38  2.110541 0.000004 -0.000000  -0.143606 -0.010202 -0.383628
39  0.891930 2.373049 -0.014527  -3.141592 -0.000001 1.413797
40  7.228124 5.709445 3.726567  3.140796 -1.570796 0.000000
41  2.450429 5.076126 0.001326  3.140791 -1.570796 0.000000
42  6.312401 -4.528059 0.001311  3.140791 -1.570796 0.000000
43  2.233312 1.152535 -7.309138  -1.055540 -1.618196 -1.064494
44  -5.952957 -2.602895 0.029162  0.000000 -0.000000 0.000000
time 6
0  0.415940 7.727901 38.382645  -0.018404 0.022447 -1.756206
1  0.105202 1.057794 0.000015  -0.000030 -1.463726 -1.570772
2  -0.000005 0.000007 4.427394  -0.169858 3.029157 -0.000432
3  18.465937 0.000000 -0.000001  -0.000000 -0.000000 -0.313587
4  14.875442 -0.000001 0.000001  -0.065154 0.024322 0.321368
5  0.000006 -0.000004 -4.427393  0.068442 3.030151 -0.440726
6  18.465942 -0.000000 -0.000000  0.000000 -0.000000 -0.430832
7  14.875443 -0.000000 0.000001  -0.080036 -0.017530 0.017456
8  2.243490 -0.007574 0.240276  0.039027 -0.041318 -0.006087
9  9.514222 -0.009358 -0.000000  -0.001767 0.068747 -0.084328
10  11.752193 -0.001489 -0.000000  0.277320 -0.311418 0.673800
11  -0.898012 2.061786 2.606926  1.415559 -1.090865 1.029869
12  4.640943 0.000000 -0.000004  -0.446551 0.879273 -0.783776
13  10.828048 0.000003 0.000005  -0.060389 -0.209984 -0.436018
14  9.393329 -0.000008 0.000003  -1.716665 -0.273896 0.256708
15  1.442241 0.107452 -1.746178  1.702672 0.554895 0.349876
16  1.063452 0.000003 -0.000001  -0.000000 0.000000 0.199056
17  1.376306 -0.000004 -0.000001  0.000000 0.000000 0.199049
18  4.172845 -0.251366 -1.312746  0.008051 0.108558 0.148777
19  1.215374 -0.000001 0.000003  0.000000 0.000000 0.645758
20  1.215370 -0.000001 -0.000002  -0.000000 -0.000000 0.624089
21  4.220531 -0.244856 -0.431463  0.001333 0.026242 0.148339
22  1.350420 -0.000002 -0.000002  -0.000000 -0.000000 0.875953
23  1.350407 0.000002 -0.000003  0.000000 -0.000000 0.827805
24  -2.482032 0.676589 -2.257134  0.317258 1.217474 2.739765
25  4.640941 -0.000009 0.000002  0.051299 -1.168188 -0.559086
26  10.828039 0.000003 0.000008  -0.170807 -0.073820 -1.374151
27  9.393339 -0.000013 0.000001  1.537454 -0.086591 0.281511
28  1.442245 0.107454 1.746178  -1.587795 -0.550031 0.135947
29  1.063450 0.000001 0.000001  -0.000000 0.000000 0.345519
30  1.376307 0.000012 0.000000  -0.000000 0.000000 0.734764
31  4.172847 -0.251364 1.312744  0.000030 -0.096063 0.064337
32  1.215374 0.000000 -0.000005  -0.000000 -0.000000 0.195441
33  1.215375 0.000001 0.000000  0.000000 0.000000 1.088423
34  4.220534 -0.244853 0.431468  0.000870 -0.026254 0.064365
35  1.350418 -0.000003 0.000000  0.000000 -0.000000 0.963153
36  1.350410 -0.000000 -0.000001  0.000000 -0.000000 1.436368
37  4.262824 -0.232720 -1.392174  0.003165 0.078425 0.077696
38  2.110551 -0.000004 -0.000000  -0.178182 0.030446 -0.399010
39  0.891930 2.373049 -0.014527  -3.141592 -0.000001 1.413797
40  7.228126 5.709444 3.726567  3.140796 -1.570796 0.000000
41  2.450423 5.076127 0.001325  3.140791 -1.570796 0.000000
42  6.312400 -4.528059 0.001311  3.140791 -1.570796 0.000000
43  2.233307 1.152535 -7.309138  -1.061560 -1.624148 -1.059854
44  -5.952957 -2.602895 0.029162  0.000000 -0.000000 0.000000
time 7
0  0.797863 7.751709 38.400349  -0.022818 0.028219 -1.757227
1  0.031578 1.078158 0.000005  -0.000030 -1.466142 -1.570772
2  -0.000008 0.000009 4.427393  -0.171803 3.028604 -0.010344
3  18.465942 0.000000 -0.000001  -0.000000 0.000000 -0.321298
4  14.875444 -0.000000 -0.000001  -0.066431 0.032102 0.325790
5  0.000006 -0.000002 -4.427392  0.068159 3.028087 -0.441130
6  18.465933 0.000000 -0.000001  -0.000000 0.000000 -0.416125
7  14.875443 -0.000000 0.000000  -0.082295 -0.005665 0.003495
8  2.243488 -0.007573 0.234385  0.036957 -0.031188 -0.008336
9  9.514219 -0.009358 0.000000  0.004164 0.069485 -0.046760
10  11.752194 -0.001490 0.000001  0.279505 -0.331830 0.639179
11  -0.834406 2.043313 2.630200  1.510396 -1.083701 0.979368
12  4.640943 -0.000000 -0.000004  -0.463838 0.825051 -0.800731
13  10.828050 0.000007 0.000009  -0.051346 -0.204227 -0.707176
14  9.393332 -0.000005 0.000000  -1.828424 -0.285429 0.267615
15  1.442241 0.107454 -1.746173  1.702878 0.555079 0.350165
16  1.063454 0.000005 0.000004  -0.000000 0.000000 0.199056
17  1.376308 -0.000006 0.000005  0.000000 0.000000 0.199049
18  4.172844 -0.251365 -1.312745  0.008050 0.108711 0.148779
19  1.215373 -0.000001 0.000002  -0.000000 -0.000000 0.645758
20  1.215369 -0.000003 -0.000002  0.000000 0.000000 0.623830
21  4.220529 -0.244857 -0.431461  0.001333 0.026242 0.148339
22  1.350417 0.000001 0.000000  -0.000000 0.000000 0.876096
23  1.350408 -0.000001 -0.000002  0.000000 -0.000000 0.827375
24  -2.557112 0.664377 -2.188772  0.451998 1.176881 2.872216
25  4.640938 -0.000010 -0.000002  -0.135314 -1.167643 -0.484979
26  10.828051 0.000003 0.000007  -0.287680 0.042740 -1.548572
27  9.393340 -0.000015 0.000000  1.730953 -0.022609 0.309534
28  1.442246 0.107454 1.746170  -1.585943 -0.550079 0.132381
29  1.063452 -0.000001 -0.000001  0.000000 0.000000 0.366516
30  1.376307 0.000004 0.000002  0.000000 -0.000000 0.811565
31  4.172846 -0.251366 1.312747  0.001190 -0.096055 0.052246
32  1.215375 0.000002 0.000003  -0.000000 0.000000 0.130882
33  1.215374 0.000000 -0.000002  -0.000000 -0.000000 1.151880
34  4.220534 -0.244852 0.431464  0.001184 -0.026242 0.052329
35  1.350417 -0.000001 -0.000006  0.000000 -0.000000 0.977377
36  1.350410 -0.000000 -0.000000  0.000000 -0.000000 1.518434
37  4.262825 -0.232719 -1.392177  0.001188 0.078478 0.052453
38  2.110547 -0.000011 -0.000000  -0.192501 0.068798 -0.403606
39  0.891930 2.373049 -0.014527  -3.141592 -0.000001 1.413797
40  7.228126 5.709445 3.726568  3.140796 -1.570796 0.000000
41  2.450429 5.076127 0.001326  3.140791 -1.570796 0.000000
42  6.312404 -4.528059 0.001311  3.140791 -1.570796 0.000000
43  2.233305 1.152536 -7.309137  -1.065931 -1.626687 -1.056399
44  -5.952957 -2.602895 0.029162  0.000000 -0.000000 0.000000
time 8
0  1.057102 6.954203 38.410130  -0.026783 0.035674 -1.737917
1  -0.204406 0.950591 -0.000009  -0.000030 -1.476234 -1.570772
2  -0.000007 0.000008 4.427394  -0.169768 3.040828 0.000654
3  18.465940 0.000000 -0.000000  -0.000000 0.000000 -0.310058
4  14.875443 -0.000000 -0.000001  -0.048791 0.027674 0.331625
5  0.000014 -0.000003 -4.427393  0.071648 3.033033 -0.432837
6  18.465933 0.000001 -0.000001  -0.000000 -0.000000 -0.423704
7  14.875439 0.000000 0.000000  -0.063482 0.006316 0.022209
8  2.245322 -0.007573 0.211404  0.019289 -0.018091 -0.000964
9  9.514222 -0.009357 -0.000000  0.007305 0.042160 0.001561
10  11.752192 -0.001490 0.000001  0.231873 -0.263981 0.546564
11  -1.078558 1.778413 2.598461  1.488082 -1.174701 1.121059
12  4.640944 -0.000001 -0.000003  -0.606548 0.752272 -1.011027
13  10.828047 0.000005 0.000006  -0.032855 -0.144037 -0.834244
14  9.393334 -0.000002 -0.000000  -1.909351 -0.336236 0.315251
15  1.442240 0.107455 -1.746176  1.670240 0.525636 0.306393
16  1.063454 0.000003 -0.000005  0.000000 0.000000 0.199056
17  1.376308 -0.000002 0.000001  0.000000 -0.000000 0.199049
18  4.172845 -0.251366 -1.312747  0.008032 0.084867 0.148584
19  1.215372 -0.000002 0.000004  0.000000 -0.000000 0.645758
20  1.215372 -0.000004 0.000004  -0.000000 -0.000000 0.664070
21  4.220532 -0.244855 -0.431458  0.001333 0.026242 0.148339
22  1.350418 0.000000 -0.000003  -0.000000 0.000000 0.853743
23  1.350408 0.000001 0.000000  -0.000000 -0.000000 0.894441
24  -2.448472 0.635689 -2.290704  -2.633234 1.937217 -0.139780
25  4.640935 -0.000009 0.000004  -0.302732 -1.165596 -0.418784
26  10.828051 0.000005 0.000007  -0.392532 0.147312 -1.705052
27  9.393341 -0.000017 -0.000003  1.907615 0.034367 0.335096
28  1.442246 0.107454 1.746172  -1.644041 -0.547228 0.220215
29  1.063456 -0.000003 -0.000000  -0.000000 0.000000 0.366516
30  1.376308 0.000001 0.000000  -0.000000 -0.000000 0.811565
31  4.172845 -0.251365 1.312746  0.001190 -0.096055 0.052246
32  1.215375 0.000003 -0.000005  0.000000 -0.000000 0.130882
33  1.215374 -0.000000 -0.000003  0.000000 -0.000000 1.151880
34  4.220534 -0.244854 0.431468  0.001184 -0.026242 0.052329
35  1.350417 -0.000001 -0.000004  0.000000 -0.000000 0.977377
36  1.350410 -0.000002 0.000001  -0.000000 -0.000000 1.518434
37  4.262826 -0.232720 -1.392179  0.001188 0.078478 0.052453
38  2.110542 -0.000008 -0.000000  -0.138153 0.096316 -0.349052
39  0.891929 2.373047 -0.014526  -3.141592 -0.000001 1.413797
40  7.228125 5.709444 3.726569  3.140796 -1.570796 0.000000
41  2.450427 5.076127 0.001325  3.140791 -1.570796 0.000000
42  6.312403 -4.528057 0.001310  3.140791 -1.570796 0.000000
43  2.233308 1.152535 -7.309138  -1.066042 -1.622009 -1.045256
44  -5.952957 -2.602895 0.029162  0.000000 -0.000000 0.000000
time 9
0  1.201806 5.199689 38.414139  -0.029943 0.043326 -1.695434
1  -0.573421 0.669942 -0.000011  -0.000030 -1.493507 -1.570772
2  -0.000002 0.000009 4.427393  -0.165289 3.067717 0.024859
3  18.465942 -0.000000 -0.000000  -0.000000 0.000000 -0.285330
4  14.875445 -0.000001 -0.000000  -0.009861 0.017920 0.337652
5  0.000015 -0.000004 -4.427393  0.079324 3.043916 -0.414594
6  18.465944 -0.000002 -0.000000  0.000000 -0.000000 -0.440378
7  14.875443 -0.000000 0.000001  -0.022090 0.016845 0.063414
8  2.249353 -0.007573 0.172859  -0.015358 -0.004696 0.015256
9  9.514222 -0.009358 0.000001  0.008498 -0.017956 0.050852
10  11.752190 -0.001491 0.000000  0.127080 -0.114712 0.413420
11  -1.615688 1.195637 2.528634  1.016695 -1.328638 1.745064
12  4.640944 0.000001 0.000000  -0.766351 0.615437 -1.319883
13  10.828048 0.000005 0.000007  -0.012836 -0.052691 -0.858339
14  9.393334 -0.000004 0.000005  -1.970843 -0.398216 0.378296
15  1.442241 0.107453 -1.746179  1.609175 0.457006 0.215721
16  1.063453 0.000003 -0.000002  -0.000000 0.000000 0.199056
17  1.376310 0.000002 0.000002  0.000000 0.000000 0.199049
18  4.172843 -0.251367 -1.312749  0.008009 0.032411 0.148156
19  1.215375 -0.000002 -0.000001  0.000000 0.000000 0.645758
20  1.215378 -0.000004 -0.000001  -0.000000 -0.000000 0.752599
21  4.220534 -0.244853 -0.431466  0.001333 0.026242 0.148339
22  1.350416 -0.000000 0.000002  0.000000 0.000000 0.804566
23  1.350408 -0.000001 -0.000003  -0.000000 -0.000000 1.041988
24  -2.209454 0.572581 -2.514955  -2.618562 1.868037 0.037075
25  4.640937 -0.000010 0.000005  -0.437844 -1.162864 -0.365753
26  10.828053 0.000005 0.000007  -0.477349 0.231902 -1.831632
27  9.393340 -0.000012 -0.000004  2.052671 0.080080 0.356239
28  1.442245 0.107454 1.746174  -1.769151 -0.529057 0.411263
29  1.063457 -0.000001 -0.000001  0.000000 -0.000000 0.366516
30  1.376310 -0.000001 -0.000002  -0.000000 0.000000 0.811565
31  4.172844 -0.251364 1.312741  0.001190 -0.096055 0.052246
32  1.215374 0.000000 0.000005  -0.000000 0.000000 0.130882
33  1.215372 -0.000002 0.000005  -0.000000 -0.000000 1.151880
34  4.220533 -0.244850 0.431458  0.001184 -0.026242 0.052329
35  1.350416 -0.000001 -0.000013  0.000000 -0.000000 0.977377
36  1.350409 -0.000002 -0.000001  0.000000 -0.000000 1.518434
37  4.262828 -0.232718 -1.392182  0.001188 0.078478 0.052453
38  2.110542 -0.000001 -0.000000  -0.018587 0.113128 -0.229032
39  0.891927 2.373050 -0.014526  -3.141592 -0.000001 1.413797
40  7.228114 5.709445 3.726568  3.140796 -1.570796 0.000000
41  2.450425 5.076127 0.001326  3.140791 -1.570796 0.000000
42  6.312403 -4.528057 0.001311  3.140791 -1.570796 0.000000
43  2.233301 1.152535 -7.309138  -1.075200 -1.611747 -1.011856
44  -5.952957 -2.602895 0.029162  0.000000 -0.000000 0.000000
time 10
0  1.264659 3.445176 38.415726  -0.032033 0.049296 -1.652952
1  -0.937859 0.389294 0.000001  -0.000030 -1.510631 -1.570772
2  -0.000001 0.000009 4.427392  -0.160809 3.094598 0.049079
3  18.465946 -0.000001 0.000000  -0.000000 0.000000 -0.260601
4  14.875445 -0.000001 -0.000000  0.029092 0.008165 0.342370
5  0.000013 -0.000005 -4.427393  0.087001 3.054802 -0.396356
6  18.465942 -0.000002 0.000000  0.000000 -0.000000 -0.457052
7  14.875443 -0.000000 -0.000001  0.019304 0.024322 0.104628
8  2.253381 -0.007573 0.134681  -0.049876 0.005734 0.031475
9  9.514230 -0.009356 0.000000  0.008984 -0.078072 0.089178
10  11.752187 -0.001491 0.000000  0.022286 0.034557 0.282429
11  -2.152810 0.612853 2.458807  0.141740 -1.297211 2.731372
12  4.640942 0.000000 0.000002  -0.831274 0.463791 -1.566090
13  10.828051 0.000001 0.000005  -0.002414 -0.007913 -0.737489
14  9.393334 -0.000007 0.000000  -2.023201 -0.435772 0.420068
15  1.442243 0.107450 -1.746183  1.562088 0.384482 0.131539
16  1.063453 0.000009 -0.000002  -0.000000 -0.000000 0.199056
17  1.376317 0.000002 0.000002  0.000000 0.000000 0.199049
18  4.172844 -0.251367 -1.312748  0.008007 -0.020045 0.147731
19  1.215376 -0.000005 0.000010  -0.000000 -0.000000 0.645758
20  1.215381 -0.000005 0.000005  -0.000000 -0.000000 0.841129
21  4.220538 -0.244852 -0.431462  0.001333 0.026242 0.148339
22  1.350419 0.000000 -0.000001  0.000000 -0.000000 0.755388
23  1.350410 0.000001 -0.000002  -0.000000 -0.000000 1.189534
24  -1.970430 0.509467 -2.739205  -2.551536 1.804411 0.266995
25  4.640941 -0.000010 0.000005  -0.527994 -1.160504 -0.330637
26  10.828051 0.000005 0.000006  -0.534116 0.288517 -1.916351
27  9.393342 -0.000018 -0.000006  2.150850 0.110451 0.370692
28  1.442246 0.107454 1.746173  -1.887190 -0.495430 0.596643
29  1.063460 0.000002 -0.000000  -0.000000 0.000000 0.366516
30  1.376310 0.000009 -0.000002  -0.000000 -0.000000 0.811565
31  4.172843 -0.251363 1.312736  0.001190 -0.096055 0.052246
32  1.215374 0.000001 0.000012  -0.000000 0.000000 0.130882
33  1.215372 -0.000003 0.000003  -0.000000 -0.000000 1.151880
34  4.220536 -0.244850 0.431458  0.001184 -0.026242 0.052329
35  1.350416 -0.000002 -0.000009  0.000000 -0.000000 0.977377
36  1.350408 -0.000001 0.000003  0.000000 -0.000000 1.518434
37  4.262831 -0.232719 -1.392186  0.001188 0.078478 0.052453
38  2.110539 -0.000001 -0.000001  0.100979 0.121532 -0.109013
39  0.891920 2.373049 -0.014524  -3.141592 -0.000001 1.413797
40  7.228106 5.709445 3.726568  3.140796 -1.570796 0.000000
41  2.450436 5.076128 0.001325  3.140791 -1.570796 0.000000
42  6.312412 -4.528055 0.001311  3.140791 -1.570796 0.000000
43  2.233289 1.152534 -7.309137  -1.106517 -1.601561 -0.956337
44  -5.952957 -2.602895 0.029162  0.000000 -0.000000 0.000000
time 11
0  1.278347 2.647669 38.416107  -0.032789 0.051704 -1.633642
1  -1.105177 0.261727 0.000009  -0.000030 -1.518469 -1.570772
2  -0.000001 0.000009 4.427392  -0.158773 3.106815 0.060093
3  18.465944 -0.000000 -0.000000  -0.000000 0.000000 -0.249361
4  14.875445 -0.000002 0.000000  0.046802 0.003730 0.344277
5  0.000012 -0.000005 -4.427393  0.090490 3.059752 -0.388067
6  18.465946 -0.000004 0.000001  0.000000 0.000000 -0.464631
7  14.875437 -0.000000 -0.000001  0.038121 0.027165 0.123363
8  2.255213 -0.007573 0.117194  -0.065613 0.009936 0.038847
9  9.514228 -0.009356 0.000000  0.009117 -0.105397 0.104605
10  11.752189 -0.001491 -0.000000  -0.025347 0.102407 0.222105
11  -2.396966 0.347958 2.427067  -0.087954 -1.222829 3.000639
12  4.640941 -0.000002 -0.000001  -0.836585 0.394230 -1.666165
13  10.828047 0.000004 0.000005  -0.000000 -0.000000 -0.616638
14  9.393336 0.000001 0.000003  -2.045769 -0.447170 0.433411
15  1.442245 0.107449 -1.746181  1.545041 0.350655 0.094987
16  1.063451 0.000009 -0.000003  -0.000000 -0.000000 0.199056
17  1.376317 0.000000 0.000002  0.000000 -0.000000 0.199049
18  4.172845 -0.251367 -1.312750  0.008014 -0.043889 0.147537
19  1.215376 -0.000005 0.000011  0.000000 0.000000 0.645758
20  1.215382 -0.000004 0.000008  0.000000 0.000000 0.881369
21  4.220541 -0.244851 -0.431461  0.001333 0.026242 0.148339
22  1.350417 0.000000 0.000007  -0.000000 -0.000000 0.733035
23  1.350408 0.000000 -0.000005  0.000000 0.000000 1.256600
24  -1.861787 0.480784 -2.841138  -2.486408 1.779393 0.406221
25  4.640939 -0.000009 0.000006  -0.560801 -1.159539 -0.317921
26  10.828051 0.000006 0.000006  -0.554819 0.309165 -1.947248
27  9.393340 -0.000013 -0.000002  2.186878 0.121479 0.376033
28  1.442245 0.107454 1.746174  -1.937605 -0.475472 0.678379
29  1.063464 0.000002 -0.000003  0.000000 -0.000000 0.366516
30  1.376310 0.000002 -0.000001  -0.000000 -0.000000 0.811565
31  4.172841 -0.251364 1.312734  0.001190 -0.096055 0.052246
32  1.215375 0.000002 0.000014  0.000000 0.000000 0.130882
33  1.215371 -0.000003 -0.000002  0.000000 0.000000 1.151880
34  4.220535 -0.244849 0.431451  0.001184 -0.026242 0.052329
35  1.350415 -0.000001 -0.000022  0.000000 -0.000000 0.977377
36  1.350408 -0.000001 0.000011  -0.000000 0.000000 1.518434
37  4.262830 -0.232718 -1.392192  0.001188 0.078478 0.052453
38  2.110534 0.000006 -0.000001  0.155327 0.123823 -0.054459
39  0.891918 2.373049 -0.014523  -3.141592 -0.000001 1.413797
40  7.228096 5.709446 3.726568  3.140796 -1.570796 0.000000
41  2.450433 5.076128 0.001325  3.140791 -1.570796 0.000000
42  6.312411 -4.528055 0.001311  3.140791 -1.570796 0.000000
43  2.233278 1.152535 -7.309138  -1.134959 -1.596979 -0.916906
44  -5.952957 -2.602895 0.029162  0.000000 -0.000000 0.000000
end
