version 1
nodes
0 "Bip01" -1
1 "Bip01 Pelvis" 0
2 "Bip01 L Thigh" 1
3 "Bip01 L Calf" 2
4 "Bip01 L Foot" 3
5 "Bip01 R Thigh" 1
6 "Bip01 R Calf" 5
7 "Bip01 R Foot" 6
8 "Bip01 Spine" 1
9 "Bip01 Spine1" 8
10 "Bip01 Neck" 9
11 "Bip01 L Clavicle" 10
12 "Bip01 L UpperArm" 11
13 "Bip01 L Forearm" 12
14 "Bip01 L Hand" 13
15 "Bip01 L Finger0" 14
16 "Bip01 L Finger01" 15
17 "Bip01 L Finger02" 16
18 "Bip01 L Finger1" 14
19 "Bip01 L Finger11" 18
20 "Bip01 L Finger12" 19
21 "Bip01 L Finger2" 14
22 "Bip01 L Finger21" 21
23 "Bip01 L Finger22" 22
24 "Bip01 R Clavicle" 10
25 "Bip01 R UpperArm" 24
26 "Bip01 R Forearm" 25
27 "Bip01 R Hand" 26
28 "Bip01 R Finger0" 27
29 "Bip01 R Finger01" 28
30 "Bip01 R Finger02" 29
31 "Bip01 R Finger1" 27
32 "Bip01 R Finger11" 31
33 "Bip01 R Finger12" 32
34 "Bip01 R Finger2" 27
35 "Bip01 R Finger21" 34
36 "Bip01 R Finger22" 35
37 "Bip01 R Finger4" 27
38 "Bip01 Head" 10
39 "Bone05" 38
40 "Bone08" 9
41 "Bone16" 8
42 "Bone01" 8
43 "Bone03" 1
44 "Line02" -1
end
skeleton
time 0
0  1.727579 6.791367 38.400349  0.000000 -0.000000 -1.701715
1  0.164395 -0.125004 0.000008  -1.570795 -1.570451 -0.000000
2  -0.000004 0.000008 4.427392  -0.170749 3.130202 0.000903
3  18.465939 -0.000001 -0.000000  -0.000000 -0.000000 -0.416557
4  14.875444 0.000003 -0.000001  0.018467 0.017437 0.402071
5  -0.000000 -0.000003 -4.427393  0.106016 3.095625 -0.362237
6  18.465937 0.000002 0.000000  0.000000 0.000000 -0.394334
7  14.875444 -0.000000 -0.000000  -0.002065 0.005218 0.029344
8  2.255205 -0.007574 0.000003  0.122101 -0.017401 -0.001322
9  9.514215 -0.009356 -0.000000  -0.008779 0.002352 -0.095902
10  11.752189 -0.001495 0.000000  0.000024 0.043599 0.440031
11  -2.111788 0.863595 2.563792  0.697216 -1.395374 2.006326
12  4.640939 0.000001 0.000010  -0.318642 1.142982 -0.628809
13  10.828040 -0.000001 -0.000001  -0.010232 -0.002807 -0.645707
14  9.393340 -0.000003 0.000001  -1.569611 0.034195 0.000037
15  1.442241 0.107451 -1.746181  1.686435 0.539209 0.325885
16  1.063448 -0.000001 -0.000001  -0.000000 -0.000000 0.199056
17  1.376308 -0.000003 0.000001  -0.000000 -0.000000 0.199049
18  4.172847 -0.251362 -1.312741  0.008050 0.095731 0.148659
19  1.215374 0.000001 -0.000007  0.000000 -0.000000 0.645758
20  1.215368 -0.000000 -0.000005  -0.000000 -0.000000 0.645758
21  4.220537 -0.244855 -0.431459  0.001333 0.026242 0.148339
22  1.350415 -0.000000 0.000003  -0.000000 -0.000000 0.863926
23  1.350408 0.000002 -0.000004  -0.000000 0.000000 0.863926
24  -1.885223 0.863612 -2.731758  -0.942448 1.461427 1.764337
25  4.640938 -0.000002 -0.000011  0.843344 -1.150338 -0.869073
26  10.828047 0.000003 0.000005  0.334086 -0.577359 -0.620648
27  9.393339 -0.000006 0.000001  0.743796 -0.365046 0.157755
28  1.442244 0.107454 1.746179  -1.686405 -0.539236 0.325898
29  1.063451 -0.000001 -0.000000  0.000000 -0.000000 0.199056
30  1.376309 -0.000010 0.000000  -0.000000 -0.000000 0.199059
31  4.172846 -0.251363 1.312742  -0.008050 -0.095731 0.148659
32  1.215374 0.000001 -0.000005  0.000000 0.000000 0.645746
33  1.215375 -0.000001 0.000000  0.000000 -0.000000 0.645746
34  4.220533 -0.244852 0.431469  -0.001333 -0.026242 0.148339
35  1.350414 -0.000003 0.000001  0.000000 -0.000000 0.863937
36  1.350410 0.000000 0.000000  0.000000 -0.000000 0.863925
37  4.262827 -0.232718 -1.392184  0.016840 0.076668 0.253759
38  2.110540 0.000001 -0.000000  0.002417 -0.010493 -0.153718
39  0.891918 2.373053 -0.014527  -3.141592 -0.000001 1.413797
40  7.228116 5.709445 3.726567  3.140796 -1.570796 0.000000
41  2.450423 5.076127 0.001325  3.140791 -1.570796 0.000000
42  6.312402 -4.528059 0.001311  3.140791 -1.570796 0.000000
43  2.233301 1.152534 -7.309138  -1.140138 -1.553350 -0.884449
44  -5.952957 -2.602895 0.029162  0.000000 -0.000000 0.000000
time 1
0  1.563512 6.720230 38.416107  0.000000 -0.000000 -1.701715
1  0.172208 -0.125004 0.000004  0.000034 -1.574203 -1.570821
2  0.000006 0.000008 4.427391  -0.169791 3.137682 0.006050
3  18.465939 -0.000002 -0.000001  -0.000000 0.000000 -0.411220
4  14.875442 -0.000000 0.000000  0.017579 0.012584 0.401123
5  0.000006 -0.000003 -4.427393  0.108220 3.103565 -0.356996
6  18.465942 -0.000000 0.000001  0.000000 0.000000 -0.389608
7  14.875445 0.000000 0.000000  -0.001363 0.001126 0.030282
8  2.255214 -0.007574 -0.007810  0.125519 -0.013964 -0.001388
9  9.514216 -0.009355 -0.000000  -0.004052 0.002567 -0.097677
10  11.752192 -0.001494 -0.000000  0.000024 0.040063 0.440031
11  -2.103981 0.863595 2.567699  0.710364 -1.395978 1.993498
12  4.640937 -0.000001 0.000000  -0.315954 1.142367 -0.625875
13  10.828043 0.000002 0.000002  -0.010232 -0.002807 -0.645707
14  9.393339 -0.000004 -0.000001  -1.569611 0.034195 0.000037
15  1.442240 0.107449 -1.746179  1.686435 0.539209 0.325885
16  1.063448 0.000000 -0.000000  0.000000 0.000000 0.199056
17  1.376308 -0.000007 0.000001  0.000000 0.000000 0.199049
18  4.172843 -0.251367 -1.312741  0.008050 0.095731 0.148659
19  1.215372 -0.000002 -0.000009  -0.000000 -0.000000 0.645758
20  1.215370 0.000001 -0.000006  -0.000000 -0.000000 0.645758
21  4.220535 -0.244858 -0.431458  0.001333 0.026242 0.148339
22  1.350414 -0.000002 0.000000  -0.000000 -0.000000 0.863926
23  1.350408 0.000000 -0.000003  -0.000000 -0.000000 0.863926
24  -1.896940 0.863609 -2.723946  -0.940319 1.456373 1.766645
25  4.640937 -0.000001 -0.000007  0.843344 -1.150338 -0.869073
26  10.828046 0.000002 0.000004  0.334086 -0.577359 -0.620648
27  9.393338 -0.000003 -0.000001  0.743796 -0.365046 0.157755
28  1.442240 0.107454 1.746187  -1.686405 -0.539236 0.325898
29  1.063451 -0.000004 0.000000  0.000000 -0.000000 0.199056
30  1.376309 -0.000004 -0.000000  -0.000000 0.000000 0.199059
31  4.172841 -0.251363 1.312752  -0.008050 -0.095731 0.148659
32  1.215374 0.000001 -0.000008  -0.000000 -0.000000 0.645746
33  1.215374 -0.000001 0.000004  0.000000 0.000000 0.645746
34  4.220532 -0.244852 0.431476  -0.001333 -0.026242 0.148339
35  1.350413 -0.000003 0.000003  0.000000 -0.000000 0.863937
36  1.350410 -0.000000 0.000007  0.000000 -0.000000 0.863925
37  4.262825 -0.232717 -1.392184  0.016840 0.076668 0.253759
38  2.110536 -0.000001 -0.000000  -0.000308 -0.008779 -0.152305
39  0.891919 2.373053 -0.014527  -3.141592 -0.000001 1.413797
40  7.228117 5.709446 3.726568  3.140796 -1.570796 0.000000
41  2.450430 5.076128 0.001325  3.140791 -1.570796 0.000000
42  6.312409 -4.528058 0.001311  3.140791 -1.570796 0.000000
43  2.233300 1.152536 -7.309138  -1.139946 -1.545690 -0.880333
44  -5.952957 -2.602895 0.029162  0.000000 -0.000000 0.000000
time 2
0  1.403350 6.649094 38.431866  0.000000 -0.000000 -1.701715
1  0.180020 -0.121097 0.000004  0.000033 -1.577566 -1.570821
2  -0.000004 0.000008 4.427392  -0.168833 -3.138117 0.011578
3  18.465939 -0.000002 -0.000000  0.000000 -0.000000 -0.405152
4  14.875442 -0.000001 0.000000  0.016619 0.007668 0.399819
5  0.000000 -0.000003 -4.427393  0.110425 3.111409 -0.351568
6  18.465940 -0.000001 -0.000000  0.000000 0.000000 -0.384554
7  14.875443 0.000000 -0.000000  -0.000766 -0.002997 0.031070
8  2.255203 -0.007575 -0.015622  0.128852 -0.010626 -0.001421
9  9.514215 -0.009356 0.000000  0.000713 0.002796 -0.099496
10  11.752193 -0.001494 0.000000  0.000024 0.036420 0.440031
11  -2.096164 0.863596 2.575510  0.722273 -1.396658 1.982009
12  4.640939 0.000001 0.000007  -0.308364 1.140606 -0.617592
13  10.828039 -0.000001 -0.000003  -0.010232 -0.002807 -0.645707
14  9.393343 -0.000000 0.000002  -1.569611 0.034195 0.000037
15  1.442241 0.107455 -1.746183  1.686435 0.539209 0.325885
16  1.063449 -0.000004 -0.000001  -0.000000 -0.000000 0.199056
17  1.376310 -0.000001 0.000000  -0.000000 -0.000000 0.199049
18  4.172842 -0.251363 -1.312743  0.008050 0.095731 0.148659
19  1.215372 0.000001 -0.000000  0.000000 -0.000000 0.645758
20  1.215372 0.000001 -0.000002  0.000000 -0.000000 0.645758
21  4.220535 -0.244853 -0.431458  0.001333 0.026242 0.148339
22  1.350414 -0.000001 0.000003  -0.000000 -0.000000 0.863926
23  1.350407 0.000000 -0.000004  -0.000000 -0.000000 0.863926
24  -1.904748 0.863608 -2.720040  -0.939579 1.451108 1.767585
25  4.640938 -0.000001 -0.000008  0.843344 -1.150338 -0.869073
26  10.828047 0.000003 0.000006  0.334086 -0.577359 -0.620648
27  9.393333 -0.000005 -0.000000  0.743796 -0.365046 0.157755
28  1.442243 0.107454 1.746185  -1.686405 -0.539236 0.325898
29  1.063451 0.000001 -0.000001  0.000000 -0.000000 0.199056
30  1.376308 -0.000010 -0.000001  0.000000 0.000000 0.199059
31  4.172845 -0.251364 1.312746  -0.008050 -0.095731 0.148659
32  1.215375 0.000001 -0.000001  -0.000000 -0.000000 0.645746
33  1.215376 0.000000 -0.000001  0.000000 0.000000 0.645746
34  4.220535 -0.244852 0.431475  -0.001333 -0.026242 0.148339
35  1.350417 -0.000004 0.000002  0.000000 -0.000000 0.863937
36  1.350408 -0.000002 0.000010  0.000000 0.000000 0.863925
37  4.262827 -0.232719 -1.392183  0.016840 0.076668 0.253759
38  2.110540 0.000002 -0.000000  -0.003291 -0.007035 -0.150845
39  0.891923 2.373053 -0.014527  -3.141592 -0.000001 1.413797
40  7.228118 5.709445 3.726567  3.140796 -1.570796 0.000000
41  2.450427 5.076127 0.001325  3.140791 -1.570796 0.000000
42  6.312406 -4.528059 0.001311  3.140791 -1.570796 0.000000
43  2.233301 1.152535 -7.309137  -1.139178 -1.538118 -0.876695
44  -5.952957 -2.602895 0.029162  0.000000 -0.000000 0.000000
time 3
0  1.239283 6.586850 38.463379  0.000000 -0.000000 -1.701715
1  0.187833 -0.117191 0.000004  -0.000030 -1.580827 -1.570772
2  -0.000004 0.000008 4.427392  -0.167875 -3.130826 0.017392
3  18.465939 -0.000001 0.000000  -0.000000 0.000000 -0.398427
4  14.875445 -0.000000 0.000000  0.015623 0.002708 0.398160
5  0.000004 -0.000003 -4.427393  0.112629 3.119253 -0.346046
6  18.465944 -0.000002 0.000001  0.000000 -0.000000 -0.379172
7  14.875444 -0.000000 -0.000000  -0.000169 -0.007180 0.031745
8  2.255210 -0.007574 -0.023435  0.132143 -0.007346 -0.001487
9  9.514215 -0.009356 -0.000000  0.005628 0.003037 -0.101336
10  11.752191 -0.001495 0.000000  0.000024 0.032717 0.440031
11  -2.084455 0.863601 2.583323  0.733230 -1.397388 1.971478
12  4.640939 0.000000 0.000000  -0.296624 1.137808 -0.604782
13  10.828045 0.000001 0.000001  -0.010232 -0.002807 -0.645707
14  9.393338 -0.000004 -0.000001  -1.569611 0.034195 0.000037
15  1.442243 0.107448 -1.746186  1.686435 0.539209 0.325885
16  1.063449 0.000005 -0.000003  0.000000 0.000000 0.199056
17  1.376310 -0.000004 0.000001  -0.000000 -0.000000 0.199049
18  4.172846 -0.251365 -1.312745  0.008050 0.095731 0.148659
19  1.215369 -0.000001 -0.000004  0.000000 -0.000000 0.645758
20  1.215373 -0.000000 -0.000003  0.000000 -0.000000 0.645758
21  4.220537 -0.244857 -0.431464  0.001333 0.026242 0.148339
22  1.350412 0.000000 0.000001  -0.000000 -0.000000 0.863926
23  1.350409 0.000004 -0.000004  -0.000000 -0.000000 0.863926
24  -1.916478 0.863615 -2.712226  -0.939764 1.445631 1.767585
25  4.640938 -0.000001 -0.000007  0.843344 -1.150338 -0.869073
26  10.828035 0.000005 0.000006  0.334086 -0.577359 -0.620648
27  9.393335 -0.000005 -0.000001  0.743796 -0.365046 0.157755
28  1.442245 0.107454 1.746181  -1.686405 -0.539236 0.325898
29  1.063451 0.000005 -0.000001  0.000000 0.000000 0.199056
30  1.376308 -0.000004 -0.000001  0.000000 0.000000 0.199059
31  4.172846 -0.251363 1.312750  -0.008050 -0.095731 0.148659
32  1.215376 0.000002 0.000002  -0.000000 -0.000000 0.645746
33  1.215376 -0.000000 0.000004  0.000000 0.000000 0.645746
34  4.220536 -0.244852 0.431473  -0.001333 -0.026242 0.148339
35  1.350416 -0.000001 0.000003  0.000000 -0.000000 0.863937
36  1.350408 -0.000000 0.000003  0.000000 -0.000000 0.863925
37  4.262829 -0.232718 -1.392183  0.016840 0.076668 0.253759
38  2.110532 0.000004 -0.000000  -0.006376 -0.005291 -0.149292
39  0.891924 2.373052 -0.014527  -3.141592 -0.000001 1.413797
40  7.228121 5.709445 3.726568  3.140796 -1.570796 0.000000
41  2.450428 5.076127 0.001325  3.140791 -1.570796 0.000000
42  6.312408 -4.528059 0.001311  3.140791 -1.570796 0.000000
43  2.233303 1.152535 -7.309138  -1.138890 -1.530662 -0.872578
44  -5.952957 -2.602895 0.029162  0.000000 -0.000000 0.000000
time 4
0  1.071309 6.515713 38.479134  0.000000 -0.000000 -1.701715
1  0.195646 -0.113285 0.000008  -0.000030 -1.584061 -1.570772
2  -0.000005 0.000007 4.427392  -0.167108 -3.123725 0.023588
3  18.465944 -0.000001 -0.000000  -0.000000 -0.000000 -0.390970
4  14.875442 0.000001 -0.000000  0.014628 -0.002272 0.396185
5  0.000003 -0.000004 -4.427393  0.114642 3.127098 -0.340244
6  18.465942 -0.000000 -0.000000  0.000000 -0.000000 -0.373396
7  14.875443 -0.000000 0.000000  0.000427 -0.011394 0.032233
8  2.255204 -0.007574 -0.027342  0.135350 -0.004106 -0.001553
9  9.514219 -0.009356 -0.000000  0.010617 0.003279 -0.103219
10  11.752190 -0.001494 -0.000000  0.000012 0.028966 0.440031
11  -2.076637 0.863597 2.591136  0.743520 -1.398169 1.961426
12  4.640938 -0.000000 0.000008  -0.281513 1.134073 -0.588297
13  10.828044 0.000000 0.000001  -0.010232 -0.002807 -0.645707
14  9.393339 0.000000 -0.000003  -1.569611 0.034195 0.000037
15  1.442240 0.107449 -1.746180  1.686435 0.539209 0.325885
16  1.063448 0.000000 -0.000001  -0.000000 -0.000000 0.199056
17  1.376307 -0.000007 0.000001  -0.000000 -0.000000 0.199049
18  4.172844 -0.251366 -1.312740  0.008050 0.095731 0.148659
19  1.215372 0.000001 -0.000004  0.000000 -0.000000 0.645758
20  1.215373 -0.000000 0.000002  0.000000 -0.000000 0.645758
21  4.220532 -0.244856 -0.431460  0.001333 0.026242 0.148339
22  1.350417 -0.000003 0.000005  -0.000000 -0.000000 0.863926
23  1.350412 0.000002 -0.000003  0.000000 0.000000 0.863926
24  -1.928185 0.863608 -2.704414  -0.940412 1.440002 1.767072
25  4.640938 -0.000001 -0.000004  0.843344 -1.150338 -0.869073
26  10.828042 0.000003 0.000005  0.334086 -0.577359 -0.620648
27  9.393338 -0.000010 0.000000  0.743796 -0.365046 0.157755
28  1.442242 0.107452 1.746185  -1.686405 -0.539236 0.325898
29  1.063451 -0.000002 0.000000  -0.000000 -0.000000 0.199056
30  1.376308 -0.000005 -0.000000  -0.000000 0.000000 0.199059
31  4.172848 -0.251365 1.312742  -0.008050 -0.095731 0.148659
32  1.215372 0.000000 -0.000003  -0.000000 -0.000000 0.645746
33  1.215376 -0.000001 0.000004  0.000000 0.000000 0.645746
34  4.220535 -0.244853 0.431473  -0.001333 -0.026242 0.148339
35  1.350413 -0.000003 -0.000001  -0.000000 0.000000 0.863937
36  1.350413 -0.000003 0.000004  0.000000 0.000000 0.863925
37  4.262830 -0.232718 -1.392189  0.016840 0.076668 0.253759
38  2.110539 0.000000 -0.000000  -0.009563 -0.003517 -0.147738
39  0.891918 2.373049 -0.014527  -3.141592 -0.000001 1.413797
40  7.228118 5.709445 3.726567  3.140796 -1.570796 0.000000
41  2.450432 5.076127 0.001325  3.140791 -1.570796 0.000000
42  6.312408 -4.528059 0.001311  3.140791 -1.570796 0.000000
43  2.233300 1.152534 -7.309138  -1.138507 -1.523614 -0.868461
44  -5.952957 -2.602895 0.029162  0.000000 -0.000000 0.000000
time 5
0  0.911148 6.444577 38.510647  0.000000 -0.000000 -1.701715
1  0.203458 -0.109378 0.000004  -0.000030 -1.587266 -1.570772
2  -0.000001 0.000008 4.427392  -0.166342 -3.116529 0.030069
3  18.465940 -0.000002 -0.000001  -0.000000 -0.000000 -0.382928
4  14.875443 -0.000000 -0.000000  0.013632 -0.007274 0.393854
5  -0.000001 -0.000003 -4.427393  0.116654 3.134942 -0.334255
6  18.465942 -0.000001 0.000000  -0.000000 0.000000 -0.367226
7  14.875443 -0.000000 -0.000000  0.001024 -0.015608 0.032496
8  2.255210 -0.007575 -0.035154  0.138556 -0.000904 -0.001619
9  9.514215 -0.009356 -0.000000  0.015645 0.003548 -0.105103
10  11.752192 -0.001495 -0.000000  0.000012 0.025191 0.440031
11  -2.064920 0.863598 2.598948  0.753619 -1.398924 1.951757
12  4.640940 0.000000 -0.000000  -0.263815 1.129500 -0.568995
13  10.828036 -0.000002 0.000001  -0.010232 -0.002807 -0.645707
14  9.393344 0.000003 -0.000001  -1.569611 0.034195 0.000037
15  1.442238 0.107449 -1.746184  1.686435 0.539209 0.325885
16  1.063450 -0.000002 -0.000003  0.000000 -0.000000 0.199056
17  1.376310 -0.000010 0.000000  -0.000000 -0.000000 0.199049
18  4.172843 -0.251366 -1.312743  0.008050 0.095731 0.148659
19  1.215372 0.000001 -0.000003  0.000000 -0.000000 0.645758
20  1.215369 -0.000001 -0.000000  0.000000 -0.000000 0.645758
21  4.220534 -0.244856 -0.431460  0.001333 0.026242 0.148339
22  1.350415 -0.000001 0.000000  -0.000000 -0.000000 0.863926
23  1.350412 0.000000 -0.000001  -0.000000 0.000000 0.863926
24  -1.936012 0.863613 -2.696600  -0.941338 1.434343 1.766303
25  4.640938 -0.000001 -0.000002  0.843344 -1.150338 -0.869073
26  10.828043 0.000004 0.000006  0.334086 -0.577359 -0.620648
27  9.393334 -0.000001 -0.000003  0.743796 -0.365046 0.157755
28  1.442242 0.107454 1.746183  -1.686405 -0.539236 0.325898
29  1.063451 -0.000003 -0.000002  0.000000 0.000000 0.199056
30  1.376308 -0.000009 0.000000  0.000000 0.000000 0.199059
31  4.172844 -0.251363 1.312744  -0.008050 -0.095731 0.148659
32  1.215374 0.000001 -0.000008  -0.000000 -0.000000 0.645746
33  1.215379 -0.000000 0.000000  0.000000 0.000000 0.645746
34  4.220532 -0.244852 0.431473  -0.001333 -0.026242 0.148339
35  1.350413 -0.000004 0.000000  0.000000 -0.000000 0.863937
36  1.350412 -0.000001 0.000007  0.000000 -0.000000 0.863925
37  4.262826 -0.232717 -1.392185  0.016840 0.076668 0.253759
38  2.110534 0.000001 -0.000000  -0.012700 -0.001743 -0.146137
39  0.891924 2.373049 -0.014527  -3.141592 -0.000001 1.413797
40  7.228114 5.709445 3.726567  3.140796 -1.570796 0.000000
41  2.450430 5.076128 0.001325  3.140791 -1.570796 0.000000
42  6.312404 -4.528059 0.001311  3.140791 -1.570796 0.000000
43  2.233299 1.152535 -7.309138  -1.138123 -1.517934 -0.864440
44  -5.952957 -2.602895 0.029162  0.000000 -0.000000 0.000000
time 6
0  0.743174 6.364548 38.526405  0.000000 -0.000000 -1.701715
1  0.211271 -0.105472 0.000008  0.000033 -1.590472 -1.570821
2  0.000003 0.000008 4.427392  -0.165671 -3.109333 0.036741
3  18.465946 -0.000001 -0.000000  0.000000 -0.000000 -0.374447
4  14.875443 0.000003 -0.000000  0.012637 -0.012233 0.391286
5  0.000006 -0.000002 -4.427393  0.118475 -3.140303 -0.328171
6  18.465942 -0.000000 0.000000  0.000000 0.000000 -0.360531
7  14.875443 0.000000 0.000001  0.001585 -0.019791 0.032496
8  2.255213 -0.007574 -0.042967  0.141721 0.002277 -0.001652
9  9.514220 -0.009356 -0.000000  0.020672 0.003817 -0.106964
10  11.752190 -0.001495 0.000000  0.000012 0.021415 0.440031
11  -2.057101 0.863594 2.606762  0.763814 -1.399680 1.941896
12  4.640939 0.000001 0.000001  -0.244294 1.124198 -0.547714
13  10.828037 -0.000000 -0.000001  -0.010232 -0.002807 -0.645707
14  9.393342 -0.000002 -0.000001  -1.569611 0.034195 0.000037
15  1.442238 0.107454 -1.746181  1.686435 0.539209 0.325885
16  1.063450 0.000002 0.000002  0.000000 -0.000000 0.199056
17  1.376310 0.000002 -0.000001  -0.000000 -0.000000 0.199049
18  4.172839 -0.251362 -1.312743  0.008050 0.095731 0.148659
19  1.215375 -0.000000 -0.000003  0.000000 -0.000000 0.645758
20  1.215369 0.000000 -0.000001  0.000000 -0.000000 0.645758
21  4.220532 -0.244851 -0.431458  0.001333 0.026242 0.148339
22  1.350417 0.000000 0.000004  0.000000 -0.000000 0.863926
23  1.350411 0.000002 -0.000001  -0.000000 0.000000 0.863926
24  -1.947720 0.863607 -2.688789  -0.942171 1.428684 1.765534
25  4.640939 -0.000002 -0.000001  0.843344 -1.150338 -0.869073
26  10.828042 0.000006 0.000005  0.334086 -0.577359 -0.620648
27  9.393338 -0.000004 -0.000000  0.743796 -0.365046 0.157755
28  1.442244 0.107453 1.746176  -1.686405 -0.539236 0.325898
29  1.063451 -0.000001 -0.000000  -0.000000 -0.000000 0.199056
30  1.376308 -0.000011 0.000001  -0.000000 0.000000 0.199059
31  4.172847 -0.251364 1.312740  -0.008050 -0.095731 0.148659
32  1.215373 0.000001 -0.000001  -0.000000 -0.000000 0.645746
33  1.215375 -0.000002 -0.000004  0.000000 0.000000 0.645746
34  4.220536 -0.244852 0.431466  -0.001333 -0.026242 0.148339
35  1.350414 -0.000003 -0.000001  0.000000 -0.000000 0.863937
36  1.350411 0.000000 -0.000003  0.000000 -0.000000 0.863925
37  4.262830 -0.232719 -1.392190  0.016840 0.076668 0.253759
38  2.110540 -0.000003 -0.000000  -0.015887 0.000031 -0.144489
39  0.891920 2.373051 -0.014527  -3.141592 -0.000001 1.413797
40  7.228118 5.709445 3.726567  3.140796 -1.570796 0.000000
41  2.450433 5.076127 0.001325  3.140791 -1.570796 0.000000
42  6.312408 -4.528060 0.001311  3.140791 -1.570796 0.000000
43  2.233303 1.152536 -7.309139  -1.138219 -1.512022 -0.859940
44  -5.952957 -2.602895 0.029162  0.000000 -0.000000 0.000000
time 7
0  0.575200 6.302303 38.557919  0.000000 -0.000000 -1.701715
1  0.219084 -0.101566 0.000004  -0.000030 -1.593690 -1.570772
2  -0.000000 0.000007 4.427392  -0.165192 -3.102231 0.043509
3  18.465939 -0.000001 0.000000  -0.000000 -0.000000 -0.365601
4  14.875442 -0.000000 -0.000000  0.011606 -0.017192 0.388482
5  -0.000000 -0.000003 -4.427393  0.120296 -3.132363 -0.321808
6  18.465944 -0.000002 0.000001  0.000000 -0.000000 -0.353377
7  14.875442 -0.000000 -0.000000  0.002147 -0.023974 0.032196
8  2.255205 -0.007574 -0.050780  0.144970 0.005518 -0.001719
9  9.514216 -0.009356 -0.000000  0.025624 0.004099 -0.108848
10  11.752196 -0.001494 0.000000  0.000012 0.017664 0.440031
11  -2.045390 0.863601 2.614573  0.774389 -1.400385 1.931652
12  4.640939 0.000000 0.000007  -0.223685 1.118294 -0.525254
13  10.828041 -0.000000 0.000000  -0.010232 -0.002807 -0.645707
14  9.393335 -0.000000 -0.000002  -1.569611 0.034195 0.000037
15  1.442239 0.107452 -1.746182  1.686435 0.539209 0.325885
16  1.063449 -0.000006 -0.000000  -0.000000 -0.000000 0.199056
17  1.376309 -0.000009 0.000000  -0.000000 -0.000000 0.199049
18  4.172844 -0.251362 -1.312740  0.008050 0.095731 0.148659
19  1.215377 0.000002 0.000002  -0.000000 -0.000000 0.645758
20  1.215370 0.000001 -0.000004  0.000000 -0.000000 0.645758
21  4.220533 -0.244854 -0.431461  0.001333 0.026242 0.148339
22  1.350415 0.000000 0.000002  -0.000000 -0.000000 0.863926
23  1.350409 0.000002 -0.000005  -0.000000 -0.000000 0.863926
24  -1.955533 0.863611 -2.680974  -0.942726 1.423056 1.765107
25  4.640939 -0.000002 -0.000007  0.843344 -1.150338 -0.869073
26  10.828042 0.000003 0.000006  0.334086 -0.577359 -0.620649
27  9.393335 -0.000006 -0.000001  0.743796 -0.365046 0.157755
28  1.442240 0.107453 1.746185  -1.686405 -0.539236 0.325898
29  1.063451 0.000001 -0.000000  0.000000 -0.000000 0.199056
30  1.376308 -0.000004 0.000000  0.000000 0.000000 0.199059
31  4.172843 -0.251364 1.312749  -0.008050 -0.095731 0.148659
32  1.215376 0.000001 -0.000010  -0.000000 -0.000000 0.645746
33  1.215374 -0.000001 0.000001  0.000000 0.000000 0.645746
34  4.220530 -0.244853 0.431478  -0.001333 -0.026242 0.148339
35  1.350416 -0.000003 -0.000002  0.000000 0.000000 0.863937
36  1.350411 -0.000001 0.000002  0.000000 0.000000 0.863925
37  4.262825 -0.232719 -1.392181  0.016840 0.076668 0.253759
38  2.110541 0.000001 -0.000000  -0.019024 0.001835 -0.142841
39  0.891922 2.373052 -0.014527  -3.141592 -0.000001 1.413797
40  7.228123 5.709445 3.726567  3.140796 -1.570796 0.000000
41  2.450426 5.076127 0.001325  3.140791 -1.570796 0.000000
42  6.312401 -4.528059 0.001311  3.140791 -1.570796 0.000000
43  2.233303 1.152535 -7.309139  -1.138794 -1.504275 -0.854866
44  -5.952957 -2.602895 0.029162  0.000000 -0.000000 0.000000
time 8
0  0.411133 6.231167 38.573673  0.000000 -0.000000 -1.701715
1  0.226897 -0.097659 0.000008  -0.000030 -1.596967 -1.570772
2  -0.000002 0.000008 4.427392  -0.164713 -3.095130 0.050467
3  18.465935 -0.000002 -0.000001  -0.000000 -0.000000 -0.356390
4  14.875443 -0.000001 -0.000000  0.010610 -0.022109 0.385479
5  0.000004 -0.000004 -4.427392  0.122022 -3.124328 -0.315350
6  18.465944 -0.000001 0.000001  -0.000000 0.000000 -0.345697
7  14.875442 0.000000 0.000000  0.002673 -0.028127 0.031558
8  2.255208 -0.007574 -0.058593  0.148218 0.008797 -0.001785
9  9.514214 -0.009356 -0.000000  0.030539 0.004381 -0.110688
10  11.752194 -0.001494 0.000000  -0.000000 0.013961 0.440031
11  -2.037571 0.863595 2.622387  0.785822 -1.401014 1.920738
12  4.640939 0.000000 0.000005  -0.202672 1.111933 -0.502364
13  10.828033 -0.000004 0.000002  -0.010232 -0.002807 -0.645707
14  9.393338 -0.000003 -0.000002  -1.569611 0.034195 0.000037
15  1.442242 0.107450 -1.746184  1.686435 0.539209 0.325885
16  1.063449 -0.000001 0.000001  -0.000000 -0.000000 0.199056
17  1.376311 -0.000008 0.000001  -0.000000 -0.000000 0.199049
18  4.172843 -0.251364 -1.312745  0.008050 0.095731 0.148659
19  1.215374 -0.000001 -0.000001  -0.000000 -0.000000 0.645758
20  1.215369 0.000000 -0.000005  -0.000000 -0.000000 0.645758
21  4.220536 -0.244855 -0.431461  0.001333 0.026242 0.148339
22  1.350418 0.000002 0.000002  -0.000000 0.000000 0.863926
23  1.350406 0.000002 -0.000004  -0.000000 -0.000000 0.863926
24  -1.967260 0.863611 -2.677068  -0.942819 1.417578 1.765192
25  4.640938 -0.000001 -0.000007  0.843344 -1.150338 -0.869073
26  10.828045 0.000002 0.000003  0.334086 -0.577359 -0.620648
27  9.393338 0.000003 0.000002  0.743796 -0.365046 0.157755
28  1.442242 0.107453 1.746183  -1.686405 -0.539236 0.325898
29  1.063451 0.000002 -0.000002  0.000000 0.000000 0.199056
30  1.376307 -0.000013 -0.000000  0.000000 0.000000 0.199059
31  4.172845 -0.251364 1.312746  -0.008050 -0.095731 0.148659
32  1.215374 0.000002 -0.000002  -0.000000 0.000000 0.645746
33  1.215373 -0.000001 -0.000001  -0.000000 0.000000 0.645746
34  4.220533 -0.244852 0.431473  -0.001333 -0.026242 0.148339
35  1.350414 -0.000003 -0.000003  0.000000 0.000000 0.863937
36  1.350412 -0.000001 0.000005  0.000000 -0.000000 0.863925
37  4.262828 -0.232718 -1.392186  0.016840 0.076668 0.253759
38  2.110536 -0.000000 -0.000000  -0.022006 0.003609 -0.141193
39  0.891922 2.373051 -0.014527  -3.141592 -0.000001 1.413797
40  7.228122 5.709445 3.726567  3.140796 -1.570796 0.000000
41  2.450426 5.076127 0.001325  3.140791 -1.570796 0.000000
42  6.312403 -4.528059 0.001311  3.140791 -1.570796 0.000000
43  2.233301 1.152534 -7.309137  -1.139561 -1.495567 -0.849504
44  -5.952957 -2.602895 0.029162  0.000000 -0.000000 0.000000
time 9
0  0.250972 6.160031 38.605186  0.000000 -0.000000 -1.701715
1  0.234708 -0.093753 0.000004  0.000033 -1.600302 -1.570821
2  -0.000002 0.000008 4.427392  -0.164426 -3.087934 0.057425
3  18.465939 -0.000001 -0.000001  -0.000000 0.000000 -0.347032
4  14.875442 0.000001 0.000001  0.009579 -0.026940 0.382359
5  -0.000001 -0.000003 -4.427392  0.123651 -3.116196 -0.308705
6  18.465948 -0.000000 0.000001  0.000000 0.000000 -0.337493
7  14.875442 0.000000 -0.000000  0.003200 -0.032220 0.030545
8  2.255204 -0.007574 -0.066405  0.151552 0.012136 -0.001818
9  9.514219 -0.009356 -0.000000  0.035379 0.004664 -0.112485
10  11.752199 -0.001494 -0.000000  0.000000 0.010318 0.440031
11  -2.025849 0.863594 2.630200  0.798304 -1.401568 1.908580
12  4.640939 0.000000 0.000001  -0.181883 1.105287 -0.479731
13  10.828041 -0.000002 0.000000  -0.010232 -0.002807 -0.645707
14  9.393339 -0.000006 -0.000003  -1.569611 0.034195 0.000037
15  1.442241 0.107449 -1.746185  1.686435 0.539209 0.325885
16  1.063450 -0.000003 -0.000001  -0.000000 -0.000000 0.199056
17  1.376310 -0.000004 0.000001  -0.000000 -0.000000 0.199049
18  4.172844 -0.251367 -1.312747  0.008050 0.095731 0.148659
19  1.215373 0.000002 0.000002  -0.000000 -0.000000 0.645758
20  1.215372 -0.000001 -0.000005  -0.000000 -0.000000 0.645758
21  4.220534 -0.244857 -0.431462  0.001333 0.026242 0.148339
22  1.350418 0.000000 0.000005  -0.000000 0.000000 0.863926
23  1.350410 0.000001 0.000000  0.000000 -0.000000 0.863926
24  -1.971156 0.863608 -2.669257  -0.942171 1.412283 1.765790
25  4.640937 -0.000000 -0.000005  0.843344 -1.150338 -0.869073
26  10.828047 0.000003 0.000005  0.334086 -0.577359 -0.620648
27  9.393333 -0.000002 -0.000002  0.743796 -0.365046 0.157755
28  1.442241 0.107454 1.746184  -1.686405 -0.539236 0.325898
29  1.063451 -0.000002 -0.000000  0.000000 -0.000000 0.199056
30  1.376309 0.000001 -0.000001  0.000000 0.000000 0.199059
31  4.172844 -0.251363 1.312748  -0.008050 -0.095731 0.148659
32  1.215372 0.000002 -0.000005  -0.000000 -0.000000 0.645746
33  1.215374 0.000001 0.000008  0.000000 0.000000 0.645746
34  4.220534 -0.244852 0.431474  -0.001333 -0.026242 0.148339
35  1.350415 -0.000003 -0.000009  0.000000 -0.000000 0.863937
36  1.350413 -0.000002 -0.000002  0.000000 -0.000000 0.863925
37  4.262827 -0.232718 -1.392181  0.016840 0.076668 0.253759
38  2.110536 -0.000001 -0.000000  -0.024885 0.005413 -0.139545
39  0.891923 2.373052 -0.014527  -3.141592 -0.000001 1.413797
40  7.228123 5.709445 3.726567  3.140796 -1.570796 0.000000
41  2.450427 5.076127 0.001325  3.140791 -1.570796 0.000000
42  6.312406 -4.528059 0.001311  3.140791 -1.570796 0.000000
43  2.233304 1.152535 -7.309137  -1.140616 -1.486509 -0.843856
44  -5.952957 -2.602895 0.029162  0.000000 -0.000000 0.000000
time 10
0  0.090810 6.088894 38.620945  0.000000 -0.000000 -1.701715
1  0.242522 -0.089846 0.000008  0.000033 -1.603737 -1.570821
2  0.000001 0.000008 4.427392  -0.164138 -3.080832 0.064287
3  18.465937 -0.000002 -0.000001  -0.000000 -0.000000 -0.337601
4  14.875443 0.000001 -0.000000  0.008548 -0.031687 0.379159
5  0.000009 -0.000003 -4.427393  0.125184 -3.108065 -0.301874
6  18.465939 -0.000001 0.000000  0.000000 0.000000 -0.328698
7  14.875443 0.000000 -0.000001  0.003691 -0.036251 0.029157
8  2.255209 -0.007573 -0.074218  0.154969 0.015573 -0.001884
9  9.514218 -0.009356 -0.000000  0.040069 0.004959 -0.114260
10  11.752196 -0.001494 0.000000  -0.000000 0.006782 0.440031
11  -2.018043 0.863601 2.638013  0.812119 -1.401946 1.895081
12  4.640939 0.000000 0.000005  -0.161891 1.098546 -0.457977
13  10.828042 -0.000002 -0.000001  -0.010232 -0.002807 -0.645707
14  9.393337 -0.000007 -0.000002  -1.569611 0.034195 0.000037
15  1.442240 0.107448 -1.746183  1.686435 0.539209 0.325885
16  1.063451 -0.000006 -0.000001  0.000000 -0.000000 0.199056
17  1.376309 -0.000002 0.000000  -0.000000 -0.000000 0.199049
18  4.172843 -0.251366 -1.312741  0.008050 0.095731 0.148659
19  1.215376 0.000001 0.000000  0.000000 -0.000000 0.645758
20  1.215367 0.000000 -0.000005  0.000000 -0.000000 0.645758
21  4.220532 -0.244858 -0.431462  0.001333 0.026242 0.148339
22  1.350415 0.000002 0.000005  -0.000000 -0.000000 0.863926
23  1.350410 0.000004 -0.000003  0.000000 0.000000 0.863926
24  -1.982880 0.863611 -2.661444  -0.940782 1.407259 1.767243
25  4.640939 -0.000001 -0.000008  0.843344 -1.150338 -0.869073
26  10.828041 0.000002 0.000007  0.334086 -0.577359 -0.620648
27  9.393336 -0.000005 -0.000002  0.743796 -0.365046 0.157755
28  1.442242 0.107455 1.746182  -1.686405 -0.539236 0.325898
29  1.063451 -0.000005 0.000000  0.000000 0.000000 0.199056
30  1.376308 -0.000011 -0.000001  0.000000 0.000000 0.199059
31  4.172846 -0.251362 1.312746  -0.008050 -0.095731 0.148659
32  1.215375 0.000001 -0.000005  -0.000000 -0.000000 0.645746
33  1.215376 -0.000001 0.000004  0.000000 0.000000 0.645746
34  4.220535 -0.244851 0.431474  -0.001333 -0.026242 0.148339
35  1.350416 -0.000002 -0.000002  -0.000000 -0.000000 0.863937
36  1.350411 -0.000001 0.000000  -0.000000 -0.000000 0.863925
37  4.262829 -0.232717 -1.392184  0.016840 0.076668 0.253759
38  2.110537 0.000003 -0.000000  -0.027610 0.007217 -0.137897
39  0.891919 2.373050 -0.014527  -3.141592 -0.000001 1.413797
40  7.228121 5.709445 3.726568  3.140796 -1.570796 0.000000
41  2.450427 5.076127 0.001325  3.140791 -1.570796 0.000000
42  6.312410 -4.528058 0.001311  3.140791 -1.570796 0.000000
43  2.233305 1.152535 -7.309138  -1.141958 -1.476490 -0.837728
44  -5.952957 -2.602895 0.029162  0.000000 -0.000000 0.000000
time 11
0  -0.069351 6.026650 38.636703  0.000000 -0.000000 -1.701715
1  0.246429 -0.085940 0.000008  -0.000030 -1.607285 -1.570772
2  -0.000004 0.000007 4.427392  -0.164042 -3.073636 0.071055
3  18.465939 -0.000001 0.000001  -0.000000 -0.000000 -0.328317
4  14.875444 0.000002 0.000000  0.007553 -0.036348 0.375999
5  0.000009 -0.000003 -4.427393  0.126718 -3.099838 -0.294855
6  18.465935 -0.000000 0.000001  0.000000 0.000000 -0.319312
7  14.875443 -0.000000 0.000000  0.004147 -0.040192 0.027318
8  2.255211 -0.007574 -0.082031  0.158513 0.019147 -0.001950
9  9.514213 -0.009356 -0.000000  0.044646 0.005242 -0.115948
10  11.752201 -0.001493 -0.000000  -0.000000 0.003355 0.440031
11  -2.010228 0.863599 2.645825  0.827744 -1.402173 1.879763
12  4.640938 0.000000 -0.000001  -0.143209 1.091920 -0.437660
13  10.828046 0.000001 -0.000001  -0.010232 -0.002807 -0.645707
14  9.393337 -0.000006 -0.000001  -1.569611 0.034195 0.000037
15  1.442241 0.107448 -1.746181  1.686435 0.539209 0.325885
16  1.063449 -0.000002 0.000000  0.000000 -0.000000 0.199056
17  1.376308 -0.000007 0.000003  -0.000000 -0.000000 0.199049
18  4.172844 -0.251366 -1.312742  0.008050 0.095731 0.148659
19  1.215371 -0.000001 0.000000  0.000000 -0.000000 0.645758
20  1.215373 -0.000000 0.000000  -0.000000 0.000000 0.645758
21  4.220534 -0.244858 -0.431460  0.001333 0.026242 0.148339
22  1.350418 0.000002 0.000000  -0.000000 -0.000000 0.863926
23  1.350407 0.000002 -0.000001  0.000000 -0.000000 0.863926
24  -1.990694 0.863612 -2.653630  -0.938375 1.402539 1.769636
25  4.640938 -0.000001 -0.000008  0.843344 -1.150338 -0.869073
26  10.828044 0.000004 0.000007  0.334086 -0.577359 -0.620648
27  9.393339 -0.000002 0.000000  0.743796 -0.365046 0.157755
28  1.442244 0.107454 1.746180  -1.686405 -0.539236 0.325898
29  1.063451 -0.000003 -0.000000  -0.000000 0.000000 0.199056
30  1.376308 -0.000011 0.000000  0.000000 0.000000 0.199059
31  4.172845 -0.251363 1.312745  -0.008050 -0.095731 0.148659
32  1.215376 0.000001 0.000001  -0.000000 -0.000000 0.645746
33  1.215374 -0.000000 -0.000000  0.000000 0.000000 0.645746
34  4.220533 -0.244852 0.431473  -0.001333 -0.026242 0.148339
35  1.350413 -0.000003 0.000003  0.000000 -0.000000 0.863937
36  1.350410 -0.000002 0.000003  0.000000 0.000000 0.863925
37  4.262829 -0.232718 -1.392186  0.016840 0.076668 0.253759
38  2.110535 0.000002 -0.000000  -0.030078 0.009022 -0.136296
39  0.891931 2.373050 -0.014527  -3.141592 -0.000001 1.413797
40  7.228127 5.709445 3.726567  3.140796 -1.570796 0.000000
41  2.450425 5.076127 0.001325  3.140791 -1.570796 0.000000
42  6.312399 -4.528059 0.001311  3.140791 -1.570796 0.000000
43  2.233303 1.152535 -7.309138  -1.143780 -1.464461 -0.831122
44  -5.952957 -2.602895 0.029162  0.000000 -0.000000 0.000000
time 12
0  -0.221699 5.964406 38.668217  0.000000 -0.000000 -1.701715
1  0.254241 -0.082034 0.000000  -0.000030 -1.610979 -1.570772
2  -0.000001 0.000008 4.427393  -0.164042 -3.066440 0.077631
3  18.465944 -0.000002 0.000000  -0.000000 -0.000000 -0.319397
4  14.875442 0.000001 -0.000000  0.006557 -0.040881 0.372917
5  0.000008 -0.000003 -4.427393  0.128155 -3.091516 -0.287648
6  18.465940 -0.000001 0.000000  0.000000 -0.000000 -0.309204
7  14.875444 -0.000000 0.000000  0.004604 -0.044042 0.024992
8  2.255207 -0.007574 -0.089843  0.162226 0.022839 -0.002016
9  9.514211 -0.009356 -0.000000  0.048998 0.005524 -0.117594
10  11.752201 -0.001494 -0.000000  -0.000000 0.000059 0.440031
11  -1.998513 0.863598 2.649732  0.845465 -1.402173 1.862435
12  4.640938 0.000000 0.000005  -0.126298 1.085639 -0.419281
13  10.828041 -0.000001 -0.000001  -0.010232 -0.002807 -0.645707
14  9.393339 -0.000005 0.000003  -1.569611 0.034195 0.000037
15  1.442240 0.107450 -1.746185  1.686435 0.539209 0.325885
16  1.063449 -0.000001 -0.000001  0.000000 -0.000000 0.199056
17  1.376310 0.000000 0.000002  -0.000000 -0.000000 0.199049
18  4.172842 -0.251364 -1.312745  0.008050 0.095731 0.148659
19  1.215371 -0.000001 -0.000005  0.000000 -0.000000 0.645758
20  1.215368 0.000000 -0.000005  0.000000 0.000000 0.645758
21  4.220536 -0.244854 -0.431461  0.001333 0.026242 0.148339
22  1.350418 0.000001 0.000006  -0.000000 0.000000 0.863926
23  1.350405 0.000002 -0.000004  -0.000000 0.000000 0.863926
24  -1.998506 0.863609 -2.649725  -0.934858 1.398181 1.773140
25  4.640937 -0.000001 -0.000006  0.843344 -1.150338 -0.869073
26  10.828038 0.000001 0.000003  0.334086 -0.577359 -0.620648
27  9.393333 0.000000 0.000000  0.743796 -0.365046 0.157755
28  1.442240 0.107453 1.746185  -1.686405 -0.539236 0.325898
29  1.063451 -0.000007 0.000000  0.000000 0.000000 0.199056
30  1.376309 -0.000002 -0.000002  0.000000 0.000000 0.199059
31  4.172845 -0.251364 1.312747  -0.008050 -0.095731 0.148659
32  1.215374 0.000001 -0.000004  -0.000000 -0.000000 0.645746
33  1.215377 -0.000002 0.000002  0.000000 0.000000 0.645746
34  4.220533 -0.244853 0.431473  -0.001333 -0.026242 0.148339
35  1.350416 -0.000003 -0.000004  -0.000000 -0.000000 0.863937
36  1.350410 -0.000001 -0.000001  0.000000 0.000000 0.863925
37  4.262829 -0.232718 -1.392187  0.016840 0.076668 0.253759
38  2.110535 0.000001 -0.000000  -0.032289 0.010796 -0.134742
39  0.891921 2.373051 -0.014527  -3.141592 -0.000001 1.413797
40  7.228119 5.709445 3.726568  3.140796 -1.570796 0.000000
41  2.450425 5.076127 0.001325  3.140791 -1.570796 0.000000
42  6.312399 -4.528059 0.001311  3.140791 -1.570796 0.000000
43  2.233302 1.152535 -7.309138  -1.145889 -1.452316 -0.824133
44  -5.952957 -2.602895 0.029162  0.000000 -0.000000 0.000000
time 13
0  -0.370141 5.911053 38.683971  0.000000 -0.000000 -1.701715
1  0.262055 -0.078127 0.000008  -0.000030 -1.614831 -1.570772
2  -0.000001 0.000007 4.427392  -0.164138 -3.059054 0.083827
3  18.465937 -0.000002 -0.000001  -0.000000 0.000000 -0.310917
4  14.875443 0.000001 -0.000001  0.005598 -0.045287 0.370034
5  0.000013 -0.000003 -4.427393  0.129401 -3.083097 -0.280349
6  18.465939 -0.000001 -0.000000  0.000000 0.000000 -0.298505
7  14.875443 0.000000 0.000001  0.005025 -0.047771 0.022141
8  2.255208 -0.007574 -0.097656  0.166066 0.026688 -0.002083
9  9.514220 -0.009357 -0.000000  0.053125 0.005806 -0.119131
10  11.752199 -0.001494 -0.000000  0.000000 -0.003045 0.440031
11  -1.990694 0.863595 2.653638  0.865473 -1.401896 1.842809
12  4.640940 0.000000 0.000001  -0.111581 1.079944 -0.403296
13  10.828043 0.000002 -0.000001  -0.010232 -0.002807 -0.645707
14  9.393334 -0.000008 -0.000002  -1.569611 0.034195 0.000037
15  1.442238 0.107451 -1.746187  1.686435 0.539209 0.325885
16  1.063451 -0.000003 -0.000001  -0.000000 -0.000000 0.199056
17  1.376311 -0.000004 0.000004  -0.000000 0.000000 0.199049
18  4.172842 -0.251364 -1.312745  0.008050 0.095731 0.148659
19  1.215374 0.000003 -0.000004  -0.000000 -0.000000 0.645758
20  1.215367 0.000004 -0.000002  0.000000 -0.000000 0.645758
21  4.220532 -0.244854 -0.431462  0.001333 0.026242 0.148339
22  1.350415 0.000000 0.000000  -0.000000 -0.000000 0.863926
23  1.350408 -0.000000 -0.000001  0.000000 -0.000000 0.863926
24  -2.006325 0.863609 -2.645817  -0.930137 1.394277 1.777755
25  4.640938 -0.000001 -0.000006  0.843344 -1.150338 -0.869073
26  10.828047 0.000004 0.000007  0.334087 -0.577359 -0.620648
27  9.393336 0.000002 -0.000000  0.743796 -0.365046 0.157755
28  1.442240 0.107453 1.746185  -1.686405 -0.539236 0.325898
29  1.063451 0.000002 0.000000  0.000000 0.000000 0.199056
30  1.376308 -0.000005 -0.000001  0.000000 0.000000 0.199059
31  4.172844 -0.251364 1.312745  -0.008050 -0.095731 0.148659
32  1.215374 0.000001 -0.000003  -0.000000 -0.000000 0.645746
33  1.215373 0.000001 0.000002  -0.000000 0.000000 0.645746
34  4.220532 -0.244853 0.431473  -0.001333 -0.026242 0.148339
35  1.350415 -0.000003 -0.000006  -0.000000 -0.000000 0.863937
36  1.350410 -0.000001 0.000006  0.000000 0.000000 0.863925
37  4.262827 -0.232718 -1.392184  0.016840 0.076668 0.253759
38  2.110538 -0.000003 -0.000000  -0.034243 0.012540 -0.133235
39  0.891919 2.373052 -0.014527  -3.141592 -0.000001 1.413797
40  7.228117 5.709444 3.726567  3.140796 -1.570796 0.000000
41  2.450433 5.076127 0.001325  3.140791 -1.570796 0.000000
42  6.312412 -4.528059 0.001311  3.140791 -1.570796 0.000000
43  2.233304 1.152535 -7.309137  -1.149149 -1.442588 -0.815517
44  -5.952957 -2.602895 0.029162  0.000000 -0.000000 0.000000
time 14
0  -0.514677 5.848808 38.699730  0.000000 -0.000000 -1.701715
1  0.265961 -0.074221 0.000008  -0.000030 -1.618869 -1.570772
2  -0.000003 0.000008 4.427392  -0.164234 -3.051669 0.089641
3  18.465933 -0.000000 -0.000001  -0.000000 -0.000000 -0.303241
4  14.875442 0.000002 0.000000  0.004638 -0.049544 0.367505
5  0.000006 -0.000002 -4.427393  0.130647 -3.074679 -0.272862
6  18.465939 -0.000001 -0.000000  0.000000 -0.000000 -0.287084
7  14.875443 -0.000000 0.000000  0.005411 -0.051408 0.018764
8  2.255209 -0.007573 -0.109375  0.170074 0.030754 -0.002149
9  9.514216 -0.009356 -0.000000  0.057026 0.006061 -0.120581
10  11.752193 -0.001494 0.000000  0.000000 -0.005993 0.440031
11  -1.982892 0.863598 2.661451  0.887958 -1.401291 1.820694
12  4.640939 0.000000 -0.000001  -0.099450 1.075083 -0.390128
13  10.828039 0.000000 -0.000001  -0.010232 -0.002807 -0.645707
14  9.393340 -0.000002 0.000001  -1.569611 0.034195 0.000037
15  1.442243 0.107447 -1.746180  1.686435 0.539209 0.325885
16  1.063450 0.000001 -0.000001  -0.000000 -0.000000 0.199056
17  1.376311 -0.000009 0.000002  -0.000000 -0.000000 0.199049
18  4.172844 -0.251369 -1.312742  0.008050 0.095731 0.148659
19  1.215374 0.000005 0.000000  -0.000000 -0.000000 0.645758
20  1.215370 -0.000001 -0.000001  -0.000000 -0.000000 0.645758
21  4.220537 -0.244859 -0.431460  0.001333 0.026242 0.148339
22  1.350415 0.000001 0.000002  0.000000 -0.000000 0.863926
23  1.350409 0.000003 -0.000005  0.000000 -0.000000 0.863926
24  -2.014143 0.863613 -2.638006  -0.924027 1.390858 1.783823
25  4.640938 -0.000001 -0.000003  0.843344 -1.150338 -0.869073
26  10.828053 0.000005 0.000005  0.334086 -0.577359 -0.620649
27  9.393332 -0.000002 -0.000000  0.743796 -0.365046 0.157755
28  1.442242 0.107453 1.746181  -1.686405 -0.539236 0.325898
29  1.063451 0.000001 -0.000001  0.000000 0.000000 0.199056
30  1.376308 -0.000010 0.000001  0.000000 0.000000 0.199059
31  4.172846 -0.251364 1.312747  -0.008050 -0.095731 0.148659
32  1.215372 0.000001 -0.000009  -0.000000 -0.000000 0.645746
33  1.215374 0.000001 0.000005  -0.000000 0.000000 0.645746
34  4.220532 -0.244853 0.431474  -0.001333 -0.026242 0.148339
35  1.350415 -0.000004 -0.000000  0.000000 -0.000000 0.863937
36  1.350410 -0.000002 0.000001  -0.000000 -0.000000 0.863925
37  4.262828 -0.232719 -1.392183  0.016840 0.076668 0.253759
38  2.110533 0.000001 -0.000000  -0.035785 0.014284 -0.131775
39  0.891924 2.373053 -0.014527  -3.141592 -0.000001 1.413797
40  7.228117 5.709445 3.726568  3.140796 -1.570796 0.000000
41  2.450432 5.076127 0.001325  3.140791 -1.570796 0.000000
42  6.312407 -4.528059 0.001311  3.140791 -1.570796 0.000000
43  2.233301 1.152535 -7.309138  -1.151737 -1.432482 -0.808911
44  -5.952957 -2.602895 0.029162  0.000000 -0.000000 0.000000
time 15
0  -0.655306 5.795457 38.715485  0.000000 -0.000000 -1.701715
1  0.273773 -0.070315 0.000004  -0.000030 -1.623123 -1.570772
2  -0.000000 0.000008 4.427392  -0.164521 -3.044094 0.094883
3  18.465935 -0.000001 -0.000001  -0.000000 -0.000000 -0.296515
4  14.875444 -0.000001 0.000000  0.003713 -0.053630 0.365412
5  0.000008 -0.000003 -4.427393  0.131797 -3.066069 -0.265188
6  18.465939 -0.000001 0.000000  0.000000 0.000000 -0.274876
7  14.875444 0.000000 0.000000  0.005762 -0.054895 0.014825
8  2.255212 -0.007575 -0.117188  0.174293 0.034996 -0.002215
9  9.514213 -0.009356 -0.000000  0.060666 0.006317 -0.121945
10  11.752193 -0.001494 0.000000  -0.000000 -0.008714 0.440031
11  -1.975067 0.863598 2.665357  0.913111 -1.400284 1.795803
12  4.640939 0.000000 0.000004  -0.090288 1.071309 -0.380188
13  10.828040 -0.000001 0.000002  -0.010232 -0.002807 -0.645707
14  9.393338 -0.000002 0.000001  -1.569611 0.034195 0.000037
15  1.442242 0.107450 -1.746183  1.686435 0.539209 0.325885
16  1.063449 -0.000001 -0.000002  0.000000 -0.000000 0.199056
17  1.376309 -0.000006 0.000001  0.000000 0.000000 0.199049
18  4.172843 -0.251367 -1.312744  0.008050 0.095731 0.148659
19  1.215374 0.000003 -0.000001  -0.000000 -0.000000 0.645758
20  1.215373 0.000000 -0.000003  0.000000 -0.000000 0.645758
21  4.220534 -0.244856 -0.431460  0.001333 0.026242 0.148339
22  1.350416 0.000005 0.000002  -0.000000 0.000000 0.863926
23  1.350411 0.000000 0.000003  0.000000 -0.000000 0.863926
24  -2.021946 0.863613 -2.634100  -0.916344 1.387983 1.791430
25  4.640937 -0.000002 -0.000005  0.843344 -1.150338 -0.869073
26  10.828040 0.000003 0.000004  0.334086 -0.577359 -0.620648
27  9.393339 -0.000000 -0.000000  0.743796 -0.365046 0.157755
28  1.442242 0.107453 1.746181  -1.686405 -0.539236 0.325898
29  1.063451 0.000007 -0.000000  -0.000000 -0.000000 0.199056
30  1.376308 -0.000005 -0.000002  0.000000 0.000000 0.199059
31  4.172845 -0.251364 1.312745  -0.008050 -0.095731 0.148659
32  1.215375 0.000000 -0.000008  -0.000000 -0.000000 0.645746
33  1.215373 0.000001 0.000004  -0.000000 0.000000 0.645746
34  4.220535 -0.244852 0.431472  -0.001333 -0.026242 0.148339
35  1.350414 -0.000003 -0.000003  0.000000 -0.000000 0.863937
36  1.350411 -0.000001 0.000003  0.000000 0.000000 0.863925
37  4.262827 -0.232718 -1.392185  0.016840 0.076668 0.253759
38  2.110536 0.000003 -0.000000  -0.037019 0.015997 -0.130410
39  0.891919 2.373051 -0.014526  -3.141592 -0.000001 1.413797
40  7.228114 5.709445 3.726568  3.140796 -1.570796 0.000000
41  2.450423 5.076128 0.001325  3.140791 -1.570796 0.000000
42  6.312397 -4.528058 0.001311  3.140791 -1.570796 0.000000
43  2.233304 1.152535 -7.309138  -1.152312 -1.419172 -0.809868
44  -5.952957 -2.602895 0.029162  0.000000 -0.000000 0.000000
time 16
0  -0.803748 5.759888 38.715485  0.000000 -0.000000 -1.701715
1  0.277679 -0.062502 0.000004  -0.000030 -1.631114 -1.570772
2  -0.000009 0.000008 4.427392  -0.164713 -3.031785 0.096027
3  18.465937 -0.000001 -0.000000  -0.000000 0.000000 -0.298927
4  14.875444 0.000001 0.000000  0.002718 -0.057994 0.368177
5  0.000004 -0.000003 -4.427392  0.133523 -3.053155 -0.254800
6  18.465948 -0.000002 -0.000001  -0.000000 -0.000000 -0.255710
7  14.875443 0.000000 0.000000  0.006183 -0.058593 0.006721
8  2.251300 -0.007574 -0.136720  0.183112 0.043028 -0.002380
9  9.514216 -0.009355 -0.000000  0.063479 0.006505 -0.122768
10  11.752201 -0.001495 -0.000000  0.000000 -0.010955 0.440031
11  -1.971160 0.863595 2.669263  0.960178 -1.396759 1.749180
12  4.640939 -0.000000 0.000000  -0.084482 1.068871 -0.373891
13  10.828043 -0.000001 0.000001  -0.010232 -0.002807 -0.645707
14  9.393336 -0.000009 0.000000  -1.569611 0.034195 0.000037
15  1.442241 0.107449 -1.746183  1.686435 0.539209 0.325885
16  1.063448 0.000000 -0.000001  0.000000 -0.000000 0.199056
17  1.376309 -0.000007 0.000000  -0.000000 -0.000000 0.199049
18  4.172843 -0.251368 -1.312743  0.008050 0.095731 0.148659
19  1.215376 0.000005 -0.000002  0.000000 -0.000000 0.645758
20  1.215369 0.000000 -0.000001  0.000000 -0.000000 0.645758
21  4.220536 -0.244858 -0.431458  0.001333 0.026242 0.148339
22  1.350416 0.000002 0.000001  0.000000 -0.000000 0.863926
23  1.350410 0.000001 -0.000003  -0.000000 -0.000000 0.863926
24  -2.029762 0.863611 -2.630193  -0.892647 1.388286 1.814847
25  4.640937 -0.000002 -0.000006  0.843344 -1.150338 -0.869073
26  10.828039 0.000004 0.000003  0.334086 -0.577359 -0.620648
27  9.393337 -0.000000 -0.000001  0.743796 -0.365046 0.157755
28  1.442241 0.107453 1.746183  -1.686405 -0.539236 0.325898
29  1.063451 -0.000007 -0.000000  0.000000 0.000000 0.199056
30  1.376309 -0.000007 -0.000001  -0.000000 0.000000 0.199059
31  4.172846 -0.251364 1.312747  -0.008050 -0.095731 0.148659
32  1.215375 0.000001 -0.000005  -0.000000 -0.000000 0.645746
33  1.215377 0.000000 0.000004  0.000000 0.000000 0.645746
34  4.220535 -0.244852 0.431473  -0.001333 -0.026242 0.148339
35  1.350415 -0.000003 -0.000008  0.000000 -0.000000 0.863937
36  1.350413 -0.000002 0.000000  0.000000 -0.000000 0.863925
37  4.262829 -0.232718 -1.392184  0.016840 0.076668 0.253759
38  2.110537 0.000000 -0.000000  -0.037842 0.018373 -0.129515
39  0.891924 2.373051 -0.014527  -3.141592 -0.000001 1.413797
40  7.228122 5.709445 3.726568  3.140796 -1.570796 0.000000
41  2.450428 5.076128 0.001325  3.140791 -1.570796 0.000000
42  6.312406 -4.528059 0.001311  3.140791 -1.570796 0.000000
43  2.233297 1.152535 -7.309138  -1.152312 -1.405163 -0.809485
44  -5.952957 -2.602895 0.029162  0.000000 -0.000000 0.000000
time 17
0  -0.952190 5.733212 38.731243  0.000000 -0.000000 -1.701715
1  0.277678 -0.054689 0.000008  -0.000030 -1.643272 -1.570772
2  -0.000008 0.000007 4.427392  -0.164617 -3.014457 0.091547
3  18.465937 -0.000001 -0.000001  -0.000000 -0.000000 -0.313037
4  14.875442 -0.000001 0.000001  0.001722 -0.062314 0.377026
5  0.000007 -0.000003 -4.427393  0.135631 -3.035840 -0.241229
6  18.465942 -0.000001 0.000001  0.000000 -0.000000 -0.227946
7  14.875446 -0.000000 -0.000000  0.006569 -0.062261 -0.006710
8  2.251298 -0.007575 -0.164065  0.196909 0.055204 -0.002612
9  9.514215 -0.009356 -0.000000  0.064980 0.006599 -0.122854
10  11.752196 -0.001493 -0.000000  0.000000 -0.012273 0.440031
11  -1.967258 0.863599 2.673169  1.030491 -1.389481 1.679293
12  4.640939 0.000001 -0.000002  -0.082447 1.068007 -0.371685
13  10.828036 -0.000001 0.000000  -0.010232 -0.002807 -0.645707
14  9.393336 -0.000004 -0.000000  -1.569611 0.034195 0.000037
15  1.442240 0.107448 -1.746187  1.686435 0.539209 0.325885
16  1.063448 -0.000001 -0.000003  0.000000 -0.000000 0.199056
17  1.376310 -0.000001 0.000002  0.000000 -0.000000 0.199049
18  4.172845 -0.251364 -1.312744  0.008050 0.095731 0.148659
19  1.215374 0.000001 -0.000003  0.000000 -0.000000 0.645758
20  1.215368 0.000001 0.000002  0.000000 -0.000000 0.645758
21  4.220534 -0.244855 -0.431462  0.001333 0.026242 0.148339
22  1.350419 0.000001 0.000007  -0.000000 -0.000000 0.863926
23  1.350411 0.000002 -0.000003  0.000000 0.000000 0.863926
24  -2.033665 0.863613 -2.626287  -0.847844 1.392583 1.859374
25  4.640939 -0.000001 -0.000005  0.843344 -1.150338 -0.869073
26  10.828046 0.000005 0.000005  0.334086 -0.577359 -0.620648
27  9.393333 -0.000003 -0.000001  0.743796 -0.365046 0.157755
28  1.442241 0.107453 1.746181  -1.686405 -0.539236 0.325898
29  1.063451 -0.000008 0.000001  -0.000000 0.000000 0.199056
30  1.376310 -0.000005 0.000000  0.000000 0.000000 0.199059
31  4.172843 -0.251365 1.312750  -0.008050 -0.095731 0.148659
32  1.215372 0.000001 0.000005  -0.000000 -0.000000 0.645746
33  1.215374 0.000001 0.000009  0.000000 0.000000 0.645746
34  4.220532 -0.244852 0.431473  -0.001333 -0.026242 0.148339
35  1.350417 -0.000003 -0.000005  0.000000 -0.000000 0.863937
36  1.350413 -0.000002 0.000002  0.000000 -0.000000 0.863925
37  4.262827 -0.232718 -1.392185  0.016840 0.076668 0.253759
38  2.110537 0.000003 -0.000000  -0.037688 0.021350 -0.129327
39  0.891921 2.373051 -0.014527  -3.141592 -0.000001 1.413797
40  7.228117 5.709446 3.726568  3.140796 -1.570796 0.000000
41  2.450428 5.076127 0.001325  3.140791 -1.570796 0.000000
42  6.312404 -4.528059 0.001311  3.140791 -1.570796 0.000000
43  2.233303 1.152535 -7.309138  -1.151162 -1.392086 -0.799049
44  -5.952957 -2.602895 0.029162  0.000000 -0.000000 0.000000
time 18
0  -1.057662 5.724320 38.715485  0.000000 -0.000000 -1.701715
1  0.277679 -0.050783 0.000008  -0.000030 -1.654913 -1.570772
2  0.000002 0.000008 4.427392  -0.164042 -2.998455 0.084685
3  18.465940 -0.000001 0.000000  -0.000000 0.000000 -0.331022
4  14.875442 -0.000000 0.000000  0.000976 -0.065507 0.387415
5  0.000005 -0.000003 -4.427392  0.137260 -3.020056 -0.228782
6  18.465940 -0.000002 0.000000  0.000000 -0.000000 -0.200641
7  14.875443 -0.000000 -0.000000  0.006885 -0.064929 -0.020854
8  2.247398 -0.007574 -0.187502  0.209777 0.066890 -0.002844
9  9.514224 -0.009355 -0.000000  0.065093 0.006599 -0.122551
10  11.752192 -0.001494 0.000000  -0.000000 -0.012489 0.440031
11  -1.967258 0.863598 2.673169  1.100519 -1.380315 1.609597
12  4.640938 0.000001 0.000004  -0.085887 1.069464 -0.375415
13  10.828034 0.000000 0.000002  -0.010232 -0.002807 -0.645707
14  9.393337 -0.000003 -0.000000  -1.569611 0.034195 0.000037
15  1.442240 0.107449 -1.746180  1.686435 0.539209 0.325885
16  1.063450 0.000003 -0.000001  -0.000000 -0.000000 0.199056
17  1.376312 -0.000003 -0.000000  -0.000000 -0.000000 0.199049
18  4.172843 -0.251366 -1.312739  0.008050 0.095731 0.148659
19  1.215377 0.000001 -0.000001  0.000000 -0.000000 0.645758
20  1.215370 -0.000000 -0.000001  0.000000 0.000000 0.645758
21  4.220535 -0.244856 -0.431455  0.001333 0.026242 0.148339
22  1.350418 0.000001 0.000005  -0.000000 -0.000000 0.863926
23  1.350409 0.000002 0.000000  -0.000000 0.000000 0.863926
24  -2.033667 0.863612 -2.626287  -0.795543 1.398453 1.911251
25  4.640940 -0.000001 -0.000004  0.843344 -1.150338 -0.869073
26  10.828041 0.000001 0.000005  0.334086 -0.577359 -0.620648
27  9.393336 -0.000002 0.000000  0.743796 -0.365046 0.157755
28  1.442241 0.107454 1.746182  -1.686405 -0.539236 0.325898
29  1.063451 0.000003 -0.000000  0.000000 0.000000 0.199056
30  1.376308 -0.000006 -0.000000  -0.000000 0.000000 0.199059
31  4.172844 -0.251364 1.312748  -0.008050 -0.095731 0.148659
32  1.215373 0.000000 -0.000003  -0.000000 -0.000000 0.645746
33  1.215374 -0.000001 0.000008  0.000000 0.000000 0.645746
34  4.220533 -0.244851 0.431474  -0.001333 -0.026242 0.148339
35  1.350417 -0.000003 -0.000011  0.000000 -0.000000 0.863937
36  1.350410 -0.000001 0.000002  0.000000 -0.000000 0.863925
37  4.262827 -0.232718 -1.392185  0.016840 0.076668 0.253759
38  2.110539 0.000002 -0.000001  -0.035220 0.023785 -0.129562
39  0.891921 2.373053 -0.014527  -3.141592 -0.000001 1.413797
40  7.228116 5.709445 3.726567  3.140796 -1.570796 0.000000
41  2.450432 5.076128 0.001325  3.140791 -1.570796 0.000000
42  6.312413 -4.528058 0.001311  3.140791 -1.570796 0.000000
43  2.233303 1.152535 -7.309136  -1.149436 -1.379766 -0.788135
44  -5.952957 -2.602895 0.029162  0.000000 -0.000000 0.000000
time 19
0  -1.085007 5.750996 38.715485  0.000000 -0.000000 -1.701715
1  0.277678 -0.046876 0.000004  -0.000030 -1.661380 -1.570772
2  -0.000001 0.000008 4.427392  -0.163276 -2.989933 0.077727
3  18.465939 -0.000002 0.000000  0.000000 -0.000000 -0.346301
4  14.875439 -0.000001 0.000000  0.000656 -0.066401 0.395513
5  0.000002 -0.000002 -4.427392  0.138123 -3.012212 -0.223822
6  18.465939 -0.000002 0.000000  -0.000000 0.000000 -0.187973
7  14.875443 0.000000 0.000000  0.006990 -0.065747 -0.028283
8  2.247394 -0.007574 -0.203128  0.215769 0.073371 -0.002943
9  9.514215 -0.009356 0.000000  0.063667 0.006505 -0.122140
10  11.752195 -0.001494 0.000000  0.000000 -0.011374 0.440031
11  -1.971159 0.863598 2.669264  1.153396 -1.372056 1.556751
12  4.640939 0.000000 0.000005  -0.095554 1.073490 -0.385901
13  10.828043 -0.000001 -0.000002  -0.010232 -0.002807 -0.645707
14  9.393341 -0.000003 -0.000001  -1.569611 0.034195 0.000037
15  1.442237 0.107450 -1.746180  1.686435 0.539209 0.325885
16  1.063448 0.000004 0.000000  -0.000000 -0.000000 0.199056
17  1.376307 -0.000012 0.000003  0.000000 -0.000000 0.199049
18  4.172840 -0.251364 -1.312738  0.008050 0.095731 0.148659
19  1.215376 -0.000000 -0.000004  -0.000000 -0.000000 0.645758
20  1.215364 -0.000001 -0.000003  0.000000 -0.000000 0.645758
21  4.220532 -0.244854 -0.431455  0.001333 0.026242 0.148339
22  1.350417 -0.000000 0.000002  -0.000000 -0.000000 0.863926
23  1.350411 0.000003 0.000000  0.000000 -0.000000 0.863926
24  -2.029761 0.863613 -2.630193  -0.752962 1.403991 1.953642
25  4.640938 -0.000002 -0.000004  0.843344 -1.150338 -0.869073
26  10.828038 0.000001 0.000006  0.334086 -0.577359 -0.620648
27  9.393336 -0.000004 0.000003  0.743796 -0.365046 0.157755
28  1.442239 0.107452 1.746184  -1.686405 -0.539236 0.325898
29  1.063451 -0.000001 -0.000001  -0.000000 0.000000 0.199056
30  1.376309 -0.000006 -0.000001  0.000000 0.000000 0.199059
31  4.172840 -0.251364 1.312752  -0.008050 -0.095731 0.148659
32  1.215374 0.000001 0.000003  -0.000000 0.000000 0.645746
33  1.215376 -0.000001 -0.000001  0.000000 0.000000 0.645746
34  4.220531 -0.244853 0.431474  -0.001333 -0.026242 0.148339
35  1.350414 -0.000003 -0.000007  0.000000 -0.000000 0.863937
36  1.350413 -0.000001 -0.000004  0.000000 -0.000000 0.863925
37  4.262824 -0.232719 -1.392181  0.016840 0.076668 0.253759
38  2.110542 0.000002 -0.000000  -0.029410 0.024567 -0.129939
39  0.891932 2.373049 -0.014527  -3.141592 -0.000001 1.413797
40  7.228114 5.709445 3.726568  3.140796 -1.570796 0.000000
41  2.450429 5.076127 0.001325  3.140791 -1.570796 0.000000
42  6.312404 -4.528058 0.001311  3.140791 -1.570796 0.000000
43  2.233300 1.152536 -7.309136  -1.150203 -1.370242 -0.787369
44  -5.952957 -2.602895 0.029162  0.000000 -0.000000 0.000000
time 20
0  -0.999067 5.795457 38.683971  0.000000 -0.000000 -1.701715
1  0.273773 -0.050783 0.000004  -0.000030 -1.658003 -1.570772
2  0.000002 0.000007 4.427392  -0.162605 -2.995141 0.072675
3  18.465944 -0.000000 0.000001  -0.000000 -0.000000 -0.353319
4  14.875444 0.000000 -0.000000  0.001047 -0.063825 0.398002
5  0.000006 -0.000003 -4.427392  0.138410 -3.018812 -0.233368
6  18.465942 -0.000001 0.000001  0.000000 0.000000 -0.205235
7  14.875444 -0.000000 -0.000000  0.006780 -0.063777 -0.020929
8  2.247399 -0.007575 -0.195315  0.209060 0.069973 -0.002844
9  9.514218 -0.009356 0.000000  0.060666 0.006317 -0.121945
10  11.752197 -0.001494 0.000000  0.000000 -0.008714 0.440031
11  -1.975073 0.863597 2.665357  1.177407 -1.368102 1.532242
12  4.640938 -0.000000 0.000004  -0.110551 1.079537 -0.402177
13  10.828049 0.000003 -0.000001  -0.010232 -0.002807 -0.645707
14  9.393339 -0.000002 -0.000001  -1.569611 0.034195 0.000037
15  1.442240 0.107448 -1.746183  1.686435 0.539209 0.325885
16  1.063449 -0.000003 -0.000000  -0.000000 -0.000000 0.199056
17  1.376309 -0.000010 0.000001  -0.000000 -0.000000 0.199049
18  4.172843 -0.251367 -1.312745  0.008050 0.095731 0.148659
19  1.215374 0.000003 -0.000002  0.000000 -0.000000 0.645758
20  1.215368 -0.000000 -0.000001  0.000000 -0.000000 0.645758
21  4.220533 -0.244857 -0.431461  0.001333 0.026242 0.148339
22  1.350414 0.000001 0.000005  -0.000000 -0.000000 0.863926
23  1.350407 -0.000000 -0.000000  -0.000000 0.000000 0.863926
24  -2.021950 0.863612 -2.634099  -0.741113 1.407744 1.965436
25  4.640938 -0.000002 -0.000005  0.843344 -1.150338 -0.869073
26  10.828044 0.000002 0.000006  0.334086 -0.577359 -0.620648
27  9.393339 -0.000005 0.000002  0.743796 -0.365046 0.157755
28  1.442244 0.107452 1.746176  -1.686405 -0.539236 0.325898
29  1.063451 -0.000003 -0.000001  -0.000000 0.000000 0.199056
30  1.376307 -0.000007 -0.000001  -0.000000 0.000000 0.199059
31  4.172847 -0.251364 1.312742  -0.008050 -0.095731 0.148659
32  1.215374 -0.000000 -0.000001  0.000000 -0.000000 0.645746
33  1.215376 -0.000000 0.000007  0.000000 0.000000 0.645746
34  4.220536 -0.244853 0.431467  -0.001333 -0.026242 0.148339
35  1.350418 -0.000003 -0.000005  0.000000 0.000000 0.863937
36  1.350412 -0.000001 0.000003  0.000000 -0.000000 0.863925
37  4.262829 -0.232719 -1.392186  0.016840 0.076668 0.253759
38  2.110535 0.000001 -0.000001  -0.018921 0.022582 -0.130127
39  0.891925 2.373050 -0.014527  -3.141592 -0.000001 1.413797
40  7.228120 5.709445 3.726568  3.140796 -1.570796 0.000000
41  2.450425 5.076128 0.001325  3.140791 -1.570796 0.000000
42  6.312407 -4.528058 0.001311  3.140791 -1.570796 0.000000
43  2.233305 1.152535 -7.309138  -1.143972 -1.377669 -0.798092
44  -5.952957 -2.602895 0.029162  0.000000 -0.000000 0.000000
time 21
0  -0.819374 5.875485 38.668217  0.000000 -0.000000 -1.701715
1  0.273773 -0.066408 0.000000  -0.000030 -1.639234 -1.570772
2  -0.000007 0.000008 4.427392  -0.162126 -3.019570 0.074295
3  18.465940 -0.000001 -0.000001  -0.000000 -0.000000 -0.342061
4  14.875443 0.000001 -0.000000  0.001936 -0.058504 0.389311
5  0.000009 -0.000003 -4.427393  0.136206 -3.044641 -0.259011
6  18.465944 -0.000002 0.000001  0.000000 -0.000000 -0.256826
7  14.875443 0.000000 0.000000  0.006288 -0.059866 0.003982
8  2.251302 -0.007574 -0.152345  0.181593 0.051119 -0.002347
9  9.514217 -0.009356 -0.000000  0.055301 0.006008 -0.122378
10  11.752197 -0.001494 -0.000000  0.000000 -0.004903 0.440031
11  -1.986788 0.863599 2.657545  1.177407 -1.370066 1.531476
12  4.640938 0.000001 0.000004  -0.130021 1.087046 -0.423325
13  10.828042 -0.000001 -0.000001  -0.010232 -0.002807 -0.645707
14  9.393337 -0.000004 -0.000001  -1.569611 0.034195 0.000037
15  1.442241 0.107449 -1.746184  1.686435 0.539209 0.325885
16  1.063449 -0.000001 0.000000  -0.000000 -0.000000 0.199056
17  1.376309 -0.000005 0.000003  -0.000000 -0.000000 0.199049
18  4.172846 -0.251364 -1.312744  0.008050 0.095731 0.148659
19  1.215373 0.000001 -0.000005  0.000000 -0.000000 0.645758
20  1.215370 -0.000000 -0.000007  0.000000 -0.000000 0.645758
21  4.220532 -0.244858 -0.431465  0.001333 0.026242 0.148339
22  1.350417 0.000000 0.000004  -0.000000 -0.000000 0.863926
23  1.350411 0.000002 -0.000003  0.000000 0.000000 0.863926
24  -2.014127 0.863611 -2.641912  -0.771383 1.408561 1.935523
25  4.640938 -0.000001 -0.000006  0.843344 -1.150338 -0.869073
26  10.828038 0.000004 0.000004  0.334086 -0.577359 -0.620648
27  9.393337 -0.000001 -0.000001  0.743796 -0.365046 0.157755
28  1.442244 0.107454 1.746186  -1.686405 -0.539236 0.325898
29  1.063451 -0.000001 -0.000001  0.000000 0.000000 0.199056
30  1.376308 -0.000002 -0.000000  0.000000 0.000000 0.199059
31  4.172845 -0.251364 1.312756  -0.008050 -0.095731 0.148659
32  1.215374 0.000001 -0.000002  0.000000 0.000000 0.645746
33  1.215374 0.000000 -0.000002  0.000000 0.000000 0.645746
34  4.220534 -0.244852 0.431479  -0.001333 -0.026242 0.148339
35  1.350416 -0.000002 -0.000002  0.000000 -0.000000 0.863937
36  1.350413 -0.000001 0.000001  0.000000 -0.000000 0.863925
37  4.262827 -0.232718 -1.392174  0.016840 0.076668 0.253759
38  2.110540 0.000003 -0.000000  0.006427 0.016118 -0.129751
39  0.891919 2.373052 -0.014527  -3.141592 -0.000001 1.413797
40  7.228118 5.709445 3.726568  3.140796 -1.570796 0.000000
41  2.450428 5.076128 0.001325  3.140791 -1.570796 0.000000
42  6.312407 -4.528059 0.001311  3.140791 -1.570796 0.000000
43  2.233298 1.152535 -7.309138  -1.142054 -1.397503 -0.802113
44  -5.952957 -2.602895 0.029162  0.000000 -0.000000 0.000000
time 22
0  -0.600617 5.955514 38.636703  0.000000 -0.000000 -1.701715
1  0.273773 -0.089846 0.000004  -0.000030 -1.608148 -1.570772
2  -0.000010 0.000008 4.427392  -0.161360 -3.058391 0.082969
3  18.465940 -0.000001 -0.000001  0.000000 -0.000000 -0.312598
4  14.875445 0.000001 0.000000  0.003109 -0.052226 0.369797
5  0.000005 -0.000004 -4.427393  0.129689 -3.083480 -0.290737
6  18.465939 -0.000001 0.000001  0.000000 0.000000 -0.321084
7  14.875443 0.000000 -0.000000  0.005586 -0.055319 0.035084
8  2.255206 -0.007574 -0.082031  0.137206 0.019972 -0.001586
9  9.514215 -0.009356 0.000000  0.047722 0.005564 -0.123244
10  11.752196 -0.001495 0.000000  -0.000000 -0.000480 0.440031
11  -1.998505 0.863597 2.649732  1.165307 -1.376110 1.542486
12  4.640938 0.000001 0.000004  -0.153077 1.095460 -0.448389
13  10.828048 -0.000002 -0.000003  -0.010232 -0.002807 -0.645707
14  9.393338 -0.000008 -0.000001  -1.569611 0.034195 0.000037
15  1.442239 0.107449 -1.746186  1.686435 0.539209 0.325885
16  1.063448 -0.000001 -0.000002  -0.000000 -0.000000 0.199056
17  1.376310 -0.000007 0.000001  -0.000000 -0.000000 0.199049
18  4.172844 -0.251366 -1.312744  0.008050 0.095731 0.148659
19  1.215372 0.000004 -0.000001  0.000000 -0.000000 0.645758
20  1.215371 -0.000001 -0.000004  -0.000000 -0.000000 0.645758
21  4.220534 -0.244857 -0.431461  0.001333 0.026242 0.148339
22  1.350416 0.000000 0.000006  -0.000000 -0.000000 0.863926
23  1.350409 0.000001 0.000001  0.000000 -0.000000 0.863926
24  -2.002410 0.863610 -2.649724  -0.827571 1.407078 1.879886
25  4.640938 -0.000001 -0.000003  0.843344 -1.150338 -0.869073
26  10.828047 0.000002 0.000004  0.334086 -0.577359 -0.620648
27  9.393336 -0.000003 0.000000  0.743796 -0.365046 0.157755
28  1.442240 0.107453 1.746186  -1.686405 -0.539236 0.325898
29  1.063451 0.000003 -0.000000  0.000000 0.000000 0.199056
30  1.376309 -0.000003 -0.000000  0.000000 0.000000 0.199059
31  4.172843 -0.251365 1.312749  -0.008050 -0.095731 0.148659
32  1.215372 0.000001 -0.000000  -0.000000 -0.000000 0.645746
33  1.215374 0.000001 0.000000  0.000000 0.000000 0.645746
34  4.220531 -0.244854 0.431479  -0.001333 -0.026242 0.148339
35  1.350414 -0.000002 -0.000011  0.000000 -0.000000 0.863937
36  1.350411 -0.000002 0.000003  0.000000 -0.000000 0.863925
37  4.262826 -0.232719 -1.392183  0.016840 0.076668 0.253759
38  2.110542 0.000001 -0.000000  0.047920 0.005924 -0.129091
39  0.891915 2.373051 -0.014527  -3.141592 -0.000001 1.413797
40  7.228118 5.709445 3.726568  3.140796 -1.570796 0.000000
41  2.450427 5.076127 0.001325  3.140791 -1.570796 0.000000
42  6.312402 -4.528059 0.001311  3.140791 -1.570796 0.000000
43  2.233299 1.152535 -7.309138  -1.150299 -1.434958 -0.813889
44  -5.952957 -2.602895 0.029162  0.000000 -0.000000 0.000000
time 23
0  -0.346703 6.044434 38.620945  0.000000 -0.000000 -1.701715
1  0.273773 -0.121097 0.000004  0.000035 -1.573125 -1.570821
2  -0.000000 0.000008 4.427392  -0.159922 -3.102515 0.095074
3  18.465935 -0.000002 -0.000001  0.000000 0.000000 -0.274363
4  14.875442 -0.000002 0.000000  0.004495 -0.045202 0.345067
5  0.000001 -0.000003 -4.427393  0.119626 -3.126241 -0.320965
6  18.465942 -0.000000 0.000001  0.000000 0.000000 -0.380025
7  14.875445 0.000000 0.000000  0.004569 -0.049862 0.062547
8  2.255212 -0.007574 -0.003903  0.088010 -0.015103 -0.000726
9  9.514214 -0.009356 0.000000  0.038943 0.005040 -0.123893
10  11.752193 -0.001494 -0.000000  -0.000000 0.004409 0.440031
11  -2.010234 0.863597 2.641919  1.141107 -1.384143 1.565654
12  4.640940 0.000001 0.000004  -0.178742 1.104251 -0.476312
13  10.828043 -0.000001 0.000001  -0.010232 -0.002807 -0.645707
14  9.393339 -0.000002 -0.000004  -1.569611 0.034195 0.000037
15  1.442237 0.107452 -1.746183  1.686435 0.539209 0.325885
16  1.063450 0.000000 -0.000000  -0.000000 -0.000000 0.199056
17  1.376311 -0.000004 -0.000000  -0.000000 -0.000000 0.199049
18  4.172839 -0.251363 -1.312744  0.008050 0.095731 0.148659
19  1.215373 0.000000 -0.000005  -0.000000 -0.000000 0.645758
20  1.215368 -0.000001 -0.000005  -0.000000 -0.000000 0.645758
21  4.220530 -0.244853 -0.431461  0.001333 0.026242 0.148339
22  1.350419 0.000002 0.000009  -0.000000 -0.000000 0.863926
23  1.350410 0.000002 0.000002  0.000000 0.000000 0.863926
24  -1.986798 0.863611 -2.657538  -0.891629 1.404687 1.816471
25  4.640938 -0.000001 -0.000002  0.843344 -1.150338 -0.869073
26  10.828042 0.000009 0.000006  0.334086 -0.577359 -0.620648
27  9.393332 -0.000000 0.000001  0.743796 -0.365046 0.157755
28  1.442240 0.107454 1.746188  -1.686405 -0.539236 0.325898
29  1.063451 0.000003 -0.000002  0.000000 0.000000 0.199056
30  1.376307 -0.000007 -0.000001  0.000000 0.000000 0.199059
31  4.172844 -0.251363 1.312750  -0.008050 -0.095731 0.148659
32  1.215375 -0.000000 -0.000004  0.000000 0.000000 0.645746
33  1.215374 -0.000000 0.000005  -0.000000 0.000000 0.645746
34  4.220532 -0.244852 0.431477  -0.001333 -0.026242 0.148339
35  1.350414 -0.000003 -0.000000  0.000000 -0.000000 0.863937
36  1.350413 -0.000000 0.000003  0.000000 -0.000000 0.863925
37  4.262827 -0.232718 -1.392181  0.016840 0.076668 0.253759
38  2.110528 0.000003 -0.000000  0.093011 -0.005441 -0.128809
39  0.891929 2.373050 -0.014527  -3.141592 -0.000001 1.413797
40  7.228116 5.709445 3.726568  3.140796 -1.570796 0.000000
41  2.450431 5.076128 0.001325  3.140791 -1.570796 0.000000
42  6.312406 -4.528059 0.001311  3.140791 -1.570796 0.000000
43  2.233301 1.152535 -7.309137  -1.159311 -1.475645 -0.828250
44  -5.952957 -2.602895 0.029162  0.000000 -0.000000 0.000000
time 24
0  -0.069351 6.151139 38.589432  0.000000 -0.000000 -1.701715
1  0.265960 -0.144536 0.000008  -0.000030 -1.542513 -1.570772
2  -0.000002 0.000008 4.427392  -0.158102 3.140902 0.104701
3  18.465935 -0.000001 -0.000001  -0.000000 0.000000 -0.241392
4  14.875442 -0.000001 0.000000  0.006060 -0.037518 0.323024
5  -0.000002 -0.000003 -4.427392  0.108604 3.118679 -0.346046
6  18.465942 -0.000002 0.000000  0.000000 -0.000000 -0.425183
7  14.875443 0.000000 0.000000  0.003305 -0.043436 0.081869
8  2.255206 -0.007574 0.062505  0.046070 -0.045740 0.000002
9  9.514217 -0.009357 -0.000000  0.030089 0.004489 -0.123699
10  11.752187 -0.001495 0.000000  0.000000 0.009695 0.440031
11  -2.025856 0.863598 2.630199  1.104521 -1.392025 1.601364
12  4.640940 0.000000 0.000003  -0.205905 1.112935 -0.505885
13  10.828039 -0.000002 0.000001  -0.010232 -0.002807 -0.645707
14  9.393336 -0.000003 0.000001  -1.569611 0.034195 0.000037
15  1.442239 0.107453 -1.746183  1.686435 0.539209 0.325885
16  1.063449 -0.000002 0.000001  -0.000000 -0.000000 0.199056
17  1.376308 -0.000004 0.000000  0.000000 0.000000 0.199049
18  4.172844 -0.251364 -1.312741  0.008050 0.095731 0.148659
19  1.215373 0.000001 0.000002  0.000000 0.000000 0.645758
20  1.215367 0.000002 -0.000002  0.000000 -0.000000 0.645758
21  4.220536 -0.244852 -0.431455  0.001333 0.026242 0.148339
22  1.350415 -0.000001 0.000003  -0.000000 -0.000000 0.863926
23  1.350409 0.000001 0.000002  0.000000 -0.000000 0.863926
24  -1.975075 0.863613 -2.665350  -0.948373 1.403356 1.760321
25  4.640937 -0.000002 -0.000006  0.843344 -1.150338 -0.869073
26  10.828049 0.000005 0.000005  0.334087 -0.577359 -0.620648
27  9.393337 -0.000005 0.000000  0.743796 -0.365046 0.157755
28  1.442240 0.107453 1.746186  -1.686405 -0.539236 0.325898
29  1.063451 -0.000003 0.000000  -0.000000 0.000000 0.199056
30  1.376309 -0.000001 -0.000001  -0.000000 0.000000 0.199059
31  4.172844 -0.251364 1.312750  -0.008050 -0.095731 0.148659
32  1.215377 0.000000 -0.000002  0.000000 -0.000000 0.645746
33  1.215376 0.000000 0.000002  0.000000 0.000000 0.645746
34  4.220532 -0.244852 0.431477  -0.001333 -0.026242 0.148339
35  1.350415 -0.000003 -0.000004  -0.000000 -0.000000 0.863937
36  1.350413 -0.000003 0.000006  0.000000 -0.000000 0.863925
37  4.262824 -0.232719 -1.392179  0.016840 0.076668 0.253759
38  2.110533 0.000003 -0.000000  0.129259 -0.015484 -0.129233
39  0.891926 2.373048 -0.014527  -3.141592 -0.000001 1.413797
40  7.228114 5.709445 3.726567  3.140796 -1.570796 0.000000
41  2.450429 5.076127 0.001325  3.140791 -1.570796 0.000000
42  6.312407 -4.528060 0.001311  3.140791 -1.570796 0.000000
43  2.233302 1.152535 -7.309137  -1.164009 -1.514964 -0.845675
44  -5.952957 -2.602895 0.029162  0.000000 -0.000000 0.000000
time 25
0  0.223627 6.248950 38.557919  0.000000 -0.000000 -1.701715
1  0.258147 -0.156255 0.000008  -0.000030 -1.524634 -1.570772
2  0.000000 0.000007 4.427392  -0.157240 3.114768 0.102985
3  18.465935 -0.000001 -0.000000  -0.000000 -0.000000 -0.234447
4  14.875441 0.000000 -0.000000  0.007802 -0.029111 0.315677
5  0.000009 -0.000004 -4.427393  0.100649 3.092755 -0.362705
6  18.465939 0.000000 0.000000  0.000000 -0.000000 -0.450453
7  14.875443 0.000000 -0.000000  0.001831 -0.036070 0.089935
8  2.255208 -0.007574 0.101569  0.023582 -0.063612 0.000399
9  9.514217 -0.009356 -0.000000  0.022285 0.004005 -0.122032
10  11.752197 -0.001494 0.000000  0.000012 0.015255 0.440031
11  -2.041483 0.863600 2.622387  1.056787 -1.397590 1.648370
12  4.640938 0.000000 -0.000000  -0.233287 1.121085 -0.535718
13  10.828036 -0.000000 0.000000  -0.010232 -0.002807 -0.645707
14  9.393339 -0.000002 -0.000004  -1.569611 0.034195 0.000037
15  1.442240 0.107453 -1.746181  1.686435 0.539209 0.325885
16  1.063450 -0.000003 0.000000  -0.000000 0.000000 0.199056
17  1.376309 -0.000006 -0.000000  -0.000000 0.000000 0.199049
18  4.172844 -0.251363 -1.312742  0.008050 0.095731 0.148659
19  1.215375 -0.000001 0.000001  0.000000 -0.000000 0.645758
20  1.215371 0.000000 -0.000005  0.000000 -0.000000 0.645758
21  4.220535 -0.244852 -0.431458  0.001333 0.026242 0.148339
22  1.350413 -0.000000 0.000005  0.000000 -0.000000 0.863926
23  1.350412 0.000000 -0.000001  0.000000 0.000000 0.863926
24  -1.963351 0.863612 -2.677070  -0.985585 1.405656 1.723400
25  4.640938 -0.000002 -0.000005  0.843344 -1.150338 -0.869073
26  10.828047 0.000004 0.000006  0.334086 -0.577359 -0.620648
27  9.393335 0.000003 -0.000000  0.743796 -0.365046 0.157755
28  1.442245 0.107454 1.746182  -1.686405 -0.539236 0.325898
29  1.063451 -0.000003 -0.000000  0.000000 -0.000000 0.199056
30  1.376308 -0.000006 -0.000000  0.000000 0.000000 0.199059
31  4.172848 -0.251363 1.312748  -0.008050 -0.095731 0.148659
32  1.215374 0.000001 -0.000001  -0.000000 -0.000000 0.645746
33  1.215373 -0.000001 0.000003  0.000000 0.000000 0.645746
34  4.220537 -0.244851 0.431472  -0.001333 -0.026242 0.148339
35  1.350415 -0.000003 0.000002  0.000000 0.000000 0.863937
36  1.350411 -0.000001 0.000001  0.000000 0.000000 0.863925
37  4.262832 -0.232717 -1.392184  0.016840 0.076668 0.253759
38  2.110532 0.000003 -0.000000  0.144170 -0.021678 -0.130645
39  0.891923 2.373051 -0.014527  -3.141592 -0.000001 1.413797
40  7.228118 5.709445 3.726568  3.140796 -1.570796 0.000000
41  2.450429 5.076127 0.001325  3.140791 -1.570796 0.000000
42  6.312402 -4.528059 0.001311  3.140791 -1.570796 0.000000
43  2.233304 1.152535 -7.309138  -1.150011 -1.545865 -0.873824
44  -5.952957 -2.602895 0.029162  0.000000 -0.000000 0.000000
time 26
0  0.528324 6.364548 38.526405  0.000000 -0.000000 -1.701715
1  0.242522 -0.160161 0.000004  -0.000030 -1.522378 -1.570772
2  -0.000005 0.000007 4.427392  -0.158677 3.105678 0.086782
3  18.465935 -0.000001 0.000001  -0.000000 0.000000 -0.260838
4  14.875443 0.000001 0.000000  0.009615 -0.019980 0.327133
5  0.000009 -0.000003 -4.427393  0.097965 3.081754 -0.370192
6  18.465944 -0.000000 -0.000000  0.000000 0.000000 -0.455507
7  14.875443 0.000000 -0.000000  0.000287 -0.028006 0.086709
8  2.255208 -0.007575 0.105475  0.025058 -0.065870 0.000366
9  9.514219 -0.009356 -0.000000  0.015607 0.003588 -0.118481
10  11.752196 -0.001494 -0.000000  0.000012 0.020996 0.440031
11  -2.057105 0.863598 2.610667  0.996382 -1.400259 1.708301
12  4.640939 -0.000000 0.000006  -0.259444 1.128337 -0.564230
13  10.828041 -0.000001 0.000001  -0.010232 -0.002807 -0.645707
14  9.393341 0.000000 -0.000003  -1.569611 0.034195 0.000037
15  1.442240 0.107450 -1.746180  1.686435 0.539209 0.325885
16  1.063449 -0.000002 0.000000  -0.000000 -0.000000 0.199056
17  1.376308 -0.000006 0.000000  0.000000 0.000000 0.199049
18  4.172844 -0.251364 -1.312741  0.008050 0.095731 0.148659
19  1.215374 0.000001 -0.000005  0.000000 -0.000000 0.645758
20  1.215370 0.000000 -0.000001  0.000000 -0.000000 0.645758
21  4.220531 -0.244858 -0.431460  0.001333 0.026242 0.148339
22  1.350415 0.000000 -0.000001  -0.000000 0.000000 0.863926
23  1.350412 0.000002 0.000002  -0.000000 -0.000000 0.863926
24  -1.947729 0.863613 -2.688789  -0.999656 1.412827 1.709298
25  4.640938 -0.000001 -0.000000  0.843344 -1.150338 -0.869073
26  10.828047 0.000007 0.000007  0.334086 -0.577359 -0.620648
27  9.393338 -0.000005 -0.000001  0.743796 -0.365046 0.157755
28  1.442242 0.107455 1.746175  -1.686405 -0.539236 0.325898
29  1.063451 -0.000001 -0.000001  0.000000 -0.000000 0.199056
30  1.376308 -0.000007 0.000000  0.000000 0.000000 0.199059
31  4.172843 -0.251364 1.312744  -0.008050 -0.095731 0.148659
32  1.215373 0.000001 -0.000003  -0.000000 -0.000000 0.645746
33  1.215374 0.000001 0.000001  0.000000 0.000000 0.645746
34  4.220531 -0.244851 0.431470  -0.001333 -0.026242 0.148339
35  1.350417 -0.000003 -0.000003  0.000000 -0.000000 0.863937
36  1.350409 0.000000 0.000002  0.000000 0.000000 0.863925
37  4.262826 -0.232717 -1.392187  0.016840 0.076668 0.253759
38  2.110536 0.000001 -0.000000  0.133681 -0.023092 -0.133329
39  0.891928 2.373048 -0.014527  -3.141592 -0.000001 1.413797
40  7.228124 5.709445 3.726567  3.140796 -1.570796 0.000000
41  2.450429 5.076128 0.001325  3.140791 -1.570796 0.000000
42  6.312410 -4.528059 0.001311  3.140791 -1.570796 0.000000
43  2.233302 1.152535 -7.309138  -2.023903 -1.570330 0.000040
44  -5.952957 -2.602895 0.029162  0.000000 -0.000000 0.000000
time 27
0  0.840833 6.471253 38.494892  0.000000 -0.000000 -1.701715
1  0.226897 -0.152348 0.000011  -0.000030 -1.530182 -1.570772
2  -0.000004 0.000008 4.427392  -0.161360 3.107383 0.064097
3  18.465935 -0.000001 -0.000000  0.000000 -0.000000 -0.302071
4  14.875443 -0.000001 0.000001  0.011428 -0.010381 0.347003
5  0.000002 -0.000003 -4.427393  0.099115 3.080415 -0.371783
6  18.465939 0.000000 0.000000  0.000000 0.000000 -0.447697
7  14.875442 0.000000 -0.000000  -0.001187 -0.019609 0.076279
8  2.255210 -0.007574 0.089849  0.042526 -0.058074 0.000068
9  9.514215 -0.009356 -0.000000  0.009304 0.003226 -0.113481
10  11.752194 -0.001495 0.000000  0.000012 0.026809 0.440031
11  -2.068822 0.863595 2.598949  0.923782 -1.401014 1.780581
12  4.640939 0.000000 -0.000001  -0.282778 1.134392 -0.589676
13  10.828040 -0.000001 0.000001  -0.010232 -0.002807 -0.645707
14  9.393342 -0.000004 0.000000  -1.569611 0.034195 0.000037
15  1.442242 0.107452 -1.746185  1.686435 0.539209 0.325885
16  1.063448 0.000001 0.000003  -0.000000 -0.000000 0.199056
17  1.376308 -0.000004 0.000002  -0.000000 -0.000000 0.199049
18  4.172843 -0.251365 -1.312747  0.008050 0.095731 0.148659
19  1.215371 0.000001 -0.000007  0.000000 -0.000000 0.645758
20  1.215371 -0.000000 0.000001  -0.000000 -0.000000 0.645758
21  4.220534 -0.244853 -0.431462  0.001333 0.026242 0.148339
22  1.350414 0.000000 0.000000  -0.000000 -0.000000 0.863926
23  1.350409 0.000001 -0.000003  -0.000000 0.000000 0.863926
24  -1.932107 0.863612 -2.700507  -0.997804 1.423540 1.710837
25  4.640937 -0.000002 -0.000012  0.843344 -1.150338 -0.869073
26  10.828044 0.000003 0.000004  0.334086 -0.577359 -0.620648
27  9.393334 0.000001 0.000000  0.743796 -0.365046 0.157755
28  1.442243 0.107456 1.746183  -1.686405 -0.539236 0.325898
29  1.063451 0.000001 -0.000002  0.000000 0.000000 0.199056
30  1.376309 -0.000011 -0.000002  0.000000 0.000000 0.199059
31  4.172846 -0.251362 1.312750  -0.008050 -0.095731 0.148659
32  1.215375 0.000001 -0.000003  0.000000 -0.000000 0.645746
33  1.215375 0.000001 0.000012  0.000000 0.000000 0.645746
34  4.220536 -0.244850 0.431469  -0.001333 -0.026242 0.148339
35  1.350414 -0.000003 0.000000  0.000000 -0.000000 0.863937
36  1.350414 -0.000002 -0.000005  0.000000 -0.000000 0.863925
37  4.262829 -0.232716 -1.392184  0.016840 0.076668 0.253759
38  2.110538 0.000001 -0.000000  0.106894 -0.021378 -0.137379
39  0.891924 2.373051 -0.014527  -3.141592 -0.000001 1.413797
40  7.228120 5.709445 3.726568  3.140796 -1.570796 0.000000
41  2.450426 5.076127 0.001325  3.140791 -1.570796 0.000000
42  6.312403 -4.528058 0.001311  3.140791 -1.570796 0.000000
43  2.233294 1.152535 -7.309138  -2.022003 -1.570330 0.000020
44  -5.952957 -2.602895 0.029162  0.000000 -0.000000 0.000000
time 28
0  1.145530 6.577957 38.447620  0.000000 -0.000000 -1.701715
1  0.203458 -0.144536 0.000008  -0.000030 -1.543720 -1.570772
2  -0.000000 0.000008 4.427392  -0.164234 3.114863 0.040363
3  18.465942 -0.000001 -0.000000  -0.000000 -0.000000 -0.346082
4  14.875444 0.000001 -0.000000  0.013170 -0.000654 0.368493
5  0.000006 -0.000003 -4.427393  0.102374 3.084911 -0.369537
6  18.465942 -0.000001 0.000000  -0.000000 0.000000 -0.431550
7  14.875443 -0.000000 -0.000000  -0.002626 -0.011212 0.061347
8  2.255208 -0.007574 0.058599  0.069065 -0.044542 -0.000395
9  9.514215 -0.009356 0.000000  0.003264 0.002890 -0.107614
10  11.752189 -0.001494 0.000000  0.000024 0.032573 0.440031
11  -2.084452 0.863600 2.583324  0.845751 -1.400083 1.858319
12  4.640940 0.000001 -0.000003  -0.301581 1.139001 -0.610191
13  10.828044 0.000001 0.000000  -0.010232 -0.002807 -0.645707
14  9.393339 -0.000000 -0.000003  -1.569611 0.034195 0.000037
15  1.442240 0.107448 -1.746181  1.686435 0.539209 0.325885
16  1.063447 -0.000001 -0.000000  -0.000000 -0.000000 0.199056
17  1.376310 -0.000005 0.000003  -0.000000 -0.000000 0.199049
18  4.172843 -0.251366 -1.312737  0.008050 0.095731 0.148659
19  1.215372 0.000001 -0.000008  0.000000 -0.000000 0.645758
20  1.215367 0.000002 -0.000002  -0.000000 -0.000000 0.645758
21  4.220533 -0.244857 -0.431458  0.001333 0.026242 0.148339
22  1.350417 -0.000001 0.000000  -0.000000 -0.000000 0.863926
23  1.350407 -0.000000 -0.000003  0.000000 0.000000 0.863926
24  -1.916476 0.863612 -2.712227  -0.984012 1.436250 1.724084
25  4.640938 -0.000001 -0.000010  0.843344 -1.150338 -0.869073
26  10.828045 0.000003 0.000006  0.334086 -0.577359 -0.620648
27  9.393334 -0.000005 -0.000001  0.743796 -0.365046 0.157755
28  1.442242 0.107453 1.746183  -1.686405 -0.539236 0.325898
29  1.063451 0.000004 -0.000000  0.000000 -0.000000 0.199056
30  1.376309 -0.000004 -0.000001  0.000000 0.000000 0.199059
31  4.172845 -0.251364 1.312746  -0.008050 -0.095731 0.148659
32  1.215373 0.000002 -0.000002  0.000000 0.000000 0.645746
33  1.215375 0.000000 0.000005  0.000000 0.000000 0.645746
34  4.220533 -0.244854 0.431478  -0.001333 -0.026242 0.148339
35  1.350413 -0.000003 -0.000001  -0.000000 -0.000000 0.863937
36  1.350410 0.000001 -0.000006  0.000000 -0.000000 0.863925
37  4.262828 -0.232720 -1.392181  0.016840 0.076668 0.253759
38  2.110535 0.000000 -0.000000  0.071211 -0.017800 -0.142417
39  0.891923 2.373050 -0.014527  -3.141592 -0.000001 1.413797
40  7.228119 5.709446 3.726568  3.140796 -1.570796 0.000000
41  2.450428 5.076128 0.001325  3.140791 -1.570796 0.000000
42  6.312407 -4.528059 0.001311  3.140791 -1.570796 0.000000
43  2.233304 1.152535 -7.309139  -1.186732 -1.565874 -0.832939
44  -5.952957 -2.602895 0.029162  0.000000 -0.000000 0.000000
time 29
0  1.442414 6.684662 38.416107  0.000000 -0.000000 -1.701715
1  0.183927 -0.132817 0.000008  -0.000030 -1.558695 -1.570772
2  -0.000000 0.000007 4.427393  -0.166629 3.123763 0.018536
3  18.465939 -0.000002 -0.000000  -0.000000 -0.000000 -0.385706
4  14.875444 0.000002 0.000000  0.014770 0.008860 0.387692
5  0.000001 -0.000003 -4.427393  0.106304 3.091129 -0.365419
6  18.465939 0.000000 0.000000  0.000000 0.000000 -0.411859
7  14.875442 0.000000 0.000000  -0.003995 -0.003058 0.044651
8  2.255206 -0.007574 0.023441  0.097840 -0.029538 -0.000891
9  9.514219 -0.009357 0.000000  -0.002664 0.002607 -0.101552
10  11.752191 -0.001495 0.000000  0.000024 0.038218 0.440031
11  -2.100078 0.863601 2.571604  0.768673 -1.397942 1.935194
12  4.640939 0.000001 -0.000001  -0.314106 1.141942 -0.623859
13  10.828042 -0.000001 0.000001  -0.010232 -0.002807 -0.645707
14  9.393341 -0.000002 -0.000002  -1.569611 0.034195 0.000037
15  1.442241 0.107452 -1.746183  1.686435 0.539209 0.325885
16  1.063448 -0.000003 0.000000  -0.000000 -0.000000 0.199056
17  1.376310 -0.000006 0.000002  -0.000000 -0.000000 0.199049
18  4.172843 -0.251362 -1.312741  0.008050 0.095731 0.148659
19  1.215371 0.000002 -0.000006  -0.000000 -0.000000 0.645758
20  1.215368 0.000001 -0.000001  0.000000 -0.000000 0.645758
21  4.220532 -0.244854 -0.431461  0.001333 0.026242 0.148339
22  1.350417 0.000004 0.000003  -0.000000 0.000000 0.863926
23  1.350406 0.000001 -0.000007  -0.000000 -0.000000 0.863926
24  -1.900853 0.863614 -2.723945  -0.963091 1.449383 1.744424
25  4.640938 -0.000001 -0.000005  0.843344 -1.150338 -0.869073
26  10.828043 0.000003 0.000005  0.334086 -0.577359 -0.620648
27  9.393336 0.000005 -0.000003  0.743796 -0.365046 0.157755
28  1.442241 0.107453 1.746184  -1.686405 -0.539236 0.325898
29  1.063451 -0.000004 -0.000001  0.000000 0.000000 0.199056
30  1.376307 -0.000009 -0.000000  0.000000 0.000000 0.199059
31  4.172844 -0.251364 1.312747  -0.008050 -0.095731 0.148659
32  1.215376 0.000002 -0.000003  -0.000000 -0.000000 0.645746
33  1.215375 -0.000000 0.000006  0.000000 0.000000 0.645746
34  4.220533 -0.244853 0.431472  -0.001333 -0.026242 0.148339
35  1.350415 -0.000004 -0.000001  0.000000 -0.000000 0.863937
36  1.350411 -0.000000 -0.000000  0.000000 0.000000 0.863925
37  4.262828 -0.232719 -1.392185  0.016840 0.076668 0.253759
38  2.110531 0.000005 -0.000000  0.033934 -0.013740 -0.148114
39  0.891926 2.373052 -0.014527  -3.141592 -0.000001 1.413797
40  7.228119 5.709445 3.726568  3.140796 -1.570796 0.000000
41  2.450428 5.076127 0.001325  3.140791 -1.570796 0.000000
42  6.312409 -4.528059 0.001311  3.140791 -1.570796 0.000000
43  2.233303 1.152535 -7.309138  -1.166311 -1.559845 -0.851132
44  -5.952957 -2.602895 0.029162  0.000000 -0.000000 0.000000
time 30
0  1.727579 6.791367 38.400349  0.000000 -0.000000 -1.701715
1  0.164395 -0.125004 0.000008  -1.570795 -1.570451 -0.000000
2  -0.000004 0.000008 4.427392  -0.170749 3.130202 0.000903
3  18.465939 -0.000001 -0.000000  -0.000000 -0.000000 -0.416557
4  14.875444 0.000003 -0.000001  0.018467 0.017437 0.402071
5  -0.000000 -0.000003 -4.427393  0.106016 3.095625 -0.362237
6  18.465937 0.000002 0.000000  0.000000 0.000000 -0.394334
7  14.875444 -0.000000 -0.000000  -0.002065 0.005218 0.029344
8  2.255205 -0.007574 0.000003  0.122101 -0.017401 -0.001322
9  9.514215 -0.009356 -0.000000  -0.008779 0.002352 -0.095902
10  11.752189 -0.001495 0.000000  0.000024 0.043599 0.440031
11  -2.111788 0.863595 2.563792  0.697216 -1.395374 2.006326
12  4.640939 0.000001 0.000010  -0.318642 1.142982 -0.628809
13  10.828040 -0.000001 -0.000001  -0.010232 -0.002807 -0.645707
14  9.393340 -0.000003 0.000001  -1.569611 0.034195 0.000037
15  1.442241 0.107451 -1.746181  1.686435 0.539209 0.325885
16  1.063448 -0.000001 -0.000001  -0.000000 -0.000000 0.199056
17  1.376308 -0.000003 0.000001  -0.000000 -0.000000 0.199049
18  4.172847 -0.251362 -1.312741  0.008050 0.095731 0.148659
19  1.215374 0.000001 -0.000007  0.000000 -0.000000 0.645758
20  1.215368 -0.000000 -0.000005  -0.000000 -0.000000 0.645758
21  4.220537 -0.244855 -0.431459  0.001333 0.026242 0.148339
22  1.350415 -0.000000 0.000003  -0.000000 -0.000000 0.863926
23  1.350408 0.000002 -0.000004  -0.000000 0.000000 0.863926
24  -1.885223 0.863612 -2.731758  -0.942448 1.461427 1.764337
25  4.640938 -0.000002 -0.000011  0.843344 -1.150338 -0.869073
26  10.828047 0.000003 0.000005  0.334086 -0.577359 -0.620648
27  9.393339 -0.000006 0.000001  0.743796 -0.365046 0.157755
28  1.442244 0.107454 1.746179  -1.686405 -0.539236 0.325898
29  1.063451 -0.000001 -0.000000  0.000000 -0.000000 0.199056
30  1.376309 -0.000010 0.000000  -0.000000 -0.000000 0.199059
31  4.172846 -0.251363 1.312742  -0.008050 -0.095731 0.148659
32  1.215374 0.000001 -0.000005  0.000000 0.000000 0.645746
33  1.215375 -0.000001 0.000000  0.000000 -0.000000 0.645746
34  4.220533 -0.244852 0.431469  -0.001333 -0.026242 0.148339
35  1.350414 -0.000003 0.000001  0.000000 -0.000000 0.863937
36  1.350410 0.000000 0.000000  0.000000 -0.000000 0.863925
37  4.262827 -0.232718 -1.392184  0.016840 0.076668 0.253759
38  2.110540 0.000001 -0.000000  0.002417 -0.010493 -0.153718
39  0.891918 2.373053 -0.014527  -3.141592 -0.000001 1.413797
40  7.228116 5.709445 3.726567  3.140796 -1.570796 0.000000
41  2.450423 5.076127 0.001325  3.140791 -1.570796 0.000000
42  6.312402 -4.528059 0.001311  3.140791 -1.570796 0.000000
43  2.233301 1.152534 -7.309138  -1.160367 -1.554573 -0.854771
44  -5.952957 -2.602895 0.029162  0.000000 -0.000000 0.000000
end
