version 1
nodes
0 "Bip01" -1
1 "Bip01 Pelvis" 0
2 "Bip01 L Thigh" 1
3 "Bip01 L Calf" 2
4 "Bip01 L Foot" 3
5 "Bip01 R Thigh" 1
6 "Bip01 R Calf" 5
7 "Bip01 R Foot" 6
8 "Bip01 Spine" 1
9 "Bip01 Spine1" 8
10 "Bip01 Neck" 9
11 "Bip01 L Clavicle" 10
12 "Bip01 L UpperArm" 11
13 "Bip01 L Forearm" 12
14 "Bip01 L Hand" 13
15 "Bip01 L Finger0" 14
16 "Bip01 L Finger01" 15
17 "Bip01 L Finger02" 16
18 "Bip01 L Finger1" 14
19 "Bip01 L Finger11" 18
20 "Bip01 L Finger12" 19
21 "Bip01 L Finger2" 14
22 "Bip01 L Finger21" 21
23 "Bip01 L Finger22" 22
24 "Bip01 R Clavicle" 10
25 "Bip01 R UpperArm" 24
26 "Bip01 R Forearm" 25
27 "Bip01 R Hand" 26
28 "Bip01 R Finger0" 27
29 "Bip01 R Finger01" 28
30 "Bip01 R Finger02" 29
31 "Bip01 R Finger1" 27
32 "Bip01 R Finger11" 31
33 "Bip01 R Finger12" 32
34 "Bip01 R Finger2" 27
35 "Bip01 R Finger21" 34
36 "Bip01 R Finger22" 35
37 "Bip01 R Finger4" 27
38 "Bip01 Head" 10
39 "Bone05" 38
40 "Bone08" 9
41 "Bone16" 8
42 "Bone01" 8
43 "Bone03" 1
44 "Line02" -1
end
skeleton
time 0
0  1.727579 0.771445 38.778515  0.000000 -0.000000 -1.701715
1  -0.011393 -0.148442 0.000000  -1.570797 -1.570451 0.000002
2  0.000001 0.000007 4.427393  -0.172665 -3.054509 -0.042942
3  18.465946 -0.000000 0.000000  -0.000000 0.000000 -0.327293
4  14.875443 -0.000002 -0.000000  -0.087336 -0.071892 0.252590
5  0.000013 -0.000004 -4.427392  0.120296 2.981404 -0.049658
6  18.465939 -0.000000 -0.000000  -0.000000 0.000000 -0.240613
7  14.875443 0.000000 -0.000000  -0.016208 0.152787 0.171311
8  2.255210 -0.007574 0.000003  0.122101 -0.017401 -0.001322
9  9.514221 -0.009357 0.000000  -0.008667 0.002742 -0.052281
10  11.752191 -0.001494 0.000000  0.000024 0.043599 0.440031
11  -2.111795 0.863597 2.563793  0.666442 -1.215199 2.056492
12  4.640934 0.000002 0.000000  0.756703 0.948820 0.713174
13  10.828040 0.000001 -0.000001  0.696113 -0.183452 -1.546379
14  9.393343 -0.000001 -0.000017  1.721478 -0.523262 -0.220616
15  1.442241 0.107452 -1.746180  1.710740 0.781590 0.365230
16  1.063451 0.000001 -0.000002  0.000000 0.000000 0.199056
17  1.376303 0.000008 -0.000005  0.000000 0.000000 0.600473
18  4.172842 -0.251363 -1.312749  -0.005361 -0.000073 0.008928
19  1.215374 0.000003 0.000001  0.000000 -0.000000 0.506106
20  1.215377 0.000002 0.000003  0.000000 -0.000000 0.506106
21  4.220532 -0.244851 -0.431465  -0.004372 0.025906 -0.069865
22  1.350420 0.000000 -0.000001  -0.000000 0.000000 0.532308
23  1.350410 0.000003 0.000001  0.000000 -0.000000 0.532308
24  -1.885222 0.863608 -2.731758  -1.068895 1.168982 1.681693
25  4.640942 -0.000001 0.000003  0.107321 -0.111609 -0.152627
26  10.828045 -0.000002 0.000003  1.714929 -0.636827 -1.907372
27  9.393339 -0.000003 -0.000001  0.743796 -0.365046 0.157755
28  1.442246 0.107455 1.746181  -2.047067 -0.542719 0.863657
29  1.063452 -0.000009 -0.000005  0.000000 -0.000000 -0.054011
30  1.376306 0.000003 0.000000  0.000000 -0.000000 0.600477
31  4.172849 -0.251363 1.312743  -0.014726 -0.094940 0.218785
32  1.215374 0.000004 0.000004  -0.000000 -0.000000 0.715581
33  1.215369 -0.000001 0.000008  -0.000000 0.000000 0.715581
34  4.220536 -0.244850 0.431465  -0.001333 -0.026242 0.148339
35  1.350411 -0.000001 -0.000002  -0.000000 -0.000000 0.863937
36  1.350410 -0.000002 0.000003  0.000000 0.000000 0.863925
37  4.262828 -0.232718 -1.392177  0.016840 0.076668 0.253759
38  2.110545 -0.000001 0.000000  0.004319 -0.010162 -0.197320
39  0.891920 2.373049 -0.014527  -3.141592 -0.000001 1.413797
40  7.228128 5.709445 3.726568  3.140796 -1.570796 0.000000
41  2.450414 5.076126 0.001325  3.140791 -1.570796 0.000000
42  6.312402 -4.528057 0.001311  3.140791 -1.570796 0.000000
43  2.233310 1.152535 -7.309138  -1.319706 -1.649317 -0.434374
44  -5.952957 -2.602895 0.029162  0.000000 -0.000000 0.000000
time 1
0  1.727579 0.771445 38.778515  0.000000 -0.000000 -1.701715
1  0.039390 -0.140629 0.000000  -1.570797 -1.570451 0.000002
2  -0.000000 0.000007 4.427393  -0.172857 -3.054888 -0.040368
3  18.465933 0.000000 0.000000  -0.000000 -0.000000 -0.325100
4  14.875445 -0.000003 0.000001  -0.087336 -0.071977 0.252985
5  0.000011 -0.000004 -4.427392  0.120680 2.981404 -0.046944
6  18.465940 0.000000 0.000001  -0.000000 0.000000 -0.238119
7  14.875440 -0.000000 -0.000001  -0.016173 0.153181 0.171461
8  2.255208 -0.007574 0.000003  0.122101 -0.016792 -0.006219
9  9.514221 -0.009357 0.000000  -0.008667 0.002715 -0.052281
10  11.752184 -0.001494 0.000000  0.000024 0.043599 0.440031
11  -2.111792 0.863596 2.563792  0.666442 -1.215199 2.056492
12  4.640936 0.000003 0.000001  0.756703 0.948820 0.713174
13  10.828044 0.000000 -0.000001  0.696113 -0.183452 -1.546379
14  9.393340 -0.000001 -0.000015  1.721478 -0.523262 -0.220616
15  1.442241 0.107446 -1.746179  1.710740 0.781590 0.365230
16  1.063449 0.000002 -0.000006  -0.000000 -0.000000 0.199056
17  1.376305 0.000001 0.000000  0.000000 0.000000 0.600473
18  4.172843 -0.251367 -1.312746  -0.005361 -0.000073 0.008928
19  1.215373 0.000005 0.000001  -0.000000 -0.000000 0.506106
20  1.215375 -0.000004 0.000003  0.000000 -0.000000 0.506106
21  4.220530 -0.244859 -0.431466  -0.004372 0.025906 -0.069865
22  1.350422 0.000003 -0.000001  -0.000000 -0.000000 0.532308
23  1.350409 0.000001 0.000001  0.000000 -0.000000 0.532308
24  -1.885223 0.863611 -2.731758  -1.068895 1.168982 1.681693
25  4.640940 -0.000002 0.000003  0.107321 -0.111609 -0.152627
26  10.828046 -0.000003 0.000008  1.714929 -0.636827 -1.907372
27  9.393337 0.000003 -0.000002  0.743796 -0.365046 0.157755
28  1.442242 0.107451 1.746188  -2.047067 -0.542719 0.863657
29  1.063451 -0.000002 -0.000003  0.000000 -0.000000 -0.054011
30  1.376306 0.000005 -0.000003  0.000000 -0.000000 0.600477
31  4.172845 -0.251366 1.312751  -0.014726 -0.094940 0.218785
32  1.215372 -0.000001 -0.000001  0.000000 -0.000000 0.715581
33  1.215373 -0.000002 0.000001  -0.000000 0.000000 0.715581
34  4.220531 -0.244854 0.431471  -0.001333 -0.026242 0.148339
35  1.350415 -0.000000 -0.000015  0.000000 0.000000 0.863937
36  1.350410 -0.000001 -0.000003  -0.000000 0.000000 0.863925
37  4.262824 -0.232721 -1.392173  0.016840 0.076668 0.253759
38  2.110538 0.000001 -0.000001  0.004216 -0.010252 -0.194871
39  0.891927 2.373049 -0.014527  -3.141592 -0.000001 1.413797
40  7.228116 5.709445 3.726568  3.140796 -1.570796 0.000000
41  2.450421 5.076128 0.001325  3.140791 -1.570796 0.000000
42  6.312405 -4.528058 0.001311  -3.137495 -1.570796 0.000000
43  2.233308 1.152535 -7.309138  -1.318172 -1.649346 -0.434661
44  -5.952957 -2.602895 0.029162  0.000000 -0.000000 0.000000
time 2
0  1.727579 0.771445 38.778515  0.000000 -0.000000 -1.701715
1  0.097986 -0.132817 0.000000  -1.570797 -1.570451 0.000002
2  0.000001 0.000007 4.427392  -0.173049 -3.055267 -0.037604
3  18.465948 -0.000000 0.000001  -0.000000 -0.000000 -0.322760
4  14.875445 -0.000002 0.000000  -0.087371 -0.072084 0.253459
5  0.000012 -0.000004 -4.427392  0.121063 2.981309 -0.043949
6  18.465942 -0.000000 -0.000001  -0.000000 -0.000000 -0.235362
7  14.875445 0.000001 0.000001  -0.016173 0.153605 0.171649
8  2.255209 -0.007574 0.000003  0.122101 -0.016144 -0.011612
9  9.514223 -0.009357 0.000000  -0.008667 0.002701 -0.052281
10  11.752190 -0.001494 0.000000  0.000024 0.043599 0.440031
11  -2.111789 0.863597 2.563792  0.666442 -1.215199 2.056492
12  4.640935 0.000002 -0.000002  0.756703 0.948820 0.713174
13  10.828035 0.000002 -0.000000  0.696113 -0.183452 -1.546379
14  9.393341 -0.000001 -0.000010  1.721478 -0.523262 -0.220616
15  1.442244 0.107454 -1.746181  1.710740 0.781590 0.365230
16  1.063450 -0.000003 0.000002  -0.000000 -0.000000 0.199056
17  1.376303 0.000004 0.000000  -0.000000 0.000000 0.600473
18  4.172844 -0.251362 -1.312747  -0.005361 -0.000073 0.008928
19  1.215374 0.000001 -0.000000  0.000000 -0.000000 0.506106
20  1.215376 -0.000006 0.000004  -0.000000 -0.000000 0.506106
21  4.220533 -0.244852 -0.431466  -0.004372 0.025906 -0.069865
22  1.350423 0.000002 -0.000000  -0.000000 0.000000 0.532308
23  1.350409 0.000002 0.000001  0.000000 0.000000 0.532308
24  -1.885215 0.863609 -2.731758  -1.068895 1.168982 1.681693
25  4.640942 -0.000002 0.000005  0.107321 -0.111609 -0.152627
26  10.828043 -0.000003 0.000007  1.714929 -0.636827 -1.907372
27  9.393336 -0.000001 -0.000000  0.743796 -0.365046 0.157755
28  1.442243 0.107452 1.746181  -2.047067 -0.542719 0.863657
29  1.063452 -0.000003 -0.000002  -0.000000 0.000000 -0.054011
30  1.376307 0.000001 0.000004  0.000000 -0.000000 0.600477
31  4.172848 -0.251367 1.312746  -0.014726 -0.094940 0.218785
32  1.215377 0.000004 -0.000001  -0.000000 -0.000000 0.715581
33  1.215372 -0.000001 0.000005  -0.000000 -0.000000 0.715581
34  4.220534 -0.244855 0.431464  -0.001333 -0.026242 0.148339
35  1.350415 -0.000003 -0.000004  0.000000 0.000000 0.863937
36  1.350408 -0.000003 -0.000001  -0.000000 -0.000000 0.863925
37  4.262824 -0.232722 -1.392174  0.016840 0.076668 0.253759
38  2.110547 0.000001 0.000000  0.004062 -0.010312 -0.192140
39  0.891918 2.373051 -0.014527  -3.141592 -0.000001 1.413797
40  7.228121 5.709444 3.726567  3.140796 -1.570796 0.000000
41  2.450419 5.076127 0.001325  3.140791 -1.570796 0.000000
42  6.312403 -4.528058 0.001311  -3.132035 -1.570796 0.000000
43  2.233309 1.152535 -7.309138  -1.316542 -1.649404 -0.434949
44  -5.952957 -2.602895 0.029162  0.000000 -0.000000 0.000000
time 3
0  1.727579 0.771445 38.778515  0.000000 -0.000000 -1.701715
1  0.160488 -0.125004 0.000000  -1.570797 -1.570451 0.000002
2  -0.000000 0.000007 4.427393  -0.173336 -3.055646 -0.034554
3  18.465944 -0.000000 0.000000  -0.000000 0.000000 -0.320202
4  14.875443 -0.000001 -0.000001  -0.087371 -0.072190 0.253933
5  0.000011 -0.000004 -4.427393  0.121542 2.981213 -0.040767
6  18.465940 -0.000000 0.000001  -0.000000 0.000000 -0.232474
7  14.875441 0.000000 -0.000000  -0.016138 0.154060 0.171874
8  2.255208 -0.007574 0.000003  0.122059 -0.015437 -0.017369
9  9.514223 -0.009357 0.000000  -0.008667 0.002688 -0.052281
10  11.752192 -0.001494 0.000000  0.000024 0.043599 0.440031
11  -2.111798 0.863596 2.563792  0.666442 -1.215199 2.056492
12  4.640934 0.000002 0.000001  0.756703 0.948820 0.713174
13  10.828032 -0.000001 0.000001  0.696113 -0.183452 -1.546379
14  9.393341 -0.000003 -0.000013  1.721478 -0.523262 -0.220616
15  1.442241 0.107449 -1.746181  1.710740 0.781590 0.365230
16  1.063451 -0.000004 0.000001  -0.000000 -0.000000 0.199056
17  1.376305 0.000008 0.000002  0.000000 0.000000 0.600473
18  4.172843 -0.251368 -1.312747  -0.005361 -0.000073 0.008928
19  1.215373 0.000003 -0.000001  0.000000 -0.000000 0.506106
20  1.215374 -0.000004 0.000002  0.000000 0.000000 0.506106
21  4.220530 -0.244857 -0.431467  -0.004372 0.025906 -0.069865
22  1.350419 0.000005 -0.000003  0.000000 0.000000 0.532308
23  1.350410 0.000004 -0.000001  0.000000 -0.000000 0.532308
24  -1.885222 0.863607 -2.731758  -1.068895 1.168982 1.681693
25  4.640943 -0.000002 0.000010  0.107321 -0.111609 -0.152627
26  10.828049 -0.000000 0.000003  1.714929 -0.636827 -1.907372
27  9.393339 0.000002 -0.000002  0.743796 -0.365046 0.157755
28  1.442245 0.107452 1.746176  -2.047067 -0.542719 0.863657
29  1.063452 -0.000010 0.000001  0.000000 0.000000 -0.054011
30  1.376305 0.000006 0.000000  -0.000000 -0.000000 0.600477
31  4.172848 -0.251367 1.312739  -0.014726 -0.094940 0.218785
32  1.215375 0.000002 0.000003  0.000000 -0.000000 0.715581
33  1.215369 -0.000002 0.000014  -0.000000 0.000000 0.715581
34  4.220533 -0.244854 0.431463  -0.001333 -0.026242 0.148339
35  1.350417 -0.000003 -0.000010  -0.000000 -0.000000 0.863937
36  1.350407 -0.000001 0.000002  0.000000 0.000000 0.863925
37  4.262825 -0.232721 -1.392180  0.016840 0.076668 0.253759
38  2.110543 -0.000002 0.000000  0.003908 -0.010403 -0.189221
39  0.891918 2.373051 -0.014527  -3.141592 -0.000001 1.413797
40  7.228127 5.709446 3.726568  3.140796 -1.570796 0.000000
41  2.450414 5.076127 0.001325  3.140791 -1.570796 0.000000
42  6.312401 -4.528058 0.001311  -3.126218 -1.570796 0.000000
43  2.233308 1.152535 -7.309139  -1.314720 -1.649433 -0.435236
44  -5.952957 -2.602895 0.029162  0.000000 -0.000000 0.000000
time 4
0  1.727579 0.771445 38.778515  0.000000 -0.000000 -1.701715
1  0.222989 -0.117191 0.000000  -1.570797 -1.570451 0.000002
2  -0.000002 0.000007 4.427393  -0.173623 -3.056119 -0.031409
3  18.465940 -0.000000 0.000001  0.000000 -0.000000 -0.317570
4  14.875443 -0.000002 0.000001  -0.087371 -0.072297 0.254407
5  0.000010 -0.000004 -4.427392  0.122022 2.981117 -0.037491
6  18.465939 -0.000000 -0.000000  -0.000000 -0.000000 -0.229390
7  14.875443 -0.000000 -0.000001  -0.016103 0.154545 0.172061
8  2.255207 -0.007574 0.000003  0.122059 -0.014691 -0.023391
9  9.514225 -0.009357 0.000000  -0.008667 0.002661 -0.052281
10  11.752192 -0.001494 0.000000  0.000024 0.043599 0.440031
11  -2.111791 0.863598 2.563791  0.666442 -1.215199 2.056492
12  4.640934 0.000002 -0.000004  0.756703 0.948820 0.713174
13  10.828039 0.000002 0.000003  0.696113 -0.183452 -1.546379
14  9.393344 -0.000001 -0.000014  1.721478 -0.523262 -0.220616
15  1.442242 0.107451 -1.746180  1.710740 0.781590 0.365230
16  1.063451 0.000000 0.000002  0.000000 -0.000000 0.199056
17  1.376302 0.000006 -0.000001  0.000000 0.000000 0.600473
18  4.172843 -0.251362 -1.312747  -0.005361 -0.000073 0.008928
19  1.215373 0.000002 -0.000000  0.000000 -0.000000 0.506106
20  1.215374 0.000002 0.000004  -0.000000 -0.000000 0.506106
21  4.220531 -0.244853 -0.431466  -0.004372 0.025906 -0.069865
22  1.350419 0.000000 -0.000001  -0.000000 0.000000 0.532308
23  1.350412 0.000002 0.000001  0.000000 0.000000 0.532308
24  -1.885215 0.863607 -2.731758  -1.068895 1.168982 1.681693
25  4.640941 -0.000002 0.000005  0.107321 -0.111609 -0.152627
26  10.828041 -0.000003 0.000010  1.714929 -0.636827 -1.907372
27  9.393341 -0.000002 -0.000001  0.743796 -0.365046 0.157755
28  1.442244 0.107452 1.746177  -2.047067 -0.542719 0.863657
29  1.063452 -0.000008 -0.000000  0.000000 0.000000 -0.054011
30  1.376304 0.000003 -0.000001  0.000000 -0.000000 0.600477
31  4.172848 -0.251365 1.312741  -0.014726 -0.094940 0.218785
32  1.215374 0.000003 0.000002  -0.000000 0.000000 0.715581
33  1.215374 -0.000001 0.000001  -0.000000 0.000000 0.715581
34  4.220533 -0.244854 0.431465  -0.001333 -0.026242 0.148339
35  1.350416 -0.000001 -0.000004  -0.000000 0.000000 0.863937
36  1.350407 -0.000001 -0.000001  -0.000000 0.000000 0.863925
37  4.262825 -0.232722 -1.392177  0.016840 0.076668 0.253759
38  2.110548 -0.000001 -0.000000  0.003753 -0.010493 -0.186207
39  0.891929 2.373048 -0.014527  -3.141592 -0.000001 1.413797
40  7.228123 5.709446 3.726568  3.140796 -1.570796 0.000000
41  2.450421 5.076128 0.001325  3.140791 -1.570796 0.000000
42  6.312408 -4.528058 0.001311  -3.120145 -1.570796 0.000000
43  2.233307 1.152535 -7.309138  -1.312899 -1.649462 -0.435619
44  -5.952957 -2.602895 0.029162  0.000000 -0.000000 0.000000
time 5
0  1.727579 0.771445 38.778515  0.000000 -0.000000 -1.701715
1  0.289398 -0.109378 0.000000  -1.570797 -1.570451 0.000002
2  -0.000002 0.000007 4.427393  -0.173815 -3.056498 -0.028263
3  18.465940 -0.000000 0.000001  -0.000000 0.000000 -0.314865
4  14.875443 -0.000002 -0.000000  -0.087371 -0.072403 0.254920
5  0.000010 -0.000003 -4.427392  0.122501 2.981022 -0.034029
6  18.465940 -0.000000 -0.000001  0.000000 -0.000000 -0.226305
7  14.875443 -0.000000 -0.000000  -0.016103 0.155030 0.172286
8  2.255207 -0.007574 0.000003  0.122017 -0.013945 -0.029545
9  9.514224 -0.009357 0.000000  -0.008667 0.002648 -0.052281
10  11.752187 -0.001494 0.000000  0.000024 0.043599 0.440031
11  -2.111796 0.863600 2.563792  0.666442 -1.215199 2.056492
12  4.640938 0.000002 0.000004  0.756703 0.948820 0.713174
13  10.828036 0.000001 0.000000  0.696113 -0.183452 -1.546379
14  9.393345 0.000001 -0.000013  1.721478 -0.523262 -0.220616
15  1.442240 0.107453 -1.746183  1.710740 0.781590 0.365230
16  1.063450 -0.000002 0.000003  -0.000000 0.000000 0.199056
17  1.376303 0.000006 -0.000005  0.000000 0.000000 0.600473
18  4.172841 -0.251366 -1.312749  -0.005361 -0.000073 0.008928
19  1.215372 0.000004 0.000001  0.000000 -0.000000 0.506106
20  1.215374 0.000000 0.000003  0.000000 0.000000 0.506106
21  4.220530 -0.244854 -0.431467  -0.004372 0.025906 -0.069865
22  1.350421 0.000001 -0.000002  -0.000000 0.000000 0.532308
23  1.350412 0.000006 -0.000000  0.000000 -0.000000 0.532308
24  -1.885222 0.863611 -2.731758  -1.068895 1.168982 1.681693
25  4.640944 -0.000002 -0.000003  0.107321 -0.111609 -0.152627
26  10.828046 -0.000002 0.000008  1.714929 -0.636827 -1.907372
27  9.393340 0.000002 -0.000003  0.743796 -0.365046 0.157755
28  1.442244 0.107456 1.746174  -2.047067 -0.542719 0.863657
29  1.063450 -0.000005 0.000003  -0.000000 -0.000000 -0.054011
30  1.376306 0.000001 0.000003  0.000000 -0.000000 0.600477
31  4.172848 -0.251363 1.312739  -0.014726 -0.094940 0.218785
32  1.215374 0.000001 0.000002  -0.000000 -0.000000 0.715581
33  1.215376 -0.000000 0.000006  -0.000000 0.000000 0.715581
34  4.220532 -0.244850 0.431458  -0.001333 -0.026242 0.148339
35  1.350413 -0.000003 -0.000003  -0.000000 -0.000000 0.863937
36  1.350408 -0.000002 -0.000000  -0.000000 -0.000000 0.863925
37  4.262825 -0.232717 -1.392184  0.016840 0.076668 0.253759
38  2.110537 0.000002 -0.000000  0.003599 -0.010583 -0.183147
39  0.891915 2.373051 -0.014527  -3.141592 -0.000001 1.413797
40  7.228120 5.709445 3.726567  3.140796 -1.570796 0.000000
41  2.450422 5.076127 0.001325  3.140791 -1.570796 0.000000
42  6.312409 -4.528058 0.001311  -3.113971 -1.570796 0.000000
43  2.233307 1.152535 -7.309138  -1.310981 -1.649491 -0.435906
44  -5.952957 -2.602895 0.029162  0.000000 -0.000000 0.000000
time 6
0  1.727579 0.771445 38.778515  0.000000 -0.000000 -1.701715
1  0.355807 -0.101566 0.000004  -1.570797 -1.570451 0.000002
2  -0.000002 0.000007 4.427392  -0.174103 -3.056971 -0.025118
3  18.465944 -0.000000 0.000000  0.000000 0.000000 -0.312160
4  14.875441 -0.000002 0.000000  -0.087407 -0.072509 0.255434
5  0.000010 -0.000004 -4.427392  0.122980 2.981022 -0.030660
6  18.465940 -0.000000 -0.000000  -0.000000 -0.000000 -0.223154
7  14.875443 0.000000 0.000000  -0.016068 0.155545 0.172511
8  2.255207 -0.007574 0.000003  0.122017 -0.013179 -0.035667
9  9.514222 -0.009357 0.000000  -0.008667 0.002621 -0.052281
10  11.752188 -0.001494 0.000000  0.000024 0.043599 0.440031
11  -2.111790 0.863597 2.563792  0.666442 -1.215199 2.056492
12  4.640937 0.000003 -0.000003  0.756704 0.948820 0.713174
13  10.828033 0.000003 -0.000001  0.696113 -0.183452 -1.546379
14  9.393342 -0.000003 -0.000008  1.721478 -0.523262 -0.220616
15  1.442241 0.107450 -1.746179  1.710740 0.781590 0.365230
16  1.063452 -0.000002 -0.000003  0.000000 -0.000000 0.199056
17  1.376303 0.000009 -0.000000  -0.000000 0.000000 0.600473
18  4.172841 -0.251361 -1.312745  -0.005361 -0.000073 0.008928
19  1.215372 0.000001 -0.000001  0.000000 -0.000000 0.506106
20  1.215375 -0.000002 0.000007  0.000000 -0.000000 0.506106
21  4.220529 -0.244850 -0.431463  -0.004372 0.025906 -0.069865
22  1.350420 0.000003 -0.000001  -0.000000 -0.000000 0.532308
23  1.350410 0.000007 0.000001  0.000000 0.000000 0.532308
24  -1.885216 0.863608 -2.731758  -1.068895 1.168982 1.681693
25  4.640941 -0.000002 0.000001  0.107321 -0.111609 -0.152627
26  10.828047 -0.000001 0.000007  1.714929 -0.636827 -1.907372
27  9.393339 0.000002 -0.000003  0.743796 -0.365046 0.157755
28  1.442242 0.107455 1.746175  -2.047067 -0.542719 0.863657
29  1.063451 -0.000004 0.000001  -0.000000 -0.000000 -0.054011
30  1.376307 -0.000006 -0.000003  0.000000 0.000000 0.600477
31  4.172846 -0.251364 1.312740  -0.014726 -0.094940 0.218785
32  1.215372 -0.000001 0.000000  -0.000000 -0.000000 0.715581
33  1.215374 0.000000 0.000003  -0.000000 -0.000000 0.715581
34  4.220533 -0.244851 0.431459  -0.001333 -0.026242 0.148339
35  1.350419 0.000000 -0.000007  0.000000 0.000000 0.863937
36  1.350412 -0.000003 -0.000004  -0.000000 -0.000000 0.863925
37  4.262824 -0.232720 -1.392179  0.016840 0.076668 0.253759
38  2.110542 0.000000 -0.000000  0.003496 -0.010673 -0.180039
39  0.891921 2.373050 -0.014527  -3.141592 -0.000001 1.413797
40  7.228120 5.709445 3.726567  3.140796 -1.570796 0.000000
41  2.450416 5.076127 0.001325  3.140791 -1.570796 0.000000
42  6.312403 -4.528058 0.001311  -3.107796 -1.570796 0.000000
43  2.233307 1.152535 -7.309139  -1.309160 -1.649550 -0.436289
44  -5.952957 -2.602895 0.029162  0.000000 -0.000000 0.000000
time 7
0  1.727579 0.771445 38.778515  0.000000 -0.000000 -1.701715
1  0.422214 -0.093753 0.000004  -1.570797 -1.570451 0.000002
2  -0.000002 0.000007 4.427393  -0.174390 -3.057445 -0.021973
3  18.465939 -0.000000 0.000000  -0.000000 -0.000000 -0.309528
4  14.875445 -0.000002 -0.000001  -0.087407 -0.072637 0.255948
5  0.000010 -0.000004 -4.427392  0.123459 2.980926 -0.027290
6  18.465944 -0.000000 0.000000  -0.000000 -0.000000 -0.220135
7  14.875443 0.000000 -0.000000  -0.016033 0.156000 0.172737
8  2.255207 -0.007574 0.000003  0.121975 -0.012452 -0.041688
9  9.514226 -0.009357 0.000000  -0.008667 0.002607 -0.052281
10  11.752188 -0.001494 0.000000  0.000024 0.043599 0.440031
11  -2.111797 0.863596 2.563792  0.666442 -1.215199 2.056492
12  4.640935 0.000003 -0.000004  0.756703 0.948820 0.713174
13  10.828042 -0.000001 0.000003  0.696113 -0.183452 -1.546379
14  9.393341 -0.000002 -0.000019  1.721478 -0.523262 -0.220616
15  1.442241 0.107446 -1.746182  1.710740 0.781590 0.365230
16  1.063451 0.000005 0.000002  0.000000 -0.000000 0.199056
17  1.376303 0.000001 0.000000  -0.000000 -0.000000 0.600473
18  4.172841 -0.251373 -1.312749  -0.005361 -0.000073 0.008928
19  1.215373 -0.000001 0.000000  -0.000000 -0.000000 0.506106
20  1.215377 0.000001 0.000008  0.000000 -0.000000 0.506106
21  4.220531 -0.244860 -0.431467  -0.004372 0.025906 -0.069865
22  1.350421 0.000003 -0.000001  -0.000000 -0.000000 0.532308
23  1.350413 0.000002 0.000000  0.000000 0.000000 0.532308
24  -1.885225 0.863608 -2.731758  -1.068895 1.168982 1.681693
25  4.640943 -0.000002 0.000003  0.107321 -0.111609 -0.152627
26  10.828046 -0.000001 0.000008  1.714929 -0.636827 -1.907372
27  9.393342 0.000005 -0.000002  0.743796 -0.365046 0.157755
28  1.442247 0.107453 1.746176  -2.047067 -0.542719 0.863657
29  1.063452 -0.000002 -0.000002  0.000000 0.000000 -0.054011
30  1.376306 0.000004 0.000002  0.000000 0.000000 0.600477
31  4.172849 -0.251365 1.312742  -0.014726 -0.094940 0.218785
32  1.215372 0.000001 0.000004  -0.000000 0.000000 0.715581
33  1.215374 0.000001 0.000002  -0.000000 0.000000 0.715581
34  4.220534 -0.244854 0.431465  -0.001333 -0.026242 0.148339
35  1.350413 0.000002 -0.000013  -0.000000 -0.000000 0.863937
36  1.350411 -0.000002 0.000002  -0.000000 -0.000000 0.863925
37  4.262827 -0.232720 -1.392180  0.016840 0.076668 0.253759
38  2.110540 -0.000003 0.000000  0.003342 -0.010764 -0.177026
39  0.891927 2.373048 -0.014527  -3.141592 -0.000001 1.413797
40  7.228119 5.709445 3.726567  3.140796 -1.570796 0.000000
41  2.450426 5.076126 0.001325  3.140791 -1.570796 0.000000
42  6.312411 -4.528057 0.001311  -3.101724 -1.570796 0.000000
43  2.233307 1.152535 -7.309138  -1.307242 -1.649579 -0.436576
44  -5.952957 -2.602895 0.029162  0.000000 -0.000000 0.000000
time 8
0  1.727579 0.771445 38.778515  0.000000 -0.000000 -1.701715
1  0.484716 -0.085940 0.000004  -1.570797 -1.570451 0.000002
2  0.000001 0.000007 4.427392  -0.174582 -3.057823 -0.019018
3  18.465939 -0.000000 -0.000000  -0.000000 -0.000000 -0.307042
4  14.875444 -0.000002 0.000000  -0.087407 -0.072722 0.256422
5  0.000012 -0.000004 -4.427392  0.123938 2.980830 -0.024109
6  18.465939 -0.000000 -0.000001  0.000000 0.000000 -0.217181
7  14.875443 0.000000 0.000001  -0.015998 0.156485 0.172924
8  2.255209 -0.007574 0.000003  0.121932 -0.011745 -0.047446
9  9.514227 -0.009357 -0.000000  -0.008667 0.002580 -0.052281
10  11.752190 -0.001494 0.000000  0.000024 0.043599 0.440031
11  -2.111790 0.863598 2.563792  0.666442 -1.215199 2.056492
12  4.640935 0.000003 -0.000002  0.756703 0.948820 0.713174
13  10.828037 0.000000 0.000001  0.696113 -0.183452 -1.546380
14  9.393341 -0.000000 -0.000011  1.721478 -0.523262 -0.220616
15  1.442243 0.107456 -1.746180  1.710740 0.781590 0.365230
16  1.063451 0.000000 0.000003  0.000000 -0.000000 0.199056
17  1.376301 0.000008 0.000002  0.000000 0.000000 0.600473
18  4.172844 -0.251360 -1.312745  -0.005361 -0.000073 0.008928
19  1.215375 0.000005 0.000000  -0.000000 -0.000000 0.506106
20  1.215375 -0.000003 0.000001  0.000000 -0.000000 0.506106
21  4.220533 -0.244849 -0.431466  -0.004372 0.025906 -0.069865
22  1.350424 0.000001 -0.000001  0.000000 -0.000000 0.532308
23  1.350411 0.000005 -0.000000  0.000000 0.000000 0.532308
24  -1.885212 0.863607 -2.731758  -1.068895 1.168982 1.681693
25  4.640942 -0.000002 0.000005  0.107321 -0.111609 -0.152627
26  10.828045 -0.000001 0.000010  1.714929 -0.636827 -1.907372
27  9.393343 0.000007 -0.000001  0.743796 -0.365046 0.157755
28  1.442238 0.107452 1.746173  -2.047067 -0.542719 0.863657
29  1.063455 -0.000005 -0.000002  -0.000000 -0.000000 -0.054011
30  1.376306 0.000006 -0.000003  0.000000 -0.000000 0.600477
31  4.172843 -0.251366 1.312733  -0.014726 -0.094940 0.218785
32  1.215372 0.000002 0.000006  -0.000000 -0.000000 0.715581
33  1.215374 0.000000 0.000006  -0.000000 0.000000 0.715581
34  4.220529 -0.244854 0.431458  -0.001333 -0.026242 0.148339
35  1.350415 -0.000002 -0.000007  -0.000000 0.000000 0.863937
36  1.350409 -0.000002 0.000004  0.000000 0.000000 0.863925
37  4.262820 -0.232722 -1.392184  0.016840 0.076668 0.253759
38  2.110552 -0.000001 -0.000000  0.003188 -0.010854 -0.174106
39  0.891925 2.373050 -0.014527  -3.141592 -0.000001 1.413797
40  7.228120 5.709446 3.726567  3.140796 -1.570796 0.000000
41  2.450424 5.076127 0.001325  3.140791 -1.570796 0.000000
42  6.312409 -4.528058 0.001311  -3.095906 -1.570796 0.000000
43  2.233309 1.152535 -7.309139  -1.305517 -1.649608 -0.436959
44  -5.952957 -2.602895 0.029162  0.000000 -0.000000 0.000000
time 9
0  1.727579 0.771445 38.778515  0.000000 -0.000000 -1.701715
1  0.543313 -0.078127 0.000000  -1.570797 -1.570451 0.000002
2  -0.000002 0.000007 4.427392  -0.174773 -3.058202 -0.016158
3  18.465942 -0.000000 0.000001  0.000000 -0.000000 -0.304630
4  14.875445 -0.000002 0.000001  -0.087442 -0.072829 0.256856
5  0.000010 -0.000004 -4.427392  0.124418 2.980735 -0.021114
6  18.465946 -0.000000 -0.000001  -0.000000 -0.000000 -0.214490
7  14.875445 0.000000 0.000001  -0.015963 0.156910 0.173112
8  2.255207 -0.007574 0.000003  0.121932 -0.011077 -0.052839
9  9.514222 -0.009357 -0.000000  -0.008667 0.002567 -0.052281
10  11.752192 -0.001494 0.000000  0.000024 0.043599 0.440031
11  -2.111793 0.863594 2.563792  0.666442 -1.215199 2.056492
12  4.640935 0.000002 -0.000002  0.756703 0.948820 0.713174
13  10.828043 -0.000001 -0.000000  0.696113 -0.183452 -1.546379
14  9.393340 0.000002 -0.000014  1.721478 -0.523262 -0.220616
15  1.442242 0.107452 -1.746178  1.710740 0.781590 0.365230
16  1.063451 -0.000000 -0.000003  -0.000000 0.000000 0.199056
17  1.376302 0.000005 -0.000001  0.000000 0.000000 0.600473
18  4.172843 -0.251361 -1.312745  -0.005361 -0.000073 0.008928
19  1.215374 0.000002 0.000001  -0.000000 -0.000000 0.506106
20  1.215377 0.000000 0.000005  0.000000 -0.000000 0.506106
21  4.220532 -0.244851 -0.431462  -0.004372 0.025906 -0.069865
22  1.350421 0.000001 -0.000000  -0.000000 -0.000000 0.532308
23  1.350409 -0.000001 0.000002  0.000000 0.000000 0.532308
24  -1.885220 0.863608 -2.731758  -1.068895 1.168982 1.681693
25  4.640941 -0.000002 0.000002  0.107321 -0.111609 -0.152627
26  10.828044 -0.000002 0.000014  1.714929 -0.636827 -1.907372
27  9.393343 0.000006 -0.000001  0.743796 -0.365046 0.157755
28  1.442244 0.107452 1.746182  -2.047067 -0.542719 0.863657
29  1.063452 0.000000 0.000000  -0.000000 0.000000 -0.054011
30  1.376307 0.000000 0.000001  0.000000 0.000000 0.600477
31  4.172846 -0.251365 1.312746  -0.014726 -0.094940 0.218785
32  1.215371 0.000000 0.000004  -0.000000 -0.000000 0.715581
33  1.215374 0.000001 0.000003  -0.000000 0.000000 0.715581
34  4.220532 -0.244853 0.431466  -0.001333 -0.026242 0.148339
35  1.350416 0.000000 -0.000005  0.000000 -0.000000 0.863937
36  1.350410 -0.000002 0.000002  -0.000000 0.000000 0.863925
37  4.262825 -0.232721 -1.392177  0.016840 0.076668 0.253759
38  2.110540 -0.000001 -0.000000  0.003034 -0.010914 -0.171375
39  0.891925 2.373049 -0.014527  -3.141592 -0.000001 1.413797
40  7.228127 5.709445 3.726567  3.140796 -1.570796 0.000000
41  2.450421 5.076127 0.001325  3.140791 -1.570796 0.000000
42  6.312404 -4.528058 0.001311  -3.090497 -1.570796 0.000000
43  2.233307 1.152535 -7.309139  -1.303887 -1.649637 -0.437246
44  -5.952957 -2.602895 0.029162  0.000000 -0.000000 0.000000
time 10
0  1.727579 0.771445 38.778515  0.000000 -0.000000 -1.701715
1  0.594095 -0.074221 0.000000  -1.570797 -1.570451 0.000002
2  0.000000 0.000007 4.427393  -0.174965 -3.058581 -0.013585
3  18.465942 -0.000000 0.000000  -0.000000 -0.000000 -0.302510
4  14.875442 -0.000001 -0.000001  -0.087442 -0.072914 0.257251
5  0.000012 -0.000004 -4.427392  0.124801 2.980735 -0.018400
6  18.465939 -0.000000 -0.000000  -0.000000 0.000000 -0.211996
7  14.875443 0.000000 0.000000  -0.015963 0.157304 0.173299
8  2.255209 -0.007574 0.000003  0.121890 -0.010488 -0.057736
9  9.514221 -0.009357 -0.000000  -0.008667 0.002554 -0.052281
10  11.752189 -0.001495 0.000000  0.000024 0.043599 0.440031
11  -2.111794 0.863596 2.563792  0.666442 -1.215199 2.056492
12  4.640935 0.000002 -0.000003  0.756703 0.948820 0.713174
13  10.828040 -0.000001 0.000000  0.696113 -0.183452 -1.546379
14  9.393342 -0.000003 -0.000014  1.721478 -0.523262 -0.220616
15  1.442240 0.107454 -1.746181  1.710740 0.781590 0.365230
16  1.063452 0.000003 -0.000001  0.000000 -0.000000 0.199056
17  1.376300 0.000006 0.000000  0.000000 0.000000 0.600473
18  4.172840 -0.251364 -1.312747  -0.005361 -0.000073 0.008928
19  1.215374 0.000004 -0.000002  -0.000000 -0.000000 0.506106
20  1.215372 0.000000 0.000003  0.000000 -0.000000 0.506106
21  4.220530 -0.244851 -0.431466  -0.004372 0.025906 -0.069865
22  1.350421 0.000000 -0.000000  -0.000000 -0.000000 0.532308
23  1.350408 -0.000000 -0.000001  0.000000 0.000000 0.532308
24  -1.885223 0.863609 -2.731758  -1.068895 1.168982 1.681693
25  4.640942 -0.000002 0.000006  0.107321 -0.111609 -0.152627
26  10.828046 -0.000003 0.000003  1.714929 -0.636827 -1.907372
27  9.393338 0.000001 -0.000003  0.743796 -0.365046 0.157755
28  1.442245 0.107457 1.746176  -2.047067 -0.542719 0.863657
29  1.063450 -0.000005 -0.000000  -0.000000 -0.000000 -0.054011
30  1.376304 0.000003 0.000003  -0.000000 0.000000 0.600477
31  4.172849 -0.251362 1.312741  -0.014726 -0.094940 0.218785
32  1.215373 0.000002 0.000003  -0.000000 -0.000000 0.715581
33  1.215371 -0.000000 -0.000003  -0.000000 0.000000 0.715581
34  4.220535 -0.244850 0.431459  -0.001333 -0.026242 0.148339
35  1.350412 0.000001 -0.000008  -0.000000 0.000000 0.863937
36  1.350410 -0.000002 -0.000000  -0.000000 -0.000000 0.863925
37  4.262826 -0.232718 -1.392179  0.016840 0.076668 0.253759
38  2.110546 -0.000001 -0.000000  0.002931 -0.010974 -0.168927
39  0.891922 2.373050 -0.014527  -3.141592 -0.000001 1.413797
40  7.228123 5.709445 3.726568  3.140796 -1.570796 0.000000
41  2.450417 5.076127 0.001325  3.140791 -1.570796 0.000000
42  6.312404 -4.528058 0.001311  -3.085547 -1.570796 0.000000
43  2.233309 1.152535 -7.309138  -1.302353 -1.649666 -0.437534
44  -5.952957 -2.602895 0.029162  0.000000 -0.000000 0.000000
time 11
0  1.727579 0.771445 38.778515  0.000000 -0.000000 -1.701715
1  0.640971 -0.066408 0.000000  -1.570797 -1.570451 0.000002
2  0.000001 0.000007 4.427393  -0.175156 -3.058865 -0.011393
3  18.465944 -0.000000 0.000000  0.000000 -0.000000 -0.300609
4  14.875443 -0.000003 -0.000000  -0.087442 -0.072999 0.257607
5  0.000013 -0.000004 -4.427392  0.125089 2.980639 -0.016060
6  18.465937 0.000000 -0.000000  -0.000000 -0.000000 -0.209830
7  14.875443 -0.000000 -0.000000  -0.015928 0.157637 0.173449
8  2.255210 -0.007574 0.000003  0.121848 -0.009958 -0.062037
9  9.514220 -0.009357 0.000000  -0.008667 0.002540 -0.052281
10  11.752191 -0.001495 0.000000  0.000024 0.043599 0.440031
11  -2.111791 0.863600 2.563792  0.666442 -1.215199 2.056492
12  4.640936 0.000003 0.000005  0.756703 0.948820 0.713174
13  10.828034 -0.000000 0.000001  0.696113 -0.183452 -1.546379
14  9.393340 0.000002 -0.000011  1.721478 -0.523262 -0.220616
15  1.442243 0.107457 -1.746179  1.710740 0.781590 0.365230
16  1.063450 -0.000002 0.000001  0.000000 -0.000000 0.199056
17  1.376303 0.000009 -0.000000  -0.000000 0.000000 0.600473
18  4.172842 -0.251365 -1.312745  -0.005361 -0.000073 0.008928
19  1.215374 -0.000007 0.000001  -0.000000 -0.000000 0.506106
20  1.215367 -0.000001 0.000003  0.000000 -0.000000 0.506106
21  4.220533 -0.244849 -0.431466  -0.004372 0.025906 -0.069865
22  1.350421 0.000004 -0.000000  0.000000 -0.000000 0.532308
23  1.350413 0.000006 -0.000000  -0.000000 0.000000 0.532308
24  -1.885216 0.863613 -2.731758  -1.068895 1.168982 1.681693
25  4.640941 -0.000001 0.000002  0.107321 -0.111609 -0.152627
26  10.828044 -0.000003 0.000002  1.714929 -0.636827 -1.907372
27  9.393337 0.000004 -0.000003  0.743796 -0.365046 0.157755
28  1.442244 0.107457 1.746177  -2.047067 -0.542719 0.863657
29  1.063454 -0.000007 0.000000  0.000000 -0.000000 -0.054011
30  1.376306 -0.000002 0.000001  -0.000000 -0.000000 0.600477
31  4.172848 -0.251362 1.312738  -0.014726 -0.094940 0.218785
32  1.215371 -0.000000 0.000001  -0.000000 0.000000 0.715581
33  1.215374 -0.000000 0.000005  -0.000000 -0.000000 0.715581
34  4.220534 -0.244849 0.431458  -0.001333 -0.026242 0.148339
35  1.350415 0.000001 -0.000008  -0.000000 0.000000 0.863937
36  1.350408 -0.000001 -0.000001  -0.000000 -0.000000 0.863925
37  4.262824 -0.232718 -1.392179  0.016840 0.076668 0.253759
38  2.110544 0.000003 -0.000000  0.002828 -0.011034 -0.166761
39  0.891920 2.373049 -0.014527  -3.141592 -0.000001 1.413797
40  7.228120 5.709445 3.726567  3.140796 -1.570796 0.000000
41  2.450414 5.076126 0.001325  3.140791 -1.570796 0.000000
42  6.312400 -4.528058 0.001311  -3.081210 -1.570796 0.000000
43  2.233310 1.152535 -7.309139  -1.301011 -1.649695 -0.437725
44  -5.952957 -2.602895 0.029162  0.000000 -0.000000 0.000000
time 12
0  1.727579 0.771445 38.778515  0.000000 -0.000000 -1.701715
1  0.680035 -0.062502 0.000000  -1.570797 -1.570451 0.000002
2  -0.000000 0.000007 4.427393  -0.175348 -3.059149 -0.009582
3  18.465942 0.000000 0.000001  -0.000000 -0.000000 -0.299074
4  14.875443 -0.000002 -0.000001  -0.087442 -0.073063 0.257923
5  0.000011 -0.000004 -4.427392  0.125376 2.980639 -0.014095
6  18.465939 0.000000 0.000001  -0.000000 0.000000 -0.207992
7  14.875443 0.000001 -0.000000  -0.015893 0.157910 0.173562
8  2.255208 -0.007574 0.000003  0.121806 -0.009526 -0.065578
9  9.514223 -0.009357 -0.000000  -0.008667 0.002527 -0.052281
10  11.752193 -0.001495 0.000000  0.000024 0.043599 0.440031
11  -2.111792 0.863600 2.563791  0.666442 -1.215199 2.056492
12  4.640935 0.000003 -0.000007  0.756703 0.948820 0.713173
13  10.828041 -0.000000 0.000001  0.696113 -0.183452 -1.546380
14  9.393343 -0.000005 -0.000016  1.721478 -0.523262 -0.220616
15  1.442240 0.107450 -1.746182  1.710740 0.781590 0.365230
16  1.063451 -0.000001 -0.000001  0.000000 -0.000000 0.199056
17  1.376302 0.000007 -0.000001  0.000000 0.000000 0.600473
18  4.172841 -0.251364 -1.312746  -0.005361 -0.000073 0.008928
19  1.215371 -0.000000 -0.000000  -0.000000 -0.000000 0.506106
20  1.215375 -0.000003 0.000003  -0.000000 -0.000000 0.506106
21  4.220531 -0.244848 -0.431464  -0.004372 0.025906 -0.069865
22  1.350420 0.000008 -0.000003  -0.000000 -0.000000 0.532308
23  1.350410 -0.000002 0.000000  -0.000000 0.000000 0.532308
24  -1.885214 0.863610 -2.731758  -1.068895 1.168982 1.681693
25  4.640942 -0.000002 0.000006  0.107321 -0.111609 -0.152627
26  10.828045 -0.000004 0.000004  1.714929 -0.636827 -1.907372
27  9.393339 0.000002 -0.000004  0.743796 -0.365046 0.157755
28  1.442245 0.107454 1.746185  -2.047067 -0.542719 0.863657
29  1.063450 -0.000003 0.000001  0.000000 0.000000 -0.054011
30  1.376306 0.000000 0.000000  -0.000000 0.000000 0.600477
31  4.172848 -0.251363 1.312749  -0.014726 -0.094940 0.218785
32  1.215371 -0.000004 0.000004  -0.000000 -0.000000 0.715581
33  1.215375 0.000001 -0.000000  -0.000000 0.000000 0.715581
34  4.220534 -0.244852 0.431466  -0.001333 -0.026242 0.148339
35  1.350414 0.000003 -0.000002  -0.000000 0.000000 0.863937
36  1.350408 -0.000003 0.000003  -0.000000 -0.000000 0.863925
37  4.262825 -0.232719 -1.392175  0.016840 0.076668 0.253759
38  2.110550 0.000000 0.000000  0.002725 -0.011094 -0.164971
39  0.891920 2.373049 -0.014527  -3.141592 -0.000001 1.413797
40  7.228121 5.709444 3.726568  3.140796 -1.570796 0.000000
41  2.450418 5.076127 0.001325  3.140791 -1.570796 0.000000
42  6.312404 -4.528058 0.001311  -3.077638 -1.570796 0.000000
43  2.233308 1.152535 -7.309139  -1.299956 -1.649724 -0.437917
44  -5.952957 -2.602895 0.029162  0.000000 -0.000000 0.000000
time 13
0  1.727579 0.771445 38.778515  0.000000 -0.000000 -1.701715
1  0.707380 -0.058596 -0.000004  -1.570797 -1.570451 0.000002
2  0.000001 0.000007 4.427393  -0.175444 -3.059338 -0.008152
3  18.465946 -0.000000 0.000000  0.000000 0.000000 -0.297831
4  14.875444 -0.000003 -0.000001  -0.087442 -0.073105 0.258120
5  0.000013 -0.000004 -4.427392  0.125664 2.980639 -0.012597
6  18.465937 0.000000 0.000001  0.000000 0.000000 -0.206679
7  14.875446 0.000000 -0.000000  -0.015893 0.158152 0.173674
8  2.255210 -0.007574 0.000003  0.121806 -0.009192 -0.068291
9  9.514229 -0.009357 -0.000000  -0.008667 0.002513 -0.052281
10  11.752187 -0.001495 0.000000  0.000024 0.043599 0.440031
11  -2.111799 0.863596 2.563792  0.666442 -1.215199 2.056492
12  4.640937 0.000003 -0.000005  0.756703 0.948820 0.713174
13  10.828042 -0.000000 0.000001  0.696113 -0.183452 -1.546380
14  9.393341 -0.000003 -0.000015  1.721478 -0.523262 -0.220616
15  1.442242 0.107452 -1.746182  1.710740 0.781590 0.365230
16  1.063454 -0.000001 -0.000003  -0.000000 -0.000000 0.199056
17  1.376306 0.000007 0.000000  0.000000 0.000000 0.600473
18  4.172841 -0.251367 -1.312748  -0.005361 -0.000073 0.008928
19  1.215373 -0.000002 0.000002  0.000000 -0.000000 0.506106
20  1.215375 0.000004 0.000006  -0.000000 -0.000000 0.506106
21  4.220532 -0.244855 -0.431468  -0.004372 0.025906 -0.069865
22  1.350422 -0.000005 -0.000001  -0.000000 -0.000000 0.532308
23  1.350412 0.000003 0.000001  0.000000 -0.000000 0.532308
24  -1.885223 0.863609 -2.731758  -1.068895 1.168982 1.681693
25  4.640943 -0.000003 0.000009  0.107321 -0.111609 -0.152627
26  10.828045 -0.000002 0.000006  1.714929 -0.636827 -1.907372
27  9.393340 0.000003 -0.000001  0.743796 -0.365046 0.157755
28  1.442244 0.107453 1.746178  -2.047067 -0.542719 0.863657
29  1.063450 -0.000008 -0.000001  0.000000 0.000000 -0.054011
30  1.376304 0.000014 0.000000  -0.000000 -0.000000 0.600477
31  4.172848 -0.251365 1.312740  -0.014726 -0.094940 0.218785
32  1.215374 0.000001 -0.000003  -0.000000 -0.000000 0.715581
33  1.215376 0.000000 0.000004  -0.000000 0.000000 0.715581
34  4.220533 -0.244853 0.431463  -0.001333 -0.026242 0.148339
35  1.350413 -0.000002 -0.000006  -0.000000 0.000000 0.863937
36  1.350409 -0.000003 0.000007  0.000000 0.000000 0.863925
37  4.262824 -0.232723 -1.392178  0.016840 0.076668 0.253759
38  2.110538 -0.000001 0.000000  0.002674 -0.011124 -0.163606
39  0.891919 2.373051 -0.014527  -3.141592 -0.000001 1.413797
40  7.228117 5.709445 3.726568  3.140796 -1.570796 0.000000
41  2.450423 5.076127 0.001325  3.140791 -1.570796 0.000000
42  6.312407 -4.528058 0.001311  -3.074933 -1.570796 0.000000
43  2.233310 1.152535 -7.309138  -1.299093 -1.649753 -0.438108
44  -5.952957 -2.602895 0.029162  0.000000 -0.000000 0.000000
time 14
0  1.727579 0.771445 38.778515  0.000000 -0.000000 -1.701715
1  0.726911 -0.058596 0.000000  -1.570797 -1.570451 0.000002
2  0.000001 0.000007 4.427393  -0.175444 -3.059528 -0.007294
3  18.465942 -0.000000 -0.000000  -0.000000 -0.000000 -0.297100
4  14.875444 -0.000002 -0.000000  -0.087442 -0.073148 0.258278
5  0.000012 -0.000004 -4.427392  0.125759 2.980543 -0.011662
6  18.465940 0.000000 -0.000000  -0.000000 0.000000 -0.205826
7  14.875443 0.000000 0.000000  -0.015893 0.158274 0.173712
8  2.255209 -0.007574 0.000003  0.121806 -0.008976 -0.069978
9  9.514222 -0.009357 -0.000000  -0.008667 0.002513 -0.052281
10  11.752194 -0.001495 0.000001  0.000024 0.043599 0.440031
11  -2.111794 0.863596 2.563792  0.666442 -1.215199 2.056492
12  4.640934 0.000002 0.000002  0.756703 0.948820 0.713174
13  10.828035 -0.000001 0.000002  0.696113 -0.183452 -1.546379
14  9.393339 -0.000001 -0.000013  1.721478 -0.523262 -0.220616
15  1.442240 0.107449 -1.746183  1.710740 0.781590 0.365230
16  1.063452 -0.000003 0.000001  0.000000 0.000000 0.199056
17  1.376304 0.000007 0.000001  0.000000 -0.000000 0.600473
18  4.172841 -0.251367 -1.312748  -0.005361 -0.000073 0.008928
19  1.215374 0.000005 0.000001  0.000000 -0.000000 0.506106
20  1.215375 0.000000 0.000005  -0.000000 -0.000000 0.506106
21  4.220530 -0.244857 -0.431467  -0.004372 0.025906 -0.069865
22  1.350421 0.000001 -0.000002  -0.000000 -0.000000 0.532308
23  1.350417 0.000007 0.000005  0.000000 -0.000000 0.532308
24  -1.885217 0.863607 -2.731758  -1.068895 1.168982 1.681693
25  4.640944 -0.000001 0.000009  0.107321 -0.111609 -0.152627
26  10.828047 -0.000003 0.000007  1.714929 -0.636827 -1.907372
27  9.393341 0.000006 -0.000002  0.743796 -0.365046 0.157755
28  1.442242 0.107457 1.746174  -2.047067 -0.542719 0.863657
29  1.063452 -0.000002 -0.000001  -0.000000 -0.000000 -0.054011
30  1.376306 0.000009 -0.000000  0.000000 -0.000000 0.600477
31  4.172846 -0.251363 1.312741  -0.014726 -0.094940 0.218785
32  1.215377 0.000000 0.000005  0.000000 -0.000000 0.715581
33  1.215370 -0.000000 0.000004  -0.000000 0.000000 0.715581
34  4.220533 -0.244850 0.431461  -0.001333 -0.026242 0.148339
35  1.350414 -0.000003 -0.000008  0.000000 0.000000 0.863937
36  1.350410 -0.000000 -0.000002  -0.000000 -0.000000 0.863925
37  4.262824 -0.232718 -1.392181  0.016840 0.076668 0.253759
38  2.110550 -0.000005 -0.000000  0.002622 -0.011154 -0.162758
39  0.891918 2.373050 -0.014527  -3.141592 -0.000001 1.413797
40  7.228126 5.709445 3.726567  3.140796 -1.570796 0.000000
41  2.450421 5.076128 0.001325  3.140791 -1.570796 0.000000
42  6.312404 -4.528058 0.001311  -3.073198 -1.570796 0.000000
43  2.233309 1.152535 -7.309138  -1.298614 -1.649753 -0.438204
44  -5.952957 -2.602895 0.029162  0.000000 -0.000000 0.000000
time 15
0  1.727579 0.771445 38.778515  0.000000 -0.000000 -1.701715
1  0.730818 -0.058596 -0.000004  -1.570797 -1.570451 0.000002
2  -0.000002 0.000007 4.427392  -0.175540 -3.059528 -0.007008
3  18.465939 -0.000000 0.000000  -0.000000 -0.000000 -0.296880
4  14.875442 -0.000003 0.000000  -0.087478 -0.073148 0.258318
5  0.000010 -0.000004 -4.427392  0.125855 2.980543 -0.011287
6  18.465939 -0.000000 0.000001  -0.000000 -0.000000 -0.205498
7  14.875441 0.000000 -0.000000  -0.015857 0.158334 0.173750
8  2.255207 -0.007574 0.000003  0.121806 -0.008917 -0.070574
9  9.514223 -0.009357 -0.000000  -0.008667 0.002513 -0.052281
10  11.752185 -0.001494 0.000000  0.000024 0.043599 0.440031
11  -2.111794 0.863596 2.563792  0.666442 -1.215199 2.056492
12  4.640934 0.000002 -0.000001  0.756703 0.948820 0.713173
13  10.828037 0.000003 0.000003  0.696113 -0.183452 -1.546379
14  9.393342 -0.000001 -0.000011  1.721478 -0.523262 -0.220616
15  1.442243 0.107456 -1.746180  1.710740 0.781590 0.365230
16  1.063451 0.000001 0.000002  -0.000000 -0.000000 0.199056
17  1.376304 0.000006 0.000002  0.000000 0.000000 0.600473
18  4.172843 -0.251364 -1.312747  -0.005361 -0.000073 0.008928
19  1.215374 0.000002 -0.000001  -0.000000 -0.000000 0.506106
20  1.215377 0.000000 0.000002  0.000000 0.000000 0.506106
21  4.220532 -0.244849 -0.431467  -0.004372 0.025906 -0.069865
22  1.350421 0.000004 -0.000002  -0.000000 -0.000000 0.532308
23  1.350416 0.000006 0.000004  0.000000 -0.000000 0.532308
24  -1.885218 0.863607 -2.731759  -1.068895 1.168982 1.681693
25  4.640942 -0.000002 -0.000001  0.107321 -0.111609 -0.152627
26  10.828047 -0.000001 0.000011  1.714929 -0.636827 -1.907372
27  9.393337 -0.000001 -0.000001  0.743796 -0.365046 0.157755
28  1.442246 0.107459 1.746176  -2.047067 -0.542719 0.863657
29  1.063451 -0.000004 0.000002  0.000000 0.000000 -0.054011
30  1.376305 0.000004 -0.000001  0.000000 0.000000 0.600477
31  4.172850 -0.251360 1.312738  -0.014726 -0.094940 0.218785
32  1.215370 0.000000 0.000004  -0.000000 -0.000000 0.715581
33  1.215375 -0.000000 -0.000005  -0.000000 0.000000 0.715581
34  4.220534 -0.244850 0.431461  -0.001333 -0.026242 0.148339
35  1.350415 -0.000003 -0.000011  -0.000000 0.000000 0.863937
36  1.350410 -0.000003 0.000000  -0.000000 -0.000000 0.863925
37  4.262827 -0.232716 -1.392185  0.016840 0.076668 0.253759
38  2.110546 -0.000004 -0.000000  0.002622 -0.011184 -0.162476
39  0.891923 2.373050 -0.014527  -3.141592 -0.000001 1.413797
40  7.228119 5.709445 3.726567  3.140796 -1.570796 0.000000
41  2.450417 5.076127 0.001325  3.140791 -1.570796 0.000000
42  6.312403 -4.528057 0.001311  -3.072586 -1.570796 0.000000
43  2.233306 1.152535 -7.309138  -1.298422 -1.649753 -0.438204
44  -5.952957 -2.602895 0.029162  0.000000 -0.000000 0.000000
time 16
0  1.727579 0.771445 38.778515  0.000000 -0.000000 -1.701715
1  0.726911 -0.058596 0.000000  -1.570797 -1.570451 0.000002
2  0.000001 0.000007 4.427393  -0.175444 -3.059528 -0.007294
3  18.465942 -0.000000 -0.000000  -0.000000 -0.000000 -0.297100
4  14.875444 -0.000002 -0.000000  -0.087442 -0.073148 0.258278
5  0.000012 -0.000004 -4.427392  0.125759 2.980543 -0.011662
6  18.465940 0.000000 -0.000000  -0.000000 0.000000 -0.205826
7  14.875443 0.000000 0.000000  -0.015893 0.158274 0.173712
8  2.255209 -0.007574 0.000003  0.121806 -0.008976 -0.069978
9  9.514222 -0.009357 -0.000000  -0.008667 0.002513 -0.052281
10  11.752194 -0.001495 0.000001  0.000024 0.043599 0.440031
11  -2.111794 0.863596 2.563792  0.666442 -1.215199 2.056492
12  4.640934 0.000002 0.000002  0.756703 0.948820 0.713174
13  10.828035 -0.000001 0.000002  0.696113 -0.183452 -1.546379
14  9.393339 -0.000001 -0.000013  1.721478 -0.523262 -0.220616
15  1.442240 0.107449 -1.746183  1.710740 0.781590 0.365230
16  1.063452 -0.000003 0.000001  0.000000 0.000000 0.199056
17  1.376304 0.000007 0.000001  0.000000 -0.000000 0.600473
18  4.172841 -0.251367 -1.312748  -0.005361 -0.000073 0.008928
19  1.215374 0.000005 0.000001  0.000000 -0.000000 0.506106
20  1.215375 0.000000 0.000005  -0.000000 -0.000000 0.506106
21  4.220530 -0.244857 -0.431467  -0.004372 0.025906 -0.069865
22  1.350421 0.000001 -0.000002  -0.000000 -0.000000 0.532308
23  1.350417 0.000007 0.000005  0.000000 -0.000000 0.532308
24  -1.885217 0.863607 -2.731758  -1.068895 1.168982 1.681693
25  4.640944 -0.000001 0.000009  0.107321 -0.111609 -0.152627
26  10.828047 -0.000003 0.000007  1.714929 -0.636827 -1.907372
27  9.393341 0.000006 -0.000002  0.743796 -0.365046 0.157755
28  1.442242 0.107457 1.746174  -2.047067 -0.542719 0.863657
29  1.063452 -0.000002 -0.000001  -0.000000 -0.000000 -0.054011
30  1.376306 0.000009 -0.000000  0.000000 -0.000000 0.600477
31  4.172846 -0.251363 1.312741  -0.014726 -0.094940 0.218785
32  1.215377 0.000000 0.000005  0.000000 -0.000000 0.715581
33  1.215370 -0.000000 0.000004  -0.000000 0.000000 0.715581
34  4.220533 -0.244850 0.431461  -0.001333 -0.026242 0.148339
35  1.350414 -0.000003 -0.000008  0.000000 0.000000 0.863937
36  1.350410 -0.000000 -0.000002  -0.000000 -0.000000 0.863925
37  4.262824 -0.232718 -1.392181  0.016840 0.076668 0.253759
38  2.110550 -0.000005 -0.000000  0.002622 -0.011154 -0.162758
39  0.891918 2.373050 -0.014527  -3.141592 -0.000001 1.413797
40  7.228126 5.709445 3.726567  3.140796 -1.570796 0.000000
41  2.450421 5.076128 0.001325  3.140791 -1.570796 0.000000
42  6.312404 -4.528058 0.001311  -3.073198 -1.570796 0.000000
43  2.233309 1.152535 -7.309138  -1.298614 -1.649753 -0.438204
44  -5.952957 -2.602895 0.029162  0.000000 -0.000000 0.000000
time 17
0  1.727579 0.771445 38.778515  0.000000 -0.000000 -1.701715
1  0.707380 -0.058596 -0.000004  -1.570797 -1.570451 0.000002
2  0.000001 0.000007 4.427393  -0.175444 -3.059338 -0.008152
3  18.465946 -0.000000 0.000000  0.000000 0.000000 -0.297831
4  14.875444 -0.000003 -0.000001  -0.087442 -0.073105 0.258120
5  0.000013 -0.000004 -4.427392  0.125664 2.980639 -0.012597
6  18.465937 0.000000 0.000001  0.000000 0.000000 -0.206679
7  14.875446 0.000000 -0.000000  -0.015893 0.158152 0.173674
8  2.255210 -0.007574 0.000003  0.121806 -0.009192 -0.068291
9  9.514229 -0.009357 -0.000000  -0.008667 0.002513 -0.052281
10  11.752187 -0.001495 0.000000  0.000024 0.043599 0.440031
11  -2.111799 0.863596 2.563792  0.666442 -1.215199 2.056492
12  4.640937 0.000003 -0.000005  0.756703 0.948820 0.713174
13  10.828042 -0.000000 0.000001  0.696113 -0.183452 -1.546380
14  9.393341 -0.000003 -0.000015  1.721478 -0.523262 -0.220616
15  1.442242 0.107452 -1.746182  1.710740 0.781590 0.365230
16  1.063454 -0.000001 -0.000003  -0.000000 -0.000000 0.199056
17  1.376306 0.000007 0.000000  0.000000 0.000000 0.600473
18  4.172841 -0.251367 -1.312748  -0.005361 -0.000073 0.008928
19  1.215373 -0.000002 0.000002  0.000000 -0.000000 0.506106
20  1.215375 0.000004 0.000006  -0.000000 -0.000000 0.506106
21  4.220532 -0.244855 -0.431468  -0.004372 0.025906 -0.069865
22  1.350422 -0.000005 -0.000001  -0.000000 -0.000000 0.532308
23  1.350412 0.000003 0.000001  0.000000 -0.000000 0.532308
24  -1.885223 0.863609 -2.731758  -1.068895 1.168982 1.681693
25  4.640943 -0.000003 0.000009  0.107321 -0.111609 -0.152627
26  10.828045 -0.000002 0.000006  1.714929 -0.636827 -1.907372
27  9.393340 0.000003 -0.000001  0.743796 -0.365046 0.157755
28  1.442244 0.107453 1.746178  -2.047067 -0.542719 0.863657
29  1.063450 -0.000008 -0.000001  0.000000 0.000000 -0.054011
30  1.376304 0.000014 0.000000  -0.000000 -0.000000 0.600477
31  4.172848 -0.251365 1.312740  -0.014726 -0.094940 0.218785
32  1.215374 0.000001 -0.000003  -0.000000 -0.000000 0.715581
33  1.215376 0.000000 0.000004  -0.000000 0.000000 0.715581
34  4.220533 -0.244853 0.431463  -0.001333 -0.026242 0.148339
35  1.350413 -0.000002 -0.000006  -0.000000 0.000000 0.863937
36  1.350409 -0.000003 0.000007  0.000000 0.000000 0.863925
37  4.262824 -0.232723 -1.392178  0.016840 0.076668 0.253759
38  2.110538 -0.000001 0.000000  0.002674 -0.011124 -0.163606
39  0.891919 2.373051 -0.014527  -3.141592 -0.000001 1.413797
40  7.228117 5.709445 3.726568  3.140796 -1.570796 0.000000
41  2.450423 5.076127 0.001325  3.140791 -1.570796 0.000000
42  6.312407 -4.528058 0.001311  -3.074933 -1.570796 0.000000
43  2.233310 1.152535 -7.309138  -1.299093 -1.649753 -0.438108
44  -5.952957 -2.602895 0.029162  0.000000 -0.000000 0.000000
time 18
0  1.727579 0.771445 38.778515  0.000000 -0.000000 -1.701715
1  0.680035 -0.062502 0.000000  -1.570797 -1.570451 0.000002
2  -0.000000 0.000007 4.427393  -0.175348 -3.059149 -0.009582
3  18.465942 0.000000 0.000001  -0.000000 -0.000000 -0.299074
4  14.875443 -0.000002 -0.000001  -0.087442 -0.073063 0.257923
5  0.000011 -0.000004 -4.427392  0.125376 2.980639 -0.014095
6  18.465939 0.000000 0.000001  -0.000000 0.000000 -0.207992
7  14.875443 0.000001 -0.000000  -0.015893 0.157910 0.173562
8  2.255208 -0.007574 0.000003  0.121806 -0.009526 -0.065578
9  9.514223 -0.009357 -0.000000  -0.008667 0.002527 -0.052281
10  11.752193 -0.001495 0.000000  0.000024 0.043599 0.440031
11  -2.111792 0.863600 2.563791  0.666442 -1.215199 2.056492
12  4.640935 0.000003 -0.000007  0.756703 0.948820 0.713173
13  10.828041 -0.000000 0.000001  0.696113 -0.183452 -1.546380
14  9.393343 -0.000005 -0.000016  1.721478 -0.523262 -0.220616
15  1.442240 0.107450 -1.746182  1.710740 0.781590 0.365230
16  1.063451 -0.000001 -0.000001  0.000000 -0.000000 0.199056
17  1.376302 0.000007 -0.000001  0.000000 0.000000 0.600473
18  4.172841 -0.251364 -1.312746  -0.005361 -0.000073 0.008928
19  1.215371 -0.000000 -0.000000  -0.000000 -0.000000 0.506106
20  1.215375 -0.000003 0.000003  -0.000000 -0.000000 0.506106
21  4.220531 -0.244848 -0.431464  -0.004372 0.025906 -0.069865
22  1.350420 0.000008 -0.000003  -0.000000 -0.000000 0.532308
23  1.350410 -0.000002 0.000000  -0.000000 0.000000 0.532308
24  -1.885214 0.863610 -2.731758  -1.068895 1.168982 1.681693
25  4.640942 -0.000002 0.000006  0.107321 -0.111609 -0.152627
26  10.828045 -0.000004 0.000004  1.714929 -0.636827 -1.907372
27  9.393339 0.000002 -0.000004  0.743796 -0.365046 0.157755
28  1.442245 0.107454 1.746185  -2.047067 -0.542719 0.863657
29  1.063450 -0.000003 0.000001  0.000000 0.000000 -0.054011
30  1.376306 0.000000 0.000000  -0.000000 0.000000 0.600477
31  4.172848 -0.251363 1.312749  -0.014726 -0.094940 0.218785
32  1.215371 -0.000004 0.000004  -0.000000 -0.000000 0.715581
33  1.215375 0.000001 -0.000000  -0.000000 0.000000 0.715581
34  4.220534 -0.244852 0.431466  -0.001333 -0.026242 0.148339
35  1.350414 0.000003 -0.000002  -0.000000 0.000000 0.863937
36  1.350408 -0.000003 0.000003  -0.000000 -0.000000 0.863925
37  4.262825 -0.232719 -1.392175  0.016840 0.076668 0.253759
38  2.110550 0.000000 0.000000  0.002725 -0.011094 -0.164971
39  0.891920 2.373049 -0.014527  -3.141592 -0.000001 1.413797
40  7.228121 5.709444 3.726568  3.140796 -1.570796 0.000000
41  2.450418 5.076127 0.001325  3.140791 -1.570796 0.000000
42  6.312404 -4.528058 0.001311  -3.077638 -1.570796 0.000000
43  2.233308 1.152535 -7.309139  -1.299956 -1.649724 -0.437917
44  -5.952957 -2.602895 0.029162  0.000000 -0.000000 0.000000
time 19
0  1.727579 0.771445 38.778515  0.000000 -0.000000 -1.701715
1  0.640971 -0.066408 0.000000  -1.570797 -1.570451 0.000002
2  0.000001 0.000007 4.427393  -0.175156 -3.058865 -0.011393
3  18.465944 -0.000000 0.000000  0.000000 -0.000000 -0.300609
4  14.875443 -0.000003 -0.000000  -0.087442 -0.072999 0.257607
5  0.000013 -0.000004 -4.427392  0.125089 2.980639 -0.016060
6  18.465937 0.000000 -0.000000  -0.000000 -0.000000 -0.209830
7  14.875443 -0.000000 -0.000000  -0.015928 0.157637 0.173449
8  2.255210 -0.007574 0.000003  0.121848 -0.009958 -0.062037
9  9.514220 -0.009357 0.000000  -0.008667 0.002540 -0.052281
10  11.752191 -0.001495 0.000000  0.000024 0.043599 0.440031
11  -2.111791 0.863600 2.563792  0.666442 -1.215199 2.056492
12  4.640936 0.000003 0.000005  0.756703 0.948820 0.713174
13  10.828034 -0.000000 0.000001  0.696113 -0.183452 -1.546379
14  9.393340 0.000002 -0.000011  1.721478 -0.523262 -0.220616
15  1.442243 0.107457 -1.746179  1.710740 0.781590 0.365230
16  1.063450 -0.000002 0.000001  0.000000 -0.000000 0.199056
17  1.376303 0.000009 -0.000000  -0.000000 0.000000 0.600473
18  4.172842 -0.251365 -1.312745  -0.005361 -0.000073 0.008928
19  1.215374 -0.000007 0.000001  -0.000000 -0.000000 0.506106
20  1.215367 -0.000001 0.000003  0.000000 -0.000000 0.506106
21  4.220533 -0.244849 -0.431466  -0.004372 0.025906 -0.069865
22  1.350421 0.000004 -0.000000  0.000000 -0.000000 0.532308
23  1.350413 0.000006 -0.000000  -0.000000 0.000000 0.532308
24  -1.885216 0.863613 -2.731758  -1.068895 1.168982 1.681693
25  4.640941 -0.000001 0.000002  0.107321 -0.111609 -0.152627
26  10.828044 -0.000003 0.000002  1.714929 -0.636827 -1.907372
27  9.393337 0.000004 -0.000003  0.743796 -0.365046 0.157755
28  1.442244 0.107457 1.746177  -2.047067 -0.542719 0.863657
29  1.063454 -0.000007 0.000000  0.000000 -0.000000 -0.054011
30  1.376306 -0.000002 0.000001  -0.000000 -0.000000 0.600477
31  4.172848 -0.251362 1.312738  -0.014726 -0.094940 0.218785
32  1.215371 -0.000000 0.000001  -0.000000 0.000000 0.715581
33  1.215374 -0.000000 0.000005  -0.000000 -0.000000 0.715581
34  4.220534 -0.244849 0.431458  -0.001333 -0.026242 0.148339
35  1.350415 0.000001 -0.000008  -0.000000 0.000000 0.863937
36  1.350408 -0.000001 -0.000001  -0.000000 -0.000000 0.863925
37  4.262824 -0.232718 -1.392179  0.016840 0.076668 0.253759
38  2.110544 0.000003 -0.000000  0.002828 -0.011034 -0.166761
39  0.891920 2.373049 -0.014527  -3.141592 -0.000001 1.413797
40  7.228120 5.709445 3.726567  3.140796 -1.570796 0.000000
41  2.450414 5.076126 0.001325  3.140791 -1.570796 0.000000
42  6.312400 -4.528058 0.001311  -3.081210 -1.570796 0.000000
43  2.233310 1.152535 -7.309139  -1.301011 -1.649695 -0.437725
44  -5.952957 -2.602895 0.029162  0.000000 -0.000000 0.000000
time 20
0  1.727579 0.771445 38.778515  0.000000 -0.000000 -1.701715
1  0.594095 -0.074221 0.000000  -1.570797 -1.570451 0.000002
2  0.000000 0.000007 4.427393  -0.174965 -3.058581 -0.013585
3  18.465942 -0.000000 0.000000  -0.000000 -0.000000 -0.302510
4  14.875442 -0.000001 -0.000001  -0.087442 -0.072914 0.257251
5  0.000012 -0.000004 -4.427392  0.124801 2.980735 -0.018400
6  18.465939 -0.000000 -0.000000  -0.000000 0.000000 -0.211996
7  14.875443 0.000000 0.000000  -0.015963 0.157304 0.173299
8  2.255209 -0.007574 0.000003  0.121890 -0.010488 -0.057736
9  9.514221 -0.009357 -0.000000  -0.008667 0.002554 -0.052281
10  11.752189 -0.001495 0.000000  0.000024 0.043599 0.440031
11  -2.111794 0.863596 2.563792  0.666442 -1.215199 2.056492
12  4.640935 0.000002 -0.000003  0.756703 0.948820 0.713174
13  10.828040 -0.000001 0.000000  0.696113 -0.183452 -1.546379
14  9.393342 -0.000003 -0.000014  1.721478 -0.523262 -0.220616
15  1.442240 0.107454 -1.746181  1.710740 0.781590 0.365230
16  1.063452 0.000003 -0.000001  0.000000 -0.000000 0.199056
17  1.376300 0.000006 0.000000  0.000000 0.000000 0.600473
18  4.172840 -0.251364 -1.312747  -0.005361 -0.000073 0.008928
19  1.215374 0.000004 -0.000002  -0.000000 -0.000000 0.506106
20  1.215372 0.000000 0.000003  0.000000 -0.000000 0.506106
21  4.220530 -0.244851 -0.431466  -0.004372 0.025906 -0.069865
22  1.350421 0.000000 -0.000000  -0.000000 -0.000000 0.532308
23  1.350408 -0.000000 -0.000001  0.000000 0.000000 0.532308
24  -1.885223 0.863609 -2.731758  -1.068895 1.168982 1.681693
25  4.640942 -0.000002 0.000006  0.107321 -0.111609 -0.152627
26  10.828046 -0.000003 0.000003  1.714929 -0.636827 -1.907372
27  9.393338 0.000001 -0.000003  0.743796 -0.365046 0.157755
28  1.442245 0.107457 1.746176  -2.047067 -0.542719 0.863657
29  1.063450 -0.000005 -0.000000  -0.000000 -0.000000 -0.054011
30  1.376304 0.000003 0.000003  -0.000000 0.000000 0.600477
31  4.172849 -0.251362 1.312741  -0.014726 -0.094940 0.218785
32  1.215373 0.000002 0.000003  -0.000000 -0.000000 0.715581
33  1.215371 -0.000000 -0.000003  -0.000000 0.000000 0.715581
34  4.220535 -0.244850 0.431459  -0.001333 -0.026242 0.148339
35  1.350412 0.000001 -0.000008  -0.000000 0.000000 0.863937
36  1.350410 -0.000002 -0.000000  -0.000000 -0.000000 0.863925
37  4.262826 -0.232718 -1.392179  0.016840 0.076668 0.253759
38  2.110546 -0.000001 -0.000000  0.002931 -0.010974 -0.168927
39  0.891922 2.373050 -0.014527  -3.141592 -0.000001 1.413797
40  7.228123 5.709445 3.726568  3.140796 -1.570796 0.000000
41  2.450417 5.076127 0.001325  3.140791 -1.570796 0.000000
42  6.312404 -4.528058 0.001311  -3.085547 -1.570796 0.000000
43  2.233309 1.152535 -7.309138  -1.302353 -1.649666 -0.437534
44  -5.952957 -2.602895 0.029162  0.000000 -0.000000 0.000000
time 21
0  1.727579 0.771445 38.778515  0.000000 -0.000000 -1.701715
1  0.543313 -0.078127 0.000000  -1.570797 -1.570451 0.000002
2  -0.000002 0.000007 4.427392  -0.174773 -3.058202 -0.016158
3  18.465942 -0.000000 0.000001  0.000000 -0.000000 -0.304630
4  14.875445 -0.000002 0.000001  -0.087442 -0.072829 0.256856
5  0.000010 -0.000004 -4.427392  0.124418 2.980735 -0.021114
6  18.465946 -0.000000 -0.000001  -0.000000 -0.000000 -0.214490
7  14.875445 0.000000 0.000001  -0.015963 0.156910 0.173112
8  2.255207 -0.007574 0.000003  0.121932 -0.011077 -0.052839
9  9.514222 -0.009357 -0.000000  -0.008667 0.002567 -0.052281
10  11.752192 -0.001494 0.000000  0.000024 0.043599 0.440031
11  -2.111793 0.863594 2.563792  0.666442 -1.215199 2.056492
12  4.640935 0.000002 -0.000002  0.756703 0.948820 0.713174
13  10.828043 -0.000001 -0.000000  0.696113 -0.183452 -1.546379
14  9.393340 0.000002 -0.000014  1.721478 -0.523262 -0.220616
15  1.442242 0.107452 -1.746178  1.710740 0.781590 0.365230
16  1.063451 -0.000000 -0.000003  -0.000000 0.000000 0.199056
17  1.376302 0.000005 -0.000001  0.000000 0.000000 0.600473
18  4.172843 -0.251361 -1.312745  -0.005361 -0.000073 0.008928
19  1.215374 0.000002 0.000001  -0.000000 -0.000000 0.506106
20  1.215377 0.000000 0.000005  0.000000 -0.000000 0.506106
21  4.220532 -0.244851 -0.431462  -0.004372 0.025906 -0.069865
22  1.350421 0.000001 -0.000000  -0.000000 -0.000000 0.532308
23  1.350409 -0.000001 0.000002  0.000000 0.000000 0.532308
24  -1.885220 0.863608 -2.731758  -1.068895 1.168982 1.681693
25  4.640941 -0.000002 0.000002  0.107321 -0.111609 -0.152627
26  10.828044 -0.000002 0.000014  1.714929 -0.636827 -1.907372
27  9.393343 0.000006 -0.000001  0.743796 -0.365046 0.157755
28  1.442244 0.107452 1.746182  -2.047067 -0.542719 0.863657
29  1.063452 0.000000 0.000000  -0.000000 0.000000 -0.054011
30  1.376307 0.000000 0.000001  0.000000 0.000000 0.600477
31  4.172846 -0.251365 1.312746  -0.014726 -0.094940 0.218785
32  1.215371 0.000000 0.000004  -0.000000 -0.000000 0.715581
33  1.215374 0.000001 0.000003  -0.000000 0.000000 0.715581
34  4.220532 -0.244853 0.431466  -0.001333 -0.026242 0.148339
35  1.350416 0.000000 -0.000005  0.000000 -0.000000 0.863937
36  1.350410 -0.000002 0.000002  -0.000000 0.000000 0.863925
37  4.262825 -0.232721 -1.392177  0.016840 0.076668 0.253759
38  2.110540 -0.000001 -0.000000  0.003034 -0.010914 -0.171375
39  0.891925 2.373049 -0.014527  -3.141592 -0.000001 1.413797
40  7.228127 5.709445 3.726567  3.140796 -1.570796 0.000000
41  2.450421 5.076127 0.001325  3.140791 -1.570796 0.000000
42  6.312404 -4.528058 0.001311  -3.090497 -1.570796 0.000000
43  2.233307 1.152535 -7.309139  -1.303887 -1.649637 -0.437246
44  -5.952957 -2.602895 0.029162  0.000000 -0.000000 0.000000
time 22
0  1.727579 0.771445 38.778515  0.000000 -0.000000 -1.701715
1  0.484716 -0.085940 0.000004  -1.570797 -1.570451 0.000002
2  0.000001 0.000007 4.427392  -0.174582 -3.057823 -0.019018
3  18.465939 -0.000000 -0.000000  -0.000000 -0.000000 -0.307042
4  14.875444 -0.000002 0.000000  -0.087407 -0.072722 0.256422
5  0.000012 -0.000004 -4.427392  0.123938 2.980830 -0.024109
6  18.465939 -0.000000 -0.000001  0.000000 0.000000 -0.217181
7  14.875443 0.000000 0.000001  -0.015998 0.156485 0.172924
8  2.255209 -0.007574 0.000003  0.121932 -0.011745 -0.047446
9  9.514227 -0.009357 -0.000000  -0.008667 0.002580 -0.052281
10  11.752190 -0.001494 0.000000  0.000024 0.043599 0.440031
11  -2.111790 0.863598 2.563792  0.666442 -1.215199 2.056492
12  4.640935 0.000003 -0.000002  0.756703 0.948820 0.713174
13  10.828037 0.000000 0.000001  0.696113 -0.183452 -1.546380
14  9.393341 -0.000000 -0.000011  1.721478 -0.523262 -0.220616
15  1.442243 0.107456 -1.746180  1.710740 0.781590 0.365230
16  1.063451 0.000000 0.000003  0.000000 -0.000000 0.199056
17  1.376301 0.000008 0.000002  0.000000 0.000000 0.600473
18  4.172844 -0.251360 -1.312745  -0.005361 -0.000073 0.008928
19  1.215375 0.000005 0.000000  -0.000000 -0.000000 0.506106
20  1.215375 -0.000003 0.000001  0.000000 -0.000000 0.506106
21  4.220533 -0.244849 -0.431466  -0.004372 0.025906 -0.069865
22  1.350424 0.000001 -0.000001  0.000000 -0.000000 0.532308
23  1.350411 0.000005 -0.000000  0.000000 0.000000 0.532308
24  -1.885212 0.863607 -2.731758  -1.068895 1.168982 1.681693
25  4.640942 -0.000002 0.000005  0.107321 -0.111609 -0.152627
26  10.828045 -0.000001 0.000010  1.714929 -0.636827 -1.907372
27  9.393343 0.000007 -0.000001  0.743796 -0.365046 0.157755
28  1.442238 0.107452 1.746173  -2.047067 -0.542719 0.863657
29  1.063455 -0.000005 -0.000002  -0.000000 -0.000000 -0.054011
30  1.376306 0.000006 -0.000003  0.000000 -0.000000 0.600477
31  4.172843 -0.251366 1.312733  -0.014726 -0.094940 0.218785
32  1.215372 0.000002 0.000006  -0.000000 -0.000000 0.715581
33  1.215374 0.000000 0.000006  -0.000000 0.000000 0.715581
34  4.220529 -0.244854 0.431458  -0.001333 -0.026242 0.148339
35  1.350415 -0.000002 -0.000007  -0.000000 0.000000 0.863937
36  1.350409 -0.000002 0.000004  0.000000 0.000000 0.863925
37  4.262820 -0.232722 -1.392184  0.016840 0.076668 0.253759
38  2.110552 -0.000001 -0.000000  0.003188 -0.010854 -0.174106
39  0.891925 2.373050 -0.014527  -3.141592 -0.000001 1.413797
40  7.228120 5.709446 3.726567  3.140796 -1.570796 0.000000
41  2.450424 5.076127 0.001325  3.140791 -1.570796 0.000000
42  6.312409 -4.528058 0.001311  -3.095906 -1.570796 0.000000
43  2.233309 1.152535 -7.309139  -1.305517 -1.649608 -0.436959
44  -5.952957 -2.602895 0.029162  0.000000 -0.000000 0.000000
time 23
0  1.727579 0.771445 38.778515  0.000000 -0.000000 -1.701715
1  0.422214 -0.093753 0.000004  -1.570797 -1.570451 0.000002
2  -0.000002 0.000007 4.427393  -0.174390 -3.057445 -0.021973
3  18.465939 -0.000000 0.000000  -0.000000 -0.000000 -0.309528
4  14.875445 -0.000002 -0.000001  -0.087407 -0.072637 0.255948
5  0.000010 -0.000004 -4.427392  0.123459 2.980926 -0.027290
6  18.465944 -0.000000 0.000000  -0.000000 -0.000000 -0.220135
7  14.875443 0.000000 -0.000000  -0.016033 0.156000 0.172737
8  2.255207 -0.007574 0.000003  0.121975 -0.012452 -0.041688
9  9.514226 -0.009357 0.000000  -0.008667 0.002607 -0.052281
10  11.752188 -0.001494 0.000000  0.000024 0.043599 0.440031
11  -2.111797 0.863596 2.563792  0.666442 -1.215199 2.056492
12  4.640935 0.000003 -0.000004  0.756703 0.948820 0.713174
13  10.828042 -0.000001 0.000003  0.696113 -0.183452 -1.546379
14  9.393341 -0.000002 -0.000019  1.721478 -0.523262 -0.220616
15  1.442241 0.107446 -1.746182  1.710740 0.781590 0.365230
16  1.063451 0.000005 0.000002  0.000000 -0.000000 0.199056
17  1.376303 0.000001 0.000000  -0.000000 -0.000000 0.600473
18  4.172841 -0.251373 -1.312749  -0.005361 -0.000073 0.008928
19  1.215373 -0.000001 0.000000  -0.000000 -0.000000 0.506106
20  1.215377 0.000001 0.000008  0.000000 -0.000000 0.506106
21  4.220531 -0.244860 -0.431467  -0.004372 0.025906 -0.069865
22  1.350421 0.000003 -0.000001  -0.000000 -0.000000 0.532308
23  1.350413 0.000002 0.000000  0.000000 0.000000 0.532308
24  -1.885225 0.863608 -2.731758  -1.068895 1.168982 1.681693
25  4.640943 -0.000002 0.000003  0.107321 -0.111609 -0.152627
26  10.828046 -0.000001 0.000008  1.714929 -0.636827 -1.907372
27  9.393342 0.000005 -0.000002  0.743796 -0.365046 0.157755
28  1.442247 0.107453 1.746176  -2.047067 -0.542719 0.863657
29  1.063452 -0.000002 -0.000002  0.000000 0.000000 -0.054011
30  1.376306 0.000004 0.000002  0.000000 0.000000 0.600477
31  4.172849 -0.251365 1.312742  -0.014726 -0.094940 0.218785
32  1.215372 0.000001 0.000004  -0.000000 0.000000 0.715581
33  1.215374 0.000001 0.000002  -0.000000 0.000000 0.715581
34  4.220534 -0.244854 0.431465  -0.001333 -0.026242 0.148339
35  1.350413 0.000002 -0.000013  -0.000000 -0.000000 0.863937
36  1.350411 -0.000002 0.000002  -0.000000 -0.000000 0.863925
37  4.262827 -0.232720 -1.392180  0.016840 0.076668 0.253759
38  2.110540 -0.000003 0.000000  0.003342 -0.010764 -0.177026
39  0.891927 2.373048 -0.014527  -3.141592 -0.000001 1.413797
40  7.228119 5.709445 3.726567  3.140796 -1.570796 0.000000
41  2.450426 5.076126 0.001325  3.140791 -1.570796 0.000000
42  6.312411 -4.528057 0.001311  -3.101724 -1.570796 0.000000
43  2.233307 1.152535 -7.309138  -1.307242 -1.649579 -0.436576
44  -5.952957 -2.602895 0.029162  0.000000 -0.000000 0.000000
time 24
0  1.727579 0.771445 38.778515  0.000000 -0.000000 -1.701715
1  0.355807 -0.101566 0.000004  -1.570797 -1.570451 0.000002
2  -0.000002 0.000007 4.427392  -0.174103 -3.056971 -0.025118
3  18.465944 -0.000000 0.000000  0.000000 0.000000 -0.312160
4  14.875441 -0.000002 0.000000  -0.087407 -0.072509 0.255434
5  0.000010 -0.000004 -4.427392  0.122980 2.981022 -0.030660
6  18.465940 -0.000000 -0.000000  -0.000000 -0.000000 -0.223154
7  14.875443 0.000000 0.000000  -0.016068 0.155545 0.172511
8  2.255207 -0.007574 0.000003  0.122017 -0.013179 -0.035667
9  9.514222 -0.009357 0.000000  -0.008667 0.002621 -0.052281
10  11.752188 -0.001494 0.000000  0.000024 0.043599 0.440031
11  -2.111790 0.863597 2.563792  0.666442 -1.215199 2.056492
12  4.640937 0.000003 -0.000003  0.756704 0.948820 0.713174
13  10.828033 0.000003 -0.000001  0.696113 -0.183452 -1.546379
14  9.393342 -0.000003 -0.000008  1.721478 -0.523262 -0.220616
15  1.442241 0.107450 -1.746179  1.710740 0.781590 0.365230
16  1.063452 -0.000002 -0.000003  0.000000 -0.000000 0.199056
17  1.376303 0.000009 -0.000000  -0.000000 0.000000 0.600473
18  4.172841 -0.251361 -1.312745  -0.005361 -0.000073 0.008928
19  1.215372 0.000001 -0.000001  0.000000 -0.000000 0.506106
20  1.215375 -0.000002 0.000007  0.000000 -0.000000 0.506106
21  4.220529 -0.244850 -0.431463  -0.004372 0.025906 -0.069865
22  1.350420 0.000003 -0.000001  -0.000000 -0.000000 0.532308
23  1.350410 0.000007 0.000001  0.000000 0.000000 0.532308
24  -1.885216 0.863608 -2.731758  -1.068895 1.168982 1.681693
25  4.640941 -0.000002 0.000001  0.107321 -0.111609 -0.152627
26  10.828047 -0.000001 0.000007  1.714929 -0.636827 -1.907372
27  9.393339 0.000002 -0.000003  0.743796 -0.365046 0.157755
28  1.442242 0.107455 1.746175  -2.047067 -0.542719 0.863657
29  1.063451 -0.000004 0.000001  -0.000000 -0.000000 -0.054011
30  1.376307 -0.000006 -0.000003  0.000000 0.000000 0.600477
31  4.172846 -0.251364 1.312740  -0.014726 -0.094940 0.218785
32  1.215372 -0.000001 0.000000  -0.000000 -0.000000 0.715581
33  1.215374 0.000000 0.000003  -0.000000 -0.000000 0.715581
34  4.220533 -0.244851 0.431459  -0.001333 -0.026242 0.148339
35  1.350419 0.000000 -0.000007  0.000000 0.000000 0.863937
36  1.350412 -0.000003 -0.000004  -0.000000 -0.000000 0.863925
37  4.262824 -0.232720 -1.392179  0.016840 0.076668 0.253759
38  2.110542 0.000000 -0.000000  0.003496 -0.010673 -0.180039
39  0.891921 2.373050 -0.014527  -3.141592 -0.000001 1.413797
40  7.228120 5.709445 3.726567  3.140796 -1.570796 0.000000
41  2.450416 5.076127 0.001325  3.140791 -1.570796 0.000000
42  6.312403 -4.528058 0.001311  -3.107796 -1.570796 0.000000
43  2.233307 1.152535 -7.309139  -1.309160 -1.649550 -0.436289
44  -5.952957 -2.602895 0.029162  0.000000 -0.000000 0.000000
time 25
0  1.727579 0.771445 38.778515  0.000000 -0.000000 -1.701715
1  0.289398 -0.109378 0.000000  -1.570797 -1.570451 0.000002
2  -0.000002 0.000007 4.427393  -0.173815 -3.056498 -0.028263
3  18.465940 -0.000000 0.000001  -0.000000 0.000000 -0.314865
4  14.875443 -0.000002 -0.000000  -0.087371 -0.072403 0.254920
5  0.000010 -0.000003 -4.427392  0.122501 2.981022 -0.034029
6  18.465940 -0.000000 -0.000001  0.000000 -0.000000 -0.226305
7  14.875443 -0.000000 -0.000000  -0.016103 0.155030 0.172286
8  2.255207 -0.007574 0.000003  0.122017 -0.013945 -0.029545
9  9.514224 -0.009357 0.000000  -0.008667 0.002648 -0.052281
10  11.752187 -0.001494 0.000000  0.000024 0.043599 0.440031
11  -2.111796 0.863600 2.563792  0.666442 -1.215199 2.056492
12  4.640938 0.000002 0.000004  0.756703 0.948820 0.713174
13  10.828036 0.000001 0.000000  0.696113 -0.183452 -1.546379
14  9.393345 0.000001 -0.000013  1.721478 -0.523262 -0.220616
15  1.442240 0.107453 -1.746183  1.710740 0.781590 0.365230
16  1.063450 -0.000002 0.000003  -0.000000 0.000000 0.199056
17  1.376303 0.000006 -0.000005  0.000000 0.000000 0.600473
18  4.172841 -0.251366 -1.312749  -0.005361 -0.000073 0.008928
19  1.215372 0.000004 0.000001  0.000000 -0.000000 0.506106
20  1.215374 0.000000 0.000003  0.000000 0.000000 0.506106
21  4.220530 -0.244854 -0.431467  -0.004372 0.025906 -0.069865
22  1.350421 0.000001 -0.000002  -0.000000 0.000000 0.532308
23  1.350412 0.000006 -0.000000  0.000000 -0.000000 0.532308
24  -1.885222 0.863611 -2.731758  -1.068895 1.168982 1.681693
25  4.640944 -0.000002 -0.000003  0.107321 -0.111609 -0.152627
26  10.828046 -0.000002 0.000008  1.714929 -0.636827 -1.907372
27  9.393340 0.000002 -0.000003  0.743796 -0.365046 0.157755
28  1.442244 0.107456 1.746174  -2.047067 -0.542719 0.863657
29  1.063450 -0.000005 0.000003  -0.000000 -0.000000 -0.054011
30  1.376306 0.000001 0.000003  0.000000 -0.000000 0.600477
31  4.172848 -0.251363 1.312739  -0.014726 -0.094940 0.218785
32  1.215374 0.000001 0.000002  -0.000000 -0.000000 0.715581
33  1.215376 -0.000000 0.000006  -0.000000 0.000000 0.715581
34  4.220532 -0.244850 0.431458  -0.001333 -0.026242 0.148339
35  1.350413 -0.000003 -0.000003  -0.000000 -0.000000 0.863937
36  1.350408 -0.000002 -0.000000  -0.000000 -0.000000 0.863925
37  4.262825 -0.232717 -1.392184  0.016840 0.076668 0.253759
38  2.110537 0.000002 -0.000000  0.003599 -0.010583 -0.183147
39  0.891915 2.373051 -0.014527  -3.141592 -0.000001 1.413797
40  7.228120 5.709445 3.726567  3.140796 -1.570796 0.000000
41  2.450422 5.076127 0.001325  3.140791 -1.570796 0.000000
42  6.312409 -4.528058 0.001311  -3.113971 -1.570796 0.000000
43  2.233307 1.152535 -7.309138  -1.310981 -1.649491 -0.435906
44  -5.952957 -2.602895 0.029162  0.000000 -0.000000 0.000000
time 26
0  1.727579 0.771445 38.778515  0.000000 -0.000000 -1.701715
1  0.222989 -0.117191 0.000000  -1.570797 -1.570451 0.000002
2  -0.000002 0.000007 4.427393  -0.173623 -3.056119 -0.031409
3  18.465940 -0.000000 0.000001  0.000000 -0.000000 -0.317570
4  14.875443 -0.000002 0.000001  -0.087371 -0.072297 0.254407
5  0.000010 -0.000004 -4.427392  0.122022 2.981117 -0.037491
6  18.465939 -0.000000 -0.000000  -0.000000 -0.000000 -0.229390
7  14.875443 -0.000000 -0.000001  -0.016103 0.154545 0.172061
8  2.255207 -0.007574 0.000003  0.122059 -0.014691 -0.023391
9  9.514225 -0.009357 0.000000  -0.008667 0.002661 -0.052281
10  11.752192 -0.001494 0.000000  0.000024 0.043599 0.440031
11  -2.111791 0.863598 2.563791  0.666442 -1.215199 2.056492
12  4.640934 0.000002 -0.000004  0.756703 0.948820 0.713174
13  10.828039 0.000002 0.000003  0.696113 -0.183452 -1.546379
14  9.393344 -0.000001 -0.000014  1.721478 -0.523262 -0.220616
15  1.442242 0.107451 -1.746180  1.710740 0.781590 0.365230
16  1.063451 0.000000 0.000002  0.000000 -0.000000 0.199056
17  1.376302 0.000006 -0.000001  0.000000 0.000000 0.600473
18  4.172843 -0.251362 -1.312747  -0.005361 -0.000073 0.008928
19  1.215373 0.000002 -0.000000  0.000000 -0.000000 0.506106
20  1.215374 0.000002 0.000004  -0.000000 -0.000000 0.506106
21  4.220531 -0.244853 -0.431466  -0.004372 0.025906 -0.069865
22  1.350419 0.000000 -0.000001  -0.000000 0.000000 0.532308
23  1.350412 0.000002 0.000001  0.000000 0.000000 0.532308
24  -1.885215 0.863607 -2.731758  -1.068895 1.168982 1.681693
25  4.640941 -0.000002 0.000005  0.107321 -0.111609 -0.152627
26  10.828041 -0.000003 0.000010  1.714929 -0.636827 -1.907372
27  9.393341 -0.000002 -0.000001  0.743796 -0.365046 0.157755
28  1.442244 0.107452 1.746177  -2.047067 -0.542719 0.863657
29  1.063452 -0.000008 -0.000000  0.000000 0.000000 -0.054011
30  1.376304 0.000003 -0.000001  0.000000 -0.000000 0.600477
31  4.172848 -0.251365 1.312741  -0.014726 -0.094940 0.218785
32  1.215374 0.000003 0.000002  -0.000000 0.000000 0.715581
33  1.215374 -0.000001 0.000001  -0.000000 0.000000 0.715581
34  4.220533 -0.244854 0.431465  -0.001333 -0.026242 0.148339
35  1.350416 -0.000001 -0.000004  -0.000000 0.000000 0.863937
36  1.350407 -0.000001 -0.000001  -0.000000 0.000000 0.863925
37  4.262825 -0.232722 -1.392177  0.016840 0.076668 0.253759
38  2.110548 -0.000001 -0.000000  0.003753 -0.010493 -0.186207
39  0.891929 2.373048 -0.014527  -3.141592 -0.000001 1.413797
40  7.228123 5.709446 3.726568  3.140796 -1.570796 0.000000
41  2.450421 5.076128 0.001325  3.140791 -1.570796 0.000000
42  6.312408 -4.528058 0.001311  -3.120145 -1.570796 0.000000
43  2.233307 1.152535 -7.309138  -1.312899 -1.649462 -0.435619
44  -5.952957 -2.602895 0.029162  0.000000 -0.000000 0.000000
time 27
0  1.727579 0.771445 38.778515  0.000000 -0.000000 -1.701715
1  0.160488 -0.125004 0.000000  -1.570797 -1.570451 0.000002
2  -0.000000 0.000007 4.427393  -0.173336 -3.055646 -0.034554
3  18.465944 -0.000000 0.000000  -0.000000 0.000000 -0.320202
4  14.875443 -0.000001 -0.000001  -0.087371 -0.072190 0.253933
5  0.000011 -0.000004 -4.427393  0.121542 2.981213 -0.040767
6  18.465940 -0.000000 0.000001  -0.000000 0.000000 -0.232474
7  14.875441 0.000000 -0.000000  -0.016138 0.154060 0.171874
8  2.255208 -0.007574 0.000003  0.122059 -0.015437 -0.017369
9  9.514223 -0.009357 0.000000  -0.008667 0.002688 -0.052281
10  11.752192 -0.001494 0.000000  0.000024 0.043599 0.440031
11  -2.111798 0.863596 2.563792  0.666442 -1.215199 2.056492
12  4.640934 0.000002 0.000001  0.756703 0.948820 0.713174
13  10.828032 -0.000001 0.000001  0.696113 -0.183452 -1.546379
14  9.393341 -0.000003 -0.000013  1.721478 -0.523262 -0.220616
15  1.442241 0.107449 -1.746181  1.710740 0.781590 0.365230
16  1.063451 -0.000004 0.000001  -0.000000 -0.000000 0.199056
17  1.376305 0.000008 0.000002  0.000000 0.000000 0.600473
18  4.172843 -0.251368 -1.312747  -0.005361 -0.000073 0.008928
19  1.215373 0.000003 -0.000001  0.000000 -0.000000 0.506106
20  1.215374 -0.000004 0.000002  0.000000 0.000000 0.506106
21  4.220530 -0.244857 -0.431467  -0.004372 0.025906 -0.069865
22  1.350419 0.000005 -0.000003  0.000000 0.000000 0.532308
23  1.350410 0.000004 -0.000001  0.000000 -0.000000 0.532308
24  -1.885222 0.863607 -2.731758  -1.068895 1.168982 1.681693
25  4.640943 -0.000002 0.000010  0.107321 -0.111609 -0.152627
26  10.828049 -0.000000 0.000003  1.714929 -0.636827 -1.907372
27  9.393339 0.000002 -0.000002  0.743796 -0.365046 0.157755
28  1.442245 0.107452 1.746176  -2.047067 -0.542719 0.863657
29  1.063452 -0.000010 0.000001  0.000000 0.000000 -0.054011
30  1.376305 0.000006 0.000000  -0.000000 -0.000000 0.600477
31  4.172848 -0.251367 1.312739  -0.014726 -0.094940 0.218785
32  1.215375 0.000002 0.000003  0.000000 -0.000000 0.715581
33  1.215369 -0.000002 0.000014  -0.000000 0.000000 0.715581
34  4.220533 -0.244854 0.431463  -0.001333 -0.026242 0.148339
35  1.350417 -0.000003 -0.000010  -0.000000 -0.000000 0.863937
36  1.350407 -0.000001 0.000002  0.000000 0.000000 0.863925
37  4.262825 -0.232721 -1.392180  0.016840 0.076668 0.253759
38  2.110543 -0.000002 0.000000  0.003908 -0.010403 -0.189221
39  0.891918 2.373051 -0.014527  -3.141592 -0.000001 1.413797
40  7.228127 5.709446 3.726568  3.140796 -1.570796 0.000000
41  2.450414 5.076127 0.001325  3.140791 -1.570796 0.000000
42  6.312401 -4.528058 0.001311  -3.126218 -1.570796 0.000000
43  2.233308 1.152535 -7.309139  -1.314720 -1.649433 -0.435236
44  -5.952957 -2.602895 0.029162  0.000000 -0.000000 0.000000
time 28
0  1.727579 0.771445 38.778515  0.000000 -0.000000 -1.701715
1  0.097986 -0.132817 0.000000  -1.570797 -1.570451 0.000002
2  0.000001 0.000007 4.427392  -0.173049 -3.055267 -0.037604
3  18.465948 -0.000000 0.000001  -0.000000 -0.000000 -0.322760
4  14.875445 -0.000002 0.000000  -0.087371 -0.072084 0.253459
5  0.000012 -0.000004 -4.427392  0.121063 2.981309 -0.043949
6  18.465942 -0.000000 -0.000001  -0.000000 -0.000000 -0.235362
7  14.875445 0.000001 0.000001  -0.016173 0.153605 0.171649
8  2.255209 -0.007574 0.000003  0.122101 -0.016144 -0.011612
9  9.514223 -0.009357 0.000000  -0.008667 0.002701 -0.052281
10  11.752190 -0.001494 0.000000  0.000024 0.043599 0.440031
11  -2.111789 0.863597 2.563792  0.666442 -1.215199 2.056492
12  4.640935 0.000002 -0.000002  0.756703 0.948820 0.713174
13  10.828035 0.000002 -0.000000  0.696113 -0.183452 -1.546379
14  9.393341 -0.000001 -0.000010  1.721478 -0.523262 -0.220616
15  1.442244 0.107454 -1.746181  1.710740 0.781590 0.365230
16  1.063450 -0.000003 0.000002  -0.000000 -0.000000 0.199056
17  1.376303 0.000004 0.000000  -0.000000 0.000000 0.600473
18  4.172844 -0.251362 -1.312747  -0.005361 -0.000073 0.008928
19  1.215374 0.000001 -0.000000  0.000000 -0.000000 0.506106
20  1.215376 -0.000006 0.000004  -0.000000 -0.000000 0.506106
21  4.220533 -0.244852 -0.431466  -0.004372 0.025906 -0.069865
22  1.350423 0.000002 -0.000000  -0.000000 0.000000 0.532308
23  1.350409 0.000002 0.000001  0.000000 0.000000 0.532308
24  -1.885215 0.863609 -2.731758  -1.068895 1.168982 1.681693
25  4.640942 -0.000002 0.000005  0.107321 -0.111609 -0.152627
26  10.828043 -0.000003 0.000007  1.714929 -0.636827 -1.907372
27  9.393336 -0.000001 -0.000000  0.743796 -0.365046 0.157755
28  1.442243 0.107452 1.746181  -2.047067 -0.542719 0.863657
29  1.063452 -0.000003 -0.000002  -0.000000 0.000000 -0.054011
30  1.376307 0.000001 0.000004  0.000000 -0.000000 0.600477
31  4.172848 -0.251367 1.312746  -0.014726 -0.094940 0.218785
32  1.215377 0.000004 -0.000001  -0.000000 -0.000000 0.715581
33  1.215372 -0.000001 0.000005  -0.000000 -0.000000 0.715581
34  4.220534 -0.244855 0.431464  -0.001333 -0.026242 0.148339
35  1.350415 -0.000003 -0.000004  0.000000 0.000000 0.863937
36  1.350408 -0.000003 -0.000001  -0.000000 -0.000000 0.863925
37  4.262824 -0.232722 -1.392174  0.016840 0.076668 0.253759
38  2.110547 0.000001 0.000000  0.004062 -0.010312 -0.192140
39  0.891918 2.373051 -0.014527  -3.141592 -0.000001 1.413797
40  7.228121 5.709444 3.726567  3.140796 -1.570796 0.000000
41  2.450419 5.076127 0.001325  3.140791 -1.570796 0.000000
42  6.312403 -4.528058 0.001311  -3.132035 -1.570796 0.000000
43  2.233309 1.152535 -7.309138  -1.316542 -1.649404 -0.434949
44  -5.952957 -2.602895 0.029162  0.000000 -0.000000 0.000000
time 29
0  1.727579 0.771445 38.778515  0.000000 -0.000000 -1.701715
1  0.039390 -0.140629 0.000000  -1.570797 -1.570451 0.000002
2  -0.000000 0.000007 4.427393  -0.172857 -3.054888 -0.040368
3  18.465933 0.000000 0.000000  -0.000000 -0.000000 -0.325173
4  14.875443 -0.000002 0.000001  -0.087336 -0.071977 0.252985
5  0.000011 -0.000004 -4.427392  0.120680 2.981404 -0.046944
6  18.465940 0.000000 0.000001  -0.000000 0.000000 -0.238119
7  14.875440 -0.000000 -0.000001  -0.016173 0.153181 0.171461
8  2.255208 -0.007574 0.000003  0.122101 -0.016792 -0.006219
9  9.514221 -0.009357 0.000000  -0.008667 0.002715 -0.052281
10  11.752184 -0.001494 0.000000  0.000024 0.043599 0.440031
11  -2.111792 0.863596 2.563792  0.666442 -1.215199 2.056492
12  4.640936 0.000003 0.000001  0.756703 0.948820 0.713174
13  10.828044 0.000000 -0.000001  0.696113 -0.183452 -1.546379
14  9.393340 -0.000001 -0.000015  1.721478 -0.523262 -0.220616
15  1.442241 0.107446 -1.746179  1.710740 0.781590 0.365230
16  1.063449 0.000002 -0.000006  -0.000000 -0.000000 0.199056
17  1.376305 0.000001 0.000000  0.000000 0.000000 0.600473
18  4.172843 -0.251367 -1.312746  -0.005361 -0.000073 0.008928
19  1.215373 0.000005 0.000001  -0.000000 -0.000000 0.506106
20  1.215375 -0.000004 0.000003  0.000000 -0.000000 0.506106
21  4.220530 -0.244859 -0.431466  -0.004372 0.025906 -0.069865
22  1.350422 0.000003 -0.000001  -0.000000 -0.000000 0.532308
23  1.350409 0.000001 0.000001  0.000000 -0.000000 0.532308
24  -1.885223 0.863611 -2.731758  -1.068895 1.168982 1.681693
25  4.640940 -0.000002 0.000003  0.107321 -0.111609 -0.152627
26  10.828046 -0.000003 0.000008  1.714929 -0.636827 -1.907372
27  9.393337 0.000003 -0.000002  0.743796 -0.365046 0.157755
28  1.442242 0.107451 1.746188  -2.047067 -0.542719 0.863657
29  1.063451 -0.000002 -0.000003  0.000000 -0.000000 -0.054011
30  1.376306 0.000005 -0.000003  0.000000 -0.000000 0.600477
31  4.172845 -0.251366 1.312751  -0.014726 -0.094940 0.218785
32  1.215372 -0.000001 -0.000001  0.000000 -0.000000 0.715581
33  1.215373 -0.000002 0.000001  -0.000000 0.000000 0.715581
34  4.220531 -0.244854 0.431471  -0.001333 -0.026242 0.148339
35  1.350415 -0.000000 -0.000015  0.000000 0.000000 0.863937
36  1.350410 -0.000001 -0.000003  -0.000000 0.000000 0.863925
37  4.262824 -0.232721 -1.392173  0.016840 0.076668 0.253759
38  2.110538 0.000001 -0.000001  0.004216 -0.010252 -0.194871
39  0.891927 2.373049 -0.014527  -3.141592 -0.000001 1.413797
40  7.228116 5.709445 3.726568  3.140796 -1.570796 0.000000
41  2.450421 5.076128 0.001325  3.140791 -1.570796 0.000000
42  6.312405 -4.528058 0.001311  -3.137495 -1.570796 0.000000
43  2.233308 1.152535 -7.309138  -1.318172 -1.649346 -0.434661
44  -5.952957 -2.602895 0.029162  0.000000 -0.000000 0.000000
time 30
0  1.727579 0.771445 38.778515  0.000000 -0.000000 -1.701715
1  -0.011393 -0.148442 0.000000  -1.570797 -1.570451 0.000002
2  0.000001 0.000007 4.427393  -0.172665 -3.054509 -0.042942
3  18.465946 -0.000000 0.000000  -0.000000 0.000000 -0.327293
4  14.875443 -0.000002 -0.000000  -0.087336 -0.071892 0.252590
5  0.000013 -0.000004 -4.427392  0.120296 2.981404 -0.049658
6  18.465939 -0.000000 -0.000000  -0.000000 0.000000 -0.240613
7  14.875443 0.000000 -0.000000  -0.016208 0.152787 0.171311
8  2.255210 -0.007574 0.000003  0.122101 -0.017401 -0.001322
9  9.514221 -0.009357 0.000000  -0.008667 0.002742 -0.052281
10  11.752191 -0.001494 0.000000  0.000024 0.043599 0.440031
11  -2.111795 0.863597 2.563793  0.666442 -1.215199 2.056492
12  4.640934 0.000002 0.000000  0.756703 0.948820 0.713174
13  10.828040 0.000001 -0.000001  0.696113 -0.183452 -1.546379
14  9.393343 -0.000001 -0.000017  1.721478 -0.523262 -0.220616
15  1.442241 0.107452 -1.746180  1.710740 0.781590 0.365230
16  1.063451 0.000001 -0.000002  0.000000 0.000000 0.199056
17  1.376303 0.000008 -0.000005  0.000000 0.000000 0.600473
18  4.172842 -0.251363 -1.312749  -0.005361 -0.000073 0.008928
19  1.215374 0.000003 0.000001  0.000000 -0.000000 0.506106
20  1.215377 0.000002 0.000003  0.000000 -0.000000 0.506106
21  4.220532 -0.244851 -0.431465  -0.004372 0.025906 -0.069865
22  1.350420 0.000000 -0.000001  -0.000000 0.000000 0.532308
23  1.350410 0.000003 0.000001  0.000000 -0.000000 0.532308
24  -1.885222 0.863608 -2.731758  -1.068895 1.168982 1.681693
25  4.640942 -0.000001 0.000003  0.107321 -0.111609 -0.152627
26  10.828045 -0.000002 0.000003  1.714929 -0.636827 -1.907372
27  9.393339 -0.000003 -0.000001  0.743796 -0.365046 0.157755
28  1.442246 0.107455 1.746181  -2.047067 -0.542719 0.863657
29  1.063452 -0.000009 -0.000005  0.000000 -0.000000 -0.054011
30  1.376306 0.000003 0.000000  0.000000 -0.000000 0.600477
31  4.172849 -0.251363 1.312743  -0.014726 -0.094940 0.218785
32  1.215374 0.000004 0.000004  -0.000000 -0.000000 0.715581
33  1.215369 -0.000001 0.000008  -0.000000 0.000000 0.715581
34  4.220536 -0.244850 0.431465  -0.001333 -0.026242 0.148339
35  1.350411 -0.000001 -0.000002  -0.000000 -0.000000 0.863937
36  1.350410 -0.000002 0.000003  0.000000 0.000000 0.863925
37  4.262828 -0.232718 -1.392177  0.016840 0.076668 0.253759
38  2.110545 -0.000001 0.000000  0.004319 -0.010162 -0.197320
39  0.891920 2.373049 -0.014527  -3.141592 -0.000001 1.413797
40  7.228128 5.709445 3.726568  3.140796 -1.570796 0.000000
41  2.450414 5.076126 0.001325  3.140791 -1.570796 0.000000
42  6.312402 -4.528057 0.001311  3.140791 -1.570796 0.000000
43  2.233310 1.152535 -7.309138  -1.319706 -1.649317 -0.434374
44  -5.952957 -2.602895 0.029162  0.000000 -0.000000 0.000000
end
