version 1
nodes
0 "Bip01" -1
1 "Bip01 Pelvis" 0
2 "Bip01 L Thigh" 1
3 "Bip01 L Calf" 2
4 "Bip01 L Foot" 3
5 "Bip01 R Thigh" 1
6 "Bip01 R Calf" 5
7 "Bip01 R Foot" 6
8 "Bip01 Spine" 1
9 "Bip01 Spine1" 8
10 "Bip01 Neck" 9
11 "Bip01 L Clavicle" 10
12 "Bip01 L UpperArm" 11
13 "Bip01 L Forearm" 12
14 "Bip01 L Hand" 13
15 "Bip01 L Finger0" 14
16 "Bip01 L Finger01" 15
17 "Bip01 L Finger02" 16
18 "Bip01 L Finger1" 14
19 "Bip01 L Finger11" 18
20 "Bip01 L Finger12" 19
21 "Bip01 L Finger2" 14
22 "Bip01 L Finger21" 21
23 "Bip01 L Finger22" 22
24 "Bip01 R Clavicle" 10
25 "Bip01 R UpperArm" 24
26 "Bip01 R Forearm" 25
27 "Bip01 R Hand" 26
28 "Bip01 R Finger0" 27
29 "Bip01 R Finger01" 28
30 "Bip01 R Finger02" 29
31 "Bip01 R Finger1" 27
32 "Bip01 R Finger11" 31
33 "Bip01 R Finger12" 32
34 "Bip01 R Finger2" 27
35 "Bip01 R Finger21" 34
36 "Bip01 R Finger22" 35
37 "Bip01 R Finger4" 27
38 "Bip01 Head" 10
39 "Bone05" 38
40 "Bone08" 9
41 "Bone16" 8
42 "Bone01" 8
43 "Bone03" 1
44 "Line02" -1
end
skeleton
time 0
0  0.157219 2.949998 40.543270  0.000000 0.218047 -1.570843
1  0.129237 -0.000000 0.000003  -0.000030 -1.484710 -1.570772
2  -0.000004 0.000009 4.427393  -0.006337 3.134084 -0.899631
3  18.465939 -0.000002 0.000001  0.000000 -0.000000 -1.281344
4  14.875443 -0.000002 -0.000000  0.016263 -0.074638 0.141269
5  0.000007 -0.000003 -4.427393  0.028480 3.103278 0.031763
6  18.465939 0.000000 0.000000  -0.000000 -0.000000 -0.667119
7  14.875441 -0.000003 -0.000001  0.031593 -0.044042 -0.450656
8  2.247396 -0.007572 0.191415  0.009953 -0.085509 -0.116268
9  9.514225 -0.009357 -0.000000  -0.000000 0.000000 0.213236
10  11.752189 -0.001492 0.000000  -0.000000 -0.000001 -0.045449
11  -2.170385 -0.171592 2.649731  0.394238 -1.354680 2.800264
12  4.640937 0.000001 -0.000002  -0.811311 0.589987 -0.810395
13  10.828040 0.000003 0.000001  -0.032068 0.304685 -0.796076
14  9.393332 -0.000005 0.000000  -1.568874 0.118593 -0.085388
15  1.442243 0.107453 -1.746181  1.742810 0.349042 0.431626
16  1.063453 0.000009 -0.000003  0.000000 0.000000 0.174535
17  1.376307 -0.000002 -0.000001  0.000000 0.000000 0.174529
18  4.172841 -0.251366 -1.312750  0.069543 0.066333 0.874883
19  1.215373 0.000001 -0.000003  0.000000 -0.000000 1.247894
20  1.215378 -0.000002 0.000003  0.000000 -0.000000 1.247894
21  4.220530 -0.244857 -0.431465  0.018387 0.018764 0.872814
22  1.350418 0.000005 0.000004  0.000000 -0.000000 1.247901
23  1.350408 0.000001 -0.000003  -0.000000 -0.000000 1.247901
24  -2.170393 -0.171575 -2.649723  -0.550977 1.337235 2.647444
25  4.640940 0.000002 0.000000  0.091058 -0.790935 -0.225741
26  10.828050 -0.000003 0.000003  0.332552 -0.398159 -1.597063
27  9.393342 -0.000002 0.000002  1.568893 -0.118616 -0.085351
28  1.442245 0.107453 1.746177  -1.742773 -0.349066 0.431617
29  1.063453 0.000003 0.000001  0.000000 -0.000000 0.174535
30  1.376307 -0.000002 -0.000001  0.000000 0.000000 0.174532
31  4.172844 -0.251363 1.312748  -0.069543 -0.066333 0.874883
32  1.215374 0.000003 -0.000007  -0.000000 -0.000000 1.247903
33  1.215371 0.000000 0.000001  0.000000 0.000000 1.247903
34  4.220536 -0.244849 0.431463  -0.018387 -0.018764 0.872814
35  1.350411 0.000001 0.000001  0.000000 0.000000 1.247903
36  1.350405 -0.000004 0.000007  0.000000 -0.000000 1.247881
37  4.262827 -0.232722 -1.392179  0.058247 0.052627 0.874232
38  2.110541 -0.000001 -0.000000  0.000000 0.000001 -0.043206
39  0.891924 2.373050 -0.014527  -3.141592 -0.000001 1.413797
40  7.228121 5.709445 3.726569  3.140796 -1.570796 0.000000
41  2.450420 5.076127 0.001325  3.079792 -1.570796 0.000000
42  6.312404 -4.528059 0.001311  -3.055134 -1.570796 0.000000
43  2.233313 1.152536 -7.309138  -1.454790 -1.588242 -0.194544
44  -5.952957 -2.602895 0.029162  0.000000 -0.000000 0.000000
time 1
0  0.219721 -10.121395 40.905678  0.000000 0.218047 -1.570843
1  0.820665 0.000000 0.000001  -0.000030 -1.516931 -1.570773
2  -0.000002 0.000008 4.427393  0.011675 3.118082 -0.924698
3  18.465937 0.000001 0.000000  -0.000000 0.000000 -0.580976
4  14.875445 0.000001 -0.000000  -0.042931 -0.035092 0.056692
5  0.000000 -0.000004 -4.427394  0.028480 3.121071 0.072286
6  18.465939 0.000001 0.000000  -0.000000 0.000000 -0.923102
7  14.875442 0.000001 -0.000001  0.022011 -0.034918 -0.278788
8  2.251298 -0.007575 0.121100  0.010080 -0.052909 -0.189160
9  9.514224 -0.009358 -0.000000  0.000000 -0.000000 0.235426
10  11.752193 -0.001492 0.000000  0.000000 -0.000001 -0.067147
11  -2.166482 -0.218467 2.649729  0.255802 -1.364274 2.957270
12  4.640940 0.000001 0.000005  -0.814749 0.590776 -0.813681
13  10.828044 -0.000002 -0.000002  -0.033968 0.305442 -0.797082
14  9.393330 -0.000001 -0.000000  -1.568874 0.118593 -0.085388
15  1.442242 0.107453 -1.746179  1.742810 0.349042 0.431626
16  1.063454 0.000000 -0.000002  -0.000000 0.000000 0.174535
17  1.376311 0.000001 0.000000  0.000000 -0.000000 0.174529
18  4.172843 -0.251367 -1.312745  0.069543 0.066333 0.874883
19  1.215374 -0.000003 -0.000006  -0.000000 -0.000000 1.247894
20  1.215377 -0.000001 0.000004  0.000000 -0.000000 1.247894
21  4.220529 -0.244858 -0.431467  0.018387 0.018764 0.872814
22  1.350420 -0.000000 -0.000002  0.000000 0.000000 1.247901
23  1.350408 -0.000004 -0.000004  -0.000000 0.000000 1.247901
24  -2.166486 -0.218453 -2.649724  -0.642805 1.322770 2.579927
25  4.640939 0.000000 -0.000008  0.091058 -0.790935 -0.225741
26  10.828047 -0.000003 0.000003  0.335753 -0.399311 -1.598103
27  9.393339 0.000003 0.000001  1.568893 -0.118616 -0.085351
28  1.442244 0.107451 1.746176  -1.742773 -0.349066 0.431617
29  1.063453 -0.000006 0.000000  0.000000 -0.000000 0.174535
30  1.376307 -0.000003 0.000000  0.000000 -0.000000 0.174532
31  4.172843 -0.251362 1.312747  -0.069543 -0.066333 0.874883
32  1.215373 0.000003 -0.000000  -0.000000 -0.000000 1.247903
33  1.215373 0.000002 0.000004  0.000000 0.000000 1.247903
34  4.220534 -0.244847 0.431465  -0.018387 -0.018764 0.872814
35  1.350412 0.000001 -0.000010  0.000000 0.000000 1.247903
36  1.350402 -0.000006 -0.000001  0.000000 0.000000 1.247881
37  4.262825 -0.232721 -1.392179  0.058247 0.052627 0.874232
38  2.110546 -0.000003 -0.000000  0.000000 0.000001 0.029355
39  0.891917 2.373050 -0.014527  -3.141592 -0.000001 1.413797
40  7.228119 5.709444 3.726569  2.908467 -1.570796 0.000000
41  2.450422 5.076127 0.001325  3.091904 -1.570796 0.000000
42  6.312407 -4.528059 0.001311  -3.024823 -1.570796 0.000000
43  2.233304 1.152534 -7.309139  -1.505890 -1.562088 -0.108474
44  -5.952957 -2.602895 0.029162  0.000000 -0.000000 0.000000
time 2
0  0.344724 -27.914473 40.952946  0.000000 0.218047 -1.570843
1  0.844103 0.000000 0.000003  -0.000030 -1.549152 -1.570773
2  -0.000006 0.000008 4.427393  0.028634 3.104921 -0.914500
3  18.465942 0.000002 0.000000  0.000000 -0.000000 -0.053214
4  14.875444 0.000001 -0.000001  -0.047660 0.019438 -0.033218
5  0.000002 -0.000002 -4.427393  0.027330 3.139055 0.128531
6  18.465933 0.000000 0.000000  0.000000 -0.000000 -1.199891
7  14.875443 0.000001 -0.000001  0.011658 -0.028794 -0.099754
8  2.255207 -0.007574 0.046879  -0.003295 -0.026828 -0.188233
9  9.514218 -0.009356 0.000000  -0.009942 0.013534 0.228217
10  11.752190 -0.001493 -0.000000  -0.000000 -0.000001 -0.088885
11  -2.158672 -0.265339 2.649730  0.088021 -1.370041 -3.139804
12  4.640942 0.000000 0.000008  -0.824086 0.592883 -0.822622
13  10.828045 -0.000002 -0.000000  -0.039127 0.307495 -0.799811
14  9.393338 -0.000005 0.000003  -1.568874 0.118593 -0.085388
15  1.442236 0.107454 -1.746186  1.742810 0.349042 0.431626
16  1.063449 0.000004 -0.000005  -0.000000 0.000000 0.174535
17  1.376306 -0.000000 0.000000  0.000000 -0.000000 0.174529
18  4.172841 -0.251367 -1.312751  0.069543 0.066333 0.874883
19  1.215371 -0.000000 -0.000005  -0.000000 -0.000000 1.247894
20  1.215371 -0.000003 0.000001  0.000000 0.000000 1.247894
21  4.220527 -0.244856 -0.431468  0.018387 0.018764 0.872814
22  1.350418 0.000000 -0.000001  -0.000000 -0.000000 1.247901
23  1.350409 -0.000005 -0.000001  0.000000 0.000000 1.247901
24  -2.158670 -0.265328 -2.649723  -0.722598 1.306853 2.524460
25  4.640942 -0.000003 -0.000002  0.091058 -0.790935 -0.225741
26  10.828050 -0.000005 0.000000  0.344442 -0.402438 -1.600926
27  9.393343 0.000002 0.000004  1.568893 -0.118616 -0.085351
28  1.442244 0.107449 1.746179  -1.742773 -0.349066 0.431617
29  1.063453 -0.000000 0.000002  0.000000 -0.000000 0.174535
30  1.376307 -0.000010 0.000005  0.000000 -0.000000 0.174532
31  4.172843 -0.251364 1.312748  -0.069543 -0.066333 0.874883
32  1.215373 -0.000002 -0.000002  -0.000000 -0.000000 1.247903
33  1.215370 0.000000 0.000003  0.000000 0.000000 1.247903
34  4.220535 -0.244851 0.431469  -0.018387 -0.018764 0.872814
35  1.350414 -0.000002 -0.000007  -0.000000 0.000000 1.247903
36  1.350405 -0.000004 0.000007  0.000000 -0.000000 1.247881
37  4.262828 -0.232727 -1.392173  0.058247 0.052627 0.874232
38  2.110541 0.000003 0.000000  0.018664 -0.009200 0.057465
39  0.891919 2.373048 -0.014527  -3.141592 -0.000001 1.413797
40  7.228116 5.709445 3.726569  2.678324 -1.570796 0.000000
41  2.450419 5.076130 0.001325  3.105947 -1.570796 0.000000
42  6.312402 -4.528056 0.001311  -2.994511 -1.570796 0.000000
43  2.233307 1.152536 -7.309138  -1.570892 -1.544642 0.000096
44  -5.952957 -2.602895 0.029162  0.000000 -0.000000 0.000000
time 3
0  0.547856 -41.892857 38.873055  0.000000 0.218047 -1.570843
1  0.422212 0.000000 0.000004  -0.000029 -1.561081 -1.570775
2  -0.000002 0.000006 4.427393  0.025472 3.091002 -0.813847
3  18.465935 0.000003 0.000000  0.000000 -0.000000 -0.026456
4  14.875445 0.000007 -0.000001  -0.041047 0.036146 -0.184477
5  0.000010 -0.000011 -4.427393  0.025605 3.135803 0.153332
6  18.465939 -0.000000 -0.000000  0.000000 -0.000000 -1.435132
7  14.875442 0.000002 -0.000000  -0.001012 -0.024399 0.064686
8  2.255210 -0.007574 0.019535  0.001304 -0.009624 -0.136584
9  9.514224 -0.009357 -0.000000  -0.000000 0.000000 0.196242
10  11.752194 -0.001491 0.000000  -0.000000 -0.000001 -0.109596
11  -2.154758 -0.308315 2.649730  0.088021 -1.370041 -3.119125
12  4.640941 0.000001 -0.000003  -0.837858 0.595902 -0.835857
13  10.828040 -0.000007 -0.000001  -0.046728 0.310520 -0.803833
14  9.393331 -0.000002 0.000003  -1.568874 0.118593 -0.085388
15  1.442236 0.107454 -1.746173  1.742810 0.349042 0.431626
16  1.063452 0.000004 -0.000004  -0.000000 -0.000000 0.174535
17  1.376309 -0.000004 0.000001  -0.000000 -0.000000 0.174529
18  4.172837 -0.251364 -1.312737  0.069543 0.066333 0.874883
19  1.215371 0.000001 0.000000  -0.000000 -0.000000 1.247894
20  1.215368 -0.000002 0.000002  0.000000 -0.000000 1.247894
21  4.220530 -0.244855 -0.431459  0.018387 0.018764 0.872814
22  1.350420 0.000002 0.000001  0.000000 0.000000 1.247901
23  1.350401 0.000002 -0.000004  0.000000 -0.000000 1.247901
24  -2.154767 -0.308303 -2.649724  -0.673074 1.317141 2.593003
25  4.640940 0.000001 -0.000004  0.091058 -0.790935 -0.225741
26  10.828052 -0.000008 -0.000004  0.357246 -0.407047 -1.605087
27  9.393340 -0.000002 -0.000005  1.568893 -0.118616 -0.085351
28  1.442245 0.107458 1.746176  -1.742773 -0.349066 0.431617
29  1.063453 -0.000001 0.000001  0.000000 -0.000000 0.174535
30  1.376308 0.000003 0.000002  0.000000 -0.000000 0.174532
31  4.172844 -0.251356 1.312746  -0.069543 -0.066333 0.874883
32  1.215374 -0.000002 0.000000  -0.000000 -0.000000 1.247903
33  1.215375 0.000000 0.000001  0.000000 0.000000 1.247903
34  4.220534 -0.244843 0.431463  -0.018387 -0.018764 0.872814
35  1.350414 -0.000003 0.000002  0.000000 0.000000 1.247903
36  1.350402 -0.000005 -0.000000  0.000000 -0.000000 1.247881
37  4.262830 -0.232719 -1.392183  0.058247 0.052627 0.874232
38  2.110546 -0.000003 0.000000  0.000000 0.000001 0.058642
39  0.891919 2.373047 -0.014527  -3.141592 -0.000001 1.413797
40  7.228120 5.709445 3.726569  2.460147 -1.570796 0.000000
41  2.450424 5.076127 0.001325  3.130434 -1.570796 0.000000
42  6.312408 -4.528055 0.001311  -2.988337 -1.570796 0.000000
43  2.233310 1.152531 -7.309139  -1.609954 -1.596980 0.065359
44  -5.952957 -2.602895 0.029162  0.000000 -0.000000 0.000000
time 4
0  1.024433 -55.764538 36.572563  0.000000 0.218047 -1.570843
1  -1.468471 -0.066408 0.000001  -0.000030 -1.464733 -1.570772
2  0.000000 0.000009 4.427392  -0.045045 2.997736 -0.661534
3  18.465937 -0.000002 -0.000000  -0.000000 0.000000 -0.205496
4  14.875443 0.000000 -0.000001  -0.043500 0.045958 -0.230340
5  0.000006 -0.000005 -4.427393  0.030589 3.022826 0.100081
6  18.465940 0.000005 0.000000  0.000000 0.000000 -1.566274
7  14.875444 -0.000001 -0.000001  -0.016910 -0.017063 0.192808
8  2.243494 -0.007573 0.234385  0.086448 -0.052280 0.098636
9  9.514223 -0.009358 -0.000000  0.133149 -0.151913 0.058429
10  11.752194 -0.001491 0.000001  0.000000 -0.000001 -0.125022
11  -2.150853 -0.343472 2.649729  0.088021 -1.370041 -3.103712
12  4.640945 0.000001 -0.000004  -0.854598 0.599431 -0.852020
13  10.828049 0.000003 -0.000001  -0.055959 0.314194 -0.808717
14  9.393329 -0.000004 0.000001  -1.568874 0.118593 -0.085388
15  1.442243 0.107455 -1.746184  1.742810 0.349042 0.431626
16  1.063457 0.000007 0.000003  0.000000 -0.000000 0.174535
17  1.376308 0.000004 -0.000002  -0.000000 -0.000000 0.174529
18  4.172843 -0.251364 -1.312751  0.069543 0.066333 0.874883
19  1.215369 -0.000003 -0.000002  0.000000 -0.000000 1.247894
20  1.215371 0.000000 -0.000001  0.000000 -0.000000 1.247894
21  4.220529 -0.244853 -0.431469  0.018387 0.018764 0.872814
22  1.350418 0.000007 0.000001  -0.000000 -0.000000 1.247901
23  1.350401 -0.000005 -0.000004  0.000000 -0.000000 1.247901
24  -2.150856 -0.343461 -2.649723  0.414786 1.352819 -2.611362
25  4.640940 -0.000000 -0.000015  0.091058 -0.790935 -0.225741
26  10.828050 -0.000015 0.000004  0.372794 -0.412644 -1.610139
27  9.393334 -0.000005 0.000005  1.568893 -0.118616 -0.085351
28  1.442243 0.107450 1.746174  -1.742773 -0.349066 0.431617
29  1.063455 0.000000 0.000004  0.000000 -0.000000 0.174535
30  1.376307 -0.000007 0.000004  0.000000 0.000000 0.174532
31  4.172839 -0.251366 1.312745  -0.069543 -0.066333 0.874883
32  1.215374 0.000007 -0.000008  -0.000000 0.000000 1.247903
33  1.215373 0.000000 -0.000002  0.000000 0.000000 1.247903
34  4.220533 -0.244852 0.431467  -0.018387 -0.018764 0.872814
35  1.350411 -0.000003 0.000008  0.000000 -0.000000 1.247903
36  1.350403 -0.000005 -0.000002  -0.000000 0.000000 1.247881
37  4.262820 -0.232720 -1.392177  0.058247 0.052627 0.874232
38  2.110549 -0.000005 -0.000000  -0.245665 0.069128 -0.028703
39  0.891923 2.373050 -0.014527  -3.141592 -0.000001 1.413797
40  7.228122 5.709447 3.726569  2.837515 -1.570796 0.000000
41  2.450423 5.076127 0.001324  2.896446 -1.570796 0.000000
42  6.312409 -4.528059 0.001311  -3.059676 -1.570796 0.000000
43  2.233312 1.152533 -7.309137  -1.531584 -1.658054 -0.065391
44  -5.952957 -2.602895 0.029162  0.000000 -0.000000 0.000000
time 5
0  1.321317 -69.004875 37.360405  0.000000 0.218047 -1.570843
1  -1.331741 -0.066408 0.000006  -0.000030 -1.381436 -1.570772
2  -0.000004 0.000003 4.427394  -0.060183 2.894907 -0.391794
3  18.465939 0.000000 0.000001  0.000000 -0.000000 -0.480892
4  14.875442 0.000009 -0.000001  -0.023093 0.068370 0.320022
5  0.000003 -0.000005 -4.427393  -0.020015 2.916545 -0.131078
6  18.465937 0.000003 0.000000  -0.000000 -0.000000 -1.522954
7  14.875448 -0.000001 -0.000001  -0.036880 0.007249 0.267206
8  2.216148 -0.007568 0.421893  0.077630 -0.137376 0.082357
9  9.514218 -0.009363 -0.000001  0.126921 -0.145757 0.068690
10  11.752193 -0.001494 -0.000002  -0.000000 -0.000001 0.042250
11  -2.178203 0.019812 2.649733  0.229315 -1.365584 2.873789
12  4.640939 -0.000012 -0.000004  -0.872829 0.603098 -0.869718
13  10.828042 0.000012 -0.000002  -0.066005 0.318192 -0.814032
14  9.393336 -0.000008 -0.000001  -1.568874 0.118593 -0.085388
15  1.442245 0.107450 -1.746178  1.742810 0.349042 0.431626
16  1.063460 0.000005 -0.000001  0.000000 -0.000000 0.174535
17  1.376308 0.000001 -0.000003  0.000000 -0.000000 0.174529
18  4.172838 -0.251368 -1.312738  0.069543 0.066333 0.874883
19  1.215374 -0.000001 0.000001  -0.000000 -0.000000 1.247894
20  1.215378 -0.000001 -0.000000  0.000000 -0.000000 1.247894
21  4.220526 -0.244858 -0.431463  0.018387 0.018764 0.872814
22  1.350412 0.000013 -0.000003  -0.000000 0.000000 1.247901
23  1.350410 -0.000002 -0.000002  0.000000 0.000000 1.247901
24  -2.178205 0.019823 -2.649722  -0.421567 1.352184 2.685817
25  4.640939 0.000010 -0.000001  0.091058 -0.790935 -0.225741
26  10.828054 -0.000006 0.000006  0.389714 -0.418735 -1.615636
27  9.393341 0.000000 0.000012  1.568893 -0.118616 -0.085351
28  1.442252 0.107448 1.746177  -1.742773 -0.349066 0.431617
29  1.063452 -0.000002 0.000007  0.000000 -0.000000 0.174535
30  1.376307 0.000001 -0.000001  0.000000 -0.000000 0.174532
31  4.172844 -0.251359 1.312743  -0.069543 -0.066333 0.874883
32  1.215376 0.000007 -0.000007  -0.000000 0.000000 1.247903
33  1.215371 0.000002 0.000009  0.000000 -0.000000 1.247903
34  4.220536 -0.244843 0.431462  -0.018387 -0.018764 0.872814
35  1.350413 0.000006 0.000001  0.000000 0.000000 1.247903
36  1.350403 -0.000006 0.000003  0.000000 -0.000000 1.247881
37  4.262828 -0.232723 -1.392175  0.058247 0.052627 0.874232
38  2.110541 -0.000009 0.000001  -0.235176 0.068647 -0.189033
39  0.891918 2.373054 -0.014527  -3.141592 -0.000001 1.413797
40  7.228122 5.709444 3.726568  3.140796 -1.570796 0.000000
41  2.450418 5.076120 0.001325  3.001240 -1.570796 0.000000
42  6.312399 -4.528068 0.001311  -3.124942 -1.570796 0.000000
43  2.233309 1.152533 -7.309137  -1.257293 -1.762787 -0.557879
44  -5.952957 -2.602895 0.029162  0.000000 -0.000000 0.000000
time 6
0  0.997088 -83.250023 37.801594  0.000000 0.218047 -1.570843
1  -0.995803 -0.062502 -0.000002  -0.000030 -1.395994 -1.570772
2  0.000001 -0.000001 4.427395  -0.000397 2.911193 -0.030837
3  18.465935 -0.000003 -0.000001  -0.000000 -0.000000 -0.335042
4  14.875442 0.000007 0.000000  -0.005459 0.055642 0.324802
5  0.000008 -0.000011 -4.427393  -0.104547 2.930225 -0.478752
6  18.465937 0.000004 -0.000000  -0.000000 -0.000000 -1.331623
7  14.875447 -0.000000 -0.000001  -0.035897 0.049083 0.289416
8  2.223959 -0.007583 0.390641  0.075900 -0.128794 0.039442
9  9.514223 -0.009366 -0.000001  0.110264 -0.128742 0.094322
10  11.752198 -0.001494 -0.000001  0.000000 -0.000001 -0.056022
11  -2.166482 -0.195038 2.649731  0.380899 -1.355813 2.823815
12  4.640937 -0.000008 -0.000002  -0.891071 0.606587 -0.887525
13  10.828035 0.000007 -0.000001  -0.076050 0.322190 -0.819347
14  9.393332 -0.000002 0.000002  -1.568874 0.118593 -0.085388
15  1.442250 0.107450 -1.746175  1.742810 0.349042 0.431626
16  1.063458 0.000006 -0.000001  -0.000000 -0.000000 0.174535
17  1.376300 -0.000003 -0.000000  0.000000 -0.000000 0.174529
18  4.172849 -0.251369 -1.312739  0.069543 0.066333 0.874883
19  1.215369 0.000008 -0.000004  0.000000 -0.000000 1.247894
20  1.215363 -0.000012 0.000005  0.000000 0.000000 1.247894
21  4.220527 -0.244859 -0.431457  0.018387 0.018764 0.872814
22  1.350420 0.000013 0.000003  -0.000000 0.000000 1.247901
23  1.350424 0.000007 0.000016  0.000000 -0.000000 1.247901
24  -2.166481 -0.195020 -2.649723  -0.619940 1.326704 2.590952
25  4.640941 -0.000004 -0.000007  0.091058 -0.790935 -0.225741
26  10.828049 -0.000008 -0.000007  0.406635 -0.424825 -1.621134
27  9.393337 0.000001 0.000007  1.568893 -0.118616 -0.085351
28  1.442245 0.107444 1.746177  -1.742773 -0.349066 0.431617
29  1.063453 -0.000001 -0.000009  0.000000 -0.000000 0.174535
30  1.376305 -0.000007 0.000009  0.000000 -0.000000 0.174532
31  4.172844 -0.251378 1.312752  -0.069543 -0.066333 0.874883
32  1.215376 0.000015 -0.000001  -0.000000 -0.000000 1.247903
33  1.215365 0.000001 0.000003  -0.000000 -0.000000 1.247903
34  4.220536 -0.244862 0.431464  -0.018387 -0.018764 0.872814
35  1.350409 -0.000014 0.000008  -0.000000 0.000000 1.247903
36  1.350408 -0.000004 0.000007  -0.000000 0.000000 1.247881
37  4.262826 -0.232736 -1.392176  0.058247 0.052627 0.874232
38  2.110546 -0.000003 0.000002  -0.206640 0.065791 -0.073106
39  0.891914 2.373053 -0.014527  -3.141592 -0.000001 1.413797
40  7.228117 5.709430 3.726571  3.099288 -1.570796 0.000000
41  2.450424 5.076111 0.001325  3.088832 -1.570796 0.000000
42  6.312399 -4.528075 0.001311  -3.117339 -1.570796 0.000000
43  2.233317 1.152532 -7.309137  -1.153942 -1.760806 -0.940458
44  -5.952957 -2.602895 0.029162  0.000000 -0.000000 0.000000
time 7
0  0.715829 -96.499260 39.582108  0.000000 0.218047 -1.570843
1  -0.550471 -0.054689 -0.000001  -0.000030 -1.530857 -1.570773
2  -0.000001 0.000008 4.427393  -0.016589 3.048109 -0.098987
3  18.465935 -0.000007 -0.000000  -0.000000 0.000000 -0.604955
4  14.875458 -0.000013 -0.000001  -0.042718 0.035039 -0.510933
5  0.000007 -0.000006 -4.427393  -0.075412 3.057838 -0.735273
6  18.465939 0.000008 0.000001  -0.000000 0.000000 -1.075575
7  14.875436 0.000001 -0.000001  -0.005574 0.072515 0.267919
8  2.255206 -0.007573 0.085943  0.067799 -0.002750 -0.016376
9  9.514228 -0.009355 0.000001  0.086515 -0.102977 0.127465
10  11.752187 -0.001511 0.000003  -0.000000 -0.000001 -0.169877
11  -2.131326 -0.437221 2.649728  0.443115 -1.350072 2.876948
12  4.640941 -0.000000 0.000002  -0.907839 0.609634 -0.903980
13  10.828042 -0.000005 -0.000004  -0.085281 0.325864 -0.824231
14  9.393331 -0.000006 -0.000001  -1.568874 0.118593 -0.085388
15  1.442247 0.107453 -1.746177  1.742810 0.349042 0.431626
16  1.063453 0.000001 0.000008  -0.000000 -0.000000 0.174535
17  1.376307 -0.000002 -0.000007  0.000000 -0.000000 0.174529
18  4.172849 -0.251366 -1.312743  0.069543 0.066333 0.874883
19  1.215371 0.000007 -0.000005  0.000000 -0.000000 1.247894
20  1.215379 0.000006 0.000009  0.000000 -0.000000 1.247894
21  4.220532 -0.244856 -0.431468  0.018387 0.018764 0.872814
22  1.350411 0.000000 -0.000000  -0.000000 -0.000000 1.247901
23  1.350394 -0.000007 -0.000000  0.000000 -0.000000 1.247901
24  -2.131329 -0.437221 -2.649724  -0.538851 1.338899 2.783674
25  4.640939 0.000003 -0.000001  0.091058 -0.790935 -0.225741
26  10.828049 -0.000007 -0.000001  0.422183 -0.430422 -1.626185
27  9.393339 0.000004 0.000008  1.568893 -0.118616 -0.085351
28  1.442243 0.107459 1.746179  -1.742773 -0.349066 0.431617
29  1.063454 -0.000004 0.000005  0.000000 -0.000000 0.174535
30  1.376307 -0.000001 -0.000012  0.000000 0.000000 0.174532
31  4.172840 -0.251360 1.312752  -0.069543 -0.066333 0.874883
32  1.215371 0.000004 -0.000006  -0.000000 -0.000000 1.247903
33  1.215388 0.000001 0.000004  0.000000 0.000000 1.247903
34  4.220528 -0.244840 0.431468  -0.018387 -0.018764 0.872814
35  1.350412 -0.000012 0.000008  -0.000000 0.000000 1.247903
36  1.350395 -0.000006 -0.000001  0.000000 0.000000 1.247881
37  4.262824 -0.232715 -1.392172  0.058247 0.052627 0.874232
38  2.110545 -0.000002 -0.000001  -0.164634 0.058184 0.064434
39  0.891915 2.373047 -0.014527  -3.141592 -0.000001 1.413797
40  7.228115 5.709431 3.726568  2.983219 -1.570796 0.000000
41  2.450425 5.076126 0.001326  3.140791 -1.570796 0.000000
42  6.312408 -4.528056 0.001311  -3.095396 -1.570796 0.000000
43  2.233314 1.152536 -7.309138  -1.152504 -1.649113 -1.142566
44  -5.952957 -2.602895 0.029162  0.000000 -0.000000 0.000000
time 8
0  0.430665 -109.152733 40.054810  0.000000 0.218047 -1.570843
1  -0.101230 -0.042970 0.000006  -0.000027 -1.568037 -1.570772
2  0.000001 0.000011 4.427392  -0.009786 3.103216 -0.064769
3  18.465933 0.000001 0.000000  0.000000 -0.000000 -0.849572
4  14.875456 -0.000004 -0.000001  -0.031234 0.019608 -0.425132
5  0.000012 -0.000004 -4.427393  -0.058160 3.105382 -0.851414
6  18.465946 -0.000000 0.000001  0.000000 -0.000000 -0.729080
7  14.875443 -0.000014 -0.000002  0.030891 0.058146 0.197573
8  2.255210 -0.007572 0.003909  0.047758 0.023016 -0.072526
9  9.514229 -0.009351 -0.000001  0.058752 -0.070869 0.160414
10  11.752193 -0.001515 0.000001  0.000000 -0.000001 -0.195954
11  -2.119600 -0.495825 2.649729  0.396334 -1.354504 2.948654
12  4.640941 0.000003 -0.000003  -0.921649 0.612030 -0.917593
13  10.828043 -0.000005 -0.000003  -0.092883 0.328889 -0.828253
14  9.393338 -0.000005 -0.000002  -1.568874 0.118593 -0.085388
15  1.442256 0.107454 -1.746179  1.742810 0.349042 0.431626
16  1.063457 0.000006 -0.000018  0.000000 -0.000000 0.174535
17  1.376306 0.000002 0.000001  -0.000000 0.000000 0.174529
18  4.172861 -0.251367 -1.312751  0.069543 0.066333 0.874883
19  1.215364 0.000013 -0.000005  0.000000 0.000000 1.247894
20  1.215372 -0.000015 0.000003  0.000000 0.000000 1.247894
21  4.220540 -0.244858 -0.431468  0.018387 0.018764 0.872814
22  1.350416 0.000009 -0.000008  0.000000 0.000000 1.247901
23  1.350401 0.000001 -0.000006  -0.000000 -0.000000 1.247901
24  -2.119604 -0.495811 -2.649725  -0.402590 1.353939 2.942553
25  4.640940 -0.000001 -0.000002  0.091058 -0.790935 -0.225741
26  10.828051 -0.000003 0.000002  0.434987 -0.435031 -1.630345
27  9.393337 0.000000 0.000000  1.568893 -0.118616 -0.085351
28  1.442255 0.107465 1.746178  -1.742773 -0.349066 0.431617
29  1.063447 -0.000002 -0.000003  0.000000 -0.000000 0.174535
30  1.376308 -0.000002 0.000004  0.000000 -0.000000 0.174532
31  4.172862 -0.251352 1.312752  -0.069543 -0.066333 0.874883
32  1.215377 0.000010 -0.000003  -0.000000 -0.000000 1.247903
33  1.215375 0.000001 -0.000003  0.000000 0.000000 1.247903
34  4.220551 -0.244843 0.431470  -0.018387 -0.018764 0.872814
35  1.350410 0.000006 -0.000005  -0.000000 0.000000 1.247903
36  1.350412 -0.000006 0.000009  0.000000 -0.000000 1.247881
37  4.262844 -0.232719 -1.392172  0.058247 0.052627 0.874232
38  2.110551 -0.000006 -0.000001  -0.113680 0.044172 0.115146
39  0.891918 2.373045 -0.014527  -3.141592 -0.000001 1.413797
40  7.228123 5.709429 3.726569  2.824217 -1.570796 0.000000
41  2.450429 5.076124 0.001325  -3.140814 -1.570796 0.000000
42  6.312409 -4.528049 0.001310  -3.066054 -1.570796 0.000000
43  2.233312 1.152542 -7.309138  -1.189511 -1.614425 -1.236487
44  -5.952957 -2.602895 0.029162  0.000000 -0.000000 0.000000
time 9
0  0.141593 -123.886940 40.322678  0.000000 0.218047 -1.570843
1  0.258152 -0.023438 0.000003  0.000032 -1.586088 -1.570819
2  -0.000002 0.000012 4.427392  -0.005092 3.141470 -0.008057
3  18.465940 0.000011 -0.000000  0.000000 0.000000 -1.103108
4  14.875460 0.000002 0.000000  -0.013814 0.008711 -0.233026
5  0.000004 -0.000001 -4.427393  -0.041484 -3.137625 -0.893903
6  18.465929 0.000005 0.000002  0.000000 0.000000 -0.317736
7  14.875450 0.000006 0.000000  0.050650 0.017920 0.080893
8  2.255209 -0.007562 -0.031248  0.023244 0.027985 -0.116731
9  9.514224 -0.009369 -0.000000  0.029339 -0.035361 0.185699
10  11.752186 -0.001494 0.000000  -0.000000 -0.000001 -0.195362
11  -2.119603 -0.491898 2.649729  0.292388 -1.362184 3.049655
12  4.640940 -0.000005 0.000005  -0.931018 0.613597 -0.926862
13  10.828054 -0.000006 -0.000005  -0.098041 0.330942 -0.830982
14  9.393325 -0.000007 0.000002  -1.568874 0.118593 -0.085388
15  1.442242 0.107454 -1.746178  1.742810 0.349042 0.431626
16  1.063445 0.000009 -0.000002  0.000000 0.000000 0.174535
17  1.376313 -0.000001 0.000003  -0.000000 0.000000 0.174529
18  4.172854 -0.251368 -1.312743  0.069543 0.066333 0.874883
19  1.215370 0.000015 0.000001  -0.000000 -0.000000 1.247894
20  1.215374 -0.000004 0.000000  0.000000 0.000000 1.247894
21  4.220523 -0.244858 -0.431464  0.018387 0.018764 0.872814
22  1.350416 0.000004 0.000006  0.000000 -0.000000 1.247901
23  1.350408 0.000014 -0.000007  0.000000 0.000000 1.247901
24  -2.119603 -0.491896 -2.649723  -0.237264 1.365196 3.103654
25  4.640940 -0.000016 -0.000009  0.091058 -0.790935 -0.225741
26  10.828048 -0.000007 0.000002  0.443676 -0.438158 -1.633168
27  9.393343 0.000006 -0.000006  1.568893 -0.118616 -0.085351
28  1.442247 0.107453 1.746177  -1.742773 -0.349066 0.431617
29  1.063442 -0.000001 0.000011  0.000000 -0.000000 0.174535
30  1.376304 -0.000002 -0.000004  0.000000 0.000000 0.174532
31  4.172852 -0.251366 1.312748  -0.069543 -0.066333 0.874883
32  1.215375 0.000024 0.000001  -0.000000 -0.000000 1.247903
33  1.215361 0.000001 0.000003  0.000000 0.000000 1.247903
34  4.220538 -0.244846 0.431471  -0.018387 -0.018764 0.872814
35  1.350413 0.000004 -0.000003  -0.000000 0.000000 1.247903
36  1.350394 -0.000011 -0.000005  0.000000 0.000000 1.247881
37  4.262834 -0.232723 -1.392176  0.058247 0.052627 0.874232
38  2.110548 0.000008 0.000000  -0.057843 0.023966 0.134640
39  0.891924 2.373051 -0.014527  -3.141592 -0.000001 1.413797
40  7.228110 5.709435 3.726570  2.653913 -1.570796 0.000000
41  2.450427 5.076106 0.001325  3.128503 -1.570796 0.000000
42  6.312407 -4.528073 0.001311  -3.036253 -1.570796 0.000000
43  2.233312 1.152541 -7.309138  -2.443428 -1.570796 0.000000
44  -5.952957 -2.602895 0.029162  0.000000 -0.000000 0.000000
time 10
0  -0.174823 -136.487061 40.921432  0.000000 0.218047 -1.570843
1  0.422206 0.000000 -0.000000  -0.000030 -1.591692 -1.570771
2  -0.000003 0.000002 4.427393  -0.001930 -3.114919 0.047035
3  18.465939 0.000012 -0.000000  0.000000 -0.000000 -1.347945
4  14.875433 -0.000001 0.000000  0.005882 -0.000420 0.007392
5  0.000007 -0.000003 -4.427394  -0.030079 -3.106056 -0.891282
6  18.465931 -0.000007 -0.000000  -0.000000 0.000000 -0.001959
7  14.875438 -0.000006 -0.000002  0.047667 -0.019457 -0.061298
8  2.255207 -0.007558 -0.046873  -0.002831 0.020699 -0.136584
9  9.514227 -0.009344 -0.000000  0.000000 0.000000 0.196242
10  11.752199 -0.001483 -0.000000  -0.000000 -0.000001 -0.187985
11  -2.123511 -0.476280 2.649729  0.162813 -1.368203 -3.114051
12  4.640941 -0.000006 0.000004  -0.934470 0.614163 -0.930283
13  10.828042 0.000011 0.000000  -0.099941 0.331698 -0.831988
14  9.393343 0.000003 0.000000  -1.568874 0.118593 -0.085388
15  1.442262 0.107441 -1.746175  1.742810 0.349042 0.431626
16  1.063440 0.000001 0.000010  0.000000 -0.000000 0.174535
17  1.376300 0.000002 0.000005  -0.000000 0.000000 0.174529
18  4.172845 -0.251374 -1.312736  0.069543 0.066333 0.874883
19  1.215362 0.000003 0.000005  0.000000 -0.000000 1.247894
20  1.215379 -0.000011 0.000004  0.000000 -0.000000 1.247894
21  4.220517 -0.244859 -0.431457  0.018387 0.018764 0.872814
22  1.350416 0.000009 0.000001  -0.000000 -0.000000 1.247901
23  1.350429 0.000012 0.000002  -0.000000 0.000000 1.247901
24  -2.123515 -0.476277 -2.649724  -0.088044 1.370038 -3.040736
25  4.640938 -0.000008 -0.000007  0.091058 -0.790935 -0.225741
26  10.828046 0.000008 0.000007  0.446877 -0.439311 -1.634209
27  9.393342 -0.000008 -0.000014  1.568893 -0.118616 -0.085351
28  1.442254 0.107445 1.746166  -1.742773 -0.349066 0.431617
29  1.063454 0.000001 -0.000022  0.000000 -0.000000 0.174535
30  1.376303 0.000001 0.000003  0.000000 0.000000 0.174532
31  4.172851 -0.251373 1.312739  -0.069543 -0.066333 0.874883
32  1.215373 0.000009 0.000001  -0.000000 -0.000000 1.247903
33  1.215358 0.000001 0.000002  0.000000 0.000000 1.247903
34  4.220550 -0.244868 0.431458  -0.018387 -0.018764 0.872814
35  1.350413 -0.000006 -0.000001  0.000000 0.000000 1.247903
36  1.350388 -0.000003 0.000004  -0.000000 0.000000 1.247881
37  4.262831 -0.232726 -1.392185  0.058247 0.052627 0.874232
38  2.110547 0.000008 -0.000000  -0.000000 0.000001 0.137042
39  0.891923 2.373045 -0.014527  -3.141592 -0.000001 1.413797
40  7.228127 5.709451 3.726569  2.503840 -1.570796 0.000000
41  2.450421 5.076119 0.001325  3.101032 -1.570796 0.000000
42  6.312407 -4.528052 0.001311  -3.012831 -1.570796 0.000000
43  2.233312 1.152535 -7.309139  -1.186251 -1.535904 -1.231030
44  -5.952957 -2.602895 0.029162  0.000000 -0.000000 0.000000
time 11
0  -0.584991 -148.615891 39.456055  0.000000 0.218047 -1.570843
1  -0.253605 0.105472 -0.000007  -0.000030 -1.537138 -1.570772
2  -0.000008 -0.000024 4.427393  0.005543 3.135220 0.076392
3  18.465925 -0.000002 -0.000001  0.000000 -0.000000 -1.566536
4  14.875447 0.000000 -0.000001  0.025613 -0.009466 0.237974
5  0.000003 -0.000011 -4.427394  -0.059694 -3.118301 -0.794139
6  18.465935 -0.000009 0.000000  0.000000 0.000000 0.110936
7  14.875431 -0.000031 -0.000000  0.045175 -0.037858 -0.334389
8  2.255206 -0.007597 0.074224  -0.055107 -0.047037 -0.052243
9  9.514216 -0.009375 -0.000001  -0.054175 0.053572 0.144957
10  11.752194 -0.001496 0.000000  0.000000 -0.000001 -0.184513
11  -2.123515 -0.468481 2.649731  0.050101 -1.370545 -3.006923
12  4.640941 0.000006 -0.000003  -0.921649 0.612030 -0.917593
13  10.828054 -0.000014 -0.000001  -0.092883 0.328889 -0.828253
14  9.393314 -0.000002 -0.000010  -1.568874 0.118593 -0.085388
15  1.442228 0.107450 -1.746174  1.742810 0.349042 0.431626
16  1.063462 0.000008 -0.000016  -0.000000 0.000000 0.174535
17  1.376320 -0.000001 0.000011  0.000000 -0.000000 0.174529
18  4.172831 -0.251371 -1.312740  0.069543 0.066333 0.874883
19  1.215368 0.000019 -0.000001  -0.000000 -0.000000 1.247894
20  1.215361 0.000005 0.000001  0.000000 0.000000 1.247894
21  4.220516 -0.244853 -0.431455  0.018387 0.018764 0.872814
22  1.350412 0.000014 0.000008  -0.000000 -0.000000 1.247901
23  1.350427 0.000001 -0.000002  0.000000 -0.000000 1.247901
24  -2.123525 -0.468479 -2.649724  -0.088044 1.370038 -3.044155
25  4.640942 0.000006 0.000000  0.091058 -0.790935 -0.225741
26  10.828053 0.000003 -0.000001  0.434987 -0.435031 -1.630345
27  9.393353 -0.000000 0.000000  1.568893 -0.118616 -0.085351
28  1.442241 0.107444 1.746177  -1.742773 -0.349066 0.431617
29  1.063449 0.000003 -0.000013  0.000000 -0.000000 0.174535
30  1.376308 -0.000001 0.000009  0.000000 -0.000000 0.174532
31  4.172844 -0.251369 1.312752  -0.069543 -0.066333 0.874883
32  1.215372 0.000014 -0.000010  -0.000000 -0.000000 1.247903
33  1.215355 0.000004 0.000006  0.000000 0.000000 1.247903
34  4.220531 -0.244855 0.431464  -0.018387 -0.018764 0.872814
35  1.350414 -0.000019 -0.000003  0.000000 0.000000 1.247903
36  1.350410 -0.000015 0.000007  0.000000 -0.000000 1.247881
37  4.262814 -0.232731 -1.392173  0.058247 0.052627 0.874232
38  2.110538 -0.000022 -0.000000  0.116046 -0.038878 0.098854
39  0.891927 2.373042 -0.014527  -3.141592 -0.000001 1.413797
40  7.228122 5.709439 3.726567  2.364215 -1.570796 0.000000
41  2.450413 5.076140 0.001325  3.062327 -1.570796 0.000000
42  6.312400 -4.528070 0.001310  -3.002778 -1.570796 0.000000
43  2.233302 1.152508 -7.309139  -1.160174 -1.535904 -1.178564
44  -5.952957 -2.602895 0.029162  0.000000 -0.000000 0.000000
time 12
0  -0.995160 -162.452011 36.099861  0.000000 0.218047 -1.570843
1  -1.202836 0.257820 0.000007  -0.000030 -1.640441 -1.570772
2  0.000000 -0.000002 4.427393  0.003531 -3.025062 0.056186
3  18.465939 -0.000014 -0.000000  -0.000000 0.000000 -1.741555
4  14.875430 -0.000006 -0.000001  0.044065 -0.018065 0.400728
5  0.000009 0.000006 -4.427393  0.020238 -3.015560 -0.657503
6  18.465927 -0.000006 -0.000000  0.000000 0.000000 -0.001959
7  14.875437 -0.000000 0.000000  0.052019 -0.053045 -0.468852
8  2.251310 -0.007568 -0.152345  -0.116835 0.051080 0.068592
9  9.514238 -0.009355 -0.000000  -0.116116 0.104362 0.069794
10  11.752190 -0.001486 0.000005  0.000000 -0.000001 -0.149284
11  -2.139135 -0.394270 2.649734  -0.000109 -1.370771 -2.993041
12  4.640937 0.000033 0.000004  -0.891071 0.606587 -0.887525
13  10.828043 -0.000024 0.000000  -0.076050 0.322190 -0.819347
14  9.393345 -0.000006 0.000011  -1.568874 0.118593 -0.085388
15  1.442247 0.107447 -1.746188  1.742810 0.349042 0.431626
16  1.063441 0.000004 0.000013  -0.000000 -0.000000 0.174535
17  1.376298 -0.000001 -0.000005  -0.000000 -0.000000 0.174529
18  4.172858 -0.251372 -1.312752  0.069543 0.066333 0.874883
19  1.215373 0.000002 -0.000000  0.000000 -0.000000 1.247894
20  1.215390 0.000001 0.000002  0.000000 -0.000000 1.247894
21  4.220542 -0.244859 -0.431474  0.018387 0.018764 0.872814
22  1.350418 0.000013 -0.000003  -0.000000 0.000000 1.247901
23  1.350412 -0.000001 -0.000001  0.000000 0.000000 1.247901
24  -2.139135 -0.394241 -2.649719  -0.088044 1.370038 -3.079366
25  4.640938 -0.000004 -0.000001  0.091058 -0.790935 -0.225741
26  10.828045 -0.000012 0.000001  0.406634 -0.424825 -1.621133
27  9.393341 -0.000002 -0.000001  1.568893 -0.118616 -0.085351
28  1.442240 0.107450 1.746184  -1.742773 -0.349066 0.431617
29  1.063450 -0.000003 0.000002  0.000000 -0.000000 0.174535
30  1.376308 -0.000005 0.000018  0.000000 -0.000000 0.174532
31  4.172843 -0.251369 1.312756  -0.069543 -0.066333 0.874883
32  1.215372 0.000016 -0.000006  -0.000000 -0.000000 1.247903
33  1.215376 0.000011 0.000003  0.000000 0.000000 1.247903
34  4.220540 -0.244852 0.431477  -0.018387 -0.018764 0.872814
35  1.350419 -0.000001 0.000000  0.000000 0.000000 1.247903
36  1.350413 -0.000021 0.000008  -0.000000 0.000000 1.247881
37  4.262829 -0.232727 -1.392167  0.058247 0.052627 0.874232
38  2.110550 -0.000017 0.000004  0.249007 -0.062782 0.013863
39  0.891925 2.373045 -0.014527  -3.141592 -0.000001 1.413797
40  7.228106 5.709438 3.726569  2.708528 -1.570796 0.000000
41  2.450431 5.076117 0.001324  2.922688 -1.570796 0.000000
42  6.312418 -4.528051 0.001312  -3.055440 -1.570796 0.000000
43  2.233308 1.152524 -7.309138  -1.130166 -1.439909 -1.060229
44  -5.952957 -2.602895 0.029162  0.000000 -0.000000 0.000000
time 13
0  -1.299857 -175.487839 36.651348  0.000000 0.218047 -1.570843
1  -1.202844 0.257820 0.000003  -0.000030 -1.710689 -1.570772
2  0.000007 -0.000002 4.427392  0.041664 -2.940886 -0.158463
3  18.465940 -0.000007 0.000001  0.000000 0.000000 -1.780448
4  14.875424 -0.000001 0.000001  0.058712 -0.029218 0.367703
5  0.000013 -0.000021 -4.427394  0.078797 -2.935395 -0.578048
6  18.465937 -0.000016 -0.000001  0.000000 -0.000000 -0.712146
7  14.875443 0.000001 0.000000  0.030996 -0.082965 0.328847
8  2.235684 -0.007589 -0.312508  -0.111983 0.121172 0.069023
9  9.514229 -0.009329 -0.000000  -0.116116 0.104362 0.069794
10  11.752187 -0.001504 -0.000005  -0.000000 -0.000001 0.014950
11  -2.178204 -0.038797 2.649723  0.421582 -1.352187 2.713048
12  4.640944 0.000005 -0.000002  -0.854598 0.599431 -0.852020
13  10.828045 -0.000003 -0.000000  -0.055959 0.314194 -0.808717
14  9.393301 0.000005 -0.000003  -1.568874 0.118593 -0.085388
15  1.442261 0.107441 -1.746183  1.742810 0.349042 0.431626
16  1.063450 0.000005 0.000008  -0.000000 -0.000000 0.174535
17  1.376302 -0.000002 -0.000009  0.000000 -0.000000 0.174529
18  4.172859 -0.251374 -1.312747  0.069543 0.066333 0.874883
19  1.215370 0.000027 -0.000006  -0.000000 -0.000000 1.247894
20  1.215354 0.000006 -0.000004  0.000000 -0.000000 1.247894
21  4.220516 -0.244851 -0.431466  0.018387 0.018764 0.872814
22  1.350420 -0.000015 0.000009  -0.000000 0.000000 1.247901
23  1.350442 -0.000000 0.000005  0.000000 -0.000000 1.247901
24  -2.178205 -0.038767 -2.649727  -0.176447 1.367738 2.952894
25  4.640929 -0.000008 0.000004  0.091058 -0.790935 -0.225741
26  10.828049 0.000020 0.000001  0.372794 -0.412644 -1.610138
27  9.393353 0.000000 -0.000001  1.568893 -0.118616 -0.085351
28  1.442215 0.107457 1.746187  -1.742773 -0.349066 0.431617
29  1.063447 -0.000003 0.000009  0.000000 0.000000 0.174535
30  1.376311 -0.000005 0.000004  0.000000 0.000000 0.174532
31  4.172817 -0.251357 1.312752  -0.069543 -0.066333 0.874883
32  1.215370 0.000025 -0.000000  -0.000000 -0.000000 1.247903
33  1.215383 0.000012 -0.000003  0.000000 -0.000000 1.247903
34  4.220510 -0.244842 0.431471  -0.018387 -0.018764 0.872814
35  1.350416 -0.000002 0.000005  -0.000000 0.000000 1.247903
36  1.350398 -0.000015 0.000009  0.000000 0.000000 1.247881
37  4.262797 -0.232712 -1.392172  0.058247 0.052627 0.874232
38  2.110544 -0.000016 -0.000005  0.249007 -0.062782 -0.150422
39  0.891920 2.373066 -0.014527  -3.141592 -0.000001 1.413797
40  7.228117 5.709444 3.726566  3.140796 -1.570796 0.000000
41  2.450423 5.076137 0.001324  3.027395 -1.570796 0.000000
42  6.312412 -4.528037 0.001312  -3.116216 -1.570796 0.000000
43  2.233325 1.152520 -7.309140  -1.128344 -1.361388 -0.974829
44  -5.952957 -2.602895 0.029162  0.000000 -0.000000 0.000000
time 14
0  -1.034224 -189.928604 37.171322  0.000000 0.218047 -1.570843
1  -0.937212 0.187506 0.000001  -0.000032 -1.575912 -1.570765
2  -0.000006 -0.000009 4.427392  0.040227 -3.069659 -0.473955
3  18.465940 0.000006 0.000000  -0.000000 -0.000000 -1.636207
4  14.875426 0.000003 -0.000000  0.058961 -0.050076 0.256935
5  0.000001 -0.000001 -4.427393  -0.005160 -3.061191 0.011735
6  18.465942 -0.000010 0.000000  0.000000 -0.000000 -0.411596
7  14.875434 -0.000004 -0.000000  0.006078 -0.075266 0.398330
8  2.255202 -0.007579 -0.007810  -0.085613 -0.007955 0.035339
9  9.514221 -0.009347 0.000001  -0.082238 0.073167 0.085338
10  11.752193 -0.001496 -0.000001  -0.000000 -0.000001 -0.016927
11  -2.174296 -0.109079 2.649732  0.619947 -1.326703 2.551925
12  4.640933 0.000015 -0.000003  -0.824086 0.592883 -0.822622
13  10.828047 -0.000000 0.000000  -0.039127 0.307494 -0.799811
14  9.393318 0.000007 0.000012  -1.568874 0.118593 -0.085388
15  1.442257 0.107437 -1.746181  1.742810 0.349042 0.431626
16  1.063457 0.000003 -0.000008  -0.000000 -0.000000 0.174535
17  1.376304 0.000005 -0.000004  0.000000 0.000000 0.174529
18  4.172856 -0.251373 -1.312749  0.069543 0.066333 0.874883
19  1.215371 0.000023 -0.000012  -0.000000 -0.000000 1.247894
20  1.215359 -0.000007 0.000005  0.000000 -0.000000 1.247894
21  4.220535 -0.244862 -0.431469  0.018387 0.018764 0.872814
22  1.350421 0.000014 0.000003  -0.000000 -0.000000 1.247901
23  1.350416 0.000009 -0.000005  0.000000 0.000000 1.247901
24  -2.174303 -0.109080 -2.649724  -0.314466 1.360778 2.849653
25  4.640938 -0.000003 0.000003  0.091058 -0.790935 -0.225741
26  10.828044 0.000001 0.000000  0.344442 -0.402439 -1.600926
27  9.393341 0.000003 -0.000002  1.568893 -0.118616 -0.085351
28  1.442228 0.107466 1.746171  -1.742773 -0.349066 0.431617
29  1.063466 0.000002 -0.000004  0.000000 -0.000000 0.174535
30  1.376320 -0.000002 -0.000009  0.000000 -0.000000 0.174532
31  4.172831 -0.251358 1.312743  -0.069543 -0.066333 0.874883
32  1.215373 0.000024 -0.000007  -0.000000 -0.000000 1.247903
33  1.215353 0.000002 0.000002  -0.000000 -0.000000 1.247903
34  4.220519 -0.244841 0.431458  -0.018387 -0.018764 0.872814
35  1.350415 -0.000020 -0.000006  0.000000 0.000000 1.247903
36  1.350403 -0.000006 0.000011  -0.000000 -0.000000 1.247881
37  4.262811 -0.232711 -1.392184  0.058247 0.052627 0.874232
38  2.110539 -0.000014 -0.000003  0.175379 -0.048109 -0.098344
39  0.891925 2.373051 -0.014527  -3.141592 -0.000001 1.413797
40  7.228114 5.709448 3.726568  3.140796 -1.570796 0.000000
41  2.450419 5.076130 0.001324  3.062327 -1.570796 0.000000
42  6.312405 -4.528055 0.001311  -3.100397 -1.570796 0.000000
43  2.233309 1.152537 -7.309138  -0.823470 -1.471189 -0.843281
44  -5.952957 -2.602895 0.029162  0.000000 -0.000000 0.000000
time 15
0  0.157219 -201.790680 40.543270  0.000000 0.218047 -1.570843
1  -0.620814 -0.000000 -0.000002  -0.000030 -1.484710 -1.570772
2  -0.000009 -0.000015 4.427393  -0.006337 3.134084 -0.899631
3  18.465925 -0.000008 -0.000001  0.000000 -0.000000 -1.281344
4  14.875441 0.000017 0.000001  0.016263 -0.074638 0.141269
5  0.000004 -0.000028 -4.427393  0.028480 3.103278 0.031763
6  18.465940 -0.000023 -0.000001  -0.000000 -0.000000 -0.667119
7  14.875397 0.000011 -0.000000  0.031593 -0.044042 -0.450656
8  2.235680 -0.007581 0.191415  0.009953 -0.085509 -0.116268
9  9.514220 -0.009358 -0.000000  -0.000000 0.000000 0.213236
10  11.752202 -0.001487 0.000000  -0.000000 -0.000001 -0.045449
11  -2.162577 -0.171581 2.649729  0.394238 -1.354680 2.800264
12  4.640939 -0.000013 -0.000011  -0.811311 0.589987 -0.810395
13  10.828039 0.000024 -0.000000  -0.032068 0.304685 -0.796076
14  9.393329 -0.000016 -0.000010  -1.568874 0.118593 -0.085388
15  1.442223 0.107466 -1.746187  1.742810 0.349042 0.431626
16  1.063439 0.000005 -0.000007  0.000000 0.000000 0.174535
17  1.376299 -0.000001 -0.000005  0.000000 0.000000 0.174529
18  4.172834 -0.251355 -1.312753  0.069543 0.066333 0.874883
19  1.215367 0.000015 -0.000002  0.000000 -0.000000 1.247894
20  1.215387 -0.000015 0.000005  0.000000 -0.000000 1.247894
21  4.220515 -0.244851 -0.431474  0.018387 0.018764 0.872814
22  1.350419 0.000012 -0.000008  0.000000 -0.000000 1.247901
23  1.350402 0.000010 0.000004  -0.000000 -0.000000 1.247901
24  -2.162577 -0.171574 -2.649723  -0.550977 1.337235 2.647444
25  4.640940 -0.000015 -0.000003  0.091058 -0.790935 -0.225741
26  10.828055 0.000005 0.000009  0.332552 -0.398159 -1.597063
27  9.393343 0.000006 -0.000004  1.568893 -0.118616 -0.085351
28  1.442253 0.107458 1.746184  -1.742773 -0.349066 0.431617
29  1.063453 -0.000001 0.000015  0.000000 -0.000000 0.174535
30  1.376313 -0.000004 -0.000014  0.000000 0.000000 0.174532
31  4.172852 -0.251364 1.312757  -0.069543 -0.066333 0.874883
32  1.215374 -0.000004 -0.000011  -0.000000 -0.000000 1.247903
33  1.215395 0.000004 -0.000005  0.000000 0.000000 1.247903
34  4.220544 -0.244848 0.431471  -0.018387 -0.018764 0.872814
35  1.350409 -0.000000 0.000006  0.000000 0.000000 1.247903
36  1.350395 -0.000004 0.000015  0.000000 -0.000000 1.247881
37  4.262835 -0.232717 -1.392168  0.058247 0.052627 0.874232
38  2.110544 -0.000009 -0.000000  0.000000 0.000001 -0.043206
39  0.891924 2.373048 -0.014527  -3.141592 -0.000001 1.413797
40  7.228123 5.709451 3.726569  3.140796 -1.570796 0.000000
41  2.450420 5.076126 0.001325  3.079792 -1.570796 0.000000
42  6.312406 -4.528052 0.001311  -3.055134 -1.570796 0.000000
43  2.233309 1.152511 -7.309138  -1.454790 -1.588242 -0.194544
44  -5.952957 -2.602895 0.029162  0.000000 -0.000000 0.000000
end
