version 1
nodes
0 "Bip01" -1
1 "Bip01 Pelvis" 0
2 "Bip01 L Thigh" 1
3 "Bip01 L Calf" 2
4 "Bip01 L Foot" 3
5 "Bip01 R Thigh" 1
6 "Bip01 R Calf" 5
7 "Bip01 R Foot" 6
8 "Bip01 Spine" 1
9 "Bip01 Spine1" 8
10 "Bip01 Neck" 9
11 "Bip01 L Clavicle" 10
12 "Bip01 L UpperArm" 11
13 "Bip01 L Forearm" 12
14 "Bip01 L Hand" 13
15 "Bip01 L Finger0" 14
16 "Bip01 L Finger01" 15
17 "Bip01 L Finger02" 16
18 "Bip01 L Finger1" 14
19 "Bip01 L Finger11" 18
20 "Bip01 L Finger12" 19
21 "Bip01 L Finger2" 14
22 "Bip01 L Finger21" 21
23 "Bip01 L Finger22" 22
24 "Bip01 R Clavicle" 10
25 "Bip01 R UpperArm" 24
26 "Bip01 R Forearm" 25
27 "Bip01 R Hand" 26
28 "Bip01 R Finger0" 27
29 "Bip01 R Finger01" 28
30 "Bip01 R Finger02" 29
31 "Bip01 R Finger1" 27
32 "Bip01 R Finger11" 31
33 "Bip01 R Finger12" 32
34 "Bip01 R Finger2" 27
35 "Bip01 R Finger21" 34
36 "Bip01 R Finger22" 35
37 "Bip01 R Finger4" 27
38 "Bip01 Head" 10
39 "Bone05" 38
40 "Bone08" 9
41 "Bone16" 8
42 "Bone01" 8
43 "Bone03" 1
44 "Line02" -1
end
skeleton
time 0
0  1.278347 2.647669 38.416107  -0.032789 0.051704 -1.633642
1  -1.105178 0.261727 0.000012  -0.000030 -1.518469 -1.570772
2  -0.000012 0.000011 4.427392  -0.158773 3.106815 0.060093
3  18.465944 0.000001 -0.000000  -0.000000 0.000000 -0.249361
4  14.875449 -0.000001 0.000001  0.046802 0.003730 0.344277
5  0.000008 -0.000005 -4.427393  0.090490 3.059752 -0.388067
6  18.465942 -0.000002 0.000000  0.000000 0.000000 -0.464631
7  14.875440 -0.000000 -0.000002  0.038121 0.027165 0.123363
8  2.255210 -0.007572 0.117194  -0.041409 0.043154 -0.407578
9  9.514221 -0.009356 0.000000  0.079201 -0.100405 -0.285081
10  11.752186 -0.001498 -0.000001  -0.025347 0.102407 0.222105
11  -2.396967 0.347953 2.427068  -0.087954 -1.222829 3.000639
12  4.414691 -1.529408 -0.060320  -0.847352 0.416811 -1.889270
13  10.828043 -0.000003 0.000005  0.000000 -0.000000 -0.616638
14  9.393339 0.000002 0.000004  -2.045769 -0.447170 0.433411
15  1.442245 0.107450 -1.746187  1.545041 0.350655 0.094987
16  1.063445 0.000004 -0.000002  -0.000000 -0.000000 0.199056
17  1.376312 -0.000007 0.000004  -0.000000 0.000000 0.199049
18  4.172846 -0.251368 -1.312742  0.008014 -0.043889 0.147537
19  1.215374 -0.000001 0.000012  0.000000 0.000000 0.645758
20  1.215374 -0.000004 0.000012  0.000000 -0.000000 0.881369
21  4.220534 -0.244852 -0.431462  0.001333 0.026242 0.148339
22  1.350425 0.000000 0.000003  0.000000 -0.000000 0.733035
23  1.350408 -0.000002 -0.000010  0.000000 -0.000000 1.256600
24  -1.861797 0.480779 -2.841138  -2.486408 1.779393 0.406221
25  4.648335 1.547191 -0.003767  -0.359931 -1.133025 -0.298580
26  10.828050 -0.000000 0.000003  -0.554819 0.309165 -1.947248
27  9.393340 -0.000019 -0.000003  2.186878 0.121479 0.376033
28  1.442245 0.107453 1.746185  -1.937605 -0.475472 0.678379
29  1.063458 -0.000004 0.000003  -0.000000 0.000000 0.366516
30  1.376306 -0.000005 -0.000002  -0.000000 0.000000 0.811565
31  4.172842 -0.251366 1.312742  0.001190 -0.096055 0.052246
32  1.215370 0.000000 0.000015  -0.000000 -0.000000 0.130882
33  1.215379 -0.000004 -0.000003  -0.000000 0.000000 1.151880
34  4.220540 -0.244854 0.431462  0.001184 -0.026242 0.052329
35  1.350415 -0.000004 -0.000011  -0.000000 -0.000000 0.977377
36  1.350412 -0.000005 -0.000001  0.000000 0.000000 1.518434
37  4.262825 -0.232718 -1.392187  0.001188 0.078478 0.052453
38  2.110533 -0.000005 -0.000001  0.155327 0.123823 -0.054459
39  0.891914 2.373045 -0.014525  -3.141592 -0.000001 1.413797
40  7.228102 5.709445 3.726566  3.140796 -1.570796 0.000000
41  2.450433 5.076128 0.001325  3.140791 -1.570796 0.000000
42  6.312409 -4.528055 0.001310  3.140791 -1.570796 0.000000
43  2.233289 1.152534 -7.309137  -1.134959 -1.596979 -0.916906
44  -5.952957 -2.602895 0.029162  0.000000 -0.000000 0.000000
time 1
0  1.278347 2.647669 38.416107  -0.032789 0.051704 -1.633642
1  -1.105178 0.261727 0.000012  -0.000030 -1.518469 -1.570772
2  -0.000012 0.000011 4.427392  -0.158773 3.106815 0.060093
3  18.465944 0.000001 -0.000000  -0.000000 0.000000 -0.249361
4  14.875449 -0.000001 0.000001  0.046802 0.003730 0.344277
5  0.000008 -0.000005 -4.427393  0.090490 3.059752 -0.388067
6  18.465942 -0.000002 0.000000  0.000000 0.000000 -0.464631
7  14.875440 -0.000000 -0.000002  0.038121 0.027165 0.123363
8  2.255210 -0.007572 0.117194  -0.041409 0.043154 -0.407578
9  9.514221 -0.009356 0.000000  0.079201 -0.100405 -0.285081
10  11.752186 -0.001498 -0.000001  -0.025347 0.102407 0.222105
11  -2.396967 0.347953 2.427068  -0.087954 -1.222829 3.000639
12  4.414691 -1.529408 -0.060320  -0.872019 0.488839 -1.846923
13  10.828040 0.000005 0.000009  0.000000 0.000000 -0.616638
14  9.393343 0.000001 0.000004  -2.045769 -0.447170 0.433411
15  1.442235 0.107449 -1.746178  1.545041 0.350655 0.094987
16  1.063458 -0.000004 -0.000001  0.000000 0.000000 0.199056
17  1.376311 -0.000002 0.000003  -0.000000 -0.000000 0.199049
18  4.172846 -0.251369 -1.312746  0.008014 -0.043889 0.147537
19  1.215375 -0.000000 0.000016  0.000000 0.000000 0.645758
20  1.215372 -0.000006 0.000004  0.000000 -0.000000 0.881369
21  4.220530 -0.244852 -0.431460  0.001333 0.026242 0.148339
22  1.350427 -0.000000 0.000004  0.000000 -0.000000 0.733035
23  1.350408 -0.000004 -0.000001  -0.000000 -0.000000 1.256600
24  -1.861797 0.480779 -2.841138  -2.486408 1.779393 0.406221
25  4.648335 1.547191 -0.003767  -0.854763 -1.086577 0.228787
26  10.828049 0.000003 0.000003  -0.614000 0.295195 -2.093788
27  9.393333 -0.000015 -0.000003  2.186878 0.121479 0.376033
28  1.442235 0.107453 1.746175  -1.937605 -0.475472 0.678379
29  1.063456 -0.000004 -0.000000  -0.000000 0.000000 0.366516
30  1.376300 -0.000001 0.000002  -0.000000 0.000000 0.811565
31  4.172841 -0.251365 1.312736  0.001190 -0.096055 0.052246
32  1.215369 0.000001 0.000009  -0.000000 -0.000000 0.130882
33  1.215373 -0.000003 -0.000006  0.000000 0.000000 1.151880
34  4.220541 -0.244853 0.431458  0.001184 -0.026242 0.052329
35  1.350416 -0.000004 -0.000021  0.000000 -0.000000 0.977377
36  1.350411 -0.000002 0.000008  -0.000000 0.000000 1.518434
37  4.262820 -0.232717 -1.392191  0.001188 0.078478 0.052453
38  2.110533 -0.000005 -0.000001  0.155327 0.123823 -0.054459
39  0.891914 2.373045 -0.014525  -3.141592 -0.000001 1.413797
40  7.228102 5.709445 3.726566  3.140796 -1.570796 0.000000
41  2.450433 5.076128 0.001325  3.140791 -1.570796 0.000000
42  6.312409 -4.528055 0.001310  3.140791 -1.570796 0.000000
43  2.233289 1.152534 -7.309137  -1.134959 -1.596979 -0.916906
44  -5.952957 -2.602895 0.029162  0.000000 -0.000000 0.000000
time 2
0  1.278347 2.647669 38.416107  -0.032789 0.051704 -1.633642
1  -1.105178 0.261727 0.000012  -0.000030 -1.518469 -1.570772
2  -0.000012 0.000011 4.427392  -0.158773 3.106815 0.060093
3  18.465944 0.000001 -0.000000  -0.000000 0.000000 -0.249361
4  14.875449 -0.000001 0.000001  0.046802 0.003730 0.344277
5  0.000008 -0.000005 -4.427393  0.090490 3.059752 -0.388067
6  18.465942 -0.000002 0.000000  0.000000 0.000000 -0.464631
7  14.875440 -0.000000 -0.000002  0.038121 0.027165 0.123363
8  2.255210 -0.007572 0.117194  -0.041409 0.043154 -0.407578
9  9.514221 -0.009356 0.000000  0.079201 -0.100405 -0.285081
10  11.752186 -0.001498 -0.000001  -0.025347 0.102407 0.222105
11  -2.396967 0.347953 2.427068  -0.087954 -1.222829 3.000639
12  4.414691 -1.529408 -0.060320  -0.860105 0.452666 -1.868062
13  10.828041 0.000002 0.000009  0.000000 -0.000000 -0.616638
14  9.393343 -0.000005 -0.000001  -2.045769 -0.447170 0.433411
15  1.442233 0.107449 -1.746185  1.545041 0.350655 0.094987
16  1.063453 0.000002 -0.000001  0.000000 0.000000 0.199056
17  1.376319 -0.000008 0.000003  0.000000 -0.000000 0.199049
18  4.172848 -0.251369 -1.312752  0.008014 -0.043889 0.147537
19  1.215372 0.000002 0.000013  0.000000 -0.000000 0.645758
20  1.215376 -0.000003 0.000008  0.000000 -0.000000 0.881369
21  4.220533 -0.244852 -0.431468  0.001333 0.026242 0.148339
22  1.350412 0.000002 0.000012  0.000000 0.000000 0.733035
23  1.350408 0.000004 -0.000000  -0.000000 0.000000 1.256600
24  -1.861797 0.480779 -2.841138  -2.486408 1.779393 0.406221
25  4.648335 1.547191 -0.003767  -0.617950 -1.123155 -0.022767
26  10.828044 0.000002 0.000003  -0.584409 0.302180 -2.020518
27  9.393339 -0.000015 -0.000007  2.186878 0.121479 0.376033
28  1.442242 0.107453 1.746179  -1.937605 -0.475472 0.678379
29  1.063465 -0.000003 0.000003  0.000000 0.000000 0.366516
30  1.376306 0.000000 -0.000004  0.000000 0.000000 0.811565
31  4.172842 -0.251366 1.312738  0.001190 -0.096055 0.052246
32  1.215368 0.000001 0.000006  -0.000000 -0.000000 0.130882
33  1.215374 -0.000003 -0.000008  0.000000 -0.000000 1.151880
34  4.220540 -0.244855 0.431458  0.001184 -0.026242 0.052329
35  1.350411 -0.000003 -0.000019  -0.000000 0.000000 0.977377
36  1.350412 -0.000000 0.000003  -0.000000 0.000000 1.518434
37  4.262823 -0.232718 -1.392189  0.001188 0.078478 0.052453
38  2.110533 -0.000005 -0.000001  0.155327 0.123823 -0.054459
39  0.891914 2.373045 -0.014525  -3.141592 -0.000001 1.413797
40  7.228102 5.709445 3.726566  3.140796 -1.570796 0.000000
41  2.450433 5.076128 0.001325  3.140791 -1.570796 0.000000
42  6.312409 -4.528055 0.001310  3.140791 -1.570796 0.000000
43  2.233289 1.152534 -7.309137  -1.134959 -1.596979 -0.916906
44  -5.952957 -2.602895 0.029162  0.000000 -0.000000 0.000000
time 3
0  1.278347 2.647669 38.416107  -0.032789 0.051704 -1.633642
1  -1.105178 0.261727 0.000012  -0.000030 -1.518469 -1.570772
2  -0.000012 0.000011 4.427392  -0.158773 3.106815 0.060093
3  18.465944 0.000001 -0.000000  -0.000000 0.000000 -0.249361
4  14.875449 -0.000001 0.000001  0.046802 0.003730 0.344277
5  0.000008 -0.000005 -4.427393  0.090490 3.059752 -0.388067
6  18.465942 -0.000002 0.000000  0.000000 0.000000 -0.464631
7  14.875440 -0.000000 -0.000002  0.038121 0.027165 0.123363
8  2.255210 -0.007572 0.117194  -0.041409 0.043154 -0.407578
9  9.514221 -0.009356 0.000000  0.079201 -0.100405 -0.285081
10  11.752186 -0.001498 -0.000001  -0.025347 0.102407 0.222105
11  -2.396967 0.347953 2.427068  -0.087954 -1.222829 3.000639
12  4.414691 -1.529408 -0.060320  -0.847352 0.416811 -1.889270
13  10.828043 -0.000003 0.000005  0.000000 -0.000000 -0.616638
14  9.393339 0.000002 0.000004  -2.045769 -0.447170 0.433411
15  1.442245 0.107450 -1.746187  1.545041 0.350655 0.094987
16  1.063445 0.000004 -0.000002  -0.000000 -0.000000 0.199056
17  1.376312 -0.000007 0.000004  -0.000000 0.000000 0.199049
18  4.172846 -0.251368 -1.312742  0.008014 -0.043889 0.147537
19  1.215374 -0.000001 0.000012  0.000000 0.000000 0.645758
20  1.215374 -0.000004 0.000012  0.000000 -0.000000 0.881369
21  4.220534 -0.244852 -0.431462  0.001333 0.026242 0.148339
22  1.350425 0.000000 0.000003  0.000000 -0.000000 0.733035
23  1.350408 -0.000002 -0.000010  0.000000 -0.000000 1.256600
24  -1.861797 0.480779 -2.841138  -2.486408 1.779393 0.406221
25  4.648335 1.547191 -0.003767  -0.359931 -1.133025 -0.298580
26  10.828050 -0.000000 0.000003  -0.554819 0.309165 -1.947248
27  9.393340 -0.000019 -0.000003  2.186878 0.121479 0.376033
28  1.442245 0.107453 1.746185  -1.937605 -0.475472 0.678379
29  1.063458 -0.000004 0.000003  -0.000000 0.000000 0.366516
30  1.376306 -0.000005 -0.000002  -0.000000 0.000000 0.811565
31  4.172842 -0.251366 1.312742  0.001190 -0.096055 0.052246
32  1.215370 0.000000 0.000015  -0.000000 -0.000000 0.130882
33  1.215379 -0.000004 -0.000003  -0.000000 0.000000 1.151880
34  4.220540 -0.244854 0.431462  0.001184 -0.026242 0.052329
35  1.350415 -0.000004 -0.000011  -0.000000 -0.000000 0.977377
36  1.350412 -0.000005 -0.000001  0.000000 0.000000 1.518434
37  4.262825 -0.232718 -1.392187  0.001188 0.078478 0.052453
38  2.110533 -0.000005 -0.000001  0.155327 0.123823 -0.054459
39  0.891914 2.373045 -0.014525  -3.141592 -0.000001 1.413797
40  7.228102 5.709445 3.726566  3.140796 -1.570796 0.000000
41  2.450433 5.076128 0.001325  3.140791 -1.570796 0.000000
42  6.312409 -4.528055 0.001310  3.140791 -1.570796 0.000000
43  2.233289 1.152534 -7.309137  -1.134959 -1.596979 -0.916906
44  -5.952957 -2.602895 0.029162  0.000000 -0.000000 0.000000
end
