version 1
nodes
0 "Bip01" -1
1 "Bip01 Pelvis" 0
2 "Bip01 L Thigh" 1
3 "Bip01 L Calf" 2
4 "Bip01 L Foot" 3
5 "Bip01 R Thigh" 1
6 "Bip01 R Calf" 5
7 "Bip01 R Foot" 6
8 "Bip01 Spine" 1
9 "Bip01 Spine1" 8
10 "Bip01 Neck" 9
11 "Bip01 L Clavicle" 10
12 "Bip01 L UpperArm" 11
13 "Bip01 L Forearm" 12
14 "Bip01 L Hand" 13
15 "Bip01 L Finger0" 14
16 "Bip01 L Finger01" 15
17 "Bip01 L Finger02" 16
18 "Bip01 L Finger1" 14
19 "Bip01 L Finger11" 18
20 "Bip01 L Finger12" 19
21 "Bip01 L Finger2" 14
22 "Bip01 L Finger21" 21
23 "Bip01 L Finger22" 22
24 "Bip01 R Clavicle" 10
25 "Bip01 R UpperArm" 24
26 "Bip01 R Forearm" 25
27 "Bip01 R Hand" 26
28 "Bip01 R Finger0" 27
29 "Bip01 R Finger01" 28
30 "Bip01 R Finger02" 29
31 "Bip01 R Finger1" 27
32 "Bip01 R Finger11" 31
33 "Bip01 R Finger12" 32
34 "Bip01 R Finger2" 27
35 "Bip01 R Finger21" 34
36 "Bip01 R Finger22" 35
37 "Bip01 R Finger4" 27
38 "Bip01 Head" 10
39 "Bone05" 38
40 "Bone08" 9
41 "Bone16" 8
42 "Bone01" 8
43 "Bone03" 1
44 "Line02" -1
end
skeleton
time 0
0  0.063466 12.295551 38.069458  -0.003643 -0.000000 -1.570843
1  -0.577815 0.128910 0.000001  -0.000031 -1.556870 -1.570771
2  -0.000009 0.000007 4.427394  0.001040 3.102175 0.283606
3  18.465942 -0.000002 -0.000001  -0.000000 0.000000 -0.381100
4  14.875443 0.000001 -0.000000  0.000087 0.001878 0.323143
5  -0.000008 -0.000003 -4.427393  0.026755 -3.126719 -0.397706
6  18.465942 0.000001 0.000000  -0.000000 0.000000 -0.113147
7  14.875445 0.000000 -0.000000  -0.025965 0.002854 -0.064112
8  2.255207 -0.007574 0.031254  -0.034813 0.005105 0.037027
9  9.514223 -0.009355 0.000000  0.000638 -0.017485 -0.014656
10  11.752197 -0.001495 0.000000  0.000000 -0.000001 0.229088
11  -2.135220 0.426082 2.649731  -0.143690 -1.448029 3.054346
12  4.640938 0.000000 0.000005  -0.318642 1.142982 -0.628809
13  10.828041 -0.000001 -0.000000  -0.010232 -0.002807 -0.645707
14  9.393335 -0.000002 0.000000  -1.569611 0.034195 0.000037
15  1.442237 0.107454 -1.746179  1.686435 0.539209 0.325885
16  1.063450 0.000002 -0.000005  0.000000 -0.000000 0.199056
17  1.376311 0.000002 0.000001  0.000000 -0.000000 0.199049
18  4.172845 -0.251365 -1.312747  0.008050 0.095731 0.148659
19  1.215368 0.000002 0.000003  -0.000000 -0.000000 0.645758
20  1.215373 -0.000004 0.000005  -0.000000 -0.000000 0.645758
21  4.220529 -0.244851 -0.431475  0.001333 0.026242 0.148339
22  1.350412 -0.000005 -0.000002  -0.000000 -0.000000 0.863926
23  1.350405 -0.000000 0.000003  0.000000 -0.000000 0.863926
24  -2.135223 0.426097 -2.649726  -0.167191 1.465270 2.745386
25  4.640938 -0.000002 -0.000009  0.843344 -1.150338 -0.869073
26  10.828043 0.000003 0.000003  0.334087 -0.577359 -0.620648
27  9.393335 -0.000002 -0.000002  0.743796 -0.365046 0.157755
28  1.442245 0.107454 1.746170  -1.686405 -0.539236 0.325898
29  1.063451 0.000005 -0.000000  0.000000 -0.000000 0.199056
30  1.376307 0.000012 -0.000001  0.000000 0.000000 0.199059
31  4.172848 -0.251365 1.312735  -0.008050 -0.095731 0.148659
32  1.215376 0.000001 0.000001  0.000000 0.000000 0.645746
33  1.215374 -0.000000 -0.000002  -0.000000 0.000000 0.645746
34  4.220532 -0.244852 0.431458  -0.001333 -0.026242 0.148339
35  1.350413 -0.000001 -0.000003  -0.000000 -0.000000 0.863937
36  1.350408 -0.000002 -0.000007  -0.000000 0.000000 0.863925
37  4.262828 -0.232716 -1.392194  0.016840 0.076668 0.253759
38  2.110552 -0.000001 -0.000000  0.036865 -0.006855 -0.073859
39  0.891922 2.373051 -0.014527  -3.141592 -0.000001 1.413797
40  7.228120 5.709445 3.726568  3.140796 -1.570796 0.000000
41  2.450429 5.076127 0.001325  3.140791 -1.570796 0.000000
42  6.312407 -4.528059 0.001311  3.140791 -1.570796 0.000000
43  2.233310 1.152534 -7.309139  -1.147423 -1.544642 -0.851036
44  -5.952957 -2.602895 0.029162  0.000000 -0.000000 0.000000
time 1
0  0.020496 10.483438 38.085217  -0.004027 -0.000000 -1.570843
1  -0.562189 0.089846 -0.000000  -0.000034 -1.564056 -1.570769
2  -0.000007 0.000007 4.427393  -0.001163 3.111928 0.300763
3  18.465935 0.000000 -0.000001  0.000000 0.000000 -0.413706
4  14.875441 0.000003 -0.000001  -0.002188 -0.001612 0.260925
5  0.000001 -0.000003 -4.427393  0.028672 -3.116962 -0.438791
6  18.465942 0.000001 -0.000000  -0.000000 0.000000 -0.292532
7  14.875443 -0.000000 -0.000000  -0.021403 -0.014213 -0.005397
8  2.255212 -0.007575 0.011722  -0.033927 0.006519 0.036034
9  9.514220 -0.009357 0.000000  0.000863 -0.011773 -0.014851
10  11.752205 -0.001494 0.000000  0.000000 -0.000001 0.226721
11  -2.135230 0.418271 2.649729  -0.088525 -1.455810 3.002075
12  4.640939 -0.000000 0.000005  -0.318686 1.142975 -0.628853
13  10.828042 -0.000000 -0.000002  -0.005726 -0.006787 -0.636816
14  9.393337 -0.000007 0.000002  -1.569611 0.034195 0.000037
15  1.442236 0.107452 -1.746177  1.689707 0.538569 0.332268
16  1.063451 0.000002 -0.000003  0.000000 0.000000 0.204137
17  1.376307 0.000005 0.000002  -0.000000 0.000000 0.204140
18  4.172846 -0.251366 -1.312743  0.008350 0.095707 0.151865
19  1.215372 0.000000 0.000000  -0.000000 -0.000000 0.667236
20  1.215370 -0.000006 0.000003  -0.000000 -0.000000 0.667236
21  4.220531 -0.244853 -0.431468  0.001417 0.026230 0.151541
22  1.350413 -0.000004 -0.000003  -0.000000 -0.000000 0.892677
23  1.350410 -0.000004 0.000002  0.000000 -0.000000 0.892677
24  -2.135234 0.418284 -2.649725  -0.250780 1.469840 2.664451
25  4.640938 -0.000001 -0.000004  0.843344 -1.150338 -0.869073
26  10.828041 0.000001 0.000005  0.334086 -0.577359 -0.620648
27  9.393339 -0.000007 0.000001  0.743796 -0.365046 0.157755
28  1.442241 0.107454 1.746184  -1.689678 -0.538562 0.332283
29  1.063451 0.000000 0.000000  -0.000000 -0.000000 0.204137
30  1.376306 0.000009 -0.000001  0.000000 -0.000000 0.204128
31  4.172846 -0.251365 1.312745  -0.008350 -0.095707 0.151865
32  1.215377 0.000002 -0.000002  0.000000 -0.000000 0.667233
33  1.215377 -0.000001 -0.000003  -0.000000 -0.000000 0.667233
34  4.220531 -0.244852 0.431468  -0.001417 -0.026230 0.151541
35  1.350414 -0.000001 -0.000002  -0.000000 -0.000000 0.892686
36  1.350410 0.000001 -0.000005  0.000000 0.000000 0.892693
37  4.262827 -0.232716 -1.392181  0.017343 0.076548 0.260445
38  2.110542 -0.000001 -0.000000  0.035785 -0.007005 -0.061051
39  0.891925 2.373052 -0.014527  -3.141592 -0.000001 1.413797
40  7.228123 5.709444 3.726568  3.140796 -1.570796 0.000000
41  2.450428 5.076127 0.001325  3.140791 -1.570796 0.000000
42  6.312404 -4.528059 0.001311  3.140791 -1.570796 0.000000
43  2.233316 1.152535 -7.309139  -1.140137 -1.535904 -0.884450
44  -5.952957 -2.602895 0.029162  0.000000 -0.000000 0.000000
time 2
0  -0.049819 8.706895 38.195515  -0.002205 -0.000000 -1.570843
1  -0.523126 0.050783 0.000001  -0.000059 -1.572621 -1.570789
2  -0.000010 0.000008 4.427394  -0.003942 3.121964 0.309341
3  18.465935 -0.000005 -0.000001  0.000000 -0.000000 -0.441925
4  14.875443 -0.000001 -0.000001  -0.004108 -0.006359 0.156596
5  -0.000005 -0.000002 -4.427393  0.028864 -3.105291 -0.419793
6  18.465942 -0.000000 -0.000000  -0.000000 0.000000 -0.340512
7  14.875443 -0.000000 -0.000000  -0.014769 -0.031310 -0.018153
8  2.255215 -0.007573 0.000003  -0.031648 0.009190 0.032130
9  9.514223 -0.009357 -0.000000  0.001201 -0.006048 -0.014807
10  11.752202 -0.001494 0.000000  -0.000000 -0.000001 0.224354
11  -2.139133 0.414364 2.649730  0.033904 -1.464724 2.882788
12  4.640939 -0.000001 0.000005  -0.318996 1.142929 -0.629166
13  10.828040 -0.000000 -0.000001  0.006353 -0.017453 -0.612991
14  9.393338 -0.000006 0.000001  -1.569611 0.034195 0.000037
15  1.442238 0.107455 -1.746177  1.691253 0.538261 0.335285
16  1.063452 0.000004 -0.000005  0.000000 -0.000000 0.206522
17  1.376307 0.000008 0.000002  -0.000000 -0.000000 0.206527
18  4.172844 -0.251363 -1.312746  0.008494 0.095695 0.153388
19  1.215371 0.000001 0.000002  -0.000000 -0.000000 0.677322
20  1.215373 -0.000004 0.000000  -0.000000 -0.000000 0.677322
21  4.220532 -0.244850 -0.431470  0.001453 0.026230 0.153023
22  1.350416 -0.000003 -0.000002  -0.000000 -0.000000 0.906195
23  1.350408 -0.000003 0.000002  0.000000 -0.000000 0.906195
24  -2.139130 0.414376 -2.649726  -0.394445 1.472200 2.523776
25  4.640938 -0.000000 -0.000007  0.843344 -1.150338 -0.869073
26  10.828043 0.000002 0.000004  0.334087 -0.577359 -0.620648
27  9.393341 -0.000002 -0.000001  0.743796 -0.365046 0.157755
28  1.442244 0.107453 1.746181  -1.691223 -0.538281 0.335270
29  1.063451 0.000001 0.000000  0.000000 -0.000000 0.206522
30  1.376305 0.000007 -0.000001  -0.000000 0.000000 0.206530
31  4.172844 -0.251366 1.312745  -0.008494 -0.095695 0.153388
32  1.215377 0.000000 -0.000004  -0.000000 -0.000000 0.677348
33  1.215377 -0.000003 -0.000004  0.000000 -0.000000 0.677348
34  4.220531 -0.244852 0.431467  -0.001453 -0.026230 0.153023
35  1.350413 -0.000000 0.000001  0.000000 0.000000 0.906157
36  1.350409 0.000001 -0.000005  0.000000 -0.000000 0.906194
37  4.262826 -0.232716 -1.392181  0.017583 0.076501 0.263589
38  2.110547 -0.000002 -0.000000  0.033112 -0.006674 -0.050033
39  0.891919 2.373052 -0.014527  -3.141592 -0.000001 1.413797
40  7.228120 5.709445 3.726568  3.140796 -1.570796 0.000000
41  2.450430 5.076127 0.001325  3.140791 -1.570796 0.000000
42  6.312406 -4.528059 0.001311  3.140791 -1.570796 0.000000
43  2.233311 1.152535 -7.309139  -1.142342 -1.527167 -0.873535
44  -5.952957 -2.602895 0.029162  0.000000 -0.000000 0.000000
time 3
0  -0.135759 6.957026 38.321568  0.000000 -0.000000 -1.570843
1  -0.456717 0.011719 -0.000004  -0.000028 -1.581920 -1.570773
2  -0.000007 0.000007 4.427394  -0.006912 3.132853 0.324211
3  18.465939 -0.000000 -0.000001  0.000000 0.000000 -0.447262
4  14.875442 -0.000002 -0.000001  -0.004677 -0.011722 0.035518
5  -0.000002 -0.000003 -4.427392  0.029055 -3.092950 -0.389377
6  18.465940 0.000001 0.000000  -0.000000 0.000000 -0.371886
7  14.875448 -0.000000 -0.000000  -0.008452 -0.044861 -0.016690
8  2.255217 -0.007574 -0.023435  -0.028315 0.012666 0.026141
9  9.514223 -0.009356 0.000000  0.001576 -0.000430 -0.014569
10  11.752199 -0.001495 0.000000  -0.000000 -0.000001 0.221869
11  -2.139143 0.410458 2.649731  0.219121 -1.471750 2.700794
12  4.640939 0.000001 0.000001  -0.319837 1.142805 -0.630013
13  10.828040 -0.000000 -0.000000  0.023839 -0.032894 -0.578497
14  9.393337 -0.000002 0.000001  -1.569611 0.034195 0.000037
15  1.442236 0.107451 -1.746180  1.691444 0.538212 0.335675
16  1.063448 0.000006 -0.000006  -0.000000 -0.000000 0.206834
17  1.376306 0.000003 0.000003  -0.000000 -0.000000 0.206831
18  4.172845 -0.251367 -1.312747  0.008518 0.095695 0.153588
19  1.215373 -0.000001 -0.000002  0.000000 0.000000 0.678670
20  1.215374 -0.000002 0.000002  0.000000 -0.000000 0.678670
21  4.220532 -0.244851 -0.431472  0.001465 0.026230 0.153223
22  1.350415 -0.000003 -0.000005  -0.000000 -0.000000 0.907951
23  1.350412 -0.000003 0.000002  0.000000 0.000000 0.907951
24  -2.139137 0.410469 -2.649726  -0.570602 1.470778 2.350625
25  4.640937 -0.000001 -0.000007  0.843344 -1.150338 -0.869073
26  10.828033 0.000000 0.000004  0.334086 -0.577359 -0.620648
27  9.393338 -0.000002 -0.000000  0.743796 -0.365046 0.157755
28  1.442242 0.107453 1.746183  -1.691405 -0.538225 0.335631
29  1.063451 0.000001 0.000000  0.000000 -0.000000 0.206834
30  1.376305 0.000005 -0.000001  -0.000000 0.000000 0.206838
31  4.172844 -0.251366 1.312747  -0.008518 -0.095695 0.153588
32  1.215376 0.000002 -0.000001  0.000000 -0.000000 0.678649
33  1.215373 -0.000001 0.000005  0.000000 -0.000000 0.678649
34  4.220531 -0.244852 0.431464  -0.001465 -0.026230 0.153223
35  1.350414 0.000000 0.000001  0.000000 -0.000000 0.907920
36  1.350408 -0.000001 -0.000010  -0.000000 0.000000 0.907912
37  4.262826 -0.232717 -1.392183  0.017619 0.076489 0.263987
38  2.110537 0.000000 -0.000000  0.029153 -0.005983 -0.040616
39  0.891932 2.373049 -0.014527  -3.141592 -0.000001 1.413797
40  7.228125 5.709444 3.726568  3.140796 -1.570796 0.000000
41  2.450428 5.076128 0.001325  3.140791 -1.570796 0.000000
42  6.312405 -4.528059 0.001311  3.140791 -1.570796 0.000000
43  2.233312 1.152533 -7.309140  -1.150299 -1.518459 -0.839452
44  -5.952957 -2.602895 0.029162  0.000000 -0.000000 0.000000
time 4
0  -0.229512 5.224944 38.431866  0.002205 -0.000000 -1.570843
1  -0.378592 -0.023438 -0.000002  -0.000029 -1.591362 -1.570773
2  -0.000011 0.000008 4.427394  -0.010649 3.141470 0.246434
3  18.465940 0.000000 -0.000001  -0.000000 0.000000 -0.595378
4  14.875444 0.000000 -0.000001  -0.002579 -0.012212 -0.142484
5  -0.000011 -0.000002 -4.427392  0.029630 -3.081949 -0.362611
6  18.465939 0.000000 0.000000  0.000000 0.000000 -0.435357
7  14.875446 -0.000000 -0.000000  -0.006557 -0.047983 0.073765
8  2.255209 -0.007575 -0.042967  -0.024180 0.016417 0.018829
9  9.514225 -0.009357 0.000000  0.001951 0.004973 -0.014223
10  11.752192 -0.001493 0.000000  0.000000 -0.000001 0.219344
11  -2.139133 0.402642 2.649730  0.443877 -1.474243 2.479357
12  4.640939 0.000000 0.000004  -0.321472 1.142560 -0.631660
13  10.828047 -0.000000 -0.000001  0.044571 -0.051201 -0.537602
14  9.393334 -0.000003 -0.000001  -1.569611 0.034195 0.000037
15  1.442243 0.107454 -1.746180  1.690713 0.538359 0.334238
16  1.063449 0.000010 -0.000002  0.000000 0.000000 0.205695
17  1.376304 -0.000003 0.000004  -0.000000 -0.000000 0.205699
18  4.172851 -0.251366 -1.312748  0.008446 0.095695 0.152867
19  1.215372 0.000001 -0.000001  -0.000000 -0.000000 0.673810
20  1.215372 -0.000003 -0.000000  -0.000000 0.000000 0.673810
21  4.220538 -0.244852 -0.431472  0.001441 0.026230 0.152502
22  1.350417 -0.000000 -0.000001  -0.000000 -0.000000 0.901499
23  1.350407 -0.000005 0.000001  0.000000 0.000000 0.901499
24  -2.139144 0.402658 -2.649725  -0.743057 1.465270 2.181234
25  4.640938 -0.000002 -0.000004  0.843344 -1.150338 -0.869073
26  10.828032 0.000001 0.000004  0.334086 -0.577359 -0.620648
27  9.393343 -0.000000 -0.000000  0.743796 -0.365046 0.157755
28  1.442248 0.107455 1.746171  -1.690678 -0.538393 0.334240
29  1.063451 0.000008 0.000001  -0.000000 -0.000000 0.205695
30  1.376305 0.000005 -0.000000  0.000000 0.000000 0.205692
31  4.172849 -0.251365 1.312737  -0.008446 -0.095695 0.152867
32  1.215375 0.000001 -0.000004  0.000000 -0.000000 0.673822
33  1.215373 -0.000003 -0.000002  -0.000000 -0.000000 0.673822
34  4.220537 -0.244851 0.431454  -0.001441 -0.026230 0.152502
35  1.350413 -0.000002 -0.000002  -0.000000 -0.000000 0.901499
36  1.350410 -0.000000 -0.000003  -0.000000 -0.000000 0.901471
37  4.262833 -0.232715 -1.392194  0.017499 0.076513 0.262515
38  2.110537 -0.000001 -0.000000  0.024268 -0.005020 -0.032658
39  0.891927 2.373047 -0.014527  -3.141592 -0.000001 1.413797
40  7.228114 5.709445 3.726568  3.140796 -1.570796 0.000000
41  2.450428 5.076127 0.001325  3.140791 -1.570796 0.000000
42  6.312406 -4.528060 0.001311  3.140791 -1.570796 0.000000
43  2.233304 1.152534 -7.309139  -1.130645 -1.502760 -0.825761
44  -5.952957 -2.602895 0.029162  0.000000 -0.000000 0.000000
time 5
0  -0.327171 3.501753 38.557919  0.004602 -0.000000 -1.570843
1  -0.296556 -0.058596 -0.000002  -0.000029 -1.600258 -1.570773
2  -0.000009 0.000007 4.427394  -0.012948 -3.134235 0.129197
3  18.465939 0.000000 -0.000000  0.000000 0.000000 -0.789697
4  14.875439 -0.000001 -0.000000  0.001331 -0.009381 -0.372948
5  -0.000003 -0.000003 -4.427393  0.028097 -3.070757 -0.317783
6  18.465939 0.000000 0.000000  0.000000 0.000000 -0.460036
7  14.875444 -0.000000 -0.000000  -0.004627 -0.051287 0.143248
8  2.255211 -0.007574 -0.062499  -0.019581 0.019972 0.011053
9  9.514227 -0.009356 0.000000  0.002326 0.010067 -0.013790
10  11.752194 -0.001494 0.000000  0.000000 -0.000001 0.216701
11  -2.139135 0.398737 2.649730  0.663583 -1.471372 2.262898
12  4.640939 0.000000 -0.000002  -0.324164 1.142156 -0.634373
13  10.828046 0.000002 0.000001  0.066384 -0.070463 -0.494574
14  9.393336 -0.000005 -0.000001  -1.569611 0.034195 0.000037
15  1.442241 0.107451 -1.746174  1.689443 0.538618 0.331755
16  1.063449 0.000003 -0.000002  -0.000000 -0.000000 0.203718
17  1.376306 0.000003 0.000002  -0.000000 -0.000000 0.203726
18  4.172846 -0.251367 -1.312745  0.008326 0.095707 0.151624
19  1.215371 0.000002 -0.000004  -0.000000 -0.000000 0.665480
20  1.215370 -0.000004 0.000003  0.000000 0.000000 0.665480
21  4.220535 -0.244852 -0.431466  0.001405 0.026242 0.151261
22  1.350409 -0.000003 -0.000005  -0.000000 -0.000000 0.890309
23  1.350409 -0.000001 0.000004  -0.000000 -0.000000 0.890309
24  -2.139136 0.398752 -2.649725  -0.884131 1.457039 2.043209
25  4.640937 -0.000002 -0.000008  0.843344 -1.150338 -0.869073
26  10.828041 0.000002 0.000005  0.334086 -0.577359 -0.620648
27  9.393334 0.000001 -0.000000  0.743796 -0.365046 0.157755
28  1.442246 0.107453 1.746175  -1.689405 -0.538618 0.331717
29  1.063451 -0.000000 0.000000  0.000000 -0.000000 0.203718
30  1.376307 0.000007 0.000000  -0.000000 0.000000 0.203709
31  4.172845 -0.251366 1.312744  -0.008326 -0.095707 0.151624
32  1.215374 0.000001 0.000000  -0.000000 -0.000000 0.665513
33  1.215374 -0.000001 -0.000008  -0.000000 -0.000000 0.665513
34  4.220531 -0.244852 0.431464  -0.001405 -0.026242 0.151261
35  1.350415 -0.000000 -0.000008  0.000000 -0.000000 0.890335
36  1.350410 0.000002 -0.000006  -0.000000 -0.000000 0.890308
37  4.262829 -0.232716 -1.392186  0.017307 0.076560 0.259888
38  2.110549 -0.000002 0.000000  0.018715 -0.003878 -0.026019
39  0.891921 2.373051 -0.014527  -3.141592 -0.000001 1.413797
40  7.228122 5.709445 3.726568  3.140796 -1.570796 0.000000
41  2.450426 5.076127 0.001325  3.140791 -1.570796 0.000000
42  6.312408 -4.528059 0.001311  3.140791 -1.570796 0.000000
43  2.233306 1.152534 -7.309139  -1.134193 -1.489276 -0.786699
44  -5.952957 -2.602895 0.029162  0.000000 -0.000000 0.000000
time 6
0  -0.420924 1.760778 38.683971  0.006711 -0.000000 -1.570843
1  -0.222336 -0.093753 -0.000002  -0.000030 -1.608004 -1.570772
2  -0.000008 0.000007 4.427393  -0.013331 -3.126944 0.010244
3  18.465944 -0.000000 -0.000000  -0.000000 -0.000000 -0.929844
4  14.875441 0.000000 -0.000000  0.003784 -0.006422 -0.457287
5  -0.000008 -0.000002 -4.427393  0.024647 -3.060234 -0.260789
6  18.465940 0.000001 -0.000000  -0.000000 0.000000 -0.457805
7  14.875444 -0.000001 0.000000  -0.002837 -0.054591 0.198023
8  2.255208 -0.007574 -0.082031  -0.014687 0.022820 0.003608
9  9.514223 -0.009356 0.000000  0.002664 0.014730 -0.013357
10  11.752202 -0.001494 0.000000  0.000000 -0.000001 0.213900
11  -2.143031 0.390923 2.649730  0.838224 -1.464976 2.091435
12  4.640939 0.000000 -0.000002  -0.328171 1.141548 -0.638412
13  10.828040 0.000000 0.000001  0.087115 -0.088770 -0.453679
14  9.393337 -0.000004 -0.000004  -1.569611 0.034195 0.000037
15  1.442241 0.107454 -1.746174  1.688041 0.538901 0.329025
16  1.063451 0.000007 -0.000003  0.000000 -0.000000 0.201548
17  1.376307 0.000004 0.000001  -0.000000 -0.000000 0.201546
18  4.172844 -0.251366 -1.312744  0.008194 0.095719 0.150222
19  1.215372 0.000002 0.000001  -0.000000 -0.000000 0.656293
20  1.215373 -0.000004 0.000006  0.000000 0.000000 0.656293
21  4.220533 -0.244851 -0.431468  0.001369 0.026242 0.149900
22  1.350413 -0.000007 -0.000002  -0.000000 -0.000000 0.878016
23  1.350411 -0.000003 0.000000  -0.000000 -0.000000 0.878016
24  -2.143040 0.390939 -2.649726  -0.982438 1.448505 1.947916
25  4.640938 -0.000001 -0.000015  0.843344 -1.150338 -0.869073
26  10.828045 0.000006 0.000008  0.334086 -0.577359 -0.620648
27  9.393338 -0.000001 -0.000001  0.743796 -0.365046 0.157755
28  1.442245 0.107453 1.746188  -1.688041 -0.538899 0.328988
29  1.063452 -0.000003 0.000001  0.000000 -0.000000 0.201548
30  1.376306 0.000007 -0.000000  0.000000 0.000000 0.201549
31  4.172846 -0.251366 1.312751  -0.008194 -0.095719 0.150222
32  1.215375 0.000002 0.000002  0.000000 0.000000 0.656280
33  1.215377 -0.000002 -0.000001  0.000000 0.000000 0.656280
34  4.220535 -0.244852 0.431465  -0.001369 -0.026242 0.149900
35  1.350415 -0.000001 -0.000000  0.000000 -0.000000 0.877997
36  1.350410 -0.000000 -0.000010  -0.000000 -0.000000 0.877999
37  4.262828 -0.232717 -1.392179  0.017092 0.076608 0.257022
38  2.110555 -0.000003 -0.000000  0.012803 -0.002615 -0.020510
39  0.891918 2.373053 -0.014527  -3.141592 -0.000001 1.413797
40  7.228126 5.709445 3.726568  3.140796 -1.570796 0.000000
41  2.450425 5.076127 0.001325  3.140791 -1.570796 0.000000
42  6.312403 -4.528059 0.001311  3.140791 -1.570796 0.000000
43  2.233307 1.152534 -7.309139  -1.205809 -1.483538 -0.673725
44  -5.952957 -2.602895 0.029162  0.000000 -0.000000 0.000000
time 7
0  -0.502958 0.002019 38.794270  0.008437 -0.000000 -1.570843
1  -0.155927 -0.121097 0.000001  -0.000030 -1.613940 -1.570772
2  -0.000014 0.000007 4.427394  -0.012277 -3.120222 -0.102418
3  18.465940 -0.000000 -0.000001  0.000000 -0.000000 -0.991912
4  14.875443 -0.000001 -0.000000  0.005633 -0.004847 -0.310769
5  -0.000005 -0.000003 -4.427393  0.019088 -3.051337 -0.194155
6  18.465939 0.000001 -0.000000  -0.000000 0.000000 -0.434504
7  14.875442 -0.000001 0.000000  -0.001398 -0.057623 0.241206
8  2.255215 -0.007575 -0.093750  -0.009750 0.024469 -0.002678
9  9.514229 -0.009357 0.000000  0.002926 0.018843 -0.012946
10  11.752201 -0.001494 0.000000  0.000000 -0.000001 0.210941
11  -2.143046 0.387019 2.649730  0.951698 -1.458328 1.981148
12  4.640939 0.000001 0.000001  -0.333744 1.140690 -0.644030
13  10.828032 -0.000001 0.000002  0.104602 -0.104211 -0.419186
14  9.393338 -0.000004 -0.000004  -1.569611 0.034195 0.000037
15  1.442237 0.107452 -1.746179  1.686902 0.539123 0.326808
16  1.063450 0.000004 -0.000003  0.000000 -0.000000 0.199787
17  1.376308 0.000006 0.000004  0.000000 -0.000000 0.199780
18  4.172846 -0.251364 -1.312747  0.008086 0.095731 0.149140
19  1.215372 -0.000003 -0.000003  0.000000 -0.000000 0.648820
20  1.215365 -0.000005 0.000002  -0.000000 0.000000 0.648820
21  4.220534 -0.244852 -0.431472  0.001345 0.026242 0.148779
22  1.350415 -0.000004 -0.000003  0.000000 -0.000000 0.868010
23  1.350410 -0.000001 0.000000  0.000000 -0.000000 0.868010
24  -2.143040 0.387033 -2.649726  -1.036683 1.442302 1.896808
25  4.640938 -0.000001 -0.000006  0.843344 -1.150338 -0.869073
26  10.828044 0.000004 0.000006  0.334086 -0.577359 -0.620648
27  9.393335 -0.000002 -0.000001  0.743796 -0.365046 0.157755
28  1.442241 0.107454 1.746181  -1.686859 -0.539124 0.326773
29  1.063451 0.000007 0.000000  0.000000 -0.000000 0.199787
30  1.376306 0.000007 -0.000002  0.000000 0.000000 0.199786
31  4.172843 -0.251367 1.312748  -0.008086 -0.095731 0.149140
32  1.215374 0.000002 0.000002  0.000000 0.000000 0.648809
33  1.215376 -0.000002 -0.000000  0.000000 0.000000 0.648809
34  4.220530 -0.244852 0.431465  -0.001345 -0.026242 0.148779
35  1.350412 -0.000001 -0.000003  0.000000 -0.000000 0.868008
36  1.350405 0.000000 -0.000003  -0.000000 0.000000 0.868028
37  4.262824 -0.232717 -1.392183  0.016912 0.076656 0.254714
38  2.110541 0.000001 0.000000  0.006941 -0.001382 -0.015990
39  0.891919 2.373051 -0.014527  -3.141592 -0.000001 1.413797
40  7.228121 5.709444 3.726568  3.140796 -1.570796 0.000000
41  2.450432 5.076127 0.001325  3.140791 -1.570796 0.000000
42  6.312410 -4.528060 0.001311  3.140791 -1.570796 0.000000
43  2.233306 1.152534 -7.309139  -1.272345 -1.483771 -0.547348
44  -5.952957 -2.602895 0.029162  0.000000 -0.000000 0.000000
time 8
0  -0.569366 -1.792309 38.873055  0.009492 -0.000000 -1.570843
1  -0.112957 -0.148442 -0.000001  0.000033 -1.617447 -1.570821
2  -0.000016 0.000007 4.427394  -0.010265 -3.115582 -0.219465
3  18.465937 0.000001 -0.000001  0.000000 -0.000000 -1.021959
4  14.875445 0.000001 -0.000001  0.008264 -0.004188 -0.048308
5  -0.000003 -0.000003 -4.427393  0.011996 -3.045024 -0.119380
6  18.465942 0.000000 0.000000  -0.000000 0.000000 -0.393218
7  14.875446 -0.000001 -0.000001  -0.000520 -0.060200 0.274372
8  2.255209 -0.007574 -0.101563  -0.004898 0.024351 -0.007013
9  9.514225 -0.009357 -0.000000  0.003076 0.022310 -0.012621
10  11.752200 -0.001494 0.000000  -0.000000 -0.000001 0.207824
11  -2.143039 0.379202 2.649731  1.002099 -1.454677 1.933950
12  4.640939 0.000001 0.000008  -0.341125 1.139531 -0.651475
13  10.828042 -0.000000 -0.000000  0.116680 -0.114877 -0.395360
14  9.393342 -0.000007 -0.000002  -1.569611 0.034195 0.000037
15  1.442239 0.107457 -1.746179  1.686435 0.539209 0.325885
16  1.063446 0.000003 -0.000004  0.000000 0.000000 0.199056
17  1.376306 0.000001 0.000004  0.000000 -0.000000 0.199049
18  4.172848 -0.251361 -1.312748  0.008050 0.095731 0.148659
19  1.215372 -0.000002 0.000000  0.000000 0.000000 0.645758
20  1.215370 -0.000001 0.000000  0.000000 -0.000000 0.645758
21  4.220536 -0.244846 -0.431472  0.001333 0.026242 0.148339
22  1.350409 -0.000004 -0.000003  0.000000 0.000000 0.863926
23  1.350411 -0.000001 0.000006  0.000000 0.000000 0.863926
24  -2.143041 0.379216 -2.649725  -1.045569 1.440728 1.891082
25  4.640938 -0.000001 -0.000009  0.843344 -1.150338 -0.869073
26  10.828047 0.000007 0.000005  0.334086 -0.577359 -0.620648
27  9.393335 0.000000 -0.000003  0.743796 -0.365046 0.157755
28  1.442243 0.107454 1.746173  -1.686405 -0.539236 0.325898
29  1.063451 0.000009 0.000001  -0.000000 -0.000000 0.199056
30  1.376306 0.000011 -0.000000  0.000000 0.000000 0.199059
31  4.172843 -0.251367 1.312742  -0.008050 -0.095731 0.148659
32  1.215377 -0.000001 0.000006  0.000000 0.000000 0.645746
33  1.215376 -0.000001 0.000002  -0.000000 -0.000000 0.645746
34  4.220529 -0.244852 0.431464  -0.001333 -0.026242 0.148339
35  1.350412 -0.000001 -0.000005  -0.000000 -0.000000 0.863937
36  1.350409 -0.000000 -0.000005  -0.000000 -0.000000 0.863925
37  4.262825 -0.232716 -1.392184  0.016840 0.076668 0.253759
38  2.110548 -0.000004 -0.000000  0.001388 -0.000240 -0.012176
39  0.891925 2.373050 -0.014527  -3.141592 -0.000001 1.413797
40  7.228121 5.709445 3.726568  3.140796 -1.570796 0.000000
41  2.450430 5.076128 0.001325  3.140791 -1.570796 0.000000
42  6.312411 -4.528059 0.001311  3.140791 -1.570796 0.000000
43  2.233306 1.152534 -7.309139  -1.341948 -1.484150 -0.413981
44  -5.952957 -2.602895 0.029162  0.000000 -0.000000 0.000000
time 9
0  -0.612336 -3.631097 38.888809  0.009683 -0.000000 -1.570843
1  -0.097332 -0.164068 -0.000006  -0.000030 -1.617863 -1.570772
2  -0.000014 0.000007 4.427394  -0.008541 -3.114162 -0.330983
3  18.465939 0.000001 -0.000001  -0.000000 -0.000000 -1.024737
4  14.875442 0.000002 -0.000001  0.011393 -0.004869 0.228809
5  -0.000003 -0.000002 -4.427393  0.003945 -3.042345 -0.036930
6  18.465939 0.000000 0.000000  0.000000 0.000000 -0.334933
7  14.875446 0.000001 -0.000001  -0.000345 -0.061988 0.298308
8  2.255211 -0.007575 -0.105469  -0.000342 0.021975 -0.008568
9  9.514223 -0.009357 0.000000  0.003076 0.025012 -0.012448
10  11.752199 -0.001494 -0.000000  0.000000 -0.000001 0.204510
11  -2.146948 0.371392 2.649730  0.986283 -1.455810 1.953097
12  4.640939 0.000001 0.000000  -0.350544 1.138016 -0.660979
13  10.828043 -0.000000 -0.000002  0.121187 -0.118856 -0.386470
14  9.393339 -0.000004 0.000001  -1.569611 0.034195 0.000037
15  1.442240 0.107456 -1.746178  1.686435 0.539209 0.325885
16  1.063451 0.000002 -0.000006  0.000000 0.000000 0.199056
17  1.376302 0.000006 0.000003  -0.000000 -0.000000 0.199049
18  4.172845 -0.251365 -1.312747  0.008050 0.095731 0.148659
19  1.215372 -0.000002 -0.000004  0.000000 -0.000000 0.645758
20  1.215373 -0.000006 0.000003  -0.000000 -0.000000 0.645758
21  4.220532 -0.244852 -0.431470  0.001333 0.026242 0.148339
22  1.350412 -0.000004 -0.000003  -0.000000 -0.000000 0.863926
23  1.350408 -0.000000 0.000001  -0.000000 0.000000 0.863926
24  -2.146945 0.371405 -2.649726  -0.993361 1.445237 1.946548
25  4.640938 -0.000001 -0.000005  0.843344 -1.150338 -0.869073
26  10.828043 0.000005 0.000004  0.334086 -0.577359 -0.620648
27  9.393338 -0.000001 -0.000001  0.743796 -0.365046 0.157755
28  1.442242 0.107454 1.746182  -1.686405 -0.539236 0.325898
29  1.063452 0.000007 0.000000  -0.000000 -0.000000 0.199056
30  1.376306 -0.000000 0.000000  0.000000 0.000000 0.199059
31  4.172844 -0.251366 1.312744  -0.008050 -0.095731 0.148659
32  1.215378 0.000001 -0.000004  0.000000 -0.000000 0.645746
33  1.215377 -0.000003 -0.000004  0.000000 0.000000 0.645746
34  4.220530 -0.244852 0.431464  -0.001333 -0.026242 0.148339
35  1.350415 -0.000003 -0.000000  -0.000000 -0.000000 0.863937
36  1.350407 0.000001 0.000003  0.000000 0.000000 0.863925
37  4.262826 -0.232716 -1.392182  0.016840 0.076668 0.253759
38  2.110551 -0.000003 0.000000  -0.003342 0.000723 -0.009021
39  0.891922 2.373052 -0.014527  -3.141592 -0.000001 1.413797
40  7.228124 5.709445 3.726568  3.140796 -1.570796 0.000000
41  2.450425 5.076127 0.001325  3.140791 -1.570796 0.000000
42  6.312406 -4.528059 0.001311  3.140791 -1.570796 0.000000
43  2.233310 1.152534 -7.309139  -1.409443 -1.484179 -0.284923
44  -5.952957 -2.602895 0.029162  0.000000 -0.000000 0.000000
time 10
0  -0.608430 -5.585481 38.794270  0.009300 -0.000000 -1.570843
1  -0.124676 -0.179693 -0.000001  -0.000029 -1.615808 -1.570773
2  -0.000012 0.000007 4.427394  -0.008062 -3.115393 -0.427060
3  18.465937 0.000001 -0.000001  0.000000 0.000000 -1.004779
4  14.875442 0.000002 -0.000001  0.014628 -0.006380 0.419492
5  0.000001 -0.000003 -4.427393  -0.004393 -3.043684 0.054972
6  18.465937 -0.000000 -0.000001  0.000000 0.000000 -0.260304
7  14.875443 -0.000000 -0.000000  -0.000977 -0.062322 0.315153
8  2.255213 -0.007576 -0.097656  0.004848 0.018067 -0.005722
9  9.514229 -0.009357 -0.000000  0.002851 0.026732 -0.012491
10  11.752204 -0.001494 0.000000  0.000000 -0.000001 0.200881
11  -2.146943 0.363581 2.649731  0.910443 -1.460443 2.032366
12  4.640940 0.000000 0.000006  -0.365659 1.136206 -0.676042
13  10.828036 0.000000 0.000000  0.118974 -0.118432 -0.392010
14  9.393339 -0.000003 -0.000003  -1.569813 0.034254 -0.000306
15  1.442241 0.107452 -1.746173  1.686435 0.539209 0.325885
16  1.063449 0.000001 -0.000002  -0.000000 -0.000000 0.199056
17  1.376301 0.000005 0.000000  -0.000000 -0.000000 0.199049
18  4.172846 -0.251365 -1.312745  0.008050 0.095731 0.148659
19  1.215374 0.000000 -0.000000  0.000000 -0.000000 0.645758
20  1.215373 -0.000005 0.000005  0.000000 0.000000 0.645758
21  4.220536 -0.244851 -0.431466  0.001333 0.026242 0.148339
22  1.350414 -0.000002 -0.000001  0.000000 -0.000000 0.863926
23  1.350407 0.000001 0.000004  -0.000000 0.000000 0.863926
24  -2.146943 0.363592 -2.649727  -0.870153 1.453741 2.073121
25  4.640938 -0.000001 -0.000008  0.843344 -1.150338 -0.869073
26  10.828035 0.000003 0.000004  0.334087 -0.577359 -0.620648
27  9.393340 0.000001 0.000000  0.743796 -0.365046 0.157755
28  1.442246 0.107453 1.746183  -1.686405 -0.539236 0.325898
29  1.063451 0.000002 -0.000003  -0.000000 -0.000000 0.199056
30  1.376307 0.000006 -0.000001  0.000000 0.000000 0.199059
31  4.172848 -0.251367 1.312748  -0.008050 -0.095731 0.148659
32  1.215374 0.000001 0.000001  -0.000000 0.000000 0.645746
33  1.215377 -0.000005 -0.000006  -0.000000 0.000000 0.645746
34  4.220534 -0.244851 0.431468  -0.001333 -0.026242 0.148339
35  1.350415 -0.000001 0.000002  -0.000000 -0.000000 0.863937
36  1.350407 -0.000001 -0.000006  -0.000000 -0.000000 0.863925
37  4.262833 -0.232718 -1.392181  0.016840 0.076668 0.253759
38  2.110550 -0.000001 0.000000  -0.008227 0.001745 -0.008503
39  0.891925 2.373050 -0.014527  -3.141592 -0.000001 1.413797
40  7.228127 5.709445 3.726568  3.140796 -1.570796 0.000000
41  2.450433 5.076127 0.001325  3.140791 -1.570796 0.000000
42  6.312407 -4.528060 0.001311  3.140791 -1.570796 0.000000
43  2.233312 1.152534 -7.309139  -1.467445 -1.483538 -0.173194
44  -5.952957 -2.602895 0.029162  0.000000 -0.000000 0.000000
time 11
0  -0.557647 -7.673247 38.620945  0.008533 -0.000000 -1.570843
1  -0.202803 -0.183599 0.000005  -0.000029 -1.612402 -1.570773
2  -0.000017 0.000008 4.427394  -0.009211 -3.118423 -0.508745
3  18.465935 -0.000001 -0.000001  0.000000 -0.000000 -0.955358
4  14.875443 0.000001 -0.000001  0.018610 -0.007742 0.469464
5  -0.000002 -0.000002 -4.427393  -0.003531 -3.047702 0.065641
6  18.465940 0.000001 -0.000000  -0.000000 0.000000 -0.358431
7  14.875445 -0.000000 -0.000000  0.001129 -0.056804 0.372818
8  2.255215 -0.007575 -0.093750  0.011261 0.013786 0.001358
9  9.514227 -0.009357 -0.000000  0.002364 0.027404 -0.012708
10  11.752196 -0.001494 0.000000  -0.000000 -0.000001 0.196936
11  -2.146952 0.355769 2.649730  0.783155 -1.466084 2.163429
12  4.640939 0.000000 0.000005  -0.387614 1.134202 -0.697728
13  10.828046 0.000000 0.000003  0.113267 -0.117272 -0.406298
14  9.393339 -0.000006 0.000001  -1.570335 0.034407 -0.001190
15  1.442242 0.107453 -1.746181  1.686435 0.539209 0.325885
16  1.063448 0.000003 -0.000001  0.000000 0.000000 0.199056
17  1.376307 0.000003 0.000002  -0.000000 -0.000000 0.199049
18  4.172847 -0.251368 -1.312749  0.008050 0.095731 0.148659
19  1.215374 0.000003 -0.000005  0.000000 -0.000000 0.645758
20  1.215374 -0.000004 0.000007  0.000000 -0.000000 0.645758
21  4.220536 -0.244852 -0.431474  0.001333 0.026242 0.148339
22  1.350413 -0.000004 -0.000002  0.000000 -0.000000 0.863926
23  1.350409 0.000001 0.000005  0.000000 0.000000 0.863926
24  -2.146953 0.355781 -2.649724  -0.678444 1.461941 2.268323
25  4.640938 -0.000001 -0.000007  0.843344 -1.150338 -0.869073
26  10.828038 0.000002 0.000004  0.334086 -0.577359 -0.620648
27  9.393335 -0.000004 -0.000003  0.743796 -0.365046 0.157755
28  1.442244 0.107452 1.746183  -1.686405 -0.539236 0.325898
29  1.063452 0.000007 -0.000000  -0.000000 -0.000000 0.199056
30  1.376306 0.000003 0.000001  0.000000 0.000000 0.199059
31  4.172848 -0.251366 1.312745  -0.008050 -0.095731 0.148659
32  1.215376 -0.000000 -0.000003  -0.000000 0.000000 0.645746
33  1.215375 -0.000001 0.000001  -0.000000 0.000000 0.645746
34  4.220535 -0.244854 0.431462  -0.001333 -0.026242 0.148339
35  1.350415 -0.000001 -0.000003  0.000000 -0.000000 0.863937
36  1.350406 0.000000 0.000001  0.000000 0.000000 0.863925
37  4.262832 -0.232716 -1.392183  0.016840 0.076668 0.253759
38  2.110543 -0.000001 0.000000  -0.013882 0.002858 -0.011752
39  0.891932 2.373048 -0.014527  -3.141592 -0.000001 1.413797
40  7.228125 5.709445 3.726568  3.140796 -1.570796 0.000000
41  2.450427 5.076128 0.001325  3.140791 -1.570796 0.000000
42  6.312406 -4.528060 0.001311  3.140791 -1.570796 0.000000
43  2.233308 1.152534 -7.309139  -1.467350 -1.484383 -0.173099
44  -5.952957 -2.602895 0.029162  0.000000 -0.000000 0.000000
time 12
0  -0.479519 -9.796579 38.416107  0.007478 -0.000000 -1.570843
1  -0.300463 -0.183599 0.000000  -0.000029 -1.607817 -1.570773
2  -0.000006 0.000007 4.427394  -0.011990 -3.122399 -0.568889
3  18.465939 0.000001 -0.000001  0.000000 0.000000 -0.862878
4  14.875443 -0.000002 -0.000000  0.023018 -0.009147 0.425694
5  -0.000000 -0.000002 -4.427393  -0.003339 -3.054112 0.098958
6  18.465939 0.000001 -0.000000  -0.000000 0.000000 -0.406346
7  14.875444 -0.000000 -0.000000  0.001585 -0.049984 0.403958
8  2.255213 -0.007574 -0.082031  0.018054 0.009190 0.010987
9  9.514224 -0.009356 -0.000000  0.001763 0.027149 -0.013011
10  11.752205 -0.001497 -0.000000  -0.000000 -0.000001 0.192715
11  -2.150849 0.347954 2.649730  0.618232 -1.470239 2.332211
12  4.640938 0.000002 0.000003  -0.412914 1.132040 -0.722652
13  10.828039 0.000002 0.000001  0.105463 -0.115545 -0.425835
14  9.393341 -0.000006 -0.000004  -1.571048 0.034615 -0.002399
15  1.442239 0.107456 -1.746176  1.686435 0.539209 0.325885
16  1.063450 0.000004 -0.000006  0.000000 -0.000000 0.199056
17  1.376307 0.000002 0.000004  0.000000 -0.000000 0.199049
18  4.172843 -0.251366 -1.312749  0.008050 0.095731 0.148659
19  1.215368 0.000005 0.000000  0.000000 0.000000 0.645758
20  1.215373 -0.000002 0.000003  0.000000 0.000000 0.645758
21  4.220531 -0.244852 -0.431473  0.001333 0.026242 0.148339
22  1.350414 -0.000003 -0.000004  -0.000000 -0.000000 0.863926
23  1.350409 -0.000003 0.000003  -0.000000 -0.000000 0.863926
24  -2.150856 0.347969 -2.649725  -0.438508 1.465785 2.511726
25  4.640938 -0.000002 -0.000010  0.843344 -1.150338 -0.869073
26  10.828038 0.000003 0.000005  0.334086 -0.577359 -0.620648
27  9.393332 -0.000006 0.000000  0.743796 -0.365046 0.157755
28  1.442245 0.107453 1.746173  -1.686405 -0.539236 0.325898
29  1.063452 0.000008 0.000000  -0.000000 -0.000000 0.199056
30  1.376305 0.000004 -0.000001  0.000000 0.000000 0.199059
31  4.172846 -0.251366 1.312736  -0.008050 -0.095731 0.148659
32  1.215375 0.000002 -0.000003  0.000000 -0.000000 0.645746
33  1.215374 -0.000001 -0.000000  -0.000000 -0.000000 0.645746
34  4.220532 -0.244853 0.431458  -0.001333 -0.026242 0.148339
35  1.350412 -0.000002 -0.000006  -0.000000 -0.000000 0.863937
36  1.350405 -0.000001 -0.000002  -0.000000 -0.000000 0.863925
37  4.262829 -0.232717 -1.392187  0.016840 0.076668 0.253759
38  2.110545 -0.000000 -0.000000  -0.019744 0.003940 -0.017120
39  0.891916 2.373049 -0.014527  -3.141592 -0.000001 1.413797
40  7.228127 5.709441 3.726568  3.140796 -1.570796 0.000000
41  2.450427 5.076128 0.001325  3.140791 -1.570796 0.000000
42  6.312404 -4.528060 0.001311  3.140791 -1.570796 0.000000
43  2.233314 1.152535 -7.309140  -1.481443 -1.492858 -0.129058
44  -5.952957 -2.602895 0.029162  0.000000 -0.000000 0.000000
time 13
0  -0.389673 -11.875453 38.211269  0.006328 -0.000000 -1.570843
1  -0.413750 -0.179693 0.000002  -0.000030 -1.602255 -1.570772
2  -0.000009 0.000006 4.427394  -0.015918 -3.126944 -0.585473
3  18.465939 0.000001 -0.000001  0.000000 -0.000000 -0.721854
4  14.875441 0.000001 -0.000000  0.026324 -0.010764 0.338865
5  -0.000007 -0.000003 -4.427392  -0.002956 -3.062147 0.144067
6  18.465942 0.000000 0.000000  0.000000 0.000000 -0.422492
7  14.875449 0.000000 -0.000001  0.001024 -0.042132 0.413637
8  2.255215 -0.007575 -0.070312  0.024510 0.004359 0.021376
9  9.514226 -0.009357 0.000000  0.001050 0.026074 -0.013314
10  11.752193 -0.001495 0.000000  0.000000 -0.000001 0.188296
11  -2.150849 0.336233 2.649731  0.442829 -1.471372 2.511620
12  4.640939 0.000000 0.000004  -0.438160 1.129849 -0.747509
13  10.828044 -0.000001 -0.000003  0.096960 -0.113418 -0.447121
14  9.393340 -0.000003 0.000001  -1.571826 0.034842 -0.003716
15  1.442234 0.107450 -1.746177  1.686435 0.539209 0.325885
16  1.063452 0.000005 -0.000004  -0.000000 -0.000000 0.199056
17  1.376305 0.000004 0.000004  -0.000000 -0.000000 0.199049
18  4.172843 -0.251368 -1.312746  0.008050 0.095731 0.148659
19  1.215368 -0.000002 -0.000002  0.000000 -0.000000 0.645758
20  1.215376 -0.000003 0.000004  0.000000 -0.000000 0.645758
21  4.220531 -0.244854 -0.431472  0.001333 0.026242 0.148339
22  1.350415 -0.000003 -0.000001  -0.000000 -0.000000 0.863926
23  1.350406 -0.000002 0.000002  0.000000 -0.000000 0.863926
24  -2.150846 0.336249 -2.649725  -0.199034 1.463515 2.754616
25  4.640938 -0.000002 -0.000005  0.843344 -1.150338 -0.869073
26  10.828045 -0.000000 0.000001  0.334086 -0.577359 -0.620648
27  9.393333 -0.000006 0.000000  0.743796 -0.365046 0.157755
28  1.442246 0.107456 1.746185  -1.686405 -0.539236 0.325898
29  1.063451 0.000008 0.000003  0.000000 -0.000000 0.199056
30  1.376306 0.000000 0.000001  -0.000000 0.000000 0.199059
31  4.172848 -0.251363 1.312743  -0.008050 -0.095731 0.148659
32  1.215375 0.000000 -0.000001  0.000000 0.000000 0.645746
33  1.215374 0.000001 -0.000002  -0.000000 0.000000 0.645746
34  4.220534 -0.244851 0.431469  -0.001333 -0.026242 0.148339
35  1.350415 -0.000000 -0.000001  0.000000 -0.000000 0.863937
36  1.350405 -0.000003 -0.000004  0.000000 -0.000000 0.863925
37  4.262830 -0.232713 -1.392184  0.016840 0.076668 0.253759
38  2.110551 -0.000002 0.000000  -0.025245 0.004902 -0.023053
39  0.891921 2.373053 -0.014527  -3.141592 -0.000001 1.413797
40  7.228120 5.709445 3.726568  3.140796 -1.570796 0.000000
41  2.450431 5.076127 0.001325  3.140791 -1.570796 0.000000
42  6.312405 -4.528059 0.001311  3.140791 -1.570796 0.000000
43  2.233307 1.152533 -7.309139  -1.505986 -1.502265 -0.070752
44  -5.952957 -2.602895 0.029162  0.000000 -0.000000 0.000000
time 14
0  -0.307639 -13.812054 38.053703  0.004890 -0.000000 -1.570843
1  -0.515311 -0.171880 -0.000001  -0.000028 -1.595874 -1.570774
2  -0.000009 0.000006 4.427394  -0.020709 -3.131773 -0.528189
3  18.465942 0.000001 -0.000001  0.000000 0.000000 -0.477529
4  14.875442 0.000002 -0.000000  0.028138 -0.012829 0.183261
5  -0.000010 -0.000003 -4.427393  -0.001710 -3.071235 0.192732
6  18.465939 0.000000 -0.000000  -0.000000 0.000000 -0.418357
7  14.875446 0.000000 0.000000  -0.000204 -0.033675 0.402757
8  2.255209 -0.007575 -0.054686  0.029911 -0.000531 0.030840
9  9.514218 -0.009358 -0.000000  0.000338 0.024273 -0.013552
10  11.752202 -0.001495 0.000000  0.000000 -0.000001 0.183720
11  -2.150862 0.328425 2.649730  0.291912 -1.469660 2.666521
12  4.640939 -0.000001 0.000003  -0.460079 1.127864 -0.769094
13  10.828047 -0.000002 0.000002  0.089156 -0.111060 -0.466658
14  9.393339 -0.000004 -0.000002  -1.572541 0.035050 -0.004925
15  1.442240 0.107450 -1.746175  1.686435 0.539209 0.325885
16  1.063449 0.000003 -0.000001  -0.000000 0.000000 0.199056
17  1.376304 0.000004 0.000002  -0.000000 -0.000000 0.199049
18  4.172847 -0.251368 -1.312743  0.008050 0.095731 0.148659
19  1.215373 0.000005 -0.000003  -0.000000 -0.000000 0.645758
20  1.215375 -0.000001 0.000005  0.000000 -0.000000 0.645758
21  4.220537 -0.244851 -0.431465  0.001333 0.026242 0.148339
22  1.350412 -0.000003 -0.000005  -0.000000 -0.000000 0.863926
23  1.350410 -0.000004 -0.000001  0.000000 -0.000000 0.863926
24  -2.150855 0.328436 -2.649725  -0.009824 1.457009 2.947339
25  4.640938 -0.000003 -0.000009  0.843344 -1.150338 -0.869073
26  10.828037 -0.000002 0.000006  0.334086 -0.577359 -0.620648
27  9.393337 -0.000004 -0.000002  0.743796 -0.365046 0.157755
28  1.442246 0.107456 1.746176  -1.686405 -0.539236 0.325898
29  1.063451 0.000011 0.000001  -0.000000 -0.000000 0.199056
30  1.376306 0.000007 -0.000003  0.000000 0.000000 0.199059
31  4.172846 -0.251362 1.312742  -0.008050 -0.095731 0.148659
32  1.215377 -0.000001 0.000006  -0.000000 0.000000 0.645746
33  1.215373 -0.000004 0.000006  -0.000000 0.000000 0.645746
34  4.220534 -0.244849 0.431466  -0.001333 -0.026242 0.148339
35  1.350411 0.000003 -0.000002  -0.000000 -0.000000 0.863937
36  1.350409 -0.000001 -0.000004  0.000000 0.000000 0.863925
37  4.262831 -0.232712 -1.392186  0.016840 0.076668 0.253759
38  2.110541 -0.000000 0.000000  -0.029821 0.005624 -0.027903
39  0.891925 2.373051 -0.014527  -3.141592 -0.000001 1.413797
40  7.228124 5.709446 3.726568  3.140796 -1.570796 0.000000
41  2.450420 5.076126 0.001325  3.140791 -1.570796 0.000000
42  6.312399 -4.528061 0.001311  3.140791 -1.570796 0.000000
43  2.233309 1.152534 -7.309139  -1.545390 -1.511847 0.003638
44  -5.952957 -2.602895 0.029162  0.000000 -0.000000 0.000000
time 15
0  -0.233418 -15.526351 38.069458  0.003356 -0.000000 -1.570843
1  -0.585629 -0.160161 0.000006  0.000032 -1.588877 -1.570820
2  -0.000011 0.000007 4.427393  -0.024924 -3.138212 -0.427441
3  18.465939 -0.000001 -0.000001  0.000000 0.000000 -0.184734
4  14.875441 -0.000000 -0.000000  0.028778 -0.014659 -0.015362
5  -0.000001 -0.000002 -4.427392  0.000015 -3.080897 0.242520
6  18.465946 0.000001 0.000000  0.000000 0.000000 -0.390790
7  14.875446 -0.000001 -0.000000  -0.001468 -0.024520 0.363288
8  2.255210 -0.007574 -0.039061  0.033497 -0.005382 0.037589
9  9.514223 -0.009357 -0.000000  -0.000225 0.021867 -0.013638
10  11.752197 -0.001494 0.000000  0.000000 -0.000001 0.179065
11  -2.154759 0.316703 2.649730  0.193777 -1.466915 2.768958
12  4.640939 0.000002 0.000007  -0.475511 1.126413 -0.784297
13  10.828043 -0.000001 -0.000002  0.083449 -0.108639 -0.480946
14  9.393337 -0.000002 0.000000  -1.573063 0.035202 -0.005809
15  1.442239 0.107451 -1.746182  1.686435 0.539209 0.325885
16  1.063450 -0.000004 -0.000002  0.000000 0.000000 0.199056
17  1.376310 0.000003 0.000002  -0.000000 -0.000000 0.199049
18  4.172847 -0.251367 -1.312750  0.008050 0.095731 0.148659
19  1.215373 0.000000 0.000001  -0.000000 -0.000000 0.645758
20  1.215375 -0.000002 0.000001  0.000000 -0.000000 0.645758
21  4.220535 -0.244851 -0.431472  0.001333 0.026242 0.148339
22  1.350417 -0.000001 -0.000003  0.000000 -0.000000 0.863926
23  1.350411 -0.000001 0.000003  0.000000 0.000000 0.863926
24  -2.154758 0.316717 -2.649725  0.106534 1.450472 3.067503
25  4.640938 -0.000001 -0.000006  0.843344 -1.150338 -0.869073
26  10.828047 0.000004 0.000003  0.334086 -0.577359 -0.620648
27  9.393337 -0.000006 0.000004  0.743796 -0.365046 0.157755
28  1.442247 0.107454 1.746183  -1.686405 -0.539236 0.325898
29  1.063453 0.000002 -0.000002  0.000000 -0.000000 0.199056
30  1.376306 0.000002 -0.000000  0.000000 0.000000 0.199059
31  4.172848 -0.251365 1.312743  -0.008050 -0.095731 0.148659
32  1.215378 0.000001 -0.000008  0.000000 0.000000 0.645746
33  1.215374 -0.000002 -0.000000  0.000000 -0.000000 0.645746
34  4.220535 -0.244853 0.431468  -0.001333 -0.026242 0.148339
35  1.350416 0.000000 0.000002  0.000000 -0.000000 0.863937
36  1.350410 0.000001 -0.000004  -0.000000 0.000000 0.863925
37  4.262831 -0.232715 -1.392183  0.016840 0.076668 0.253759
38  2.110545 -0.000001 0.000000  -0.032855 0.006105 -0.029974
39  0.891926 2.373049 -0.014527  -3.141592 -0.000001 1.413797
40  7.228127 5.709446 3.726568  3.140796 -1.570796 0.000000
41  2.450423 5.076124 0.001325  3.140791 -1.570796 0.000000
42  6.312408 -4.528061 0.001311  3.140791 -1.570796 0.000000
43  2.233311 1.152535 -7.309139  -1.603489 -1.520876 0.095645
44  -5.952957 -2.602895 0.029162  0.000000 -0.000000 0.000000
time 16
0  -0.151384 -17.071703 38.179756  0.001726 -0.000000 -1.570843
1  -0.612974 -0.140629 -0.000001  -0.000028 -1.581402 -1.570774
2  -0.000010 0.000008 4.427394  -0.026841 3.136546 -0.352047
3  18.465935 0.000002 -0.000001  0.000000 0.000000 -0.001965
4  14.875443 0.000004 -0.000000  0.027960 -0.015085 -0.129172
5  -0.000004 -0.000003 -4.427393  0.002316 -3.091324 0.283698
6  18.465937 0.000001 -0.000000  -0.000000 0.000000 -0.367423
7  14.875448 0.000000 0.000000  -0.002416 -0.014243 0.310614
8  2.255212 -0.007574 -0.023435  0.034636 -0.010017 0.039872
9  9.514226 -0.009356 0.000000  -0.000675 0.018950 -0.013465
10  11.752197 -0.001494 0.000000  0.000000 -0.000001 0.174410
11  -2.154766 0.308892 2.649730  0.167195 -1.465278 2.800072
12  4.640939 -0.000001 0.000003  -0.481352 1.125854 -0.790052
13  10.828038 -0.000002 0.000000  0.081236 -0.106324 -0.486487
14  9.393339 -0.000007 -0.000002  -1.573266 0.035261 -0.006152
15  1.442242 0.107457 -1.746175  1.686435 0.539209 0.325885
16  1.063448 0.000008 -0.000004  -0.000000 -0.000000 0.199056
17  1.376308 0.000000 0.000003  0.000000 -0.000000 0.199049
18  4.172850 -0.251363 -1.312745  0.008050 0.095731 0.148659
19  1.215372 0.000003 -0.000002  0.000000 -0.000000 0.645758
20  1.215371 -0.000004 -0.000001  0.000000 -0.000000 0.645758
21  4.220534 -0.244849 -0.431467  0.001333 0.026242 0.148339
22  1.350412 -0.000002 -0.000003  -0.000000 -0.000000 0.863926
23  1.350412 0.000001 0.000003  -0.000000 -0.000000 0.863926
24  -2.154761 0.308907 -2.649725  0.143654 1.448021 3.108953
25  4.640937 -0.000001 -0.000006  0.843344 -1.150338 -0.869073
26  10.828045 0.000004 0.000004  0.334086 -0.577359 -0.620648
27  9.393336 -0.000005 0.000001  0.743796 -0.365046 0.157755
28  1.442243 0.107451 1.746188  -1.686405 -0.539236 0.325898
29  1.063451 0.000006 0.000001  -0.000000 -0.000000 0.199056
30  1.376307 0.000010 -0.000004  0.000000 0.000000 0.199059
31  4.172845 -0.251367 1.312748  -0.008050 -0.095731 0.148659
32  1.215377 0.000002 0.000004  -0.000000 0.000000 0.645746
33  1.215376 0.000000 -0.000002  0.000000 0.000000 0.645746
34  4.220532 -0.244853 0.431471  -0.001333 -0.026242 0.148339
35  1.350415 -0.000003 -0.000003  -0.000000 -0.000000 0.863937
36  1.350408 0.000001 -0.000006  -0.000000 -0.000000 0.863925
37  4.262829 -0.232718 -1.392179  0.016840 0.076668 0.253759
38  2.110546 -0.000001 0.000000  -0.033832 0.006255 -0.027761
39  0.891914 2.373049 -0.014527  -3.141592 -0.000001 1.413797
40  7.228122 5.709443 3.726568  3.140796 -1.570796 0.000000
41  2.450429 5.076126 0.001325  3.140791 -1.570796 0.000000
42  6.312404 -4.528060 0.001311  3.140791 -1.570796 0.000000
43  2.233308 1.152533 -7.309140  -1.681241 -1.528565 0.203257
44  -5.952957 -2.602895 0.029162  0.000000 -0.000000 0.000000
time 17
0  -0.065444 -18.581486 38.258541  0.000000 -0.000000 -1.570843
1  -0.589534 -0.113285 -0.000004  0.000041 -1.573671 -1.570827
2  -0.000010 0.000006 4.427393  -0.027224 3.126699 -0.371301
3  18.465942 0.000003 -0.000001  0.000000 -0.000000 -0.114697
4  14.875443 0.000002 -0.000000  0.024405 0.002836 -0.114476
5  -0.000006 -0.000003 -4.427392  0.006245 -3.100795 0.279486
6  18.465940 0.000000 -0.000000  -0.000000 0.000000 -0.427415
7  14.875444 -0.000002 -0.000000  -0.000240 -0.010121 0.253137
8  2.255212 -0.007578 -0.003903  0.033708 -0.013925 0.037490
9  9.514219 -0.009357 0.000000  -0.001013 0.015214 -0.013011
10  11.752195 -0.001494 0.000000  -0.000000 -0.000001 0.169833
11  -2.158667 0.297173 2.649731  0.238843 -1.465756 2.733248
12  4.640938 -0.000001 0.000004  -0.472716 1.127032 -0.781450
13  10.828041 -0.000000 -0.000001  0.082027 -0.104193 -0.479700
14  9.393339 -0.000002 0.000000  -1.573063 0.035202 -0.005809
15  1.442239 0.107455 -1.746177  1.686435 0.539209 0.325885
16  1.063450 0.000004 -0.000005  0.000000 -0.000000 0.199056
17  1.376310 -0.000001 0.000006  0.000000 -0.000000 0.199049
18  4.172848 -0.251364 -1.312745  0.008050 0.095731 0.148659
19  1.215376 0.000001 -0.000001  0.000000 0.000000 0.645758
20  1.215376 -0.000005 0.000003  0.000000 -0.000000 0.645758
21  4.220531 -0.244850 -0.431471  0.001333 0.026242 0.148339
22  1.350416 -0.000003 -0.000006  -0.000000 0.000000 0.863926
23  1.350412 -0.000001 -0.000001  0.000000 0.000000 0.863926
24  -2.158668 0.297187 -2.649724  0.080152 1.452712 3.050581
25  4.640937 -0.000001 -0.000002  0.843344 -1.150338 -0.869073
26  10.828048 0.000003 0.000005  0.334086 -0.577359 -0.620648
27  9.393332 -0.000006 -0.000000  0.743796 -0.365046 0.157755
28  1.442243 0.107456 1.746181  -1.686405 -0.539236 0.325898
29  1.063452 -0.000001 -0.000001  -0.000000 -0.000000 0.199056
30  1.376305 -0.000000 0.000003  0.000000 0.000000 0.199059
31  4.172844 -0.251362 1.312746  -0.008050 -0.095731 0.148659
32  1.215374 0.000001 0.000001  0.000000 -0.000000 0.645746
33  1.215373 -0.000002 0.000000  0.000000 -0.000000 0.645746
34  4.220532 -0.244849 0.431464  -0.001333 -0.026242 0.148339
35  1.350415 -0.000003 -0.000004  -0.000000 0.000000 0.863937
36  1.350406 -0.000004 0.000000  0.000000 -0.000000 0.863925
37  4.262826 -0.232713 -1.392179  0.016840 0.076668 0.253759
38  2.110539 0.000001 0.000000  -0.032855 0.006105 -0.021122
39  0.891922 2.373053 -0.014527  -3.141592 -0.000001 1.413797
40  7.228118 5.709445 3.726568  3.140796 -1.570796 0.000000
41  2.450420 5.076125 0.001325  3.140791 -1.570796 0.000000
42  6.312404 -4.528059 0.001311  3.140791 -1.570796 0.000000
43  2.233303 1.152533 -7.309139  -1.680954 -1.528827 0.202970
44  -5.952957 -2.602895 0.029162  0.000000 -0.000000 0.000000
time 18
0  0.024402 -20.206863 38.479134  -0.001630 -0.000000 -1.570843
1  -0.530936 -0.082034 0.000003  -0.000032 -1.565866 -1.570771
2  -0.000010 0.000006 4.427394  -0.025595 3.115052 -0.340896
3  18.465948 -0.000001 -0.000001  -0.000000 -0.000000 -0.129538
4  14.875441 -0.000003 -0.000000  0.017899 0.020140 -0.148133
5  -0.000003 -0.000005 -4.427392  0.008737 -3.110648 0.283323
6  18.465937 -0.000000 -0.000000  -0.000000 0.000000 -0.453866
7  14.875444 -0.000002 -0.000001  0.003130 -0.005149 0.140621
8  2.255208 -0.007577 0.007816  0.031556 -0.016792 0.032064
9  9.514230 -0.009357 -0.000000  -0.001351 0.010456 -0.012318
10  11.752198 -0.001494 0.000000  -0.000000 -0.000001 0.165375
11  -2.158659 0.289356 2.649731  0.401574 -1.465983 2.575763
12  4.640939 0.000005 0.000003  -0.450223 1.129952 -0.759072
13  10.828045 -0.000005 0.000001  0.084067 -0.101970 -0.462196
14  9.393339 -0.000002 0.000000  -1.572541 0.035050 -0.004925
15  1.442239 0.107453 -1.746177  1.686435 0.539209 0.325885
16  1.063450 -0.000000 -0.000004  0.000000 0.000000 0.199056
17  1.376309 0.000001 0.000006  -0.000000 -0.000000 0.199049
18  4.172842 -0.251365 -1.312745  0.008050 0.095731 0.148659
19  1.215371 0.000000 -0.000000  -0.000000 -0.000000 0.645758
20  1.215374 -0.000003 0.000001  -0.000000 0.000000 0.645758
21  4.220533 -0.244851 -0.431471  0.001333 0.026242 0.148339
22  1.350413 -0.000005 -0.000006  -0.000000 -0.000000 0.863926
23  1.350412 -0.000000 -0.000003  -0.000000 -0.000000 0.863926
24  -2.158673 0.289374 -2.649725  -0.094617 1.461609 2.881361
25  4.640938 0.000000 -0.000006  0.843344 -1.150338 -0.869073
26  10.828037 0.000001 0.000004  0.334086 -0.577359 -0.620648
27  9.393334 0.000000 -0.000002  0.743796 -0.365046 0.157755
28  1.442243 0.107456 1.746179  -1.686405 -0.539236 0.325898
29  1.063451 0.000003 -0.000000  -0.000000 -0.000000 0.199056
30  1.376306 0.000007 0.000001  0.000000 0.000000 0.199059
31  4.172844 -0.251364 1.312744  -0.008050 -0.095731 0.148659
32  1.215378 -0.000000 0.000000  0.000000 0.000000 0.645746
33  1.215375 0.000001 -0.000003  0.000000 0.000000 0.645746
34  4.220531 -0.244851 0.431464  -0.001333 -0.026242 0.148339
35  1.350415 0.000003 0.000003  0.000000 -0.000000 0.863937
36  1.350407 -0.000003 -0.000000  0.000000 0.000000 0.863925
37  4.262829 -0.232715 -1.392186  0.016840 0.076668 0.253759
38  2.110549 -0.000003 -0.000000  -0.030592 0.005774 -0.011705
39  0.891930 2.373049 -0.014527  -3.141592 -0.000001 1.413797
40  7.228119 5.709446 3.726568  3.140796 -1.570796 0.000000
41  2.450430 5.076127 0.001325  3.140791 -1.570796 0.000000
42  6.312411 -4.528061 0.001311  3.140791 -1.570796 0.000000
43  2.233313 1.152531 -7.309139  -1.676831 -1.537594 0.199331
44  -5.952957 -2.602895 0.029162  0.000000 -0.000000 0.000000
time 19
0  0.141593 -22.454685 38.589432  -0.003260 -0.000000 -1.570843
1  -0.452813 -0.042970 0.000001  -0.000033 -1.558149 -1.570770
2  -0.000003 0.000007 4.427394  -0.025212 3.103879 -0.346424
3  18.465942 0.000002 -0.000000  0.000000 0.000000 -0.272828
4  14.875442 -0.000000 -0.000000  0.010966 0.034741 -0.072958
5  0.000001 -0.000004 -4.427393  0.009695 -3.121362 0.340411
6  18.465942 -0.000000 0.000000  -0.000000 0.000000 -0.394334
7  14.875445 -0.000001 -0.000000  0.005200 0.001490 -0.004834
8  2.255217 -0.007576 0.027348  0.028392 -0.018796 0.024387
9  9.514227 -0.009359 -0.000000  -0.001651 0.005000 -0.011452
10  11.752196 -0.001493 0.000000  0.000000 -0.000001 0.161115
11  -2.158669 0.277641 2.649730  0.610610 -1.462432 2.371846
12  4.640939 0.000004 0.000003  -0.418972 1.133660 -0.728038
13  10.828043 0.000001 -0.000001  0.086857 -0.099288 -0.438263
14  9.393339 -0.000006 -0.000005  -1.571826 0.034842 -0.003716
15  1.442242 0.107451 -1.746175  1.686435 0.539209 0.325885
16  1.063452 0.000002 -0.000001  -0.000000 -0.000000 0.199056
17  1.376311 0.000003 0.000005  -0.000000 -0.000000 0.199049
18  4.172843 -0.251366 -1.312739  0.008050 0.095731 0.148659
19  1.215370 -0.000003 -0.000000  0.000000 -0.000000 0.645758
20  1.215371 -0.000005 0.000006  0.000000 -0.000000 0.645758
21  4.220534 -0.244852 -0.431467  0.001333 0.026242 0.148339
22  1.350416 -0.000004 -0.000000  0.000000 -0.000000 0.863926
23  1.350412 -0.000002 0.000001  -0.000000 -0.000000 0.863926
24  -2.158666 0.277653 -2.649726  -0.367508 1.467358 2.613942
25  4.640938 -0.000004 -0.000008  0.843344 -1.150338 -0.869073
26  10.828036 0.000004 0.000004  0.334086 -0.577359 -0.620648
27  9.393337 -0.000006 -0.000001  0.743796 -0.365046 0.157755
28  1.442245 0.107453 1.746181  -1.686405 -0.539236 0.325898
29  1.063451 0.000003 0.000004  -0.000000 -0.000000 0.199056
30  1.376306 0.000005 0.000003  -0.000000 0.000000 0.199059
31  4.172844 -0.251362 1.312748  -0.008050 -0.095731 0.148659
32  1.215376 -0.000002 -0.000005  -0.000000 -0.000000 0.645746
33  1.215377 -0.000004 -0.000001  -0.000000 -0.000000 0.645746
34  4.220534 -0.244849 0.431462  -0.001333 -0.026242 0.148339
35  1.350414 0.000000 0.000002  -0.000000 0.000000 0.863937
36  1.350409 0.000001 -0.000007  0.000000 -0.000000 0.863925
37  4.262830 -0.232717 -1.392182  0.016840 0.076668 0.253759
38  2.110551 -0.000002 -0.000000  -0.027199 0.005233 -0.000404
39  0.891910 2.373050 -0.014527  -3.141592 -0.000001 1.413797
40  7.228118 5.709447 3.726568  3.140796 -1.570796 0.000000
41  2.450429 5.076128 0.001325  3.140791 -1.570796 0.000000
42  6.312403 -4.528059 0.001311  3.140791 -1.570796 0.000000
43  2.233314 1.152533 -7.309139  -1.747010 -1.546419 0.315082
44  -5.952957 -2.602895 0.029162  0.000000 -0.000000 0.000000
time 20
0  0.282223 -24.658049 38.778515  -0.004890 -0.000000 -1.570843
1  -0.359058 -0.000000 0.000001  -0.000032 -1.550690 -1.570770
2  -0.000005 0.000006 4.427394  -0.024062 3.092706 -0.313922
3  18.465944 -0.000001 -0.000000  0.000000 0.000000 -0.356609
4  14.875443 0.000002 -0.000000  0.007766 0.038870 0.043300
5  -0.000005 -0.000005 -4.427392  0.014008 -3.127963 0.262547
6  18.465942 -0.000005 0.000000  -0.000000 0.000000 -0.589471
7  14.875444 0.000002 -0.000000  0.006043 0.002005 -0.079832
8  2.255213 -0.007578 0.042973  0.024510 -0.020111 0.015421
9  9.514218 -0.009359 0.000000  -0.001913 -0.000847 -0.010521
10  11.752194 -0.001493 -0.000000  0.000000 -0.000001 0.157091
11  -2.158664 0.269833 2.649730  0.810594 -1.454072 2.176545
12  4.640939 -0.000001 -0.000000  -0.384304 1.137317 -0.693683
13  10.828047 -0.000001 0.000000  0.089896 -0.095781 -0.412187
14  9.393343 -0.000011 -0.000001  -1.571048 0.034615 -0.002399
15  1.442240 0.107450 -1.746180  1.686435 0.539209 0.325885
16  1.063452 0.000005 -0.000004  -0.000000 -0.000000 0.199056
17  1.376307 0.000002 0.000008  -0.000000 -0.000000 0.199049
18  4.172848 -0.251366 -1.312746  0.008050 0.095731 0.148659
19  1.215372 0.000003 -0.000002  -0.000000 -0.000000 0.645758
20  1.215369 -0.000003 0.000006  0.000000 0.000000 0.645758
21  4.220533 -0.244855 -0.431473  0.001333 0.026242 0.148339
22  1.350411 -0.000001 -0.000003  0.000000 -0.000000 0.863926
23  1.350410 -0.000003 0.000005  0.000000 0.000000 0.863926
24  -2.158662 0.269842 -2.649725  -0.674186 1.464272 2.312337
25  4.640938 0.000003 -0.000019  0.843344 -1.150338 -0.869073
26  10.828042 0.000005 0.000003  0.334086 -0.577359 -0.620648
27  9.393342 -0.000004 0.000000  0.743796 -0.365046 0.157755
28  1.442244 0.107453 1.746186  -1.686405 -0.539236 0.325898
29  1.063451 0.000004 0.000001  -0.000000 -0.000000 0.199056
30  1.376305 0.000003 -0.000001  0.000000 0.000000 0.199059
31  4.172845 -0.251363 1.312748  -0.008050 -0.095731 0.148659
32  1.215377 -0.000000 0.000005  -0.000000 0.000000 0.645746
33  1.215375 -0.000005 -0.000004  0.000000 -0.000000 0.645746
34  4.220534 -0.244856 0.431469  -0.001333 -0.026242 0.148339
35  1.350416 0.000004 -0.000009  -0.000000 -0.000000 0.863937
36  1.350405 -0.000002 -0.000007  -0.000000 -0.000000 0.863925
37  4.262828 -0.232716 -1.392180  0.016840 0.076668 0.253759
38  2.110551 0.000001 0.000000  -0.022983 0.004511 0.011838
39  0.891919 2.373052 -0.014527  -3.141592 -0.000001 1.413797
40  7.228115 5.709444 3.726568  3.140796 -1.570796 0.000000
41  2.450424 5.076125 0.001325  3.140791 -1.570796 0.000000
42  6.312402 -4.528062 0.001311  3.140791 -1.570796 0.000000
43  2.233312 1.152532 -7.309140  -1.691116 -1.552884 0.195693
44  -5.952957 -2.602895 0.029162  0.000000 -0.000000 0.000000
time 21
0  0.415039 -26.630217 38.951836  -0.006424 -0.000000 -1.570843
1  -0.261399 0.039064 -0.000001  -0.000030 -1.543677 -1.570772
2  -0.000011 0.000010 4.427393  -0.020805 3.081060 -0.257877
3  18.465942 -0.000003 0.000000  0.000000 -0.000000 -0.372693
4  14.875441 -0.000001 -0.000001  0.004709 0.043233 0.115513
5  -0.000008 -0.000002 -4.427392  0.017459 -3.133702 0.141727
6  18.465939 0.000003 -0.000000  -0.000000 -0.000000 -0.853527
7  14.875444 -0.000000 -0.000001  0.006148 -0.000542 -0.137534
8  2.255214 -0.007575 0.058599  0.020080 -0.020917 0.006024
9  9.514231 -0.009357 -0.000000  -0.002138 -0.006774 -0.009590
10  11.752198 -0.001497 0.000000  -0.000000 -0.000001 0.153461
11  -2.162577 0.262013 2.649730  0.961702 -1.443244 2.029494
12  4.640938 0.000001 0.000004  -0.351954 1.140310 -0.661690
13  10.828039 -0.000002 0.000002  0.092685 -0.091082 -0.388254
14  9.393338 0.000001 0.000001  -1.570335 0.034407 -0.001190
15  1.442243 0.107450 -1.746178  1.686435 0.539209 0.325885
16  1.063448 0.000006 -0.000007  0.000000 -0.000000 0.199056
17  1.376306 -0.000000 -0.000002  -0.000000 -0.000000 0.199049
18  4.172849 -0.251368 -1.312747  0.008050 0.095731 0.148659
19  1.215374 0.000004 -0.000001  -0.000000 -0.000000 0.645758
20  1.215374 -0.000006 0.000005  -0.000000 0.000000 0.645758
21  4.220535 -0.244856 -0.431471  0.001333 0.026242 0.148339
22  1.350416 -0.000003 -0.000001  -0.000000 -0.000000 0.863926
23  1.350411 -0.000002 0.000003  0.000000 -0.000000 0.863926
24  -2.162576 0.262026 -2.649725  -0.923842 1.453287 2.066882
25  4.640938 0.000001 -0.000005  0.843344 -1.150338 -0.869073
26  10.828041 0.000002 0.000004  0.334086 -0.577359 -0.620648
27  9.393339 -0.000010 -0.000000  0.743796 -0.365046 0.157755
28  1.442245 0.107455 1.746176  -1.686405 -0.539236 0.325898
29  1.063452 0.000007 -0.000003  -0.000000 -0.000000 0.199056
30  1.376307 0.000002 -0.000006  0.000000 0.000000 0.199059
31  4.172846 -0.251363 1.312740  -0.008050 -0.095731 0.148659
32  1.215372 -0.000002 0.000006  0.000000 0.000000 0.645746
33  1.215377 -0.000006 0.000001  -0.000000 0.000000 0.645746
34  4.220534 -0.244848 0.431460  -0.001333 -0.026242 0.148339
35  1.350415 -0.000001 0.000000  -0.000000 -0.000000 0.863937
36  1.350412 0.000005 -0.000002  -0.000000 0.000000 0.863925
37  4.262828 -0.232717 -1.392184  0.016840 0.076668 0.253759
38  2.110547 -0.000002 -0.000000  -0.018098 0.003639 0.024175
39  0.891910 2.373053 -0.014527  -3.141592 -0.000001 1.413797
40  7.228124 5.709443 3.726568  3.140796 -1.570796 0.000000
41  2.450433 5.076125 0.001325  3.140791 -1.570796 0.000000
42  6.312409 -4.528060 0.001311  3.140791 -1.570796 0.000000
43  2.233308 1.152534 -7.309138  -1.498987 -1.558476 -0.080996
44  -5.952957 -2.602895 0.029162  0.000000 -0.000000 0.000000
time 22
0  0.489260 -28.184460 38.936081  -0.007862 -0.000000 -1.570843
1  -0.171554 0.078127 0.000000  -0.000031 -1.537296 -1.570772
2  -0.000003 0.000009 4.427394  -0.017739 3.071875 -0.220323
3  18.465939 -0.000004 -0.000001  -0.000000 -0.000000 -0.401424
4  14.875440 -0.000002 -0.000000  0.002113 0.046298 0.181681
5  -0.000002 -0.000002 -4.427392  0.019184 -3.139825 0.010425
6  18.465940 0.000001 0.000000  -0.000000 0.000000 -1.040722
7  14.875440 -0.000000 -0.000000  0.005621 -0.003270 -0.126129
8  2.255216 -0.007574 0.074224  0.015270 -0.021388 -0.002910
9  9.514228 -0.009353 -0.000000  -0.002326 -0.012472 -0.008724
10  11.752191 -0.001496 0.000000  0.000000 -0.000001 0.150187
11  -2.162571 0.254199 2.649731  1.050404 -1.434305 1.944289
12  4.640939 0.000002 0.000008  -0.327996 1.142273 -0.638036
13  10.828041 0.000005 0.000003  0.094725 -0.084826 -0.370750
14  9.393342 -0.000007 -0.000003  -1.569813 0.034254 -0.000306
15  1.442235 0.107455 -1.746173  1.686435 0.539209 0.325885
16  1.063451 0.000000 -0.000004  0.000000 0.000000 0.199056
17  1.376310 -0.000006 0.000004  -0.000000 -0.000000 0.199049
18  4.172839 -0.251364 -1.312742  0.008050 0.095731 0.148659
19  1.215376 0.000001 -0.000002  -0.000000 -0.000000 0.645758
20  1.215375 -0.000003 0.000004  0.000000 0.000000 0.645758
21  4.220530 -0.244850 -0.431470  0.001333 0.026242 0.148339
22  1.350413 -0.000006 -0.000008  -0.000000 -0.000000 0.863926
23  1.350412 -0.000005 0.000002  0.000000 -0.000000 0.863926
24  -2.162570 0.254215 -2.649725  -1.078061 1.440940 1.916123
25  4.640939 -0.000001 -0.000006  0.843344 -1.150338 -0.869073
26  10.828044 0.000001 0.000005  0.334086 -0.577359 -0.620648
27  9.393335 -0.000007 -0.000001  0.743796 -0.365046 0.157755
28  1.442246 0.107454 1.746187  -1.686405 -0.539236 0.325898
29  1.063451 0.000003 -0.000004  -0.000000 -0.000000 0.199056
30  1.376306 0.000003 -0.000003  0.000000 0.000000 0.199059
31  4.172847 -0.251362 1.312752  -0.008050 -0.095731 0.148659
32  1.215375 -0.000001 0.000001  0.000000 0.000000 0.645746
33  1.215376 0.000000 0.000001  0.000000 0.000000 0.645746
34  4.220535 -0.244850 0.431471  -0.001333 -0.026242 0.148339
35  1.350414 0.000004 -0.000002  0.000000 -0.000000 0.863937
36  1.350406 -0.000002 -0.000007  -0.000000 -0.000000 0.863925
37  4.262831 -0.232713 -1.392178  0.016840 0.076668 0.253759
38  2.110549 -0.000003 -0.000000  -0.012854 0.002617 0.035711
39  0.891922 2.373053 -0.014527  -3.141592 -0.000001 1.413797
40  7.228118 5.709444 3.726568  3.140796 -1.570796 0.000000
41  2.450436 5.076130 0.001325  3.140791 -1.570796 0.000000
42  6.312413 -4.528058 0.001311  3.140791 -1.570796 0.000000
43  2.233311 1.152534 -7.309139  -1.227189 -1.563253 -0.449022
44  -5.952957 -2.602895 0.029162  0.000000 -0.000000 0.000000
time 23
0  0.540043 -29.845406 38.873055  -0.009108 -0.000000 -1.570843
1  -0.093424 0.113285 0.000001  -0.000030 -1.531720 -1.570772
2  -0.000011 0.000008 4.427394  -0.013810 3.064016 -0.175429
3  18.465940 -0.000003 -0.000001  0.000000 0.000000 -0.420505
4  14.875442 0.000001 -0.000000  0.000123 0.048916 0.245598
5  -0.000001 -0.000003 -4.427393  0.018800 3.136568 -0.135009
6  18.465937 -0.000000 -0.000000  -0.000000 -0.000000 -1.086602
7  14.875445 0.000002 -0.000000  0.002077 -0.006089 0.014975
8  2.255214 -0.007576 0.085943  0.010375 -0.021624 -0.010487
9  9.514218 -0.009355 -0.000000  -0.002476 -0.017620 -0.008032
10  11.752197 -0.001497 0.000000  0.000000 -0.000001 0.147386
11  -2.162578 0.250297 2.649729  1.072032 -1.431509 1.925525
12  4.640939 0.000001 0.000003  -0.318642 1.142982 -0.628809
13  10.828044 -0.000006 0.000000  0.095516 -0.076646 -0.363963
14  9.393335 -0.000009 -0.000003  -1.569611 0.034195 0.000037
15  1.442238 0.107455 -1.746179  1.686435 0.539209 0.325885
16  1.063453 -0.000001 -0.000001  0.000000 0.000000 0.199056
17  1.376310 0.000002 0.000003  0.000000 -0.000000 0.199049
18  4.172838 -0.251364 -1.312746  0.008050 0.095731 0.148659
19  1.215370 -0.000002 0.000000  -0.000000 0.000000 0.645758
20  1.215369 -0.000002 0.000006  0.000000 -0.000000 0.645758
21  4.220530 -0.244848 -0.431471  0.001333 0.026242 0.148339
22  1.350409 -0.000008 -0.000004  -0.000000 -0.000000 0.863926
23  1.350406 -0.000000 0.000002  0.000000 -0.000000 0.863926
24  -2.162577 0.250308 -2.649725  -1.139063 1.434434 1.857921
25  4.640938 -0.000001 0.000001  0.843344 -1.150338 -0.869073
26  10.828045 -0.000006 0.000002  0.334086 -0.577359 -0.620648
27  9.393344 -0.000001 0.000001  0.743796 -0.365046 0.157755
28  1.442244 0.107457 1.746180  -1.686405 -0.539236 0.325898
29  1.063452 0.000004 0.000003  -0.000000 -0.000000 0.199056
30  1.376306 -0.000002 -0.000003  0.000000 0.000000 0.199059
31  4.172847 -0.251365 1.312744  -0.008050 -0.095731 0.148659
32  1.215377 0.000005 0.000002  0.000000 0.000000 0.645746
33  1.215376 -0.000000 -0.000002  -0.000000 -0.000000 0.645746
34  4.220535 -0.244855 0.431464  -0.001333 -0.026242 0.148339
35  1.350413 0.000001 0.000003  0.000000 -0.000000 0.863937
36  1.350407 -0.000002 -0.000004  0.000000 -0.000000 0.863925
37  4.262829 -0.232715 -1.392181  0.016840 0.076668 0.253759
38  2.110545 -0.000002 -0.000000  -0.007455 0.001534 0.045505
39  0.891919 2.373050 -0.014527  -3.141592 -0.000001 1.413797
40  7.228123 5.709441 3.726568  3.140796 -1.570796 0.000000
41  2.450424 5.076129 0.001325  3.140791 -1.570796 0.000000
42  6.312404 -4.528061 0.001311  3.140791 -1.570796 0.000000
43  2.233315 1.152533 -7.309139  -0.677455 -1.569340 -1.116436
44  -5.952957 -2.602895 0.029162  0.000000 -0.000000 0.000000
time 24
0  0.540043 -32.466694 38.731243  -0.010067 -0.000000 -1.570843
1  -0.038736 0.144536 0.000002  -0.000031 -1.527135 -1.570772
2  -0.000005 0.000007 4.427395  -0.006529 3.058241 -0.091362
3  18.465939 -0.000002 -0.000000  -0.000000 -0.000000 -0.416192
4  14.875444 -0.000003 -0.000000  -0.001086 0.050087 0.325079
5  0.000000 -0.000006 -4.427393  0.016500 3.130446 -0.291111
6  18.465939 -0.000003 0.000000  -0.000000 0.000000 -1.055753
7  14.875443 -0.000000 -0.000001  -0.004486 -0.007787 0.225186
8  2.255214 -0.007574 0.097662  0.005439 -0.021781 -0.015781
9  9.514219 -0.009362 -0.000000  -0.002514 -0.021907 -0.007599
10  11.752202 -0.001494 0.000000  0.000000 -0.000001 0.145137
11  -2.162571 0.242486 2.649730  1.028776 -1.436546 1.970904
12  4.640939 0.000003 0.000005  -0.318642 1.142982 -0.628809
13  10.828034 -0.000003 0.000004  0.090972 -0.066380 -0.376069
14  9.393336 -0.000003 -0.000003  -1.569611 0.034195 0.000037
15  1.442242 0.107455 -1.746175  1.686902 0.539123 0.326808
16  1.063448 0.000000 -0.000003  0.000000 0.000000 0.199092
17  1.376310 0.000002 0.000002  -0.000000 0.000000 0.199090
18  4.172848 -0.251362 -1.312745  0.008086 0.095731 0.149140
19  1.215375 0.000000 -0.000005  -0.000000 -0.000000 0.648820
20  1.215377 -0.000002 0.000003  0.000000 0.000000 0.648820
21  4.220535 -0.244850 -0.431471  0.001345 0.026242 0.148779
22  1.350414 -0.000004 -0.000006  -0.000000 -0.000000 0.868010
23  1.350411 -0.000002 -0.000001  0.000000 -0.000000 0.868010
24  -2.162575 0.242495 -2.649726  -1.128973 1.436310 1.870228
25  4.640938 -0.000001 -0.000005  0.843344 -1.150338 -0.869073
26  10.828045 0.000001 0.000001  0.334086 -0.577359 -0.620648
27  9.393333 0.000006 -0.000002  0.743796 -0.365046 0.157755
28  1.442241 0.107457 1.746180  -1.686859 -0.539124 0.326773
29  1.063451 0.000002 0.000004  0.000000 -0.000000 0.199092
30  1.376304 0.000009 0.000001  0.000000 0.000000 0.199081
31  4.172841 -0.251361 1.312746  -0.008086 -0.095731 0.149140
32  1.215376 -0.000002 -0.000003  0.000000 0.000000 0.648809
33  1.215376 -0.000004 -0.000005  -0.000000 0.000000 0.648809
34  4.220529 -0.244850 0.431464  -0.001345 -0.026242 0.148779
35  1.350414 -0.000004 0.000001  -0.000000 -0.000000 0.868008
36  1.350405 -0.000000 -0.000003  0.000000 -0.000000 0.868028
37  4.262825 -0.232712 -1.392182  0.016912 0.076656 0.254714
38  2.110549 0.000005 0.000000  -0.002159 0.000422 0.052710
39  0.891918 2.373049 -0.014527  -3.141592 -0.000001 1.413797
40  7.228123 5.709445 3.726569  3.140796 -1.570796 0.000000
41  2.450426 5.076120 0.001325  3.140791 -1.570796 0.000000
42  6.312407 -4.528066 0.001311  3.140791 -1.570796 0.000000
43  2.233311 1.152532 -7.309139  -1.355753 -1.576446 -0.567358
44  -5.952957 -2.602895 0.029162  0.000000 -0.000000 0.000000
time 25
0  0.524417 -35.087982 38.683971  -0.010834 -0.000000 -1.570843
1  -0.015302 0.164068 0.000004  -0.000031 -1.523729 -1.570771
2  -0.000014 0.000006 4.427393  0.004394 3.055021 0.035216
3  18.465940 0.000000 0.000000  -0.000000 0.000000 -0.312964
4  14.875439 0.000007 -0.000001  -0.001371 0.050449 0.347991
5  -0.000005 -0.000007 -4.427392  0.013625 3.126428 -0.414552
6  18.465939 -0.000000 -0.000000  -0.000000 -0.000000 -0.996024
7  14.875446 -0.000000 -0.000000  -0.011014 -0.007150 0.374281
8  2.255208 -0.007575 0.105475  0.000713 -0.021977 -0.017932
9  9.514230 -0.009360 0.000000  -0.002476 -0.025039 -0.007490
10  11.752199 -0.001495 -0.000000  0.000000 -0.000001 0.143480
11  -2.162572 0.238580 2.649731  0.929118 -1.446543 2.071905
12  4.640939 -0.000003 0.000006  -0.318642 1.142982 -0.628809
13  10.828035 0.000000 -0.000001  0.078993 -0.054686 -0.407986
14  9.393339 -0.000003 -0.000001  -1.569611 0.034195 0.000037
15  1.442244 0.107450 -1.746181  1.688041 0.538901 0.329025
16  1.063451 0.000004 -0.000003  -0.000000 0.000000 0.199176
17  1.376312 0.000005 0.000000  -0.000000 -0.000000 0.199187
18  4.172845 -0.251365 -1.312746  0.008194 0.095719 0.150222
19  1.215373 0.000003 0.000003  -0.000000 -0.000000 0.656293
20  1.215371 -0.000002 0.000006  0.000000 -0.000000 0.656293
21  4.220537 -0.244854 -0.431472  0.001369 0.026242 0.149900
22  1.350415 -0.000002 0.000001  -0.000000 -0.000000 0.878016
23  1.350407 -0.000004 -0.000004  -0.000000 0.000000 0.878016
24  -2.162575 0.238591 -2.649725  -1.072229 1.443724 1.928515
25  4.640938 -0.000003 -0.000007  0.843344 -1.150338 -0.869073
26  10.828046 0.000000 0.000006  0.334086 -0.577359 -0.620648
27  9.393340 -0.000007 0.000004  0.743796 -0.365046 0.157755
28  1.442248 0.107454 1.746176  -1.688041 -0.538899 0.328988
29  1.063452 0.000002 -0.000002  0.000000 -0.000000 0.199176
30  1.376306 0.000005 -0.000001  0.000000 0.000000 0.199169
31  4.172849 -0.251367 1.312743  -0.008194 -0.095719 0.150222
32  1.215376 -0.000001 0.000005  0.000000 0.000000 0.656280
33  1.215376 -0.000006 -0.000000  0.000000 -0.000000 0.656280
34  4.220536 -0.244853 0.431461  -0.001369 -0.026242 0.149900
35  1.350415 0.000005 0.000002  0.000000 -0.000000 0.877997
36  1.350407 -0.000000 -0.000002  0.000000 -0.000000 0.877999
37  4.262831 -0.232720 -1.392187  0.017092 0.076608 0.257022
38  2.110545 0.000003 -0.000000  0.002725 -0.000600 0.056429
39  0.891924 2.373051 -0.014527  -3.141592 -0.000001 1.413797
40  7.228127 5.709445 3.726568  3.140796 -1.570796 0.000000
41  2.450432 5.076126 0.001325  3.140791 -1.570796 0.000000
42  6.312406 -4.528059 0.001311  3.140791 -1.570796 0.000000
43  2.233308 1.152531 -7.309139  -1.348947 -1.580524 -0.676310
44  -5.952957 -2.602895 0.029162  0.000000 -0.000000 0.000000
time 26
0  0.540043 -37.175751 38.636703  -0.010834 -0.000000 -1.570843
1  -0.054366 0.179693 -0.000000  -0.000031 -1.523384 -1.570771
2  -0.000013 0.000013 4.427394  0.006214 3.054264 0.071150
3  18.465937 -0.000004 -0.000000  -0.000000 0.000000 -0.353758
4  14.875443 -0.000005 -0.000000  -0.003468 0.046596 0.370350
5  -0.000001 -0.000001 -4.427392  0.012475 3.126141 -0.490919
6  18.465942 0.000000 0.000000  -0.000000 0.000000 -0.923561
7  14.875444 0.000001 -0.000000  -0.016279 -0.005725 0.409885
8  2.255219 -0.007572 0.105475  -0.005194 -0.020288 -0.014127
9  9.514228 -0.009358 -0.000000  -0.002214 -0.026947 -0.008096
10  11.752197 -0.001496 0.000000  -0.000000 -0.000001 0.143993
11  -2.162579 0.242480 2.649730  0.767911 -1.457724 2.232167
12  4.640939 -0.000001 0.000003  -0.318642 1.142982 -0.628809
13  10.828041 0.000002 0.000003  0.062057 -0.042426 -0.453109
14  9.393333 -0.000005 0.000001  -1.569611 0.034195 0.000037
15  1.442241 0.107456 -1.746177  1.689443 0.538618 0.331755
16  1.063446 0.000010 -0.000009  0.000000 0.000000 0.199295
17  1.376315 -0.000004 0.000001  -0.000000 -0.000000 0.199297
18  4.172848 -0.251362 -1.312748  0.008326 0.095707 0.151624
19  1.215371 0.000001 -0.000002  -0.000000 -0.000000 0.665480
20  1.215377 -0.000007 0.000010  0.000000 0.000000 0.665480
21  4.220533 -0.244848 -0.431468  0.001405 0.026242 0.151261
22  1.350414 0.000003 -0.000001  0.000000 0.000000 0.890309
23  1.350406 0.000002 -0.000001  0.000000 -0.000000 0.890309
24  -2.162577 0.242491 -2.649726  -0.968090 1.453983 2.031927
25  4.640938 -0.000001 -0.000005  0.843344 -1.150338 -0.869073
26  10.828042 0.000004 0.000005  0.334086 -0.577359 -0.620648
27  9.393337 0.000002 0.000000  0.743796 -0.365046 0.157755
28  1.442245 0.107457 1.746183  -1.689405 -0.538618 0.331717
29  1.063452 0.000005 0.000006  0.000000 -0.000000 0.199295
30  1.376304 0.000006 -0.000000  -0.000000 0.000000 0.199279
31  4.172847 -0.251362 1.312748  -0.008326 -0.095707 0.151624
32  1.215374 0.000003 0.000001  0.000000 -0.000000 0.665513
33  1.215378 -0.000002 -0.000004  0.000000 0.000000 0.665513
34  4.220535 -0.244851 0.431469  -0.001405 -0.026242 0.151261
35  1.350413 -0.000002 0.000001  -0.000000 -0.000000 0.890335
36  1.350410 0.000004 -0.000004  -0.000000 -0.000000 0.890308
37  4.262827 -0.232713 -1.392181  0.017307 0.076560 0.259888
38  2.110540 -0.000004 0.000000  0.008021 -0.001773 0.054593
39  0.891915 2.373048 -0.014527  -3.141592 -0.000001 1.413797
40  7.228119 5.709444 3.726568  3.140796 -1.570796 0.000000
41  2.450432 5.076124 0.001325  3.140791 -1.570796 0.000000
42  6.312407 -4.528062 0.001311  3.140791 -1.570796 0.000000
43  2.233310 1.152537 -7.309139  -1.417112 -1.580262 -0.670278
44  -5.952957 -2.602895 0.029162  0.000000 -0.000000 0.000000
time 27
0  0.485354 -39.254623 38.510647  -0.009971 -0.000000 -1.570843
1  -0.155923 0.187506 -0.000006  -0.000031 -1.527063 -1.570772
2  -0.000009 0.000004 4.427394  0.006981 3.059093 0.112040
3  18.465937 0.000002 -0.000001  -0.000000 0.000000 -0.379419
4  14.875443 0.000001 -0.000000  -0.003930 0.040424 0.385756
5  -0.000003 -0.000009 -4.427393  0.013817 3.129680 -0.534624
6  18.465940 -0.000000 -0.000000  -0.000000 0.000000 -0.822284
7  14.875446 0.000003 -0.000000  -0.020981 -0.003906 0.384336
8  2.255206 -0.007577 0.097662  -0.012873 -0.015594 -0.004233
9  9.514224 -0.009355 0.000000  -0.001651 -0.027754 -0.009525
10  11.752198 -0.001498 0.000000  0.000000 -0.000001 0.147622
11  -2.162581 0.250300 2.649730  0.547823 -1.465933 2.447764
12  4.640939 -0.000003 0.000005  -0.318642 1.142982 -0.628809
13  10.828046 -0.000000 0.000002  0.042642 -0.030462 -0.504835
14  9.393344 -0.000013 -0.000002  -1.569611 0.034195 0.000037
15  1.442238 0.107452 -1.746181  1.690713 0.538359 0.334238
16  1.063452 0.000001 0.000000  -0.000000 0.000000 0.199391
17  1.376306 0.000005 0.000005  -0.000000 -0.000000 0.199393
18  4.172843 -0.251366 -1.312747  0.008446 0.095695 0.152867
19  1.215376 0.000000 0.000002  -0.000000 -0.000000 0.673810
20  1.215371 -0.000002 -0.000004  0.000000 -0.000000 0.673810
21  4.220534 -0.244850 -0.431472  0.001441 0.026230 0.152502
22  1.350418 -0.000001 0.000001  -0.000000 -0.000000 0.901499
23  1.350407 -0.000002 0.000003  -0.000000 0.000000 0.901499
24  -2.162581 0.250313 -2.649725  -0.815167 1.464060 2.180892
25  4.640939 0.000002 -0.000008  0.843344 -1.150338 -0.869073
26  10.828045 0.000007 0.000005  0.334086 -0.577359 -0.620648
27  9.393332 -0.000010 0.000002  0.743796 -0.365046 0.157755
28  1.442245 0.107455 1.746179  -1.690678 -0.538393 0.334240
29  1.063450 0.000005 -0.000003  0.000000 -0.000000 0.199391
30  1.376305 0.000001 0.000003  0.000000 0.000000 0.199390
31  4.172847 -0.251366 1.312748  -0.008446 -0.095695 0.152867
32  1.215378 0.000001 0.000002  0.000000 -0.000000 0.673822
33  1.215374 -0.000007 -0.000001  -0.000000 0.000000 0.673822
34  4.220534 -0.244854 0.431467  -0.001441 -0.026230 0.152502
35  1.350412 -0.000007 -0.000006  -0.000000 0.000000 0.901499
36  1.350406 -0.000004 -0.000000  -0.000000 -0.000000 0.901471
37  4.262826 -0.232713 -1.392179  0.017499 0.076513 0.262515
38  2.110543 0.000003 -0.000000  0.014242 -0.003156 0.046541
39  0.891914 2.373048 -0.014527  -3.141592 -0.000001 1.413797
40  7.228119 5.709443 3.726568  3.140796 -1.570796 0.000000
41  2.450436 5.076130 0.001325  3.140791 -1.570796 0.000000
42  6.312405 -4.528056 0.001311  3.140791 -1.570796 0.000000
43  2.233309 1.152529 -7.309139  -1.529186 -1.577174 -0.593016
44  -5.952957 -2.602895 0.029162  0.000000 -0.000000 0.000000
time 28
0  0.422852 -41.075626 38.463379  -0.008533 -0.000000 -1.570843
1  -0.284838 0.187506 0.000002  -0.000031 -1.533502 -1.570772
2  -0.000012 0.000011 4.427394  0.006310 3.067046 0.154646
3  18.465942 0.000002 -0.000001  -0.000000 0.000000 -0.379199
4  14.875447 0.000001 0.000000  -0.003148 0.033379 0.377105
5  -0.000005 -0.000002 -4.427393  0.017171 3.135133 -0.545386
6  18.465946 -0.000001 -0.000000  -0.000000 -0.000000 -0.691930
7  14.875444 0.000001 -0.000000  -0.024386 -0.001815 0.324570
8  2.255215 -0.007573 0.082037  -0.020931 -0.009271 0.008770
9  9.514224 -0.009357 0.000000  -0.000938 -0.027337 -0.011322
10  11.752193 -0.001497 0.000000  -0.000000 -0.000001 0.153461
11  -2.162575 0.262014 2.649730  0.300201 -1.467947 2.688540
12  4.640938 0.000002 0.000001  -0.318642 1.142982 -0.628809
13  10.828033 -0.000005 0.000004  0.023227 -0.019656 -0.556561
14  9.393339 -0.000006 -0.000002  -1.569611 0.034195 0.000037
15  1.442242 0.107458 -1.746178  1.691444 0.538212 0.335675
16  1.063447 0.000008 0.000001  -0.000000 -0.000000 0.199451
17  1.376308 0.000005 0.000002  -0.000000 -0.000000 0.199449
18  4.172844 -0.251361 -1.312747  0.008518 0.095695 0.153588
19  1.215377 -0.000001 -0.000000  -0.000000 -0.000000 0.678670
20  1.215373 -0.000003 0.000005  -0.000000 0.000000 0.678670
21  4.220534 -0.244846 -0.431468  0.001465 0.026230 0.153223
22  1.350410 -0.000002 0.000003  -0.000000 -0.000000 0.907951
23  1.350413 0.000003 0.000000  0.000000 -0.000000 0.907951
24  -2.162575 0.262027 -2.649724  -0.622996 1.470929 2.366692
25  4.640938 -0.000005 -0.000008  0.843344 -1.150338 -0.869073
26  10.828041 0.000002 0.000003  0.334086 -0.577359 -0.620648
27  9.393340 -0.000010 -0.000000  0.743796 -0.365046 0.157755
28  1.442247 0.107458 1.746179  -1.691405 -0.538225 0.335631
29  1.063452 0.000005 0.000001  0.000000 -0.000000 0.199451
30  1.376306 0.000001 0.000003  0.000000 0.000000 0.199456
31  4.172845 -0.251360 1.312742  -0.008518 -0.095695 0.153588
32  1.215377 0.000002 0.000002  -0.000000 -0.000000 0.678649
33  1.215375 -0.000001 0.000003  0.000000 -0.000000 0.678649
34  4.220533 -0.244845 0.431463  -0.001465 -0.026230 0.153223
35  1.350412 -0.000003 -0.000002  -0.000000 -0.000000 0.907920
36  1.350403 -0.000006 -0.000004  0.000000 0.000000 0.907912
37  4.262829 -0.232713 -1.392185  0.017619 0.076489 0.263987
38  2.110548 -0.000001 0.000000  0.020772 -0.004569 0.033687
39  0.891922 2.373052 -0.014527  -3.141592 -0.000001 1.413797
40  7.228121 5.709440 3.726568  3.140796 -1.570796 0.000000
41  2.450428 5.076131 0.001325  3.140791 -1.570796 0.000000
42  6.312401 -4.528060 0.001311  3.140791 -1.570796 0.000000
43  2.233309 1.152535 -7.309140  -2.314713 -1.572865 0.184650
44  -5.952957 -2.602895 0.029162  0.000000 -0.000000 0.000000
time 29
0  0.348631 -42.896629 38.416107  -0.006711 -0.000000 -1.570843
1  -0.421560 0.179693 -0.000000  -0.000031 -1.541463 -1.570771
2  -0.000009 0.000005 4.427394  0.004873 3.077083 0.202970
3  18.465942 0.000000 -0.000000  0.000000 0.000000 -0.363627
4  14.875441 -0.000001 -0.000001  -0.001762 0.025142 0.355615
5  -0.000006 -0.000008 -4.427393  0.021388 -3.141547 -0.504863
6  18.465939 0.000000 0.000000  -0.000000 0.000000 -0.488063
7  14.875443 0.000002 -0.000000  -0.026211 0.000307 0.200725
8  2.255213 -0.007578 0.062505  -0.028020 -0.002692 0.022005
9  9.514229 -0.009362 -0.000000  -0.000225 -0.025563 -0.013054
10  11.752202 -0.001494 -0.000000  0.000000 -0.000001 0.160602
11  -2.158672 0.277645 2.649730  0.079923 -1.463540 2.900786
12  4.640939 -0.000001 0.000001  -0.318642 1.142982 -0.628809
13  10.828037 0.000002 -0.000001  0.006291 -0.010870 -0.601684
14  9.393336 -0.000004 -0.000001  -1.569611 0.034195 0.000037
15  1.442240 0.107451 -1.746175  1.691253 0.538261 0.335285
16  1.063448 0.000004 0.000002  0.000000 -0.000000 0.199439
17  1.376311 0.000002 0.000002  -0.000000 -0.000000 0.199435
18  4.172848 -0.251368 -1.312743  0.008494 0.095695 0.153388
19  1.215376 0.000001 0.000001  0.000000 0.000000 0.677322
20  1.215372 0.000006 0.000004  0.000000 -0.000000 0.677322
21  4.220535 -0.244854 -0.431472  0.001453 0.026230 0.153023
22  1.350413 0.000000 -0.000005  -0.000000 0.000000 0.906195
23  1.350407 0.000005 0.000002  -0.000000 -0.000000 0.906195
24  -2.158668 0.277656 -2.649726  -0.423512 1.472835 2.558475
25  4.640937 0.000001 -0.000010  0.843344 -1.150338 -0.869073
26  10.828043 0.000004 0.000004  0.334086 -0.577359 -0.620648
27  9.393335 0.000003 0.000001  0.743796 -0.365046 0.157755
28  1.442247 0.107453 1.746181  -1.691223 -0.538281 0.335270
29  1.063452 0.000003 -0.000005  0.000000 -0.000000 0.199439
30  1.376306 0.000002 -0.000002  -0.000000 -0.000000 0.199434
31  4.172847 -0.251363 1.312745  -0.008494 -0.095695 0.153388
32  1.215375 -0.000002 -0.000003  -0.000000 0.000000 0.677348
33  1.215377 -0.000003 -0.000004  -0.000000 -0.000000 0.677348
34  4.220535 -0.244851 0.431461  -0.001453 -0.026230 0.153023
35  1.350413 0.000001 0.000000  -0.000000 -0.000000 0.906157
36  1.350407 -0.000001 0.000001  -0.000000 -0.000000 0.906194
37  4.262830 -0.232712 -1.392186  0.017583 0.076501 0.263589
38  2.110539 0.000003 -0.000000  0.027148 -0.005802 0.017395
39  0.891919 2.373049 -0.014527  -3.141592 -0.000001 1.413797
40  7.228118 5.709445 3.726568  3.140796 -1.570796 0.000000
41  2.450436 5.076121 0.001325  3.140791 -1.570796 0.000000
42  6.312409 -4.528060 0.001311  3.140791 -1.570796 0.000000
43  2.233310 1.152529 -7.309139  -0.938038 -1.564039 -1.163533
44  -5.952957 -2.602895 0.029162  0.000000 -0.000000 0.000000
time 30
0  0.211908 -45.002178 38.368835  -0.004794 -0.000000 -1.570843
1  -0.527029 0.160161 -0.000003  -0.000031 -1.549670 -1.570772
2  -0.000007 0.000007 4.427394  0.004490 3.089771 0.278650
3  18.465940 0.000002 -0.000001  0.000000 0.000000 -0.302217
4  14.875442 -0.000004 -0.000001  -0.000517 0.014074 0.309277
5  -0.000006 -0.000006 -4.427393  0.024934 -3.134372 -0.431491
6  18.465937 0.000005 -0.000000  -0.000000 0.000000 -0.255185
7  14.875443 -0.000000 -0.000000  -0.026737 0.002217 0.042701
8  2.255212 -0.007575 0.046879  -0.032999 0.002591 0.032395
9  9.514224 -0.009359 -0.000000  0.000338 -0.022310 -0.014310
10  11.752203 -0.001488 0.000000  0.000000 -0.000001 0.168097
11  -2.158656 0.293263 2.649730  -0.072233 -1.455633 3.044486
12  4.640939 -0.000004 0.000004  -0.318642 1.142982 -0.628809
13  10.828051 -0.000002 -0.000004  -0.005689 -0.004967 -0.633600
14  9.393338 -0.000002 0.000000  -1.569611 0.034195 0.000037
15  1.442236 0.107452 -1.746176  1.689707 0.538569 0.332268
16  1.063450 0.000005 -0.000000  -0.000000 0.000000 0.199307
17  1.376313 0.000017 0.000008  -0.000000 -0.000000 0.199311
18  4.172850 -0.251365 -1.312746  0.008350 0.095707 0.151865
19  1.215374 0.000000 0.000004  -0.000000 -0.000000 0.667236
20  1.215373 -0.000005 0.000001  -0.000000 -0.000000 0.667236
21  4.220531 -0.244851 -0.431474  0.001417 0.026230 0.151541
22  1.350416 -0.000003 -0.000007  -0.000000 -0.000000 0.892677
23  1.350405 0.000000 0.000001  0.000000 -0.000000 0.892677
24  -2.158664 0.293280 -2.649725  -0.260777 1.470233 2.713081
25  4.640938 -0.000004 -0.000007  0.843344 -1.150338 -0.869073
26  10.828042 0.000002 0.000005  0.334086 -0.577359 -0.620648
27  9.393337 -0.000002 0.000003  0.743796 -0.365046 0.157755
28  1.442249 0.107456 1.746182  -1.689678 -0.538562 0.332283
29  1.063449 0.000003 0.000003  0.000000 -0.000000 0.199307
30  1.376304 0.000004 0.000004  -0.000000 0.000000 0.199302
31  4.172848 -0.251358 1.312747  -0.008350 -0.095707 0.151865
32  1.215375 -0.000002 0.000001  0.000000 -0.000000 0.667233
33  1.215375 -0.000005 0.000004  -0.000000 -0.000000 0.667233
34  4.220539 -0.244849 0.431467  -0.001417 -0.026230 0.151541
35  1.350414 -0.000001 0.000002  0.000000 -0.000000 0.892686
36  1.350406 0.000001 -0.000001  -0.000000 0.000000 0.892693
37  4.262830 -0.232711 -1.392179  0.017343 0.076548 0.260445
38  2.110545 0.000004 0.000000  0.032700 -0.006644 -0.000922
39  0.891926 2.373052 -0.014527  -3.141592 -0.000001 1.413797
40  7.228125 5.709444 3.726568  3.140796 -1.570796 0.000000
41  2.450426 5.076124 0.001325  3.140791 -1.570796 0.000000
42  6.312406 -4.528061 0.001311  3.140791 -1.570796 0.000000
43  2.233313 1.152531 -7.309139  -1.072642 -1.554777 -0.973297
44  -5.952957 -2.602895 0.029162  0.000000 -0.000000 0.000000
time 31
0  0.063466 -47.463409 38.069458  -0.003643 -0.000000 -1.570843
1  -0.577817 0.128910 -0.000001  -0.000031 -1.556870 -1.570771
2  -0.000005 0.000006 4.427394  0.001040 3.102175 0.283606
3  18.465939 -0.000002 -0.000001  -0.000000 0.000000 -0.381100
4  14.875442 -0.000001 -0.000000  0.000087 0.001878 0.323143
5  -0.000004 -0.000007 -4.427393  0.026755 -3.126719 -0.397706
6  18.465937 -0.000002 0.000000  -0.000000 0.000000 -0.113147
7  14.875443 -0.000001 -0.000000  -0.025965 0.002854 -0.064112
8  2.255211 -0.007576 0.031254  -0.034813 0.005105 0.037027
9  9.514224 -0.009360 -0.000000  0.000638 -0.017485 -0.014656
10  11.752197 -0.001484 0.000000  0.000000 -0.000001 0.229088
11  -2.154766 0.426089 2.649730  -0.143690 -1.448029 3.054346
12  4.640938 0.000001 -0.000002  -0.318642 1.142982 -0.628809
13  10.828041 -0.000002 0.000001  -0.010232 -0.002807 -0.645707
14  9.393339 -0.000008 0.000002  -1.569611 0.034195 0.000037
15  1.442237 0.107454 -1.746178  1.686435 0.539209 0.325885
16  1.063452 0.000005 -0.000003  0.000000 -0.000000 0.199056
17  1.376308 -0.000004 0.000000  0.000000 -0.000000 0.199049
18  4.172847 -0.251365 -1.312747  0.008050 0.095731 0.148659
19  1.215374 0.000004 -0.000004  -0.000000 -0.000000 0.645758
20  1.215372 -0.000009 0.000011  -0.000000 -0.000000 0.645758
21  4.220527 -0.244850 -0.431473  0.001333 0.026242 0.148339
22  1.350411 -0.000006 -0.000007  -0.000000 -0.000000 0.863926
23  1.350406 0.000006 0.000002  0.000000 -0.000000 0.863926
24  -2.154763 0.426102 -2.649726  -0.167191 1.465270 2.745386
25  4.640938 0.000002 -0.000011  0.843344 -1.150338 -0.869073
26  10.828048 -0.000001 0.000005  0.334087 -0.577359 -0.620648
27  9.393335 -0.000004 -0.000001  0.743796 -0.365046 0.157755
28  1.442243 0.107451 1.746178  -1.686405 -0.539236 0.325898
29  1.063448 0.000005 0.000002  0.000000 -0.000000 0.199056
30  1.376307 0.000004 -0.000007  0.000000 0.000000 0.199059
31  4.172847 -0.251374 1.312744  -0.008050 -0.095731 0.148659
32  1.215374 -0.000002 0.000007  0.000000 0.000000 0.645746
33  1.215372 -0.000002 0.000002  -0.000000 0.000000 0.645746
34  4.220532 -0.244860 0.431463  -0.001333 -0.026242 0.148339
35  1.350412 -0.000001 -0.000002  -0.000000 -0.000000 0.863937
36  1.350407 -0.000000 -0.000000  -0.000000 0.000000 0.863925
37  4.262828 -0.232719 -1.392186  0.016840 0.076668 0.253759
38  2.110545 0.000001 -0.000000  0.036865 -0.006855 -0.073859
39  0.891917 2.373045 -0.014527  -3.141592 -0.000001 1.413797
40  7.228119 5.709450 3.726568  3.140796 -1.570796 0.000000
41  2.450429 5.076122 0.001325  3.140791 -1.570796 0.000000
42  6.312407 -4.528065 0.001311  3.140791 -1.570796 0.000000
43  2.233314 1.152530 -7.309139  -1.147423 -1.544642 -0.851036
44  -5.952957 -2.602895 0.029162  0.000000 -0.000000 0.000000
end
