version 1
nodes
0 "Bip01" -1
1 "Bip01 Pelvis" 0
2 "Bip01 L Thigh" 1
3 "Bip01 L Calf" 2
4 "Bip01 L Foot" 3
5 "Bip01 R Thigh" 1
6 "Bip01 R Calf" 5
7 "Bip01 R Foot" 6
8 "Bip01 Spine" 1
9 "Bip01 Spine1" 8
10 "Bip01 Neck" 9
11 "Bip01 L Clavicle" 10
12 "Bip01 L UpperArm" 11
13 "Bip01 L Forearm" 12
14 "Bip01 L Hand" 13
15 "Bip01 L Finger0" 14
16 "Bip01 L Finger01" 15
17 "Bip01 L Finger02" 16
18 "Bip01 L Finger1" 14
19 "Bip01 L Finger11" 18
20 "Bip01 L Finger12" 19
21 "Bip01 L Finger2" 14
22 "Bip01 L Finger21" 21
23 "Bip01 L Finger22" 22
24 "Bip01 R Clavicle" 10
25 "Bip01 R UpperArm" 24
26 "Bip01 R Forearm" 25
27 "Bip01 R Hand" 26
28 "Bip01 R Finger0" 27
29 "Bip01 R Finger01" 28
30 "Bip01 R Finger02" 29
31 "Bip01 R Finger1" 27
32 "Bip01 R Finger11" 31
33 "Bip01 R Finger12" 32
34 "Bip01 R Finger2" 27
35 "Bip01 R Finger21" 34
36 "Bip01 R Finger22" 35
37 "Bip01 R Finger4" 27
38 "Bip01 Head" 10
39 "Bone05" 38
40 "Bone08" 9
41 "Bone16" 8
42 "Bone01" 8
43 "Bone03" 1
44 "Line02" -1
end
skeleton
time 0
0  0.420091 1.059590 39.345757  0.000000 -0.000000 -1.570795
1  -0.245774 -0.000000 0.000000  -1.021376 -1.570400 -0.549426
2  -0.000923 0.000008 4.427392  -0.000317 -3.130563 -0.072680
3  18.465935 -0.000130 -0.000070  -0.000001 0.000015 -0.242147
4  14.875447 0.000250 0.000168  0.001118 -0.017827 0.169448
5  0.000926 -0.000004 -4.427392  0.000288 3.130167 -0.072680
6  18.465940 -0.000130 0.000427  0.000006 -0.000034 -0.242147
7  14.875443 0.000249 -0.000169  -0.001115 0.005128 0.169462
8  2.255210 -0.007558 0.000470  -0.000004 -0.000184 0.000803
9  9.514226 -0.009356 0.000233  -0.000000 0.000000 0.000000
10  11.752196 -0.001491 0.000288  -0.000011 -0.000023 0.478765
11  -1.967264 0.937803 2.649730  0.088018 -1.370041 2.575766
12  4.640940 0.000004 0.000003  -0.049949 1.052208 -0.032368
13  10.828047 0.000084 -0.000001  -0.000003 -0.000001 -0.409438
14  9.393347 0.000057 -0.000001  -1.569607 -0.000001 0.165810
15  1.442241 0.107448 -1.746177  1.585940 0.550077 0.132381
16  1.063451 0.000003 -0.000000  -0.000001 -0.000000 0.183259
17  1.376310 0.000002 0.000000  0.000003 0.000001 0.148353
18  4.172844 -0.251368 -1.312735  -0.001197 0.096044 0.052253
19  1.215372 -0.000006 -0.000013  0.000006 0.000014 0.052348
20  1.215371 0.000004 0.000007  -0.000001 -0.000006 0.052366
21  4.220530 -0.244854 -0.431455  -0.001191 0.026230 0.052339
22  1.350415 -0.000014 -0.000013  0.000006 0.000014 0.052346
23  1.350412 0.000008 0.000005  -0.000003 -0.000009 0.052368
24  -1.967260 0.937814 -2.649724  -0.088049 1.370038 2.575736
25  4.640940 0.000010 0.000000  0.049955 -1.052208 -0.032360
26  10.828052 0.000025 0.000007  -0.000005 -0.000003 -0.409439
27  9.393342 0.000013 0.000007  1.569610 0.000000 0.165806
28  1.442247 0.107461 1.746177  -1.585942 -0.550075 0.132381
29  1.063450 -0.000005 -0.000001  -0.000004 -0.000002 0.183258
30  1.376307 -0.000003 -0.000000  0.000002 0.000001 0.148355
31  4.172851 -0.251360 1.312740  0.001193 -0.096044 0.052256
32  1.215372 -0.000010 0.000011  -0.000006 -0.000013 0.052347
33  1.215375 0.000005 -0.000003  0.000001 0.000005 0.052365
34  4.220535 -0.244848 0.431461  0.001181 -0.026250 0.052321
35  1.350418 0.000014 -0.000015  0.000001 0.000005 0.052366
36  1.350409 0.000004 -0.000005  0.000003 0.000009 0.052369
37  4.262823 -0.232716 -1.392183  0.001185 0.078470 0.052444
38  2.110541 0.000014 0.000000  0.000000 0.000001 -0.322562
39  0.891927 2.373048 -0.014527  -3.141592 -0.000002 1.413795
40  7.228031 5.709446 3.726745  3.140790 -1.570772 0.000000
41  2.450426 5.076128 0.001385  3.140790 -1.570772 0.000000
42  6.312409 -4.528057 0.001466  3.140790 -1.570772 0.000000
43  2.234815 1.152551 -7.308675  -1.569191 -1.571002 -0.001598
44  -5.952957 -2.602895 0.029162  0.000000 -0.000000 0.000000
end
triangles
MP5sideview.bmp
27  -14.126377 -0.901605 24.637161  0.984737 -0.011761 -0.173651  0.363636 0.000000
27  -13.709942 -3.079175 27.146173  0.984737 -0.011761 -0.173650  0.424242 0.175439
27  -14.309333 -2.323150 23.695942  0.984737 -0.011761 -0.173651  0.313131 0.070175
MP5sideview.bmp
27  -14.309333 -2.323150 23.695942  0.984737 -0.011761 -0.173651  0.313131 0.070175
27  -13.709942 -3.079175 27.146173  0.984737 -0.011761 -0.173650  0.424242 0.175439
27  -13.704741 -5.993289 27.373035  0.984737 -0.011748 -0.173653  0.404040 0.368421
MP5sideview.bmp
27  -13.709942 -3.079175 27.146173  0.984737 -0.011761 -0.173650  0.424242 0.175439
27  -13.347648 -5.809357 29.385588  0.979007 0.041523 -0.199553  0.474747 0.385965
27  -13.704741 -5.993289 27.373035  0.984737 -0.011748 -0.173653  0.404040 0.368421
MP5sideview.bmp
27  -13.704741 -5.993289 27.373035  0.984737 -0.011748 -0.173653  0.404040 0.368421
27  -13.347648 -5.809357 29.385588  0.979007 0.041523 -0.199553  0.474747 0.385965
27  -13.182242 -9.025111 29.113216  0.979000 0.041526 -0.199584  0.444444 0.578947
MP5sideview.bmp
27  -13.347648 -5.809357 29.385588  0.979007 0.041523 -0.199553  0.474747 0.385965
27  -12.910686 -7.730099 30.565449  0.979002 0.041486 -0.199584  0.505051 0.526316
27  -13.182242 -9.025111 29.113216  0.979000 0.041526 -0.199584  0.444444 0.578947
MP5sideview.bmp
27  -13.182242 -9.025111 29.113216  0.979000 0.041526 -0.199584  0.444444 0.578947
27  -12.910686 -7.730099 30.565449  0.979002 0.041486 -0.199584  0.505051 0.526316
27  -11.773639 -11.611116 37.276276  0.984739 -0.011730 -0.173642  0.696970 0.877193
MP5sideview.bmp
27  -12.910686 -7.730099 30.565449  0.979002 0.041486 -0.199584  0.505051 0.526316
27  -12.116307 -6.506395 34.987324  0.984737 -0.011762 -0.173651  0.666667 0.526316
27  -11.773639 -11.611116 37.276276  0.984739 -0.011730 -0.173642  0.696970 0.877193
MP5sideview.bmp
27  -11.773639 -11.611116 37.276276  0.984739 -0.011730 -0.173642  0.696970 0.877193
27  -12.116307 -6.506395 34.987324  0.984737 -0.011762 -0.173651  0.666667 0.526316
27  -11.576108 -5.970082 38.014359  0.984737 -0.011762 -0.173650  0.777778 0.543860
MP5sideview.bmp
27  -12.116307 -6.506395 34.987324  0.984737 -0.011762 -0.173651  0.666667 0.526316
27  -12.090806 -4.971374 35.027969  0.984737 -0.011761 -0.173651  0.686869 0.438596
27  -11.576108 -5.970082 38.014359  0.984737 -0.011762 -0.173650  0.777778 0.543860
MP5sideview.bmp
27  -11.576108 -5.970082 38.014359  0.984737 -0.011762 -0.173650  0.777778 0.543860
27  -12.090806 -4.971374 35.027969  0.984737 -0.011761 -0.173651  0.686869 0.438596
27  -11.979017 -3.958461 35.593292  0.984737 -0.011761 -0.173651  0.717172 0.385965
MP5sideview.bmp
27  -15.349216 -2.310730 23.879316  -0.984737 0.011762 0.173650  0.313131 0.070175
27  -14.744624 -5.980868 27.556412  -0.984737 0.011774 0.173649  0.404040 0.368421
27  -14.749825 -3.066755 27.329548  -0.984737 0.011761 0.173651  0.424242 0.175439
MP5sideview.bmp
27  -14.749825 -3.066755 27.329548  -0.984737 0.011761 0.173651  0.424242 0.175439
27  -14.744624 -5.980868 27.556412  -0.984737 0.011774 0.173649  0.404040 0.368421
27  -14.387530 -5.796937 29.568962  -0.986978 0.065003 0.147133  0.474747 0.385965
MP5sideview.bmp
27  -14.744624 -5.980868 27.556412  -0.984737 0.011774 0.173649  0.404040 0.368421
27  -14.710554 -9.006857 29.382723  -0.986984 0.065006 0.147097  0.444444 0.578947
27  -14.387530 -5.796937 29.568962  -0.986978 0.065003 0.147133  0.474747 0.385965
MP5sideview.bmp
27  -14.387530 -5.796937 29.568962  -0.986978 0.065003 0.147133  0.474747 0.385965
27  -14.710554 -9.006857 29.382723  -0.986984 0.065006 0.147097  0.444444 0.578947
27  -14.438997 -7.711844 30.834953  -0.986985 0.064968 0.147102  0.505051 0.526316
MP5sideview.bmp
27  -14.710554 -9.006857 29.382723  -0.986984 0.065006 0.147097  0.444444 0.578947
27  -13.301950 -11.592863 37.545784  -0.984738 0.011747 0.173646  0.696970 0.877193
27  -14.438997 -7.711844 30.834953  -0.986985 0.064968 0.147102  0.505051 0.526316
MP5sideview.bmp
27  -14.438997 -7.711844 30.834953  -0.986985 0.064968 0.147102  0.505051 0.526316
27  -13.301950 -11.592863 37.545784  -0.984738 0.011747 0.173646  0.696970 0.877193
27  -13.644619 -6.488141 35.256828  -0.984737 0.011762 0.173650  0.666667 0.526316
MP5sideview.bmp
27  -13.301950 -11.592863 37.545784  -0.984738 0.011747 0.173646  0.696970 0.877193
27  -13.104420 -5.951828 38.283867  -0.984737 0.011761 0.173650  0.777778 0.543860
27  -13.644619 -6.488141 35.256828  -0.984737 0.011762 0.173650  0.666667 0.526316
MP5sideview.bmp
27  -13.644619 -6.488141 35.256828  -0.984737 0.011762 0.173650  0.666667 0.526316
27  -13.104420 -5.951828 38.283867  -0.984737 0.011761 0.173650  0.777778 0.543860
27  -13.619118 -4.953120 35.297474  -0.984737 0.011762 0.173650  0.686869 0.438596
MP5sideview.bmp
27  -13.104420 -5.951828 38.283867  -0.984737 0.011761 0.173650  0.777778 0.543860
27  -13.507330 -3.940207 35.862797  -0.984737 0.011761 0.173650  0.717172 0.385965
27  -13.619118 -4.953120 35.297474  -0.984737 0.011762 0.173650  0.686869 0.438596
MP5sideview.bmp
27  -10.882224 -6.018638 41.952522  -0.172066 0.084465 -0.981458  0.909091 0.614035
27  -12.319485 -2.539233 42.503937  -0.145460 0.492249 -0.858214  0.959596 0.421053
27  -10.791173 -2.557487 42.234428  -0.145459 0.492249 -0.858215  0.959596 0.421053
MP5sideview.bmp
27  -10.791173 -2.557487 42.234428  -0.145459 0.492249 -0.858215  0.959596 0.421053
27  -12.319485 -2.539233 42.503937  -0.145460 0.492249 -0.858214  0.959596 0.421053
27  -10.768713 -2.464128 42.355473  -0.040744 0.954412 -0.295699  0.959596 0.403509
MP5sideview.bmp
27  -12.319485 -2.539233 42.503937  -0.145460 0.492249 -0.858214  0.959596 0.421053
27  -12.297025 -2.445874 42.624977  0.018127 0.999219 0.035116  0.959596 0.403509
27  -10.768713 -2.464128 42.355473  -0.040744 0.954412 -0.295699  0.959596 0.403509
MP5sideview.bmp
27  -10.768713 -2.464128 42.355473  -0.040744 0.954412 -0.295699  0.959596 0.403509
27  -12.297025 -2.445874 42.624977  0.018127 0.999219 0.035116  0.959596 0.403509
27  -10.696156 -2.624694 42.777802  0.085659 0.901271 0.424703  0.969697 0.421053
MP5sideview.bmp
27  -12.297025 -2.445874 42.624977  0.018127 0.999219 0.035116  0.959596 0.403509
27  -12.224468 -2.606440 43.047310  0.101067 0.850909 0.515499  0.969697 0.421053
27  -10.696156 -2.624694 42.777802  0.085659 0.901271 0.424703  0.969697 0.421053
MP5sideview.bmp
27  -10.696156 -2.624694 42.777802  0.085659 0.901271 0.424703  0.969697 0.421053
27  -12.224468 -2.606440 43.047310  0.101067 0.850909 0.515499  0.969697 0.421053
27  -10.659388 -2.793983 42.997780  0.115216 0.791870 0.599723  0.979798 0.438596
MP5sideview.bmp
27  -12.224468 -2.606440 43.047310  0.101067 0.850909 0.515499  0.969697 0.421053
27  -12.187699 -2.775729 43.267284  0.115221 0.791834 0.599769  0.979798 0.438596
27  -10.659388 -2.793983 42.997780  0.115216 0.791870 0.599723  0.979798 0.438596
MP5sideview.bmp
27  -12.410536 -6.000383 42.222031  -0.984737 0.011761 0.173651  0.909091 0.614035
27  -12.187699 -2.775729 43.267284  -0.984737 0.011762 0.173650  0.979798 0.438596
27  -12.319485 -2.539233 42.503937  -0.984737 0.011766 0.173650  0.959596 0.421053
MP5sideview.bmp
27  -12.410536 -6.000383 42.222031  -0.984737 0.011761 0.173651  0.909091 0.614035
27  -12.185012 -6.004105 43.501183  -0.984737 0.011761 0.173651  0.959596 0.631579
27  -12.187699 -2.775729 43.267284  -0.984737 0.011762 0.173650  0.979798 0.438596
MP5sideview.bmp
27  -12.410536 -6.000383 42.222031  -0.984737 0.011761 0.173651  0.909091 0.614035
27  -12.064788 -8.447035 44.348412  -0.984737 0.011764 0.173652  0.959596 0.807018
27  -12.185012 -6.004105 43.501183  -0.984737 0.011761 0.173651  0.959596 0.631579
MP5sideview.bmp
27  -12.410536 -6.000383 42.222031  -0.984737 0.011761 0.173651  0.909091 0.614035
27  -12.077994 -8.860171 44.301506  -0.984737 0.011763 0.173650  0.959596 0.824561
27  -12.064788 -8.447035 44.348412  -0.984737 0.011764 0.173652  0.959596 0.807018
MP5sideview.bmp
27  -12.410536 -6.000383 42.222031  -0.984737 0.011761 0.173651  0.909091 0.614035
27  -12.173286 -9.128107 43.779266  -0.984737 0.011762 0.173649  0.939394 0.824561
27  -12.077994 -8.860171 44.301506  -0.984737 0.011763 0.173650  0.959596 0.824561
MP5sideview.bmp
27  -12.410536 -6.000383 42.222031  -0.984737 0.011761 0.173651  0.909091 0.614035
27  -12.395338 -8.531023 42.479614  -0.984737 0.011761 0.173651  0.898990 0.771930
27  -12.173286 -9.128107 43.779266  -0.984737 0.011762 0.173649  0.939394 0.824561
MP5sideview.bmp
27  -12.410536 -6.000383 42.222031  -0.984737 0.011761 0.173651  0.909091 0.614035
27  -12.981154 -6.953096 39.050697  -0.984737 0.011762 0.173651  0.797980 0.614035
27  -12.395338 -8.531023 42.479614  -0.984737 0.011761 0.173651  0.898990 0.771930
MP5sideview.bmp
27  -10.882224 -6.018638 41.952522  0.984737 -0.011762 -0.173650  0.909091 0.614035
27  -10.867026 -8.549277 42.210110  0.984737 -0.011761 -0.173651  0.898990 0.771930
27  -11.452843 -6.971351 38.781189  0.984737 -0.011762 -0.173651  0.797980 0.614035
MP5sideview.bmp
27  -10.882224 -6.018638 41.952522  0.984737 -0.011762 -0.173650  0.909091 0.614035
27  -10.644974 -9.146361 43.509762  0.984737 -0.011761 -0.173649  0.939394 0.824561
27  -10.867026 -8.549277 42.210110  0.984737 -0.011761 -0.173651  0.898990 0.771930
MP5sideview.bmp
27  -10.882224 -6.018638 41.952522  0.984737 -0.011762 -0.173650  0.909091 0.614035
27  -10.549683 -8.878426 44.031998  0.984737 -0.011761 -0.173650  0.959596 0.824561
27  -10.644974 -9.146361 43.509762  0.984737 -0.011761 -0.173649  0.939394 0.824561
MP5sideview.bmp
27  -10.882224 -6.018638 41.952522  0.984737 -0.011762 -0.173650  0.909091 0.614035
27  -10.536476 -8.465289 44.078903  0.984737 -0.011760 -0.173652  0.959596 0.807018
27  -10.549683 -8.878426 44.031998  0.984737 -0.011761 -0.173650  0.959596 0.824561
MP5sideview.bmp
27  -10.882224 -6.018638 41.952522  0.984737 -0.011762 -0.173650  0.909091 0.614035
27  -10.656700 -6.022358 43.231674  0.984737 -0.011762 -0.173650  0.959596 0.631579
27  -10.536476 -8.465289 44.078903  0.984737 -0.011760 -0.173652  0.959596 0.807018
MP5sideview.bmp
27  -10.882224 -6.018638 41.952522  0.984737 -0.011762 -0.173650  0.909091 0.614035
27  -10.659388 -2.793983 42.997780  0.984737 -0.011765 -0.173651  0.979798 0.438596
27  -10.656700 -6.022358 43.231674  0.984737 -0.011762 -0.173650  0.959596 0.631579
MP5sideview.bmp
27  -10.882224 -6.018638 41.952522  0.984737 -0.011762 -0.173650  0.909091 0.614035
27  -10.791173 -2.557487 42.234428  0.984737 -0.011762 -0.173652  0.959596 0.421053
27  -10.659388 -2.793983 42.997780  0.984737 -0.011765 -0.173651  0.979798 0.438596
MP5sideview.bmp
27  -14.745560 -9.112279 29.191357  -0.984738 0.011761 0.173647  0.434343 0.578947
27  -14.672170 -10.398051 29.694622  -0.984738 0.011736 0.173646  0.434343 0.666667
27  -14.710554 -9.006857 29.382723  -0.986984 0.065006 0.147097  0.444444 0.578947
MP5sideview.bmp
27  -14.710554 -9.006857 29.382723  -0.986984 0.065006 0.147097  0.444444 0.578947
27  -14.672170 -10.398051 29.694622  -0.984738 0.011736 0.173646  0.434343 0.666667
27  -13.301950 -11.592863 37.545784  -0.984738 0.011747 0.173646  0.696970 0.877193
MP5sideview.bmp
27  -14.672170 -10.398051 29.694622  -0.984738 0.011736 0.173646  0.434343 0.666667
27  -15.914965 -13.321065 21.416809  -0.984736 0.011763 0.173655  0.121212 0.701754
27  -13.301950 -11.592863 37.545784  -0.984738 0.011747 0.173646  0.696970 0.877193
MP5sideview.bmp
27  -13.301950 -11.592863 37.545784  -0.984738 0.011747 0.173646  0.696970 0.877193
27  -15.914965 -13.321065 21.416809  -0.984736 0.011763 0.173655  0.121212 0.701754
27  -15.853666 -15.924314 21.940737  -0.984747 0.011750 0.173592  0.121212 0.859649
MP5sideview.bmp
27  -15.914965 -13.321065 21.416809  -0.984736 0.011763 0.173655  0.121212 0.701754
27  -16.074577 -14.786608 20.610935  -0.984737 0.011760 0.173654  0.080808 0.771930
27  -15.853666 -15.924314 21.940737  -0.984747 0.011750 0.173592  0.121212 0.859649
MP5sideview.bmp
27  -15.853666 -15.924314 21.940737  -0.984747 0.011750 0.173592  0.121212 0.859649
27  -16.074577 -14.786608 20.610935  -0.984737 0.011760 0.173654  0.080808 0.771930
27  -16.006033 -16.439381 21.111588  -0.984737 0.011762 0.173651  0.080808 0.877193
MP5sideview.bmp
27  -12.906368 -10.938703 39.744743  -0.984737 0.011762 0.173651  0.777778 0.877193
27  -13.060629 -12.469086 38.973614  -0.984737 0.011761 0.173651  0.737374 0.947368
27  -12.917887 -12.043008 39.754219  -0.984737 0.011761 0.173650  0.767677 0.929825
MP5sideview.bmp
27  -12.906368 -10.938703 39.744743  -0.984737 0.011762 0.173651  0.777778 0.877193
27  -13.248911 -12.380825 37.899933  -0.984737 0.011762 0.173651  0.696970 0.929825
27  -13.060629 -12.469086 38.973614  -0.984737 0.011761 0.173651  0.737374 0.947368
MP5sideview.bmp
27  -12.906368 -10.938703 39.744743  -0.984737 0.011762 0.173651  0.777778 0.877193
27  -13.301950 -11.592863 37.545784  -0.984738 0.011747 0.173646  0.696970 0.877193
27  -13.248911 -12.380825 37.899933  -0.984737 0.011762 0.173651  0.696970 0.929825
MP5sideview.bmp
27  -12.906368 -10.938703 39.744743  -0.984737 0.011762 0.173651  0.777778 0.877193
27  -12.981154 -6.953096 39.050697  -0.984737 0.011762 0.173651  0.797980 0.614035
27  -13.301950 -11.592863 37.545784  -0.984738 0.011747 0.173646  0.696970 0.877193
MP5sideview.bmp
27  -12.906368 -10.938703 39.744743  -0.984737 0.011762 0.173651  0.777778 0.877193
27  -12.395338 -8.531023 42.479614  -0.984737 0.011761 0.173651  0.898990 0.771930
27  -12.981154 -6.953096 39.050697  -0.984737 0.011762 0.173651  0.797980 0.614035
MP5sideview.bmp
27  -12.906368 -10.938703 39.744743  -0.984737 0.011762 0.173651  0.777778 0.877193
27  -12.474998 -10.275820 42.146057  -0.984737 0.011762 0.173651  0.868687 0.877193
27  -12.395338 -8.531023 42.479614  -0.984737 0.011761 0.173651  0.898990 0.771930
MP5sideview.bmp
27  -11.378056 -10.956957 39.475239  0.984737 -0.011761 -0.173651  0.777778 0.877193
27  -10.867026 -8.549277 42.210110  0.984737 -0.011761 -0.173651  0.898990 0.771930
27  -10.946686 -10.294073 41.876553  0.984737 -0.011761 -0.173651  0.868687 0.877193
MP5sideview.bmp
27  -11.378056 -10.956957 39.475239  0.984737 -0.011761 -0.173651  0.777778 0.877193
27  -11.452843 -6.971351 38.781189  0.984737 -0.011762 -0.173651  0.797980 0.614035
27  -10.867026 -8.549277 42.210110  0.984737 -0.011761 -0.173651  0.898990 0.771930
MP5sideview.bmp
27  -11.378056 -10.956957 39.475239  0.984737 -0.011761 -0.173651  0.777778 0.877193
27  -11.773639 -11.611116 37.276276  0.984739 -0.011730 -0.173642  0.696970 0.877193
27  -11.452843 -6.971351 38.781189  0.984737 -0.011762 -0.173651  0.797980 0.614035
MP5sideview.bmp
27  -11.378056 -10.956957 39.475239  0.984737 -0.011761 -0.173651  0.777778 0.877193
27  -11.720598 -12.399079 37.630424  0.984737 -0.011761 -0.173650  0.696970 0.929825
27  -11.773639 -11.611116 37.276276  0.984739 -0.011730 -0.173642  0.696970 0.877193
MP5sideview.bmp
27  -11.378056 -10.956957 39.475239  0.984737 -0.011761 -0.173651  0.777778 0.877193
27  -11.532317 -12.487340 38.704109  0.984737 -0.011761 -0.173651  0.737374 0.947368
27  -11.720598 -12.399079 37.630424  0.984737 -0.011761 -0.173650  0.696970 0.929825
MP5sideview.bmp
27  -11.378056 -10.956957 39.475239  0.984737 -0.011761 -0.173651  0.777778 0.877193
27  -11.389574 -12.061261 39.484715  0.984737 -0.011759 -0.173651  0.767677 0.929825
27  -11.532317 -12.487340 38.704109  0.984737 -0.011761 -0.173651  0.737374 0.947368
MP5sideview.bmp
27  -15.612879 -14.497076 18.280085  0.963897 -0.033291 -0.264184  0.010101 0.719298
27  -15.053314 -13.890259 20.260424  0.963920 -0.033380 -0.264093  0.080808 0.719298
27  -15.582498 -15.297083 18.506557  0.963889 -0.033243 -0.264223  0.010101 0.771930
MP5sideview.bmp
27  -15.582498 -15.297083 18.506557  0.963889 -0.033243 -0.264223  0.010101 0.771930
27  -15.053314 -13.890259 20.260424  0.963920 -0.033380 -0.264093  0.080808 0.719298
27  -15.034696 -14.799028 20.427561  0.984738 -0.011759 -0.173648  0.080808 0.771930
MP5sideview.bmp
27  -15.053314 -13.890259 20.260424  0.963920 -0.033380 -0.264093  0.080808 0.719298
27  -14.875082 -13.333486 21.233433  0.984738 -0.011759 -0.173647  0.121212 0.701754
27  -15.034696 -14.799028 20.427561  0.984738 -0.011759 -0.173648  0.080808 0.771930
MP5sideview.bmp
27  -15.034696 -14.799028 20.427561  0.984738 -0.011759 -0.173648  0.080808 0.771930
27  -14.875082 -13.333486 21.233433  0.984738 -0.011759 -0.173647  0.121212 0.701754
27  -14.813784 -15.936735 21.757362  0.984735 -0.011763 -0.173663  0.121212 0.859649
MP5sideview.bmp
27  -14.875082 -13.333486 21.233433  0.984738 -0.011759 -0.173647  0.121212 0.701754
27  -11.773639 -11.611116 37.276276  0.984739 -0.011730 -0.173642  0.696970 0.877193
27  -14.813784 -15.936735 21.757362  0.984735 -0.011763 -0.173663  0.121212 0.859649
MP5sideview.bmp
27  -14.815635 -17.866282 21.877560  0.984737 -0.011762 -0.173652  0.101010 0.982456
27  -14.877112 -17.540911 21.506891  0.984737 -0.011762 -0.173651  0.090909 0.947368
27  -14.755837 -17.614761 22.199617  0.984737 -0.011762 -0.173651  0.111111 0.964912
MP5sideview.bmp
27  -14.755837 -17.614761 22.199617  0.984737 -0.011762 -0.173651  0.111111 0.964912
27  -14.877112 -17.540911 21.506891  0.984737 -0.011762 -0.173651  0.090909 0.947368
27  -14.813784 -15.936735 21.757362  0.984735 -0.011763 -0.173663  0.121212 0.859649
MP5sideview.bmp
27  -14.877112 -17.540911 21.506891  0.984737 -0.011762 -0.173651  0.090909 0.947368
27  -14.966150 -16.451801 20.928211  0.984737 -0.011761 -0.173652  0.080808 0.877193
27  -14.813784 -15.936735 21.757362  0.984735 -0.011763 -0.173663  0.121212 0.859649
MP5sideview.bmp
27  -14.813784 -15.936735 21.757362  0.984735 -0.011763 -0.173663  0.121212 0.859649
27  -14.966150 -16.451801 20.928211  0.984737 -0.011761 -0.173652  0.080808 0.877193
27  -15.034696 -14.799028 20.427561  0.984738 -0.011759 -0.173648  0.080808 0.771930
MP5sideview.bmp
27  -14.672170 -10.398051 29.694622  -0.172093 0.084395 -0.981459  0.434343 0.666667
27  -14.875082 -13.333486 21.233433  -0.060497 0.912373 -0.404864  0.121212 0.701754
27  -15.914965 -13.321065 21.416809  -0.060493 0.912388 -0.404832  0.121212 0.701754
MP5sideview.bmp
27  -15.914965 -13.321065 21.416809  -0.060493 0.912388 -0.404832  0.121212 0.701754
27  -14.875082 -13.333486 21.233433  -0.060497 0.912373 -0.404864  0.121212 0.701754
27  -16.093197 -13.877838 20.443798  -0.074196 0.874149 -0.479957  0.080808 0.719298
MP5sideview.bmp
27  -14.875082 -13.333486 21.233433  -0.060497 0.912373 -0.404864  0.121212 0.701754
27  -15.053314 -13.890259 20.260424  -0.074194 0.874148 -0.479959  0.080808 0.719298
27  -16.093197 -13.877838 20.443798  -0.074196 0.874149 -0.479957  0.080808 0.719298
MP5sideview.bmp
27  -16.006033 -16.439381 21.111588  -0.984737 0.011762 0.173651  0.080808 0.877193
27  -15.916995 -17.528492 21.690266  -0.984737 0.011761 0.173651  0.090909 0.947368
27  -15.853666 -15.924314 21.940737  -0.984747 0.011750 0.173592  0.121212 0.859649
MP5sideview.bmp
27  -15.853666 -15.924314 21.940737  -0.984747 0.011750 0.173592  0.121212 0.859649
27  -15.916995 -17.528492 21.690266  -0.984737 0.011761 0.173651  0.090909 0.947368
27  -15.795720 -17.602341 22.382992  -0.984737 0.011760 0.173651  0.111111 0.964912
MP5sideview.bmp
27  -15.916995 -17.528492 21.690266  -0.984737 0.011761 0.173651  0.090909 0.947368
27  -15.855516 -17.853861 22.060936  -0.984737 0.011757 0.173650  0.101010 0.982456
27  -15.795720 -17.602341 22.382992  -0.984737 0.011760 0.173651  0.111111 0.964912
MP5sideview.bmp
27  -15.914965 -13.321065 21.416809  -0.984736 0.011763 0.173655  0.121212 0.701754
27  -16.093197 -13.877838 20.443798  -0.996613 -0.009957 0.081630  0.080808 0.719298
27  -16.074577 -14.786608 20.610935  -0.984737 0.011760 0.173654  0.080808 0.771930
MP5sideview.bmp
27  -16.074577 -14.786608 20.610935  -0.984737 0.011760 0.173654  0.080808 0.771930
27  -16.093197 -13.877838 20.443798  -0.996613 -0.009957 0.081630  0.080808 0.719298
27  -16.228485 -15.289368 18.620472  -0.996625 -0.009828 0.081498  0.010101 0.771930
MP5sideview.bmp
27  -16.093197 -13.877838 20.443798  -0.996613 -0.009957 0.081630  0.080808 0.719298
27  -16.258867 -14.489361 18.394001  -0.996621 -0.009877 0.081539  0.010101 0.719298
27  -16.228485 -15.289368 18.620472  -0.996625 -0.009828 0.081498  0.010101 0.771930
MP5sideview.bmp
27  -13.104420 -5.951828 38.283867  -0.984737 0.011761 0.173650  0.777778 0.543860
27  -12.903316 -1.774446 39.141346  -0.984737 0.011761 0.173651  0.848485 0.315789
27  -13.507330 -3.940207 35.862797  -0.984737 0.011761 0.173650  0.717172 0.385965
MP5sideview.bmp
27  -13.507330 -3.940207 35.862797  -0.984737 0.011761 0.173650  0.717172 0.385965
27  -12.903316 -1.774446 39.141346  -0.984737 0.011761 0.173651  0.848485 0.315789
27  -13.395823 -1.131801 36.304909  -0.984737 0.011762 0.173651  0.757576 0.228070
MP5sideview.bmp
27  -12.903316 -1.774446 39.141346  -0.984737 0.011761 0.173651  0.848485 0.315789
27  -13.290313 -1.018820 36.895588  -0.984737 0.011765 0.173651  0.777778 0.228070
27  -13.395823 -1.131801 36.304909  -0.984737 0.011762 0.173651  0.757576 0.228070
MP5sideview.bmp
27  -14.875082 -13.333486 21.233433  0.984738 -0.011759 -0.173647  0.121212 0.701754
27  -13.143858 -10.416306 29.425117  0.984736 -0.011787 -0.173656  0.434343 0.666667
27  -11.773639 -11.611116 37.276276  0.984739 -0.011730 -0.173642  0.696970 0.877193
MP5sideview.bmp
27  -11.773639 -11.611116 37.276276  0.984739 -0.011730 -0.173642  0.696970 0.877193
27  -13.143858 -10.416306 29.425117  0.984736 -0.011787 -0.173656  0.434343 0.666667
27  -13.182242 -9.025111 29.113216  0.979000 0.041526 -0.199584  0.444444 0.578947
MP5sideview.bmp
27  -13.143858 -10.416306 29.425117  0.984736 -0.011787 -0.173656  0.434343 0.666667
27  -13.217247 -9.130533 28.921850  0.984737 -0.011763 -0.173648  0.434343 0.578947
27  -13.182242 -9.025111 29.113216  0.979000 0.041526 -0.199584  0.444444 0.578947
MP5sideview.bmp
27  -11.576108 -5.970082 38.014359  0.984737 -0.011762 -0.173650  0.777778 0.543860
27  -11.979017 -3.958461 35.593292  0.984737 -0.011761 -0.173651  0.717172 0.385965
27  -11.375004 -1.792700 38.871841  0.984737 -0.011762 -0.173650  0.848485 0.315789
MP5sideview.bmp
27  -11.375004 -1.792700 38.871841  0.984737 -0.011762 -0.173650  0.848485 0.315789
27  -11.979017 -3.958461 35.593292  0.984737 -0.011761 -0.173651  0.717172 0.385965
27  -11.762001 -1.037073 36.626083  0.984737 -0.011761 -0.173650  0.777778 0.228070
MP5sideview.bmp
27  -11.979017 -3.958461 35.593292  0.984737 -0.011761 -0.173651  0.717172 0.385965
27  -11.867512 -1.150054 36.035404  0.984737 -0.011761 -0.173649  0.757576 0.228070
27  -11.762001 -1.037073 36.626083  0.984737 -0.011761 -0.173650  0.777778 0.228070
MP5sideview.bmp
27  -14.749825 -3.066755 27.329548  0.121560 0.760520 0.637834  0.151515 0.684211
27  -13.709942 -3.079175 27.146173  0.121567 0.760489 0.637870  0.838384 0.684211
27  -15.166260 -0.889184 24.820538  0.121564 0.760520 0.637833  0.151515 1.000000
MP5sideview.bmp
27  -15.166260 -0.889184 24.820538  0.121564 0.760520 0.637833  0.151515 1.000000
27  -13.709942 -3.079175 27.146173  0.121567 0.760489 0.637870  0.838384 0.684211
27  -14.126377 -0.901605 24.637161  0.121564 0.760521 0.637833  0.838384 1.000000
MP5sideview.bmp
27  -14.387530 -5.796937 29.568962  0.141033 0.638606 0.756500  0.151515 0.333333
27  -13.347648 -5.809357 29.385588  0.141032 0.638606 0.756500  0.838384 0.333333
27  -14.749825 -3.066755 27.329548  0.141027 0.638607 0.756501  0.151515 0.684211
MP5sideview.bmp
27  -14.749825 -3.066755 27.329548  0.141027 0.638607 0.756501  0.151515 0.684211
27  -13.347648 -5.809357 29.385588  0.141032 0.638606 0.756500  0.838384 0.333333
27  -13.709942 -3.079175 27.146173  0.141025 0.638607 0.756501  0.838384 0.684211
MP5sideview.bmp
27  -14.438997 -7.711844 30.834953  0.152222 0.541939 0.826517  0.000000 0.087719
27  -12.910686 -7.730099 30.565449  0.152235 0.541818 0.826594  1.000000 0.087719
27  -14.387530 -5.796937 29.568962  0.152195 0.542221 0.826337  0.151515 0.333333
MP5sideview.bmp
27  -14.387530 -5.796937 29.568962  0.152195 0.542221 0.826337  0.151515 0.333333
27  -12.910686 -7.730099 30.565449  0.152235 0.541818 0.826594  1.000000 0.087719
27  -13.347648 -5.809357 29.385588  0.152196 0.542221 0.826337  0.838384 0.333333
MP5sideview.bmp
27  -13.644619 -6.488141 35.256828  -0.034613 0.964550 -0.261619  0.474747 0.719298
27  -12.116307 -6.506395 34.987324  -0.034613 0.964550 -0.261619  0.474747 0.859649
27  -14.438997 -7.711844 30.834953  -0.034614 0.964550 -0.261619  0.393939 0.719298
MP5sideview.bmp
27  -14.438997 -7.711844 30.834953  -0.034614 0.964550 -0.261619  0.393939 0.719298
27  -12.116307 -6.506395 34.987324  -0.034613 0.964550 -0.261619  0.474747 0.859649
27  -12.910686 -7.730099 30.565449  -0.034615 0.964550 -0.261619  0.393939 0.859649
MP5sideview.bmp
27  -13.619118 -4.953120 35.297474  -0.173197 0.032347 -0.984356  0.686869 0.438596
27  -12.090806 -4.971374 35.027969  -0.173200 0.032347 -0.984355  0.686869 0.438596
27  -13.644619 -6.488141 35.256828  -0.173199 0.032347 -0.984356  0.666667 0.526316
MP5sideview.bmp
27  -13.644619 -6.488141 35.256828  -0.173199 0.032347 -0.984356  0.666667 0.526316
27  -12.090806 -4.971374 35.027969  -0.173200 0.032347 -0.984355  0.686869 0.438596
27  -12.116307 -6.506395 34.987324  -0.173201 0.032347 -0.984355  0.666667 0.526316
MP5sideview.bmp
27  -13.507330 -3.940207 35.862797  -0.145461 0.492229 -0.858226  0.717172 0.385965
27  -11.979017 -3.958461 35.593292  -0.155626 0.387201 -0.908766  0.717172 0.385965
27  -13.619118 -4.953120 35.297474  -0.145459 0.492230 -0.858226  0.686869 0.438596
MP5sideview.bmp
27  -13.619118 -4.953120 35.297474  -0.145459 0.492230 -0.858226  0.686869 0.438596
27  -11.979017 -3.958461 35.593292  -0.155626 0.387201 -0.908766  0.717172 0.385965
27  -12.090806 -4.971374 35.027969  -0.145453 0.492272 -0.858203  0.686869 0.438596
MP5sideview.bmp
27  -13.290313 -1.018820 36.895588  -0.021011 0.982384 -0.185687  0.777778 0.228070
27  -11.762001 -1.037073 36.626083  -0.021020 0.982375 -0.185733  0.777778 0.228070
27  -13.395823 -1.131801 36.304909  -0.083772 0.842454 -0.532216  0.757576 0.228070
MP5sideview.bmp
27  -13.395823 -1.131801 36.304909  -0.083772 0.842454 -0.532216  0.757576 0.228070
27  -11.762001 -1.037073 36.626083  -0.021020 0.982375 -0.185733  0.777778 0.228070
27  -11.867512 -1.150054 36.035404  -0.021012 0.982384 -0.185686  0.757576 0.228070
MP5sideview.bmp
27  -12.903316 -1.774446 39.141346  0.171653 0.230540 0.957803  0.848485 0.315789
27  -11.375004 -1.792700 38.871841  0.127965 0.725174 0.676571  0.848485 0.315789
27  -13.290313 -1.018820 36.895588  0.065655 0.949108 0.308031  0.777778 0.228070
MP5sideview.bmp
27  -13.290313 -1.018820 36.895588  0.065655 0.949108 0.308031  0.777778 0.228070
27  -11.375004 -1.792700 38.871841  0.127965 0.725174 0.676571  0.848485 0.315789
27  -11.762001 -1.037073 36.626083  0.065654 0.949108 0.308031  0.777778 0.228070
MP5sideview.bmp
27  -13.104420 -5.951828 38.283867  0.167561 -0.205966 0.964107  0.292929 0.491228
27  -11.576108 -5.970082 38.014359  0.167558 -0.205966 0.964107  0.363636 0.491228
27  -12.903316 -1.774446 39.141346  0.171653 0.230540 0.957803  0.292929 0.614035
MP5sideview.bmp
27  -12.903316 -1.774446 39.141346  0.171653 0.230540 0.957803  0.292929 0.614035
27  -11.576108 -5.970082 38.014359  0.167558 -0.205966 0.964107  0.363636 0.491228
27  -11.375004 -1.792700 38.871841  0.127965 0.725174 0.676571  0.363636 0.614035
MP5sideview.bmp
27  -12.981154 -6.953096 39.050697  0.141001 0.638854 0.756296  0.292929 0.456140
27  -11.452843 -6.971351 38.781189  0.141001 0.638854 0.756296  0.363636 0.456140
27  -13.104420 -5.951828 38.283867  0.141002 0.638854 0.756296  0.292929 0.491228
MP5sideview.bmp
27  -13.104420 -5.951828 38.283867  0.141002 0.638854 0.756296  0.292929 0.491228
27  -11.452843 -6.971351 38.781189  0.141001 0.638854 0.756296  0.363636 0.456140
27  -11.576108 -5.970082 38.014359  0.140999 0.638854 0.756297  0.363636 0.491228
MP5sideview.bmp
27  -12.410536 -6.000383 42.222031  -0.034503 0.964720 -0.261007  0.595960 0.719298
27  -10.882224 -6.018638 41.952522  -0.034506 0.964720 -0.261006  0.595960 0.859649
27  -12.981154 -6.953096 39.050697  -0.034506 0.964720 -0.261006  0.535354 0.719298
MP5sideview.bmp
27  -12.981154 -6.953096 39.050697  -0.034506 0.964720 -0.261006  0.535354 0.719298
27  -10.882224 -6.018638 41.952522  -0.034506 0.964720 -0.261006  0.595960 0.859649
27  -11.452843 -6.971351 38.781189  -0.034506 0.964720 -0.261006  0.535354 0.859649
MP5sideview.bmp
27  -12.185012 -6.004105 43.501183  0.174044 0.072880 0.982037  0.292929 0.456140
27  -10.656700 -6.022358 43.231674  0.174044 0.072784 0.982044  0.363636 0.456140
27  -12.187699 -2.775729 43.267284  0.174044 0.072784 0.982044  0.292929 0.543860
MP5sideview.bmp
27  -12.187699 -2.775729 43.267284  0.174044 0.072784 0.982044  0.292929 0.543860
27  -10.656700 -6.022358 43.231674  0.174044 0.072784 0.982044  0.363636 0.456140
27  -10.659388 -2.793983 42.997780  0.174044 0.072784 0.982044  0.363636 0.543860
MP5sideview.bmp
27  -12.064788 -8.447035 44.348412  0.167739 0.330379 0.928824  0.292929 0.368421
27  -10.536476 -8.465289 44.078903  0.167739 0.330379 0.928824  0.363636 0.368421
27  -12.185012 -6.004105 43.501183  0.167739 0.330379 0.928824  0.292929 0.456140
MP5sideview.bmp
27  -12.185012 -6.004105 43.501183  0.167739 0.330379 0.928824  0.292929 0.456140
27  -10.536476 -8.465289 44.078903  0.167739 0.330379 0.928824  0.363636 0.368421
27  -10.656700 -6.022358 43.231674  0.167739 0.330379 0.928824  0.363636 0.456140
MP5sideview.bmp
27  -12.077994 -8.860171 44.301506  0.170783 -0.127154 0.977069  0.959596 0.824561
27  -10.549683 -8.878426 44.031998  0.170778 -0.127155 0.977070  0.959596 0.824561
27  -12.064788 -8.447035 44.348412  0.170782 -0.127155 0.977070  0.959596 0.807018
MP5sideview.bmp
27  -12.064788 -8.447035 44.348412  0.170782 -0.127155 0.977070  0.959596 0.807018
27  -10.549683 -8.878426 44.031998  0.170778 -0.127155 0.977070  0.959596 0.824561
27  -10.536476 -8.465289 44.078903  0.170778 -0.127155 0.977070  0.959596 0.807018
MP5sideview.bmp
27  -12.173286 -9.128107 43.779266  0.067809 -0.892961 0.444998  0.939394 0.824561
27  -10.644974 -9.146361 43.509762  0.067836 -0.892874 0.445167  0.939394 0.824561
27  -12.077994 -8.860171 44.301506  0.067792 -0.893004 0.444914  0.959596 0.824561
MP5sideview.bmp
27  -12.077994 -8.860171 44.301506  0.067792 -0.893004 0.444914  0.959596 0.824561
27  -10.644974 -9.146361 43.509762  0.067836 -0.892874 0.445167  0.939394 0.824561
27  -10.549683 -8.878426 44.031998  0.067805 -0.892960 0.444999  0.959596 0.824561
MP5sideview.bmp
27  -12.395338 -8.531023 42.479614  -0.082379 -0.910374 -0.405503  0.898990 0.771930
27  -10.867026 -8.549277 42.210110  -0.082395 -0.910335 -0.405588  0.898990 0.771930
27  -12.173286 -9.128107 43.779266  -0.082395 -0.910335 -0.405588  0.939394 0.824561
MP5sideview.bmp
27  -12.173286 -9.128107 43.779266  -0.082395 -0.910335 -0.405588  0.939394 0.824561
27  -10.867026 -8.549277 42.210110  -0.082395 -0.910335 -0.405588  0.898990 0.771930
27  -10.644974 -9.146361 43.509762  -0.082374 -0.910394 -0.405459  0.939394 0.824561
MP5sideview.bmp
27  -12.474998 -10.275820 42.146057  0.167566 -0.205699 0.964163  0.868687 0.877193
27  -10.946686 -10.294073 41.876553  0.167567 -0.205699 0.964162  0.868687 0.877193
27  -12.395338 -8.531023 42.479614  0.167568 -0.205699 0.964162  0.898990 0.771930
MP5sideview.bmp
27  -12.395338 -8.531023 42.479614  0.167568 -0.205699 0.964162  0.898990 0.771930
27  -10.946686 -10.294073 41.876553  0.167567 -0.205699 0.964162  0.868687 0.877193
27  -10.867026 -8.549277 42.210110  0.167570 -0.205699 0.964162  0.898990 0.771930
MP5sideview.bmp
27  -12.906368 -10.938703 39.744743  0.034613 -0.964552 0.261612  0.777778 0.877193
27  -11.378056 -10.956957 39.475239  0.034613 -0.964552 0.261612  0.777778 0.877193
27  -12.474998 -10.275820 42.146057  0.034621 -0.964540 0.261657  0.868687 0.877193
MP5sideview.bmp
27  -12.474998 -10.275820 42.146057  0.034621 -0.964540 0.261657  0.868687 0.877193
27  -11.378056 -10.956957 39.475239  0.034613 -0.964552 0.261612  0.777778 0.877193
27  -10.946686 -10.294073 41.876553  0.034604 -0.964565 0.261566  0.868687 0.877193
MP5sideview.bmp
27  -12.917887 -12.043008 39.754219  0.173690 0.002755 0.984796  0.767677 0.929825
27  -11.389574 -12.061261 39.484715  0.173693 0.002755 0.984796  0.767677 0.929825
27  -12.906368 -10.938703 39.744743  0.173692 0.002755 0.984796  0.777778 0.877193
MP5sideview.bmp
27  -12.906368 -10.938703 39.744743  0.173692 0.002755 0.984796  0.777778 0.877193
27  -11.389574 -12.061261 39.484715  0.173693 0.002755 0.984796  0.767677 0.929825
27  -11.378056 -10.956957 39.475239  0.173695 0.002755 0.984796  0.777778 0.877193
MP5sideview.bmp
27  -13.060629 -12.469086 38.973614  0.067869 -0.892776 0.445359  0.737374 0.947368
27  -11.532317 -12.487340 38.704109  0.067870 -0.892776 0.445359  0.737374 0.947368
27  -12.917887 -12.043008 39.754219  0.067869 -0.892776 0.445359  0.767677 0.929825
MP5sideview.bmp
27  -12.917887 -12.043008 39.754219  0.067869 -0.892776 0.445359  0.767677 0.929825
27  -11.532317 -12.487340 38.704109  0.067870 -0.892776 0.445359  0.737374 0.947368
27  -11.389574 -12.061261 39.484715  0.067873 -0.892776 0.445359  0.767677 0.929825
MP5sideview.bmp
27  -13.248911 -12.380825 37.899933  -0.026073 -0.996424 -0.080366  0.696970 0.929825
27  -11.720598 -12.399079 37.630424  -0.026073 -0.996424 -0.080365  0.696970 0.929825
27  -13.060629 -12.469086 38.973614  -0.026082 -0.996420 -0.080412  0.737374 0.947368
MP5sideview.bmp
27  -13.060629 -12.469086 38.973614  -0.026082 -0.996420 -0.080412  0.737374 0.947368
27  -11.720598 -12.399079 37.630424  -0.026073 -0.996424 -0.080365  0.696970 0.929825
27  -11.532317 -12.487340 38.704109  -0.026081 -0.996420 -0.080411  0.737374 0.947368
MP5sideview.bmp
27  -13.301950 -11.592863 37.545784  -0.162849 -0.414402 -0.895406  0.696970 0.877193
27  -11.773639 -11.611116 37.276276  -0.162850 -0.414401 -0.895406  0.696970 0.877193
27  -13.248911 -12.380825 37.899933  -0.162852 -0.414358 -0.895425  0.696970 0.929825
MP5sideview.bmp
27  -13.248911 -12.380825 37.899933  -0.162852 -0.414358 -0.895425  0.696970 0.929825
27  -11.773639 -11.611116 37.276276  -0.162850 -0.414401 -0.895406  0.696970 0.877193
27  -11.720598 -12.399079 37.630424  -0.162848 -0.414444 -0.895386  0.696970 0.929825
MP5sideview.bmp
27  -14.813784 -15.936735 21.757362  0.034686 -0.964438 0.262025  0.121212 0.754386
27  -11.773639 -11.611116 37.276276  0.034687 -0.964438 0.262024  0.707071 0.771930
27  -15.853666 -15.924314 21.940737  0.034686 -0.964438 0.262024  0.121212 0.719298
MP5sideview.bmp
27  -15.853666 -15.924314 21.940737  0.034686 -0.964438 0.262024  0.121212 0.719298
27  -11.773639 -11.611116 37.276276  0.034687 -0.964438 0.262024  0.707071 0.771930
27  -13.301950 -11.592863 37.545784  0.034687 -0.964438 0.262024  0.707071 0.719298
MP5sideview.bmp
27  -15.795720 -17.602341 22.382992  0.171659 0.230447 0.957824  0.111111 0.964912
27  -14.755837 -17.614761 22.199617  0.171655 0.230446 0.957825  0.111111 0.964912
27  -15.853666 -15.924314 21.940737  0.171655 0.230446 0.957825  0.121212 0.859649
MP5sideview.bmp
27  -15.853666 -15.924314 21.940737  0.171655 0.230446 0.957825  0.121212 0.859649
27  -14.755837 -17.614761 22.199617  0.171655 0.230446 0.957825  0.111111 0.964912
27  -14.813784 -15.936735 21.757362  0.171653 0.230446 0.957826  0.121212 0.859649
MP5sideview.bmp
27  -15.855516 -17.853861 22.060936  0.095606 -0.797160 0.596151  0.101010 0.982456
27  -14.815635 -17.866282 21.877560  0.095604 -0.797164 0.596145  0.101010 0.982456
27  -15.795720 -17.602341 22.382992  0.095605 -0.797161 0.596149  0.111111 0.964912
MP5sideview.bmp
27  -15.795720 -17.602341 22.382992  0.095605 -0.797161 0.596149  0.111111 0.964912
27  -14.815635 -17.866282 21.877560  0.095604 -0.797164 0.596145  0.101010 0.982456
27  -14.755837 -17.614761 22.199617  0.095604 -0.797166 0.596143  0.111111 0.964912
MP5sideview.bmp
27  -15.916995 -17.528492 21.690266  -0.121477 -0.760959 -0.637326  0.090909 0.947368
27  -14.877112 -17.540911 21.506891  -0.121477 -0.760953 -0.637333  0.090909 0.947368
27  -15.855516 -17.853861 22.060936  -0.121477 -0.760957 -0.637329  0.101010 0.982456
MP5sideview.bmp
27  -15.855516 -17.853861 22.060936  -0.121477 -0.760957 -0.637329  0.101010 0.982456
27  -14.877112 -17.540911 21.506891  -0.121477 -0.760953 -0.637333  0.090909 0.947368
27  -14.815635 -17.866282 21.877560  -0.121477 -0.760951 -0.637336  0.101010 0.982456
MP5sideview.bmp
27  -16.006033 -16.439381 21.111588  -0.158557 -0.472088 -0.867175  0.080808 0.877193
27  -14.966150 -16.451801 20.928211  -0.158553 -0.472130 -0.867153  0.080808 0.877193
27  -15.916995 -17.528492 21.690266  -0.158558 -0.472046 -0.867198  0.090909 0.947368
MP5sideview.bmp
27  -15.916995 -17.528492 21.690266  -0.158558 -0.472046 -0.867198  0.090909 0.947368
27  -14.966150 -16.451801 20.928211  -0.158553 -0.472130 -0.867153  0.080808 0.877193
27  -14.877112 -17.540911 21.506891  -0.158557 -0.472046 -0.867198  0.090909 0.947368
MP5sideview.bmp
27  -16.074577 -14.786608 20.610935  -0.169470 -0.292145 -0.941239  0.080808 0.771930
27  -15.034696 -14.799028 20.427561  -0.169470 -0.292145 -0.941239  0.080808 0.771930
27  -16.006033 -16.439381 21.111588  -0.169470 -0.292145 -0.941239  0.080808 0.877193
MP5sideview.bmp
27  -16.006033 -16.439381 21.111588  -0.169470 -0.292145 -0.941239  0.080808 0.877193
27  -15.034696 -14.799028 20.427561  -0.169470 -0.292145 -0.941239  0.080808 0.771930
27  -14.966150 -16.451801 20.928211  -0.169470 -0.292144 -0.941239  0.080808 0.877193
MP5sideview.bmp
27  -16.228485 -15.289368 18.620472  0.034657 -0.964485 0.261855  0.010101 0.771930
27  -15.582498 -15.297083 18.506557  0.034657 -0.964485 0.261855  0.010101 0.771930
27  -16.074577 -14.786608 20.610935  0.034656 -0.964484 0.261856  0.080808 0.771930
MP5sideview.bmp
27  -16.074577 -14.786608 20.610935  0.034656 -0.964484 0.261856  0.080808 0.771930
27  -15.582498 -15.297083 18.506557  0.034657 -0.964485 0.261855  0.010101 0.771930
27  -15.034696 -14.799028 20.427561  0.034654 -0.964484 0.261857  0.080808 0.771930
MP5sideview.bmp
27  -16.258867 -14.489361 18.394001  -0.169444 -0.292682 -0.941077  0.010101 0.719298
27  -15.612879 -14.497076 18.280085  -0.169445 -0.292683 -0.941077  0.010101 0.719298
27  -16.228485 -15.289368 18.620472  -0.169445 -0.292683 -0.941076  0.010101 0.771930
MP5sideview.bmp
27  -16.228485 -15.289368 18.620472  -0.169445 -0.292683 -0.941076  0.010101 0.771930
27  -15.612879 -14.497076 18.280085  -0.169445 -0.292683 -0.941077  0.010101 0.719298
27  -15.582498 -15.297083 18.506557  -0.169449 -0.292684 -0.941076  0.010101 0.771930
MP5sideview.bmp
27  -16.093197 -13.877838 20.443798  -0.034499 0.964724 -0.260993  0.080808 0.719298
27  -15.053314 -13.890259 20.260424  -0.034501 0.964724 -0.260992  0.080808 0.719298
27  -16.258867 -14.489361 18.394001  -0.034503 0.964724 -0.260991  0.010101 0.719298
MP5sideview.bmp
27  -16.258867 -14.489361 18.394001  -0.034503 0.964724 -0.260991  0.010101 0.719298
27  -15.053314 -13.890259 20.260424  -0.034501 0.964724 -0.260992  0.080808 0.719298
27  -15.612879 -14.497076 18.280085  -0.034504 0.964725 -0.260991  0.010101 0.719298
MP5sideview.bmp
27  -14.745560 -9.112279 29.191357  -0.165711 -0.368480 -0.914747  0.434343 0.578947
27  -13.217247 -9.130533 28.921850  -0.165710 -0.368436 -0.914765  0.434343 0.578947
27  -14.672170 -10.398051 29.694622  -0.172067 0.084283 -0.981473  0.434343 0.666667
MP5sideview.bmp
27  -14.672170 -10.398051 29.694622  -0.172067 0.084283 -0.981473  0.434343 0.666667
27  -13.217247 -9.130533 28.921850  -0.165710 -0.368436 -0.914765  0.434343 0.578947
27  -13.143858 -10.416306 29.425117  -0.165712 -0.368347 -0.914801  0.434343 0.666667
MP5sideview.bmp
27  -14.710554 -9.006857 29.382723  -0.074190 0.874171 -0.479918  0.444444 0.578947
27  -13.182242 -9.025111 29.113216  -0.074190 0.874169 -0.479921  0.444444 0.578947
27  -14.745560 -9.112279 29.191357  -0.074190 0.874171 -0.479919  0.434343 0.578947
MP5sideview.bmp
27  -14.745560 -9.112279 29.191357  -0.074190 0.874171 -0.479919  0.434343 0.578947
27  -13.182242 -9.025111 29.113216  -0.074190 0.874169 -0.479921  0.444444 0.578947
27  -13.217247 -9.130533 28.921850  -0.074191 0.874169 -0.479921  0.434343 0.578947
MP5sideview.bmp
27  -14.744624 -5.980868 27.556412  -0.155120 -0.511749 -0.845015  0.151515 0.368421
27  -13.704741 -5.993289 27.373035  -0.155148 -0.511461 -0.845185  0.838384 0.368421
27  -14.710554 -9.006857 29.382723  -0.155162 -0.511337 -0.845257  0.000000 0.000000
MP5sideview.bmp
27  -14.710554 -9.006857 29.382723  -0.155162 -0.511337 -0.845257  0.000000 0.000000
27  -13.704741 -5.993289 27.373035  -0.155148 -0.511461 -0.845185  0.838384 0.368421
27  -13.182242 -9.025111 29.113216  -0.155162 -0.511337 -0.845257  1.000000 0.000000
MP5sideview.bmp
27  -15.349216 -2.310730 23.879316  -0.169549 0.160645 -0.972341  0.151515 0.877193
27  -14.309333 -2.323150 23.695942  -0.165718 -0.368404 -0.914776  0.838384 0.877193
27  -14.744624 -5.980868 27.556412  -0.130010 -0.713046 -0.688957  0.151515 0.368421
MP5sideview.bmp
27  -14.744624 -5.980868 27.556412  -0.130010 -0.713046 -0.688957  0.151515 0.368421
27  -14.309333 -2.323150 23.695942  -0.165718 -0.368404 -0.914776  0.838384 0.877193
27  -13.704741 -5.993289 27.373035  -0.130015 -0.713013 -0.688991  0.838384 0.368421
MP5sideview.bmp
27  -15.166260 -0.889184 24.820538  -0.137471 0.559345 -0.817456  0.363636 0.000000
27  -14.126377 -0.901605 24.637161  -0.137472 0.559344 -0.817456  0.363636 0.000000
27  -15.349216 -2.310730 23.879316  -0.169549 0.160645 -0.972341  0.313131 0.070175
MP5sideview.bmp
27  -15.349216 -2.310730 23.879316  -0.169549 0.160645 -0.972341  0.313131 0.070175
27  -14.126377 -0.901605 24.637161  -0.137472 0.559344 -0.817456  0.363636 0.000000
27  -14.309333 -2.323150 23.695942  -0.165718 -0.368404 -0.914776  0.313131 0.070175
MP5sideview.bmp
27  -12.187699 -2.775729 43.267284  -0.984737 0.011762 0.173650  0.979798 0.438596
27  -12.224468 -2.606440 43.047310  -0.984737 0.011764 0.173652  0.969697 0.421053
27  -12.319485 -2.539233 42.503937  -0.984737 0.011766 0.173650  0.959596 0.421053
MP5sideview.bmp
27  -12.319485 -2.539233 42.503937  -0.984737 0.011766 0.173650  0.959596 0.421053
27  -12.224468 -2.606440 43.047310  -0.984737 0.011764 0.173652  0.969697 0.421053
27  -12.297025 -2.445874 42.624977  -0.984737 0.011774 0.173653  0.959596 0.403509
MP5sideview.bmp
27  -10.659388 -2.793983 42.997780  0.984737 -0.011765 -0.173651  0.979798 0.438596
27  -10.791173 -2.557487 42.234428  0.984737 -0.011762 -0.173652  0.959596 0.421053
27  -10.696156 -2.624694 42.777802  0.984737 -0.011785 -0.173652  0.969697 0.421053
MP5sideview.bmp
27  -10.696156 -2.624694 42.777802  0.984737 -0.011785 -0.173652  0.969697 0.421053
27  -10.791173 -2.557487 42.234428  0.984737 -0.011762 -0.173652  0.959596 0.421053
27  -10.768713 -2.464128 42.355473  0.984736 -0.011758 -0.173655  0.959596 0.403509
MP5sideview.bmp
27  -11.979017 -3.958461 35.593292  -0.169527 0.161196 -0.972253  0.717172 0.385965
27  -13.507330 -3.940207 35.862797  -0.169527 0.161196 -0.972253  0.717172 0.385965
27  -13.395823 -1.131801 36.304909  -0.083797 0.842458 -0.532205  0.757576 0.228070
MP5sideview.bmp
27  -11.979017 -3.958461 35.593292  -0.155648 0.387027 -0.908836  0.717172 0.385965
27  -13.395823 -1.131801 36.304909  -0.169529 0.161148 -0.972261  0.757576 0.228070
27  -11.867512 -1.150054 36.035404  -0.169529 0.161148 -0.972261  0.757576 0.228070
MP5sideview.bmp
27  -10.882224 -6.018638 41.952522  -0.172066 0.084465 -0.981458  0.909091 0.614035
27  -12.410536 -6.000383 42.222031  -0.172067 0.084465 -0.981457  0.909091 0.614035
27  -12.319485 -2.539233 42.503937  -0.145460 0.492249 -0.858214  0.959596 0.421053
MP5sideview.bmp
27  -14.875082 -13.333486 21.233433  -0.040763 0.954384 -0.295785  0.121212 0.701754
27  -14.672170 -10.398051 29.694622  -0.040760 0.954384 -0.295786  0.434343 0.666667
27  -13.143858 -10.416306 29.425117  -0.040759 0.954384 -0.295786  0.434343 0.666667
MP5sideview.bmp
27  -15.166260 -0.889184 24.820538  -0.984737 0.011763 0.173650  0.363636 0.000000
27  -15.349216 -2.310730 23.879316  -0.984737 0.011762 0.173650  0.313131 0.070175
27  -14.749825 -3.066755 27.329548  -0.984737 0.011761 0.173651  0.424242 0.175439
MP5sideview.bmp
27  -13.104420 -5.951828 38.283867  -0.984737 0.011761 0.173650  0.777778 0.543860
27  -13.301950 -11.592863 37.545784  -0.984738 0.011747 0.173646  0.696970 0.877193
27  -12.981154 -6.953096 39.050697  -0.984737 0.011762 0.173651  0.797980 0.614035
MP5sideview.bmp
27  -11.452843 -6.971351 38.781189  0.984737 -0.011762 -0.173651  0.797980 0.614035
27  -11.773639 -11.611116 37.276276  0.984739 -0.011730 -0.173642  0.696970 0.877193
27  -11.576108 -5.970082 38.014359  0.984737 -0.011762 -0.173650  0.777778 0.543860
M203.bmp
27  -17.136967 -11.803695 20.004787  -0.945780 0.315131 0.078694  0.000000 0.444444
27  -14.075323 -7.702161 28.704294  -0.036521 0.961547 -0.272201  0.914286 0.000000
27  -15.756649 -10.413115 19.353451  -0.036564 0.961547 -0.272195  0.000000 0.000000
M203.bmp
27  -15.756649 -10.413115 19.353451  -0.036564 0.961547 -0.272195  0.000000 0.000000
27  -14.075323 -7.702161 28.704294  -0.036521 0.961547 -0.272201  0.914286 0.000000
27  -14.253656 -11.838132 19.496338  0.922709 0.292770 -0.250786  0.000000 0.444444
M203.bmp
27  -14.075323 -7.702161 28.704294  -0.036521 0.961547 -0.272201  0.914286 0.000000
27  -12.572330 -9.127179 28.847183  0.945783 -0.315121 -0.078698  0.914286 0.444444
27  -14.253656 -11.838132 19.496338  0.922709 0.292770 -0.250786  0.000000 0.444444
M203.bmp
27  -14.253656 -11.838132 19.496338  0.922709 0.292770 -0.250786  0.000000 0.444444
27  -12.572330 -9.127179 28.847183  0.945783 -0.315121 -0.078698  0.914286 0.444444
27  -15.649439 -13.236217 20.152634  0.036572 -0.961548 0.272192  0.000000 1.000000
M203.bmp
27  -12.572330 -9.127179 28.847183  0.945783 -0.315121 -0.078698  0.914286 0.444444
27  -13.968112 -10.525264 29.503477  0.036535 -0.961547 0.272200  0.914286 1.000000
27  -15.649439 -13.236217 20.152634  0.036572 -0.961548 0.272192  0.000000 1.000000
M203.bmp
27  -15.649439 -13.236217 20.152634  0.036572 -0.961548 0.272192  0.000000 1.000000
27  -13.968112 -10.525264 29.503477  0.036535 -0.961547 0.272200  0.914286 1.000000
27  -15.455641 -9.092741 29.355633  -0.922702 -0.292789 0.250790  0.914286 0.444444
M203.bmp
27  -15.756649 -10.413115 19.353451  -0.170175 -0.274387 -0.946442  0.000000 0.000000
27  -14.253656 -11.838132 19.496338  -0.170175 -0.274388 -0.946442  0.000000 0.444444
27  -17.136967 -11.803695 20.004787  -0.170175 -0.274388 -0.946442  0.000000 0.444444
M203.bmp
27  -17.136967 -11.803695 20.004787  -0.170175 -0.274388 -0.946442  0.000000 0.444444
27  -14.253656 -11.838132 19.496338  -0.170175 -0.274388 -0.946442  0.000000 0.444444
27  -15.649439 -13.236217 20.152634  -0.170176 -0.274389 -0.946441  0.000000 1.000000
M203.bmp
27  -14.075323 -7.702161 28.704294  -0.036521 0.961547 -0.272201  0.914286 0.000000
27  -17.136967 -11.803695 20.004787  -0.945780 0.315131 0.078694  0.000000 0.444444
27  -15.455641 -9.092741 29.355633  -0.922702 -0.292789 0.250790  0.914286 0.444444
M203.bmp
27  -15.455641 -9.092741 29.355633  -0.922702 -0.292789 0.250790  0.914286 0.444444
27  -17.136967 -11.803695 20.004787  -0.945780 0.315131 0.078694  0.000000 0.444444
27  -15.649439 -13.236217 20.152634  0.036572 -0.961548 0.272192  0.000000 1.000000
M203.bmp
27  -13.968112 -10.525264 29.503477  -0.170174 -0.274387 -0.946442  0.914286 1.000000
27  -15.455641 -9.092741 29.355633  -0.170174 -0.274387 -0.946442  0.914286 0.444444
27  -12.572330 -9.127179 28.847183  -0.170174 -0.274387 -0.946442  0.914286 0.444444
M203.bmp
27  -12.572330 -9.127179 28.847183  -0.170174 -0.274387 -0.946442  0.914286 0.444444
27  -15.455641 -9.092741 29.355633  -0.170174 -0.274387 -0.946442  0.914286 0.444444
27  -14.075323 -7.702161 28.704294  -0.170175 -0.274387 -0.946442  0.914286 0.000000
end
